<svg width="24" height="24" viewBox="0 0 24 24" fill="none" xmlns="http://www.w3.org/2000/svg">
<path d="M10.9981 18.7174C11.5781 18.7174 12.0151 18.288 12.0151 17.7004V15.0034H12.2034C14.9531 15.0034 16.6331 15.8095 17.8159 18.0093C18.1172 18.5592 18.4788 18.6873 18.8781 18.6873C19.4054 18.6873 19.8122 18.1901 19.8122 17.2333C19.8122 11.764 17.394 8.42667 12.2034 8.42667H12.0151V5.74475C12.0151 5.15714 11.5781 4.69006 10.983 4.69006C10.5837 4.69006 10.2975 4.8558 9.86051 5.26261L3.89399 10.8223C3.60018 11.1011 3.48718 11.4175 3.48718 11.7037C3.48718 11.9825 3.60018 12.3064 3.89399 12.5852L9.86051 18.1825C10.2598 18.5592 10.5837 18.7174 10.9981 18.7174ZM10.5159 16.7738C10.4783 16.7738 10.4331 16.7512 10.3879 16.7135L5.24248 11.8469C5.18222 11.7866 5.15962 11.7489 5.15962 11.7037C5.15962 11.6585 5.18222 11.6209 5.24248 11.5606L10.3879 6.64877C10.4255 6.6111 10.4707 6.5885 10.5159 6.5885C10.5837 6.5885 10.6289 6.6337 10.6289 6.7015V9.54916C10.6289 9.72243 10.7043 9.79776 10.8775 9.79776H11.8418C16.6934 9.79776 18.3959 12.9995 18.524 16.593C18.524 16.6457 18.5014 16.6683 18.4637 16.6683C18.4336 16.6683 18.4185 16.6457 18.3959 16.6005C17.4995 14.7171 15.2921 13.6248 11.8418 13.6248H10.8775C10.7043 13.6248 10.6289 13.7001 10.6289 13.8734V16.6532C10.6289 16.7286 10.5837 16.7738 10.5159 16.7738Z" fill="#1C1C1E"/>
</svg>
