<svg width="24" height="24" viewBox="0 0 24 24" fill="none" xmlns="http://www.w3.org/2000/svg">
<path d="M18.3582 16.9395L19.8423 10.9202C20.9498 10.9202 21.8839 9.99362 21.8839 8.84099C21.8839 7.70344 20.9498 6.76929 19.8047 6.76929C18.6596 6.76929 17.733 7.70344 17.733 8.84099C17.733 9.07453 17.7706 9.293 17.8384 9.49641L16.0455 10.6038C15.8119 10.747 15.6688 10.7093 15.5407 10.5285L13.1978 7.37197C13.7252 6.99529 14.0717 6.37755 14.0717 5.67693C14.0717 4.53938 13.1375 3.60522 12 3.60522C10.8474 3.60522 9.92074 4.53184 9.92074 5.67693C9.92074 6.37755 10.2673 6.99529 10.8022 7.37197L8.45171 10.536C8.33118 10.7018 8.19557 10.7394 7.9771 10.6038L6.16153 9.48134C6.2218 9.27794 6.25947 9.067 6.25947 8.84099C6.25947 7.70344 5.33285 6.76929 4.18776 6.76929C3.03514 6.76929 2.10852 7.70344 2.10852 8.84099C2.10852 9.97855 3.02761 10.9052 4.15763 10.9202L5.63419 16.9395C5.94306 18.19 6.62108 18.8153 7.91684 18.8153H16.0831C17.3789 18.8153 18.0569 18.19 18.3582 16.9395ZM12 6.43028C11.5856 6.43028 11.2466 6.09127 11.2466 5.67693C11.2466 5.25506 11.5856 4.93112 12 4.93112C12.4068 4.93112 12.7458 5.27012 12.7458 5.67693C12.7458 6.09127 12.4143 6.43028 12 6.43028ZM7.47236 11.8996C8.07504 12.2537 8.92632 12.216 9.45367 11.5078L12 8.08011L14.5689 11.5304C15.0812 12.2311 15.9249 12.2687 16.4899 11.9297L18.4486 10.747L17.507 14.5966H6.48547L5.54379 10.7244L7.47236 11.8996ZM4.18776 9.59434C3.77342 9.59434 3.43441 9.25534 3.43441 8.84099C3.43441 8.42665 3.77342 8.09518 4.18776 8.09518C4.59457 8.09518 4.93358 8.43419 4.93358 8.84099C4.93358 9.25534 4.6021 9.59434 4.18776 9.59434ZM19.8047 9.59434C19.3828 9.59434 19.0589 9.25534 19.0589 8.84099C19.0589 8.43419 19.3979 8.09518 19.8047 8.09518C20.219 8.09518 20.558 8.42665 20.558 8.84099C20.558 9.25534 20.219 9.59434 19.8047 9.59434ZM7.90177 17.4292C7.41209 17.4292 7.11829 17.2032 7.01282 16.7436L6.82448 15.9903H17.168L16.9871 16.7436C16.8741 17.2032 16.5879 17.4292 16.0907 17.4292H7.90177Z" fill="#1C1C1E"/>
</svg>
