<svg width="24" height="24" viewBox="0 0 24 24" fill="none" xmlns="http://www.w3.org/2000/svg">
<path d="M12.0001 11.8693C13.8232 11.8693 15.2997 10.2572 15.2997 8.28341C15.2997 6.33977 13.8232 4.79541 12.0001 4.79541C10.1845 4.79541 8.69287 6.36237 8.7004 8.29848C8.70794 10.2647 10.177 11.8693 12.0001 11.8693ZM12.0001 10.551C10.9604 10.551 10.079 9.5641 10.079 8.29848C10.0715 7.06299 10.9529 6.11377 12.0001 6.11377C13.0548 6.11377 13.9211 7.04792 13.9211 8.28341C13.9211 9.54904 13.0472 10.551 12.0001 10.551ZM7.29918 18.8755H16.6934C17.9967 18.8755 18.622 18.4611 18.622 17.5722C18.622 15.5005 16.038 12.7432 12.0001 12.7432C7.96212 12.7432 5.37061 15.5005 5.37061 17.5722C5.37061 18.4611 5.99588 18.8755 7.29918 18.8755ZM7.06564 17.5571C6.88484 17.5571 6.81703 17.4969 6.81703 17.3613C6.81703 16.2086 8.6778 14.0616 12.0001 14.0616C15.3148 14.0616 17.1756 16.2086 17.1756 17.3613C17.1756 17.4969 17.1078 17.5571 16.927 17.5571H7.06564Z" fill="#1C1C1E"/>
</svg>
