<svg width="25" height="24" viewBox="0 0 25 24" fill="none" xmlns="http://www.w3.org/2000/svg">
<path d="M4.03992 11.0558C4.03992 11.5756 4.46179 11.9975 4.9816 11.9975C5.50895 11.9975 5.92329 11.5756 5.92329 11.0558V10.5661C5.92329 9.33819 6.76704 8.54717 8.04773 8.54717H13.7054V10.1217C13.7054 10.5737 13.9916 10.8599 14.4512 10.8599C14.6546 10.8599 14.8429 10.7846 14.9936 10.6641L17.9618 8.1931C18.3309 7.89929 18.3234 7.40208 17.9618 7.10074L14.9936 4.62223C14.8429 4.49416 14.6546 4.41882 14.4512 4.41882C13.9916 4.41882 13.7054 4.7051 13.7054 5.1571V6.69393H8.1984C5.64455 6.69393 4.03992 8.11776 4.03992 10.3853V11.0558ZM11.2947 13.12C11.2947 12.668 11.0084 12.3742 10.5564 12.3742C10.353 12.3742 10.1571 12.457 10.0064 12.5776L7.04578 15.0486C6.67664 15.3424 6.67664 15.832 7.04578 16.1409L10.0064 18.6194C10.1571 18.7475 10.353 18.8228 10.5564 18.8228C11.0084 18.8228 11.2947 18.5366 11.2947 18.0846V16.5402H16.8092C19.363 16.5402 20.9601 15.1088 20.9601 12.8488V12.1783C20.9601 11.651 20.5458 11.2291 20.0184 11.2291C19.4986 11.2291 19.0767 11.651 19.0767 12.1783V12.668C19.0767 13.8884 18.2405 14.687 16.9523 14.687H11.2947V13.12Z" fill="#1C1C1E"/>
</svg>
