<svg width="32" height="32" viewBox="0 0 32 32" fill="none" xmlns="http://www.w3.org/2000/svg">
<g filter="url(#filter0_b_4700_53613)">
<circle cx="16" cy="16" r="16" fill="white" fill-opacity="0.3"/>
</g>
<path d="M9.67576 14.9361C10.0651 14.9361 10.3442 14.6426 10.3442 14.2537V13.6373L10.1973 11.0765L12.1291 13.109L14.3914 15.3836C14.5163 15.5157 14.6779 15.5744 14.8541 15.5744C15.2728 15.5744 15.5813 15.3029 15.5813 14.892C15.5813 14.6939 15.5152 14.5178 15.383 14.3857L13.1133 12.1258L11.0787 10.196L13.6495 10.3428H14.2592C14.6485 10.3428 14.9496 10.0713 14.9496 9.67505C14.9496 9.27883 14.6558 9 14.2592 9H10.1826C9.43337 9 9 9.43291 9 10.1813V14.2537C9 14.6352 9.28646 14.9361 9.67576 14.9361ZM17.7335 23H21.8101C22.5593 23 23 22.5671 23 21.8187V17.7463C23 17.3648 22.7135 17.0639 22.3169 17.0639C21.9349 17.0639 21.6485 17.3574 21.6485 17.7463V18.3627L21.8027 20.9235L19.8636 18.891L17.6086 16.6164C17.4837 16.4843 17.3148 16.4256 17.1385 16.4256C16.7272 16.4256 16.4113 16.6971 16.4113 17.108C16.4113 17.3061 16.4848 17.4822 16.617 17.6143L18.8793 19.8742L20.9213 21.804L18.3505 21.6572H17.7335C17.3442 21.6572 17.043 21.9287 17.043 22.3249C17.043 22.7212 17.3442 23 17.7335 23Z" fill="white"/>
<defs>
<filter id="filter0_b_4700_53613" x="-25" y="-25" width="82" height="82" filterUnits="userSpaceOnUse" color-interpolation-filters="sRGB">
<feFlood flood-opacity="0" result="BackgroundImageFix"/>
<feGaussianBlur in="BackgroundImage" stdDeviation="12.5"/>
<feComposite in2="SourceAlpha" operator="in" result="effect1_backgroundBlur_4700_53613"/>
<feBlend mode="normal" in="SourceGraphic" in2="effect1_backgroundBlur_4700_53613" result="shape"/>
</filter>
</defs>
</svg>
