<svg width="32" height="32" viewBox="0 0 32 32" fill="none" xmlns="http://www.w3.org/2000/svg">
<g filter="url(#filter0_b_4700_53610)">
<circle cx="16" cy="16" r="16" fill="white" fill-opacity="0.3"/>
</g>
<path d="M19.6391 17.6951V10.1234C19.6391 9.64228 19.2838 9.25 18.7879 9.25C18.4326 9.25 18.2106 9.41283 17.8183 9.76071L14.5838 12.6325L15.3758 13.4319L18.2624 10.8117C18.2994 10.7747 18.3438 10.7525 18.3882 10.7525C18.44 10.7525 18.4844 10.7895 18.4844 10.8561V16.5405L19.6391 17.6951ZM22.0446 23.0835C22.2666 23.3055 22.6367 23.3055 22.8513 23.0835C23.0734 22.854 23.0734 22.4987 22.8513 22.2767L10.1799 9.60527C9.95788 9.38323 9.5878 9.38323 9.36575 9.60527C9.14371 9.81992 9.14371 10.1974 9.36575 10.412L22.0446 23.0835ZM12.1857 18.7832H14.3026C14.3692 18.7832 14.4284 18.8054 14.4802 18.8498L17.8183 21.84C18.181 22.1583 18.4474 22.3063 18.8027 22.3063C19.0914 22.3063 19.3282 22.1731 19.4985 21.9214L18.6399 21.0702L15.0649 17.8654C14.9169 17.7322 14.8281 17.7026 14.6356 17.7026H12.2375C11.9563 17.7026 11.8305 17.5767 11.8305 17.3029V14.2534L10.9423 13.3653C10.772 13.6021 10.6758 13.9352 10.6758 14.3719V17.2066C10.6758 18.2799 11.1791 18.7832 12.1857 18.7832Z" fill="white"/>
<defs>
<filter id="filter0_b_4700_53610" x="-25" y="-25" width="82" height="82" filterUnits="userSpaceOnUse" color-interpolation-filters="sRGB">
<feFlood flood-opacity="0" result="BackgroundImageFix"/>
<feGaussianBlur in="BackgroundImage" stdDeviation="12.5"/>
<feComposite in2="SourceAlpha" operator="in" result="effect1_backgroundBlur_4700_53610"/>
<feBlend mode="normal" in="SourceGraphic" in2="effect1_backgroundBlur_4700_53610" result="shape"/>
</filter>
</defs>
</svg>
