<svg width="16" height="16" viewBox="0 0 16 16" fill="none" xmlns="http://www.w3.org/2000/svg">
<path d="M16 8C16 12.418 12.418 16 8 16C3.58197 16 0 12.418 0 8C0 3.58197 3.58197 0 8 0C12.419 0 16 3.58197 16 8Z" fill="#646871"/>
<path d="M3.94698 8.26864L3.98149 8.21438L6.06261 4.95873C6.09303 4.91107 6.16453 4.916 6.18754 4.96777C6.53522 5.74696 6.83522 6.71601 6.69467 7.31931C6.63467 7.56754 6.47029 7.9037 6.28535 8.21438C6.26152 8.2596 6.23522 8.30398 6.20727 8.34672C6.19411 8.36645 6.17192 8.37795 6.14808 8.37795H4.00779C3.95026 8.37795 3.91656 8.31549 3.94698 8.26864Z" fill="black"/>
<path d="M13.2225 8.87298V9.38832C13.2225 9.41791 13.2044 9.44421 13.1781 9.45571C13.017 9.52475 12.4655 9.77791 12.2362 10.0968C11.651 10.9113 11.2038 12.076 10.2044 12.076H6.03474C4.55693 12.076 3.35938 10.8744 3.35938 9.3916V9.34394C3.35938 9.30448 3.39142 9.27243 3.43088 9.27243H5.7553C5.80131 9.27243 5.83501 9.31517 5.83091 9.36037C5.81446 9.5116 5.84242 9.66613 5.91392 9.80667C6.052 10.087 6.33803 10.262 6.64707 10.262H7.79778V9.36367H6.66022C6.60187 9.36367 6.56736 9.29626 6.60106 9.24859C6.61338 9.22968 6.62736 9.20997 6.64214 9.18778C6.74982 9.0349 6.90352 8.79736 7.0564 8.52695C7.16078 8.34448 7.26187 8.14968 7.34325 7.95407C7.3597 7.91872 7.37283 7.88255 7.38598 7.8472C7.40818 7.78474 7.4312 7.72639 7.44763 7.66803C7.46408 7.61871 7.47722 7.56693 7.49037 7.51843C7.52901 7.3524 7.54544 7.17651 7.54544 6.99405C7.54544 6.92255 7.54216 6.84775 7.53558 6.77624C7.53229 6.69816 7.52243 6.62007 7.51256 6.54199C7.50598 6.47295 7.49366 6.40472 7.48051 6.33322C7.46408 6.22883 7.44106 6.12528 7.41475 6.02088L7.40571 5.98144C7.38598 5.90992 7.36955 5.84171 7.34654 5.77021C7.2816 5.54581 7.20682 5.32719 7.1279 5.12253C7.09914 5.04115 7.06626 4.96307 7.03338 4.88499C6.9849 4.76746 6.93557 4.66061 6.89037 4.55951C6.86736 4.51347 6.84763 4.47155 6.8279 4.42882C6.80571 4.38032 6.7827 4.33183 6.75968 4.28581C6.74325 4.25047 6.72434 4.21759 6.71118 4.18471L6.57064 3.92498C6.55091 3.88963 6.58379 3.84771 6.62242 3.8584L7.50189 4.09675H7.50435C7.50598 4.09675 7.50682 4.09759 7.50763 4.09759L7.62352 4.12963L7.75093 4.16581L7.79778 4.17895V3.65621C7.79778 3.40387 7.99997 3.19922 8.24984 3.19922C8.37477 3.19922 8.48819 3.25018 8.56957 3.33319C8.65093 3.41621 8.70189 3.52963 8.70189 3.65621V4.43211L8.7956 4.4584C8.80299 4.46088 8.81038 4.46416 8.81696 4.46909C8.83998 4.48635 8.87285 4.51183 8.91477 4.54307C8.94765 4.56936 8.98299 4.60143 9.02573 4.63431C9.11038 4.70251 9.21149 4.79047 9.32245 4.89157C9.35203 4.91704 9.3808 4.94335 9.4071 4.96965C9.55013 5.1028 9.7104 5.25896 9.86328 5.43157C9.90602 5.48007 9.94794 5.52938 9.99067 5.58115C10.0334 5.63376 10.0786 5.68554 10.1181 5.73733C10.1699 5.80637 10.2257 5.87787 10.2742 5.95267C10.2972 5.98802 10.3236 6.02418 10.3457 6.05952C10.4082 6.15403 10.4633 6.25186 10.5159 6.34967C10.5381 6.39487 10.5611 6.44418 10.5808 6.49267C10.6392 6.62336 10.6852 6.75651 10.7148 6.88967C10.7238 6.91843 10.7304 6.94967 10.7337 6.97762V6.98419C10.7436 7.02363 10.7468 7.06555 10.7501 7.10829C10.7633 7.24474 10.7567 7.38117 10.7271 7.51843C10.7148 7.5768 10.6984 7.63186 10.6786 7.69023C10.6589 7.74611 10.6392 7.80447 10.6137 7.85954C10.5644 7.97378 10.506 8.08803 10.437 8.19488C10.4148 8.23434 10.3885 8.27626 10.3622 8.31571C10.3334 8.35762 10.3038 8.39707 10.2775 8.43571C10.2414 8.48503 10.2027 8.5368 10.1633 8.58283C10.1279 8.63133 10.0918 8.67983 10.0523 8.72256C9.99725 8.78749 9.94464 8.84914 9.88957 8.90832C9.8567 8.94695 9.82136 8.9864 9.78518 9.02175C9.74986 9.06119 9.71368 9.09653 9.6808 9.12941C9.62574 9.18448 9.57971 9.22722 9.54107 9.26256L9.45067 9.34559C9.43752 9.35709 9.42026 9.36367 9.40218 9.36367H8.70189V10.262H9.58299C9.78026 10.262 9.96766 10.1922 10.1189 10.0639C10.1707 10.0187 10.3967 9.82312 10.6638 9.52805C10.6729 9.51818 10.6844 9.51079 10.6975 9.50751L13.1312 8.80394C13.1765 8.79079 13.2225 8.8253 13.2225 8.87298Z" fill="black"/>
</svg>
