<svg width="32" height="32" viewBox="0 0 32 32" fill="none" xmlns="http://www.w3.org/2000/svg">
<g filter="url(#filter0_b_4_1704)">
<circle cx="16" cy="16" r="16" fill="white" fill-opacity="0.3"/>
</g>
<path d="M9.4552 18.933H11.5125C11.5771 18.933 11.6344 18.9545 11.6846 18.9975L14.9176 21.8936C15.2616 22.2018 15.5269 22.3452 15.871 22.3452C16.3297 22.3452 16.681 22.0083 16.681 21.5423V10.5459C16.681 10.0799 16.3297 9.70001 15.8566 9.70001C15.5125 9.70001 15.2903 9.85772 14.9176 10.1946L11.6846 13.062C11.6344 13.105 11.5771 13.1265 11.5125 13.1265H9.4552C8.48029 13.1265 8 13.6212 8 14.6606V17.4061C8 18.4455 8.48746 18.933 9.4552 18.933ZM21.7563 20.9402C22.0215 21.1194 22.3513 21.0549 22.5448 20.7824C23.4624 19.5208 24 17.786 24 16.0154C24 14.2448 23.4695 12.4957 22.5448 11.2484C22.3513 10.976 22.0215 10.9115 21.7563 11.0907C21.491 11.2699 21.448 11.6068 21.6559 11.9007C22.4373 13.0047 22.8889 14.4885 22.8889 16.0154C22.8889 17.5423 22.4229 19.0118 21.6559 20.1301C21.4552 20.424 21.491 20.7609 21.7563 20.9402ZM9.50538 17.8864C9.24014 17.8864 9.11828 17.7645 9.11828 17.4993V14.5674C9.11828 14.295 9.24014 14.1731 9.50538 14.1731H11.7993C11.9857 14.1731 12.129 14.1373 12.2939 13.9868L15.3477 11.2126C15.3835 11.1767 15.4194 11.1552 15.4695 11.1552C15.5197 11.1552 15.5627 11.1911 15.5627 11.2556V20.7824C15.5627 20.847 15.5197 20.89 15.4695 20.89C15.4337 20.89 15.3907 20.8685 15.3477 20.8326L12.2939 18.0728C12.129 17.9294 11.9857 17.8864 11.7993 17.8864H9.50538ZM19.1039 19.0692C19.3405 19.2341 19.6774 19.1839 19.871 18.9043C20.4229 18.1803 20.7527 17.1122 20.7527 16.0154C20.7527 14.9187 20.4229 13.8577 19.871 13.1265C19.6774 12.847 19.3405 12.7896 19.1039 12.9617C18.81 13.1624 18.767 13.5208 18.9892 13.8147C19.405 14.3882 19.6416 15.1839 19.6416 16.0154C19.6416 16.847 19.3978 17.6355 18.9892 18.2161C18.7742 18.5172 18.81 18.8613 19.1039 19.0692Z" fill="white"/>
<defs>
<filter id="filter0_b_4_1704" x="-25" y="-25" width="82" height="82" filterUnits="userSpaceOnUse" color-interpolation-filters="sRGB">
<feFlood flood-opacity="0" result="BackgroundImageFix"/>
<feGaussianBlur in="BackgroundImage" stdDeviation="12.5"/>
<feComposite in2="SourceAlpha" operator="in" result="effect1_backgroundBlur_4_1704"/>
<feBlend mode="normal" in="SourceGraphic" in2="effect1_backgroundBlur_4_1704" result="shape"/>
</filter>
</defs>
</svg>
