<svg width="72" height="86" viewBox="0 0 72 86" fill="none" xmlns="http://www.w3.org/2000/svg">
<path d="M16.6072 20.2231C16.8917 19.9324 17.4211 19.7684 18.293 19.8698C19.153 19.9699 20.2416 20.3194 21.4937 20.9108C23.9921 22.0909 27.0349 24.183 30.0148 26.9148C32.9948 29.6466 35.3183 32.4739 36.6714 34.8247C37.3495 36.0028 37.7693 37.036 37.9192 37.8618C38.0713 38.6991 37.9309 39.2197 37.6464 39.5105C37.362 39.8012 36.8326 39.9652 35.9606 39.8638C35.1007 39.7637 34.012 39.4142 32.76 38.8228C30.2615 37.6427 27.2187 35.5506 24.2388 32.8188C21.2589 30.087 18.9354 27.2596 17.5822 24.9089C16.9041 23.7308 16.4844 22.6976 16.3344 21.8718C16.1823 21.0345 16.3227 20.5139 16.6072 20.2231Z" fill="black" stroke="#CCFF00"/>
<path d="M18.1482 18.6474C18.4327 18.3567 18.9621 18.1927 19.834 18.2941C20.694 18.3942 21.7826 18.7437 23.0347 19.3351C25.5331 20.5152 28.5759 22.6073 31.5558 25.3391C34.5358 28.0709 36.8593 30.8983 38.2124 33.249C38.8905 34.4271 39.3103 35.4603 39.4603 36.2861C39.6123 37.1234 39.4719 37.644 39.1875 37.9348C38.903 38.2256 38.3736 38.3895 37.5016 38.2881C36.6417 38.1881 35.5531 37.8385 34.301 37.2471C31.8025 36.067 28.7598 33.9749 25.7798 31.2431C22.7999 28.5113 20.4764 25.684 19.1232 23.3332C18.4451 22.1551 18.0254 21.1219 17.8754 20.2961C17.7234 19.4588 17.8637 18.9382 18.1482 18.6474Z" fill="black" stroke="#CCFF00"/>
<line y1="-0.5" x2="2.64556" y2="-0.5" transform="matrix(0.69932 -0.714809 0.73713 0.67575 37.8613 40.0063)" stroke="#CCFF00"/>
<line x1="16.6079" y1="19.8388" x2="18.0337" y2="18.4131" stroke="#CCFF00"/>
<path d="M39.0728 13.6778C38.3813 12.0946 38.6734 10.1582 39.8213 8.26739C40.9672 6.37997 42.9397 4.59303 45.4796 3.38398C48.0195 2.17493 50.6053 1.79201 52.7217 2.12652C54.8419 2.46162 56.4339 3.50122 57.1254 5.08435C57.8169 6.66747 57.5248 8.60394 56.3769 10.4947C55.231 12.3821 53.2585 14.1691 50.7186 15.3781C48.1787 16.5872 45.5929 16.9701 43.4765 16.6356C41.3563 16.3005 39.7643 15.2609 39.0728 13.6778Z" fill="black" stroke="#CCFF00"/>
<path d="M38.2721 12.3516C37.5806 10.7685 37.8726 8.83198 39.0205 6.94122C40.1664 5.05379 42.1389 3.26686 44.6788 2.05781C47.2188 0.848759 49.8045 0.465837 51.921 0.800345C54.0411 1.13544 55.6331 2.17505 56.3246 3.75817C57.0161 5.3413 56.724 7.27777 55.5761 9.16854C54.4303 11.056 52.4577 12.8429 49.9178 14.0519C47.3779 15.261 44.7921 15.6439 42.6757 15.3094C40.5556 14.9743 38.9635 13.9347 38.2721 12.3516Z" fill="black" stroke="#CCFF00"/>
<path d="M3.27862 72.2069C3.52871 72.7258 4.05385 73.0557 4.62988 73.0557H68.816C69.9215 73.0557 70.6472 71.9004 70.1672 70.9044L68.7214 67.9044C68.4713 67.3855 67.9462 67.0557 67.3701 67.0557H3.18404C2.07848 67.0557 1.3528 68.211 1.83279 69.2069L3.27862 72.2069Z" fill="black" stroke="#CCFF00"/>
<circle cx="34.5" cy="65.5" r="15" fill="black" stroke="#CCFF00"/>
<path d="M51.5 67C51.5 74.9928 44.7999 81.5 36.5 81.5C28.2001 81.5 21.5 74.9928 21.5 67C21.5 59.0072 28.2001 52.5 36.5 52.5C44.7999 52.5 51.5 59.0072 51.5 67Z" fill="black" stroke="#CCFF00"/>
<rect x="19" y="73.5562" width="35" height="12" fill="black"/>
<line x1="15" y1="73.0557" x2="60" y2="73.0557" stroke="#CCFF00"/>
</svg>
