<svg width="78" height="69" viewBox="0 0 78 69" fill="none" xmlns="http://www.w3.org/2000/svg">
<path d="M2.13876 6.83633C1.39026 3.40913 3.62726 0.630834 7.13525 0.630834H59.8585C63.3665 0.630834 66.8171 3.40913 67.5656 6.83633L75.8612 44.82C76.6097 48.2472 74.3727 51.0255 70.8648 51.0255H18.1415C14.6335 51.0255 11.1829 48.2472 10.4344 44.82L2.13876 6.83633Z" stroke="#B8BDC7" stroke-width="1.29141"/>
<g clip-path="url(#clip0_24_26917)">
<path d="M20.6087 58.8171C20.4355 59.2377 19.1922 60.2433 18.2756 59.8481C17.359 59.4528 16.7816 58.3541 16.7816 58.3541L18.3023 53.792L13.0459 53.792L24.916 41.9219L24.916 58.0241L21.9163 55.0245C21.7813 55.4539 20.8287 58.2828 20.6087 58.8171Z" fill="#B8BDC7"/>
<path fill-rule="evenodd" clip-rule="evenodd" d="M23.9189 44.3301L15.4546 52.7944L19.6868 52.7944L17.9234 58.0846C17.9234 58.0846 18.2482 58.7139 18.6287 58.79C19.0093 58.8661 19.5429 58.7866 19.6868 58.4373C20.3659 56.7881 21.4502 53.1471 21.4502 53.1471L23.9189 55.6158L23.9189 44.3301Z" fill="black"/>
</g>
<path d="M63.9048 37.5363C64.1825 37.8966 64.4317 39.4761 63.6311 40.0723C62.8305 40.6684 61.5903 40.6191 61.5903 40.6191L58.3997 37.0211L55.7715 41.5733L51.4268 25.3584L65.3717 33.4095L61.2741 34.5075C61.5785 34.8392 63.5521 37.0785 63.9048 37.5363Z" fill="#B8BDC7"/>
<path fill-rule="evenodd" clip-rule="evenodd" d="M53.0127 27.4268L56.1109 38.9892L58.2269 35.3241L61.9267 39.4963C61.9267 39.4963 62.634 39.5297 62.8902 39.2382C63.1464 38.9467 63.3444 38.4448 63.1138 38.1455C62.0251 36.7328 59.4141 33.9733 59.4141 33.9733L62.7865 33.0696L53.0127 27.4268Z" fill="black"/>
<line x1="2.58203" y1="7.10283" x2="67.1525" y2="7.10283" stroke="#B8BDC7" stroke-width="1.29141"/>
<defs>
<clipPath id="clip0_24_26917">
<rect width="23.9407" height="23.9407" fill="white" transform="translate(22.0957 34.8682) rotate(45)"/>
</clipPath>
</defs>
</svg>
