<svg width="18" height="20" viewBox="0 0 18 20" fill="none" xmlns="http://www.w3.org/2000/svg">
<path d="M17.1598 15.5863C16.8573 16.2851 16.4993 16.9283 16.0845 17.5196C15.5191 18.3257 15.0562 18.8838 14.6994 19.1936C14.1463 19.7022 13.5537 19.9627 12.9192 19.9775C12.4637 19.9775 11.9143 19.8479 11.2748 19.585C10.6332 19.3232 10.0436 19.1936 9.50449 19.1936C8.93908 19.1936 8.33268 19.3232 7.68406 19.585C7.03445 19.8479 6.51113 19.985 6.11102 19.9985C5.50252 20.0245 4.896 19.7566 4.29059 19.1936C3.90418 18.8566 3.42086 18.2788 2.84187 17.4603C2.22065 16.5863 1.70993 15.5727 1.30982 14.4172C0.881312 13.1691 0.666504 11.9605 0.666504 10.7904C0.666504 9.45008 0.956124 8.29407 1.53623 7.32533C1.99214 6.54721 2.59866 5.9334 3.35778 5.4828C4.11689 5.03219 4.93711 4.80257 5.82041 4.78788C6.30373 4.78788 6.93754 4.93738 7.72517 5.2312C8.51057 5.52601 9.01488 5.67551 9.23598 5.67551C9.40129 5.67551 9.96152 5.5007 10.9112 5.15219C11.8094 4.82899 12.5674 4.69517 13.1883 4.74788C14.871 4.88368 16.1351 5.54699 16.9759 6.74202C15.471 7.65384 14.7265 8.93096 14.7414 10.5693C14.7549 11.8454 15.2179 12.9074 16.1277 13.7506C16.5401 14.1419 17.0006 14.4444 17.5129 14.6592C17.4018 14.9814 17.2845 15.29 17.1598 15.5863ZM13.3007 0.400358C13.3007 1.40059 12.9352 2.3345 12.2069 3.19892C11.3279 4.22654 10.2647 4.82035 9.11179 4.72665C9.0971 4.60665 9.08858 4.48036 9.08858 4.34765C9.08858 3.38743 9.50659 2.3598 10.2489 1.51958C10.6195 1.09416 11.0909 0.740434 11.6624 0.458257C12.2328 0.18029 12.7723 0.0265683 13.2797 0.000244141C13.2945 0.133959 13.3007 0.267682 13.3007 0.400345V0.400358Z" fill="white"/>
</svg>
