<svg width="18" height="13" viewBox="0 0 18 13" fill="none" xmlns="http://www.w3.org/2000/svg">
    <path fillRule="evenodd" clipRule="evenodd" d="M12.3387 11.5501C12.7965 12.1184 13.3458 12.7788 13.3458 12.7788C16.5408 12.6769 17.8594 10.6864 17.9892 10.4904C17.9964 10.4795 18 10.4742 18 10.475C18 5.57544 15.8026 1.59746 15.8026 1.59746C13.6205 -0.0459468 11.53 0.000129904 11.53 0.000129904L11.3163 0.245874C13.9104 1.02918 15.1159 2.18111 15.1159 2.18111C13.5289 1.321 11.9725 0.890952 10.5228 0.722003C9.42414 0.599131 8.37124 0.629848 7.44041 0.75272C7.36048 0.75272 7.29218 0.764425 7.21521 0.777617C7.20401 0.779536 7.19263 0.781488 7.18099 0.783439C6.64691 0.844875 5.34985 1.02918 3.71708 1.75105C3.15248 1.9968 2.81678 2.18111 2.81678 2.18111C2.81678 2.18111 4.06805 0.967746 6.81477 0.184438L6.66217 0.000129904C6.66217 0.000129904 4.58688 -0.0459468 2.38951 1.59746C2.38951 1.59746 0.192139 5.57544 0.192139 10.475C0.192139 10.475 1.47394 12.6867 4.84629 12.7942C4.84629 12.7942 5.41089 12.1184 5.86868 11.5347C3.93072 10.9511 3.19826 9.73773 3.19826 9.73773C3.19826 9.73773 3.35086 9.84524 3.62553 9.99883C3.63496 9.99883 3.64439 10.0047 3.65742 10.0128C3.66548 10.0178 3.67491 10.0237 3.68657 10.0295C3.70946 10.0449 3.73235 10.0564 3.75523 10.0679C3.77812 10.0795 3.80101 10.091 3.8239 10.1063C4.20539 10.3214 4.58688 10.4903 4.93785 10.6285C5.56349 10.8897 6.3112 11.12 7.18099 11.289C8.32546 11.504 9.66829 11.5808 11.1332 11.3043C11.8504 11.1661 12.5829 10.9664 13.3458 10.6439C13.8799 10.4442 14.475 10.1524 15.1007 9.73773C15.1007 9.73773 14.3377 10.9818 12.3387 11.5501ZM10.2634 7.3571C10.2634 6.4202 10.9501 5.66761 11.8199 5.66761C12.6744 5.66761 13.3764 6.4202 13.3764 7.3571C13.3764 8.294 12.6897 9.04659 11.8199 9.04659C10.9654 9.04659 10.2634 8.294 10.2634 7.3571ZM4.69371 7.3571C4.69371 6.4202 5.38039 5.66761 6.25018 5.66761C7.11998 5.66761 7.82191 6.4202 7.80665 7.3571C7.80665 8.294 7.11998 9.04659 6.25018 9.04659C5.39565 9.04659 4.69371 8.294 4.69371 7.3571Z" fill="white" fillOpacity="0.8"/>
</svg>