<svg width="13" height="16" viewBox="0 0 13 16" fill="none" xmlns="http://www.w3.org/2000/svg">
    <path d="M0.743164 13.2529C0.743164 14.6816 1.44727 15.3926 2.8623 15.3926H10.1221C11.5371 15.3926 12.2412 14.6816 12.2412 13.2529V2.88281C12.2412 1.46094 11.5371 0.736328 10.1221 0.736328H2.8623C1.44727 0.736328 0.743164 1.46094 0.743164 2.88281V13.2529ZM1.84375 13.2324V2.90332C1.84375 2.21973 2.20605 1.83691 2.91699 1.83691H10.0674C10.7783 1.83691 11.1406 2.21973 11.1406 2.90332V13.2324C11.1406 13.916 10.7783 14.292 10.0674 14.292H2.91699C2.20605 14.292 1.84375 13.916 1.84375 13.2324ZM3.9082 4.70117H9.08984C9.33594 4.70117 9.51367 4.50977 9.51367 4.27051C9.51367 4.03809 9.33594 3.86035 9.08984 3.86035H3.9082C3.66211 3.86035 3.47754 4.03809 3.47754 4.27051C3.47754 4.50977 3.66211 4.70117 3.9082 4.70117ZM3.9082 7.08691H9.08984C9.33594 7.08691 9.51367 6.89551 9.51367 6.65625C9.51367 6.42383 9.33594 6.24609 9.08984 6.24609H3.9082C3.66211 6.24609 3.47754 6.42383 3.47754 6.65625C3.47754 6.89551 3.66211 7.08691 3.9082 7.08691ZM3.9082 9.47266H6.3623C6.60156 9.47266 6.78613 9.28809 6.78613 9.05566C6.78613 8.81641 6.60156 8.63184 6.3623 8.63184H3.9082C3.66211 8.63184 3.47754 8.81641 3.47754 9.05566C3.47754 9.28809 3.66211 9.47266 3.9082 9.47266Z" fill="white"/>
</svg>