<svg class="fill-current active:fill-current text-blue-500 active:text-blue-700" width="14" height="16" viewBox="0 0 14 16" xmlns="http://www.w3.org/2000/svg">
    <path d="M1.48145 12.624H8.36523C8.31055 13.5469 7.72266 14.1348 6.89551 14.1348C6.0752 14.1348 5.48047 13.5469 5.43262 12.624H4.36621C4.4209 13.9365 5.45312 15.0918 6.89551 15.0918C8.34473 15.0918 9.37695 13.9434 9.43164 12.624H12.3164C12.959 12.624 13.3486 12.2891 13.3486 11.7969C13.3486 11.1133 12.6514 10.498 12.0635 9.88965C11.6123 9.41797 11.4893 8.44727 11.4346 7.66113C11.3867 4.96777 10.6895 3.22461 8.87109 2.56836C8.63867 1.67969 7.90723 0.96875 6.89551 0.96875C5.89062 0.96875 5.15234 1.67969 4.92676 2.56836C3.1084 3.22461 2.41113 4.96777 2.36328 7.66113C2.30859 8.44727 2.18555 9.41797 1.73438 9.88965C1.13965 10.498 0.449219 11.1133 0.449219 11.7969C0.449219 12.2891 0.832031 12.624 1.48145 12.624ZM1.77539 11.5918V11.5098C1.89844 11.3047 2.30859 10.9082 2.66406 10.5049C3.15625 9.95801 3.38867 9.08301 3.4502 7.74316C3.50488 4.7627 4.39355 3.80566 5.5625 3.49121C5.7334 3.4502 5.8291 3.36133 5.83594 3.19043C5.85645 2.47266 6.2666 1.97363 6.89551 1.97363C7.53125 1.97363 7.93457 2.47266 7.96191 3.19043C7.96875 3.36133 8.05762 3.4502 8.22852 3.49121C9.4043 3.80566 10.293 4.7627 10.3477 7.74316C10.4092 9.08301 10.6416 9.95801 11.127 10.5049C11.4893 10.9082 11.8926 11.3047 12.0156 11.5098V11.5918H1.77539Z" fill="white">
    </path>
</svg>