<svg width="19" height="18" viewBox="0 0 19 18" fill="none" xmlns="http://www.w3.org/2000/svg">
<path fill-rule="evenodd" clip-rule="evenodd" d="M13.1327 4.91089C12.2034 4.02461 10.9633 3.54179 9.68017 3.56163C7.33221 3.56163 5.33809 5.14567 4.62708 7.27867C4.25008 8.39644 4.25008 9.60685 4.62708 10.7246H4.63038C5.34469 12.8543 7.33551 14.4384 9.68348 14.4384C10.8955 14.4384 11.936 14.1284 12.7425 13.5808V13.5786C13.6916 12.9502 14.3397 11.9614 14.5415 10.8437H9.68018V7.37794H18.1693C18.2751 7.97982 18.3247 8.59492 18.3247 9.20671C18.3247 11.9441 17.3464 14.2584 15.6442 15.8259L15.646 15.8273C14.1545 17.203 12.1075 18 9.68017 18C6.27726 18 3.16538 16.0819 1.63754 13.0428C0.36105 10.4997 0.361053 7.50359 1.63755 4.96052C3.16539 1.91808 6.27726 -3.85207e-06 9.68017 -3.85207e-06C11.9157 -0.0264599 14.0752 0.813518 15.7022 2.34135L13.1327 4.91089Z" fill="white"/>
</svg>
