<svg class="mr-2" width="16" height="12" viewBox="0 0 16 12" fill="none" xmlns="http://www.w3.org/2000/svg">
    <path d="M2.88965 11.9639H13.8955C15.126 11.9639 15.8369 11.2529 15.8369 9.84473V2.29785C15.8369 0.896484 15.1191 0.185547 13.6904 0.185547H2.68457C1.4541 0.185547 0.743164 0.889648 0.743164 2.29785V9.84473C0.743164 11.2598 1.46094 11.9639 2.88965 11.9639ZM7.47656 6.41992L2.31543 1.32715C2.46582 1.26562 2.64355 1.23145 2.84863 1.23145H13.7314C13.9434 1.23145 14.1279 1.26562 14.2783 1.33398L9.13086 6.41992C8.83691 6.71387 8.57031 6.84375 8.30371 6.84375C8.03027 6.84375 7.76367 6.70703 7.47656 6.41992ZM1.78906 9.84473V2.29785C1.78906 2.24316 1.78906 2.27051 1.78906 2.22266L5.71973 6.08496L1.7959 9.96094C1.78906 9.92676 1.78906 9.88574 1.78906 9.84473ZM14.791 2.30469V9.85156C14.791 9.87891 14.791 9.91309 14.791 9.94043L10.8877 6.08496L14.791 2.24316C14.791 2.30469 14.791 2.30469 14.791 2.30469ZM2.84863 10.918C2.65723 10.918 2.49316 10.8906 2.34961 10.8291L6.4375 6.78906L6.88184 7.22656C7.36035 7.69824 7.81836 7.89648 8.30371 7.89648C8.78223 7.89648 9.24707 7.69824 9.72559 7.22656L10.1699 6.78906L14.251 10.8223C14.1006 10.8906 13.9297 10.918 13.7314 10.918H2.84863Z" fill="white">
    </path>
</svg>