<svg className="mr-2" width="15px" height="15px" viewBox="0 0 15 15" version="1.1" xmlns="http://www.w3.org/2000/svg">
    <g id="twitter-subtle" stroke="none" strokeWidth="1" fill="none" fillRule="evenodd">
        <g id="twitter" transform="translate(0.000000, 1.500000)" fill="#8F9CAB" fillRule="nonzero">
            <path d="M14.7662018,1.4206339 C14.2228951,1.6618152 13.6390484,1.82424342 13.0262063,1.89745693 C13.6519353,1.52276232 14.132508,0.929044671 14.3582967,0.221493027 C13.7731971,0.568498769 13.1246476,0.820754717 12.4343948,0.956724588 C11.8824968,0.367924528 11.0943396,0 10.2231337,0 C8.26722947,0 6.82998583,1.82486091 7.27173689,3.71923932 C4.75471698,3.59310911 2.52255947,2.38720263 1.02809456,0.554348274 C0.234413901,1.91591916 0.616488925,3.69709001 1.96513088,4.59905437 C1.46923708,4.58306212 1.00164069,4.44708778 0.593723917,4.22005519 C0.560499963,5.62346185 1.56645238,6.93641882 3.02338429,7.22867328 C2.59700798,7.34434186 2.13002908,7.37141323 1.65504959,7.28035499 C2.04019688,8.48380043 3.15874114,9.35935566 4.48523827,9.38396599 C3.21164889,10.3825192 1.60705496,10.828548 0,10.6390931 C1.34064583,11.4985756 2.93355209,12 4.64397047,12 C10.2686852,12 13.4464613,7.24958759 13.2545007,2.98892087 C13.8464017,2.56131852 14.3600865,2.02789171 14.7662018,1.4206339 Z" id="Path"></path>
        </g>
    </g>
</svg>