<svg width="15px" height="15px" viewBox="0 0 15 15" version="1.1" xmlns="http://www.w3.org/2000/svg">
    <title>globe-subtle</title>
    <g id="globe-subtle" stroke="none" strokeWidth="1" fill="none" fillRule="evenodd">
        <g id="globe" transform="translate(0.000000, -0.000000)" fill="#8F9CAB" fillRule="nonzero">
            <path d="M7.470705,14.941389 C11.557665,14.941389 14.941365,11.550289 14.941365,7.470699 C14.941365,3.383789 11.550265,1.66533454e-16 7.463375,1.66533454e-16 C3.383785,1.66533454e-16 -3.88578059e-16,3.383789 -3.88578059e-16,7.470699 C-3.88578059e-16,11.550289 3.391115,14.941389 7.470705,14.941389 Z M3.090825,2.724609 C3.823245,2.043459 4.716795,1.530759 5.698245,1.245119 C5.192875,1.757809 4.760745,2.482909 4.438475,3.376469 C3.918455,3.208009 3.464355,2.988279 3.090825,2.724609 Z M9.250485,1.252439 C10.224565,1.538089 11.110865,2.050779 11.850565,2.731929 C11.477065,2.995609 11.022965,3.208009 10.502965,3.376469 C10.180665,2.490239 9.748565,1.765139 9.250485,1.252439 Z M5.383305,3.618169 C5.793455,2.497559 6.364745,1.691899 6.994625,1.413579 L6.994625,3.786619 C6.416015,3.764649 5.881345,3.706059 5.383305,3.618169 Z M7.954105,1.413579 C8.576665,1.691899 9.147945,2.497559 9.558105,3.618169 C9.060055,3.706059 8.525395,3.764649 7.954105,3.786619 L7.954105,1.413579 Z M1.010745,6.987309 C1.113285,5.654299 1.633305,4.416499 2.438965,3.420409 C2.893065,3.764649 3.479005,4.050289 4.160155,4.270019 C3.947755,5.090329 3.815915,6.005859 3.779295,6.987309 L1.010745,6.987309 Z M11.162065,6.987309 C11.125465,6.005859 10.993665,5.090329 10.781265,4.270019 C11.462365,4.050289 12.048365,3.764649 12.495165,3.427739 C13.308065,4.416499 13.828165,5.654299 13.930665,6.987309 L11.162065,6.987309 Z M7.954105,6.987309 L7.954105,4.746089 C8.613285,4.724119 9.243165,4.643559 9.836465,4.519039 C10.026865,5.273439 10.144065,6.108399 10.180665,6.987309 L7.954105,6.987309 Z M4.760745,6.987309 C4.797365,6.108399 4.921875,5.273439 5.104985,4.519039 C5.698245,4.643559 6.328125,4.724119 6.994625,4.746089 L6.994625,6.987309 L4.760745,6.987309 Z M1.010745,7.946779 L3.779295,7.946779 C3.815915,8.950199 3.947755,9.873089 4.160155,10.700689 C3.486325,10.920389 2.907715,11.206089 2.460935,11.542989 C1.640625,10.539589 1.113285,9.294429 1.010745,7.946779 Z M4.760745,7.946779 L6.994625,7.946779 L6.994625,10.231889 C6.335445,10.253889 5.705565,10.334489 5.119625,10.451689 C4.921875,9.689939 4.790035,8.840329 4.760745,7.946779 Z M7.954105,10.231889 L7.954105,7.946779 L10.180665,7.946779 C10.151365,8.840329 10.019565,9.689939 9.821765,10.451689 C9.243165,10.334489 8.605955,10.253889 7.954105,10.231889 Z M10.781265,10.700689 C10.993665,9.873089 11.125465,8.950199 11.162065,7.946779 L13.930665,7.946779 C13.828165,9.294429 13.300765,10.539589 12.480465,11.542989 C12.033665,11.206089 11.455065,10.920389 10.781265,10.700689 Z M7.954105,11.191389 C8.518065,11.213389 9.052735,11.264689 9.543455,11.359889 C9.133305,12.451189 8.569335,13.256789 7.954105,13.535189 L7.954105,11.191389 Z M5.397945,11.359889 C5.888675,11.264689 6.423345,11.213389 6.994625,11.191389 L6.994625,13.535189 C6.372075,13.256789 5.808105,12.451189 5.397945,11.359889 Z M10.495565,11.594189 C11.008265,11.762689 11.455065,11.975089 11.828565,12.231489 C11.096165,12.897989 10.224565,13.403289 9.257815,13.688989 C9.748565,13.183589 10.173365,12.465789 10.495565,11.594189 Z M3.112795,12.231489 C3.486325,11.975089 3.933105,11.762689 4.445805,11.594189 C4.768065,12.465789 5.192875,13.183589 5.690915,13.688989 C4.724125,13.403289 3.845215,12.897989 3.112795,12.231489 Z" id="Shape"></path>
        </g>
    </g>
</svg>