<svg width="289" height="289" viewBox="0 0 289 289" fill="none" xmlns="http://www.w3.org/2000/svg">
<path d="M33.9972 133.084L160.278 80.5474C172.744 75.0748 215.018 57.5626 215.018 57.5626C215.018 57.5626 234.53 49.901 232.904 68.5077C232.362 76.1693 228.026 102.985 223.69 131.99L210.141 217.909C210.141 217.909 209.057 230.496 199.843 232.685C190.629 234.874 175.454 225.023 172.744 222.834C170.576 221.192 132.096 196.566 118.004 184.526C114.21 181.243 109.874 174.676 118.546 167.014C138.057 148.954 161.362 126.517 175.454 112.288C181.958 105.721 188.461 90.398 161.362 109.005L84.9433 160.994C84.9433 160.994 76.2716 166.467 60.0122 161.541C43.7528 156.616 24.7835 150.049 24.7835 150.049C24.7835 150.049 11.776 141.84 33.9972 133.084Z" fill="white"/>
</svg>
