<svg width="17" height="14" viewBox="0 0 17 14" fill="none" xmlns="http://www.w3.org/2000/svg">
<path d="M16.5 1.58744C15.8929 1.85694 15.2405 2.03844 14.5557 2.12025C15.2549 1.70156 15.7919 1.03813 16.0442 0.2475C15.3904 0.63525 14.6657 0.917125 13.8944 1.06906C13.2777 0.411125 12.397 0 11.4235 0C9.23794 0 7.63194 2.03913 8.12556 4.15594C5.313 4.015 2.81875 2.6675 1.14881 0.619438C0.261938 2.14088 0.688875 4.13119 2.19587 5.13906C1.64175 5.12119 1.11925 4.96925 0.663437 4.71556C0.626312 6.28375 1.75038 7.75087 3.37838 8.07744C2.90194 8.20669 2.38013 8.23694 1.84938 8.13519C2.27975 9.47994 3.52963 10.4583 5.01188 10.4858C3.58875 11.6016 1.79575 12.1 0 11.8883C1.49806 12.8487 3.278 13.409 5.18925 13.409C11.4744 13.409 15.0253 8.10081 14.8108 3.33987C15.4722 2.86206 16.0462 2.266 16.5 1.58744Z" fill="#219CF8"/>
</svg>
