<svg width="17" height="14" viewBox="0 0 17 14" fill="none" xmlns="http://www.w3.org/2000/svg">
<path d="M15.2141 3.51989C15.2244 3.66882 15.2244 3.81774 15.2244 3.96803C15.2244 8.54754 11.7422 13.8291 5.37469 13.8291V13.8264C3.49372 13.8291 1.65183 13.2897 0.0683594 12.2726C0.341867 12.3056 0.616747 12.3221 0.892311 12.3227C2.4511 12.3241 3.96534 11.8005 5.19167 10.8363C3.71034 10.8081 2.41134 9.84117 1.95755 8.4295C2.47646 8.5297 3.01114 8.50911 3.52046 8.3698C1.90546 8.04313 0.743561 6.62254 0.743561 4.97274C0.743561 4.95764 0.743561 4.94323 0.743561 4.92882C1.22477 5.19715 1.76356 5.34607 2.31469 5.36254C0.793601 4.3448 0.32473 2.31891 1.24328 0.734992C3.00086 2.90019 5.59405 4.21646 8.3778 4.35578C8.0988 3.15205 8.47993 1.89068 9.37929 1.0445C10.7736 -0.267655 12.9664 -0.200401 14.2771 1.1948C15.0524 1.04176 15.7954 0.756952 16.4754 0.353423C16.217 1.15568 15.6761 1.83715 14.9536 2.27019C15.6398 2.18921 16.3102 2.00529 16.9415 1.7246C16.4768 2.42185 15.8914 3.02921 15.2141 3.51989Z" fill="#1D9BF0"/>
</svg>
