<svg width="18" height="19" viewBox="0 0 18 19" fill="none" xmlns="http://www.w3.org/2000/svg">
    <path d="M8.96484 18.6191C13.8691 18.6191 17.9297 14.5498 17.9297 9.6543C17.9297 4.75 13.8604 0.689453 8.95605 0.689453C4.06055 0.689453 0 4.75 0 9.6543C0 14.5498 4.06934 18.6191 8.96484 18.6191ZM3.70898 3.95898C4.58789 3.1416 5.66016 2.52637 6.83789 2.18359C6.23145 2.79883 5.71289 3.66895 5.32617 4.74121C4.70215 4.53906 4.15723 4.27539 3.70898 3.95898ZM11.1006 2.19238C12.2695 2.53516 13.333 3.15039 14.2207 3.96777C13.7725 4.28418 13.2275 4.53906 12.6035 4.74121C12.2168 3.67773 11.6982 2.80762 11.1006 2.19238ZM6.45996 5.03125C6.95215 3.68652 7.6377 2.71973 8.39355 2.38574V5.2334C7.69922 5.20703 7.05762 5.13672 6.45996 5.03125ZM9.54492 2.38574C10.292 2.71973 10.9775 3.68652 11.4697 5.03125C10.8721 5.13672 10.2305 5.20703 9.54492 5.2334V2.38574ZM1.21289 9.07422C1.33594 7.47461 1.95996 5.98926 2.92676 4.79395C3.47168 5.20703 4.1748 5.5498 4.99219 5.81348C4.7373 6.79785 4.5791 7.89648 4.53516 9.07422H1.21289ZM13.3945 9.07422C13.3506 7.89648 13.1924 6.79785 12.9375 5.81348C13.7549 5.5498 14.458 5.20703 14.9941 4.80273C15.9697 5.98926 16.5938 7.47461 16.7168 9.07422H13.3945ZM9.54492 9.07422V6.38477C10.3359 6.3584 11.0918 6.26172 11.8037 6.1123C12.0322 7.01758 12.1729 8.01953 12.2168 9.07422H9.54492ZM5.71289 9.07422C5.75684 8.01953 5.90625 7.01758 6.12598 6.1123C6.83789 6.26172 7.59375 6.3584 8.39355 6.38477V9.07422H5.71289ZM1.21289 10.2256H4.53516C4.5791 11.4297 4.7373 12.5371 4.99219 13.5303C4.18359 13.7939 3.48926 14.1367 2.95312 14.541C1.96875 13.3369 1.33594 11.8428 1.21289 10.2256ZM5.71289 10.2256H8.39355V12.9678C7.60254 12.9941 6.84668 13.0908 6.14355 13.2314C5.90625 12.3174 5.74805 11.2979 5.71289 10.2256ZM9.54492 12.9678V10.2256H12.2168C12.1816 11.2979 12.0234 12.3174 11.7861 13.2314C11.0918 13.0908 10.3271 12.9941 9.54492 12.9678ZM12.9375 13.5303C13.1924 12.5371 13.3506 11.4297 13.3945 10.2256H16.7168C16.5938 11.8428 15.9609 13.3369 14.9766 14.541C14.4404 14.1367 13.7461 13.7939 12.9375 13.5303ZM9.54492 14.1191C10.2217 14.1455 10.8633 14.207 11.4521 14.3213C10.96 15.6309 10.2832 16.5977 9.54492 16.9316V14.1191ZM6.47754 14.3213C7.06641 14.207 7.70801 14.1455 8.39355 14.1191V16.9316C7.64648 16.5977 6.96973 15.6309 6.47754 14.3213ZM12.5947 14.6025C13.21 14.8047 13.7461 15.0596 14.1943 15.3672C13.3154 16.167 12.2695 16.7734 11.1094 17.1162C11.6982 16.5098 12.208 15.6484 12.5947 14.6025ZM3.73535 15.3672C4.18359 15.0596 4.71973 14.8047 5.33496 14.6025C5.72168 15.6484 6.23145 16.5098 6.8291 17.1162C5.66895 16.7734 4.61426 16.167 3.73535 15.3672Z" fill="white" fillOpacity="0.8"/>
</svg>  