<svg width="24" height="24" viewBox="0 0 24 24" fill="none" xmlns="http://www.w3.org/2000/svg">
<circle cx="12" cy="12" r="12" fill="#3F4147"/>
<path fill-rule="evenodd" clip-rule="evenodd" d="M6 9C6 8.17157 6.67157 7.5 7.5 7.5H16.5C17.3284 7.5 18 8.17157 18 9V9.75H12C10.7574 9.75 9.75 10.7574 9.75 12C9.75 13.2426 10.7574 14.25 12 14.25H18V15C18 15.8284 17.3284 16.5 16.5 16.5H7.5C6.67157 16.5 6 15.8284 6 15V9ZM12 13.125C12.6213 13.125 13.125 12.6213 13.125 12C13.125 11.3787 12.6213 10.875 12 10.875C11.3787 10.875 10.875 11.3787 10.875 12C10.875 12.6213 11.3787 13.125 12 13.125Z" fill="#B8BDC7"/>
</svg>
