<svg width="24" height="20" viewBox="0 0 24 20" fill="none" xmlns="http://www.w3.org/2000/svg">
<path d="M23.2976 8.96078H21.9532C21.4233 3.97059 17.1153 0 12.0027 0C9.00974 0 6.31114 1.35294 4.46628 3.48039C4.09338 3.90196 4.14245 4.42157 4.53497 4.69608C4.91768 4.97059 5.3789 4.88235 5.70273 4.51961C7.23357 2.77451 9.49058 1.66667 12.0027 1.66667C16.2714 1.66667 19.7551 4.83333 20.2653 8.96078H18.8032C18.1065 8.96078 17.9298 9.43137 18.3027 9.97059L20.5009 13.098C20.8149 13.549 21.2859 13.5588 21.6097 13.098L23.7981 9.98039C24.1906 9.43137 24.0041 8.96078 23.2976 8.96078ZM0.698053 11.049H2.05226C2.58217 16.0392 6.8803 20 12.0027 20C14.9957 20 17.7041 18.6373 19.549 16.5196C19.9121 16.098 19.863 15.5686 19.4803 15.2941C19.0976 15.0196 18.6266 15.1176 18.3125 15.4804C16.7915 17.2353 14.5345 18.3333 12.0027 18.3333C7.72422 18.3333 4.24058 15.1765 3.7303 11.049H5.20226C5.89899 11.049 6.07562 10.5686 5.70273 10.0392L3.5046 6.91176C3.19058 6.46078 2.71955 6.45098 2.39572 6.91176L0.197586 10.0294C-0.185125 10.5686 -0.00848904 11.049 0.698053 11.049Z" fill="#1FF5E9"/>
</svg>
