<svg width="26" height="18" viewBox="0 0 26 18" fill="none" xmlns="http://www.w3.org/2000/svg">
<path d="M17.9251 8.54485C19.9874 8.54485 21.7295 6.71798 21.7295 4.35435C21.7295 2.04722 19.978 0.276855 17.9251 0.276855C15.8816 0.276855 14.1207 2.07547 14.1301 4.37319C14.1301 6.71798 15.8628 8.54485 17.9251 8.54485ZM7.0392 8.76144C8.83782 8.76144 10.3539 7.16057 10.3539 5.1077C10.3539 3.09249 8.81899 1.55755 7.0392 1.55755C5.25942 1.55755 3.72447 3.12074 3.73389 5.12653C3.73389 7.16057 5.25 8.76144 7.0392 8.76144ZM1.85052 17.3119H8.91316C7.90555 15.8712 8.98849 13.0273 11.1167 11.3511C10.0808 10.6825 8.73423 10.1928 7.0392 10.1928C2.82987 10.1928 0.108398 13.2909 0.108398 15.8429C0.108398 16.7752 0.579241 17.3119 1.85052 17.3119ZM12.0584 17.3025H23.7918C25.3456 17.3025 25.8823 16.8317 25.8823 15.9653C25.8823 13.5452 22.803 10.2116 17.9251 10.2116C13.0377 10.2116 9.96784 13.5452 9.96784 15.9653C9.96784 16.8317 10.5046 17.3025 12.0584 17.3025Z" fill="#00FFFF"/>
</svg>
