<svg width="24" height="24" viewBox="0 0 24 24" fill="none" xmlns="http://www.w3.org/2000/svg">
<path fill-rule="evenodd" clip-rule="evenodd" d="M1.02857 10.95C1.59664 10.95 2.05714 11.4105 2.05714 11.9785C2.05714 13.2842 2.31432 14.5772 2.814 15.7835C3.31367 16.9898 4.04606 18.0859 4.96934 19.0092C5.89262 19.9325 6.98871 20.6648 8.19503 21.1645C9.40136 21.6642 10.6943 21.9214 12 21.9214C13.3057 21.9214 14.5986 21.6642 15.805 21.1645C17.0113 20.6649 18.1074 19.9325 19.0307 19.0092C19.9539 18.0859 20.6863 16.9898 21.186 15.7835C21.6857 14.5772 21.9429 13.2842 21.9429 11.9785C21.9429 11.4105 22.4034 10.95 22.9714 10.95C23.5395 10.95 24 11.4105 24 11.9785C24 13.5544 23.6896 15.1148 23.0866 16.5707C22.4835 18.0266 21.5996 19.3495 20.4853 20.4638C19.371 21.5781 18.0481 22.462 16.5922 23.0651C15.1363 23.6681 13.5759 23.9785 12 23.9785C10.4241 23.9785 8.86371 23.6681 7.4078 23.0651C5.95189 22.462 4.62902 21.5781 3.51472 20.4638C2.40042 19.3495 1.5165 18.0266 0.913445 16.5707C0.310389 15.1148 0 13.5544 0 11.9785C0 11.4105 0.460507 10.95 1.02857 10.95Z" fill="#4376FF"/>
<rect x="6" y="4.5" width="12" height="2.25" rx="1.125" fill="#4376FF"/>
</svg>
