<svg width="26" height="26" viewBox="0 0 26 26" fill="none" xmlns="http://www.w3.org/2000/svg">
<path d="M25 12.5C25 14.0759 24.6896 15.6363 24.0866 17.0922C23.4835 18.5481 22.5996 19.871 21.4853 20.9853C20.371 22.0996 19.0481 22.9835 17.5922 23.5866C16.1363 24.1896 14.5759 24.5 13 24.5C11.4241 24.5 9.86371 24.1896 8.4078 23.5866C6.95189 22.9835 5.62902 22.0996 4.51472 20.9853C3.40042 19.871 2.5165 18.5481 1.91345 17.0922C1.31039 15.6363 1 14.0759 1 12.5" stroke="#4376FF" stroke-width="2" stroke-linecap="round"/>
<path d="M12.9955 0.5C12.3537 0.5 11.9146 0.937719 11.9146 1.59017V8.84498L11.9906 10.6372L10.0569 8.49811L8.14006 6.63161C7.9374 6.4334 7.68407 6.30126 7.3632 6.30126C6.7721 6.30126 6.33301 6.73072 6.33301 7.33361C6.33301 7.60616 6.44278 7.87044 6.67077 8.09343L12.1933 13.503C12.4044 13.7177 12.6999 13.8333 12.9955 13.8333C13.291 13.8333 13.595 13.7177 13.7976 13.503L19.3286 8.09343C19.5566 7.87044 19.6663 7.60616 19.6663 7.33361C19.6663 6.73072 19.2272 6.30126 18.6362 6.30126C18.3153 6.30126 18.0535 6.4334 17.8593 6.63161L15.934 8.49811L14.0088 10.6372L14.0763 8.84498V1.59017C14.0763 0.937719 13.6372 0.5 12.9955 0.5Z" fill="#4376FF"/>
</svg>
