<svg width="26" height="26" viewBox="0 0 26 26" fill="none" xmlns="http://www.w3.org/2000/svg">
<path d="M25 12.5C25 14.0759 24.6896 15.6363 24.0866 17.0922C23.4835 18.5481 22.5996 19.871 21.4853 20.9853C20.371 22.0996 19.0481 22.9835 17.5922 23.5866C16.1363 24.1896 14.5759 24.5 13 24.5C11.4241 24.5 9.86371 24.1896 8.4078 23.5866C6.95189 22.9835 5.62902 22.0996 4.51472 20.9853C3.40042 19.871 2.5165 18.5481 1.91345 17.0922C1.31039 15.6363 1 14.0759 1 12.5" stroke="#30E696" stroke-width="2" stroke-linecap="round"/>
<path d="M13.0045 13.8334C13.6463 13.8334 14.0854 13.3957 14.0854 12.7432V5.48839L14.0094 3.69622L15.9431 5.83526L17.8599 7.70176C18.0626 7.89998 18.3159 8.03212 18.6368 8.03212C19.2279 8.03212 19.667 7.60266 19.667 6.99976C19.667 6.72722 19.5572 6.46293 19.3292 6.23995L13.8067 0.830395C13.5956 0.615664 13.3001 0.50004 13.0045 0.50004C12.709 0.50004 12.405 0.615664 12.2024 0.830395L6.67142 6.23995C6.44343 6.46293 6.33366 6.72722 6.33366 6.99976C6.33366 7.60266 6.77276 8.03212 7.36385 8.03212C7.68472 8.03212 7.94649 7.89998 8.14071 7.70176L10.066 5.83526L11.9912 3.69622L11.9237 5.48839V12.7432C11.9237 13.3957 12.3628 13.8334 13.0045 13.8334Z" fill="#30E696"/>
</svg>
