<svg width="241" height="240" viewBox="0 0 241 240" fill="none" xmlns="http://www.w3.org/2000/svg">
<path d="M53.2624 192.422V190.108C53.2624 189.351 53.2841 187.793 54.6899 187.793C55.382 187.793 55.8254 188.183 55.8254 189.145V192.422H56.8419V188.907C56.8419 187.718 56.2687 186.907 55.0468 186.907C53.8248 186.907 53.3598 187.696 53.2624 187.956V186.842V184.852H52.2459V192.422H53.2624ZM61.7302 192.422V191.546H60.6055C60.2379 191.546 60.0757 191.384 60.0757 191.016V187.902H61.5247V187.058H60.0757V185.382H59.0591V187.058H57.8371V187.902H59.0591V191.103C59.0591 191.989 59.5241 192.422 60.4109 192.422H61.7302ZM66.0706 192.422V191.546H64.946C64.5783 191.546 64.4161 191.384 64.4161 191.016V187.902H65.8652V187.058H64.4161V185.382H63.3996V187.058H62.1776V187.902H63.3996V191.103C63.3996 191.989 63.8646 192.422 64.7513 192.422H66.0706ZM68.2374 194.531V192.638V191.611C68.497 192.054 69.0052 192.573 69.9461 192.573C71.2113 192.573 72.1413 191.492 72.1413 189.74C72.1413 187.977 71.2113 186.907 69.9461 186.907C69.0052 186.907 68.4645 187.426 68.205 187.869V187.058H67.2209V194.531H68.2374ZM69.6541 191.708C68.7998 191.708 68.1834 191.048 68.1834 189.729C68.1834 188.41 68.7998 187.772 69.6541 187.772C70.4868 187.772 71.0923 188.269 71.0923 189.729C71.0923 191.178 70.4868 191.708 69.6541 191.708ZM75.3748 192.573C76.759 192.573 77.5593 191.924 77.5593 190.908C77.5593 189.718 76.3697 189.372 75.7533 189.243L75.1153 189.124C74.3691 188.983 74.2069 188.778 74.2069 188.431C74.2069 188.053 74.5313 187.718 75.245 187.718C76.0885 187.718 76.413 188.248 76.5427 188.615L77.4403 188.269C77.224 187.588 76.586 186.907 75.2559 186.907C74.142 186.907 73.2336 187.566 73.2336 188.529C73.2336 189.556 74.0014 189.902 74.9206 190.086L75.5695 190.205C76.3048 190.346 76.5319 190.616 76.5319 190.994C76.5319 191.47 76.1318 191.741 75.3856 191.741C74.5097 191.741 74.1204 191.276 73.9798 190.724L73.0173 191.038C73.2444 192.054 74.2502 192.573 75.3748 192.573ZM80.1124 188.453V187.047H78.7282V188.453H80.1124ZM80.1124 192.422V191.016H78.7282V192.422H80.1124ZM84.7486 184.701L81.8721 192.422H80.9421L83.8186 184.701H84.7486ZM88.7722 184.701L85.8957 192.422H84.9657L87.8422 184.701H88.7722ZM91.6171 192.573C93.0013 192.573 93.8015 191.924 93.8015 190.908C93.8015 189.718 92.612 189.372 91.9956 189.243L91.3576 189.124C90.6114 188.983 90.4492 188.778 90.4492 188.431C90.4492 188.053 90.7736 187.718 91.4873 187.718C92.3308 187.718 92.6552 188.248 92.785 188.615L93.6826 188.269C93.4663 187.588 92.8283 186.907 91.4981 186.907C90.3843 186.907 89.4759 187.566 89.4759 188.529C89.4759 189.556 90.2437 189.902 91.1629 190.086L91.8117 190.205C92.5471 190.346 92.7742 190.616 92.7742 190.994C92.7742 191.47 92.3741 191.741 91.6279 191.741C90.752 191.741 90.3627 191.276 90.2221 190.724L89.2596 191.038C89.4867 192.054 90.4924 192.573 91.6171 192.573ZM97.4904 189.837C97.2417 190.562 97.1768 190.767 97.0795 191.059C96.9822 190.8 96.8848 190.562 96.528 189.729L95.4249 187.058H94.2894L96.6577 192.357L96.3874 193.125C96.236 193.536 96.0197 193.622 95.652 193.622H94.5706V194.531H95.6845C96.6253 194.531 97.0254 194.195 97.3715 193.179L99.4802 187.058H98.4096L97.4904 189.837ZM101.641 192.422V190.108C101.641 189.351 101.662 187.793 103.068 187.793C103.76 187.793 104.204 188.183 104.204 189.145V192.422H105.22V188.907C105.22 187.718 104.68 186.907 103.36 186.907C102.236 186.907 101.716 187.696 101.608 187.956V187.058H100.624V192.422H101.641ZM108.724 192.573C109.665 192.573 110.195 192.054 110.455 191.611V192.422H111.449V184.852H110.433V186.842V187.88C110.173 187.437 109.654 186.907 108.724 186.907C107.459 186.907 106.518 187.988 106.518 189.751C106.518 191.503 107.459 192.573 108.724 192.573ZM109.005 191.708C108.184 191.708 107.567 191.211 107.567 189.751C107.567 188.302 108.184 187.772 109.005 187.772C109.871 187.772 110.487 188.431 110.487 189.751C110.487 191.07 109.871 191.708 109.005 191.708ZM114.261 186.063V184.852H113.18V186.063H114.261ZM114.24 192.422V187.058H113.212V192.422H114.24ZM118.196 192.573C119.407 192.573 120.218 191.87 120.575 190.875L119.612 190.54C119.429 191.135 119.028 191.697 118.185 191.697C117.331 191.697 116.649 191.07 116.649 189.74C116.649 188.431 117.341 187.783 118.174 187.783C118.92 187.783 119.31 188.258 119.493 188.788L120.445 188.464C120.175 187.62 119.407 186.907 118.185 186.907C116.682 186.907 115.59 188.064 115.59 189.74C115.59 191.47 116.628 192.573 118.196 192.573ZM123.14 192.573C123.995 192.573 124.514 192.195 124.892 191.611C124.957 192.065 125.108 192.422 125.887 192.422H126.666V191.557H126.114C125.865 191.557 125.801 191.492 125.801 191.243V188.788C125.801 187.631 125.108 186.907 123.659 186.907C122.243 186.907 121.475 187.674 121.302 188.41L122.275 188.723C122.416 188.313 122.719 187.761 123.659 187.761C124.449 187.761 124.784 188.139 124.784 188.756V188.918C123.043 189.059 121.41 189.556 121.41 191.038C121.41 191.989 122.091 192.573 123.14 192.573ZM123.411 191.741C122.773 191.741 122.459 191.438 122.459 190.951C122.459 190.097 123.53 189.783 124.784 189.653V190.205C124.784 191.276 124.092 191.741 123.411 191.741ZM130.744 192.422V191.546H129.619C129.252 191.546 129.089 191.384 129.089 191.016V187.902H130.539V187.058H129.089V185.382H128.073V187.058H126.851V187.902H128.073V191.103C128.073 191.989 128.538 192.422 129.425 192.422H130.744ZM133.918 192.573C135.032 192.573 135.886 192.054 136.275 191.027L135.345 190.692C135.194 191.07 134.815 191.719 133.95 191.719C133.215 191.719 132.501 191.286 132.458 190H136.232C136.427 188.248 135.475 186.907 133.875 186.907C132.48 186.907 131.441 188.01 131.441 189.762C131.441 191.568 132.425 192.573 133.918 192.573ZM132.48 189.188C132.566 188.258 133.182 187.718 133.875 187.718C134.588 187.718 135.194 188.226 135.205 189.188H132.48ZM138.882 192.422V191.016H137.498V192.422H138.882ZM141.529 186.063V184.852H140.447V186.063H141.529ZM141.507 192.422V187.058H140.48V192.422H141.507ZM145.398 192.573C146.837 192.573 147.94 191.384 147.94 189.751C147.94 188.118 146.88 186.907 145.398 186.907C143.917 186.907 142.846 188.118 142.846 189.751C142.846 191.362 143.949 192.573 145.398 192.573ZM145.398 191.697C144.512 191.697 143.906 191.07 143.906 189.762C143.906 188.442 144.512 187.783 145.398 187.783C146.274 187.783 146.88 188.442 146.88 189.762C146.88 191.07 146.274 191.697 145.398 191.697ZM152.316 184.701L149.439 192.422H148.509L151.386 184.701H152.316ZM155.571 192.422L156.382 189.826C156.696 188.832 156.793 188.496 156.902 188.172L157.41 189.837L158.199 192.422H159.4L161.206 187.058H160.135L159.367 189.524C159.032 190.638 158.891 191.081 158.805 191.33L158.361 189.848L157.518 187.058H156.328L155.55 189.61C155.225 190.67 155.106 191.059 155.031 191.34L154.49 189.556L153.733 187.058H152.673L154.425 192.422H155.571ZM165.705 194.531C166.635 194.531 167.413 194.033 167.413 193.027C167.413 192.13 166.732 191.524 165.683 191.524H163.358C162.991 191.524 162.882 191.351 162.882 191.178C162.882 190.984 163.066 190.789 163.358 190.67C163.661 190.832 164.007 190.875 164.375 190.875C165.575 190.875 166.408 190.097 166.505 188.886L166.527 188.626C166.57 188.01 166.743 187.902 167.197 187.902H167.641V187.058H167.089C166.538 187.058 166.3 187.393 166.202 187.858C165.954 187.437 165.359 186.907 164.364 186.907C163.109 186.907 162.201 187.772 162.201 188.907C162.201 189.545 162.482 190.032 162.796 190.313C162.428 190.551 161.996 190.919 161.996 191.449C161.996 191.881 162.169 192.141 162.471 192.325C162.158 192.519 161.779 192.909 161.779 193.449C161.779 194.076 162.158 194.531 163.207 194.531H165.705ZM164.375 190.075C163.672 190.075 163.218 189.61 163.218 188.896C163.218 188.194 163.672 187.707 164.375 187.707C165.078 187.707 165.532 188.194 165.532 188.896C165.532 189.61 165.078 190.075 164.375 190.075ZM163.488 193.665C162.969 193.665 162.677 193.536 162.677 193.103C162.677 192.768 162.893 192.53 163.066 192.422H165.575C166.008 192.422 166.386 192.53 166.386 193.038C166.386 193.547 166.008 193.665 165.575 193.665H163.488ZM169.715 192.422V189.891C169.715 189.156 169.769 187.804 171.023 187.804C171.704 187.804 172.159 188.161 172.159 189.145V192.422H173.154V189.891C173.154 189.156 173.186 187.804 174.473 187.804C175.154 187.804 175.598 188.161 175.598 189.145V192.422H176.625V188.864C176.625 187.588 175.954 186.907 174.765 186.907C173.694 186.907 173.197 187.534 172.97 188.021C172.689 187.328 172.083 186.907 171.304 186.907C170.385 186.907 169.909 187.469 169.682 187.869V187.058H168.698V192.422H169.715ZM179.346 186.063V184.852H178.265V186.063H179.346ZM179.325 192.422V187.058H178.298V192.422H179.325ZM184.049 189.589V188.54H180.934V189.589H184.049ZM187.864 192.573C189.076 192.573 189.887 191.87 190.243 190.875L189.281 190.54C189.097 191.135 188.697 191.697 187.854 191.697C186.999 191.697 186.318 191.07 186.318 189.74C186.318 188.431 187.01 187.783 187.843 187.783C188.589 187.783 188.978 188.258 189.162 188.788L190.114 188.464C189.843 187.62 189.076 186.907 187.854 186.907C186.35 186.907 185.258 188.064 185.258 189.74C185.258 191.47 186.296 192.573 187.864 192.573ZM192.441 192.422V184.852H191.425V192.422H192.441ZM195.889 192.573C196.992 192.573 197.5 191.816 197.673 191.503V192.422H198.668V187.058H197.652V189.394C197.652 190.227 197.587 191.687 196.246 191.687C195.576 191.687 195.143 191.297 195.143 190.335V187.058H194.126V190.573C194.126 191.762 194.667 192.573 195.889 192.573ZM203.169 192.573C204.434 192.573 205.364 191.492 205.364 189.74C205.364 187.977 204.434 186.907 203.169 186.907C202.228 186.907 201.709 187.426 201.46 187.869V186.842V184.852H200.443V192.422H201.428V191.611C201.687 192.054 202.228 192.573 203.169 192.573ZM202.877 191.708C202.022 191.708 201.406 191.048 201.406 189.729C201.406 188.41 202.022 187.772 202.877 187.772C203.709 187.772 204.315 188.269 204.315 189.729C204.315 191.178 203.709 191.708 202.877 191.708Z" fill="#CCFF00"/>
<rect x="0.5" y="172.425" width="235.365" height="26.8077" rx="5.67949" stroke="#CCFF00"/>
<rect x="5.13477" y="177.832" width="235.365" height="26.8077" rx="5.67949" stroke="#CCFF00"/>
<path d="M44.5021 193.553H49.7998C50.5177 193.553 50.8683 193.198 50.8683 192.422V188.354C50.8683 187.656 50.5789 187.295 49.9835 187.234V185.838C49.9835 183.748 48.6089 182.739 47.1509 182.739C45.6929 182.739 44.3184 183.748 44.3184 185.838V187.262C43.7731 187.345 43.4336 187.7 43.4336 188.354V192.422C43.4336 193.198 43.7842 193.553 44.5021 193.553ZM45.2144 185.721C45.2144 184.33 46.1103 183.593 47.1509 183.593C48.1916 183.593 49.0875 184.33 49.0875 185.721V187.229L45.2144 187.234V185.721Z" fill="#CCFF00"/>
<g clip-path="url(#clip0_3374_41934)">
<g filter="url(#filter0_d_3374_41934)">
<path d="M197.152 141.626C197.361 141.342 198.484 140.821 199.098 141.29C199.712 141.76 199.939 142.693 199.939 142.693L197.939 145.834L201.887 146.823L190.738 153.507L193.767 141.411L195.456 144.229C195.638 143.932 196.886 141.986 197.152 141.626Z" fill="#CCFF00"/>
<path fill-rule="evenodd" clip-rule="evenodd" d="M191.94 151.885L199.891 147.12L196.712 146.324L199.031 142.681C199.031 142.681 198.906 142.148 198.634 142.019C198.363 141.89 197.947 141.849 197.773 142.085C196.953 143.196 195.453 145.727 195.453 145.727L194.063 143.408L191.94 151.885Z" fill="black"/>
</g>
</g>
<g clip-path="url(#clip1_3374_41934)">
<g filter="url(#filter1_d_3374_41934)">
<path d="M43.6062 149.68C43.4795 149.351 43.6424 148.124 44.368 147.857C45.0936 147.591 46.0035 147.901 46.0035 147.901L47.5796 151.275L50.5333 148.474L50.1875 161.468L41.6084 152.42L44.8922 152.508C44.7392 152.194 43.7673 150.097 43.6062 149.68Z" fill="#CCFF00"/>
<path fill-rule="evenodd" clip-rule="evenodd" d="M49.4648 159.584L49.7114 150.318L47.3333 152.573L45.5056 148.66C45.5056 148.66 44.9878 148.48 44.7334 148.64C44.4791 148.8 44.2215 149.129 44.3268 149.402C44.8239 150.69 46.1545 153.314 46.1545 153.314L43.4519 153.242L49.4648 159.584Z" fill="black"/>
</g>
</g>
<g clip-path="url(#clip2_3374_41934)">
<g filter="url(#filter2_d_3374_41934)">
<path d="M118.957 232.114C118.912 232.463 118.184 233.464 117.419 233.352C116.654 233.241 116.002 232.534 116.002 232.534L116.225 228.817L112.294 229.871L118.793 218.614L122.02 230.657L119.175 229.015C119.16 229.363 119.015 231.67 118.957 232.114Z" fill="#CCFF00"/>
<path fill-rule="evenodd" clip-rule="evenodd" d="M118.529 220.615L113.895 228.642L117.06 227.794L116.801 232.104C116.801 232.104 117.171 232.51 117.47 232.491C117.77 232.471 118.154 232.305 118.191 232.015C118.369 230.645 118.45 227.704 118.45 227.704L120.791 229.056L118.529 220.615Z" fill="black"/>
</g>
</g>
<path d="M93.9105 70.0937C94.375 69.6189 95.1986 69.3921 96.4484 69.5375C97.6863 69.6815 99.2365 70.1818 101.003 71.0163C104.531 72.6827 108.816 75.6306 113.007 79.4725C117.198 83.3144 120.472 87.2959 122.383 90.6153C123.339 92.2777 123.94 93.7489 124.156 94.9375C124.374 96.1377 124.184 96.9461 123.72 97.4209C123.255 97.8957 122.432 98.1225 121.182 97.9771C119.944 97.8331 118.394 97.3328 116.627 96.4983C113.099 94.8319 108.814 91.884 104.623 88.0421C100.432 84.2002 97.1586 80.2187 95.2478 76.8993C94.2909 75.2369 93.6906 73.7657 93.4747 72.5771C93.2568 71.3769 93.446 70.5685 93.9105 70.0937Z" fill="black" stroke="#CCFF00"/>
<path d="M96.0735 67.8831C96.5381 67.4083 97.3617 67.1815 98.6115 67.3269C99.8494 67.4709 101.4 67.9712 103.166 68.8058C106.694 70.4721 110.979 73.4201 115.17 77.262C119.361 81.1038 122.635 85.0853 124.546 88.4048C125.503 90.0672 126.103 91.5383 126.319 92.727C126.537 93.9271 126.347 94.7356 125.883 95.2104C125.418 95.6852 124.595 95.912 123.345 95.7666C122.107 95.6226 120.557 95.1223 118.79 94.2877C115.262 92.6213 110.977 89.6734 106.786 85.8315C102.595 81.9896 99.3217 78.0082 97.4109 74.6887C96.454 73.0263 95.8537 71.5551 95.6378 70.3665C95.4199 69.1663 95.609 68.3579 96.0735 67.8831Z" fill="black" stroke="#CCFF00"/>
<line y1="-0.5" x2="3.71103" y2="-0.5" transform="matrix(0.69932 -0.714809 0.73713 0.67575 123.872 97.9799)" stroke="#CCFF00"/>
<line x1="94.2007" y1="69.8322" x2="96.2007" y2="67.8322" stroke="#CCFF00"/>
<path d="M126.965 33.1293C125.515 29.8101 126.154 25.8101 128.475 21.9864C130.795 18.1661 134.767 14.577 139.856 12.1546C144.945 9.73213 150.146 8.9544 154.43 9.63148C158.717 10.3091 162.029 12.4287 163.479 15.7479C164.929 19.0671 164.29 23.0672 161.969 26.8908C159.649 30.7111 155.676 34.3003 150.588 36.7227C145.499 39.1451 140.298 39.9228 136.014 39.2458C131.726 38.5681 128.415 36.4486 126.965 33.1293Z" fill="black" stroke="#CCFF00"/>
<path d="M125.383 30.5114C123.933 27.1922 124.572 23.1921 126.893 19.3685C129.213 15.5482 133.185 11.9591 138.274 9.53663C143.363 7.11421 148.564 6.33648 152.848 7.01356C157.135 7.69122 160.447 9.81076 161.897 13.13C163.347 16.4492 162.708 20.4493 160.387 24.2729C158.067 28.0932 154.094 31.6823 149.005 34.1048C143.917 36.5272 138.716 37.3049 134.432 36.6278C130.144 35.9502 126.833 33.8306 125.383 30.5114Z" fill="black" stroke="#CCFF00"/>
<path d="M88.2786 156.207C88.5287 156.726 89.0539 157.056 89.6299 157.056H153.816C154.922 157.056 155.647 155.9 155.167 154.905L153.721 151.905C153.471 151.386 152.946 151.056 152.37 151.056H88.184C87.0785 151.056 86.3528 152.211 86.8328 153.207L88.2786 156.207Z" fill="black" stroke="#CCFF00"/>
<circle cx="120.023" cy="149.579" r="17.1744" fill="black" stroke="#CCFF00"/>
<circle cx="122.023" cy="151.579" r="17.1744" fill="black" stroke="#CCFF00"/>
<rect x="104" y="157.556" width="35" height="12" fill="black"/>
<line x1="100" y1="157.056" x2="145" y2="157.056" stroke="#CCFF00"/>
<defs>
<filter id="filter0_d_3374_41934" x="189.348" y="140.484" width="13.9302" height="15.1854" filterUnits="userSpaceOnUse" color-interpolation-filters="sRGB">
<feFlood flood-opacity="0" result="BackgroundImageFix"/>
<feColorMatrix in="SourceAlpha" type="matrix" values="0 0 0 0 0 0 0 0 0 0 0 0 0 0 0 0 0 0 127 0" result="hardAlpha"/>
<feOffset dy="0.772436"/>
<feGaussianBlur stdDeviation="0.695192"/>
<feColorMatrix type="matrix" values="0 0 0 0 0 0 0 0 0 0 0 0 0 0 0 0 0 0 0.65 0"/>
<feBlend mode="normal" in2="BackgroundImageFix" result="effect1_dropShadow_3374_41934"/>
<feBlend mode="normal" in="SourceGraphic" in2="effect1_dropShadow_3374_41934" result="shape"/>
</filter>
<filter id="filter1_d_3374_41934" x="40.218" y="147.131" width="11.7056" height="16.4998" filterUnits="userSpaceOnUse" color-interpolation-filters="sRGB">
<feFlood flood-opacity="0" result="BackgroundImageFix"/>
<feColorMatrix in="SourceAlpha" type="matrix" values="0 0 0 0 0 0 0 0 0 0 0 0 0 0 0 0 0 0 127 0" result="hardAlpha"/>
<feOffset dy="0.772436"/>
<feGaussianBlur stdDeviation="0.695192"/>
<feColorMatrix type="matrix" values="0 0 0 0 0 0 0 0 0 0 0 0 0 0 0 0 0 0 0.65 0"/>
<feBlend mode="normal" in2="BackgroundImageFix" result="effect1_dropShadow_3374_41934"/>
<feBlend mode="normal" in="SourceGraphic" in2="effect1_dropShadow_3374_41934" result="shape"/>
</filter>
<filter id="filter2_d_3374_41934" x="110.904" y="217.996" width="12.5073" height="17.5284" filterUnits="userSpaceOnUse" color-interpolation-filters="sRGB">
<feFlood flood-opacity="0" result="BackgroundImageFix"/>
<feColorMatrix in="SourceAlpha" type="matrix" values="0 0 0 0 0 0 0 0 0 0 0 0 0 0 0 0 0 0 127 0" result="hardAlpha"/>
<feOffset dy="0.772436"/>
<feGaussianBlur stdDeviation="0.695192"/>
<feColorMatrix type="matrix" values="0 0 0 0 0 0 0 0 0 0 0 0 0 0 0 0 0 0 0.65 0"/>
<feBlend mode="normal" in2="BackgroundImageFix" result="effect1_dropShadow_3374_41934"/>
<feBlend mode="normal" in="SourceGraphic" in2="effect1_dropShadow_3374_41934" result="shape"/>
</filter>
<clipPath id="clip0_3374_41934">
<rect width="18.5385" height="18.5385" fill="white" transform="translate(191.531 159.336) rotate(-120.942)"/>
</clipPath>
<clipPath id="clip1_3374_41934">
<rect width="18.5385" height="18.5385" fill="white" transform="translate(55.5312 163.928) rotate(-178.476)"/>
</clipPath>
<clipPath id="clip2_3374_41934">
<rect width="18.5385" height="18.5385" fill="white" transform="translate(115.27 213.903) rotate(30)"/>
</clipPath>
</defs>
</svg>
