<svg width="241" height="240" viewBox="0 0 241 240" fill="none" xmlns="http://www.w3.org/2000/svg">
<path d="M53.2629 192.866V190.552C53.2629 189.795 53.2845 188.238 54.6904 188.238C55.3825 188.238 55.8259 188.627 55.8259 189.589V192.866H56.8424V189.351C56.8424 188.162 56.2692 187.351 55.0472 187.351C53.8252 187.351 53.3602 188.14 53.2629 188.4V187.286V185.296H52.2464V192.866H53.2629ZM61.7307 192.866V191.99H60.606C60.2384 191.99 60.0761 191.828 60.0761 191.46V188.346H61.5252V187.502H60.0761V185.826H59.0596V187.502H57.8376V188.346H59.0596V191.547C59.0596 192.433 59.5246 192.866 60.4114 192.866H61.7307ZM66.0711 192.866V191.99H64.9465C64.5788 191.99 64.4166 191.828 64.4166 191.46V188.346H65.8657V187.502H64.4166V185.826H63.4V187.502H62.178V188.346H63.4V191.547C63.4 192.433 63.865 192.866 64.7518 192.866H66.0711ZM68.2379 194.975V193.082V192.055C68.4975 192.498 69.0057 193.017 69.9465 193.017C71.2118 193.017 72.1418 191.936 72.1418 190.184C72.1418 188.421 71.2118 187.351 69.9465 187.351C69.0057 187.351 68.465 187.87 68.2055 188.313V187.502H67.2214V194.975H68.2379ZM69.6546 192.152C68.8002 192.152 68.1838 191.493 68.1838 190.173C68.1838 188.854 68.8002 188.216 69.6546 188.216C70.4872 188.216 71.0928 188.713 71.0928 190.173C71.0928 191.622 70.4872 192.152 69.6546 192.152ZM75.3753 193.017C76.7595 193.017 77.5598 192.369 77.5598 191.352C77.5598 190.162 76.3702 189.816 75.7538 189.687L75.1158 189.568C74.3696 189.427 74.2074 189.222 74.2074 188.876C74.2074 188.497 74.5318 188.162 75.2455 188.162C76.089 188.162 76.4135 188.692 76.5432 189.059L77.4408 188.713C77.2245 188.032 76.5865 187.351 75.2564 187.351C74.1425 187.351 73.2341 188.01 73.2341 188.973C73.2341 190 74.0019 190.346 74.9211 190.53L75.57 190.649C76.3053 190.79 76.5324 191.06 76.5324 191.439C76.5324 191.914 76.1323 192.185 75.3861 192.185C74.5102 192.185 74.1209 191.72 73.9803 191.168L73.0178 191.482C73.2449 192.498 74.2506 193.017 75.3753 193.017ZM80.1129 188.897V187.491H78.7287V188.897H80.1129ZM80.1129 192.866V191.46H78.7287V192.866H80.1129ZM84.7491 185.145L81.8726 192.866H80.9425L83.8191 185.145H84.7491ZM88.7727 185.145L85.8962 192.866H84.9661L87.8427 185.145H88.7727ZM91.6176 193.017C93.0018 193.017 93.802 192.369 93.802 191.352C93.802 190.162 92.6125 189.816 91.9961 189.687L91.358 189.568C90.6119 189.427 90.4497 189.222 90.4497 188.876C90.4497 188.497 90.7741 188.162 91.4878 188.162C92.3313 188.162 92.6557 188.692 92.7855 189.059L93.6831 188.713C93.4668 188.032 92.8288 187.351 91.4986 187.351C90.3848 187.351 89.4764 188.01 89.4764 188.973C89.4764 190 90.2442 190.346 91.1634 190.53L91.8122 190.649C92.5476 190.79 92.7747 191.06 92.7747 191.439C92.7747 191.914 92.3746 192.185 91.6284 192.185C90.7525 192.185 90.3631 191.72 90.2226 191.168L89.2601 191.482C89.4872 192.498 90.4929 193.017 91.6176 193.017ZM97.4909 190.281C97.2422 191.006 97.1773 191.211 97.08 191.503C96.9826 191.244 96.8853 191.006 96.5284 190.173L95.4254 187.502H94.2899L96.6582 192.801L96.3879 193.569C96.2365 193.98 96.0202 194.066 95.6525 194.066H94.5711V194.975H95.6849C96.6258 194.975 97.0259 194.639 97.3719 193.623L99.4807 187.502H98.4101L97.4909 190.281ZM101.641 192.866V190.552C101.641 189.795 101.663 188.238 103.069 188.238C103.761 188.238 104.204 188.627 104.204 189.589V192.866H105.221V189.351C105.221 188.162 104.68 187.351 103.361 187.351C102.236 187.351 101.717 188.14 101.609 188.4V187.502H100.625V192.866H101.641ZM108.725 193.017C109.666 193.017 110.196 192.498 110.455 192.055V192.866H111.45V185.296H110.433V187.286V188.324C110.174 187.881 109.655 187.351 108.725 187.351C107.46 187.351 106.519 188.432 106.519 190.195C106.519 191.947 107.46 193.017 108.725 193.017ZM109.006 192.152C108.184 192.152 107.568 191.655 107.568 190.195C107.568 188.746 108.184 188.216 109.006 188.216C109.871 188.216 110.488 188.876 110.488 190.195C110.488 191.514 109.871 192.152 109.006 192.152ZM114.262 186.507V185.296H113.18V186.507H114.262ZM114.24 192.866V187.502H113.213V192.866H114.24ZM118.196 193.017C119.407 193.017 120.219 192.314 120.575 191.32L119.613 190.984C119.429 191.579 119.029 192.141 118.185 192.141C117.331 192.141 116.65 191.514 116.65 190.184C116.65 188.876 117.342 188.227 118.175 188.227C118.921 188.227 119.31 188.703 119.494 189.232L120.446 188.908C120.175 188.065 119.407 187.351 118.185 187.351C116.682 187.351 115.59 188.508 115.59 190.184C115.59 191.914 116.628 193.017 118.196 193.017ZM123.141 193.017C123.995 193.017 124.514 192.639 124.893 192.055C124.958 192.509 125.109 192.866 125.888 192.866H126.666V192.001H126.115C125.866 192.001 125.801 191.936 125.801 191.687V189.232C125.801 188.075 125.109 187.351 123.66 187.351C122.243 187.351 121.475 188.119 121.302 188.854L122.276 189.168C122.416 188.757 122.719 188.205 123.66 188.205C124.449 188.205 124.785 188.584 124.785 189.2V189.362C123.043 189.503 121.411 190 121.411 191.482C121.411 192.433 122.092 193.017 123.141 193.017ZM123.411 192.185C122.773 192.185 122.459 191.882 122.459 191.395C122.459 190.541 123.53 190.227 124.785 190.098V190.649C124.785 191.72 124.092 192.185 123.411 192.185ZM130.745 192.866V191.99H129.62C129.252 191.99 129.09 191.828 129.09 191.46V188.346H130.539V187.502H129.09V185.826H128.073V187.502H126.851V188.346H128.073V191.547C128.073 192.433 128.538 192.866 129.425 192.866H130.745ZM133.918 193.017C135.032 193.017 135.886 192.498 136.276 191.471L135.346 191.136C135.194 191.514 134.816 192.163 133.951 192.163C133.215 192.163 132.502 191.73 132.458 190.444H136.233C136.427 188.692 135.476 187.351 133.875 187.351C132.48 187.351 131.442 188.454 131.442 190.206C131.442 192.012 132.426 193.017 133.918 193.017ZM132.48 189.633C132.567 188.703 133.183 188.162 133.875 188.162C134.589 188.162 135.194 188.67 135.205 189.633H132.48ZM138.883 192.866V191.46H137.499V192.866H138.883ZM141.529 186.507V185.296H140.448V186.507H141.529ZM141.508 192.866V187.502H140.48V192.866H141.508ZM145.399 193.017C146.837 193.017 147.94 191.828 147.94 190.195C147.94 188.562 146.881 187.351 145.399 187.351C143.917 187.351 142.847 188.562 142.847 190.195C142.847 191.806 143.95 193.017 145.399 193.017ZM145.399 192.141C144.512 192.141 143.907 191.514 143.907 190.206C143.907 188.886 144.512 188.227 145.399 188.227C146.275 188.227 146.881 188.886 146.881 190.206C146.881 191.514 146.275 192.141 145.399 192.141ZM152.316 185.145L149.44 192.866H148.51L151.386 185.145H152.316ZM155.572 192.866L156.383 190.271C156.697 189.276 156.794 188.94 156.902 188.616L157.41 190.281L158.2 192.866H159.4L161.206 187.502H160.135L159.368 189.968C159.032 191.082 158.892 191.525 158.805 191.774L158.362 190.292L157.518 187.502H156.329L155.55 190.054C155.226 191.114 155.107 191.503 155.031 191.785L154.491 190L153.734 187.502H152.674L154.426 192.866H155.572ZM165.705 194.975C166.635 194.975 167.414 194.477 167.414 193.472C167.414 192.574 166.733 191.968 165.684 191.968H163.359C162.991 191.968 162.883 191.795 162.883 191.622C162.883 191.428 163.067 191.233 163.359 191.114C163.661 191.276 164.008 191.32 164.375 191.32C165.576 191.32 166.408 190.541 166.506 189.33L166.527 189.07C166.57 188.454 166.743 188.346 167.198 188.346H167.641V187.502H167.09C166.538 187.502 166.3 187.837 166.203 188.302C165.954 187.881 165.359 187.351 164.364 187.351C163.11 187.351 162.202 188.216 162.202 189.351C162.202 189.989 162.483 190.476 162.796 190.757C162.429 190.995 161.996 191.363 161.996 191.893C161.996 192.325 162.169 192.585 162.472 192.769C162.158 192.963 161.78 193.353 161.78 193.893C161.78 194.521 162.158 194.975 163.207 194.975H165.705ZM164.375 190.519C163.672 190.519 163.218 190.054 163.218 189.341C163.218 188.638 163.672 188.151 164.375 188.151C165.078 188.151 165.532 188.638 165.532 189.341C165.532 190.054 165.078 190.519 164.375 190.519ZM163.488 194.11C162.969 194.11 162.677 193.98 162.677 193.547C162.677 193.212 162.894 192.974 163.067 192.866H165.576C166.008 192.866 166.387 192.974 166.387 193.482C166.387 193.991 166.008 194.11 165.576 194.11H163.488ZM169.715 192.866V190.335C169.715 189.6 169.769 188.248 171.024 188.248C171.705 188.248 172.159 188.605 172.159 189.589V192.866H173.154V190.335C173.154 189.6 173.186 188.248 174.473 188.248C175.155 188.248 175.598 188.605 175.598 189.589V192.866H176.625V189.308C176.625 188.032 175.955 187.351 174.765 187.351C173.695 187.351 173.197 187.978 172.97 188.465C172.689 187.773 172.083 187.351 171.305 187.351C170.386 187.351 169.91 187.913 169.683 188.313V187.502H168.699V192.866H169.715ZM179.347 186.507V185.296H178.266V186.507H179.347ZM179.325 192.866V187.502H178.298V192.866H179.325ZM184.049 190.033V188.984H180.935V190.033H184.049ZM187.865 193.017C189.076 193.017 189.887 192.314 190.244 191.32L189.282 190.984C189.098 191.579 188.698 192.141 187.854 192.141C187 192.141 186.318 191.514 186.318 190.184C186.318 188.876 187.011 188.227 187.843 188.227C188.589 188.227 188.979 188.703 189.163 189.232L190.114 188.908C189.844 188.065 189.076 187.351 187.854 187.351C186.351 187.351 185.259 188.508 185.259 190.184C185.259 191.914 186.297 193.017 187.865 193.017ZM192.442 192.866V185.296H191.425V192.866H192.442ZM195.89 193.017C196.993 193.017 197.501 192.26 197.674 191.947V192.866H198.669V187.502H197.652V189.838C197.652 190.671 197.587 192.131 196.246 192.131C195.576 192.131 195.143 191.741 195.143 190.779V187.502H194.127V191.017C194.127 192.206 194.668 193.017 195.89 193.017ZM203.169 193.017C204.434 193.017 205.364 191.936 205.364 190.184C205.364 188.421 204.434 187.351 203.169 187.351C202.228 187.351 201.709 187.87 201.46 188.313V187.286V185.296H200.444V192.866H201.428V192.055C201.688 192.498 202.228 193.017 203.169 193.017ZM202.877 192.152C202.023 192.152 201.406 191.493 201.406 190.173C201.406 188.854 202.023 188.216 202.877 188.216C203.71 188.216 204.315 188.713 204.315 190.173C204.315 191.622 203.71 192.152 202.877 192.152Z" fill="#CCFF00"/>
<rect x="0.5" y="172.869" width="235.365" height="26.8077" rx="5.67949" stroke="#CCFF00"/>
<rect x="5.13477" y="178.276" width="235.365" height="26.8077" rx="5.67949" stroke="#CCFF00"/>
<path d="M36.7457 193.997H42.0435C42.7614 193.997 43.1119 193.643 43.1119 192.867V188.798C43.1119 188.1 42.8226 187.739 42.2271 187.678V186.282C42.2271 184.192 40.8526 183.183 39.3946 183.183C37.9366 183.183 36.5621 184.192 36.5621 186.282V187.706C36.0167 187.789 35.6772 188.144 35.6772 188.798V192.867C35.6772 193.643 36.0278 193.997 36.7457 193.997ZM37.458 186.165C37.458 184.774 38.354 184.037 39.3946 184.037C40.4352 184.037 41.3312 184.774 41.3312 186.165V187.673L37.458 187.678V186.165Z" fill="#CCFF00"/>
<g clip-path="url(#clip0_75_3238)">
<g filter="url(#filter0_d_75_3238)">
<path d="M197.152 142.07C197.361 141.787 198.484 141.265 199.099 141.734C199.713 142.204 199.94 143.138 199.94 143.138L197.939 146.278L201.888 147.267L190.739 153.951L193.768 141.855L195.457 144.673C195.639 144.376 196.886 142.43 197.152 142.07Z" fill="#CCFF00"/>
<path fill-rule="evenodd" clip-rule="evenodd" d="M191.941 152.33L199.891 147.564L196.712 146.768L199.032 143.126C199.032 143.126 198.906 142.592 198.635 142.463C198.363 142.334 197.947 142.294 197.773 142.529C196.953 143.64 195.454 146.171 195.454 146.171L194.064 143.852L191.941 152.33Z" fill="black"/>
</g>
</g>
<g clip-path="url(#clip1_75_3238)">
<g filter="url(#filter1_d_75_3238)">
<path d="M43.6072 150.124C43.4804 149.795 43.6433 148.568 44.369 148.302C45.0946 148.035 46.0044 148.345 46.0044 148.345L47.5806 151.719L50.5342 148.918L50.1885 161.912L41.6094 152.864L44.8931 152.952C44.7402 152.638 43.7683 150.541 43.6072 150.124Z" fill="#CCFF00"/>
<path fill-rule="evenodd" clip-rule="evenodd" d="M49.4663 160.028L49.7129 150.762L47.3347 153.017L45.5071 149.105C45.5071 149.105 44.9893 148.924 44.7349 149.084C44.4805 149.244 44.223 149.573 44.3283 149.846C44.8254 151.134 46.1559 153.758 46.1559 153.758L43.4534 153.686L49.4663 160.028Z" fill="black"/>
</g>
</g>
<g clip-path="url(#clip2_75_3238)">
<g filter="url(#filter2_d_75_3238)">
<path d="M118.957 232.558C118.912 232.907 118.184 233.909 117.419 233.797C116.654 233.685 116.002 232.979 116.002 232.979L116.225 229.262L112.294 230.315L118.793 219.058L122.02 231.102L119.175 229.459C119.16 229.807 119.015 232.114 118.957 232.558Z" fill="#CCFF00"/>
<path fill-rule="evenodd" clip-rule="evenodd" d="M118.53 221.059L113.895 229.086L117.061 228.238L116.802 232.548C116.802 232.548 117.171 232.954 117.471 232.935C117.771 232.915 118.154 232.749 118.192 232.459C118.369 231.089 118.45 228.149 118.45 228.149L120.792 229.5L118.53 221.059Z" fill="black"/>
</g>
</g>
<path d="M93.9105 70.5378C94.375 70.063 95.1986 69.8362 96.4484 69.9816C97.6863 70.1256 99.2365 70.6259 101.003 71.4604C104.531 73.1268 108.816 76.0747 113.007 79.9166C117.198 83.7585 120.472 87.74 122.383 91.0594C123.339 92.7218 123.94 94.193 124.156 95.3816C124.374 96.5818 124.184 97.3902 123.72 97.865C123.255 98.3398 122.432 98.5666 121.182 98.4212C119.944 98.2772 118.394 97.7769 116.627 96.9424C113.099 95.276 108.814 92.3281 104.623 88.4862C100.432 84.6443 97.1586 80.6628 95.2478 77.3434C94.2909 75.681 93.6906 74.2098 93.4747 73.0212C93.2568 71.821 93.446 71.0126 93.9105 70.5378Z" fill="black" stroke="#CCFF00"/>
<path d="M96.0731 68.3272C96.5376 67.8524 97.3612 67.6256 98.611 67.771C99.8489 67.915 101.399 68.4153 103.166 69.2498C106.694 70.9162 110.979 73.8642 115.17 77.706C119.361 81.5479 122.634 85.5294 124.545 88.8489C125.502 90.5112 126.102 91.9824 126.318 93.1711C126.536 94.3712 126.347 95.1797 125.883 95.6545C125.418 96.1293 124.594 96.3561 123.345 96.2107C122.107 96.0666 120.556 95.5663 118.79 94.7318C115.262 93.0654 110.977 90.1175 106.786 86.2756C102.595 82.4337 99.3212 78.4522 97.4104 75.1328C96.4535 73.4704 95.8532 71.9992 95.6373 70.8106C95.4194 69.6104 95.6085 68.802 96.0731 68.3272Z" fill="black" stroke="#CCFF00"/>
<line y1="-0.5" x2="3.71103" y2="-0.5" transform="matrix(0.69932 -0.714809 0.73713 0.67575 123.873 98.424)" stroke="#CCFF00"/>
<line x1="94.2007" y1="70.2763" x2="96.2007" y2="68.2763" stroke="#CCFF00"/>
<path d="M126.964 33.5733C125.515 30.2541 126.153 26.254 128.475 22.4304C130.794 18.6101 134.767 15.0209 139.856 12.5985C144.945 10.1761 150.146 9.39837 154.429 10.0754C158.717 10.7531 162.029 12.8727 163.478 16.1919C164.928 19.5111 164.289 23.5111 161.968 27.3348C159.649 31.1551 155.676 34.7442 150.587 37.1667C145.498 39.5891 140.297 40.3668 136.014 39.6897C131.726 39.0121 128.414 36.8925 126.964 33.5733Z" fill="black" stroke="#CCFF00"/>
<path d="M125.382 30.9554C123.933 27.6361 124.571 23.6361 126.893 19.8125C129.212 15.9922 133.185 12.403 138.274 9.9806C143.363 7.55818 148.564 6.78045 152.847 7.45753C157.135 8.13519 160.447 10.2547 161.896 13.574C163.346 16.8932 162.707 20.8932 160.386 24.7169C158.067 28.5372 154.094 32.1263 149.005 34.5487C143.916 36.9712 138.715 37.7489 134.431 37.0718C130.144 36.3941 126.832 34.2746 125.382 30.9554Z" fill="black" stroke="#CCFF00"/>
<path d="M89.6299 157.5H153.816C154.922 157.5 155.647 156.345 155.167 155.349L153.721 152.349C153.471 151.83 152.946 151.5 152.37 151.5H88.184C87.0785 151.5 86.3528 152.655 86.8328 153.651L88.2786 156.651C88.5287 157.17 89.0539 157.5 89.6299 157.5Z" fill="black" stroke="#CCFF00"/>
<circle cx="120.023" cy="150.023" r="17.1744" fill="black" stroke="#CCFF00"/>
<circle cx="122.023" cy="152.023" r="17.1744" fill="black" stroke="#CCFF00"/>
<rect x="104" y="158" width="35" height="12" fill="black"/>
<line x1="100" y1="157.5" x2="145" y2="157.5" stroke="#CCFF00"/>
<defs>
<filter id="filter0_d_75_3238" x="189.348" y="140.928" width="13.9297" height="15.1854" filterUnits="userSpaceOnUse" color-interpolation-filters="sRGB">
<feFlood flood-opacity="0" result="BackgroundImageFix"/>
<feColorMatrix in="SourceAlpha" type="matrix" values="0 0 0 0 0 0 0 0 0 0 0 0 0 0 0 0 0 0 127 0" result="hardAlpha"/>
<feOffset dy="0.772436"/>
<feGaussianBlur stdDeviation="0.695192"/>
<feColorMatrix type="matrix" values="0 0 0 0 0 0 0 0 0 0 0 0 0 0 0 0 0 0 0.65 0"/>
<feBlend mode="normal" in2="BackgroundImageFix" result="effect1_dropShadow_75_3238"/>
<feBlend mode="normal" in="SourceGraphic" in2="effect1_dropShadow_75_3238" result="shape"/>
</filter>
<filter id="filter1_d_75_3238" x="40.219" y="147.576" width="11.7056" height="16.4998" filterUnits="userSpaceOnUse" color-interpolation-filters="sRGB">
<feFlood flood-opacity="0" result="BackgroundImageFix"/>
<feColorMatrix in="SourceAlpha" type="matrix" values="0 0 0 0 0 0 0 0 0 0 0 0 0 0 0 0 0 0 127 0" result="hardAlpha"/>
<feOffset dy="0.772436"/>
<feGaussianBlur stdDeviation="0.695192"/>
<feColorMatrix type="matrix" values="0 0 0 0 0 0 0 0 0 0 0 0 0 0 0 0 0 0 0.65 0"/>
<feBlend mode="normal" in2="BackgroundImageFix" result="effect1_dropShadow_75_3238"/>
<feBlend mode="normal" in="SourceGraphic" in2="effect1_dropShadow_75_3238" result="shape"/>
</filter>
<filter id="filter2_d_75_3238" x="110.903" y="218.44" width="12.5073" height="17.5284" filterUnits="userSpaceOnUse" color-interpolation-filters="sRGB">
<feFlood flood-opacity="0" result="BackgroundImageFix"/>
<feColorMatrix in="SourceAlpha" type="matrix" values="0 0 0 0 0 0 0 0 0 0 0 0 0 0 0 0 0 0 127 0" result="hardAlpha"/>
<feOffset dy="0.772436"/>
<feGaussianBlur stdDeviation="0.695192"/>
<feColorMatrix type="matrix" values="0 0 0 0 0 0 0 0 0 0 0 0 0 0 0 0 0 0 0.65 0"/>
<feBlend mode="normal" in2="BackgroundImageFix" result="effect1_dropShadow_75_3238"/>
<feBlend mode="normal" in="SourceGraphic" in2="effect1_dropShadow_75_3238" result="shape"/>
</filter>
<clipPath id="clip0_75_3238">
<rect width="18.5385" height="18.5385" fill="white" transform="translate(191.532 159.78) rotate(-120.942)"/>
</clipPath>
<clipPath id="clip1_75_3238">
<rect width="18.5385" height="18.5385" fill="white" transform="translate(55.5317 164.373) rotate(-178.476)"/>
</clipPath>
<clipPath id="clip2_75_3238">
<rect width="18.5385" height="18.5385" fill="white" transform="translate(115.269 214.348) rotate(30)"/>
</clipPath>
</defs>
</svg>
