<svg width="24" height="21" viewBox="0 0 24 21" fill="none" xmlns="http://www.w3.org/2000/svg">
<path d="M23.2976 9.46078H21.9532C21.4233 4.47059 17.1153 0.5 12.0027 0.5C9.00974 0.5 6.31114 1.85294 4.46628 3.98039C4.09338 4.40196 4.14245 4.92157 4.53497 5.19608C4.91768 5.47059 5.3789 5.38235 5.70273 5.01961C7.23357 3.27451 9.49058 2.16667 12.0027 2.16667C16.2714 2.16667 19.7551 5.33333 20.2653 9.46078H18.8032C18.1065 9.46078 17.9298 9.93137 18.3027 10.4706L20.5009 13.598C20.8149 14.049 21.2859 14.0588 21.6097 13.598L23.7981 10.4804C24.1906 9.93137 24.0041 9.46078 23.2976 9.46078ZM0.698053 11.549H2.05226C2.58217 16.5392 6.8803 20.5 12.0027 20.5C14.9957 20.5 17.7041 19.1373 19.549 17.0196C19.9121 16.598 19.863 16.0686 19.4803 15.7941C19.0976 15.5196 18.6266 15.6176 18.3125 15.9804C16.7915 17.7353 14.5345 18.8333 12.0027 18.8333C7.72422 18.8333 4.24058 15.6765 3.7303 11.549H5.20226C5.89899 11.549 6.07562 11.0686 5.70273 10.5392L3.5046 7.41176C3.19058 6.96078 2.71955 6.95098 2.39572 7.41176L0.197586 10.5294C-0.185125 11.0686 -0.00848901 11.549 0.698053 11.549Z" fill="#1FF5E9"/>
</svg>
