<svg width="24" height="24" viewBox="0 0 24 24" fill="none" xmlns="http://www.w3.org/2000/svg">
<path d="M12.0183 24C12.2084 24 12.5173 23.9287 12.8143 23.7624C19.5747 19.9723 21.8916 18.3683 21.8916 14.0317V4.94258C21.8916 3.69505 21.3569 3.30297 20.347 2.87525C18.945 2.29307 14.4183 0.665347 13.0163 0.178218C12.6955 0.0712872 12.351 0 12.0183 0C11.6856 0 11.3411 0.0950495 11.0322 0.178218C9.63017 0.582178 5.09156 2.30495 3.68957 2.87525C2.69155 3.29109 2.14502 3.69505 2.14502 4.94258V14.0317C2.14502 18.3683 4.47373 19.9604 11.2222 23.7624C11.5312 23.9287 11.8282 24 12.0183 24ZM12.0183 21.8495C11.8282 21.8495 11.6381 21.7782 11.2817 21.5644C5.79255 18.2376 4.03413 17.2634 4.03413 13.5921V5.31089C4.03413 4.90693 4.10542 4.75248 4.43809 4.62178C6.24403 3.90891 9.74898 2.73267 11.543 2.0198C11.7331 1.93663 11.8876 1.91287 12.0183 1.91287C12.149 1.91287 12.3034 1.94852 12.4935 2.0198C14.2876 2.73267 17.7688 3.99208 19.6104 4.62178C19.9312 4.7406 20.0025 4.90693 20.0025 5.31089V13.5921C20.0025 17.2634 18.244 18.2257 12.7549 21.5644C12.4104 21.7782 12.2084 21.8495 12.0183 21.8495ZM10.7232 17.0614C11.1153 17.0614 11.448 16.8713 11.6856 16.5149L17.1153 7.9604C17.2579 7.73466 17.4005 7.47327 17.4005 7.2C17.4005 6.67723 16.9252 6.33268 16.4381 6.33268C16.1292 6.33268 15.8322 6.51089 15.6064 6.86733L10.6757 14.7802L8.33512 11.7505C8.04997 11.3703 7.78859 11.2634 7.46779 11.2634C6.94502 11.2634 6.54106 11.6792 6.54106 12.2139C6.54106 12.4634 6.64799 12.7248 6.81433 12.9505L9.71334 16.5149C10.0104 16.9069 10.3312 17.0614 10.7232 17.0614Z" fill="#4376FF"/>
</svg>
