<svg width="64" height="64" viewBox="0 0 64 64" fill="none" xmlns="http://www.w3.org/2000/svg">
<circle cx="32" cy="32" r="30.5" stroke="#F14D4D" stroke-width="3"/>
<path d="M20.3916 41.6976C19.8771 42.2122 19.8619 43.09 20.3916 43.6046C20.9213 44.1192 21.7992 44.1192 22.3137 43.6046L32 33.9183L41.6863 43.6046C42.2008 44.1192 43.0938 44.1343 43.6084 43.6046C44.1229 43.0749 44.1229 42.2122 43.6084 41.6976L33.9221 31.9962L43.6084 22.31C44.1229 21.7954 44.1381 20.9176 43.6084 20.403C43.0786 19.8733 42.2008 19.8733 41.6863 20.403L32 30.0892L22.3137 20.403C21.7992 19.8733 20.9062 19.8581 20.3916 20.403C19.8771 20.9327 19.8771 21.7954 20.3916 22.31L30.0779 31.9962L20.3916 41.6976Z" fill="#F14D4D"/>
</svg>
