<svg width="24" height="24" viewBox="0 0 24 24" fill="none" xmlns="http://www.w3.org/2000/svg">
<path d="M3.16786 22.5004H20.8321C22.7834 22.5004 24 21.1001 24 19.3325C24 18.8045 23.8623 18.2651 23.5753 17.7715L14.726 2.35689C14.1291 1.31241 13.0732 0.75 12.0057 0.75C10.9268 0.75 9.87088 1.31241 9.27403 2.35689L0.424677 17.783C0.137733 18.2765 0 18.8045 0 19.3325C0 21.1001 1.21664 22.5004 3.16786 22.5004ZM3.17934 20.6984C2.38737 20.6984 1.8594 20.0441 1.8594 19.3325C1.8594 19.1259 1.89383 18.8849 2.00861 18.6438L10.8465 3.2292C11.099 2.79304 11.5581 2.58644 12.0057 2.58644C12.4534 2.58644 12.8895 2.78156 13.142 3.2292L21.9684 18.6553C22.0947 18.8849 22.1521 19.1259 22.1521 19.3325C22.1521 20.0441 21.6011 20.6984 20.8092 20.6984H3.17934ZM12.0057 14.7643C12.5567 14.7643 12.8666 14.443 12.878 13.8461L13.0502 7.79735C13.0617 7.21198 12.6026 6.77583 11.9943 6.77583C11.3745 6.77583 10.9383 7.2005 10.9498 7.78587L11.099 13.8461C11.1105 14.4315 11.4319 14.7643 12.0057 14.7643ZM12.0057 18.4946C12.66 18.4946 13.2453 17.9666 13.2453 17.3009C13.2453 16.6237 12.6714 16.1072 12.0057 16.1072C11.3286 16.1072 10.7661 16.6352 10.7661 17.3009C10.7661 17.9552 11.34 18.4946 12.0057 18.4946Z" fill="#F14D4D"/>
</svg>
