<svg width="24" height="24" viewBox="0 0 24 24" fill="none" xmlns="http://www.w3.org/2000/svg">
    <path d="M12 24C18.5647 24 24 18.5529 24 12C24 5.43529 18.5529 0 11.9882 0C5.43529 0 0 5.43529 0 12C0 18.5529 5.44706 24 12 24ZM12 22C6.44706 22 2.01176 17.5529 2.01176 12C2.01176 6.44706 6.43529 2 11.9882 2C17.5412 2 21.9882 6.44706 22 12C22.0118 17.5529 17.5529 22 12 22ZM10.7059 17.5882C11.0941 17.5882 11.4235 17.4 11.6588 17.0353L17.0353 8.57647C17.1647 8.35294 17.3176 8.08235 17.3176 7.82353C17.3176 7.30588 16.8471 6.96471 16.3529 6.96471C16.0588 6.96471 15.7647 7.14118 15.5412 7.49412L10.6588 15.3176L8.34118 12.3294C8.05882 11.9529 7.8 11.8471 7.47059 11.8471C6.96471 11.8471 6.56471 12.2588 6.56471 12.7882C6.56471 13.0353 6.67059 13.2941 6.83529 13.5176L9.70588 17.0353C10 17.4235 10.3176 17.5882 10.7059 17.5882Z" fill="#4376FF"/>
</svg>