<svg width="12" height="6" viewBox="0 0 12 6" fill="none" xmlns="http://www.w3.org/2000/svg">
<path d="M5.99655 0C5.82383 0 5.65112 0.0613499 5.53368 0.177914L0.186528 5.04294C0.0690851 5.14724 0 5.28221 0 5.43558C0 5.7546 0.26943 6 0.62867 6C0.801382 6 0.960277 5.93865 1.07772 5.84049L5.99655 1.37423L10.9223 5.84049C11.0328 5.93865 11.1917 6 11.3713 6C11.7306 6 12 5.7546 12 5.43558C12 5.28221 11.9309 5.14724 11.8135 5.03681L6.46632 0.177914C6.33506 0.0613499 6.17617 0 5.99655 0Z" fill="#646871"/>
</svg>
