<svg width="14" height="14" viewBox="0 0 14 14" fill="none" xmlns="http://www.w3.org/2000/svg">
<path d="M7.00302 9.625C7.15415 9.625 7.30527 9.57132 7.40803 9.46933L12.0868 5.21242C12.1896 5.12117 12.25 5.00307 12.25 4.86887C12.25 4.58972 12.0142 4.375 11.6999 4.375C11.5488 4.375 11.4098 4.42868 11.307 4.51457L7.00302 8.42255L2.69301 4.51457C2.59629 4.42868 2.45725 4.375 2.30009 4.375C1.98575 4.375 1.75 4.58972 1.75 4.86887C1.75 5.00307 1.81045 5.12117 1.91321 5.21779L6.59197 9.46933C6.70682 9.57132 6.84586 9.625 7.00302 9.625Z" fill="#90949E"/>
</svg>
