<svg width="32" height="32" viewBox="0 0 32 32" fill="none" xmlns="http://www.w3.org/2000/svg">
<path d="M16 32C24.8366 32 32 24.8366 32 16C32 7.16344 24.8366 0 16 0C7.16344 0 0 7.16344 0 16C0 24.8366 7.16344 32 16 32Z" fill="white"/>
<path d="M16.3793 19.0583C16.1798 19.2906 15.8202 19.2906 15.6206 19.0583L12.4536 15.3703C12.3025 15.1943 12.2923 14.9375 12.4289 14.7501L13.7002 13.0055C13.7943 12.8764 13.9445 12.8 14.1043 12.8H17.8957C18.0555 12.8 18.2056 12.8764 18.2997 13.0055L19.5711 14.7501C19.7077 14.9375 19.6974 15.1943 19.5463 15.3703L16.3793 19.0583Z" fill="black"/>
<rect x="9.6" y="8.6" width="12.8" height="14.8" rx="1.4" stroke="black" stroke-width="1.2"/>
</svg>
