<svg width="32" height="32" viewBox="0 0 32 32" fill="none" xmlns="http://www.w3.org/2000/svg">
<path d="M16 32C24.8366 32 32 24.8366 32 16C32 7.16344 24.8366 0 16 0C7.16344 0 0 7.16344 0 16C0 24.8366 7.16344 32 16 32Z" fill="#30E696"/>
<rect width="16" height="16" transform="translate(8 8)" fill="#30E696"/>
<path fill-rule="evenodd" clip-rule="evenodd" d="M8.68571 15.2998C9.06442 15.2998 9.37143 15.6068 9.37143 15.9855C9.37143 16.856 9.54288 17.7179 9.876 18.5222C10.2091 19.3264 10.6974 20.0571 11.3129 20.6726C11.9284 21.2881 12.6591 21.7764 13.4634 22.1095C14.2676 22.4426 15.1295 22.6141 16 22.6141C16.8705 22.6141 17.7324 22.4426 18.5366 22.1095C19.3409 21.7764 20.0716 21.2881 20.6871 20.6726C21.3026 20.0571 21.7909 19.3264 22.124 18.5222C22.4571 17.7179 22.6286 16.856 22.6286 15.9855C22.6286 15.6068 22.9356 15.2998 23.3143 15.2998C23.693 15.2998 24 15.6068 24 15.9855C24 17.0361 23.7931 18.0764 23.391 19.047C22.989 20.0176 22.3997 20.8995 21.6569 21.6424C20.914 22.3852 20.0321 22.9745 19.0615 23.3766C18.0909 23.7786 17.0506 23.9855 16 23.9855C14.9494 23.9855 13.9091 23.7786 12.9385 23.3766C11.9679 22.9745 11.086 22.3852 10.3431 21.6424C9.60028 20.8995 9.011 20.0176 8.60896 19.047C8.20693 18.0764 8 17.0361 8 15.9855C8 15.6068 8.307 15.2998 8.68571 15.2998Z" fill="black"/>
<path d="M16.0017 16.8892C16.4296 16.8892 16.7223 16.5973 16.7223 16.1624V11.3258L16.6716 10.1311L17.9608 11.5571L19.2387 12.8014C19.3738 12.9336 19.5426 13.0217 19.7566 13.0217C20.1506 13.0217 20.4434 12.7353 20.4434 12.3334C20.4434 12.1517 20.3702 11.9755 20.2182 11.8269L16.5365 8.22051C16.3958 8.07735 16.1988 8.00027 16.0017 8.00027C15.8047 8.00027 15.602 8.07735 15.4669 8.22051L11.7796 11.8269C11.6277 11.9755 11.5545 12.1517 11.5545 12.3334C11.5545 12.7353 11.8472 13.0217 12.2413 13.0217C12.4552 13.0217 12.6297 12.9336 12.7592 12.8014L14.0427 11.5571L15.3262 10.1311L15.2812 11.3258V16.1624C15.2812 16.5973 15.5739 16.8892 16.0017 16.8892Z" fill="black"/>
</svg>
