<svg width="32" height="32" viewBox="0 0 24 24" fill="none" xmlns="http://www.w3.org/2000/svg">
<path d="M12 24C18.6274 24 24 18.6274 24 12C24 5.37258 18.6274 0 12 0C5.37258 0 0 5.37258 0 12C0 18.6274 5.37258 24 12 24Z" fill="white"/>
<path d="M6.75037 9.0462C7.16725 9.0462 7.50074 8.70123 7.50074 8.27618C7.50074 7.84497 7.16725 7.5 6.75037 7.5C6.3335 7.5 6 7.84497 6 8.27618C6 8.70123 6.3335 9.0462 6.75037 9.0462ZM9.38263 8.76899H17.5176C17.7856 8.76899 18 8.55339 18 8.27618C18 7.99281 17.7856 7.77721 17.5176 7.77721H9.38263C9.10868 7.77721 8.90025 7.99281 8.90025 8.27618C8.90025 8.55339 9.10868 8.76899 9.38263 8.76899ZM6.75037 12.7731C7.16725 12.7731 7.50074 12.4281 7.50074 11.9969C7.50074 11.5657 7.16725 11.2207 6.75037 11.2207C6.3335 11.2207 6 11.5657 6 11.9969C6 12.4281 6.3335 12.7731 6.75037 12.7731ZM9.38263 12.4959H17.5176C17.7856 12.4959 18 12.2741 18 11.9969C18 11.7197 17.7856 11.5041 17.5176 11.5041H9.38263C9.10868 11.5041 8.90025 11.7197 8.90025 11.9969C8.90025 12.2741 9.10868 12.4959 9.38263 12.4959ZM6.75037 16.5C7.16725 16.5 7.50074 16.1489 7.50074 15.7238C7.50074 15.2926 7.16725 14.9476 6.75037 14.9476C6.3335 14.9476 6 15.2926 6 15.7238C6 16.1489 6.3335 16.5 6.75037 16.5ZM9.38263 16.2166H17.5176C17.7856 16.2166 18 16.001 18 15.7238C18 15.4405 17.7856 15.2248 17.5176 15.2248H9.38263C9.10868 15.2248 8.90025 15.4405 8.90025 15.7238C8.90025 16.001 9.10868 16.2166 9.38263 16.2166Z" fill="black"/>
</svg>
