<svg width="32" height="32" viewBox="0 0 32 32" fill="none" xmlns="http://www.w3.org/2000/svg">
<path d="M16 32C24.8366 32 32 24.8366 32 16C32 7.16344 24.8366 0 16 0C7.16344 0 0 7.16344 0 16C0 24.8366 7.16344 32 16 32Z" fill="white"/>
<path d="M10 21.6642C10 23.1702 10.7383 23.9456 12.1186 23.9972C12.2164 24.0009 12.3123 23.9713 12.3939 23.9175L14 22.8589L16 24L18 22.8589L19.6061 23.9175C19.6877 23.9713 19.7836 24.0009 19.8814 23.9972C21.2617 23.9456 22 23.1702 22 21.6642V10.3433C22 8.79104 21.2652 8 19.7883 8H12.2117C10.7348 8 10 8.79104 10 10.3433V21.6642ZM11.1486 21.6418V10.3657C11.1486 9.6194 11.5268 9.20149 12.2687 9.20149H19.7313C20.4732 9.20149 20.8514 9.6194 20.8514 10.3657V21.6418C20.8514 22.3345 20.5256 22.7379 19.8854 22.7922C19.7854 22.8007 19.6869 22.7683 19.6039 22.7118L18 21.6194L16 22.7985L14 21.6194L12.3961 22.7118C12.3131 22.7683 12.2146 22.8007 12.1146 22.7922C11.4744 22.7379 11.1486 22.3345 11.1486 21.6418ZM13.3032 12.3284H18.7111C18.9679 12.3284 19.1534 12.1194 19.1534 11.8582C19.1534 11.6045 18.9679 11.4104 18.7111 11.4104H13.3032C13.0464 11.4104 12.8537 11.6045 12.8537 11.8582C12.8537 12.1194 13.0464 12.3284 13.3032 12.3284ZM13.3032 14.9328H18.7111C18.9679 14.9328 19.1534 14.7239 19.1534 14.4627C19.1534 14.209 18.9679 14.0149 18.7111 14.0149H13.3032C13.0464 14.0149 12.8537 14.209 12.8537 14.4627C12.8537 14.7239 13.0464 14.9328 13.3032 14.9328ZM13.3032 17.5373H15.8644C16.1142 17.5373 16.3068 17.3358 16.3068 17.0821C16.3068 16.8209 16.1142 16.6194 15.8644 16.6194H13.3032C13.0464 16.6194 12.8537 16.8209 12.8537 17.0821C12.8537 17.3358 13.0464 17.5373 13.3032 17.5373Z" fill="black"/>
</svg>
