<svg width="32" height="32" viewBox="0 0 32 32" fill="none" xmlns="http://www.w3.org/2000/svg">
<path d="M16 32C24.8366 32 32 24.8366 32 16C32 7.16344 24.8366 0 16 0C7.16344 0 0 7.16344 0 16C0 24.8366 7.16344 32 16 32Z" fill="white"/>
<circle cx="16" cy="16" r="7.3" stroke="black" stroke-width="1.4"/>
<path d="M15.6464 12.3536C15.8417 12.1583 16.1583 12.1583 16.3536 12.3536L19.6464 15.6464C19.8417 15.8417 19.8417 16.1583 19.6464 16.3536L16.3536 19.6464C16.1583 19.8417 15.8417 19.8417 15.6464 19.6464L12.3536 16.3536C12.1583 16.1583 12.1583 15.8417 12.3536 15.6464L15.6464 12.3536Z" fill="black"/>
</svg>
