<svg width="32" height="32" viewBox="0 0 32 32" fill="none" xmlns="http://www.w3.org/2000/svg">
<path d="M16 32C24.8366 32 32 24.8366 32 16C32 7.16344 24.8366 0 16 0C7.16344 0 0 7.16344 0 16C0 24.8366 7.16344 32 16 32Z" fill="white"/>
<path fill-rule="evenodd" clip-rule="evenodd" d="M17.3315 12.3444C17.3315 11.9886 17.62 11.7002 17.9757 11.7002H22.0554H22.0558C22.4116 11.7002 22.7 11.9886 22.7 12.3444C22.7 12.3521 22.6999 12.3598 22.6996 12.3675V16.4245C22.6996 16.7803 22.4112 17.0687 22.0554 17.0687C21.6996 17.0687 21.4112 16.7803 21.4112 16.4245V14.0696L17.0695 18.4052C16.7903 18.6844 16.3394 18.6844 16.0602 18.4052L13.7052 16.0502L9.91866 19.844C9.6395 20.1231 9.18854 20.1231 8.90938 19.844C8.63022 19.5648 8.63022 19.1138 8.90938 18.8347L13.2042 14.5327C13.4833 14.2536 13.9343 14.2536 14.2134 14.5327L16.5684 16.8877L20.4675 12.9886H17.9757C17.62 12.9886 17.3315 12.7002 17.3315 12.3444Z" fill="black"/>
</svg>
