<svg width="32" height="32" viewBox="0 0 32 32" fill="none" xmlns="http://www.w3.org/2000/svg">
<path d="M16 32C24.8366 32 32 24.8366 32 16C32 7.16344 24.8366 0 16 0C7.16344 0 0 7.16344 0 16C0 24.8366 7.16344 32 16 32Z" fill="white"/>
<path d="M11.4189 15.9965C11.4189 15.0548 10.6554 14.2998 9.69671 14.2998C8.76352 14.2998 8 15.0548 8 15.9965C8 16.9382 8.76352 17.6932 9.69671 17.6932C10.6554 17.6932 11.4189 16.9382 11.4189 15.9965ZM17.6967 15.9965C17.6967 15.0548 16.9417 14.2998 16 14.2998C15.0668 14.2998 14.3118 15.0548 14.3118 15.9965C14.3118 16.9382 15.0668 17.6932 16 17.6932C16.9417 17.6932 17.6967 16.9382 17.6967 15.9965ZM24 15.9965C24 15.0548 23.245 14.2998 22.3033 14.2998C21.3446 14.2998 20.5896 15.0548 20.5896 15.9965C20.5896 16.9382 21.3446 17.6932 22.3033 17.6932C23.245 17.6932 24 16.9382 24 15.9965Z" fill="black"/>
</svg>
