<svg width="12" height="12" viewBox="0 0 16 16" fill="none" xmlns="http://www.w3.org/2000/svg">
<path d="M8 16C12.3765 16 16 12.3686 16 8C16 3.62353 12.3686 0 7.99216 0C3.62353 0 0 3.62353 0 8C0 12.3686 3.63137 16 8 16ZM8 14.6667C4.29804 14.6667 1.34118 11.702 1.34118 8C1.34118 4.29804 4.2902 1.33333 7.99216 1.33333C11.6941 1.33333 14.6588 4.29804 14.6667 8C14.6745 11.702 11.702 14.6667 8 14.6667ZM5.01177 8.65882H7.33333V10.9961C7.33333 11.3882 7.6 11.6549 7.98431 11.6549C8.37647 11.6549 8.65098 11.3882 8.65098 10.9961V8.65882H10.9882C11.3804 8.65882 11.6471 8.39216 11.6471 8.00784C11.6471 7.61569 11.3804 7.34118 10.9882 7.34118H8.65098V5.01961C8.65098 4.61176 8.37647 4.3451 7.98431 4.3451C7.6 4.3451 7.33333 4.61961 7.33333 5.01961V7.34118H5.01177C4.60392 7.34118 4.33726 7.61569 4.33726 8.00784C4.33726 8.39216 4.61176 8.65882 5.01177 8.65882Z" fill="#90949E"/>
</svg>
