<svg width="32" height="32" viewBox="0 0 24 24" fill="none" xmlns="http://www.w3.org/2000/svg">
<path d="M12 24C18.6274 24 24 18.6274 24 12C24 5.37258 18.6274 0 12 0C5.37258 0 0 5.37258 0 12C0 18.6274 5.37258 24 12 24Z" fill="#3F4147"/>
<path d="M12 18C15.2824 18 18 15.2765 18 12C18 8.71765 15.2765 6 11.9941 6C8.71765 6 6 8.71765 6 12C6 15.2765 8.72353 18 12 18ZM12 17C9.22353 17 7.00588 14.7765 7.00588 12C7.00588 9.22353 9.21765 7 11.9941 7C14.7706 7 16.9941 9.22353 17 12C17.0059 14.7765 14.7765 17 12 17ZM11.8765 13.2176C12.1706 13.2176 12.3529 13.0353 12.3529 12.8V12.7294C12.3529 12.4 12.5412 12.1941 12.9529 11.9235C13.5235 11.5471 13.9294 11.2 13.9294 10.5C13.9294 9.51765 13.0588 8.99412 12.0588 8.99412C11.0471 8.99412 10.3824 9.47059 10.2235 10.0118C10.1941 10.1118 10.1706 10.2059 10.1706 10.3059C10.1706 10.5647 10.3824 10.7118 10.5765 10.7118C10.9118 10.7118 10.9647 10.5294 11.1529 10.3118C11.3471 9.98824 11.6294 9.79412 12.0235 9.79412C12.5588 9.79412 12.9059 10.0941 12.9059 10.5471C12.9059 10.9471 12.6588 11.1412 12.1471 11.4941C11.7235 11.7882 11.4059 12.1 11.4059 12.6765V12.7529C11.4059 13.0647 11.5765 13.2176 11.8765 13.2176ZM11.8647 14.9765C12.2059 14.9765 12.5 14.7059 12.5 14.3647C12.5 14.0176 12.2118 13.7529 11.8647 13.7529C11.5176 13.7529 11.2294 14.0235 11.2294 14.3647C11.2294 14.7 11.5235 14.9765 11.8647 14.9765Z" fill="#90949E"/>
</svg>
