<svg width="14" height="15" viewBox="0 0 14 15" fill="none" xmlns="http://www.w3.org/2000/svg">
<path d="M7 14.5C10.8294 14.5 14 11.3225 14 7.5C14 3.67059 10.8225 0.5 6.99314 0.5C3.17059 0.5 0 3.67059 0 7.5C0 11.3225 3.17745 14.5 7 14.5ZM7 13.3333C3.76078 13.3333 1.17353 10.7392 1.17353 7.5C1.17353 4.26078 3.75392 1.66667 6.99314 1.66667C10.2324 1.66667 12.8265 4.26078 12.8333 7.5C12.8402 10.7392 10.2392 13.3333 7 13.3333ZM6.85588 8.92059C7.19902 8.92059 7.41176 8.70784 7.41176 8.43333V8.35098C7.41176 7.96667 7.63137 7.72647 8.11176 7.41078C8.77745 6.97157 9.25098 6.56667 9.25098 5.75C9.25098 4.60392 8.23529 3.99314 7.06863 3.99314C5.88824 3.99314 5.11275 4.54902 4.92745 5.18039C4.89314 5.29706 4.86569 5.40686 4.86569 5.52353C4.86569 5.82549 5.11275 5.99706 5.33922 5.99706C5.73039 5.99706 5.79216 5.78431 6.01176 5.53039C6.23824 5.15294 6.56765 4.92647 7.02745 4.92647C7.65196 4.92647 8.05686 5.27647 8.05686 5.8049C8.05686 6.27157 7.76863 6.49804 7.17157 6.9098C6.67745 7.25294 6.30686 7.61667 6.30686 8.28922V8.37843C6.30686 8.74216 6.50588 8.92059 6.85588 8.92059ZM6.84216 10.9725C7.2402 10.9725 7.58333 10.6569 7.58333 10.2588C7.58333 9.85392 7.24706 9.5451 6.84216 9.5451C6.43725 9.5451 6.10098 9.86078 6.10098 10.2588C6.10098 10.65 6.44412 10.9725 6.84216 10.9725Z" fill="#646871"/>
</svg>
