<svg width="32" height="32" viewBox="0 0 32 32" fill="none" xmlns="http://www.w3.org/2000/svg">
<path d="M16 32C24.8366 32 32 24.8366 32 16C32 7.16344 24.8366 0 16 0C7.16344 0 0 7.16344 0 16C0 24.8366 7.16344 32 16 32Z" fill="#3F4147"/>
<path d="M16 24C20.3765 24 24 20.3686 24 16C24 11.6235 20.3686 8 15.9922 8C11.6235 8 8 11.6235 8 16C8 20.3686 11.6314 24 16 24ZM16 22.6667C12.298 22.6667 9.34118 19.702 9.34118 16C9.34118 12.298 12.2902 9.33333 15.9922 9.33333C19.6941 9.33333 22.6588 12.298 22.6667 16C22.6745 19.702 19.702 22.6667 16 22.6667ZM15.8353 17.6235C16.2275 17.6235 16.4706 17.3804 16.4706 17.0667V16.9725C16.4706 16.5333 16.7216 16.2588 17.2706 15.898C18.0314 15.3961 18.5725 14.9333 18.5725 14C18.5725 12.6902 17.4118 11.9922 16.0784 11.9922C14.7294 11.9922 13.8431 12.6275 13.6314 13.349C13.5922 13.4824 13.5608 13.6078 13.5608 13.7412C13.5608 14.0863 13.8431 14.2824 14.102 14.2824C14.549 14.2824 14.6196 14.0392 14.8706 13.749C15.1294 13.3176 15.5059 13.0588 16.0314 13.0588C16.7451 13.0588 17.2078 13.4588 17.2078 14.0627C17.2078 14.5961 16.8784 14.8549 16.1961 15.3255C15.6314 15.7176 15.2078 16.1333 15.2078 16.902V17.0039C15.2078 17.4196 15.4353 17.6235 15.8353 17.6235ZM15.8196 19.9686C16.2745 19.9686 16.6667 19.6078 16.6667 19.1529C16.6667 18.6902 16.2824 18.3373 15.8196 18.3373C15.3569 18.3373 14.9725 18.698 14.9725 19.1529C14.9725 19.6 15.3647 19.9686 15.8196 19.9686Z" fill="#90949E"/>
</svg>
