<svg width="17" height="16" viewBox="0 0 17 16" fill="none" xmlns="http://www.w3.org/2000/svg">
<path d="M8.5 16C12.8765 16 16.5 12.3686 16.5 8C16.5 3.62353 12.8686 0 8.49216 0C4.12353 0 0.5 3.62353 0.5 8C0.5 12.3686 4.13137 16 8.5 16ZM8.5 14.6667C4.79804 14.6667 1.84118 11.702 1.84118 8C1.84118 4.29804 4.7902 1.33333 8.49216 1.33333C12.1941 1.33333 15.1588 4.29804 15.1667 8C15.1745 11.702 12.202 14.6667 8.5 14.6667ZM5.51177 8.65882H7.83333V10.9961C7.83333 11.3882 8.1 11.6549 8.48431 11.6549C8.87647 11.6549 9.15098 11.3882 9.15098 10.9961V8.65882H11.4882C11.8804 8.65882 12.1471 8.39216 12.1471 8.00784C12.1471 7.61569 11.8804 7.34118 11.4882 7.34118H9.15098V5.01961C9.15098 4.61176 8.87647 4.3451 8.48431 4.3451C8.1 4.3451 7.83333 4.61961 7.83333 5.01961V7.34118H5.51177C5.10392 7.34118 4.83726 7.61569 4.83726 8.00784C4.83726 8.39216 5.11176 8.65882 5.51177 8.65882Z" fill="#90949E"/>
</svg>
