<svg width="16" height="17" viewBox="0 0 16 17" fill="none" xmlns="http://www.w3.org/2000/svg">
<path d="M8 16.5C12.3765 16.5 16 12.8686 16 8.5C16 4.12353 12.3686 0.5 7.99216 0.5C3.62353 0.5 0 4.12353 0 8.5C0 12.8686 3.63137 16.5 8 16.5ZM8 15.1667C4.29804 15.1667 1.34118 12.202 1.34118 8.5C1.34118 4.79804 4.2902 1.83333 7.99216 1.83333C11.6941 1.83333 14.6588 4.79804 14.6667 8.5C14.6745 12.202 11.702 15.1667 8 15.1667ZM5.01177 9.15882H7.33333V11.4961C7.33333 11.8882 7.6 12.1549 7.98431 12.1549C8.37647 12.1549 8.65098 11.8882 8.65098 11.4961V9.15882H10.9882C11.3804 9.15882 11.6471 8.89216 11.6471 8.50784C11.6471 8.11569 11.3804 7.84118 10.9882 7.84118H8.65098V5.51961C8.65098 5.11176 8.37647 4.8451 7.98431 4.8451C7.6 4.8451 7.33333 5.11961 7.33333 5.51961V7.84118H5.01177C4.60392 7.84118 4.33726 8.11569 4.33726 8.50784C4.33726 8.89216 4.61176 9.15882 5.01177 9.15882Z" fill="black"/>
</svg>
