<svg width="16" height="16" viewBox="0 0 16 16" fill="none" xmlns="http://www.w3.org/2000/svg">
<path d="M16 8C16 7.78562 15.9052 7.58839 15.7329 7.42546L10.0118 1.7401C9.83953 1.57718 9.65859 1.5 9.4518 1.5C9.02962 1.5 8.69359 1.80871 8.69359 2.23747C8.69359 2.44327 8.77114 2.64908 8.90899 2.7777L10.839 4.73285L13.7426 7.36544L11.6575 7.23681L0.758213 7.23681C0.310179 7.23681 9.53674e-07 7.55409 9.53674e-07 8C9.53674e-07 8.44591 0.310179 8.76319 0.758213 8.76319L11.6575 8.76319L13.734 8.63456L10.839 11.2672L8.90899 13.2223C8.77114 13.3595 8.69359 13.5567 8.69359 13.7625C8.69359 14.1913 9.02962 14.5 9.4518 14.5C9.65859 14.5 9.83953 14.4314 10.0291 14.2427L15.7329 8.57454C15.9052 8.41161 16 8.21438 16 8Z" fill="#4376FF"/>
</svg>
