<svg width="12" height="17" viewBox="0 0 12 17" fill="none" xmlns="http://www.w3.org/2000/svg">
<path d="M11.8463 15.8756C11.8463 15.4085 11.5073 15.0544 11.0402 15.0544H6.07561C6.27902 15.0318 6.47489 14.9414 6.62556 14.7832L11.5826 9.81863C11.7634 9.63783 11.8463 9.43442 11.8463 9.20842C11.8463 8.74134 11.4997 8.3948 11.0402 8.3948C10.8066 8.3948 10.5957 8.49274 10.445 8.64341L8.7274 10.3384L6.77623 12.5232L6.83649 10.8959V1.59207C6.83649 1.08732 6.49749 0.740784 6.00028 0.740784C5.50307 0.740784 5.16406 1.08732 5.16406 1.59207V10.8959L5.22433 12.5156L3.27316 10.3384L1.55552 8.64341C1.40485 8.49274 1.19392 8.3948 0.952846 8.3948C0.493304 8.3948 0.154297 8.74134 0.154297 9.20842C0.154297 9.43442 0.237165 9.63783 0.417969 9.81863L5.375 14.7832C5.52567 14.9414 5.72154 15.0318 5.92494 15.0544H0.975446C0.500837 15.0544 0.154297 15.4085 0.154297 15.8756C0.154297 16.3426 0.500837 16.6967 0.975446 16.6967H11.0402C11.5073 16.6967 11.8463 16.3426 11.8463 15.8756Z" fill="#4376FF"/>
</svg>
