<svg width="12" height="12" viewBox="0 0 12 12" fill="none" xmlns="http://www.w3.org/2000/svg">
<path d="M6 0C5.83921 0 5.69129 0.0710824 5.5691 0.200323L1.30508 4.49111C1.18288 4.62036 1.125 4.75606 1.125 4.91115C1.125 5.22779 1.35653 5.47981 1.6781 5.47981C1.83245 5.47981 1.98681 5.42165 2.08328 5.31826L3.54964 3.87076L5.52408 1.69305L5.42761 3.25687L5.42761 11.4313C5.42761 11.7674 5.66557 12 6 12C6.33443 12 6.57239 11.7674 6.57239 11.4313L6.57239 3.25687L6.47592 1.69952L8.45036 3.87076L9.91672 5.31826C10.0196 5.42165 10.1675 5.47981 10.3219 5.47981C10.6435 5.47981 10.875 5.22779 10.875 4.91115C10.875 4.75606 10.8235 4.62036 10.6821 4.47819L6.4309 0.200323C6.30871 0.0710824 6.16078 0 6 0Z" fill="#90949E"/>
</svg>
