<svg width="21" height="26" viewBox="0 0 21 26" fill="none" xmlns="http://www.w3.org/2000/svg">
<path d="M10.5 25.3077C10.8298 25.3077 11.1332 25.1619 11.3839 24.8968L20.1306 16.0951C20.3813 15.83 20.5 15.5517 20.5 15.2335C20.5 14.584 20.0251 14.0671 19.3654 14.0671C19.0488 14.0671 18.7322 14.1864 18.5343 14.3984L15.5264 17.3677L11.4763 21.8347L11.6741 18.6269L11.6741 1.85877C11.6741 1.16949 11.186 0.692294 10.5 0.692294C9.81399 0.692294 9.32586 1.16949 9.32586 1.85877L9.32586 18.6269L9.52375 21.8215L5.47362 17.3677L2.4657 14.3984C2.25462 14.1863 1.95119 14.0671 1.63457 14.0671C0.974935 14.0671 0.5 14.584 0.5 15.2335C0.5 15.5517 0.605541 15.83 0.895779 16.1216L9.6161 24.8968C9.86676 25.1619 10.1702 25.3077 10.5 25.3077Z" fill="black"/>
</svg>
