<svg width="16" height="14" viewBox="0 0 16 14" fill="none" xmlns="http://www.w3.org/2000/svg">
<path d="M0 7C0 7.21438 0.0947765 7.41161 0.267097 7.57454L5.98815 13.2599C6.16047 13.4228 6.34141 13.5 6.5482 13.5C6.97038 13.5 7.30641 13.1913 7.30641 12.7625C7.30641 12.5567 7.22886 12.3509 7.09101 12.2223L5.16101 10.2672L2.2574 7.63456L4.34249 7.76319H15.2418C15.6898 7.76319 16 7.44591 16 7C16 6.55409 15.6898 6.23681 15.2418 6.23681H4.34249L2.26602 6.36544L5.16101 3.73285L7.09101 1.7777C7.22886 1.6405 7.30641 1.44327 7.30641 1.23747C7.30641 0.808707 6.97038 0.5 6.5482 0.5C6.34141 0.5 6.16047 0.568602 5.97092 0.757256L0.267097 6.42546C0.0947765 6.58839 0 6.78562 0 7Z" fill="#B8BDC7"/>
</svg>
