<svg width="13" height="23" viewBox="0 0 13 23" fill="none" xmlns="http://www.w3.org/2000/svg">
    <path d="M0 11.0195C0 11.3369 0.114258 11.6162 0.355469 11.8574L10.4229 21.6963C10.6387 21.9248 10.918 22.0391 11.248 22.0391C11.9082 22.0391 12.416 21.5439 12.416 20.8838C12.416 20.5537 12.2764 20.2744 12.0732 20.0586L2.83105 11.0195L12.0732 1.98047C12.2764 1.76465 12.416 1.47266 12.416 1.15527C12.416 0.495117 11.9082 0 11.248 0C10.918 0 10.6387 0.114258 10.4229 0.330078L0.355469 10.1816C0.114258 10.4102 0 10.7021 0 11.0195Z" fill="#666666"/>
</svg>