<svg width="16" height="16" viewBox="0 0 16 16" fill="none" xmlns="http://www.w3.org/2000/svg">
<path d="M8 16C12.3765 16 16 12.3686 16 8C16 3.62353 12.3686 0 7.99216 0C3.62353 0 0 3.62353 0 8C0 12.3686 3.63137 16 8 16ZM7.99216 1.33333C11.6941 1.33333 14.6588 4.29804 14.6667 8C14.6745 9.63922 14.0863 11.1373 13.1137 12.2902L3.7098 2.88627C4.86275 1.91373 6.35294 1.33333 7.99216 1.33333ZM8 14.6667C4.29804 14.6667 1.34118 11.702 1.34118 8C1.34118 6.36863 1.91373 4.87843 2.87843 3.71765L12.2824 13.1216C11.1216 14.0863 9.63137 14.6667 8 14.6667Z" fill="#747F86"/>
</svg>
