<svg width="19" height="17" viewBox="0 0 19 17" fill="none" xmlns="http://www.w3.org/2000/svg">
<path d="M0.330933 12.2992C0.330933 13.9114 1.18222 14.7551 2.80945 14.7551H10.6669C10.3881 14.3031 10.1923 13.7908 10.1019 13.256H2.80191C2.17664 13.256 1.8301 12.932 1.8301 12.2691V5.33827C1.8301 4.67533 2.17664 4.35139 2.80191 4.35139H13.1906C13.8159 4.35139 14.1624 4.67533 14.1624 5.33827V7.35725C14.4261 7.31205 14.6747 7.28945 14.9233 7.28945C15.1719 7.28945 15.4205 7.31205 15.6691 7.34971V3.13096C15.6691 1.5188 14.8178 0.675049 13.1831 0.675049H2.80945C1.18222 0.675049 0.330933 1.51127 0.330933 3.13096V12.2992ZM6.54606 6.95044H6.99053C7.26174 6.95044 7.35214 6.86757 7.35214 6.6039V6.15942C7.35214 5.88822 7.26174 5.80535 6.99053 5.80535H6.54606C6.27485 5.80535 6.18445 5.88822 6.18445 6.15942V6.6039C6.18445 6.86757 6.27485 6.95044 6.54606 6.95044ZM9.0095 6.95044H9.45398C9.71765 6.95044 9.80805 6.86757 9.80805 6.6039V6.15942C9.80805 5.88822 9.71765 5.80535 9.45398 5.80535H9.0095C8.7383 5.80535 8.6479 5.88822 8.6479 6.15942V6.6039C8.6479 6.86757 8.7383 6.95044 9.0095 6.95044ZM11.4654 6.95044H11.9099C12.1811 6.95044 12.2715 6.86757 12.2715 6.6039V6.15942C12.2715 5.88822 12.1811 5.80535 11.9099 5.80535H11.4654C11.2017 5.80535 11.1113 5.88822 11.1113 6.15942V6.6039C11.1113 6.86757 11.2017 6.95044 11.4654 6.95044ZM4.09014 9.37622H4.52708C4.79829 9.37622 4.88869 9.29335 4.88869 9.02215V8.57767C4.88869 8.314 4.79829 8.23113 4.52708 8.23113H4.09014C3.81893 8.23113 3.72853 8.314 3.72853 8.57767V9.02215C3.72853 9.29335 3.81893 9.37622 4.09014 9.37622ZM6.54606 9.37622H6.99053C7.26174 9.37622 7.35214 9.29335 7.35214 9.02215V8.57767C7.35214 8.314 7.26174 8.23113 6.99053 8.23113H6.54606C6.27485 8.23113 6.18445 8.314 6.18445 8.57767V9.02215C6.18445 9.29335 6.27485 9.37622 6.54606 9.37622ZM9.0095 9.37622H9.45398C9.71765 9.37622 9.80805 9.29335 9.80805 9.02215V8.57767C9.80805 8.314 9.71765 8.23113 9.45398 8.23113H9.0095C8.7383 8.23113 8.6479 8.314 8.6479 8.57767V9.02215C8.6479 9.29335 8.7383 9.37622 9.0095 9.37622ZM14.9233 16.1262C17.0327 16.1262 18.8106 14.3634 18.8106 12.2389C18.8106 10.1145 17.0553 8.3592 14.9233 8.3592C12.7988 8.3592 11.0435 10.1145 11.0435 12.2389C11.0435 14.3709 12.7988 16.1262 14.9233 16.1262ZM12.4598 12.2389C12.4598 11.9301 12.6708 11.7267 12.9796 11.7267H14.4035V10.3028C14.4035 9.99397 14.6144 9.78303 14.9233 9.78303C15.2397 9.78303 15.4431 9.99397 15.4431 10.3028V11.7267H16.8669C17.1758 11.7267 17.3867 11.9301 17.3867 12.2389C17.3867 12.5554 17.1758 12.7588 16.8669 12.7588H15.4431V14.1901C15.4431 14.499 15.2397 14.7024 14.9233 14.7024C14.6144 14.7024 14.4035 14.499 14.4035 14.1901V12.7588H12.9796C12.6708 12.7588 12.4674 12.5554 12.4598 12.2389ZM4.09014 11.7945H4.52708C4.79829 11.7945 4.88869 11.7116 4.88869 11.4479V11.0035C4.88869 10.7322 4.79829 10.6494 4.52708 10.6494H4.09014C3.81893 10.6494 3.72853 10.7322 3.72853 11.0035V11.4479C3.72853 11.7116 3.81893 11.7945 4.09014 11.7945ZM6.54606 11.7945H6.99053C7.26174 11.7945 7.35214 11.7116 7.35214 11.4479V11.0035C7.35214 10.7322 7.26174 10.6494 6.99053 10.6494H6.54606C6.27485 10.6494 6.18445 10.7322 6.18445 11.0035V11.4479C6.18445 11.7116 6.27485 11.7945 6.54606 11.7945ZM9.0095 11.7945H9.45398C9.71765 11.7945 9.80805 11.7116 9.80805 11.4479V11.0035C9.80805 10.7322 9.71765 10.6494 9.45398 10.6494H9.0095C8.7383 10.6494 8.6479 10.7322 8.6479 11.0035V11.4479C8.6479 11.7116 8.7383 11.7945 9.0095 11.7945Z" fill="#4376FF"/>
</svg>
