<svg width="24" height="24" viewBox="0 0 24 24" fill="none" xmlns="http://www.w3.org/2000/svg">
<path d="M4.33105 16.2991C4.33105 17.9113 5.18234 18.755 6.80957 18.755H14.667C14.3883 18.303 14.1924 17.7907 14.102 17.2559H6.80204C6.17676 17.2559 5.83022 16.9319 5.83022 16.269V9.33817C5.83022 8.67522 6.17676 8.35128 6.80204 8.35128H17.1907C17.816 8.35128 18.1625 8.67522 18.1625 9.33817V11.3571C18.4262 11.3119 18.6748 11.2893 18.9234 11.2893C19.172 11.2893 19.4206 11.3119 19.6692 11.3496V7.13086C19.6692 5.51869 18.8179 4.67494 17.1832 4.67494H6.80957C5.18234 4.67494 4.33105 5.51116 4.33105 7.13086V16.2991ZM10.5462 10.9503H10.9907C11.2619 10.9503 11.3523 10.8675 11.3523 10.6038V10.1593C11.3523 9.88811 11.2619 9.80524 10.9907 9.80524H10.5462C10.275 9.80524 10.1846 9.88811 10.1846 10.1593V10.6038C10.1846 10.8675 10.275 10.9503 10.5462 10.9503ZM13.0096 10.9503H13.4541C13.7178 10.9503 13.8082 10.8675 13.8082 10.6038V10.1593C13.8082 9.88811 13.7178 9.80524 13.4541 9.80524H13.0096C12.7384 9.80524 12.648 9.88811 12.648 10.1593V10.6038C12.648 10.8675 12.7384 10.9503 13.0096 10.9503ZM15.4655 10.9503H15.91C16.1812 10.9503 16.2716 10.8675 16.2716 10.6038V10.1593C16.2716 9.88811 16.1812 9.80524 15.91 9.80524H15.4655C15.2019 9.80524 15.1115 9.88811 15.1115 10.1593V10.6038C15.1115 10.8675 15.2019 10.9503 15.4655 10.9503ZM8.09026 13.3761H8.5272C8.79841 13.3761 8.88881 13.2932 8.88881 13.022V12.5776C8.88881 12.3139 8.79841 12.231 8.5272 12.231H8.09026C7.81906 12.231 7.72866 12.3139 7.72866 12.5776V13.022C7.72866 13.2932 7.81906 13.3761 8.09026 13.3761ZM10.5462 13.3761H10.9907C11.2619 13.3761 11.3523 13.2932 11.3523 13.022V12.5776C11.3523 12.3139 11.2619 12.231 10.9907 12.231H10.5462C10.275 12.231 10.1846 12.3139 10.1846 12.5776V13.022C10.1846 13.2932 10.275 13.3761 10.5462 13.3761ZM13.0096 13.3761H13.4541C13.7178 13.3761 13.8082 13.2932 13.8082 13.022V12.5776C13.8082 12.3139 13.7178 12.231 13.4541 12.231H13.0096C12.7384 12.231 12.648 12.3139 12.648 12.5776V13.022C12.648 13.2932 12.7384 13.3761 13.0096 13.3761ZM18.9234 20.1261C21.0328 20.1261 22.8107 18.3633 22.8107 16.2388C22.8107 14.1144 21.0554 12.3591 18.9234 12.3591C16.799 12.3591 15.0437 14.1144 15.0437 16.2388C15.0437 18.3708 16.799 20.1261 18.9234 20.1261ZM16.46 16.2388C16.46 15.93 16.6709 15.7266 16.9798 15.7266H18.4036V14.3027C18.4036 13.9939 18.6145 13.7829 18.9234 13.7829C19.2398 13.7829 19.4432 13.9939 19.4432 14.3027V15.7266H20.867C21.1759 15.7266 21.3869 15.93 21.3869 16.2388C21.3869 16.5552 21.1759 16.7586 20.867 16.7586H19.4432V18.19C19.4432 18.4989 19.2398 18.7023 18.9234 18.7023C18.6145 18.7023 18.4036 18.4989 18.4036 18.19V16.7586H16.9798C16.6709 16.7586 16.4675 16.5552 16.46 16.2388ZM8.09026 15.7944H8.5272C8.79841 15.7944 8.88881 15.7115 8.88881 15.4478V15.0033C8.88881 14.7321 8.79841 14.6493 8.5272 14.6493H8.09026C7.81906 14.6493 7.72866 14.7321 7.72866 15.0033V15.4478C7.72866 15.7115 7.81906 15.7944 8.09026 15.7944ZM10.5462 15.7944H10.9907C11.2619 15.7944 11.3523 15.7115 11.3523 15.4478V15.0033C11.3523 14.7321 11.2619 14.6493 10.9907 14.6493H10.5462C10.275 14.6493 10.1846 14.7321 10.1846 15.0033V15.4478C10.1846 15.7115 10.275 15.7944 10.5462 15.7944ZM13.0096 15.7944H13.4541C13.7178 15.7944 13.8082 15.7115 13.8082 15.4478V15.0033C13.8082 14.7321 13.7178 14.6493 13.4541 14.6493H13.0096C12.7384 14.6493 12.648 14.7321 12.648 15.0033V15.4478C12.648 15.7115 12.7384 15.7944 13.0096 15.7944Z" fill="#4376FF"/>
</svg>
