<svg width="13" height="12" viewBox="0 0 13 12" fill="none" xmlns="http://www.w3.org/2000/svg">
<path d="M5.52344 11.9609C5.88574 11.9609 6.16602 11.8105 6.36426 11.5166L12.79 1.50879C12.9336 1.2832 12.9951 1.0918 12.9951 0.907227C12.9951 0.421875 12.6533 0.0869141 12.1611 0.0869141C11.8262 0.0869141 11.6211 0.209961 11.416 0.53125L5.48926 9.93066L2.44727 6.02734C2.24219 5.76074 2.03027 5.65137 1.72949 5.65137C1.2373 5.65137 0.881836 6 0.881836 6.47852C0.881836 6.69043 0.957031 6.89551 1.13477 7.10742L4.67578 11.5234C4.91504 11.8242 5.16797 11.9609 5.52344 11.9609Z" fill="#4376FF"/>
</svg>
