<svg width="12" height="11" viewBox="0 0 12 11" fill="none" xmlns="http://www.w3.org/2000/svg">
<path d="M4.831 10.3158C5.14788 10.3158 5.39302 10.1962 5.56641 9.96219L11.1866 1.99679C11.3122 1.81725 11.366 1.6649 11.366 1.518C11.366 1.1317 11.067 0.865097 10.6366 0.865097C10.3436 0.865097 10.1642 0.963032 9.98485 1.21875L4.8011 8.69992L2.14047 5.59319C1.9611 5.381 1.77575 5.29395 1.51268 5.29395C1.08219 5.29395 0.771286 5.57143 0.771286 5.95229C0.771286 6.12096 0.837055 6.28418 0.992507 6.45285L4.08961 9.96764C4.29887 10.207 4.52009 10.3158 4.831 10.3158Z" fill="#183AE9"/>
</svg>