<svg width="18" height="18" viewBox="0 0 18 18" fill="none" xmlns="http://www.w3.org/2000/svg">
<path d="M9 18C13.9235 18 18 13.9147 18 9C18 4.07647 13.9147 0 8.99118 0C4.07647 0 0 4.07647 0 9C0 13.9147 4.08529 18 9 18ZM9 16.5C4.83529 16.5 1.50882 13.1647 1.50882 9C1.50882 4.83529 4.82647 1.5 8.99118 1.5C13.1559 1.5 16.4912 4.83529 16.5 9C16.5088 13.1647 13.1647 16.5 9 16.5ZM8.02941 13.1912C8.32059 13.1912 8.56765 13.05 8.74412 12.7765L12.7765 6.43235C12.8735 6.26471 12.9882 6.06177 12.9882 5.86765C12.9882 5.47941 12.6353 5.22353 12.2647 5.22353C12.0441 5.22353 11.8235 5.35588 11.6559 5.62059L7.99412 11.4882L6.25588 9.24706C6.04412 8.96471 5.85 8.88529 5.60294 8.88529C5.22353 8.88529 4.92353 9.19412 4.92353 9.59118C4.92353 9.77647 5.00294 9.97059 5.12647 10.1382L7.27941 12.7765C7.5 13.0676 7.73824 13.1912 8.02941 13.1912Z" fill="#30E696"/>
</svg>
