<svg width="16" height="16" viewBox="0 0 16 16" fill="none" xmlns="http://www.w3.org/2000/svg">
<path d="M6.10156 15.6641C6.56738 15.6641 6.92773 15.4707 7.18262 15.0928L15.4443 2.22559C15.6289 1.93555 15.708 1.68945 15.708 1.45215C15.708 0.828125 15.2686 0.397461 14.6357 0.397461C14.2051 0.397461 13.9414 0.555664 13.6777 0.96875L6.05762 13.0537L2.14648 8.03516C1.88281 7.69238 1.61035 7.55176 1.22363 7.55176C0.59082 7.55176 0.133789 8 0.133789 8.61523C0.133789 8.8877 0.230469 9.15137 0.458984 9.42383L5.01172 15.1016C5.31934 15.4883 5.64453 15.6641 6.10156 15.6641Z" fill="white"/>
</svg>