<svg width="12" height="12" viewBox="0 0 12 12" fill="none" xmlns="http://www.w3.org/2000/svg">
<path d="M4.73438 11.1094C5.04492 11.1094 5.28516 10.9805 5.45508 10.7285L10.9629 2.15039C11.0859 1.95703 11.1387 1.79297 11.1387 1.63477C11.1387 1.21875 10.8457 0.931641 10.4238 0.931641C10.1367 0.931641 9.96094 1.03711 9.78516 1.3125L4.70508 9.36914L2.09766 6.02344C1.92188 5.79492 1.74023 5.70117 1.48242 5.70117C1.06055 5.70117 0.755859 6 0.755859 6.41016C0.755859 6.5918 0.820312 6.76758 0.972656 6.94922L4.00781 10.7344C4.21289 10.9922 4.42969 11.1094 4.73438 11.1094Z" fill="white"/>
</svg>
