<svg width="9" height="16" viewBox="0 0 9 16" fill="none" xmlns="http://www.w3.org/2000/svg">
    <path d="M9 8C9 8.23041 8.91718 8.43318 8.74233 8.60829L1.44479 15.7512C1.28834 15.9171 1.08589 16 0.846626 16C0.368098 16 2.09548e-07 15.6406 2.09548e-07 15.1613C2.09548e-07 14.9217 0.101227 14.7189 0.248466 14.5622L6.94785 8L0.248466 1.43779C0.101227 1.28111 2.09548e-07 1.06912 2.09548e-07 0.83871C2.09548e-07 0.359447 0.368098 0 0.846626 0C1.08589 0 1.28834 0.0829493 1.44479 0.239631L8.74233 7.3917C8.91718 7.5576 9 7.76959 9 8Z" fill="#90949E"/>
</svg>