<svg width="8" height="16" viewBox="0 0 8 16" fill="none" xmlns="http://www.w3.org/2000/svg">
<path d="M7.75 7.99568C7.75 7.77979 7.67331 7.5639 7.52761 7.4171L1.44632 0.73316C1.31595 0.586356 1.14724 0.5 0.955521 0.5C0.556748 0.5 0.249999 0.836787 0.249999 1.28584C0.249999 1.50173 0.326687 1.70035 0.449386 1.84715L6.03221 7.99568L0.449386 14.1528C0.326687 14.291 0.25 14.4896 0.25 14.7142C0.25 15.1632 0.556748 15.5 0.955521 15.5C1.14724 15.5 1.31595 15.4136 1.45399 15.2668L7.52761 8.5829C7.67331 8.41883 7.75 8.22021 7.75 7.99568Z" fill="#3F4147"/>
</svg>
