<svg width="12" height="6" viewBox="0 0 12 6" fill="none" xmlns="http://www.w3.org/2000/svg">
<path d="M6.00345 6C6.17617 6 6.34888 5.93865 6.46632 5.82209L11.8135 0.957055C11.9309 0.852761 12 0.717791 12 0.564417C12 0.245399 11.7306 0 11.3713 0C11.1986 0 11.0397 0.0613497 10.9223 0.159509L6.00345 4.62577L1.07772 0.159509C0.967185 0.0613497 0.80829 0 0.62867 0C0.26943 0 0 0.245399 0 0.564417C0 0.717791 0.0690846 0.852761 0.186529 0.96319L5.53368 5.82209C5.66494 5.93865 5.82383 6 6.00345 6Z" fill="#747F86"/>
</svg>
