<svg width="20" height="20" viewBox="0 0 20 20" fill="none" xmlns="http://www.w3.org/2000/svg">
<path d="M6.25 10.0043C6.25 10.2202 6.32669 10.4361 6.47239 10.5829L12.5537 17.2668C12.684 17.4136 12.8528 17.5 13.0445 17.5C13.4433 17.5 13.75 17.1632 13.75 16.7142C13.75 16.4983 13.6733 16.2997 13.5506 16.1528L7.96779 10.0043L13.5506 3.84715C13.6733 3.70898 13.75 3.51036 13.75 3.28584C13.75 2.83679 13.4433 2.5 13.0445 2.5C12.8528 2.5 12.684 2.58636 12.546 2.73316L6.47239 9.4171C6.32669 9.58117 6.25 9.77979 6.25 10.0043Z" fill="#90949E"/>
</svg>
