<svg width="16" height="9" viewBox="0 0 16 9" fill="none" xmlns="http://www.w3.org/2000/svg">
  <path d="M0.478516 7.22949L7.28125 0.268555C7.43945 0.101562 7.65039 0.00488281 7.87891 0.00488281C8.09863 0.00488281 8.31836 0.101562 8.46777 0.268555L15.2705 7.22949C15.4199 7.37012 15.5078 7.57227 15.5078 7.80078C15.5078 8.25781 15.165 8.60059 14.708 8.60059C14.4883 8.60059 14.2773 8.52148 14.1367 8.37207L7.87891 1.97363L1.6123 8.37207C1.48047 8.52148 1.26953 8.60059 1.04102 8.60059C0.583984 8.60059 0.241211 8.25781 0.241211 7.80078C0.241211 7.57227 0.329102 7.37012 0.478516 7.22949Z" fill="white"/>
</svg>
