<svg width="7" height="11" viewBox="0 0 7 11" fill="none" xmlns="http://www.w3.org/2000/svg">
<path d="M6.26758 5.76953C6.26172 5.56445 6.18555 5.38867 6.02734 5.23047L1.46875 0.771484C1.33398 0.642578 1.17578 0.572266 0.982422 0.572266C0.589844 0.572266 0.285156 0.876953 0.285156 1.26953C0.285156 1.45703 0.361328 1.63281 0.496094 1.76758L4.59766 5.76953L0.496094 9.77148C0.361328 9.90625 0.285156 10.0762 0.285156 10.2695C0.285156 10.6621 0.589844 10.9668 0.982422 10.9668C1.16992 10.9668 1.33398 10.8965 1.46875 10.7676L6.02734 6.30273C6.19141 6.15039 6.26758 5.97461 6.26758 5.76953Z" fill="#4376FF"/>
</svg>
