<svg width="10" height="16" viewBox="0 0 10 16" fill="none" xmlns="http://www.w3.org/2000/svg">
<path d="M9.42285 7.6543C9.42285 7.43457 9.33496 7.23242 9.16797 7.07422L2.20703 0.253906C2.04883 0.104492 1.85547 0.0253906 1.62695 0.0253906C1.17871 0.0253906 0.827148 0.368164 0.827148 0.825195C0.827148 1.04492 0.915039 1.24707 1.05566 1.39648L7.4541 7.6543L1.05566 13.9121C0.915039 14.0615 0.827148 14.2549 0.827148 14.4834C0.827148 14.9404 1.17871 15.2832 1.62695 15.2832C1.85547 15.2832 2.04883 15.2041 2.20703 15.0459L9.16797 8.23438C9.33496 8.06738 9.42285 7.87402 9.42285 7.6543Z" fill="white"/>
</svg>
