<svg className="fill-current" width="8px" height="14px" viewBox="0 0 8 14" version="1.1" xmlns="http://www.w3.org/2000/svg">
    <g id="Page-1" stroke="none" strokeWidth="1" fillRule="evenodd">
        <g id="chev" transform="translate(4.386718, 6.711896) scale(-1, 1) translate(-4.386718, -6.711896) translate(0.805176, 0.354492)" fill-rule="nonzero">
            <path d="M7.163084,6.357418 C7.163084,6.174318 7.089844,6.005858 6.950684,5.874028 L1.149904,0.19043 C1.018064,0.065918 0.856934,3.88578059e-16 0.666504,3.88578059e-16 C0.292964,3.88578059e-16 -3.33066907e-16,0.285645 -3.33066907e-16,0.666508 C-3.33066907e-16,0.849608 0.073242,1.018068 0.190429,1.142578 L5.522464,6.357418 L0.190429,11.572308 C0.073242,11.696808 -3.33066907e-16,11.857908 -3.33066907e-16,12.048308 C-3.33066907e-16,12.429208 0.292964,12.714808 0.666504,12.714808 C0.856934,12.714808 1.018064,12.648908 1.149904,12.517108 L6.950684,6.840818 C7.089844,6.701658 7.163084,6.540528 7.163084,6.357418 Z" id="Path"></path>
        </g>
    </g>
</svg>