<svg width="16" height="10" viewBox="0 0 16 10" fill="none" xmlns="http://www.w3.org/2000/svg">
<path d="M7.87891 9.33887C8.09863 9.33887 8.31836 9.25098 8.46777 9.08398L15.2705 2.11426C15.4199 1.96484 15.5078 1.77148 15.5078 1.55176C15.5078 1.09473 15.165 0.743164 14.708 0.743164C14.4883 0.743164 14.2861 0.831055 14.1367 0.97168L7.87891 7.37012L1.6123 0.97168C1.47168 0.831055 1.26953 0.743164 1.04102 0.743164C0.583984 0.743164 0.241211 1.09473 0.241211 1.55176C0.241211 1.77148 0.329102 1.96484 0.478516 2.12305L7.28125 9.08398C7.44824 9.25098 7.65039 9.33887 7.87891 9.33887Z" fill="white"/>
</svg>
