<svg width="16" height="16" viewBox="0 0 16 16" fill="none" xmlns="http://www.w3.org/2000/svg">
<path fill-rule="evenodd" clip-rule="evenodd" d="M2.33473 0.334735C1.88842 -0.111578 1.1648 -0.111578 0.718491 0.334735C0.272178 0.781049 0.272178 1.50467 0.718491 1.95098L6.18347 7.41596L0.334735 13.2647C-0.111578 13.711 -0.111578 14.4346 0.334735 14.8809C0.781049 15.3273 1.50467 15.3273 1.95098 14.8809L7.79972 9.0322L13.6484 14.8809C14.0948 15.3272 14.8184 15.3272 15.2647 14.8809C15.711 14.4346 15.711 13.711 15.2647 13.2647L9.41596 7.41596L14.8809 1.95099C15.3272 1.50467 15.3272 0.781056 14.8809 0.334743C14.4346 -0.111571 13.711 -0.11157 13.2647 0.334743L7.79972 5.79972L2.33473 0.334735Z" fill="black"/>
</svg>
