<svg width="20" height="20" viewBox="0 0 20 20" fill="none" xmlns="http://www.w3.org/2000/svg">
<path d="M9.42736 9.65717L6.73664 6.97611C6.73657 6.97604 6.7365 6.97597 6.73643 6.97591C6.70689 6.94622 6.68991 6.90366 6.68991 6.86363C6.68991 6.78154 6.75588 6.71591 6.83723 6.71591C6.87299 6.71591 6.89067 6.72181 6.89953 6.72559C6.90891 6.72958 6.925 6.73835 6.94916 6.76253L6.94991 6.76328L9.6414 9.44509L9.99358 9.796L10.3465 9.44583L13.0493 6.76402L13.0572 6.75623L13.0647 6.74809C13.0923 6.71811 13.1078 6.71131 13.1107 6.71005C13.1135 6.70881 13.1235 6.70455 13.1514 6.70455C13.2498 6.70455 13.3101 6.77579 13.3101 6.85227C13.3101 6.88373 13.308 6.90874 13.252 6.96478L13.2513 6.9655L10.5711 9.65866L10.2194 10.0121L10.5719 10.3648L13.252 13.0466C13.2849 13.0796 13.2987 13.1122 13.2987 13.1591C13.2987 13.2469 13.227 13.3182 13.1401 13.3182C13.1172 13.3182 13.0755 13.3112 13.0082 13.2516L10.3487 10.5791L9.99432 10.223L9.63991 10.5791L6.97186 13.2602C6.97175 13.2603 6.97165 13.2604 6.97154 13.2605C6.92622 13.3058 6.89331 13.3182 6.83723 13.3182C6.76723 13.3182 6.68991 13.2525 6.68991 13.1591C6.68991 13.1191 6.70688 13.0765 6.73644 13.0468C6.7365 13.0468 6.73657 13.0467 6.73664 13.0466L9.42736 10.3655L9.78282 10.0114L9.42736 9.65717ZM9.99432 19.5C15.1986 19.5 19.5 15.2085 19.5 10C19.5 4.79112 15.1869 0.5 9.99432 0.5C4.78917 0.5 0.5 4.79234 0.5 10C0.5 15.2081 4.80093 19.5 9.99432 19.5Z" fill="#8F97AB" stroke="#121212"/>
</svg>
