<svg width="14" height="14" viewBox="0 0 14 14" fill="none" xmlns="http://www.w3.org/2000/svg">
<path d="M13.9997 7.14767C14.0002 7.00243 13.9698 6.85856 13.9104 6.72442C13.851 6.59028 13.7638 6.46855 13.6537 6.3663L11.2954 4.15577C11.179 4.04645 11.0406 3.95981 10.8882 3.90086C10.7358 3.8419 10.5725 3.81179 10.4077 3.81226H9.7526C9.60578 3.81226 9.46497 3.86693 9.36115 3.96424C9.25734 4.06156 9.19901 4.19354 9.19901 4.33116C9.19901 4.46879 9.25734 4.60077 9.36115 4.69808C9.46497 4.7954 9.60578 4.85007 9.7526 4.85007H10.0824V7.10263C10.0824 7.24025 10.1407 7.37223 10.2446 7.46955C10.3484 7.56686 10.4892 7.62153 10.636 7.62153H12.8872L12.8208 12.9626L7.2185 12.8946V11.7738C7.2185 11.6362 7.16018 11.5042 7.05636 11.4069C6.95254 11.3096 6.81173 11.2549 6.66491 11.2549C6.51809 11.2549 6.37729 11.3096 6.27347 11.4069C6.16965 11.5042 6.11133 11.6362 6.11133 11.7738V12.8946C6.11174 13.1877 6.23613 13.4686 6.45721 13.6758C6.6783 13.8831 6.97804 13.9996 7.29069 14H12.82C13.1328 13.9997 13.4327 13.8831 13.6539 13.6758C13.875 13.4685 13.9994 13.1874 13.9997 12.8942V7.14767ZM11.1896 6.58372V5.53149L12.2982 6.58372H11.1896Z" fill="#353535"/>
<path d="M0 1.03781V9.28421C0 9.55945 0.116648 9.82342 0.324283 10.018C0.531918 10.2127 0.813532 10.322 1.10717 10.322H7.21876C7.5124 10.322 7.79402 10.2127 8.00165 10.018C8.20929 9.82342 8.32594 9.55945 8.32594 9.28421V3.35772C8.32593 3.22141 8.29728 3.08643 8.24162 2.9605C8.18596 2.83457 8.10438 2.72015 8.00154 2.62378L5.52634 0.30387C5.31869 0.10928 5.03708 -2.37884e-05 4.74346 3.88335e-09L1.10717 3.88335e-09C0.813532 3.88335e-09 0.531918 0.10934 0.324283 0.303966C0.116648 0.498593 0 0.762563 0 1.03781H0ZM5.29716 1.55671L6.66518 2.83892H5.29716V1.55671ZM4.74357 1.03781H4.18998V3.35782C4.18998 3.49544 4.24831 3.62743 4.35212 3.72474C4.45594 3.82205 4.59675 3.87672 4.74357 3.87672H7.21876V9.28421H1.10717V1.03781H4.74357Z" fill="#353535"/>
</svg>
