<svg width="16" height="16" viewBox="0 0 16 16" fill="none" xmlns="http://www.w3.org/2000/svg">
<path d="M7.90569 11.1011L8.90911 10.0848C7.91324 10.0095 7.26441 9.70841 6.77402 9.21908C5.45373 7.90167 5.46128 6.0347 6.76647 4.73234L9.22598 2.27819C10.5463 0.968301 12.4022 0.960773 13.7225 2.27819C15.0428 3.5956 15.0277 5.45504 13.7225 6.7574L12.2438 8.2329C12.455 8.7147 12.5003 9.27178 12.4248 9.7611L14.6429 7.55537C16.4461 5.74863 16.4612 3.19661 14.6354 1.36729C12.8021 -0.462035 10.2369 -0.446978 8.42626 1.35976L5.85359 3.93437C4.04291 5.74111 4.02782 8.30065 5.86113 10.1224C6.33644 10.5967 6.94 10.9355 7.90569 11.1011ZM8.09431 4.89796L7.09089 5.91425C8.08676 5.99706 8.73559 6.29066 9.22598 6.77998C10.5463 8.0974 10.5387 9.96436 9.23353 11.2667L6.76647 13.7209C5.45373 15.0308 3.59778 15.0383 2.2775 13.7284C0.95721 12.4035 0.964754 10.5516 2.2775 9.24166L3.75622 7.76616C3.54497 7.29189 3.49216 6.72728 3.57515 6.23796L1.35707 8.44369C-0.446067 10.2504 -0.461156 12.81 1.36461 14.6318C3.19793 16.4611 5.76306 16.446 7.56619 14.6468L10.1464 12.0647C11.9571 10.258 11.9722 7.69841 10.1389 5.87661C9.66356 5.40234 9.06 5.06358 8.09431 4.89796Z" fill="#646871"/>
</svg>
