<svg width="20" height="20" viewBox="0 0 20 20" fill="none" xmlns="http://www.w3.org/2000/svg">
    <circle cx="10" cy="10" r="10" fill="#F5AC37"/>
    <path d="M10.6433 10.6364H14.1309C14.2052 10.6364 14.2403 10.6364 14.2457 10.5409C14.2742 10.1933 14.2742 9.84366 14.2457 9.49563C14.2457 9.42805 14.2114 9.40013 14.1366 9.40013H7.1958C7.10989 9.40013 7.08676 9.42805 7.08676 9.50696V10.5073C7.08676 10.6364 7.08676 10.6364 7.2243 10.6364H10.6433V10.6364ZM13.8562 8.231C13.8661 8.2055 13.8661 8.17758 13.8562 8.15249C13.798 8.02825 13.729 7.90968 13.6489 7.79839C13.5283 7.60819 13.3862 7.43296 13.2243 7.27554C13.1479 7.18044 13.0595 7.09505 12.9604 7.02261C12.4639 6.60862 11.8737 6.31563 11.2393 6.16832C10.9192 6.09791 10.5921 6.06432 10.2641 6.06715H7.18382C7.09791 6.06715 7.08635 6.10074 7.08635 6.17399V8.16908C7.08635 8.25325 7.08635 8.27592 7.19538 8.27592H13.8149C13.8149 8.27592 13.8723 8.26458 13.8839 8.231H13.8558H13.8562ZM13.8562 11.8056C13.7587 11.795 13.6604 11.795 13.563 11.8056H7.20158C7.11567 11.8056 7.08676 11.8056 7.08676 11.9181V13.8686C7.08676 13.9585 7.08676 13.9811 7.20158 13.9811H10.1386C10.279 13.9917 10.4194 13.982 10.557 13.9532C10.9832 13.9233 11.4024 13.8326 11.8022 13.6833C11.9476 13.6339 12.088 13.5696 12.2206 13.4923H12.2607C12.9492 13.1414 13.5084 12.5902 13.8612 11.9136C13.8612 11.9136 13.9012 11.8286 13.8562 11.8064V11.8056ZM5.93401 14.9925V14.9589V13.6493V13.2054V11.8845C5.93401 11.8112 5.93401 11.8003 5.84232 11.8003H4.59747C4.5285 11.8003 4.5 11.8003 4.5 11.7105V10.6425H5.83076C5.9051 10.6425 5.93401 10.6425 5.93401 10.547V9.49037C5.93401 9.42279 5.93401 9.4062 5.84232 9.4062H4.59747C4.5285 9.4062 4.5 9.4062 4.5 9.31636V8.32731C4.5 8.26539 4.5 8.2488 4.59169 8.2488H5.82498C5.91088 8.2488 5.93401 8.2488 5.93401 8.14197V5.1125C5.93401 5.02266 5.93401 5 6.04883 5H10.3509C10.6631 5.01214 10.9733 5.04573 11.2802 5.10117C11.9125 5.2157 12.5201 5.43706 13.0756 5.75312C13.444 5.96558 13.7831 6.22215 14.085 6.51756C14.3122 6.74864 14.517 6.99873 14.6988 7.26502C14.8793 7.53494 15.0292 7.82348 15.1469 8.12497C15.1613 8.20348 15.2382 8.25649 15.3183 8.24314H16.3451C16.4768 8.24314 16.4768 8.24314 16.4826 8.36697V9.28884C16.4826 9.37868 16.4483 9.40134 16.3562 9.40134H15.5645C15.4843 9.40134 15.4612 9.40134 15.467 9.50251C15.4984 9.84487 15.4984 10.1885 15.467 10.5308C15.467 10.6263 15.467 10.6376 15.5764 10.6376H16.4822C16.5223 10.6882 16.4822 10.7388 16.4822 10.7898C16.488 10.855 16.488 10.9209 16.4822 10.9861V11.6664C16.4822 11.7619 16.4537 11.7902 16.3674 11.7902H15.2832C15.2076 11.776 15.1341 11.8234 15.1167 11.897C14.8586 12.5546 14.4456 13.1443 13.912 13.6169C13.717 13.7889 13.5122 13.9508 13.2982 14.1001C13.0686 14.2296 12.8451 14.3644 12.6097 14.4712C12.1764 14.6622 11.7221 14.8031 11.2558 14.8925C10.813 14.9702 10.3641 15.0054 9.91349 14.9993H5.93236V14.9937L5.93401 14.9925Z" fill="#FEFEFD"/>
</svg>
