<svg width="24" height="24" viewBox="0 0 24 24" fill="none" xmlns="http://www.w3.org/2000/svg">
<path fill-rule="evenodd" clip-rule="evenodd" d="M3 7.5C3 6.25736 4.00736 5.25 5.25 5.25H18.75C19.9926 5.25 21 6.25736 21 7.5V8.625H12C10.136 8.625 8.625 10.136 8.625 12C8.625 13.864 10.136 15.375 12 15.375H21V16.5C21 17.7426 19.9926 18.75 18.75 18.75H5.25C4.00736 18.75 3 17.7426 3 16.5V7.5ZM12 13.6875C12.932 13.6875 13.6875 12.932 13.6875 12C13.6875 11.068 12.932 10.3125 12 10.3125C11.068 10.3125 10.3125 11.068 10.3125 12C10.3125 12.932 11.068 13.6875 12 13.6875Z" fill="#90949E"/>
</svg>
