<svg width="16" height="19" viewBox="0 0 16 19" fill="none" xmlns="http://www.w3.org/2000/svg">
    <path d="M7.10156 5.49317C7.10156 5.09766 7.3916 4.84278 7.7959 4.84278C8.20899 4.84278 8.49902 5.09766 8.49902 5.49317V0.685548C8.49902 0.316408 8.17383 0 7.7959 0C7.41797 0 7.10156 0.316408 7.10156 0.685548V5.49317ZM8.52539 4.93067V10.0722L8.47266 11.3203L9.01758 10.7402L10.3536 9.32523C10.4766 9.17583 10.67 9.10543 10.8457 9.10543C11.2237 9.10543 11.5137 9.37793 11.5137 9.74703C11.5137 9.94043 11.4346 10.0898 11.294 10.2304L8.32324 13.0957C8.14746 13.2715 7.98926 13.333 7.80469 13.333C7.61133 13.333 7.45313 13.2715 7.27735 13.0957L4.30664 10.2304C4.16602 10.0898 4.08692 9.94043 4.08692 9.74703C4.08692 9.37793 4.36817 9.10543 4.7461 9.10543C4.92188 9.10543 5.12402 9.17583 5.24707 9.32523L6.57422 10.7402L7.13672 11.3291L7.0752 10.0722V4.93067H2.75977C0.922849 4.93067 0 5.84473 0 7.65528V16.2509C0 18.0615 0.922849 18.9756 2.75977 18.9756H12.8409C14.6778 18.9756 15.6006 18.0615 15.6006 16.2509V7.65528C15.6006 5.84473 14.6778 4.93067 12.8409 4.93067H8.52539Z" fill="#8F97AB"/>
</svg>