<svg width="56" height="56" viewBox="0 0 56 56" fill="none" xmlns="http://www.w3.org/2000/svg">
<circle cx="24" cy="28" r="17.1" stroke="white" stroke-width="1.8"/>
<mask id="path-2-inside-1_5755_73722" fill="white">
<path d="M34 28C34 37.9411 31.5 46 24 46C16.5 46 14 37.9411 14 28C14 18.0589 16.5 10 24 10C31.5 10 34 18.0589 34 28Z"/>
</mask>
<path d="M32.2 28C32.2 32.8738 31.5787 37.0535 30.1896 39.9494C29.5053 41.3758 28.6668 42.4237 27.6878 43.1154C26.7259 43.7951 25.5325 44.2 24 44.2V47.8C26.2175 47.8 28.1491 47.1975 29.7653 46.0555C31.3644 44.9256 32.5572 43.3374 33.4354 41.5064C35.1713 37.8876 35.8 33.0674 35.8 28H32.2ZM24 44.2C22.4675 44.2 21.2741 43.7951 20.3122 43.1154C19.3332 42.4237 18.4947 41.3758 17.8104 39.9494C16.4213 37.0535 15.8 32.8738 15.8 28H12.2C12.2 33.0674 12.8287 37.8876 14.5646 41.5064C15.4428 43.3374 16.6356 44.9256 18.2347 46.0555C19.8509 47.1975 21.7825 47.8 24 47.8V44.2ZM15.8 28C15.8 23.1262 16.4213 18.9465 17.8104 16.0506C18.4947 14.6242 19.3332 13.5763 20.3122 12.8846C21.2741 12.2049 22.4675 11.8 24 11.8V8.2C21.7825 8.2 19.8509 8.8025 18.2347 9.94448C16.6356 11.0744 15.4428 12.6626 14.5646 14.4936C12.8287 18.1124 12.2 22.9326 12.2 28H15.8ZM24 11.8C25.5325 11.8 26.7259 12.2049 27.6878 12.8846C28.6668 13.5763 29.5053 14.6242 30.1896 16.0506C31.5787 18.9465 32.2 23.1262 32.2 28H35.8C35.8 22.9326 35.1713 18.1124 33.4354 14.4936C32.5572 12.6626 31.3644 11.0744 29.7653 9.94448C28.1491 8.8025 26.2175 8.2 24 8.2V11.8Z" fill="white" mask="url(#path-2-inside-1_5755_73722)"/>
<mask id="path-4-inside-2_5755_73722" fill="white">
<path d="M24 38C14.0589 38 6 35.5 6 28C6 20.5 14.0589 18 24 18C33.9411 18 42 20.5 42 28C42 35.5 33.9411 38 24 38Z"/>
</mask>
<path d="M24 36.2C19.1262 36.2 14.9465 35.5787 12.0506 34.1896C10.6242 33.5053 9.57634 32.6668 8.88457 31.6878C8.20485 30.7259 7.8 29.5325 7.8 28L4.2 28C4.2 30.2175 4.8025 32.1491 5.94448 33.7653C7.07442 35.3644 8.6626 36.5572 10.4936 37.4354C14.1124 39.1713 18.9326 39.8 24 39.8L24 36.2ZM7.8 28C7.8 26.4675 8.20485 25.2741 8.88457 24.3122C9.57634 23.3332 10.6242 22.4947 12.0506 21.8104C14.9465 20.4213 19.1262 19.8 24 19.8L24 16.2C18.9326 16.2 14.1124 16.8287 10.4936 18.5646C8.66261 19.4428 7.07442 20.6356 5.94448 22.2347C4.80251 23.8509 4.2 25.7825 4.2 28L7.8 28ZM24 19.8C28.8738 19.8 33.0535 20.4213 35.9494 21.8104C37.3758 22.4947 38.4237 23.3332 39.1154 24.3122C39.7951 25.2741 40.2 26.4675 40.2 28L43.8 28C43.8 25.7825 43.1975 23.8509 42.0555 22.2347C40.9256 20.6356 39.3374 19.4428 37.5064 18.5646C33.8876 16.8287 29.0674 16.2 24 16.2L24 19.8ZM40.2 28C40.2 29.5325 39.7951 30.7259 39.1154 31.6878C38.4237 32.6668 37.3758 33.5053 35.9494 34.1896C33.0535 35.5787 28.8738 36.2 24 36.2L24 39.8C29.0674 39.8 33.8876 39.1713 37.5064 37.4354C39.3374 36.5572 40.9256 35.3644 42.0555 33.7653C43.1975 32.1491 43.8 30.2175 43.8 28L40.2 28Z" fill="white" mask="url(#path-4-inside-2_5755_73722)"/>
<path d="M48.0641 43.4543H51.4284C51.9482 43.4543 52.3237 43.8153 52.3237 44.3207C52.3237 44.8549 51.9482 45.2015 51.4284 45.2015H46.2881C45.725 45.2015 45.3495 44.8405 45.3495 44.364C45.3495 44.0174 45.4506 43.7575 45.7972 43.3388L49.3347 38.7471H46.187C45.6672 38.7471 45.2918 38.4006 45.2918 37.8664C45.2918 37.3465 45.6672 37 46.187 37H51.0819C51.6306 37 52.0349 37.3321 52.0349 37.8519C52.0349 38.1407 51.9049 38.415 51.5873 38.8338L48.0641 43.4543Z" fill="white"/>
<path d="M40.5557 49.4033H42.8516C43.3569 49.4033 43.689 49.7354 43.689 50.2407C43.689 50.7605 43.3569 51.0638 42.8516 51.0638H38.8952C38.3899 51.0638 38.0289 50.7172 38.0289 50.2696C38.0289 49.9519 38.1588 49.692 38.4332 49.3022L40.859 46.1256H38.823C38.3321 46.1256 38 45.7935 38 45.2592C38 44.7827 38.3321 44.4506 38.823 44.4506H42.5195C43.0393 44.4506 43.4291 44.7538 43.4291 45.2448C43.4291 45.5336 43.2992 45.8079 42.996 46.1978L40.5557 49.4033Z" fill="white"/>
<line x1="23.9" y1="4.9" x2="23.9" y2="44.1" stroke="white" stroke-width="1.8" stroke-linecap="round"/>
<line x1="6" y1="28.1" x2="41" y2="28.1" stroke="white" stroke-width="1.8"/>
<line x1="21.9" y1="4.1" x2="26.1" y2="4.1" stroke="white" stroke-width="1.8" stroke-linecap="round"/>
</svg>
