<svg width="16" height="16" viewBox="0 0 16 16" fill="none" xmlns="http://www.w3.org/2000/svg">
<path fill-rule="evenodd" clip-rule="evenodd" d="M0.685714 7.3C1.06442 7.3 1.37143 7.60701 1.37143 7.98572C1.37143 8.85619 1.54288 9.71815 1.876 10.5224C2.20912 11.3266 2.69737 12.0573 3.31289 12.6728C3.92841 13.2883 4.65914 13.7766 5.46336 14.1097C6.26757 14.4428 7.12952 14.6143 8 14.6143C8.87048 14.6143 9.73243 14.4428 10.5366 14.1097C11.3409 13.7766 12.0716 13.2883 12.6871 12.6728C13.3026 12.0573 13.7909 11.3266 14.124 10.5224C14.4571 9.71815 14.6286 8.85619 14.6286 7.98572C14.6286 7.60701 14.9356 7.3 15.3143 7.3C15.693 7.3 16 7.60701 16 7.98572C16 9.03629 15.7931 10.0766 15.391 11.0472C14.989 12.0178 14.3997 12.8997 13.6569 13.6426C12.914 14.3854 12.0321 14.9747 11.0615 15.3768C10.0909 15.7788 9.05057 15.9857 8 15.9857C6.94943 15.9857 5.90914 15.7788 4.93853 15.3768C3.96793 14.9747 3.08601 14.3854 2.34315 13.6426C1.60028 12.8997 1.011 12.0178 0.608963 11.0472C0.206926 10.0766 0 9.03629 0 7.98572C0 7.60701 0.307005 7.3 0.685714 7.3Z" fill="#646871"/>
<path d="M8.00268 8.88904C8.43051 8.88904 8.72324 8.59723 8.72324 8.16226V3.32572L8.67258 2.13093L9.96172 3.55696L11.2396 4.8013C11.3747 4.93344 11.5436 5.02153 11.7575 5.02153C12.1516 5.02153 12.4443 4.73523 12.4443 4.3333C12.4443 4.1516 12.3711 3.97541 12.2191 3.82675L8.53747 0.220385C8.39674 0.0772314 8.19971 0.000148773 8.00268 0.000148773C7.80564 0.000148773 7.60298 0.0772314 7.46788 0.220385L3.78059 3.82675C3.6286 3.97541 3.55542 4.1516 3.55542 4.3333C3.55542 4.73523 3.84815 5.02153 4.24221 5.02153C4.45613 5.02153 4.63064 4.93344 4.76012 4.8013L6.04363 3.55696L7.32714 2.13093L7.28211 3.32572L7.28211 8.16226C7.28211 8.59723 7.57484 8.88904 8.00268 8.88904Z" fill="#646871"/>
</svg>
