<svg width="16" height="16" viewBox="0 0 16 16" fill="none" xmlns="http://www.w3.org/2000/svg">
<path fill-rule="evenodd" clip-rule="evenodd" d="M0.685714 7.30078C1.06442 7.30078 1.37143 7.60779 1.37143 7.9865C1.37143 8.85697 1.54288 9.71893 1.876 10.5231C2.20912 11.3274 2.69737 12.0581 3.31289 12.6736C3.92841 13.2891 4.65914 13.7774 5.46336 14.1105C6.26757 14.4436 7.12952 14.6151 8 14.6151C8.87048 14.6151 9.73243 14.4436 10.5366 14.1105C11.3409 13.7774 12.0716 13.2891 12.6871 12.6736C13.3026 12.0581 13.7909 11.3274 14.124 10.5231C14.4571 9.71893 14.6286 8.85697 14.6286 7.9865C14.6286 7.60779 14.9356 7.30078 15.3143 7.30078C15.693 7.30078 16 7.60779 16 7.9865C16 9.03707 15.7931 10.0774 15.391 11.048C14.989 12.0186 14.3997 12.9005 13.6569 13.6434C12.914 14.3862 12.0321 14.9755 11.0615 15.3775C10.0909 15.7796 9.05057 15.9865 8 15.9865C6.94943 15.9865 5.90914 15.7796 4.93853 15.3775C3.96793 14.9755 3.08601 14.3862 2.34315 13.6434C1.60028 12.9005 1.011 12.0186 0.608964 11.048C0.206926 10.0774 0 9.03707 0 7.9865C0 7.60779 0.307005 7.30078 0.685714 7.30078Z" fill="white"/>
<path d="M8.00271 8.89062C8.43054 8.89062 8.72327 8.59881 8.72327 8.16385V3.3273L8.67261 2.13252L9.96175 3.55855L11.2396 4.80288C11.3747 4.93503 11.5436 5.02312 11.7575 5.02312C12.1516 5.02312 12.4443 4.73681 12.4443 4.33488C12.4443 4.15319 12.3712 3.977 12.2192 3.82834L8.5375 0.221972C8.39677 0.078818 8.19974 0.00173545 8.00271 0.00173545C7.80568 0.00173545 7.60302 0.078818 7.46791 0.221972L3.78062 3.82834C3.62863 3.977 3.55545 4.15319 3.55545 4.33488C3.55545 4.73681 3.84818 5.02312 4.24224 5.02312C4.45616 5.02312 4.63067 4.93503 4.76015 4.80288L6.04366 3.55855L7.32717 2.13252L7.28214 3.3273L7.28214 8.16385C7.28214 8.59881 7.57487 8.89062 8.00271 8.89062Z" fill="white"/>
</svg>
