<svg width="16" height="16" viewBox="0 0 16 16" fill="none" xmlns="http://www.w3.org/2000/svg">
<path d="M8.00781 1C7.82812 1 7.66406 1.07031 7.47656 1.22656L2.21094 5.5C2.07812 5.61719 2 5.78125 2 6.01562C2 6.42188 2.30469 6.72656 2.71094 6.72656C2.88281 6.72656 3.04688 6.66406 3.23438 6.52344L8.00781 2.63281L12.7812 6.52344C12.9609 6.66406 13.1328 6.72656 13.2969 6.72656C13.7109 6.72656 14.0156 6.42188 14.0156 6.01562C14.0156 5.78125 13.9375 5.61719 13.8047 5.5L8.53906 1.21875C8.35156 1.07031 8.17969 1 8.00781 1ZM8.00781 14.8281C8.17969 14.8281 8.35156 14.7578 8.53906 14.6094L13.8047 10.3281C13.9375 10.2109 14.0156 10.0469 14.0156 9.8125C14.0156 9.40625 13.7109 9.09375 13.2969 9.09375C13.1328 9.09375 12.9609 9.16406 12.7812 9.30469L8.00781 13.1953L3.23438 9.30469C3.04688 9.16406 2.88281 9.09375 2.71094 9.09375C2.30469 9.09375 2 9.40625 2 9.8125C2 10.0469 2.07812 10.2109 2.21094 10.3281L7.47656 14.6016C7.66406 14.7578 7.82812 14.8281 8.00781 14.8281Z" fill="#90949E"/>
</svg>