<svg width="16" height="16" viewBox="0 0 16 16" fill="none" xmlns="http://www.w3.org/2000/svg">
<path d="M8 16C12.3756 16 16 12.3756 16 8C16 3.62435 12.3674 0 7.99174 0C3.62435 0 0 3.62435 0 8C0 12.3756 3.62435 16 8 16ZM8 14.5882C4.35088 14.5882 1.42828 11.6574 1.42828 8C1.42828 4.34262 4.34262 1.41176 7.99174 1.41176C11.6491 1.41176 14.58 4.34262 14.5882 8C14.5965 11.6574 11.6574 14.5882 8 14.5882ZM11.0795 5.8452L11.6409 5.27554C11.8968 5.01135 11.9133 4.71414 11.6739 4.46646L11.4923 4.29309C11.2528 4.05366 10.9556 4.07843 10.6997 4.32611L10.13 4.89577L11.0795 5.8452ZM5.53148 11.3684L10.6089 6.30753L9.65944 5.3581L4.5903 10.419L4.14448 11.4592C4.06192 11.6656 4.26832 11.8473 4.44995 11.7812L5.53148 11.3684Z" fill="#4376FF"/>
</svg>
