<svg className="mx-auto" width="16" height="4" viewBox="0 0 16 4" fill="none" xmlns="http://www.w3.org/2000/svg">
    <path d="M3.41888 1.99671C3.41888 1.05504 2.65536 0.299999 1.69671 0.299999C0.763521 0.299999 0 1.05504 0 1.99671C0 2.93839 0.763521 3.69342 1.69671 3.69342C2.65536 3.69342 3.41888 2.93839 3.41888 1.99671ZM9.69671 1.99671C9.69671 1.05504 8.94168 0.299999 8 0.299999C7.06681 0.299999 6.31177 1.05504 6.31177 1.99671C6.31177 2.93839 7.06681 3.69342 8 3.69342C8.94168 3.69342 9.69671 2.93839 9.69671 1.99671ZM16 1.99671C16 1.05504 15.245 0.299999 14.3033 0.299999C13.3446 0.299999 12.5896 1.05504 12.5896 1.99671C12.5896 2.93839 13.3446 3.69342 14.3033 3.69342C15.245 3.69342 16 2.93839 16 1.99671Z" fill="#90949E"/>
</svg>