<svg width="71" height="71" viewBox="0 0 71 71" fill="none" xmlns="http://www.w3.org/2000/svg">
<path d="M35.5547 70.8789C54.8555 70.8789 70.8164 54.918 70.8164 35.6172C70.8164 16.2812 54.8555 0.355469 35.5195 0.355469C16.2188 0.355469 0.292969 16.2812 0.292969 35.6172C0.292969 54.918 16.2539 70.8789 35.5547 70.8789ZM35.5547 66.3086C18.5391 66.3086 4.86328 52.5977 4.86328 35.6172C4.86328 18.6016 18.5391 4.89062 35.5195 4.89062C52.5352 4.89062 66.2461 18.6016 66.2812 35.6172C66.2812 52.5977 52.5703 66.3086 35.5547 66.3086ZM23.2852 50.1719C23.918 50.1719 24.4453 49.9609 24.9023 49.4688L35.5195 38.8164L46.207 49.4688C46.6641 49.9258 47.1914 50.1719 47.8242 50.1719C49.0547 50.1719 50.0391 49.1875 50.0391 47.9922C50.0391 47.3242 49.793 46.832 49.3359 46.375L38.6484 35.6875L49.3711 24.9648C49.8633 24.5078 50.0391 24.0156 50.0391 23.418C50.0391 22.1875 49.0547 21.2383 47.8242 21.2383C47.2617 21.2383 46.7695 21.4492 46.2773 21.9414L35.5195 32.6289L24.8672 21.9414C24.4102 21.4844 23.918 21.2734 23.2852 21.2734C22.0547 21.2734 21.0703 22.2227 21.0703 23.418C21.0703 24.0508 21.2812 24.5781 21.7383 25L32.4258 35.6875L21.7383 46.4102C21.2812 46.832 21.0703 47.3594 21.0703 47.9922C21.0703 49.1875 22.0547 50.1719 23.2852 50.1719Z" fill="#F14D4D"/>
</svg>
