<svg width="16" height="16" viewBox="0 0 16 16" fill="none" xmlns="http://www.w3.org/2000/svg">
<g clip-path="url(#clip0_352_32413)">
<path fill-rule="evenodd" clip-rule="evenodd" d="M3.37714 7.35756C3.34287 7.44007 3.32524 7.52855 3.32525 7.6179H3.32553V11.858C3.32539 11.9968 3.2742 12.1308 3.18171 12.2343C3.08922 12.3379 2.96189 12.4038 2.82397 12.4195C2.5071 12.4567 2.24056 12.4833 2.02646 12.5022C1.83484 12.5193 1.6423 12.4814 1.47147 12.3929C1.30064 12.3043 1.15862 12.1689 1.06208 12.0024C0.362044 10.7853 -0.00431669 9.40483 3.83792e-05 8.00064C-0.000397329 3.56308 3.66527 -0.0588789 8.10072 0.000725266C9.74557 0.0233994 11.3433 0.553754 12.6754 1.51927C14.0075 2.48479 15.0089 3.83834 15.5428 5.39484C15.604 5.57281 15.6201 5.76314 15.5899 5.94887C15.5596 6.1346 15.4839 6.30995 15.3694 6.45927C14.5803 7.48796 13.586 8.3435 12.6049 9.05478V4.22624C12.6048 4.04609 12.5333 3.87333 12.4059 3.74595C12.2786 3.61857 12.1059 3.54701 11.9258 3.54701H10.7942C10.705 3.54701 10.6167 3.56458 10.5343 3.59871C10.452 3.63285 10.3771 3.68288 10.3141 3.74595C10.251 3.80903 10.201 3.88391 10.1669 3.96631C10.1328 4.04872 10.1152 4.13705 10.1152 4.22624V10.0901C10.1151 10.2014 10.0823 10.3103 10.0207 10.4031C9.9592 10.4958 9.87173 10.5685 9.76921 10.6118C9.49314 10.7284 9.20993 10.8431 9.20993 10.8431V5.92447C9.2099 5.74433 9.13835 5.57159 9.01102 5.44421C8.88369 5.31683 8.711 5.24526 8.53093 5.24523H7.39929C7.3101 5.24524 7.2218 5.26282 7.13941 5.29697C7.05702 5.33111 6.98216 5.38116 6.9191 5.44425C6.85605 5.50734 6.80603 5.58223 6.77191 5.66465C6.73779 5.74708 6.72023 5.83542 6.72024 5.92463V11.224C6.7202 11.3515 6.67711 11.4753 6.59793 11.5753C6.51876 11.6753 6.40815 11.7456 6.28404 11.7748C6.10529 11.8167 5.94212 11.8569 5.81489 11.8946V7.62242C5.81489 7.44228 5.74335 7.26951 5.61602 7.14213C5.48868 7.01475 5.31597 6.94319 5.13589 6.94319L4.00648 6.93948C3.91716 6.93907 3.82864 6.95631 3.746 6.99022C3.66336 7.02413 3.58823 7.07403 3.52493 7.13707C3.46163 7.20011 3.41141 7.27504 3.37714 7.35756ZM3.30082 14.4697C3.30076 14.4696 3.3007 14.4696 3.30064 14.4695L3.30058 14.4697C3.30066 14.4697 3.30074 14.4697 3.30082 14.4697ZM3.30082 14.4697C4.49363 15.3377 5.90323 15.8587 7.37366 15.9751C8.84417 16.0914 10.3182 15.7986 11.6327 15.129C12.9472 14.4594 14.0508 13.4391 14.8216 12.1809C15.5924 10.9227 16.0002 9.47582 16 8.00019C16 7.81599 15.9915 7.63385 15.9791 7.4527C13.0577 11.8112 7.66352 13.8489 3.30082 14.4697Z" fill="white"/>
</g>
<defs>
<clipPath id="clip0_352_32413">
<rect width="16" height="16" fill="white"/>
</clipPath>
</defs>
</svg>
