<svg width="16" height="16" viewBox="0 0 16 16" fill="none" xmlns="http://www.w3.org/2000/svg">
<path d="M1.0005 4.0616C1.55633 4.0616 2.00099 3.60164 2.00099 3.03491C2.00099 2.45996 1.55633 2 1.0005 2C0.444665 2 0 2.45996 0 3.03491C0 3.60164 0.444665 4.0616 1.0005 4.0616ZM4.51017 3.69199H15.3568C15.7141 3.69199 16 3.40452 16 3.03491C16 2.65708 15.7141 2.36961 15.3568 2.36961H4.51017C4.14491 2.36961 3.867 2.65708 3.867 3.03491C3.867 3.40452 4.14491 3.69199 4.51017 3.69199ZM1.0005 9.0308C1.55633 9.0308 2.00099 8.57084 2.00099 7.99589C2.00099 7.42094 1.55633 6.96099 1.0005 6.96099C0.444665 6.96099 0 7.42094 0 7.99589C0 8.57084 0.444665 9.0308 1.0005 9.0308ZM4.51017 8.66119H15.3568C15.7141 8.66119 16 8.3655 16 7.99589C16 7.62628 15.7141 7.33881 15.3568 7.33881H4.51017C4.14491 7.33881 3.867 7.62628 3.867 7.99589C3.867 8.3655 4.14491 8.66119 4.51017 8.66119ZM1.0005 14C1.55633 14 2.00099 13.5318 2.00099 12.9651C2.00099 12.3901 1.55633 11.9302 1.0005 11.9302C0.444665 11.9302 0 12.3901 0 12.9651C0 13.5318 0.444665 14 1.0005 14ZM4.51017 13.6222H15.3568C15.7141 13.6222 16 13.3347 16 12.9651C16 12.5873 15.7141 12.2998 15.3568 12.2998H4.51017C4.14491 12.2998 3.867 12.5873 3.867 12.9651C3.867 13.3347 4.14491 13.6222 4.51017 13.6222Z" fill="white"/>
</svg>
