<svg
  width="20"
  height="18"
  viewBox="0 0 20 18"
  fill="none"
  xmlns="http://www.w3.org/2000/svg">
  <path
    d="M1.81327 17.9938H18.1691C18.4886 18.0214 18.8092 17.9561 19.0934 17.8055C19.3776 17.6548 19.6137 17.4252 19.7739 17.1434C19.9342 16.8616 20.0121 16.5393 19.9985 16.2142C19.9848 15.8891 19.8802 15.5747 19.6969 15.3077L11.5203 0.926956C11.372 0.646505 11.1515 0.412162 10.8822 0.248915C10.613 0.0856682 10.3052 -0.000361011 9.99152 1.13868e-06C9.67789 0.000363289 9.37024 0.0871032 9.10138 0.250971C8.83251 0.41484 8.6125 0.649692 8.46483 0.930484L0.285459 15.3098C0.112787 15.5799 0.0147334 15.8921 0.00153455 16.2138C-0.0116643 16.5355 0.0604754 16.8549 0.210423 17.1387C0.377006 17.4145 0.613851 17.6395 0.895963 17.79C1.17808 17.9405 1.49499 18.0109 1.81327 17.9938ZM1.54021 16.0427L9.71871 1.66626C9.81635 1.4947 9.92803 1.41796 9.99394 1.41796C10.0577 1.41796 10.1708 1.49691 10.2684 1.66552L18.4449 16.0455C18.4827 16.0958 18.5092 16.1538 18.5226 16.2155C18.536 16.2773 18.5361 16.3412 18.5227 16.4029C18.4768 16.4491 18.421 16.4841 18.3597 16.5051C18.2985 16.5262 18.2333 16.5328 18.1691 16.5243H1.81327C1.61945 16.5243 1.50067 16.4669 1.46561 16.4037C1.43287 16.3474 1.44403 16.2142 1.54021 16.0433V16.0427Z"
    fill="#8F97AB"
  />
  <path
    d="M9.21834 10.6547C9.23283 10.9297 9.29154 11.2004 9.39217 11.4561C9.43937 11.5646 9.518 11.656 9.61761 11.7182C9.71723 11.7803 9.83311 11.8102 9.94987 11.8039C10.0669 11.8084 10.1826 11.7773 10.2821 11.7146C10.3816 11.6519 10.4603 11.5604 10.5081 11.4519C10.6146 11.2025 10.6748 10.9353 10.6856 10.6637L10.9126 8.01652C10.9387 7.77142 10.9514 7.52505 10.9508 7.27853C10.9677 6.93657 10.9093 6.5951 10.7799 6.27888C10.7083 6.13864 10.5968 6.0235 10.4599 5.94841C10.323 5.87333 10.167 5.84177 10.0122 5.85785C9.87517 5.85339 9.7388 5.87848 9.61207 5.93147C9.48534 5.98446 9.37114 6.06414 9.27701 6.16524C9.08371 6.39104 8.98409 6.68403 8.99903 6.98275C8.99903 7.20253 9.01496 7.56829 9.04697 8.07444L9.21834 10.6547Z"
    fill="#8F97AB"
  />
  <path
    d="M9.98071 14.3515C10.2292 14.3534 10.4694 14.2604 10.6536 14.091C10.7526 13.9999 10.8306 13.8876 10.882 13.7623C10.9334 13.637 10.9569 13.5017 10.9508 13.3662C10.9525 13.2365 10.9277 13.1079 10.8778 12.9885C10.8279 12.8692 10.7541 12.7616 10.6611 12.6727C10.4764 12.4904 10.229 12.3885 9.97134 12.3887C9.71373 12.3888 9.46636 12.4911 9.28192 12.6736C9.19086 12.7635 9.1188 12.8712 9.07016 12.9903C9.02152 13.1094 8.99731 13.2373 8.99902 13.3662C8.99279 13.5029 9.01665 13.6394 9.06886 13.7656C9.12108 13.8919 9.20034 14.0048 9.3009 14.096C9.48866 14.2635 9.7308 14.3545 9.98071 14.3515Z"
    fill="#8F97AB"
  />
</svg>
