<svg width="14" height="14" viewBox="0 0 14 14" fill="none" xmlns="http://www.w3.org/2000/svg">
<path fill-rule="evenodd" clip-rule="evenodd" d="M11.5104 1.40005L6.39717 6.51438C6.09707 6.81455 6.09658 7.30259 6.3973 7.60324C6.69728 7.90329 7.18534 7.90402 7.48593 7.60324L12.597 2.4911V4.20081C12.597 4.5863 12.9104 4.90027 13.2969 4.90027C13.6825 4.90027 13.9966 4.58705 13.9966 4.20081V0.699587C13.9966 0.506961 13.9184 0.332153 13.7918 0.205467C13.665 0.0786368 13.4904 0.000146865 13.2973 0.000146865H9.79688C9.41147 0.000146865 9.09757 0.313488 9.09757 0.700078C9.09757 1.08595 9.41072 1.40013 9.79688 1.40013L11.5104 1.40005ZM13.9969 8.39999V5.07252V12.2553C13.9969 13.2189 13.3028 14 12.4455 14H1.5514C0.69453 14 0 13.2173 0 12.2553L0 1.74473C0 0.781118 0.694061 0 1.5514 0L9.02221 0L5.59892 0C5.98542 0 6.29882 0.313341 6.29882 0.699931C6.29882 1.08652 5.98542 1.39999 5.59892 1.39999H1.79853C1.57592 1.39999 1.40006 1.60909 1.40006 1.86689V12.133C1.40006 12.3862 1.57848 12.5999 1.79853 12.5999H12.199C12.4216 12.5999 12.5975 12.3908 12.5975 12.133V8.39996C12.5975 8.01337 12.9109 7.6999 13.2974 7.6999C13.6839 7.6999 13.9971 8.01337 13.9971 8.39996L13.9969 8.39999Z" fill="#4376FF"/>
</svg>
