<svg width="16" height="16" viewBox="0 0 16 16" fill="none" xmlns="http://www.w3.org/2000/svg">
<path fill-rule="evenodd" clip-rule="evenodd" d="M12.5101 2.40005L7.39693 7.51438C7.09683 7.81455 7.09634 8.30259 7.39705 8.60324C7.69703 8.90329 8.18509 8.90402 8.48568 8.60324L13.5967 3.4911V5.20081C13.5967 5.5863 13.9101 5.90027 14.2966 5.90027C14.6823 5.90027 14.9964 5.58705 14.9964 5.20081V1.69959C14.9964 1.50696 14.9182 1.33215 14.7916 1.20547C14.6648 1.07864 14.4902 1.00015 14.2971 1.00015H10.7966C10.4112 1.00015 10.0973 1.31349 10.0973 1.70008C10.0973 2.08595 10.4105 2.40013 10.7966 2.40013L12.5101 2.40005ZM14.9966 9.39999V6.07252V13.2553C14.9966 14.2189 14.3026 15 13.4452 15H2.55115C1.69429 15 0.999756 14.2173 0.999756 13.2553V2.74473C0.999756 1.78112 1.69382 1 2.55115 1H10.022H6.59867C6.98518 1 7.29858 1.31334 7.29858 1.69993C7.29858 2.08652 6.98518 2.39999 6.59867 2.39999H2.79829C2.57568 2.39999 2.39981 2.60909 2.39981 2.86689V13.133C2.39981 13.3862 2.57824 13.5999 2.79829 13.5999H13.1987C13.4213 13.5999 13.5972 13.3908 13.5972 13.133V9.39996C13.5972 9.01337 13.9106 8.6999 14.2971 8.6999C14.6836 8.6999 14.9969 9.01337 14.9969 9.39996L14.9966 9.39999Z" fill="#90949E"/>
</svg>
