<svg width="13" height="12" viewBox="0 0 13 12" fill="none" xmlns="http://www.w3.org/2000/svg">
<path fill-rule="evenodd" clip-rule="evenodd" d="M9.38448 1.80004L5.54882 5.63578C5.3237 5.86091 5.32333 6.22694 5.54891 6.45243C5.77394 6.67747 6.14006 6.67802 6.36554 6.45243L10.1996 2.61833V3.9006C10.1996 4.18973 10.4347 4.4252 10.7246 4.4252C11.0139 4.4252 11.2495 4.19029 11.2495 3.9006V1.27469C11.2495 1.13022 11.1908 0.999115 11.0959 0.9041C11.0008 0.808978 10.8698 0.75011 10.7249 0.75011H8.0991C7.80998 0.75011 7.57451 0.985116 7.57451 1.27506C7.57451 1.56446 7.80942 1.8001 8.0991 1.8001L9.38448 1.80004ZM11.2497 7.04999V4.55439V9.94145C11.2497 10.6642 10.7291 11.25 10.0859 11.25H1.91378C1.271 11.25 0.75 10.663 0.75 9.94145V2.05855C0.75 1.33584 1.27065 0.75 1.91378 0.75H7.51798H4.95001C5.23995 0.75 5.47504 0.985006 5.47504 1.27495C5.47504 1.56489 5.23995 1.79999 4.95001 1.79999H2.09916C1.93217 1.79999 1.80025 1.95682 1.80025 2.15017V9.84978C1.80025 10.0397 1.93409 10.2 2.09916 10.2H9.90103C10.068 10.2 10.1999 10.0431 10.1999 9.84978V7.04997C10.1999 6.76002 10.435 6.52492 10.725 6.52492C11.0149 6.52492 11.2499 6.76002 11.2499 7.04997L11.2497 7.04999Z" fill="white"/>
</svg>
