<svg width="13" height="14" viewBox="0 0 13 14" fill="none" xmlns="http://www.w3.org/2000/svg">
    <path fill-rule="evenodd" clip-rule="evenodd" d="M10.7808 1.98408H8.45C8.11666 1.98408 7.84192 1.73316 7.80437 1.40989L7.8 1.33408C7.8 1.00074 8.05093 0.726002 8.3742 0.688455L8.45 0.684082H12.3499H12.35C12.5295 0.684082 12.692 0.756836 12.8096 0.874463C12.8106 0.875443 12.8116 0.876426 12.8125 0.877411C12.8743 0.939919 12.9208 1.01183 12.952 1.08849C12.9738 1.14191 12.9887 1.19887 12.9956 1.25828L12.9957 1.25889C12.9986 1.28413 13 1.30952 13 1.33491C12.9998 1.47539 12.9544 1.61582 12.8637 1.73247L12.8096 1.7937L11.7 2.90332V5.23408L11.7044 5.30989C11.7419 5.63316 12.0167 5.88408 12.35 5.88408C12.709 5.88408 13 5.59307 13 5.23408V1.33491M5.85 2.63408C6.20898 2.63408 6.5 2.9251 6.5 3.28408C6.5 3.61743 6.24907 3.89216 5.9258 3.92971L5.85 3.93408H1.95C1.61666 3.93408 1.34192 4.18501 1.30437 4.50828L1.3 4.58408V11.7341C1.3 12.0674 1.55093 12.3422 1.8742 12.3797L1.95 12.3841H9.1C9.43334 12.3841 9.70808 12.1332 9.74563 11.8099L9.75 11.7341V7.83408C9.75 7.4751 10.041 7.18408 10.4 7.18408C10.7333 7.18408 11.0081 7.43501 11.0456 7.75828L11.05 7.83408V11.7341C11.05 12.7726 10.2382 13.6215 9.21458 13.6808L9.1 13.6841H1.95C0.911507 13.6841 0.0626204 12.8723 0.00331025 11.8487L0 11.7341V4.58408C0 3.54559 0.811798 2.6967 1.83542 2.63739L1.95 2.63408H5.85Z"
    fill="#4376FF"/>
</svg>
