<svg width="15" height="14" viewBox="0 0 15 14" fill="none" xmlns="http://www.w3.org/2000/svg">
<path d="M6.30038 2.09875C6.687 2.09875 7.00042 2.41217 7.00042 2.7988C7.00042 3.1578 6.73018 3.45369 6.38202 3.49413L6.30038 3.49884H2.10013C1.74112 3.49884 1.44523 3.76908 1.40479 4.11724L1.40008 4.19888V11.8993C1.40008 12.2584 1.67033 12.5542 2.01849 12.5947L2.10013 12.5994H9.80059C10.1596 12.5994 10.4555 12.3291 10.4959 11.981L10.5006 11.8993V7.69909C10.5006 7.31247 10.814 6.99905 11.2007 6.99905C11.5597 6.99905 11.8556 7.26929 11.896 7.61745L11.9007 7.69909V11.8993C11.9007 13.0178 11.0264 13.932 9.92399 13.9959L9.80059 13.9995H2.10013C0.981682 13.9995 0.0674414 13.1252 0.0035651 12.0227L0 11.8993V4.19888C0 3.08044 0.874296 2.1662 1.97673 2.10232L2.10013 2.09875H6.30038Z" fill="#646871"/>
<path d="M13.3021 0C13.6612 0 13.957 0.270244 13.9975 0.618402L14.0022 0.700042V4.90029C14.0022 5.28692 13.6888 5.60034 13.3021 5.60034C12.9431 5.60034 12.6473 5.33009 12.6068 4.98193L12.6021 4.90029V1.40008H9.1019C8.74289 1.40008 8.447 1.12984 8.40657 0.781682L8.40186 0.700042C8.40186 0.341035 8.6721 0.0451477 9.02026 0.00470969L9.1019 0H13.3021Z" fill="#646871"/>
<path d="M12.8071 0.205038C13.0805 -0.0683459 13.5237 -0.0683459 13.7971 0.205038C14.0495 0.457392 14.0689 0.854477 13.8554 1.1291L13.7971 1.19505L6.09666 8.89551C5.82327 9.16889 5.38003 9.16889 5.10665 8.89551C4.85429 8.64316 4.83488 8.24607 5.04841 7.97145L5.10665 7.9055L12.8071 0.205038Z" fill="#646871"/>
</svg>
