<svg width="16" height="16" viewBox="0 0 16 16" fill="none" xmlns="http://www.w3.org/2000/svg">
<path d="M7.1993 2.39844C7.64108 2.39844 7.99922 2.75664 7.99922 3.19852C7.99922 3.60882 7.69042 3.94699 7.29258 3.99321L7.1993 3.99859H2.39977C1.98954 3.99859 1.65143 4.30746 1.60523 4.70537L1.59984 4.79867V13.5995C1.59984 14.0098 1.90865 14.348 2.30648 14.3942L2.39977 14.3996H11.1989C11.6091 14.3996 11.9472 14.0907 11.9934 13.6928L11.9988 13.5995V8.79906C11.9988 8.35719 12.357 7.99898 12.7987 7.99898C13.209 7.99898 13.5471 8.30785 13.5933 8.70576L13.5987 8.79906V13.5995C13.5987 14.8778 12.5996 15.9227 11.3399 15.9957L11.1989 15.9998H2.39977C1.12175 15.9998 0.0770638 15.0005 0.00407376 13.7406L0 13.5995L0 4.79867C0 3.5204 0.999038 2.47552 2.25876 2.40251L2.39977 2.39844H7.1993Z" fill="#4376FF"/>
<path d="M15.201 0C15.6112 0 15.9493 0.308862 15.9956 0.706772L16.0009 0.800078V5.60055C16.0009 6.04242 15.6428 6.40062 15.201 6.40062C14.7908 6.40062 14.4527 6.09176 14.4065 5.69385L14.4011 5.60055V1.60016H10.4015C9.99126 1.60016 9.65315 1.29129 9.60694 0.893384L9.60156 0.800078C9.60156 0.389769 9.91036 0.0515993 10.3082 0.00538271L10.4015 0L15.201 0Z" fill="#4376FF"/>
<path d="M14.635 0.234337C14.9474 -0.0781125 15.4539 -0.0781125 15.7663 0.234337C16.0546 0.522753 16.0768 0.976582 15.8328 1.29045L15.7663 1.36582L6.96711 10.1667C6.65473 10.4791 6.14824 10.4791 5.83585 10.1667C5.5475 9.87826 5.52531 9.42443 5.76931 9.11057L5.83585 9.0352L14.635 0.234337Z" fill="#4376FF"/>
</svg>
