<svg width="20" height="21" viewBox="0 0 20 21" fill="none" xmlns="http://www.w3.org/2000/svg">
<path d="M10.0037 16.75C15.9129 16.75 20 11.9853 20 10.5C20 9.00735 15.9056 4.25 10.0037 4.25C4.1682 4.25 0 9.00735 0 10.5C0 11.9853 4.1682 16.75 10.0037 16.75ZM10.0037 14.5956C7.70195 14.5956 5.87975 12.7353 5.87237 10.5C5.86499 8.20588 7.70195 6.40441 10.0037 6.40441C12.2833 6.40441 14.1276 8.20588 14.1276 10.5C14.1276 12.7353 12.2833 14.5956 10.0037 14.5956ZM10.0037 11.9779C10.8226 11.9779 11.5013 11.3088 11.5013 10.5C11.5013 9.68383 10.8226 9.01471 10.0037 9.01471C9.17743 9.01471 8.49871 9.68383 8.49871 10.5C8.49871 11.3088 9.17743 11.9779 10.0037 11.9779Z" fill="white"/>
</svg>
