<svg width="14" height="16" viewBox="0 0 14 16" fill="none" xmlns="http://www.w3.org/2000/svg">
<path d="M3.06343 16H10.9888C12.5336 16 13.3022 15.2164 13.3022 13.6642V6.88806C13.3022 5.92537 13.1903 5.50746 12.5933 4.89552L8.48134 0.708955C7.91418 0.126866 7.44403 0 6.60821 0H3.06343C1.52612 0 0.75 0.791045 0.75 2.34328V13.6642C0.75 15.2239 1.51866 16 3.06343 16ZM3.11567 14.7985C2.34701 14.7985 1.95149 14.3881 1.95149 13.6418V2.36567C1.95149 1.62687 2.34701 1.20149 3.12313 1.20149H6.44403V5.53731C6.44403 6.47761 6.91418 6.9403 7.84701 6.9403H12.1007V13.6418C12.1007 14.3881 11.7052 14.7985 10.9291 14.7985H3.11567ZM7.98134 5.81343C7.68284 5.81343 7.5709 5.69403 7.5709 5.39552V1.43284L11.8694 5.81343H7.98134ZM7.59328 8.35075C7.59328 8.04478 7.33209 7.79851 7.02612 7.79851C6.72015 7.79851 6.45896 8.04478 6.45896 8.35075V11.0597L6.50373 12.2761L5.8694 11.6194L5.19776 10.9328C5.09328 10.8209 4.93657 10.7612 4.79478 10.7612C4.48881 10.7612 4.27239 10.9776 4.27239 11.2761C4.27239 11.4478 4.33955 11.5746 4.45896 11.6791L6.60821 13.6567C6.76493 13.7985 6.88433 13.8507 7.02612 13.8507C7.16791 13.8507 7.28731 13.7985 7.44403 13.6567L9.59328 11.6791C9.71269 11.5746 9.77985 11.4478 9.77985 11.2761C9.77985 10.9776 9.55597 10.7612 9.25746 10.7612C9.10821 10.7612 8.95895 10.8209 8.85448 10.9328L8.18284 11.6194L7.54851 12.2761L7.59328 11.0597V8.35075Z" fill="#646871"/>
</svg>
