<svg width="14" height="16" viewBox="0 0 14 16" fill="none" xmlns="http://www.w3.org/2000/svg">
<path d="M3.06343 16H10.9888C12.5336 16 13.3022 15.2164 13.3022 13.6642V6.88806C13.3022 5.92537 13.1903 5.50746 12.5933 4.89552L8.48134 0.708955C7.91418 0.126866 7.44403 0 6.60821 0H3.06343C1.52612 0 0.75 0.791045 0.75 2.34328V13.6642C0.75 15.2239 1.51866 16 3.06343 16ZM3.11567 14.7985C2.34701 14.7985 1.95149 14.3881 1.95149 13.6418V2.36567C1.95149 1.62687 2.34701 1.20149 3.12313 1.20149H6.44403V5.53731C6.44403 6.47761 6.91418 6.9403 7.84701 6.9403H12.1007V13.6418C12.1007 14.3881 11.7052 14.7985 10.9291 14.7985H3.11567ZM7.98134 5.81343C7.68284 5.81343 7.5709 5.69403 7.5709 5.39552V1.43284L11.8694 5.81343H7.98134Z" fill="#90949E"/>
</svg>
