<svg width="18" height="19" viewBox="0 0 18 19" fill="none" xmlns="http://www.w3.org/2000/svg">
<path d="M0.909058 17.8846C0.909058 18.2688 1.22546 18.5928 1.61721 18.5928H13.2414C13.6256 18.5928 13.9495 18.2688 13.9495 17.8846C13.9495 17.5004 13.6331 17.1765 13.2414 17.1765H12.6613V12.3023C13.1058 12.3701 13.377 12.6715 13.377 13.1385V14.3816C13.377 15.5116 14.1303 16.2649 15.2603 16.2649C16.3527 16.2649 17.0834 15.5116 17.0834 14.3816V6.59194C17.0834 5.60505 16.9026 4.7839 16.5486 4.14355C16.187 3.53334 15.6521 3.119 14.959 2.90806C14.6501 2.81013 14.3036 2.99847 14.2057 3.30734C14.1153 3.63128 14.2961 3.97782 14.62 4.06822C15.0193 4.17369 15.5692 4.49009 15.7877 5.55985H14.7782C14.4091 5.55985 14.1228 5.84612 14.1228 6.21526V9.20605C14.1228 9.56766 14.4166 9.85393 14.7782 9.85393H15.8781V14.3816C15.8781 14.7808 15.6295 15.0445 15.2679 15.0445C14.8535 15.0445 14.5748 14.7808 14.5748 14.3816V13.1235C14.5748 11.903 13.8666 11.1497 12.6613 11.0819V2.8704C12.6613 1.53697 11.9456 0.821289 10.6122 0.821289H4.24639C2.91296 0.821289 2.19728 1.53697 2.19728 2.8704V17.1765H1.61721C1.233 17.1765 0.909058 17.5004 0.909058 17.8846ZM4.54773 9.27386C3.96765 9.27386 3.61358 8.94992 3.61358 8.42257V3.08887C3.61358 2.56152 3.96765 2.23758 4.54773 2.23758H10.3108C10.8909 2.23758 11.245 2.56152 11.245 3.08887V8.42257C11.245 8.94992 10.8909 9.27386 10.3108 9.27386H4.54773Z" fill="#4376FF"/>
</svg>
