<svg width="14" height="16" viewBox="0 0 14 16" fill="none" xmlns="http://www.w3.org/2000/svg">
<path d="M0.257324 14.5709C0.257324 14.8911 0.520996 15.161 0.847447 15.161H10.5342C10.8544 15.161 11.1244 14.8911 11.1244 14.5709C11.1244 14.2507 10.8607 13.9808 10.5342 13.9808H10.0509V9.91896C10.4212 9.97546 10.6473 10.2266 10.6473 10.6158V11.6517C10.6473 12.5933 11.275 13.2211 12.2167 13.2211C13.127 13.2211 13.736 12.5933 13.736 11.6517V5.16031C13.736 4.33791 13.5853 3.65362 13.2902 3.12C12.9889 2.61149 12.5432 2.2662 11.9656 2.09042C11.7082 2.00881 11.4194 2.16575 11.3378 2.42315C11.2625 2.6931 11.4132 2.98188 11.6831 3.05722C12.0158 3.14511 12.4741 3.40878 12.6562 4.30024H11.8149C11.5073 4.30024 11.2688 4.5388 11.2688 4.84642V7.33875C11.2688 7.64008 11.5136 7.87864 11.8149 7.87864H12.7315V11.6517C12.7315 11.9844 12.5243 12.2041 12.223 12.2041C11.8777 12.2041 11.6454 11.9844 11.6454 11.6517V10.6033C11.6454 9.58623 11.0553 8.95844 10.0509 8.90194V2.05903C10.0509 0.947841 9.45445 0.35144 8.34326 0.35144H3.03843C1.92725 0.35144 1.33085 0.947841 1.33085 2.05903V13.9808H0.847447C0.527274 13.9808 0.257324 14.2507 0.257324 14.5709ZM3.28955 7.39525C2.80615 7.39525 2.51109 7.1253 2.51109 6.68584V2.24109C2.51109 1.80164 2.80615 1.53169 3.28955 1.53169H8.09215C8.57554 1.53169 8.8706 1.80164 8.8706 2.24109V6.68584C8.8706 7.1253 8.57554 7.39525 8.09215 7.39525H3.28955Z" fill="#4376FF"/>
</svg>
