<svg width="16" height="16" viewBox="0 0 16 16" fill="none" xmlns="http://www.w3.org/2000/svg">
<path d="M12.5887 12.8686C12.7658 13.0383 13.0491 13.0492 13.232 12.8686C13.4209 12.6879 13.4091 12.4415 13.232 12.2718L3.36407 3.12319C3.18702 2.95894 2.89192 2.95894 2.71487 3.12319C2.54371 3.28196 2.54371 3.56118 2.71487 3.71995L12.5887 12.8686ZM13.1494 11.2863C14.8727 10.2297 16 8.77879 16 8.12728C16 7.01586 12.7245 3.47358 8.00295 3.47358C6.99963 3.47358 6.05533 3.63235 5.19956 3.89515L6.73405 5.31863C7.12357 5.16534 7.54851 5.07774 8.00295 5.07774C9.82663 5.07774 11.3021 6.4191 11.3021 8.12728C11.3021 8.54337 11.2018 8.94304 11.0247 9.29344L13.1494 11.2863ZM8.00295 12.781C9.0948 12.781 10.1099 12.5948 11.0011 12.2882L9.45481 10.8538C9.01807 11.0618 8.52232 11.1768 8.00295 11.1768C6.16156 11.1768 4.7038 9.79166 4.6979 8.12728C4.6979 7.63453 4.82184 7.16916 5.04021 6.75854L3.02176 4.87517C1.16267 5.95373 0 7.47028 0 8.12728C0 9.23321 3.33456 12.781 8.00295 12.781ZM9.87975 8.0123C9.87975 7.05419 9.04758 6.27675 8.00295 6.27675C7.92623 6.27675 7.8495 6.28222 7.77868 6.2877L9.86795 8.22583C9.87385 8.16013 9.87975 8.08348 9.87975 8.0123ZM6.12025 8.00135C6.12025 8.96494 6.97602 9.74238 8.00885 9.74238C8.09148 9.74238 8.1682 9.73691 8.25083 9.73143L6.13205 7.76593C6.12615 7.84258 6.12025 7.9247 6.12025 8.00135Z" fill="#4376FF"/>
</svg>
