<svg width="21" height="21" viewBox="0 0 21 21" fill="none" xmlns="http://www.w3.org/2000/svg">
    <path d="M10.709 20.9102C16.1582 20.9102 20.6699 16.3887 20.6699 10.9492C20.6699 5.5 16.1484 0.988281 10.6992 0.988281C5.25977 0.988281 0.748047 5.5 0.748047 10.9492C0.748047 16.3887 5.26953 20.9102 10.709 20.9102ZM10.709 19.25C6.09961 19.25 2.41797 15.5586 2.41797 10.9492C2.41797 6.33984 6.08984 2.64844 10.6992 2.64844C15.3086 2.64844 19 6.33984 19.0098 10.9492C19.0195 15.5586 15.3184 19.25 10.709 19.25ZM10.5039 12.9707C10.9922 12.9707 11.2949 12.668 11.2949 12.2773V12.1602C11.2949 11.6133 11.6074 11.2715 12.291 10.8223C13.2383 10.1973 13.9121 9.62109 13.9121 8.45898C13.9121 6.82812 12.4668 5.95898 10.8066 5.95898C9.12695 5.95898 8.02344 6.75 7.75977 7.64844C7.71094 7.81445 7.67188 7.9707 7.67188 8.13672C7.67188 8.56641 8.02344 8.81055 8.3457 8.81055C8.90234 8.81055 8.99023 8.50781 9.30273 8.14648C9.625 7.60938 10.0938 7.28711 10.748 7.28711C11.6367 7.28711 12.2129 7.78516 12.2129 8.53711C12.2129 9.20117 11.8027 9.52344 10.9531 10.1094C10.25 10.5977 9.72266 11.1152 9.72266 12.0723V12.1992C9.72266 12.7168 10.0059 12.9707 10.5039 12.9707ZM10.4844 15.8906C11.0508 15.8906 11.5391 15.4414 11.5391 14.875C11.5391 14.2988 11.0605 13.8594 10.4844 13.8594C9.9082 13.8594 9.42969 14.3086 9.42969 14.875C9.42969 15.4316 9.91797 15.8906 10.4844 15.8906Z" fill="#747F86"/>
</svg>
