<svg width="16" height="16" viewBox="0 0 16 16" fill="none" xmlns="http://www.w3.org/2000/svg">
<path fill-rule="evenodd" clip-rule="evenodd" d="M9.33073 4.34441C9.33073 3.98862 9.61916 3.7002 9.97495 3.7002H14.0546H14.055C14.4108 3.7002 14.6992 3.98862 14.6992 4.34441C14.6992 4.35214 14.6991 4.35984 14.6988 4.36751V8.42446C14.6988 8.78025 14.4104 9.06868 14.0546 9.06868C13.6988 9.06868 13.4104 8.78025 13.4104 8.42446V6.06964L9.06869 10.4052C8.78952 10.6844 8.33857 10.6844 8.05941 10.4052L5.70444 8.05023L1.91786 11.844C1.6387 12.1231 1.18775 12.1231 0.90859 11.844C0.629428 11.5648 0.629428 11.1138 0.90859 10.8347L5.20338 6.53274C5.48254 6.25358 5.93349 6.25358 6.21265 6.53274L8.56763 8.88772L12.4667 4.98863H9.97495C9.61916 4.98863 9.33073 4.70021 9.33073 4.34441Z" fill="white"/>
</svg>
