<svg
  width="20"
  height="20"
  viewBox="0 0 20 20"
  fill="none"
  xmlns="http://www.w3.org/2000/svg">
  <path
    d="M10.0005 1.27521e-08C8.02269 -9.98474e-05 6.08925 0.586296 4.4447 1.68503C2.80015 2.78377 1.51835 4.3455 0.761386 6.17274C0.00442267 7.99997 -0.193702 10.0106 0.192065 11.9505C0.577833 13.8903 1.53017 15.6722 2.92864 17.0708C4.32711 18.4694 6.10891 19.4218 8.04871 19.8078C9.98851 20.1937 11.9992 19.9957 13.8265 19.2389C15.6538 18.4821 17.2156 17.2005 18.3145 15.556C19.4134 13.9115 19.9999 11.9782 20 10.0003C19.9973 7.34906 18.9429 4.80714 17.0683 2.93233C15.1936 1.05752 12.6518 0.00294052 10.0005 1.27521e-08ZM10.0005 18.3168C8.35552 18.3169 6.74745 17.8292 5.37965 16.9154C4.01185 16.0015 2.94577 14.7026 2.31621 13.1828C1.68666 11.6631 1.52191 9.99077 1.84281 8.37739C2.1637 6.76401 2.95583 5.28202 4.11901 4.11884C5.28219 2.95566 6.76418 2.16353 8.37756 1.84264C9.99095 1.52174 11.6633 1.68649 13.183 2.31604C14.7028 2.9456 16.0017 4.01168 16.9155 5.37948C17.8294 6.74728 18.3171 8.35535 18.317 10.0003C18.3148 12.2053 17.4379 14.3194 15.8787 15.8786C14.3196 17.4377 12.2055 18.3146 10.0005 18.3168Z"
    fill="#8F97AB"
  />
  <path
    d="M10.0459 5.13966C9.88686 5.13466 9.72858 5.16345 9.5815 5.22411C9.43441 5.28477 9.30186 5.37593 9.1926 5.49158C8.96802 5.75009 8.85227 6.08552 8.86962 6.42751C8.86962 6.67912 8.88814 7.09786 8.92533 7.67715L9.12376 10.6307C9.14073 10.9454 9.20895 11.2553 9.32572 11.5481C9.3806 11.6724 9.47198 11.7771 9.58774 11.8482C9.7035 11.9194 9.83816 11.9536 9.97385 11.9465C10.1098 11.9515 10.2442 11.9157 10.3597 11.8437C10.4752 11.7717 10.5666 11.6668 10.622 11.5425C10.7456 11.257 10.8155 10.951 10.8282 10.6401L11.0915 7.6105C11.1218 7.32991 11.1367 7.04786 11.136 6.76563C11.1556 6.37412 11.0877 5.98316 10.9372 5.62118C10.854 5.46082 10.7246 5.32916 10.5656 5.2433C10.4067 5.15744 10.2256 5.12133 10.0459 5.13966Z"
    fill="#8F97AB"
  />
  <path
    d="M9.19732 12.9424C9.09159 13.0453 9.00792 13.1688 8.95144 13.3051C8.89496 13.4414 8.86684 13.5879 8.8688 13.7354C8.86157 13.892 8.88931 14.0483 8.95001 14.1928C9.01071 14.3374 9.10284 14.4666 9.21971 14.5711C9.43764 14.7626 9.71873 14.8668 10.0089 14.8636C10.298 14.8657 10.5773 14.7591 10.7915 14.5648C10.9066 14.4604 10.9972 14.3319 11.0569 14.1884C11.1166 14.0449 11.1439 13.89 11.1368 13.7348C11.1388 13.5863 11.1099 13.4391 11.0519 13.3025C10.994 13.1658 10.9083 13.0427 10.8002 12.9409C10.5855 12.7323 10.2978 12.6157 9.99847 12.616C9.69909 12.6163 9.41165 12.7334 9.19732 12.9424Z"
    fill="#8F97AB"
  />
</svg>
