<svg width="139" height="10" viewBox="0 0 139 10" fill="none" xmlns="http://www.w3.org/2000/svg">
<path d="M125.26 0.5C123.212 0.5 122.022 1.55243 122.022 3.05405C122.022 5.87487 125.882 5.08757 125.882 6.92567C125.882 7.87027 125.083 8.28378 124.118 8.28378C123.479 8.28378 122.788 8.14027 122.292 7.95946L122.23 9.27703C122.738 9.40675 123.355 9.5 123.994 9.5C126.093 9.5 127.377 8.32757 127.377 6.72297C127.377 3.99297 123.537 4.64 123.537 2.89189C123.537 2.16784 124.08 1.65541 125.177 1.65541C125.698 1.65541 126.266 1.74297 126.775 1.89865L126.858 0.662163C126.323 0.571352 125.781 0.5 125.26 0.5ZM0 0.621623V9.3581H5.29267V8.14189H1.41138V0.621623H0ZM10.6684 0.621623L7.51351 9.3581H8.94565L9.60983 7.43243H13.1798L13.8647 9.3581H15.4421L12.2458 0.621623H10.6684ZM16.9365 0.621623V1.81757H19.3442V9.3581H20.7763V1.81757H23.2047V0.621623H16.9365ZM25.8822 0.621623V9.3581H27.2936V5.44594H31.4654V9.3581H32.8768V0.621623H31.4654V4.22973H27.2936V0.621623H25.8822ZM38.8544 0.621623L35.6996 9.3581H37.1317L37.8166 7.43243H41.3866L42.0508 9.3581H43.6282L40.4318 0.621623H38.8544ZM47.3642 0.621623L46.0566 9.3581H47.5095L48.0699 4.83784C48.162 4.00919 48.2459 3.33784 48.2982 2.58784C48.4285 3.22189 48.6444 3.97027 48.8793 4.65541L50.4568 9.3581H51.9304L53.5909 4.29054C53.8125 3.64351 53.9429 3.07919 54.0475 2.58784C54.1388 3.15703 54.216 3.78459 54.3588 4.71621L55.0438 9.3581H56.5382L55.189 0.621623H53.4871L51.7644 5.72973C51.5552 6.37676 51.3966 6.80567 51.2662 7.4527C51.1359 6.88351 50.9757 6.30297 50.7681 5.66892L49.0662 0.621623H47.3642ZM65.5461 0.621623L67.8292 9.3581H69.4896L70.984 3.94595C71.1285 3.4027 71.2298 2.86757 71.2954 2.32432C71.3991 2.88135 71.4921 3.43595 71.6482 3.96622L73.1426 9.3581H74.8861L77.1692 0.621623H75.7578L74.3879 6.09459C74.2568 6.57378 74.1688 7.07162 74.0766 7.61486C73.9728 7.05784 73.8334 6.47973 73.703 6.01351L72.1671 0.621623H70.6104L69.116 5.99324C68.9591 6.52351 68.8545 7.0854 68.7632 7.6554C68.6719 7.07324 68.5656 6.50162 68.4103 5.93243L67.0612 0.621623H65.5461ZM81.6524 0.621623L78.4975 9.3581H79.9297L80.6146 7.43243H84.1846L84.8487 9.3581H86.4262L83.2298 0.621623H81.6524ZM87.5262 0.621623V1.81757H89.9339V9.3581H91.3452V1.81757H93.7736V0.621623H87.5262ZM96.7417 0.621623V9.3581H98.1531V5.10135L101.349 9.3581H103.238L99.6059 4.83784L103.114 0.621623H101.37L98.1531 4.67567V0.621623H96.7417ZM106.206 0.621623V9.3581H107.638V0.621623H106.206ZM111.603 0.621623V9.3581H112.973V6.41892C112.973 5.17676 112.942 3.40108 112.89 2.5473C113.163 3.12946 113.495 3.75783 113.886 4.39189L116.895 9.3581H118.722V0.621623H117.352V3.21622C117.352 4.4973 117.382 6.37433 117.435 7.37162C117.109 6.73757 116.768 6.03216 116.376 5.38513L113.45 0.621623H111.603ZM11.374 2.22297C11.5036 2.70135 11.619 3.10838 11.7892 3.56081L12.8062 6.31757H9.98343L10.9797 3.60135C11.1491 3.13595 11.2819 2.66324 11.374 2.22297ZM39.5809 2.22297C39.7112 2.70135 39.8258 3.10838 39.996 3.56081L40.9922 6.31757H38.1902L39.1657 3.60135C39.3351 3.13595 39.4904 2.66324 39.5809 2.22297ZM82.3788 2.22297C82.5092 2.70135 82.6237 3.10838 82.7939 3.56081L83.7902 6.31757H80.9882L81.9637 3.60135C82.1339 3.13595 82.2875 2.66324 82.3788 2.22297ZM60.9383 2.46621C60.221 2.46621 59.693 2.93811 59.693 3.56081C59.693 3.84784 59.7196 4.01324 59.8798 4.25C59.3426 4.47459 58.9666 5.11351 58.9666 5.72973C58.9666 6.74405 59.9429 7.39189 60.9383 7.39189C61.6332 7.39189 62.2667 7.13567 62.7648 6.64189L63.6366 7.29054L63.9686 6.92567L63.0762 6.21622C63.3236 5.7946 63.3626 5.45892 63.346 5.10135C63.3285 4.73162 63.1949 4.40973 63.1177 4.31081L62.661 4.47297C62.7474 4.59135 62.8744 4.83784 62.8686 5.22297C62.8633 5.52784 62.842 5.6227 62.7026 5.89189L61.4157 4.85811C61.874 4.50297 62.1629 4.18189 62.1629 3.60135C62.1629 2.97784 61.5984 2.46621 60.9383 2.46621ZM130.262 2.89189V6.80405H132.566V6.25676H130.843V2.89189H130.262ZM133.417 2.89189V6.80405H135.7V6.25676H133.977V2.89189H133.417ZM136.53 2.89189V6.80405H137.09V5.30405H137.713C138.631 5.30405 139 4.74378 139 4.08784C139 3.4327 138.631 2.89189 137.713 2.89189H136.53ZM60.8968 2.97297C61.3867 2.97297 61.6233 3.2446 61.6233 3.60135C61.6233 4.05622 61.3302 4.34973 61.0006 4.53378C60.5232 4.15919 60.2534 4.00675 60.2534 3.62162C60.2534 3.26486 60.407 2.97297 60.8968 2.97297ZM137.09 3.33784H137.651C138.258 3.33784 138.507 3.68649 138.502 4.06757C138.495 4.43487 138.332 4.83784 137.713 4.83784H137.09V3.33784ZM60.2949 4.65541L62.3705 6.31757C62.055 6.68162 61.4273 6.83081 60.9591 6.82432C60.2891 6.8146 59.5685 6.47243 59.5685 5.70946C59.5685 5.23351 59.8366 4.89784 60.2949 4.65541Z" fill="white"/>
</svg>
