<svg width="16" height="13" viewBox="0 0 16 13" fill="none" xmlns="http://www.w3.org/2000/svg">
    <path d="M0.992188 6.35938C0.992188 6.50781 1.05469 6.64062 1.17188 6.75L6.42969 12.0234C6.54688 12.1328 6.67188 12.1797 6.8125 12.1797C7.10938 12.1797 7.33594 11.9609 7.33594 11.6719C7.33594 11.5312 7.28125 11.3906 7.1875 11.2969L4.85156 8.9375L2.53906 6.79688L4.35938 6.88281H14.9844C15.2812 6.88281 15.5 6.66406 15.5 6.35938C15.5 6.05469 15.2812 5.83594 14.9844 5.83594H4.35938L2.54688 5.92188L4.85156 3.78125L7.1875 1.42188C7.28906 1.32031 7.33594 1.1875 7.33594 1.03906C7.33594 0.75 7.10938 0.53125 6.8125 0.53125C6.67188 0.53125 6.53906 0.585938 6.39062 0.734375L1.17188 5.96875C1.05469 6.07812 0.992188 6.21094 0.992188 6.35938Z" fill="white"/>
</svg>
