<svg width="15" height="13" viewBox="0 0 15 13" fill="none" xmlns="http://www.w3.org/2000/svg">
<path d="M0.242188 6.35938C0.242188 6.55469 0.328125 6.73438 0.484375 6.88281L5.67188 12.0625C5.82812 12.2109 5.99219 12.2812 6.17969 12.2812C6.5625 12.2812 6.86719 12 6.86719 11.6094C6.86719 11.4219 6.79688 11.2344 6.67188 11.1172L4.92188 9.33594L2.28906 6.9375L4.17969 7.05469H14.0625C14.4688 7.05469 14.75 6.76562 14.75 6.35938C14.75 5.95312 14.4688 5.66406 14.0625 5.66406H4.17969L2.29688 5.78125L4.92188 3.38281L6.67188 1.60156C6.79688 1.47656 6.86719 1.29688 6.86719 1.10938C6.86719 0.71875 6.5625 0.4375 6.17969 0.4375C5.99219 0.4375 5.82812 0.5 5.65625 0.671875L0.484375 5.83594C0.328125 5.98438 0.242188 6.16406 0.242188 6.35938Z" fill="#4376FF"/>
</svg>
