<svg width="14" height="22" viewBox="0 0 14 22" fill="none"
  xmlns="http://www.w3.org/2000/svg">
  <path d="M3.72569 17.0332H10.2161C10.5669 17.0332 10.8037 16.7959 10.8037 16.4443V15.0996C10.8037 12.9727 13.9173 11.6367 13.9173 7.75195C13.9173 3.63867 11.1195 0.878906 6.97088 0.878906C2.81352 0.878906 0.0244141 3.63867 0.0244141 7.75195C0.0244141 11.6367 3.13804 12.9727 3.13804 15.0996V16.4443C3.13804 16.7959 3.37486 17.0332 3.72569 17.0332ZM4.66416 15.0732C4.66416 12.4014 1.57684 11.0654 1.57684 7.75195C1.57684 4.55273 3.73446 2.43457 6.97088 2.43457C10.2073 2.43457 12.3649 4.55273 12.3649 7.75195C12.3649 11.0654 9.26883 12.4014 9.26883 15.0732V15.5039H4.66416V15.0732ZM3.98004 19.4766H9.96172C10.4353 19.4766 10.8213 19.0898 10.8213 18.6064C10.8213 18.1318 10.4353 17.7363 9.96172 17.7363H3.98004C3.50642 17.7363 3.1205 18.1318 3.1205 18.6064C3.1205 19.0898 3.50642 19.4766 3.98004 19.4766ZM6.97088 21.6914C8.25141 21.6914 9.17235 21.0938 9.26005 20.1885H4.67293C4.76064 21.0938 5.6728 21.6914 6.97088 21.6914Z" fill="#90949E"/>
</svg>
