<svg width="19" height="19" viewBox="0 0 19 19" fill="none" xmlns="http://www.w3.org/2000/svg">
  <path d="M4.98584 10.0884C7.49072 10.0884 9.59668 8.00098 9.59668 5.46826C9.59668 2.93555 7.51855 0.857422 4.98584 0.857422C2.4624 0.857422 0.375 2.94482 0.375 5.46826C0.375 8.01025 2.4624 10.0884 4.98584 10.0884ZM11.749 3.5293H18.1875C18.5029 3.5293 18.7441 3.29736 18.7441 2.99121C18.7441 2.68506 18.5029 2.44385 18.1875 2.44385H11.749C11.4429 2.44385 11.2109 2.68506 11.2109 2.99121C11.2109 3.29736 11.4429 3.5293 11.749 3.5293ZM2.0542 5.46826C2.0542 5.17139 2.26758 4.97656 2.55518 4.97656H4.48486V3.04688C4.48486 2.75928 4.67969 2.55518 4.98584 2.55518C5.29199 2.55518 5.47754 2.75928 5.47754 3.04688V4.97656H7.40723C7.7041 4.97656 7.9082 5.17139 7.9082 5.46826C7.9082 5.77441 7.7041 5.96924 7.40723 5.96924H5.47754V7.89893C5.47754 8.1958 5.29199 8.3999 4.98584 8.3999C4.67969 8.3999 4.48486 8.1958 4.48486 7.89893V5.96924H2.55518C2.26758 5.96924 2.0542 5.77441 2.0542 5.46826ZM11.749 8.3999H18.1875C18.5029 8.3999 18.7441 8.15869 18.7441 7.85254C18.7441 7.54639 18.5029 7.31445 18.1875 7.31445H11.749C11.4429 7.31445 11.2109 7.54639 11.2109 7.85254C11.2109 8.15869 11.4429 8.3999 11.749 8.3999ZM0.913086 13.2612H18.1875C18.5029 13.2612 18.7441 13.0293 18.7441 12.7231C18.7441 12.417 18.5029 12.1758 18.1875 12.1758H0.913086C0.597656 12.1758 0.365723 12.417 0.365723 12.7231C0.365723 13.0293 0.597656 13.2612 0.913086 13.2612ZM0.913086 18.1318H18.1875C18.5029 18.1318 18.7441 17.8906 18.7441 17.5845C18.7441 17.2783 18.5029 17.0464 18.1875 17.0464H0.913086C0.597656 17.0464 0.365723 17.2783 0.365723 17.5845C0.365723 17.8906 0.597656 18.1318 0.913086 18.1318Z" fill="white"/>
</svg>
