<svg width="16" height="16" viewBox="0 0 16 16" fill="none" xmlns="http://www.w3.org/2000/svg">
<path d="M4.08084 16H11.9192C12.9813 16 13.5 15.4751 13.5 14.327V8.30753C13.5 7.27422 13.0719 6.74116 12.1909 6.65095V4.58432C12.1909 1.49257 10.1572 0 8 0C5.84281 0 3.80913 1.49257 3.80913 4.58432V6.69195C3.00225 6.81497 2.5 7.33983 2.5 8.30753V14.327C2.5 15.4751 3.01871 16 4.08084 16ZM5.13473 4.4121C5.13473 2.35366 6.46033 1.26294 8 1.26294C9.53967 1.26294 10.8653 2.35366 10.8653 4.4121V6.64275L5.13473 6.65095V4.4121Z" fill="#646871"/>
</svg>
