<svg width="24" height="30" viewBox="0 0 24 30" fill="none" xmlns="http://www.w3.org/2000/svg">
<path d="M12 30C12.321 30 12.7185 29.8306 12.9936 29.6612C21.386 24.5637 24 22.9466 24 18.0647V6.45277C24 4.77413 23.5261 4.20431 21.9516 3.6037C19.2917 2.57187 15.8064 1.17043 13.1312 0.246407C12.7338 0.107803 12.3822 0 12 0C11.6178 0 11.2662 0.107803 10.8688 0.246407C8.20892 1.21663 4.69299 2.57187 2.03312 3.6037C0.473885 4.18891 0 4.77413 0 6.45277V18.0647C0 22.9466 2.67516 24.4559 10.9911 29.6612C11.2815 29.8306 11.6637 30 12 30ZM12 28.7988C11.7248 28.7988 11.4191 28.614 11.1745 28.4446C4.05096 23.8398 1.13121 22.5462 1.13121 17.9415V6.66838C1.13121 5.55955 1.32994 5.15914 2.12484 4.85113C3.7758 4.18891 9.43185 2.03285 11.0981 1.40144C11.465 1.23203 11.786 1.15503 12 1.15503C12.1987 1.15503 12.5197 1.24743 12.9019 1.40144C14.5682 2.03285 20.2089 4.21971 21.8752 4.85113C22.6548 5.15914 22.8688 5.55955 22.8688 6.66838V17.9415C22.8688 22.5462 19.9032 23.7936 12.8102 28.4446C12.5809 28.614 12.2599 28.7988 12 28.7988ZM6.42038 20.2207C6.42038 21.4682 6.9707 22.0226 8.10191 22.0226H15.8981C17.0293 22.0226 17.5796 21.4682 17.5796 20.2207V13.8142C17.5796 12.5667 17.0446 12.0277 15.9439 12.0123V9.81006C15.9439 7.23819 14.3541 5.54415 12 5.54415C9.64586 5.54415 8.05605 7.23819 8.05605 9.81006V12.0123C6.95541 12.0277 6.42038 12.5667 6.42038 13.8142V20.2207ZM9.00382 12.0123V9.77926C9.00382 7.79261 10.2115 6.49897 12 6.49897C13.7885 6.49897 14.9962 7.79261 14.9962 9.77926V12.0123H9.00382Z" fill="#A8AFBD"/>
</svg>
