<svg width="12" height="16" viewBox="0 0 12 16" fill="none" xmlns="http://www.w3.org/2000/svg">
<path d="M2.08084 16H9.91916C10.9813 16 11.5 15.4751 11.5 14.327V8.30753C11.5 7.27422 11.0719 6.74116 10.1909 6.65095V4.58432C10.1909 1.49257 8.15719 0 6 0C3.84281 0 1.80913 1.49257 1.80913 4.58432V6.69195C1.00225 6.81497 0.5 7.33983 0.5 8.30753V14.327C0.5 15.4751 1.01871 16 2.08084 16ZM3.13473 4.4121C3.13473 2.35366 4.46033 1.26294 6 1.26294C7.53967 1.26294 8.86527 2.35366 8.86527 4.4121V6.64275L3.13473 6.65095V4.4121Z" fill="#30E696"/>
</svg>
