<svg width="38" height="38" viewBox="0 0 38 38" fill="none" xmlns="http://www.w3.org/2000/svg">
<path fill-rule="evenodd" clip-rule="evenodd" d="M22.8588 16.4209L33.0746 6.20509L31.7951 4.92556L21.5736 15.1471L27.1053 1.79134L25.4335 1.0989L19.9034 14.4506V0H18.0939V14.4518L12.5633 1.0989L10.8915 1.79134L16.4208 15.1411L6.20529 4.92556L4.92576 6.20509L15.1419 16.4212L1.79127 10.8916L1.09884 12.5634L14.4511 18.0937H0V19.9032H14.4511L1.09884 25.4336L1.79127 27.1054L15.147 21.5736L4.92576 31.7949L6.20529 33.0744L16.4209 22.8588L10.8915 36.2087L12.5633 36.9011L18.0939 23.5483V38H19.9034V23.5494L25.4335 36.9011L27.1053 36.2087L21.5735 22.8529L31.7951 33.0744L33.0746 31.7949L22.8537 21.5739L36.2086 27.1054L36.9011 25.4336L23.5488 19.9032H38V18.0937H23.5488L36.9011 12.5634L36.2086 10.8916L22.8588 16.4209Z" fill="white"/>
</svg>
