<svg width="39" height="39" viewBox="0 0 39 39" fill="none" xmlns="http://www.w3.org/2000/svg">
<path d="M0.989852 13.0112L17.6194 18.9255L0 18.334V20.3054L17.6194 19.714L1.18782 25.8254L1.78173 27.7967L17.8173 20.3054L4.94924 32.331L6.33506 33.711L18.4112 20.8969L11.0863 36.8653L12.8681 37.6538L19.0052 21.094L18.4112 38.8366H20.3909L19.797 21.094L25.9341 37.6538L27.7158 36.8653L20.3909 20.8969L32.4671 33.9081L33.8529 32.331L20.9849 20.3054L37.0206 27.7967L37.8122 25.8254L21.1828 19.714L39 20.3054V18.334L21.1828 18.9255L37.8122 12.8141L37.0206 11.0399L20.9849 18.334L33.8529 6.30849L32.4671 4.9285L20.3909 17.7426L27.7158 1.77426L25.9341 1.18284L19.797 17.5455L20.3909 0H18.4112L19.0052 17.5455L12.8681 1.18284L11.0863 1.9714L18.4112 17.7426L6.33506 4.9285L4.94924 6.50562L17.8173 18.334L1.78173 11.0399L0.989852 13.0112Z" fill="black"/>
</svg>
