<svg width="14" height="14" viewBox="0 0 14 14" fill="none" xmlns="http://www.w3.org/2000/svg">
<path d="M0.675761 5.93606C1.06506 5.93606 1.34418 5.64256 1.34418 5.25367V4.63732L1.19727 2.07652L3.12907 4.10901L5.3914 6.38365C5.51626 6.51572 5.67786 6.57442 5.85414 6.57442C6.27282 6.57442 6.58132 6.30294 6.58132 5.89203C6.58132 5.69392 6.51521 5.51782 6.383 5.38574L4.11333 3.12579L2.0787 1.19602L4.64953 1.34277H5.25918C5.64848 1.34277 5.94963 1.07128 5.94963 0.675052C5.94963 0.278826 5.65582 0 5.25918 0H1.18258C0.433368 0 0 0.432914 0 1.18134V5.25367C0 5.63522 0.286464 5.93606 0.675761 5.93606ZM8.73347 14H12.8101C13.5593 14 14 13.5671 14 12.8187V8.74633C14 8.36478 13.7135 8.06394 13.3169 8.06394C12.9349 8.06394 12.6485 8.35744 12.6485 8.74633V9.36268L12.8027 11.9235L10.8636 9.89099L8.6086 7.61635C8.48374 7.48428 8.3148 7.42558 8.13851 7.42558C7.72718 7.42558 7.41133 7.69706 7.41133 8.10797C7.41133 8.30608 7.48478 8.48218 7.617 8.61426L9.87933 10.8742L11.9213 12.804L9.35047 12.6572H8.73347C8.34418 12.6572 8.04302 12.9287 8.04302 13.3249C8.04302 13.7212 8.34418 14 8.73347 14Z" fill="#4376FF"/>
</svg>
