<svg width="24" height="24" viewBox="0 0 24 24" fill="none" xmlns="http://www.w3.org/2000/svg">
<path d="M12 24C18.6274 24 24 18.6274 24 12C24 5.37258 18.6274 0 12 0C5.37258 0 0 5.37258 0 12C0 18.6274 5.37258 24 12 24Z" fill="#4376FF"/>
<path fill-rule="evenodd" clip-rule="evenodd" d="M5.6 11.3875C5.93137 11.3875 6.2 11.6561 6.2 11.9875C6.2 12.7492 6.35002 13.5034 6.6415 14.2071C6.93298 14.9108 7.3602 15.5502 7.89878 16.0887C8.43736 16.6273 9.07675 17.0545 9.78044 17.346C10.4841 17.6375 11.2383 17.7875 12 17.7875C12.7617 17.7875 13.5159 17.6375 14.2196 17.346C14.9233 17.0545 15.5626 16.6273 16.1012 16.0887C16.6398 15.5502 17.067 14.9108 17.3585 14.2071C17.65 13.5034 17.8 12.7492 17.8 11.9875C17.8 11.6561 18.0686 11.3875 18.4 11.3875C18.7314 11.3875 19 11.6561 19 11.9875C19 12.9068 18.8189 13.817 18.4672 14.6663C18.1154 15.5156 17.5998 16.2873 16.9497 16.9373C16.2997 17.5873 15.5281 18.1029 14.6788 18.4547C13.8295 18.8065 12.9193 18.9875 12 18.9875C11.0807 18.9875 10.1705 18.8065 9.32122 18.4547C8.47194 18.1029 7.70026 17.5873 7.05025 16.9373C6.40024 16.2873 5.88463 15.5156 5.53284 14.6663C5.18106 13.817 5 12.9068 5 11.9875C5 11.6561 5.26863 11.3875 5.6 11.3875Z" fill="black"/>
<path d="M11.9973 5.00012C11.6229 5.00012 11.3668 5.25546 11.3668 5.63605V9.86803L11.4111 10.9135L10.2831 9.66569L9.16495 8.5769C9.04673 8.46127 8.89896 8.38419 8.71178 8.38419C8.36698 8.38419 8.11084 8.63471 8.11084 8.9864C8.11084 9.14538 8.17487 9.29954 8.30787 9.42962L11.5293 12.5852C11.6525 12.7105 11.8249 12.7779 11.9973 12.7779C12.1697 12.7779 12.347 12.7105 12.4652 12.5852L15.6916 9.42962C15.8246 9.29954 15.8886 9.14538 15.8886 8.9864C15.8886 8.63471 15.6325 8.38419 15.2877 8.38419C15.1005 8.38419 14.9478 8.46127 14.8345 8.5769L13.7114 9.66569L12.5884 10.9135L12.6278 9.86803V5.63605C12.6278 5.25546 12.3716 5.00012 11.9973 5.00012Z" fill="black"/>
</svg>
