<svg width="64" height="64" viewBox="0 0 64 64" fill="none" xmlns="http://www.w3.org/2000/svg">
<path d="M60.7 2.79102L35.825 21.266L40.425 10.366L60.7 2.79102Z" fill="#E2761B"/>
<path fill-rule="evenodd" clip-rule="evenodd" d="M60.8098 2.7313C60.8395 2.786 60.8245 2.85426 60.7745 2.89138L35.8995 21.3664C35.8542 21.4 35.7921 21.3992 35.7478 21.3644C35.7034 21.3295 35.6879 21.2694 35.7098 21.2174L40.3098 10.3174C40.3232 10.2858 40.349 10.261 40.3812 10.2489L60.6562 2.67394C60.7145 2.65215 60.78 2.67661 60.8098 2.7313ZM40.5192 10.4643L36.1183 20.8925L59.9166 3.21715L40.5192 10.4643Z" fill="#E2761B"/>
<path d="M3.2749 2.79102L27.9499 21.441L23.5749 10.366L3.2749 2.79102Z" fill="#E4761B"/>
<path fill-rule="evenodd" clip-rule="evenodd" d="M3.16535 2.73087C3.19522 2.67647 3.26047 2.65223 3.31861 2.67392L23.6186 10.2489C23.6518 10.2613 23.6782 10.2872 23.6912 10.3201L28.0662 21.3951C28.0868 21.4472 28.0702 21.5067 28.0256 21.5406C27.981 21.5745 27.9192 21.5745 27.8745 21.5408L3.19954 2.89075C3.15003 2.85334 3.13547 2.78526 3.16535 2.73087ZM4.03302 3.20734L27.6701 21.0728L23.4791 10.4637L4.03302 3.20734Z" fill="#E4761B"/>
<path d="M51.75 45.6152L45.125 55.7652L59.3 59.6652L63.375 45.8402L51.75 45.6152Z" fill="#E4761B"/>
<path fill-rule="evenodd" clip-rule="evenodd" d="M51.6453 45.5469C51.6689 45.5108 51.7093 45.4894 51.7524 45.4903L63.3774 45.7153C63.4164 45.716 63.4528 45.7349 63.4758 45.7663C63.4989 45.7978 63.5059 45.8382 63.4949 45.8756L59.4199 59.7006C59.4006 59.7659 59.3326 59.8038 59.2668 59.7858L45.0918 55.8858C45.0534 55.8752 45.0222 55.8468 45.0081 55.8095C44.994 55.7722 44.9985 55.7303 45.0203 55.6969L51.6453 45.5469ZM51.8168 45.7416L45.3233 55.6901L59.2148 59.5122L63.2088 45.962L51.8168 45.7416Z" fill="#E4761B"/>
<path d="M0.649902 45.8402L4.6999 59.6652L18.8749 55.7652L12.2499 45.6152L0.649902 45.8402Z" fill="#E4761B"/>
<path fill-rule="evenodd" clip-rule="evenodd" d="M12.2475 45.4903C12.2906 45.4894 12.331 45.5108 12.3546 45.5469L18.9796 55.6969C19.0014 55.7303 19.0059 55.7722 18.9918 55.8095C18.9777 55.8468 18.9466 55.8752 18.9081 55.8858L4.73306 59.7858C4.66727 59.8039 4.59913 59.7659 4.57994 59.7004L0.529945 45.8754C0.518996 45.838 0.526092 45.7977 0.549137 45.7663C0.572182 45.7349 0.608542 45.716 0.647479 45.7153L12.2475 45.4903ZM0.815839 45.962L4.78529 59.5121L18.6766 55.6901L12.1831 45.7416L0.815839 45.962Z" fill="#E4761B"/>
<path d="M18.075 28.4664L14.125 34.4414L28.2 35.0664L27.7 19.9414L18.075 28.4664Z" fill="#E4761B"/>
<path fill-rule="evenodd" clip-rule="evenodd" d="M27.7494 19.8266C27.7939 19.8457 27.8233 19.8889 27.8249 19.9373L28.3249 35.0623C28.3261 35.0971 28.3127 35.1308 28.2879 35.1553C28.2631 35.1798 28.2293 35.1928 28.1945 35.1913L14.1195 34.5663C14.0745 34.5643 14.0341 34.5383 14.0136 34.4981C13.9932 34.458 13.9959 34.41 14.0207 34.3725L17.9707 28.3975C17.9768 28.3884 17.9839 28.3801 17.9921 28.3728L27.6171 19.8478C27.6534 19.8157 27.7049 19.8074 27.7494 19.8266ZM18.1702 28.5491L14.3509 34.3263L28.0706 34.9355L27.5839 20.2113L18.1702 28.5491Z" fill="#E4761B"/>
<path d="M45.9 28.4656L36.1499 19.7656L35.825 35.0656L49.875 34.4406L45.9 28.4656Z" fill="#E4761B"/>
<path fill-rule="evenodd" clip-rule="evenodd" d="M36.1001 19.651C36.1448 19.6315 36.1968 19.6399 36.2332 19.6724L45.9832 28.3724C45.9911 28.3794 45.9981 28.3875 46.004 28.3964L49.979 34.3714C50.004 34.4089 50.0068 34.457 49.9864 34.4972C49.966 34.5374 49.9255 34.5635 49.8805 34.5655L35.8305 35.1905C35.796 35.192 35.7623 35.1792 35.7376 35.155C35.7129 35.1309 35.6992 35.0975 35.7 35.063L36.025 19.763C36.026 19.7142 36.0553 19.6705 36.1001 19.651ZM36.2692 20.0395L35.9528 34.9348L49.6483 34.3256L45.8048 28.5482L36.2692 20.0395Z" fill="#E4761B"/>
<path d="M18.875 55.7664L27.325 51.6414L20.025 45.9414L18.875 55.7664Z" fill="#E4761B"/>
<path fill-rule="evenodd" clip-rule="evenodd" d="M19.9768 45.8261C20.0185 45.8087 20.0663 45.8151 20.1019 45.8429L27.4019 51.5429C27.4359 51.5694 27.4538 51.6116 27.4493 51.6544C27.4448 51.6973 27.4186 51.7348 27.3798 51.7537L18.9298 55.8787C18.8888 55.8988 18.84 55.8948 18.8027 55.8684C18.7654 55.842 18.7455 55.7973 18.7508 55.7519L19.9008 45.9269C19.9061 45.882 19.9351 45.8435 19.9768 45.8261ZM20.1233 46.1768L19.0258 55.5537L27.0904 51.6168L20.1233 46.1768Z" fill="#E4761B"/>
<path d="M36.6499 51.6414L45.1249 55.7664L43.9499 45.9414L36.6499 51.6414Z" fill="#E4761B"/>
<path fill-rule="evenodd" clip-rule="evenodd" d="M43.9979 45.826C44.0396 45.8433 44.0687 45.8818 44.074 45.9266L45.249 55.7516C45.2545 55.797 45.2346 55.8417 45.1974 55.8683C45.1601 55.8948 45.1113 55.8988 45.0702 55.8788L36.5952 51.7538C36.5564 51.7349 36.5301 51.6974 36.5256 51.6545C36.5211 51.6116 36.539 51.5694 36.573 51.5429L43.873 45.8429C43.9085 45.8151 43.9563 45.8087 43.9979 45.826ZM36.8847 51.6167L44.9736 55.5537L43.8521 46.1764L36.8847 51.6167Z" fill="#E4761B"/>
<path d="M45.1249 55.7656L36.6499 51.6406L37.3249 57.1656L37.2499 59.4906L45.1249 55.7656Z" fill="#D7C1B3"/>
<path fill-rule="evenodd" clip-rule="evenodd" d="M36.5773 51.5389C36.6146 51.5123 36.6634 51.5082 36.7046 51.5282L45.1796 55.6532C45.2228 55.6743 45.2502 55.7182 45.2499 55.7663C45.2496 55.8144 45.2218 55.8581 45.1784 55.8786L37.3034 59.6036C37.264 59.6222 37.2178 59.619 37.1813 59.5951C37.1449 59.5713 37.1236 59.5301 37.125 59.4866L37.1997 57.1712L36.5258 51.6558C36.5203 51.6103 36.54 51.5655 36.5773 51.5389ZM36.8019 51.8536L37.449 57.1505C37.4498 57.1568 37.45 57.1633 37.4498 57.1697L37.3814 59.2901L44.836 55.764L36.8019 51.8536Z" fill="#D7C1B3"/>
<path d="M18.875 55.7656L26.75 59.4906L26.7 57.1656L27.325 51.6406L18.875 55.7656Z" fill="#D7C1B3"/>
<path fill-rule="evenodd" clip-rule="evenodd" d="M27.3971 51.5385C27.4344 51.5648 27.4543 51.6093 27.4492 51.6547L26.8252 57.1713L26.875 59.4879C26.8759 59.5312 26.8543 59.5719 26.818 59.5955C26.7817 59.6191 26.7357 59.6221 26.6966 59.6036L18.8216 55.8786C18.7781 55.8581 18.7503 55.8144 18.75 55.7664C18.7497 55.7183 18.777 55.6744 18.8202 55.6533L27.2702 51.5283C27.3112 51.5083 27.3598 51.5122 27.3971 51.5385ZM19.1636 55.7639L26.6207 59.2912L26.575 57.1683C26.5749 57.1627 26.5752 57.1571 26.5758 57.1516L27.1752 51.8529L19.1636 55.7639Z" fill="#D7C1B3"/>
<path d="M26.875 42.2914L19.825 40.2164L24.8 37.9414L26.875 42.2914Z" fill="#233447"/>
<path fill-rule="evenodd" clip-rule="evenodd" d="M24.748 37.8278C24.81 37.7994 24.8834 37.826 24.9128 37.8876L26.9878 42.2376C27.009 42.2821 27.0021 42.335 26.9701 42.3725C26.9381 42.4101 26.887 42.4253 26.8397 42.4113L19.7897 40.3363C19.7396 40.3216 19.704 40.2774 19.7003 40.2253C19.6966 40.1733 19.7255 40.1244 19.773 40.1028L24.748 37.8278ZM20.1812 40.191L26.6415 42.0924L24.7401 38.1063L20.1812 40.191Z" fill="#233447"/>
<path d="M37.1001 42.2914L39.1751 37.9414L44.1751 40.2164L37.1001 42.2914Z" fill="#233447"/>
<path fill-rule="evenodd" clip-rule="evenodd" d="M39.0623 37.8876C39.0916 37.8261 39.1648 37.7994 39.2269 37.8277L44.2269 40.1027C44.2744 40.1243 44.3035 40.1732 44.2998 40.2253C44.2961 40.2774 44.2604 40.3217 44.2103 40.3364L37.1353 42.4114C37.088 42.4253 37.0369 42.41 37.0049 42.3725C36.973 42.3349 36.966 42.2821 36.9873 42.2376L39.0623 37.8876ZM39.2351 38.1061L37.3334 42.0928L43.8175 40.1911L39.2351 38.1061Z" fill="#233447"/>
<path d="M18.875 55.7652L20.075 45.6152L12.25 45.8402L18.875 55.7652Z" fill="#CD6116"/>
<path fill-rule="evenodd" clip-rule="evenodd" d="M20.1672 45.5309C20.1918 45.5577 20.2034 45.5938 20.1991 45.6299L18.9991 55.7799C18.993 55.8319 18.9551 55.8746 18.9042 55.8868C18.8532 55.899 18.8001 55.8782 18.771 55.8346L12.146 45.9096C12.1208 45.8718 12.1181 45.8233 12.1389 45.7829C12.1598 45.7425 12.201 45.7166 12.2464 45.7153L20.0714 45.4903C20.1077 45.4892 20.1427 45.5041 20.1672 45.5309ZM12.4794 45.9587L18.7907 55.4138L19.9339 45.7443L12.4794 45.9587Z" fill="#CD6116"/>
<path d="M43.925 45.6152L45.1251 55.7652L51.7501 45.8402L43.925 45.6152Z" fill="#CD6116"/>
<path fill-rule="evenodd" clip-rule="evenodd" d="M43.8328 45.5309C43.8573 45.5041 43.8923 45.4892 43.9286 45.4903L51.7536 45.7153C51.7991 45.7166 51.8403 45.7425 51.8611 45.7829C51.882 45.8233 51.8793 45.8718 51.854 45.9096L45.229 55.8346C45.1999 55.8782 45.1468 55.899 45.0959 55.8868C45.045 55.8746 45.0071 55.8319 45.0009 55.7799L43.8009 45.6299C43.7966 45.5938 43.8083 45.5577 43.8328 45.5309ZM44.0662 45.7443L45.2094 55.4138L51.5207 45.9587L44.0662 45.7443Z" fill="#CD6116"/>
<path d="M49.875 34.4414L35.825 35.0664L37.125 42.2914L39.2 37.9414L44.2 40.2164L49.875 34.4414Z" fill="#CD6116"/>
<path fill-rule="evenodd" clip-rule="evenodd" d="M49.9891 34.3905C50.01 34.4374 50.0001 34.4924 49.9641 34.529L44.2891 40.304C44.2523 40.3415 44.196 40.3519 44.1482 40.3302L39.2599 38.106L37.2378 42.3452C37.2144 42.3942 37.1621 42.4225 37.1083 42.4153C37.0545 42.4081 37.0115 42.367 37.0019 42.3135L35.7019 35.0885C35.6955 35.0531 35.7048 35.0165 35.7273 34.9884C35.7498 34.9602 35.7834 34.9431 35.8194 34.9415L49.8694 34.3165C49.9207 34.3142 49.9682 34.3436 49.9891 34.3905ZM35.9733 35.1849L37.1792 41.8873L39.0871 37.8876C39.1165 37.8261 39.1897 37.7994 39.2517 37.8276L44.1721 40.0664L49.5631 34.5804L35.9733 35.1849Z" fill="#CD6116"/>
<path d="M19.825 40.2164L24.825 37.9414L26.875 42.2914L28.2 35.0664L14.125 34.4414L19.825 40.2164Z" fill="#CD6116"/>
<path fill-rule="evenodd" clip-rule="evenodd" d="M14.0108 34.3906C14.0317 34.3437 14.0792 34.3142 14.1305 34.3165L28.2056 34.9415C28.2416 34.9431 28.2753 34.9603 28.2978 34.9885C28.3203 35.0168 28.3295 35.0534 28.323 35.089L26.998 42.314C26.9882 42.3674 26.945 42.4083 26.8911 42.4154C26.8373 42.4224 26.7851 42.3938 26.7619 42.3447L24.7645 38.1063L19.8768 40.3302C19.8291 40.3519 19.7729 40.3415 19.736 40.3042L14.036 34.5292C13.9999 34.4926 13.9899 34.4376 14.0108 34.3906ZM14.4378 34.5804L19.8527 40.0665L24.7732 37.8276C24.8355 37.7993 24.9089 37.8263 24.9381 37.8881L26.8222 41.8862L28.0512 35.1849L14.4378 34.5804Z" fill="#CD6116"/>
<path d="M14.125 34.4414L20.025 45.9414L19.825 40.2164L14.125 34.4414Z" fill="#E4751F"/>
<path fill-rule="evenodd" clip-rule="evenodd" d="M14.0517 34.3401C14.1017 34.304 14.1706 34.3097 14.214 34.3536L19.914 40.1286C19.936 40.1509 19.9488 40.1807 19.9499 40.212L20.1499 45.937C20.152 45.9956 20.1131 46.0476 20.0565 46.0624C19.9998 46.0771 19.9405 46.0506 19.9138 45.9985L14.0138 34.4985C13.9856 34.4436 14.0017 34.3763 14.0517 34.3401ZM14.6077 35.1084L19.8805 45.386L19.7018 40.2695L14.6077 35.1084Z" fill="#E4751F"/>
<path d="M44.2 40.2164L43.95 45.9414L49.875 34.4414L44.2 40.2164Z" fill="#E4751F"/>
<path fill-rule="evenodd" clip-rule="evenodd" d="M49.9482 34.3401C49.9983 34.3763 50.0144 34.4437 49.9861 34.4987L44.0611 45.9987C44.0342 46.0509 43.9746 46.0773 43.9179 46.0622C43.8611 46.0471 43.8225 45.9946 43.8251 45.936L44.0751 40.211C44.0764 40.1801 44.0891 40.1508 44.1108 40.1288L49.7858 34.3538C49.8291 34.3097 49.8981 34.3039 49.9482 34.3401ZM44.3227 40.2698L44.0997 45.3779L49.3862 35.1171L44.3227 40.2698Z" fill="#E4751F"/>
<path d="M28.2 35.0664L26.875 42.2914L28.525 50.8164L28.9 39.5914L28.2 35.0664Z" fill="#E4751F"/>
<path fill-rule="evenodd" clip-rule="evenodd" d="M28.2017 34.9414C28.2627 34.9423 28.3142 34.987 28.3235 35.0473L29.0235 39.5723C29.0247 39.58 29.0252 39.5878 29.0249 39.5956L28.6499 50.8206C28.6478 50.8842 28.5983 50.936 28.5349 50.941C28.4714 50.946 28.4144 50.9026 28.4023 50.8402L26.7523 42.3152C26.7493 42.2999 26.7492 42.2842 26.7521 42.2689L28.0771 35.0439C28.0881 34.9839 28.1408 34.9406 28.2017 34.9414ZM27.0022 42.2908L28.4371 49.7043L28.7747 39.5989L28.1895 35.8164L27.0022 42.2908Z" fill="#E4751F"/>
<path d="M35.8249 35.0664L35.1499 39.5664L35.4499 50.8164L37.1249 42.2914L35.8249 35.0664Z" fill="#E4751F"/>
<path fill-rule="evenodd" clip-rule="evenodd" d="M35.8231 34.9414C35.8843 34.9405 35.9371 34.9841 35.9479 35.0443L37.2479 42.2693C37.2507 42.2846 37.2506 42.3003 37.2476 42.3155L35.5726 50.8405C35.5603 50.903 35.5029 50.9463 35.4395 50.941C35.376 50.9356 35.3266 50.8834 35.3249 50.8197L35.0249 39.5697C35.0248 39.5624 35.0252 39.5551 35.0263 39.5479L35.7013 35.0479C35.7104 34.9874 35.7619 34.9423 35.8231 34.9414ZM35.8361 35.8345L35.2752 39.5741L35.5448 49.6852L36.9977 42.2904L35.8361 35.8345Z" fill="#E4751F"/>
<path d="M37.125 42.2918L35.45 50.8168L36.6499 51.6418L43.95 45.9418L44.2 40.2168L37.125 42.2918Z" fill="#F6851B"/>
<path fill-rule="evenodd" clip-rule="evenodd" d="M44.277 40.1184C44.3088 40.1433 44.3266 40.182 44.3248 40.2223L44.0748 45.9473C44.0732 45.9838 44.0557 46.0178 44.0269 46.0403L36.7269 51.7403C36.6839 51.7739 36.6241 51.7757 36.5791 51.7448L35.3791 50.9198C35.3381 50.8916 35.3177 50.8416 35.3273 50.7927L37.0023 42.2677C37.0113 42.2219 37.045 42.185 37.0898 42.1719L44.1648 40.0969C44.2035 40.0855 44.2453 40.0935 44.277 40.1184ZM37.233 42.3904L35.5884 50.7603L36.6453 51.4869L43.8276 45.8788L44.0675 40.3859L37.233 42.3904Z" fill="#F6851B"/>
<path d="M19.825 40.2168L20.025 45.9418L27.325 51.6418L28.525 50.8168L26.875 42.2918L19.825 40.2168Z" fill="#F6851B"/>
<path fill-rule="evenodd" clip-rule="evenodd" d="M19.7483 40.118C19.7801 40.0934 19.8217 40.0855 19.8602 40.0969L26.9102 42.1719C26.9551 42.1851 26.9888 42.2222 26.9977 42.268L28.6477 50.793C28.6571 50.8419 28.6367 50.8916 28.5958 50.9198L27.3958 51.7448C27.3508 51.7757 27.291 51.7739 27.248 51.7403L19.948 46.0403C19.9189 46.0176 19.9013 45.9831 19.9 45.9462L19.7 40.2212C19.6986 40.181 19.7166 40.1426 19.7483 40.118ZM19.9559 40.3856L20.1478 45.8792L27.3297 51.4869L28.3867 50.7602L26.7667 42.3902L19.9559 40.3856Z" fill="#F6851B"/>
<path d="M37.25 59.4906L37.325 57.1656L36.7 56.6156H27.275L26.7 57.1656L26.75 59.4906L18.875 55.7656L21.625 58.0156L27.2 61.8906H36.775L42.375 58.0156L45.125 55.7656L37.25 59.4906Z" fill="#C0AD9E"/>
<path fill-rule="evenodd" clip-rule="evenodd" d="M18.7694 55.6988C18.8031 55.6455 18.8714 55.6256 18.9285 55.6526L26.6207 59.2912L26.575 57.1683C26.5743 57.1333 26.5883 57.0995 26.6136 57.0753L27.1886 56.5253C27.2119 56.5031 27.2428 56.4906 27.275 56.4906H36.7C36.7304 56.4906 36.7598 56.5017 36.7826 56.5218L37.4076 57.0718C37.4356 57.0965 37.4511 57.1324 37.4499 57.1697L37.3815 59.2901L45.0716 55.6526C45.1287 55.6256 45.1969 55.6455 45.2307 55.6988C45.2644 55.7522 45.253 55.8224 45.2042 55.8624L42.4542 58.1124C42.4516 58.1145 42.4489 58.1165 42.4461 58.1184L36.8461 61.9934C36.8252 62.0079 36.8004 62.0156 36.775 62.0156H27.2C27.1745 62.0156 27.1496 62.0078 27.1287 61.9933L21.5537 58.1183C21.551 58.1164 21.5484 58.1145 21.5459 58.1124L18.7959 55.8624C18.747 55.8224 18.7356 55.7522 18.7694 55.6988ZM19.7435 56.3147L21.7004 57.9158L27.2392 61.7656H36.736L42.2997 57.9157L44.2565 56.3147L37.3035 59.6036C37.2641 59.6223 37.2179 59.619 37.1814 59.5952C37.145 59.5713 37.1237 59.5301 37.1251 59.4866L37.1982 57.2205L36.6528 56.7406H27.3252L26.8262 57.2179L26.875 59.488C26.8759 59.5313 26.8544 59.572 26.818 59.5955C26.7817 59.6191 26.7357 59.6222 26.6966 59.6036L19.7435 56.3147Z" fill="#C0AD9E"/>
<path d="M36.6499 51.6414L35.45 50.8164H28.5249L27.325 51.6414L26.7 57.1664L27.2749 56.6164H36.7L37.325 57.1664L36.6499 51.6414Z" fill="#161616"/>
<path fill-rule="evenodd" clip-rule="evenodd" d="M28.4541 50.7134C28.475 50.6991 28.4997 50.6914 28.525 50.6914H35.45C35.4752 50.6914 35.4999 50.6991 35.5208 50.7134L36.7208 51.5384C36.7503 51.5587 36.7697 51.5907 36.774 51.6262L37.449 57.1512C37.4553 57.2027 37.4292 57.2528 37.3833 57.277C37.3374 57.3012 37.2813 57.2945 37.2424 57.2602L36.6528 56.7414H27.3251L26.7864 57.2567C26.7483 57.2931 26.6916 57.3018 26.6444 57.2784C26.5973 57.255 26.5698 57.2046 26.5757 57.1524L27.2007 51.6274C27.2048 51.5914 27.2243 51.5589 27.2541 51.5384L28.4541 50.7134ZM28.5638 50.9414L27.4428 51.7121L26.863 56.8375L27.1885 56.5261C27.2118 56.5038 27.2428 56.4914 27.275 56.4914H36.7C36.7304 56.4914 36.7597 56.5025 36.7825 56.5226L37.1611 56.8557L36.5327 51.7125L35.4111 50.9414H28.5638Z" fill="#161616"/>
<path d="M61.7499 22.466L63.8749 12.266L60.6999 2.79102L36.6499 20.641L45.8999 28.466L58.9749 32.291L61.8749 28.916L60.6249 28.016L62.6249 26.191L61.0749 24.991L63.0749 23.466L61.7499 22.466Z" fill="#763D16"/>
<path fill-rule="evenodd" clip-rule="evenodd" d="M60.7374 2.67177C60.7756 2.68377 60.8057 2.71334 60.8184 2.7513L63.9934 12.2263C64.0005 12.2473 64.0018 12.2698 63.9973 12.2915L61.8884 22.414L63.1502 23.3662C63.1814 23.3898 63.1998 23.4266 63.1999 23.4657C63.2 23.5048 63.1818 23.5417 63.1507 23.5654L61.2801 24.9918L62.7014 26.0922C62.7306 26.1148 62.7483 26.1491 62.7498 26.186C62.7513 26.2228 62.7364 26.2585 62.7092 26.2834L60.8229 28.0046L61.9479 28.8146C61.9764 28.835 61.9949 28.8665 61.999 28.9012C62.0032 28.936 61.9925 28.9709 61.9697 28.9975L59.0697 32.3725C59.0377 32.4097 58.9869 32.4248 58.9398 32.411L45.8648 28.586C45.848 28.5811 45.8325 28.5727 45.8192 28.5615L36.5692 20.7365C36.54 20.7118 36.5238 20.6752 36.525 20.637C36.5262 20.5989 36.5448 20.5634 36.5754 20.5406L60.6254 2.69064C60.6576 2.66678 60.6992 2.65976 60.7374 2.67177ZM36.851 20.6474L45.9604 28.3535L58.9326 32.1484L61.6913 28.9379L60.5519 28.1175C60.5213 28.0955 60.5023 28.0608 60.5001 28.0232C60.4979 27.9856 60.5128 27.9491 60.5406 27.9237L62.4309 26.1989L60.9984 25.0899C60.9677 25.0661 60.9498 25.0294 60.9499 24.9906C60.9501 24.9517 60.9682 24.9152 60.9991 24.8916L62.8681 23.4665L61.6746 22.5658C61.636 22.5367 61.6177 22.4879 61.6275 22.4405L63.7456 12.2737L60.6361 2.99404L36.851 20.6474Z" fill="#763D16"/>
<path d="M0.125 12.266L2.25 22.466L0.900001 23.466L2.9 24.991L1.375 26.191L3.375 28.016L2.125 28.916L5 32.291L18.075 28.466L27.325 20.641L3.275 2.79102L0.125 12.266Z" fill="#763D16"/>
<path fill-rule="evenodd" clip-rule="evenodd" d="M3.23738 2.67181C3.27561 2.65975 3.31731 2.66675 3.3495 2.69064L27.3995 20.5406C27.4302 20.5634 27.4487 20.5989 27.4499 20.637C27.4512 20.6752 27.4349 20.7118 27.4057 20.7365L18.1557 28.5615C18.1424 28.5727 18.1269 28.5811 18.1101 28.586L5.0351 32.411C4.98781 32.4248 4.9368 32.4096 4.90485 32.3721L2.02984 28.9971C2.0072 28.9705 1.99671 28.9356 2.00091 28.901C2.00511 28.8663 2.02362 28.835 2.05196 28.8146L3.17699 28.0046L1.29074 26.2834C1.26361 26.2586 1.24874 26.2232 1.25008 26.1865C1.25142 26.1498 1.26884 26.1155 1.2977 26.0928L2.69589 24.9926L0.824208 23.5654C0.792956 23.5416 0.774731 23.5044 0.775004 23.4651C0.775277 23.4258 0.794017 23.389 0.825597 23.3656L2.11131 22.4132L0.00262746 12.2915C-0.00187154 12.2699 -0.000575722 12.2475 0.00638334 12.2266L3.15638 2.75158C3.16903 2.71354 3.19916 2.68387 3.23738 2.67181ZM3.33915 2.99429L0.254241 12.2735L2.37237 22.4405C2.38232 22.4883 2.36359 22.5374 2.3244 22.5665L1.10805 23.4675L2.97579 24.8916C3.00654 24.9151 3.0247 24.9514 3.025 24.9901C3.02529 25.0287 3.00768 25.0653 2.9773 25.0893L1.56818 26.1981L3.45926 27.9237C3.48708 27.9491 3.50197 27.9856 3.49979 28.0232C3.49761 28.0608 3.4786 28.0955 3.44804 28.1175L2.30811 28.9382L5.04264 32.1483L18.0145 28.3535L27.1239 20.6474L3.33915 2.99429Z" fill="#763D16"/>
<path d="M58.975 32.2918L45.8999 28.4668L49.875 34.4418L43.95 45.9418L51.75 45.8418H63.3749L58.975 32.2918Z" fill="#F6851B"/>
<path fill-rule="evenodd" clip-rule="evenodd" d="M45.7993 28.3927C45.8304 28.3504 45.8846 28.3321 45.935 28.3468L59.0101 32.1718C59.0497 32.1834 59.0811 32.2139 59.0938 32.2532L63.4938 45.8032C63.5062 45.8413 63.4996 45.8829 63.4761 45.9153C63.4525 45.9477 63.415 45.9668 63.3749 45.9668H51.75L43.9516 46.0668C43.9077 46.0674 43.8667 46.0449 43.8436 46.0076C43.8206 45.9702 43.8187 45.9236 43.8388 45.8846L49.7302 34.4499L45.7959 28.536C45.7668 28.4923 45.7681 28.4351 45.7993 28.3927ZM46.1939 28.6831L49.979 34.3726C50.0041 34.4103 50.0068 34.4587 49.9861 34.4991L44.1563 45.8141L51.75 45.7168L63.2029 45.7168L58.8765 32.3932L46.1939 28.6831Z" fill="#F6851B"/>
<path d="M18.0749 28.4668L4.9999 32.2918L0.649902 45.8418H12.2499L20.0249 45.9418L14.1249 34.4418L18.0749 28.4668Z" fill="#F6851B"/>
<path fill-rule="evenodd" clip-rule="evenodd" d="M18.1755 28.3926C18.2066 28.4348 18.2081 28.492 18.1792 28.5357L14.2695 34.4498L20.1361 45.8847C20.1561 45.9238 20.1542 45.9704 20.1312 46.0077C20.1081 46.0449 20.0671 46.0674 20.0233 46.0668L12.2499 45.9668H0.649903C0.609968 45.9668 0.572436 45.9477 0.548906 45.9155C0.525375 45.8832 0.518679 45.8416 0.530886 45.8036L4.88089 32.2536C4.89356 32.2141 4.925 32.1835 4.96481 32.1718L18.0398 28.3468C18.0902 28.3321 18.1443 28.3504 18.1755 28.3926ZM5.09865 32.3932L0.821316 45.7168H12.2515L19.8189 45.8141L14.0137 34.4989C13.9931 34.4587 13.9957 34.4105 14.0206 34.3729L17.7824 28.6826L5.09865 32.3932Z" fill="#F6851B"/>
<path d="M35.825 35.0652L36.65 20.6402L40.45 10.3652H23.575L27.325 20.6402L28.2 35.0652L28.5 39.6152L28.525 50.8152H35.45L35.5 39.6152L35.825 35.0652Z" fill="#F6851B"/>
<path fill-rule="evenodd" clip-rule="evenodd" d="M23.4725 10.2936C23.4959 10.2601 23.5341 10.2402 23.575 10.2402H40.45C40.4909 10.2402 40.5292 10.2602 40.5525 10.2938C40.5759 10.3274 40.5814 10.3702 40.5672 10.4086L36.7737 20.666L35.9498 35.0724L35.9496 35.0741L35.6249 39.62L35.575 50.8158C35.5746 50.8846 35.5188 50.9402 35.45 50.9402H28.525C28.456 50.9402 28.4001 50.8844 28.4 50.8155L28.375 39.6195L28.0752 35.0735L28.0752 35.0728L27.2013 20.666L23.4575 10.4081C23.4435 10.3698 23.4491 10.327 23.4725 10.2936ZM23.7536 10.4902L27.4424 20.5974C27.4465 20.6087 27.449 20.6206 27.4497 20.6327L28.3247 35.057L28.3247 35.0577L28.6247 39.607C28.6249 39.6097 28.6249 39.6123 28.625 39.615L28.6497 50.6902H35.3255L35.375 39.6147C35.375 39.6119 35.3751 39.6091 35.3753 39.6063L35.7002 35.0581L35.7003 35.0563L36.5252 20.6331C36.5259 20.6207 36.5284 20.6085 36.5327 20.5969L40.2705 10.4902H23.7536Z" fill="#F6851B"/>
</svg>
