<svg width="14" height="14" viewBox="0 0 14 14" fill="none" xmlns="http://www.w3.org/2000/svg">
<path d="M1.29297 6.29158H5.27963C6.01231 6.29158 6.43612 5.87074 6.43612 5.15531V1.26954C6.43612 0.90481 6.15598 0.617234 5.77527 0.617234C5.39456 0.617234 5.1216 0.897796 5.1216 1.26954V1.85872L5.27245 4.30661L3.37609 2.36373L1.17086 0.189379C1.04874 0.0631263 0.88353 0 0.711134 0C0.301693 0 0 0.266533 0 0.659319C0 0.841683 0.0718317 1.01703 0.201129 1.14329L2.41355 3.30361L4.40328 5.1483L1.89636 5.00802H1.29297C0.912263 5.00802 0.617753 5.26754 0.617753 5.64629C0.617753 6.01804 0.90508 6.29158 1.29297 6.29158ZM8.18163 13.4108C8.56234 13.4108 8.8353 13.1373 8.8353 12.7585V12.0922L8.68445 9.6513L10.5808 11.5942L12.8363 13.8106C12.9584 13.9369 13.1165 14 13.296 14C13.6983 14 14 13.7335 14 13.3407C14 13.1583 13.9354 12.983 13.8061 12.8567L11.5434 10.6473L9.54643 8.80261L12.0605 8.94289H12.7429C13.1237 8.94289 13.4182 8.68337 13.4182 8.31162C13.4182 7.93287 13.1308 7.66633 12.7429 7.66633H8.67727C7.94459 7.66633 7.52078 8.08016 7.52078 8.79559V12.7585C7.52078 13.1303 7.79374 13.4108 8.18163 13.4108Z" fill="#4376FF"/>
</svg>
