<svg width="16" height="16" viewBox="0 0 16 16" fill="none" xmlns="http://www.w3.org/2000/svg">
<path d="M3.41888 7.99672C3.41888 7.05504 2.65536 6.3 1.69671 6.3C0.763521 6.3 0 7.05504 0 7.99672C0 8.93839 0.763521 9.69343 1.69671 9.69343C2.65536 9.69343 3.41888 8.93839 3.41888 7.99672ZM9.69671 7.99672C9.69671 7.05504 8.94168 6.3 8 6.3C7.06681 6.3 6.31177 7.05504 6.31177 7.99672C6.31177 8.93839 7.06681 9.69343 8 9.69343C8.94168 9.69343 9.69671 8.93839 9.69671 7.99672ZM16 7.99672C16 7.05504 15.245 6.3 14.3033 6.3C13.3446 6.3 12.5896 7.05504 12.5896 7.99672C12.5896 8.93839 13.3446 9.69343 14.3033 9.69343C15.245 9.69343 16 8.93839 16 7.99672Z" fill="#90949E"/>
</svg>
