<svg width="355" height="268" viewBox="0 0 355 268" fill="none" xmlns="http://www.w3.org/2000/svg">
<path d="M210.45 67.1514C212.277 67.1514 213.251 66.1889 213.251 64.8696C213.251 63.6909 212.342 62.9772 211.077 62.7068L210.039 62.4797C209.217 62.2959 208.838 61.9931 208.838 61.3767C208.838 60.7278 209.357 60.252 210.298 60.252C211.488 60.252 211.942 61.0198 212.115 61.5281L213.132 61.0631C212.904 60.3061 212.061 59.2787 210.396 59.2787C208.795 59.2787 207.757 60.2087 207.757 61.4307C207.757 62.7176 208.557 63.2908 209.736 63.5395L210.742 63.7666C211.672 63.9612 212.115 64.3397 212.115 64.9669C212.115 65.6807 211.553 66.1781 210.515 66.1781C209.325 66.1781 208.698 65.4428 208.427 64.5776L207.378 65.0535C207.735 66.243 208.763 67.1514 210.45 67.1514ZM217.024 64.4154C216.776 65.14 216.711 65.3454 216.613 65.6374C216.516 65.3779 216.419 65.14 216.062 64.3073L214.959 61.6362H213.823L216.192 66.9351L215.921 67.7029C215.77 68.1139 215.554 68.2004 215.186 68.2004H214.105V69.1088H215.218C216.159 69.1088 216.559 68.7735 216.905 67.757L219.014 61.6362H217.944L217.024 64.4154ZM221.175 67V64.6858C221.175 63.9288 221.196 62.3716 222.602 62.3716C223.294 62.3716 223.738 62.7609 223.738 63.7233V67H224.754V63.4854C224.754 62.2959 224.214 61.4848 222.894 61.4848C221.77 61.4848 221.25 62.2742 221.142 62.5338V61.6362H220.158V67H221.175ZM228.258 67.1514C229.199 67.1514 229.729 66.6323 229.989 66.1889V67H230.983V59.4301H229.967V61.4199V62.4581C229.707 62.0147 229.188 61.4848 228.258 61.4848C226.993 61.4848 226.052 62.5662 226.052 64.3289C226.052 66.0808 226.993 67.1514 228.258 67.1514ZM228.539 66.2863C227.718 66.2863 227.101 65.7888 227.101 64.3289C227.101 62.8798 227.718 62.3499 228.539 62.3499C229.405 62.3499 230.021 63.0096 230.021 64.3289C230.021 65.6482 229.405 66.2863 228.539 66.2863ZM233.795 60.6413V59.4301H232.714V60.6413H233.795ZM233.774 67V61.6362H232.746V67H233.774ZM237.73 67.1514C238.941 67.1514 239.752 66.4485 240.109 65.4536L239.146 65.1183C238.963 65.7131 238.562 66.2755 237.719 66.2755C236.865 66.2755 236.183 65.6482 236.183 64.3181C236.183 63.0096 236.875 62.3607 237.708 62.3607C238.454 62.3607 238.844 62.8366 239.027 63.3665L239.979 63.042C239.709 62.1985 238.941 61.4848 237.719 61.4848C236.216 61.4848 235.124 62.6419 235.124 64.3181C235.124 66.0484 236.162 67.1514 237.73 67.1514ZM242.674 67.1514C243.529 67.1514 244.048 66.7729 244.426 66.1889C244.491 66.6431 244.642 67 245.421 67H246.2V66.1349H245.648C245.399 66.1349 245.335 66.07 245.335 65.8213V63.3665C245.335 62.2094 244.642 61.4848 243.193 61.4848C241.777 61.4848 241.009 62.2526 240.836 62.988L241.809 63.3016C241.95 62.8906 242.253 62.3391 243.193 62.3391C243.983 62.3391 244.318 62.7176 244.318 63.334V63.4962C242.577 63.6368 240.944 64.1343 240.944 65.6158C240.944 66.5674 241.625 67.1514 242.674 67.1514ZM242.945 66.3187C242.307 66.3187 241.993 66.0159 241.993 65.5293C241.993 64.675 243.064 64.3614 244.318 64.2316V64.7831C244.318 65.8537 243.626 66.3187 242.945 66.3187ZM250.278 67V66.1241H249.153C248.786 66.1241 248.623 65.9618 248.623 65.5942V62.4797H250.073V61.6362H248.623V59.96H247.607V61.6362H246.385V62.4797H247.607V65.6807C247.607 66.5674 248.072 67 248.959 67H250.278ZM253.452 67.1514C254.566 67.1514 255.42 66.6323 255.809 65.605L254.879 65.2697C254.728 65.6482 254.349 66.2971 253.484 66.2971C252.749 66.2971 252.035 65.8645 251.992 64.5776H255.766C255.961 62.8258 255.009 61.4848 253.409 61.4848C252.014 61.4848 250.975 62.5878 250.975 64.3397C250.975 66.1457 251.959 67.1514 253.452 67.1514ZM252.014 63.7666C252.1 62.8366 252.716 62.2959 253.409 62.2959C254.122 62.2959 254.728 62.8041 254.739 63.7666H252.014ZM261.757 67.1514C262.698 67.1514 263.227 66.6323 263.487 66.1889V67H264.482V59.4301H263.465V61.4199V62.4581C263.206 62.0147 262.687 61.4848 261.757 61.4848C260.491 61.4848 259.551 62.5662 259.551 64.3289C259.551 66.0808 260.491 67.1514 261.757 67.1514ZM262.038 66.2863C261.216 66.2863 260.6 65.7888 260.6 64.3289C260.6 62.8798 261.216 62.3499 262.038 62.3499C262.903 62.3499 263.519 63.0096 263.519 64.3289C263.519 65.6482 262.903 66.2863 262.038 66.2863ZM268.332 67.1514C269.446 67.1514 270.3 66.6323 270.689 65.605L269.759 65.2697C269.608 65.6482 269.229 66.2971 268.364 66.2971C267.629 66.2971 266.915 65.8645 266.872 64.5776H270.646C270.841 62.8258 269.889 61.4848 268.289 61.4848C266.893 61.4848 265.855 62.5878 265.855 64.3397C265.855 66.1457 266.839 67.1514 268.332 67.1514ZM266.893 63.7666C266.98 62.8366 267.596 62.2959 268.289 62.2959C269.002 62.2959 269.608 62.8041 269.619 63.7666H266.893ZM273.459 67.1514C274.313 67.1514 274.832 66.7729 275.21 66.1889C275.275 66.6431 275.427 67 276.205 67H276.984V66.1349H276.432C276.184 66.1349 276.119 66.07 276.119 65.8213V63.3665C276.119 62.2094 275.427 61.4848 273.978 61.4848C272.561 61.4848 271.793 62.2526 271.62 62.988L272.593 63.3016C272.734 62.8906 273.037 62.3391 273.978 62.3391C274.767 62.3391 275.102 62.7176 275.102 63.334V63.4962C273.361 63.6368 271.728 64.1343 271.728 65.6158C271.728 66.5674 272.41 67.1514 273.459 67.1514ZM273.729 66.3187C273.091 66.3187 272.777 66.0159 272.777 65.5293C272.777 64.675 273.848 64.3614 275.102 64.2316V64.7831C275.102 65.8537 274.41 66.3187 273.729 66.3187ZM278.963 67V59.4301H277.946V67H278.963Z" fill="#A4DEFF"/>
<rect x="191.5" y="45.5" width="154" height="123" rx="5.67949" stroke="#A4DEFF"/>
<rect x="197.5" y="38.5" width="154" height="122" rx="5.67949" stroke="#A4DEFF"/>
<circle cx="200.5" cy="80.5" r="0.5" fill="#A4DEFF"/>
<circle cx="204.5" cy="80.5" r="0.5" fill="#A4DEFF"/>
<circle cx="208.5" cy="80.5" r="0.5" fill="#A4DEFF"/>
<circle cx="212.5" cy="80.5" r="0.5" fill="#A4DEFF"/>
<circle cx="216.5" cy="80.5" r="0.5" fill="#A4DEFF"/>
<circle cx="220.5" cy="80.5" r="0.5" fill="#A4DEFF"/>
<circle cx="224.5" cy="80.5" r="0.5" fill="#A4DEFF"/>
<circle cx="228.5" cy="80.5" r="0.5" fill="#A4DEFF"/>
<circle cx="232.5" cy="80.5" r="0.5" fill="#A4DEFF"/>
<circle cx="236.5" cy="80.5" r="0.5" fill="#A4DEFF"/>
<circle cx="240.5" cy="80.5" r="0.5" fill="#A4DEFF"/>
<circle cx="244.5" cy="80.5" r="0.5" fill="#A4DEFF"/>
<circle cx="248.5" cy="80.5" r="0.5" fill="#A4DEFF"/>
<circle cx="252.5" cy="80.5" r="0.5" fill="#A4DEFF"/>
<circle cx="256.5" cy="80.5" r="0.5" fill="#A4DEFF"/>
<circle cx="260.5" cy="80.5" r="0.5" fill="#A4DEFF"/>
<circle cx="264.5" cy="80.5" r="0.5" fill="#A4DEFF"/>
<circle cx="268.5" cy="80.5" r="0.5" fill="#A4DEFF"/>
<circle cx="272.5" cy="80.5" r="0.5" fill="#A4DEFF"/>
<circle cx="276.5" cy="80.5" r="0.5" fill="#A4DEFF"/>
<circle cx="280.5" cy="80.5" r="0.5" fill="#A4DEFF"/>
<circle cx="284.5" cy="80.5" r="0.5" fill="#A4DEFF"/>
<circle cx="288.5" cy="80.5" r="0.5" fill="#A4DEFF"/>
<circle cx="292.5" cy="80.5" r="0.5" fill="#A4DEFF"/>
<circle cx="296.5" cy="80.5" r="0.5" fill="#A4DEFF"/>
<circle cx="300.5" cy="80.5" r="0.5" fill="#A4DEFF"/>
<circle cx="304.5" cy="80.5" r="0.5" fill="#A4DEFF"/>
<circle cx="308.5" cy="80.5" r="0.5" fill="#A4DEFF"/>
<circle cx="312.5" cy="80.5" r="0.5" fill="#A4DEFF"/>
<circle cx="316.5" cy="80.5" r="0.5" fill="#A4DEFF"/>
<circle cx="320.5" cy="80.5" r="0.5" fill="#A4DEFF"/>
<circle cx="324.5" cy="80.5" r="0.5" fill="#A4DEFF"/>
<circle cx="328.5" cy="80.5" r="0.5" fill="#A4DEFF"/>
<circle cx="332.5" cy="80.5" r="0.5" fill="#A4DEFF"/>
<circle cx="336.5" cy="80.5" r="0.5" fill="#A4DEFF"/>
<circle cx="340.5" cy="80.5" r="0.5" fill="#A4DEFF"/>
<circle cx="344.5" cy="80.5" r="0.5" fill="#A4DEFF"/>
<circle cx="200.5" cy="84.5" r="0.5" fill="#A4DEFF"/>
<circle cx="204.5" cy="84.5" r="0.5" fill="#A4DEFF"/>
<circle cx="208.5" cy="84.5" r="0.5" fill="#A4DEFF"/>
<circle cx="212.5" cy="84.5" r="0.5" fill="#A4DEFF"/>
<circle cx="216.5" cy="84.5" r="0.5" fill="#A4DEFF"/>
<circle cx="220.5" cy="84.5" r="0.5" fill="#A4DEFF"/>
<circle cx="224.5" cy="84.5" r="0.5" fill="#A4DEFF"/>
<circle cx="228.5" cy="84.5" r="0.5" fill="#A4DEFF"/>
<circle cx="232.5" cy="84.5" r="0.5" fill="#A4DEFF"/>
<circle cx="236.5" cy="84.5" r="0.5" fill="#A4DEFF"/>
<circle cx="240.5" cy="84.5" r="0.5" fill="#A4DEFF"/>
<circle cx="244.5" cy="84.5" r="0.5" fill="#A4DEFF"/>
<circle cx="248.5" cy="84.5" r="0.5" fill="#A4DEFF"/>
<circle cx="252.5" cy="84.5" r="0.5" fill="#A4DEFF"/>
<circle cx="256.5" cy="84.5" r="0.5" fill="#A4DEFF"/>
<circle cx="260.5" cy="84.5" r="0.5" fill="#A4DEFF"/>
<circle cx="264.5" cy="84.5" r="0.5" fill="#A4DEFF"/>
<circle cx="268.5" cy="84.5" r="0.5" fill="#A4DEFF"/>
<circle cx="272.5" cy="84.5" r="0.5" fill="#A4DEFF"/>
<circle cx="276.5" cy="84.5" r="0.5" fill="#A4DEFF"/>
<circle cx="280.5" cy="84.5" r="0.5" fill="#A4DEFF"/>
<circle cx="284.5" cy="84.5" r="0.5" fill="#A4DEFF"/>
<circle cx="288.5" cy="84.5" r="0.5" fill="#A4DEFF"/>
<circle cx="292.5" cy="84.5" r="0.5" fill="#A4DEFF"/>
<circle cx="296.5" cy="84.5" r="0.5" fill="#A4DEFF"/>
<circle cx="300.5" cy="84.5" r="0.5" fill="#A4DEFF"/>
<circle cx="304.5" cy="84.5" r="0.5" fill="#A4DEFF"/>
<circle cx="308.5" cy="84.5" r="0.5" fill="#A4DEFF"/>
<circle cx="312.5" cy="84.5" r="0.5" fill="#A4DEFF"/>
<circle cx="316.5" cy="84.5" r="0.5" fill="#A4DEFF"/>
<circle cx="320.5" cy="84.5" r="0.5" fill="#A4DEFF"/>
<circle cx="324.5" cy="84.5" r="0.5" fill="#A4DEFF"/>
<circle cx="328.5" cy="84.5" r="0.5" fill="#A4DEFF"/>
<circle cx="332.5" cy="84.5" r="0.5" fill="#A4DEFF"/>
<circle cx="336.5" cy="84.5" r="0.5" fill="#A4DEFF"/>
<circle cx="340.5" cy="84.5" r="0.5" fill="#A4DEFF"/>
<circle cx="344.5" cy="84.5" r="0.5" fill="#A4DEFF"/>
<circle cx="200.5" cy="88.5" r="0.5" fill="#A4DEFF"/>
<circle cx="204.5" cy="88.5" r="0.5" fill="#A4DEFF"/>
<circle cx="208.5" cy="88.5" r="0.5" fill="#A4DEFF"/>
<circle cx="212.5" cy="88.5" r="0.5" fill="#A4DEFF"/>
<circle cx="216.5" cy="88.5" r="0.5" fill="#A4DEFF"/>
<circle cx="220.5" cy="88.5" r="0.5" fill="#A4DEFF"/>
<circle cx="224.5" cy="88.5" r="0.5" fill="#A4DEFF"/>
<circle cx="228.5" cy="88.5" r="0.5" fill="#A4DEFF"/>
<circle cx="232.5" cy="88.5" r="0.5" fill="#A4DEFF"/>
<circle cx="236.5" cy="88.5" r="0.5" fill="#A4DEFF"/>
<circle cx="240.5" cy="88.5" r="0.5" fill="#A4DEFF"/>
<circle cx="244.5" cy="88.5" r="0.5" fill="#A4DEFF"/>
<circle cx="248.5" cy="88.5" r="0.5" fill="#A4DEFF"/>
<circle cx="252.5" cy="88.5" r="0.5" fill="#A4DEFF"/>
<circle cx="256.5" cy="88.5" r="0.5" fill="#A4DEFF"/>
<circle cx="260.5" cy="88.5" r="0.5" fill="#A4DEFF"/>
<circle cx="264.5" cy="88.5" r="0.5" fill="#A4DEFF"/>
<circle cx="268.5" cy="88.5" r="0.5" fill="#A4DEFF"/>
<circle cx="272.5" cy="88.5" r="0.5" fill="#A4DEFF"/>
<circle cx="276.5" cy="88.5" r="0.5" fill="#A4DEFF"/>
<circle cx="280.5" cy="88.5" r="0.5" fill="#A4DEFF"/>
<circle cx="284.5" cy="88.5" r="0.5" fill="#A4DEFF"/>
<circle cx="288.5" cy="88.5" r="0.5" fill="#A4DEFF"/>
<circle cx="292.5" cy="88.5" r="0.5" fill="#A4DEFF"/>
<circle cx="296.5" cy="88.5" r="0.5" fill="#A4DEFF"/>
<circle cx="300.5" cy="88.5" r="0.5" fill="#A4DEFF"/>
<circle cx="304.5" cy="88.5" r="0.5" fill="#A4DEFF"/>
<circle cx="308.5" cy="88.5" r="0.5" fill="#A4DEFF"/>
<circle cx="312.5" cy="88.5" r="0.5" fill="#A4DEFF"/>
<circle cx="316.5" cy="88.5" r="0.5" fill="#A4DEFF"/>
<circle cx="320.5" cy="88.5" r="0.5" fill="#A4DEFF"/>
<circle cx="324.5" cy="88.5" r="0.5" fill="#A4DEFF"/>
<circle cx="328.5" cy="88.5" r="0.5" fill="#A4DEFF"/>
<circle cx="332.5" cy="88.5" r="0.5" fill="#A4DEFF"/>
<circle cx="336.5" cy="88.5" r="0.5" fill="#A4DEFF"/>
<circle cx="340.5" cy="88.5" r="0.5" fill="#A4DEFF"/>
<circle cx="344.5" cy="88.5" r="0.5" fill="#A4DEFF"/>
<circle cx="200.5" cy="92.5" r="0.5" fill="#A4DEFF"/>
<circle cx="204.5" cy="92.5" r="0.5" fill="#A4DEFF"/>
<circle cx="208.5" cy="92.5" r="0.5" fill="#A4DEFF"/>
<circle cx="212.5" cy="92.5" r="0.5" fill="#A4DEFF"/>
<circle cx="216.5" cy="92.5" r="0.5" fill="#A4DEFF"/>
<circle cx="220.5" cy="92.5" r="0.5" fill="#A4DEFF"/>
<circle cx="224.5" cy="92.5" r="0.5" fill="#A4DEFF"/>
<circle cx="228.5" cy="92.5" r="0.5" fill="#A4DEFF"/>
<circle cx="232.5" cy="92.5" r="0.5" fill="#A4DEFF"/>
<circle cx="236.5" cy="92.5" r="0.5" fill="#A4DEFF"/>
<circle cx="240.5" cy="92.5" r="0.5" fill="#A4DEFF"/>
<circle cx="244.5" cy="92.5" r="0.5" fill="#A4DEFF"/>
<circle cx="248.5" cy="92.5" r="0.5" fill="#A4DEFF"/>
<circle cx="252.5" cy="92.5" r="0.5" fill="#A4DEFF"/>
<circle cx="256.5" cy="92.5" r="0.5" fill="#A4DEFF"/>
<circle cx="260.5" cy="92.5" r="0.5" fill="#A4DEFF"/>
<circle cx="264.5" cy="92.5" r="0.5" fill="#A4DEFF"/>
<circle cx="268.5" cy="92.5" r="0.5" fill="#A4DEFF"/>
<circle cx="272.5" cy="92.5" r="0.5" fill="#A4DEFF"/>
<circle cx="276.5" cy="92.5" r="0.5" fill="#A4DEFF"/>
<circle cx="280.5" cy="92.5" r="0.5" fill="#A4DEFF"/>
<circle cx="284.5" cy="92.5" r="0.5" fill="#A4DEFF"/>
<circle cx="288.5" cy="92.5" r="0.5" fill="#A4DEFF"/>
<circle cx="292.5" cy="92.5" r="0.5" fill="#A4DEFF"/>
<circle cx="296.5" cy="92.5" r="0.5" fill="#A4DEFF"/>
<circle cx="300.5" cy="92.5" r="0.5" fill="#A4DEFF"/>
<circle cx="304.5" cy="92.5" r="0.5" fill="#A4DEFF"/>
<circle cx="308.5" cy="92.5" r="0.5" fill="#A4DEFF"/>
<circle cx="312.5" cy="92.5" r="0.5" fill="#A4DEFF"/>
<circle cx="316.5" cy="92.5" r="0.5" fill="#A4DEFF"/>
<circle cx="320.5" cy="92.5" r="0.5" fill="#A4DEFF"/>
<circle cx="324.5" cy="92.5" r="0.5" fill="#A4DEFF"/>
<circle cx="328.5" cy="92.5" r="0.5" fill="#A4DEFF"/>
<circle cx="332.5" cy="92.5" r="0.5" fill="#A4DEFF"/>
<circle cx="336.5" cy="92.5" r="0.5" fill="#A4DEFF"/>
<circle cx="340.5" cy="92.5" r="0.5" fill="#A4DEFF"/>
<circle cx="344.5" cy="92.5" r="0.5" fill="#A4DEFF"/>
<circle cx="200.5" cy="96.5" r="0.5" fill="#A4DEFF"/>
<circle cx="204.5" cy="96.5" r="0.5" fill="#A4DEFF"/>
<circle cx="208.5" cy="96.5" r="0.5" fill="#A4DEFF"/>
<circle cx="212.5" cy="96.5" r="0.5" fill="#A4DEFF"/>
<circle cx="216.5" cy="96.5" r="0.5" fill="#A4DEFF"/>
<circle cx="220.5" cy="96.5" r="0.5" fill="#A4DEFF"/>
<circle cx="224.5" cy="96.5" r="0.5" fill="#A4DEFF"/>
<circle cx="228.5" cy="96.5" r="0.5" fill="#A4DEFF"/>
<circle cx="232.5" cy="96.5" r="0.5" fill="#A4DEFF"/>
<circle cx="236.5" cy="96.5" r="0.5" fill="#A4DEFF"/>
<circle cx="240.5" cy="96.5" r="0.5" fill="#A4DEFF"/>
<circle cx="244.5" cy="96.5" r="0.5" fill="#A4DEFF"/>
<circle cx="248.5" cy="96.5" r="0.5" fill="#A4DEFF"/>
<circle cx="252.5" cy="96.5" r="0.5" fill="#A4DEFF"/>
<circle cx="256.5" cy="96.5" r="0.5" fill="#A4DEFF"/>
<circle cx="260.5" cy="96.5" r="0.5" fill="#A4DEFF"/>
<circle cx="264.5" cy="96.5" r="0.5" fill="#A4DEFF"/>
<circle cx="268.5" cy="96.5" r="0.5" fill="#A4DEFF"/>
<circle cx="272.5" cy="96.5" r="0.5" fill="#A4DEFF"/>
<circle cx="276.5" cy="96.5" r="0.5" fill="#A4DEFF"/>
<circle cx="280.5" cy="96.5" r="0.5" fill="#A4DEFF"/>
<circle cx="284.5" cy="96.5" r="0.5" fill="#A4DEFF"/>
<circle cx="288.5" cy="96.5" r="0.5" fill="#A4DEFF"/>
<circle cx="292.5" cy="96.5" r="0.5" fill="#A4DEFF"/>
<circle cx="296.5" cy="96.5" r="0.5" fill="#A4DEFF"/>
<circle cx="300.5" cy="96.5" r="0.5" fill="#A4DEFF"/>
<circle cx="304.5" cy="96.5" r="0.5" fill="#A4DEFF"/>
<circle cx="308.5" cy="96.5" r="0.5" fill="#A4DEFF"/>
<circle cx="312.5" cy="96.5" r="0.5" fill="#A4DEFF"/>
<circle cx="316.5" cy="96.5" r="0.5" fill="#A4DEFF"/>
<circle cx="320.5" cy="96.5" r="0.5" fill="#A4DEFF"/>
<circle cx="324.5" cy="96.5" r="0.5" fill="#A4DEFF"/>
<circle cx="328.5" cy="96.5" r="0.5" fill="#A4DEFF"/>
<circle cx="332.5" cy="96.5" r="0.5" fill="#A4DEFF"/>
<circle cx="336.5" cy="96.5" r="0.5" fill="#A4DEFF"/>
<circle cx="340.5" cy="96.5" r="0.5" fill="#A4DEFF"/>
<circle cx="344.5" cy="96.5" r="0.5" fill="#A4DEFF"/>
<circle cx="200.5" cy="100.5" r="0.5" fill="#A4DEFF"/>
<circle cx="204.5" cy="100.5" r="0.5" fill="#A4DEFF"/>
<circle cx="208.5" cy="100.5" r="0.5" fill="#A4DEFF"/>
<circle cx="212.5" cy="100.5" r="0.5" fill="#A4DEFF"/>
<circle cx="216.5" cy="100.5" r="0.5" fill="#A4DEFF"/>
<circle cx="220.5" cy="100.5" r="0.5" fill="#A4DEFF"/>
<circle cx="224.5" cy="100.5" r="0.5" fill="#A4DEFF"/>
<circle cx="228.5" cy="100.5" r="0.5" fill="#A4DEFF"/>
<circle cx="232.5" cy="100.5" r="0.5" fill="#A4DEFF"/>
<circle cx="236.5" cy="100.5" r="0.5" fill="#A4DEFF"/>
<circle cx="240.5" cy="100.5" r="0.5" fill="#A4DEFF"/>
<circle cx="244.5" cy="100.5" r="0.5" fill="#A4DEFF"/>
<circle cx="248.5" cy="100.5" r="0.5" fill="#A4DEFF"/>
<circle cx="252.5" cy="100.5" r="0.5" fill="#A4DEFF"/>
<circle cx="256.5" cy="100.5" r="0.5" fill="#A4DEFF"/>
<circle cx="260.5" cy="100.5" r="0.5" fill="#A4DEFF"/>
<circle cx="264.5" cy="100.5" r="0.5" fill="#A4DEFF"/>
<circle cx="268.5" cy="100.5" r="0.5" fill="#A4DEFF"/>
<circle cx="272.5" cy="100.5" r="0.5" fill="#A4DEFF"/>
<circle cx="276.5" cy="100.5" r="0.5" fill="#A4DEFF"/>
<circle cx="280.5" cy="100.5" r="0.5" fill="#A4DEFF"/>
<circle cx="284.5" cy="100.5" r="0.5" fill="#A4DEFF"/>
<circle cx="288.5" cy="100.5" r="0.5" fill="#A4DEFF"/>
<circle cx="292.5" cy="100.5" r="0.5" fill="#A4DEFF"/>
<circle cx="296.5" cy="100.5" r="0.5" fill="#A4DEFF"/>
<circle cx="300.5" cy="100.5" r="0.5" fill="#A4DEFF"/>
<circle cx="304.5" cy="100.5" r="0.5" fill="#A4DEFF"/>
<circle cx="308.5" cy="100.5" r="0.5" fill="#A4DEFF"/>
<circle cx="312.5" cy="100.5" r="0.5" fill="#A4DEFF"/>
<circle cx="316.5" cy="100.5" r="0.5" fill="#A4DEFF"/>
<circle cx="320.5" cy="100.5" r="0.5" fill="#A4DEFF"/>
<circle cx="324.5" cy="100.5" r="0.5" fill="#A4DEFF"/>
<circle cx="328.5" cy="100.5" r="0.5" fill="#A4DEFF"/>
<circle cx="332.5" cy="100.5" r="0.5" fill="#A4DEFF"/>
<circle cx="336.5" cy="100.5" r="0.5" fill="#A4DEFF"/>
<circle cx="340.5" cy="100.5" r="0.5" fill="#A4DEFF"/>
<circle cx="345" cy="101" r="1" fill="#A4DEFF"/>
<circle cx="200.5" cy="104.5" r="0.5" fill="#A4DEFF"/>
<circle cx="204.5" cy="104.5" r="0.5" fill="#A4DEFF"/>
<circle cx="208.5" cy="104.5" r="0.5" fill="#A4DEFF"/>
<circle cx="212.5" cy="104.5" r="0.5" fill="#A4DEFF"/>
<circle cx="216.5" cy="104.5" r="0.5" fill="#A4DEFF"/>
<circle cx="220.5" cy="104.5" r="0.5" fill="#A4DEFF"/>
<circle cx="224.5" cy="104.5" r="0.5" fill="#A4DEFF"/>
<circle cx="228.5" cy="104.5" r="0.5" fill="#A4DEFF"/>
<circle cx="232.5" cy="104.5" r="0.5" fill="#A4DEFF"/>
<circle cx="236.5" cy="104.5" r="0.5" fill="#A4DEFF"/>
<circle cx="240.5" cy="104.5" r="0.5" fill="#A4DEFF"/>
<circle cx="244.5" cy="104.5" r="0.5" fill="#A4DEFF"/>
<circle cx="248.5" cy="104.5" r="0.5" fill="#A4DEFF"/>
<circle cx="252.5" cy="104.5" r="0.5" fill="#A4DEFF"/>
<circle cx="256.5" cy="104.5" r="0.5" fill="#A4DEFF"/>
<circle cx="260.5" cy="104.5" r="0.5" fill="#A4DEFF"/>
<circle cx="264.5" cy="104.5" r="0.5" fill="#A4DEFF"/>
<circle cx="268.5" cy="104.5" r="0.5" fill="#A4DEFF"/>
<circle cx="272.5" cy="104.5" r="0.5" fill="#A4DEFF"/>
<circle cx="276.5" cy="104.5" r="0.5" fill="#A4DEFF"/>
<circle cx="280.5" cy="104.5" r="0.5" fill="#A4DEFF"/>
<circle cx="284.5" cy="104.5" r="0.5" fill="#A4DEFF"/>
<circle cx="288.5" cy="104.5" r="0.5" fill="#A4DEFF"/>
<circle cx="292.5" cy="104.5" r="0.5" fill="#A4DEFF"/>
<circle cx="296.5" cy="104.5" r="0.5" fill="#A4DEFF"/>
<circle cx="300.5" cy="104.5" r="0.5" fill="#A4DEFF"/>
<circle cx="304.5" cy="104.5" r="0.5" fill="#A4DEFF"/>
<circle cx="308.5" cy="104.5" r="0.5" fill="#A4DEFF"/>
<circle cx="312.5" cy="104.5" r="0.5" fill="#A4DEFF"/>
<circle cx="316.5" cy="104.5" r="0.5" fill="#A4DEFF"/>
<circle cx="320.5" cy="104.5" r="0.5" fill="#A4DEFF"/>
<circle cx="324.5" cy="104.5" r="0.5" fill="#A4DEFF"/>
<circle cx="329" cy="105" r="1" fill="#A4DEFF"/>
<circle cx="332.5" cy="104.5" r="0.5" fill="#A4DEFF"/>
<circle cx="336.5" cy="104.5" r="0.5" fill="#A4DEFF"/>
<circle cx="340.5" cy="104.5" r="0.5" fill="#A4DEFF"/>
<circle cx="345" cy="105" r="1" fill="#A4DEFF"/>
<circle cx="200.5" cy="108.5" r="0.5" fill="#A4DEFF"/>
<circle cx="204.5" cy="108.5" r="0.5" fill="#A4DEFF"/>
<circle cx="208.5" cy="108.5" r="0.5" fill="#A4DEFF"/>
<circle cx="212.5" cy="108.5" r="0.5" fill="#A4DEFF"/>
<circle cx="216.5" cy="108.5" r="0.5" fill="#A4DEFF"/>
<circle cx="220.5" cy="108.5" r="0.5" fill="#A4DEFF"/>
<circle cx="224.5" cy="108.5" r="0.5" fill="#A4DEFF"/>
<circle cx="228.5" cy="108.5" r="0.5" fill="#A4DEFF"/>
<circle cx="232.5" cy="108.5" r="0.5" fill="#A4DEFF"/>
<circle cx="236.5" cy="108.5" r="0.5" fill="#A4DEFF"/>
<circle cx="240.5" cy="108.5" r="0.5" fill="#A4DEFF"/>
<circle cx="244.5" cy="108.5" r="0.5" fill="#A4DEFF"/>
<circle cx="248.5" cy="108.5" r="0.5" fill="#A4DEFF"/>
<circle cx="252.5" cy="108.5" r="0.5" fill="#A4DEFF"/>
<circle cx="256.5" cy="108.5" r="0.5" fill="#A4DEFF"/>
<circle cx="260.5" cy="108.5" r="0.5" fill="#A4DEFF"/>
<circle cx="264.5" cy="108.5" r="0.5" fill="#A4DEFF"/>
<circle cx="268.5" cy="108.5" r="0.5" fill="#A4DEFF"/>
<circle cx="272.5" cy="108.5" r="0.5" fill="#A4DEFF"/>
<circle cx="276.5" cy="108.5" r="0.5" fill="#A4DEFF"/>
<circle cx="280.5" cy="108.5" r="0.5" fill="#A4DEFF"/>
<circle cx="284.5" cy="108.5" r="0.5" fill="#A4DEFF"/>
<circle cx="288.5" cy="108.5" r="0.5" fill="#A4DEFF"/>
<circle cx="292.5" cy="108.5" r="0.5" fill="#A4DEFF"/>
<circle cx="296.5" cy="108.5" r="0.5" fill="#A4DEFF"/>
<circle cx="300.5" cy="108.5" r="0.5" fill="#A4DEFF"/>
<circle cx="305" cy="109" r="1" fill="#A4DEFF"/>
<circle cx="308.5" cy="108.5" r="0.5" fill="#A4DEFF"/>
<circle cx="312.5" cy="108.5" r="0.5" fill="#A4DEFF"/>
<circle cx="316.5" cy="108.5" r="0.5" fill="#A4DEFF"/>
<circle cx="320.5" cy="108.5" r="0.5" fill="#A4DEFF"/>
<circle cx="325" cy="109" r="1" fill="#A4DEFF"/>
<circle cx="329" cy="109" r="1" fill="#A4DEFF"/>
<circle cx="332.5" cy="108.5" r="0.5" fill="#A4DEFF"/>
<circle cx="337" cy="109" r="1" fill="#A4DEFF"/>
<circle cx="340.5" cy="108.5" r="0.5" fill="#A4DEFF"/>
<circle cx="345" cy="109" r="1" fill="#A4DEFF"/>
<circle cx="200.5" cy="112.5" r="0.5" fill="#A4DEFF"/>
<circle cx="204.5" cy="112.5" r="0.5" fill="#A4DEFF"/>
<circle cx="208.5" cy="112.5" r="0.5" fill="#A4DEFF"/>
<circle cx="212.5" cy="112.5" r="0.5" fill="#A4DEFF"/>
<circle cx="216.5" cy="112.5" r="0.5" fill="#A4DEFF"/>
<circle cx="220.5" cy="112.5" r="0.5" fill="#A4DEFF"/>
<circle cx="224.5" cy="112.5" r="0.5" fill="#A4DEFF"/>
<circle cx="228.5" cy="112.5" r="0.5" fill="#A4DEFF"/>
<circle cx="232.5" cy="112.5" r="0.5" fill="#A4DEFF"/>
<circle cx="236.5" cy="112.5" r="0.5" fill="#A4DEFF"/>
<circle cx="240.5" cy="112.5" r="0.5" fill="#A4DEFF"/>
<circle cx="244.5" cy="112.5" r="0.5" fill="#A4DEFF"/>
<circle cx="248.5" cy="112.5" r="0.5" fill="#A4DEFF"/>
<circle cx="252.5" cy="112.5" r="0.5" fill="#A4DEFF"/>
<circle cx="256.5" cy="112.5" r="0.5" fill="#A4DEFF"/>
<circle cx="260.5" cy="112.5" r="0.5" fill="#A4DEFF"/>
<circle cx="265" cy="113" r="1" fill="#A4DEFF"/>
<circle cx="268.5" cy="112.5" r="0.5" fill="#A4DEFF"/>
<circle cx="272.5" cy="112.5" r="0.5" fill="#A4DEFF"/>
<circle cx="276.5" cy="112.5" r="0.5" fill="#A4DEFF"/>
<circle cx="280.5" cy="112.5" r="0.5" fill="#A4DEFF"/>
<circle cx="284.5" cy="112.5" r="0.5" fill="#A4DEFF"/>
<circle cx="288.5" cy="112.5" r="0.5" fill="#A4DEFF"/>
<circle cx="292.5" cy="112.5" r="0.5" fill="#A4DEFF"/>
<circle cx="296.5" cy="112.5" r="0.5" fill="#A4DEFF"/>
<circle cx="300.5" cy="112.5" r="0.5" fill="#A4DEFF"/>
<circle cx="305" cy="113" r="1" fill="#A4DEFF"/>
<circle cx="308.5" cy="112.5" r="0.5" fill="#A4DEFF"/>
<circle cx="312.5" cy="112.5" r="0.5" fill="#A4DEFF"/>
<circle cx="316.5" cy="112.5" r="0.5" fill="#A4DEFF"/>
<circle cx="320.5" cy="112.5" r="0.5" fill="#A4DEFF"/>
<circle cx="325" cy="113" r="1" fill="#A4DEFF"/>
<circle cx="329" cy="113" r="1" fill="#A4DEFF"/>
<circle cx="333" cy="113" r="1" fill="#A4DEFF"/>
<circle cx="337" cy="113" r="1" fill="#A4DEFF"/>
<circle cx="340.5" cy="112.5" r="0.5" fill="#A4DEFF"/>
<circle cx="345" cy="113" r="1" fill="#A4DEFF"/>
<circle cx="200.5" cy="116.5" r="0.5" fill="#A4DEFF"/>
<circle cx="204.5" cy="116.5" r="0.5" fill="#A4DEFF"/>
<circle cx="208.5" cy="116.5" r="0.5" fill="#A4DEFF"/>
<circle cx="212.5" cy="116.5" r="0.5" fill="#A4DEFF"/>
<circle cx="216.5" cy="116.5" r="0.5" fill="#A4DEFF"/>
<circle cx="220.5" cy="116.5" r="0.5" fill="#A4DEFF"/>
<circle cx="224.5" cy="116.5" r="0.5" fill="#A4DEFF"/>
<circle cx="228.5" cy="116.5" r="0.5" fill="#A4DEFF"/>
<circle cx="232.5" cy="116.5" r="0.5" fill="#A4DEFF"/>
<circle cx="236.5" cy="116.5" r="0.5" fill="#A4DEFF"/>
<circle cx="240.5" cy="116.5" r="0.5" fill="#A4DEFF"/>
<circle cx="244.5" cy="116.5" r="0.5" fill="#A4DEFF"/>
<circle cx="249" cy="117" r="1" fill="#A4DEFF"/>
<circle cx="252.5" cy="116.5" r="0.5" fill="#A4DEFF"/>
<circle cx="256.5" cy="116.5" r="0.5" fill="#A4DEFF"/>
<circle cx="260.5" cy="116.5" r="0.5" fill="#A4DEFF"/>
<circle cx="265" cy="117" r="1" fill="#A4DEFF"/>
<circle cx="268.5" cy="116.5" r="0.5" fill="#A4DEFF"/>
<circle cx="272.5" cy="116.5" r="0.5" fill="#A4DEFF"/>
<circle cx="277" cy="117" r="1" fill="#A4DEFF"/>
<circle cx="280.5" cy="116.5" r="0.5" fill="#A4DEFF"/>
<circle cx="284.5" cy="116.5" r="0.5" fill="#A4DEFF"/>
<circle cx="288.5" cy="116.5" r="0.5" fill="#A4DEFF"/>
<circle cx="292.5" cy="116.5" r="0.5" fill="#A4DEFF"/>
<circle cx="296.5" cy="116.5" r="0.5" fill="#A4DEFF"/>
<circle cx="301" cy="117" r="1" fill="#A4DEFF"/>
<circle cx="305" cy="117" r="1" fill="#A4DEFF"/>
<circle cx="308.5" cy="116.5" r="0.5" fill="#A4DEFF"/>
<circle cx="312.5" cy="116.5" r="0.5" fill="#A4DEFF"/>
<circle cx="316.5" cy="116.5" r="0.5" fill="#A4DEFF"/>
<circle cx="320.5" cy="116.5" r="0.5" fill="#A4DEFF"/>
<circle cx="325" cy="117" r="1" fill="#A4DEFF"/>
<circle cx="329" cy="117" r="1" fill="#A4DEFF"/>
<circle cx="333" cy="117" r="1" fill="#A4DEFF"/>
<circle cx="337" cy="117" r="1" fill="#A4DEFF"/>
<circle cx="340.5" cy="116.5" r="0.5" fill="#A4DEFF"/>
<circle cx="345" cy="117" r="1" fill="#A4DEFF"/>
<circle cx="200.5" cy="120.5" r="0.5" fill="#A4DEFF"/>
<circle cx="204.5" cy="120.5" r="0.5" fill="#A4DEFF"/>
<circle cx="208.5" cy="120.5" r="0.5" fill="#A4DEFF"/>
<circle cx="212.5" cy="120.5" r="0.5" fill="#A4DEFF"/>
<circle cx="216.5" cy="120.5" r="0.5" fill="#A4DEFF"/>
<circle cx="220.5" cy="120.5" r="0.5" fill="#A4DEFF"/>
<circle cx="224.5" cy="120.5" r="0.5" fill="#A4DEFF"/>
<circle cx="228.5" cy="120.5" r="0.5" fill="#A4DEFF"/>
<circle cx="232.5" cy="120.5" r="0.5" fill="#A4DEFF"/>
<circle cx="236.5" cy="120.5" r="0.5" fill="#A4DEFF"/>
<circle cx="240.5" cy="120.5" r="0.5" fill="#A4DEFF"/>
<circle cx="244.5" cy="120.5" r="0.5" fill="#A4DEFF"/>
<circle cx="249" cy="121" r="1" fill="#A4DEFF"/>
<circle cx="252.5" cy="120.5" r="0.5" fill="#A4DEFF"/>
<circle cx="256.5" cy="120.5" r="0.5" fill="#A4DEFF"/>
<circle cx="260.5" cy="120.5" r="0.5" fill="#A4DEFF"/>
<circle cx="265" cy="121" r="1" fill="#A4DEFF"/>
<circle cx="268.5" cy="120.5" r="0.5" fill="#A4DEFF"/>
<circle cx="272.5" cy="120.5" r="0.5" fill="#A4DEFF"/>
<circle cx="277" cy="121" r="1" fill="#A4DEFF"/>
<circle cx="280.5" cy="120.5" r="0.5" fill="#A4DEFF"/>
<circle cx="284.5" cy="120.5" r="0.5" fill="#A4DEFF"/>
<circle cx="288.5" cy="120.5" r="0.5" fill="#A4DEFF"/>
<circle cx="292.5" cy="120.5" r="0.5" fill="#A4DEFF"/>
<circle cx="296.5" cy="120.5" r="0.5" fill="#A4DEFF"/>
<circle cx="301" cy="121" r="1" fill="#A4DEFF"/>
<circle cx="305" cy="121" r="1" fill="#A4DEFF"/>
<circle cx="308.5" cy="120.5" r="0.5" fill="#A4DEFF"/>
<circle cx="313" cy="121" r="1" fill="#A4DEFF"/>
<circle cx="316.5" cy="120.5" r="0.5" fill="#A4DEFF"/>
<circle cx="321" cy="121" r="1" fill="#A4DEFF"/>
<circle cx="325" cy="121" r="1" fill="#A4DEFF"/>
<circle cx="329" cy="121" r="1" fill="#A4DEFF"/>
<circle cx="333" cy="121" r="1" fill="#A4DEFF"/>
<circle cx="337" cy="121" r="1" fill="#A4DEFF"/>
<circle cx="341" cy="121" r="1" fill="#A4DEFF"/>
<circle cx="345" cy="121" r="1" fill="#A4DEFF"/>
<circle cx="200.5" cy="124.5" r="0.5" fill="#A4DEFF"/>
<circle cx="204.5" cy="124.5" r="0.5" fill="#A4DEFF"/>
<circle cx="208.5" cy="124.5" r="0.5" fill="#A4DEFF"/>
<circle cx="212.5" cy="124.5" r="0.5" fill="#A4DEFF"/>
<circle cx="216.5" cy="124.5" r="0.5" fill="#A4DEFF"/>
<circle cx="220.5" cy="124.5" r="0.5" fill="#A4DEFF"/>
<circle cx="224.5" cy="124.5" r="0.5" fill="#A4DEFF"/>
<circle cx="228.5" cy="124.5" r="0.5" fill="#A4DEFF"/>
<circle cx="232.5" cy="124.5" r="0.5" fill="#A4DEFF"/>
<circle cx="236.5" cy="124.5" r="0.5" fill="#A4DEFF"/>
<circle cx="240.5" cy="124.5" r="0.5" fill="#A4DEFF"/>
<circle cx="244.5" cy="124.5" r="0.5" fill="#A4DEFF"/>
<circle cx="249" cy="125" r="1" fill="#A4DEFF"/>
<circle cx="252.5" cy="124.5" r="0.5" fill="#A4DEFF"/>
<circle cx="257" cy="125" r="1" fill="#A4DEFF"/>
<circle cx="260.5" cy="124.5" r="0.5" fill="#A4DEFF"/>
<circle cx="265" cy="125" r="1" fill="#A4DEFF"/>
<circle cx="268.5" cy="124.5" r="0.5" fill="#A4DEFF"/>
<circle cx="273" cy="125" r="1" fill="#A4DEFF"/>
<circle cx="277" cy="125" r="1" fill="#A4DEFF"/>
<circle cx="280.5" cy="124.5" r="0.5" fill="#A4DEFF"/>
<circle cx="284.5" cy="124.5" r="0.5" fill="#A4DEFF"/>
<circle cx="288.5" cy="124.5" r="0.5" fill="#A4DEFF"/>
<circle cx="293" cy="125" r="1" fill="#A4DEFF"/>
<circle cx="296.5" cy="124.5" r="0.5" fill="#A4DEFF"/>
<circle cx="301" cy="125" r="1" fill="#A4DEFF"/>
<circle cx="305" cy="125" r="1" fill="#A4DEFF"/>
<circle cx="308.5" cy="124.5" r="0.5" fill="#A4DEFF"/>
<circle cx="313" cy="125" r="1" fill="#A4DEFF"/>
<circle cx="316.5" cy="124.5" r="0.5" fill="#A4DEFF"/>
<circle cx="321" cy="125" r="1" fill="#A4DEFF"/>
<circle cx="325" cy="125" r="1" fill="#A4DEFF"/>
<circle cx="329" cy="125" r="1" fill="#A4DEFF"/>
<circle cx="333" cy="125" r="1" fill="#A4DEFF"/>
<circle cx="337" cy="125" r="1" fill="#A4DEFF"/>
<circle cx="341" cy="125" r="1" fill="#A4DEFF"/>
<circle cx="345" cy="125" r="1" fill="#A4DEFF"/>
<circle cx="200.5" cy="128.5" r="0.5" fill="#A4DEFF"/>
<circle cx="205" cy="129" r="1" fill="#A4DEFF"/>
<circle cx="208.5" cy="128.5" r="0.5" fill="#A4DEFF"/>
<circle cx="212.5" cy="128.5" r="0.5" fill="#A4DEFF"/>
<circle cx="216.5" cy="128.5" r="0.5" fill="#A4DEFF"/>
<circle cx="220.5" cy="128.5" r="0.5" fill="#A4DEFF"/>
<circle cx="224.5" cy="128.5" r="0.5" fill="#A4DEFF"/>
<circle cx="228.5" cy="128.5" r="0.5" fill="#A4DEFF"/>
<circle cx="232.5" cy="128.5" r="0.5" fill="#A4DEFF"/>
<circle cx="236.5" cy="128.5" r="0.5" fill="#A4DEFF"/>
<circle cx="240.5" cy="128.5" r="0.5" fill="#A4DEFF"/>
<circle cx="244.5" cy="128.5" r="0.5" fill="#A4DEFF"/>
<circle cx="249" cy="129" r="1" fill="#A4DEFF"/>
<circle cx="252.5" cy="128.5" r="0.5" fill="#A4DEFF"/>
<circle cx="257" cy="129" r="1" fill="#A4DEFF"/>
<circle cx="260.5" cy="128.5" r="0.5" fill="#A4DEFF"/>
<circle cx="265" cy="129" r="1" fill="#A4DEFF"/>
<circle cx="269" cy="129" r="1" fill="#A4DEFF"/>
<circle cx="273" cy="129" r="1" fill="#A4DEFF"/>
<circle cx="277" cy="129" r="1" fill="#A4DEFF"/>
<circle cx="281" cy="129" r="1" fill="#A4DEFF"/>
<circle cx="284.5" cy="128.5" r="0.5" fill="#A4DEFF"/>
<circle cx="288.5" cy="128.5" r="0.5" fill="#A4DEFF"/>
<circle cx="293" cy="129" r="1" fill="#A4DEFF"/>
<circle cx="296.5" cy="128.5" r="0.5" fill="#A4DEFF"/>
<circle cx="301" cy="129" r="1" fill="#A4DEFF"/>
<circle cx="305" cy="129" r="1" fill="#A4DEFF"/>
<circle cx="308.5" cy="128.5" r="0.5" fill="#A4DEFF"/>
<circle cx="313" cy="129" r="1" fill="#A4DEFF"/>
<circle cx="317" cy="129" r="1" fill="#A4DEFF"/>
<circle cx="321" cy="129" r="1" fill="#A4DEFF"/>
<circle cx="325" cy="129" r="1" fill="#A4DEFF"/>
<circle cx="329" cy="129" r="1" fill="#A4DEFF"/>
<circle cx="333" cy="129" r="1" fill="#A4DEFF"/>
<circle cx="337" cy="129" r="1" fill="#A4DEFF"/>
<circle cx="341" cy="129" r="1" fill="#A4DEFF"/>
<circle cx="345" cy="129" r="1" fill="#A4DEFF"/>
<circle cx="200.5" cy="132.5" r="0.5" fill="#A4DEFF"/>
<circle cx="205" cy="133" r="1" fill="#A4DEFF"/>
<circle cx="208.5" cy="132.5" r="0.5" fill="#A4DEFF"/>
<circle cx="212.5" cy="132.5" r="0.5" fill="#A4DEFF"/>
<circle cx="216.5" cy="132.5" r="0.5" fill="#A4DEFF"/>
<circle cx="220.5" cy="132.5" r="0.5" fill="#A4DEFF"/>
<circle cx="224.5" cy="132.5" r="0.5" fill="#A4DEFF"/>
<circle cx="228.5" cy="132.5" r="0.5" fill="#A4DEFF"/>
<circle cx="232.5" cy="132.5" r="0.5" fill="#A4DEFF"/>
<circle cx="237" cy="133" r="1" fill="#A4DEFF"/>
<circle cx="240.5" cy="132.5" r="0.5" fill="#A4DEFF"/>
<circle cx="244.5" cy="132.5" r="0.5" fill="#A4DEFF"/>
<circle cx="249" cy="133" r="1" fill="#A4DEFF"/>
<circle cx="252.5" cy="132.5" r="0.5" fill="#A4DEFF"/>
<circle cx="257" cy="133" r="1" fill="#A4DEFF"/>
<circle cx="261" cy="133" r="1" fill="#A4DEFF"/>
<circle cx="265" cy="133" r="1" fill="#A4DEFF"/>
<circle cx="269" cy="133" r="1" fill="#A4DEFF"/>
<circle cx="273" cy="133" r="1" fill="#A4DEFF"/>
<circle cx="277" cy="133" r="1" fill="#A4DEFF"/>
<circle cx="281" cy="133" r="1" fill="#A4DEFF"/>
<circle cx="284.5" cy="132.5" r="0.5" fill="#A4DEFF"/>
<circle cx="288.5" cy="132.5" r="0.5" fill="#A4DEFF"/>
<circle cx="293" cy="133" r="1" fill="#A4DEFF"/>
<circle cx="296.5" cy="132.5" r="0.5" fill="#A4DEFF"/>
<circle cx="301" cy="133" r="1" fill="#A4DEFF"/>
<circle cx="305" cy="133" r="1" fill="#A4DEFF"/>
<circle cx="309" cy="133" r="1" fill="#A4DEFF"/>
<circle cx="313" cy="133" r="1" fill="#A4DEFF"/>
<circle cx="317" cy="133" r="1" fill="#A4DEFF"/>
<circle cx="321" cy="133" r="1" fill="#A4DEFF"/>
<circle cx="325" cy="133" r="1" fill="#A4DEFF"/>
<circle cx="329" cy="133" r="1" fill="#A4DEFF"/>
<circle cx="333" cy="133" r="1" fill="#A4DEFF"/>
<circle cx="337" cy="133" r="1" fill="#A4DEFF"/>
<circle cx="341" cy="133" r="1" fill="#A4DEFF"/>
<circle cx="345" cy="133" r="1" fill="#A4DEFF"/>
<circle cx="200.5" cy="136.5" r="0.5" fill="#A4DEFF"/>
<circle cx="205" cy="137" r="1" fill="#A4DEFF"/>
<circle cx="209" cy="137" r="1" fill="#A4DEFF"/>
<circle cx="212.5" cy="136.5" r="0.5" fill="#A4DEFF"/>
<circle cx="216.5" cy="136.5" r="0.5" fill="#A4DEFF"/>
<circle cx="220.5" cy="136.5" r="0.5" fill="#A4DEFF"/>
<circle cx="224.5" cy="136.5" r="0.5" fill="#A4DEFF"/>
<circle cx="228.5" cy="136.5" r="0.5" fill="#A4DEFF"/>
<circle cx="232.5" cy="136.5" r="0.5" fill="#A4DEFF"/>
<circle cx="237" cy="137" r="1" fill="#A4DEFF"/>
<circle cx="240.5" cy="136.5" r="0.5" fill="#A4DEFF"/>
<circle cx="245" cy="137" r="1" fill="#A4DEFF"/>
<circle cx="249" cy="137" r="1" fill="#A4DEFF"/>
<circle cx="252.5" cy="136.5" r="0.5" fill="#A4DEFF"/>
<circle cx="257" cy="137" r="1" fill="#A4DEFF"/>
<circle cx="261" cy="137" r="1" fill="#A4DEFF"/>
<circle cx="265" cy="137" r="1" fill="#A4DEFF"/>
<circle cx="269" cy="137" r="1" fill="#A4DEFF"/>
<circle cx="273" cy="137" r="1" fill="#A4DEFF"/>
<circle cx="277" cy="137" r="1" fill="#A4DEFF"/>
<circle cx="281" cy="137" r="1" fill="#A4DEFF"/>
<circle cx="285" cy="137" r="1" fill="#A4DEFF"/>
<circle cx="288.5" cy="136.5" r="0.5" fill="#A4DEFF"/>
<circle cx="293" cy="137" r="1" fill="#A4DEFF"/>
<circle cx="296.5" cy="136.5" r="0.5" fill="#A4DEFF"/>
<circle cx="301" cy="137" r="1" fill="#A4DEFF"/>
<circle cx="305" cy="137" r="1" fill="#A4DEFF"/>
<circle cx="309" cy="137" r="1" fill="#A4DEFF"/>
<circle cx="313" cy="137" r="1" fill="#A4DEFF"/>
<circle cx="317" cy="137" r="1" fill="#A4DEFF"/>
<circle cx="321" cy="137" r="1" fill="#A4DEFF"/>
<circle cx="325" cy="137" r="1" fill="#A4DEFF"/>
<circle cx="329" cy="137" r="1" fill="#A4DEFF"/>
<circle cx="333" cy="137" r="1" fill="#A4DEFF"/>
<circle cx="337" cy="137" r="1" fill="#A4DEFF"/>
<circle cx="341" cy="137" r="1" fill="#A4DEFF"/>
<circle cx="345" cy="137" r="1" fill="#A4DEFF"/>
<circle cx="201" cy="141" r="1" fill="#A4DEFF"/>
<circle cx="205" cy="141" r="1" fill="#A4DEFF"/>
<circle cx="209" cy="141" r="1" fill="#A4DEFF"/>
<circle cx="212.5" cy="140.5" r="0.5" fill="#A4DEFF"/>
<circle cx="216.5" cy="140.5" r="0.5" fill="#A4DEFF"/>
<circle cx="220.5" cy="140.5" r="0.5" fill="#A4DEFF"/>
<circle cx="224.5" cy="140.5" r="0.5" fill="#A4DEFF"/>
<circle cx="229" cy="141" r="1" fill="#A4DEFF"/>
<circle cx="232.5" cy="140.5" r="0.5" fill="#A4DEFF"/>
<circle cx="237" cy="141" r="1" fill="#A4DEFF"/>
<circle cx="241" cy="141" r="1" fill="#A4DEFF"/>
<circle cx="245" cy="141" r="1" fill="#A4DEFF"/>
<circle cx="249" cy="141" r="1" fill="#A4DEFF"/>
<circle cx="253" cy="141" r="1" fill="#A4DEFF"/>
<circle cx="257" cy="141" r="1" fill="#A4DEFF"/>
<circle cx="261" cy="141" r="1" fill="#A4DEFF"/>
<circle cx="265" cy="141" r="1" fill="#A4DEFF"/>
<circle cx="269" cy="141" r="1" fill="#A4DEFF"/>
<circle cx="273" cy="141" r="1" fill="#A4DEFF"/>
<circle cx="277" cy="141" r="1" fill="#A4DEFF"/>
<circle cx="281" cy="141" r="1" fill="#A4DEFF"/>
<circle cx="285" cy="141" r="1" fill="#A4DEFF"/>
<circle cx="288.5" cy="140.5" r="0.5" fill="#A4DEFF"/>
<circle cx="293" cy="141" r="1" fill="#A4DEFF"/>
<circle cx="297" cy="141" r="1" fill="#A4DEFF"/>
<circle cx="301" cy="141" r="1" fill="#A4DEFF"/>
<circle cx="305" cy="141" r="1" fill="#A4DEFF"/>
<circle cx="309" cy="141" r="1" fill="#A4DEFF"/>
<circle cx="313" cy="141" r="1" fill="#A4DEFF"/>
<circle cx="317" cy="141" r="1" fill="#A4DEFF"/>
<circle cx="321" cy="141" r="1" fill="#A4DEFF"/>
<circle cx="325" cy="141" r="1" fill="#A4DEFF"/>
<circle cx="329" cy="141" r="1" fill="#A4DEFF"/>
<circle cx="333" cy="141" r="1" fill="#A4DEFF"/>
<circle cx="337" cy="141" r="1" fill="#A4DEFF"/>
<circle cx="341" cy="141" r="1" fill="#A4DEFF"/>
<circle cx="345" cy="141" r="1" fill="#A4DEFF"/>
<circle cx="201" cy="145" r="1" fill="#A4DEFF"/>
<circle cx="205" cy="145" r="1" fill="#A4DEFF"/>
<circle cx="209" cy="145" r="1" fill="#A4DEFF"/>
<circle cx="212.5" cy="144.5" r="0.5" fill="#A4DEFF"/>
<circle cx="216.5" cy="144.5" r="0.5" fill="#A4DEFF"/>
<circle cx="220.5" cy="144.5" r="0.5" fill="#A4DEFF"/>
<circle cx="224.5" cy="144.5" r="0.5" fill="#A4DEFF"/>
<circle cx="229" cy="145" r="1" fill="#A4DEFF"/>
<circle cx="233" cy="145" r="1" fill="#A4DEFF"/>
<circle cx="237" cy="145" r="1" fill="#A4DEFF"/>
<circle cx="241" cy="145" r="1" fill="#A4DEFF"/>
<circle cx="245" cy="145" r="1" fill="#A4DEFF"/>
<circle cx="249" cy="145" r="1" fill="#A4DEFF"/>
<circle cx="253" cy="145" r="1" fill="#A4DEFF"/>
<circle cx="257" cy="145" r="1" fill="#A4DEFF"/>
<circle cx="261" cy="145" r="1" fill="#A4DEFF"/>
<circle cx="265" cy="145" r="1" fill="#A4DEFF"/>
<circle cx="269" cy="145" r="1" fill="#A4DEFF"/>
<circle cx="273" cy="145" r="1" fill="#A4DEFF"/>
<circle cx="277" cy="145" r="1" fill="#A4DEFF"/>
<circle cx="281" cy="145" r="1" fill="#A4DEFF"/>
<circle cx="285" cy="145" r="1" fill="#A4DEFF"/>
<circle cx="289" cy="145" r="1" fill="#A4DEFF"/>
<circle cx="293" cy="145" r="1" fill="#A4DEFF"/>
<circle cx="297" cy="145" r="1" fill="#A4DEFF"/>
<circle cx="301" cy="145" r="1" fill="#A4DEFF"/>
<circle cx="305" cy="145" r="1" fill="#A4DEFF"/>
<circle cx="309" cy="145" r="1" fill="#A4DEFF"/>
<circle cx="313" cy="145" r="1" fill="#A4DEFF"/>
<circle cx="317" cy="145" r="1" fill="#A4DEFF"/>
<circle cx="321" cy="145" r="1" fill="#A4DEFF"/>
<circle cx="325" cy="145" r="1" fill="#A4DEFF"/>
<circle cx="329" cy="145" r="1" fill="#A4DEFF"/>
<circle cx="333" cy="145" r="1" fill="#A4DEFF"/>
<circle cx="337" cy="145" r="1" fill="#A4DEFF"/>
<circle cx="341" cy="145" r="1" fill="#A4DEFF"/>
<circle cx="345" cy="145" r="1" fill="#A4DEFF"/>
<circle cx="201" cy="149" r="1" fill="#A4DEFF"/>
<circle cx="205" cy="149" r="1" fill="#A4DEFF"/>
<circle cx="209" cy="149" r="1" fill="#A4DEFF"/>
<circle cx="213" cy="149" r="1" fill="#A4DEFF"/>
<circle cx="216.5" cy="148.5" r="0.5" fill="#A4DEFF"/>
<circle cx="220.5" cy="148.5" r="0.5" fill="#A4DEFF"/>
<circle cx="225" cy="149" r="1" fill="#A4DEFF"/>
<circle cx="229" cy="149" r="1" fill="#A4DEFF"/>
<circle cx="233" cy="149" r="1" fill="#A4DEFF"/>
<circle cx="237" cy="149" r="1" fill="#A4DEFF"/>
<circle cx="241" cy="149" r="1" fill="#A4DEFF"/>
<circle cx="245" cy="149" r="1" fill="#A4DEFF"/>
<circle cx="249" cy="149" r="1" fill="#A4DEFF"/>
<circle cx="253" cy="149" r="1" fill="#A4DEFF"/>
<circle cx="257" cy="149" r="1" fill="#A4DEFF"/>
<circle cx="261" cy="149" r="1" fill="#A4DEFF"/>
<circle cx="265" cy="149" r="1" fill="#A4DEFF"/>
<circle cx="269" cy="149" r="1" fill="#A4DEFF"/>
<circle cx="273" cy="149" r="1" fill="#A4DEFF"/>
<circle cx="277" cy="149" r="1" fill="#A4DEFF"/>
<circle cx="281" cy="149" r="1" fill="#A4DEFF"/>
<circle cx="285" cy="149" r="1" fill="#A4DEFF"/>
<circle cx="289" cy="149" r="1" fill="#A4DEFF"/>
<circle cx="293" cy="149" r="1" fill="#A4DEFF"/>
<circle cx="297" cy="149" r="1" fill="#A4DEFF"/>
<circle cx="301" cy="149" r="1" fill="#A4DEFF"/>
<circle cx="305" cy="149" r="1" fill="#A4DEFF"/>
<circle cx="309" cy="149" r="1" fill="#A4DEFF"/>
<circle cx="313" cy="149" r="1" fill="#A4DEFF"/>
<circle cx="317" cy="149" r="1" fill="#A4DEFF"/>
<circle cx="321" cy="149" r="1" fill="#A4DEFF"/>
<circle cx="325" cy="149" r="1" fill="#A4DEFF"/>
<circle cx="329" cy="149" r="1" fill="#A4DEFF"/>
<circle cx="333" cy="149" r="1" fill="#A4DEFF"/>
<circle cx="337" cy="149" r="1" fill="#A4DEFF"/>
<circle cx="341" cy="149" r="1" fill="#A4DEFF"/>
<circle cx="345" cy="149" r="1" fill="#A4DEFF"/>
<circle cx="201" cy="153" r="1" fill="#A4DEFF"/>
<circle cx="205" cy="153" r="1" fill="#A4DEFF"/>
<circle cx="209" cy="153" r="1" fill="#A4DEFF"/>
<circle cx="213" cy="153" r="1" fill="#A4DEFF"/>
<circle cx="217" cy="153" r="1" fill="#A4DEFF"/>
<circle cx="221" cy="153" r="1" fill="#A4DEFF"/>
<circle cx="225" cy="153" r="1" fill="#A4DEFF"/>
<circle cx="229" cy="153" r="1" fill="#A4DEFF"/>
<circle cx="233" cy="153" r="1" fill="#A4DEFF"/>
<circle cx="237" cy="153" r="1" fill="#A4DEFF"/>
<circle cx="241" cy="153" r="1" fill="#A4DEFF"/>
<circle cx="245" cy="153" r="1" fill="#A4DEFF"/>
<circle cx="249" cy="153" r="1" fill="#A4DEFF"/>
<circle cx="253" cy="153" r="1" fill="#A4DEFF"/>
<circle cx="257" cy="153" r="1" fill="#A4DEFF"/>
<circle cx="261" cy="153" r="1" fill="#A4DEFF"/>
<circle cx="265" cy="153" r="1" fill="#A4DEFF"/>
<circle cx="269" cy="153" r="1" fill="#A4DEFF"/>
<circle cx="273" cy="153" r="1" fill="#A4DEFF"/>
<circle cx="277" cy="153" r="1" fill="#A4DEFF"/>
<circle cx="281" cy="153" r="1" fill="#A4DEFF"/>
<circle cx="285" cy="153" r="1" fill="#A4DEFF"/>
<circle cx="289" cy="153" r="1" fill="#A4DEFF"/>
<circle cx="293" cy="153" r="1" fill="#A4DEFF"/>
<circle cx="297" cy="153" r="1" fill="#A4DEFF"/>
<circle cx="301" cy="153" r="1" fill="#A4DEFF"/>
<circle cx="305" cy="153" r="1" fill="#A4DEFF"/>
<circle cx="309" cy="153" r="1" fill="#A4DEFF"/>
<circle cx="313" cy="153" r="1" fill="#A4DEFF"/>
<circle cx="317" cy="153" r="1" fill="#A4DEFF"/>
<circle cx="321" cy="153" r="1" fill="#A4DEFF"/>
<circle cx="325" cy="153" r="1" fill="#A4DEFF"/>
<circle cx="329" cy="153" r="1" fill="#A4DEFF"/>
<circle cx="333" cy="153" r="1" fill="#A4DEFF"/>
<circle cx="337" cy="153" r="1" fill="#A4DEFF"/>
<circle cx="341" cy="153" r="1" fill="#A4DEFF"/>
<circle cx="345" cy="153" r="1" fill="#A4DEFF"/>
<circle cx="201" cy="157" r="1" fill="#A4DEFF"/>
<circle cx="205" cy="157" r="1" fill="#A4DEFF"/>
<circle cx="209" cy="157" r="1" fill="#A4DEFF"/>
<circle cx="213" cy="157" r="1" fill="#A4DEFF"/>
<circle cx="217" cy="157" r="1" fill="#A4DEFF"/>
<circle cx="221" cy="157" r="1" fill="#A4DEFF"/>
<circle cx="225" cy="157" r="1" fill="#A4DEFF"/>
<circle cx="229" cy="157" r="1" fill="#A4DEFF"/>
<circle cx="233" cy="157" r="1" fill="#A4DEFF"/>
<circle cx="237" cy="157" r="1" fill="#A4DEFF"/>
<circle cx="241" cy="157" r="1" fill="#A4DEFF"/>
<circle cx="245" cy="157" r="1" fill="#A4DEFF"/>
<circle cx="249" cy="157" r="1" fill="#A4DEFF"/>
<circle cx="253" cy="157" r="1" fill="#A4DEFF"/>
<circle cx="257" cy="157" r="1" fill="#A4DEFF"/>
<circle cx="261" cy="157" r="1" fill="#A4DEFF"/>
<circle cx="265" cy="157" r="1" fill="#A4DEFF"/>
<circle cx="269" cy="157" r="1" fill="#A4DEFF"/>
<circle cx="273" cy="157" r="1" fill="#A4DEFF"/>
<circle cx="277" cy="157" r="1" fill="#A4DEFF"/>
<circle cx="281" cy="157" r="1" fill="#A4DEFF"/>
<circle cx="285" cy="157" r="1" fill="#A4DEFF"/>
<circle cx="289" cy="157" r="1" fill="#A4DEFF"/>
<circle cx="293" cy="157" r="1" fill="#A4DEFF"/>
<circle cx="297" cy="157" r="1" fill="#A4DEFF"/>
<circle cx="301" cy="157" r="1" fill="#A4DEFF"/>
<circle cx="305" cy="157" r="1" fill="#A4DEFF"/>
<circle cx="309" cy="157" r="1" fill="#A4DEFF"/>
<circle cx="313" cy="157" r="1" fill="#A4DEFF"/>
<circle cx="317" cy="157" r="1" fill="#A4DEFF"/>
<circle cx="321" cy="157" r="1" fill="#A4DEFF"/>
<circle cx="325" cy="157" r="1" fill="#A4DEFF"/>
<circle cx="329" cy="157" r="1" fill="#A4DEFF"/>
<circle cx="333" cy="157" r="1" fill="#A4DEFF"/>
<circle cx="337" cy="157" r="1" fill="#A4DEFF"/>
<circle cx="341" cy="157" r="1" fill="#A4DEFF"/>
<circle cx="345" cy="157" r="1" fill="#A4DEFF"/>
<circle cx="204.5" cy="160.5" r="0.5" fill="#A4DEFF"/>
<circle cx="208.5" cy="160.5" r="0.5" fill="#A4DEFF"/>
<circle cx="212.5" cy="160.5" r="0.5" fill="#A4DEFF"/>
<circle cx="216.5" cy="160.5" r="0.5" fill="#A4DEFF"/>
<circle cx="220.5" cy="160.5" r="0.5" fill="#A4DEFF"/>
<circle cx="224.5" cy="160.5" r="0.5" fill="#A4DEFF"/>
<circle cx="228.5" cy="160.5" r="0.5" fill="#A4DEFF"/>
<circle cx="232.5" cy="160.5" r="0.5" fill="#A4DEFF"/>
<circle cx="236.5" cy="160.5" r="0.5" fill="#A4DEFF"/>
<circle cx="240.5" cy="160.5" r="0.5" fill="#A4DEFF"/>
<circle cx="244.5" cy="160.5" r="0.5" fill="#A4DEFF"/>
<circle cx="248.5" cy="160.5" r="0.5" fill="#A4DEFF"/>
<circle cx="252.5" cy="160.5" r="0.5" fill="#A4DEFF"/>
<circle cx="256.5" cy="160.5" r="0.5" fill="#A4DEFF"/>
<circle cx="260.5" cy="160.5" r="0.5" fill="#A4DEFF"/>
<circle cx="264.5" cy="160.5" r="0.5" fill="#A4DEFF"/>
<circle cx="268.5" cy="160.5" r="0.5" fill="#A4DEFF"/>
<circle cx="272.5" cy="160.5" r="0.5" fill="#A4DEFF"/>
<circle cx="276.5" cy="160.5" r="0.5" fill="#A4DEFF"/>
<circle cx="280.5" cy="160.5" r="0.5" fill="#A4DEFF"/>
<circle cx="284.5" cy="160.5" r="0.5" fill="#A4DEFF"/>
<circle cx="288.5" cy="160.5" r="0.5" fill="#A4DEFF"/>
<circle cx="292.5" cy="160.5" r="0.5" fill="#A4DEFF"/>
<circle cx="296.5" cy="160.5" r="0.5" fill="#A4DEFF"/>
<circle cx="300.5" cy="160.5" r="0.5" fill="#A4DEFF"/>
<circle cx="304.5" cy="160.5" r="0.5" fill="#A4DEFF"/>
<circle cx="308.5" cy="160.5" r="0.5" fill="#A4DEFF"/>
<circle cx="312.5" cy="160.5" r="0.5" fill="#A4DEFF"/>
<circle cx="316.5" cy="160.5" r="0.5" fill="#A4DEFF"/>
<circle cx="320.5" cy="160.5" r="0.5" fill="#A4DEFF"/>
<circle cx="324.5" cy="160.5" r="0.5" fill="#A4DEFF"/>
<circle cx="328.5" cy="160.5" r="0.5" fill="#A4DEFF"/>
<circle cx="332.5" cy="160.5" r="0.5" fill="#A4DEFF"/>
<circle cx="336.5" cy="160.5" r="0.5" fill="#A4DEFF"/>
<circle cx="340.5" cy="160.5" r="0.5" fill="#A4DEFF"/>
<circle cx="344.5" cy="160.5" r="0.5" fill="#A4DEFF"/>
<path d="M50.6069 203.226C52.402 203.226 53.624 201.852 53.624 199.268C53.624 196.672 52.2614 195.353 50.6069 195.353C48.9415 195.353 47.5681 196.672 47.5681 199.268C47.5681 201.852 48.8009 203.226 50.6069 203.226ZM50.6069 202.263C49.4281 202.263 48.7036 201.214 48.7036 199.268C48.7036 197.451 49.4498 196.315 50.6069 196.315C51.7423 196.315 52.4885 197.451 52.4885 199.268C52.4885 201.225 51.764 202.263 50.6069 202.263ZM55.5254 203.074L56.1743 202.112C56.5311 201.582 56.6933 201.333 56.8664 201.084C57.0286 201.333 57.1692 201.549 57.5477 202.112L58.1857 203.074H59.4185L57.5044 200.338L59.2995 197.71H58.1749L57.6125 198.576C57.234 199.17 57.0935 199.376 56.9313 199.603C56.7799 199.376 56.6501 199.17 56.2824 198.576L55.7201 197.71H54.5197L56.2932 200.327L54.4224 203.074H55.5254ZM62.1882 203.074C62.1882 200.576 62.7181 198.586 64.9998 196.683V195.504H59.8631V196.499H62.4369H64.0806C62.1882 198.035 60.9878 200.241 60.9878 203.074H62.1882ZM69.5718 203.074V201.02H70.6856V200.111H69.5718V195.504H67.9605L64.9649 200.014V201.02H68.5228V203.074H69.5718ZM67.4954 200.111H66.0355L68.5228 196.359V198.132V200.111H67.4954ZM73.4516 203.226C75.8631 203.226 76.9878 201.463 76.9878 199.019C76.9878 197.721 76.6525 196.737 76.047 196.121C75.5387 195.602 74.8898 195.353 74.122 195.353C72.4999 195.353 71.5807 196.543 71.5807 197.981C71.5807 199.268 72.4675 200.306 73.9166 200.306C74.8141 200.306 75.6144 199.819 75.9172 199.084C75.9172 200.338 75.5928 201.171 75.0196 201.636C74.5871 201.993 74.0355 202.166 73.4083 202.166C72.8135 202.166 72.3485 202.036 71.9809 201.895V202.999C72.3377 203.139 72.9866 203.226 73.4516 203.226ZM74.1761 199.387C73.3651 199.387 72.6946 198.792 72.6946 197.851C72.6946 196.899 73.3651 196.294 74.1761 196.294C75.0088 196.294 75.6576 196.899 75.6576 197.851C75.6576 198.792 75.0088 199.387 74.1761 199.387ZM81.2 203.226C82.4653 203.226 83.3953 202.144 83.3953 200.392C83.3953 198.63 82.4653 197.559 81.2 197.559C80.2592 197.559 79.7401 198.078 79.4914 198.521V197.494V195.504H78.4749V203.074H79.459V202.263C79.7185 202.707 80.2592 203.226 81.2 203.226ZM80.9081 202.36C80.0537 202.36 79.4373 201.701 79.4373 200.382C79.4373 199.062 80.0537 198.424 80.9081 198.424C81.7407 198.424 82.3463 198.922 82.3463 200.382C82.3463 201.831 81.7407 202.36 80.9081 202.36ZM86.5855 203.226C87.5264 203.226 88.0563 202.707 88.3158 202.263V203.074H89.3107V195.504H88.2942V197.494V198.532C88.0346 198.089 87.5156 197.559 86.5855 197.559C85.3203 197.559 84.3795 198.64 84.3795 200.403C84.3795 202.155 85.3203 203.226 86.5855 203.226ZM86.8667 202.36C86.0448 202.36 85.4284 201.863 85.4284 200.403C85.4284 198.954 86.0448 198.424 86.8667 198.424C87.7318 198.424 88.3482 199.084 88.3482 200.403C88.3482 201.722 87.7318 202.36 86.8667 202.36ZM92.4685 203.226C93.3228 203.226 93.8419 202.847 94.2204 202.263C94.2853 202.717 94.4367 203.074 95.2153 203.074H95.9939V202.209H95.4424C95.1937 202.209 95.1288 202.144 95.1288 201.895V199.441C95.1288 198.284 94.4367 197.559 92.9876 197.559C91.5709 197.559 90.8031 198.327 90.6301 199.062L91.6034 199.376C91.744 198.965 92.0468 198.413 92.9876 198.413C93.777 198.413 94.1122 198.792 94.1122 199.408V199.57C92.3712 199.711 90.7382 200.208 90.7382 201.69C90.7382 202.642 91.4195 203.226 92.4685 203.226ZM92.7389 202.393C92.1008 202.393 91.7872 202.09 91.7872 201.604C91.7872 200.749 92.8578 200.436 94.1122 200.306V200.857C94.1122 201.928 93.4201 202.393 92.7389 202.393ZM98.178 203.074V201.668H96.7938V203.074H98.178ZM101.008 203.074V201.668H99.6241V203.074H101.008ZM103.839 203.074V201.668H102.454V203.074H103.839Z" fill="#A4DEFF"/>
<rect x="10.5" y="188.5" width="141" height="27" rx="5.67949" stroke="#A4DEFF"/>
<rect x="0.5" y="184.5" width="142" height="27" rx="5.67949" stroke="#A4DEFF"/>
<path d="M241.472 235.151C243.268 235.151 244.49 233.778 244.49 231.193C244.49 228.598 243.127 227.279 241.472 227.279C239.807 227.279 238.434 228.598 238.434 231.193C238.434 233.778 239.666 235.151 241.472 235.151ZM241.472 234.189C240.294 234.189 239.569 233.14 239.569 231.193C239.569 229.377 240.315 228.241 241.472 228.241C242.608 228.241 243.354 229.377 243.354 231.193C243.354 233.151 242.63 234.189 241.472 234.189ZM246.391 235L247.04 234.038C247.397 233.508 247.559 233.259 247.732 233.01C247.894 233.259 248.035 233.475 248.413 234.038L249.051 235H250.284L248.37 232.264L250.165 229.636H249.04L248.478 230.501C248.1 231.096 247.959 231.302 247.797 231.529C247.645 231.302 247.516 231.096 247.148 230.501L246.586 229.636H245.385L247.159 232.253L245.288 235H246.391ZM253.649 235.151C255.249 235.151 256.201 234.211 256.201 233.064C256.201 232.037 255.573 231.312 254.676 231.107C255.476 230.847 256.06 230.209 256.06 229.279C256.06 228.144 255.173 227.279 253.649 227.279C252.135 227.279 251.226 228.22 251.129 229.387L252.243 229.571C252.318 228.782 252.827 228.22 253.649 228.22C254.373 228.22 254.968 228.695 254.968 229.452C254.968 230.231 254.362 230.696 253.627 230.696H253.086V231.615H253.627C254.47 231.615 255.087 232.102 255.087 232.924C255.087 233.724 254.46 234.211 253.649 234.211C252.729 234.211 252.124 233.583 252.08 232.599L250.945 232.837C251.053 234.243 252.07 235.151 253.649 235.151ZM262.547 235V234.005H260.428H258.665C260.006 233.194 261.012 232.48 261.66 231.734C262.179 231.129 262.461 230.436 262.461 229.625C262.461 228.274 261.531 227.279 259.963 227.279C258.384 227.279 257.421 228.328 257.41 229.766L258.503 229.917C258.503 228.847 259.13 228.252 259.952 228.252C260.698 228.252 261.325 228.76 261.325 229.744C261.325 231.258 259.584 232.513 257.475 233.81V235H262.547ZM265.834 235.151C266.775 235.151 267.305 234.632 267.565 234.189V235H268.56V227.43H267.543V229.42V230.458C267.284 230.015 266.764 229.485 265.834 229.485C264.569 229.485 263.628 230.566 263.628 232.329C263.628 234.081 264.569 235.151 265.834 235.151ZM266.116 234.286C265.294 234.286 264.677 233.789 264.677 232.329C264.677 230.88 265.294 230.35 266.116 230.35C266.981 230.35 267.597 231.01 267.597 232.329C267.597 233.648 266.981 234.286 266.116 234.286ZM272.701 235.151C274.324 235.151 275.329 234.124 275.329 232.632C275.329 231.139 274.378 230.22 272.939 230.22C272.096 230.22 271.544 230.555 271.155 231.02L271.306 230.004L271.544 228.425H275.113V227.43H270.744L270.095 231.756L271.242 231.94C271.523 231.475 271.999 231.118 272.669 231.118C273.621 231.118 274.215 231.734 274.215 232.664C274.215 233.605 273.621 234.211 272.658 234.211C271.826 234.211 271.22 233.735 271.036 232.88L269.944 233.237C270.16 234.308 271.101 235.151 272.701 235.151ZM280.809 235V232.945H281.923V232.037H280.809V227.43H279.198L276.202 231.94V232.945H279.76V235H280.809ZM278.733 232.037H277.273L279.76 228.284V230.058V232.037H278.733ZM285.589 235V227.43H284.713C284.227 228.339 283.383 228.879 282.486 229.096V230.22C283.318 230.101 284.108 229.528 284.519 228.836V229.896V235H285.589ZM288.801 235V233.594H287.417V235H288.801ZM291.631 235V233.594H290.247V235H291.631ZM294.461 235V233.594H293.077V235H294.461Z" fill="#A4DEFF"/>
<rect x="190.5" y="221.5" width="141" height="27" rx="5.67949" stroke="#A4DEFF"/>
<rect x="200.5" y="216.5" width="142" height="27" rx="5.67949" stroke="#A4DEFF"/>
<path d="M66.2844 37.1514C68.0795 37.1514 69.3015 35.778 69.3015 33.1934C69.3015 30.5981 67.9389 29.2787 66.2844 29.2787C64.619 29.2787 63.2456 30.5981 63.2456 33.1934C63.2456 35.778 64.4784 37.1514 66.2844 37.1514ZM66.2844 36.1889C65.1056 36.1889 64.3811 35.14 64.3811 33.1934C64.3811 31.3767 65.1273 30.2412 66.2844 30.2412C67.4199 30.2412 68.166 31.3767 68.166 33.1934C68.166 35.1508 67.4415 36.1889 66.2844 36.1889ZM71.2029 37L71.8518 36.0375C72.2086 35.5077 72.3709 35.2589 72.5439 35.0102C72.7061 35.2589 72.8467 35.4752 73.2252 36.0375L73.8632 37H75.096L73.1819 34.264L74.9771 31.6362H73.8524L73.2901 32.5013C72.9116 33.0961 72.771 33.3016 72.6088 33.5287C72.4574 33.3016 72.3276 33.0961 71.9599 32.5013L71.3976 31.6362H70.1972L71.9707 34.2532L70.0999 37H71.2029ZM78.5254 37.1514C80.1475 37.1514 81.1532 36.1241 81.1532 34.6317C81.1532 33.1394 80.2015 32.2202 78.7633 32.2202C77.9198 32.2202 77.3682 32.5554 76.9789 33.0204L77.1303 32.0039L77.3682 30.425H80.9369V29.4301H76.568L75.9192 33.7558L77.0654 33.9396C77.3466 33.4746 77.8224 33.1177 78.4929 33.1177C79.4445 33.1177 80.0393 33.7341 80.0393 34.6642C80.0393 35.605 79.4445 36.2106 78.4821 36.2106C77.6494 36.2106 77.0438 35.7347 76.86 34.8804L75.7678 35.2373C75.984 36.3079 76.9249 37.1514 78.5254 37.1514ZM87.433 37V36.0051H85.3134H83.5507C84.8916 35.194 85.8974 34.4803 86.5462 33.7341C87.0653 33.1286 87.3464 32.4364 87.3464 31.6254C87.3464 30.2736 86.4164 29.2787 84.8484 29.2787C83.2695 29.2787 82.3071 30.3277 82.2963 31.766L83.3885 31.9174C83.3885 30.8468 84.0157 30.252 84.8376 30.252C85.5837 30.252 86.211 30.7603 86.211 31.7443C86.211 33.2583 84.4699 34.5128 82.3611 35.8104V37H87.433ZM91.6395 37.1514C92.9047 37.1514 93.8347 36.07 93.8347 34.3181C93.8347 32.5554 92.9047 31.4848 91.6395 31.4848C90.6986 31.4848 90.1796 32.0039 89.9308 32.4473V31.4199V29.4301H88.9143V37H89.8984V36.1889C90.1579 36.6323 90.6986 37.1514 91.6395 37.1514ZM91.3475 36.2863C90.4932 36.2863 89.8768 35.6266 89.8768 34.3073C89.8768 32.988 90.4932 32.3499 91.3475 32.3499C92.1802 32.3499 92.7858 32.8474 92.7858 34.3073C92.7858 35.7564 92.1802 36.2863 91.3475 36.2863ZM97.8036 37.1514C99.523 37.1514 100.464 35.951 100.464 34.5128C100.464 33.1718 99.5339 32.0904 98.0415 32.0904C97.1115 32.0904 96.3113 32.6095 95.9976 33.4097C95.9976 31.2685 97.1548 30.3061 98.6363 30.3061C99.1446 30.3061 99.5987 30.4034 100.01 30.5548V29.5058C99.642 29.3652 99.0472 29.2787 98.6038 29.2787C96.1382 29.2787 94.9379 31.0955 94.9379 33.4746C94.9379 35.8429 96.0842 37.1514 97.8036 37.1514ZM97.8036 36.2106C96.9385 36.2106 96.268 35.5834 96.268 34.6101C96.268 33.6368 96.9385 33.0096 97.8036 33.0096C98.6471 33.0096 99.3392 33.6368 99.3392 34.6101C99.3392 35.5834 98.6471 36.2106 97.8036 36.2106ZM104.241 37.1514C106.015 37.1514 106.901 36.1889 106.901 34.9778C106.901 33.9829 106.274 33.2799 105.431 33.0853C106.166 32.8366 106.707 32.231 106.707 31.3118C106.707 30.1114 105.712 29.2787 104.241 29.2787C102.77 29.2787 101.775 30.1114 101.775 31.3118C101.775 32.231 102.327 32.8366 103.051 33.0853C102.251 33.2691 101.57 33.9612 101.57 34.9778C101.57 36.1889 102.457 37.1514 104.241 37.1514ZM104.241 32.6635C103.462 32.6635 102.857 32.1985 102.857 31.4199C102.857 30.7062 103.43 30.2087 104.241 30.2087C105.052 30.2087 105.625 30.7062 105.625 31.4199C105.625 32.1985 105.02 32.6635 104.241 32.6635ZM104.241 36.2106C103.3 36.2106 102.695 35.6915 102.695 34.8696C102.695 34.0586 103.3 33.507 104.241 33.507C105.182 33.507 105.777 34.0586 105.777 34.8696C105.777 35.6915 105.193 36.2106 104.241 36.2106ZM110.702 37.1514C112.303 37.1514 113.254 36.2106 113.254 35.0643C113.254 34.0369 112.627 33.3124 111.729 33.1069C112.53 32.8474 113.114 32.2094 113.114 31.2793C113.114 30.1439 112.227 29.2787 110.702 29.2787C109.188 29.2787 108.28 30.2196 108.182 31.3875L109.296 31.5713C109.372 30.7819 109.88 30.2196 110.702 30.2196C111.427 30.2196 112.021 30.6954 112.021 31.4524C112.021 32.231 111.416 32.696 110.68 32.696H110.14V33.6152H110.68C111.524 33.6152 112.14 34.1018 112.14 34.9237C112.14 35.7239 111.513 36.2106 110.702 36.2106C109.783 36.2106 109.177 35.5834 109.134 34.5993L107.999 34.8372C108.107 36.243 109.123 37.1514 110.702 37.1514ZM115.989 37V35.5942H114.605V37H115.989ZM118.819 37V35.5942H117.435V37H118.819ZM121.649 37V35.5942H120.265V37H121.649Z" fill="#A4DEFF"/>
<rect x="22.5" y="24.5" width="141" height="27" rx="5.67949" stroke="#A4DEFF"/>
<rect x="27.5" y="18.5" width="142" height="27" rx="5.67949" stroke="#A4DEFF"/>
<g clip-path="url(#clip0_8245_80130)">
<path d="M93.5 56C93.5 55.7239 93.2761 55.5 93 55.5C92.7239 55.5 92.5 55.7239 92.5 56H93.5ZM187.354 107.354C187.549 107.158 187.549 106.842 187.354 106.646L184.172 103.465C183.976 103.269 183.66 103.269 183.464 103.465C183.269 103.66 183.269 103.976 183.464 104.172L186.293 107L183.464 109.828C183.269 110.024 183.269 110.34 183.464 110.535C183.66 110.731 183.976 110.731 184.172 110.535L187.354 107.354ZM92.5 56V83H93.5V56H92.5ZM117 107.5H187V106.5H117V107.5ZM92.5 83C92.5 96.531 103.469 107.5 117 107.5V106.5C104.021 106.5 93.5 95.9787 93.5 83H92.5Z" fill="#A4DEFF"/>
<path d="M187.354 107.354C187.549 107.158 187.549 106.842 187.354 106.646L184.172 103.464C183.976 103.269 183.66 103.269 183.464 103.464C183.269 103.66 183.269 103.976 183.464 104.172L186.293 107L183.464 109.828C183.269 110.024 183.269 110.34 183.464 110.535C183.66 110.731 183.976 110.731 184.172 110.535L187.354 107.354ZM168.5 217V191H167.5V217H168.5ZM144 166.5H135V167.5H144V166.5ZM111.5 143V131H110.5V143H111.5ZM135 107.5H187V106.5H135V107.5ZM111.5 131C111.5 118.021 122.021 107.5 135 107.5V106.5C121.469 106.5 110.5 117.469 110.5 131H111.5ZM135 166.5C122.021 166.5 111.5 155.979 111.5 143H110.5C110.5 156.531 121.469 167.5 135 167.5V166.5ZM168.5 191C168.5 177.469 157.531 166.5 144 166.5V167.5C156.979 167.5 167.5 178.021 167.5 191H168.5ZM186 234.5C176.335 234.5 168.5 226.665 168.5 217H167.5C167.5 227.217 175.783 235.5 186 235.5V234.5Z" fill="#A4DEFF"/>
<path d="M71 180C71 180.276 71.2239 180.5 71.5 180.5C71.7761 180.5 72 180.276 72 180H71ZM187.354 107.354C187.549 107.158 187.549 106.842 187.354 106.646L184.172 103.464C183.976 103.269 183.66 103.269 183.464 103.464C183.269 103.66 183.269 103.976 183.464 104.172L186.293 107L183.464 109.828C183.269 110.024 183.269 110.34 183.464 110.535C183.66 110.731 183.976 110.731 184.172 110.535L187.354 107.354ZM72 180V131H71V180H72ZM95.5 107.5H187V106.5H95.5V107.5ZM72 131C72 118.021 82.5213 107.5 95.5 107.5V106.5C81.969 106.5 71 117.469 71 131H72Z" fill="#A4DEFF"/>
</g>
<defs>
<clipPath id="clip0_8245_80130">
<rect width="117" height="181" fill="white" transform="translate(71 55)"/>
</clipPath>
</defs>
</svg>
