<svg width="319" height="263" viewBox="0 0 319 263" fill="none" xmlns="http://www.w3.org/2000/svg">
<line x1="84.4758" y1="82.8465" x2="116.476" y2="181.846" stroke="#00FFFF"/>
<line x1="84.5" y1="83.0002" x2="84.5" y2="148" stroke="#00FFFF"/>
<line x1="116.641" y1="182.348" x2="83.6412" y2="148.348" stroke="#00FFFF"/>
<line x1="117" y1="181.5" x2="184" y2="181.5" stroke="#00FFFF"/>
<line x1="84.1187" y1="81.5145" x2="219.119" y2="114.515" stroke="#00FFFF"/>
<line x1="183.557" y1="181.768" x2="218.557" y2="114.768" stroke="#00FFFF"/>
<line x1="116.725" y1="181.582" x2="218.725" y2="114.582" stroke="#00FFFF"/>
<line x1="151.244" y1="76.5638" x2="219.244" y2="114.564" stroke="#00FFFF"/>
<path fill-rule="evenodd" clip-rule="evenodd" d="M218.187 115.02L221 10.0001L222 10.0269L219.187 115.047L218.187 115.02Z" fill="url(#paint0_linear_3374_41801)"/>
<path fill-rule="evenodd" clip-rule="evenodd" d="M218.759 115L307.787 218.653L307.028 219.304L218 115.651L218.759 115Z" fill="url(#paint1_linear_3374_41801)"/>
<path fill-rule="evenodd" clip-rule="evenodd" d="M182 182.37L318.632 167.192L318.742 168.186L182.111 183.364L182 182.37Z" fill="url(#paint2_linear_3374_41801)"/>
<path fill-rule="evenodd" clip-rule="evenodd" d="M149 80.2102L182.902 8.443e-05L183.823 0.389404L149.921 80.5995L149 80.2102Z" fill="url(#paint3_linear_3374_41801)"/>
<path fill-rule="evenodd" clip-rule="evenodd" d="M82.8489 148.748L6.92477 215.999L6.26172 215.25L82.1859 148L82.8489 148.748Z" fill="url(#paint4_linear_3374_41801)"/>
<path fill-rule="evenodd" clip-rule="evenodd" d="M120.51 182.989L2.96544 200.112L2.82129 199.123L120.366 182L120.51 182.989Z" fill="url(#paint5_linear_3374_41801)"/>
<path fill-rule="evenodd" clip-rule="evenodd" d="M83.7903 149.532L13.1535 262.002L12.3066 261.47L82.9435 149L83.7903 149.532Z" fill="url(#paint6_linear_3374_41801)"/>
<path fill-rule="evenodd" clip-rule="evenodd" d="M83.6659 82.1072L5.5939e-05 57.9608L0.277344 57L83.9432 81.1464L83.6659 82.1072Z" fill="url(#paint7_linear_3374_41801)"/>
<line x1="151.364" y1="77.3434" x2="84.3636" y2="148.343" stroke="#00FFFF"/>
<line x1="151.364" y1="77.3434" x2="84.3636" y2="148.343" stroke="#00FFFF"/>
<line x1="183.839" y1="182.473" x2="83.8391" y2="148.473" stroke="#00FFFF"/>
<line x1="151.037" y1="77.4989" x2="84.0372" y2="82.4989" stroke="#00FFFF"/>
<line x1="151.477" y1="76.8503" x2="184.477" y2="181.85" stroke="#00FFFF"/>
<line x1="151.476" y1="77.1543" x2="117.476" y2="182.154" stroke="#00FFFF"/>
<rect x="80.5" y="78.5002" width="7" height="7" fill="black" stroke="#00FFFF"/>
<rect x="80.5" y="144.5" width="7" height="7" fill="black" stroke="#00FFFF"/>
<rect x="113.5" y="178.5" width="7" height="7" fill="black" stroke="#00FFFF"/>
<rect x="180.5" y="178.5" width="7" height="7" fill="black" stroke="#00FFFF"/>
<rect x="214.5" y="111.5" width="7" height="7" fill="black" stroke="#00FFFF"/>
<rect x="147.5" y="73.5002" width="7" height="7" fill="black" stroke="#00FFFF"/>
<defs>
<linearGradient id="paint0_linear_3374_41801" x1="218.181" y1="111.738" x2="221.435" y2="6.24819" gradientUnits="userSpaceOnUse">
<stop stop-color="#00FFFF"/>
<stop offset="1" stop-color="#00FFFF" stop-opacity="0"/>
</linearGradient>
<linearGradient id="paint1_linear_3374_41801" x1="221.61" y1="118.176" x2="310.496" y2="222.774" gradientUnits="userSpaceOnUse">
<stop stop-color="#00FFFF"/>
<stop offset="1" stop-color="#00FFFF" stop-opacity="0"/>
</linearGradient>
<linearGradient id="paint2_linear_3374_41801" x1="186.257" y1="181.803" x2="323.594" y2="167.283" gradientUnits="userSpaceOnUse">
<stop stop-color="#00FFFF"/>
<stop offset="1" stop-color="#00FFFF" stop-opacity="0"/>
</linearGradient>
<linearGradient id="paint3_linear_3374_41801" x1="149.973" y1="77.6691" x2="182.834" y2="1.92771" gradientUnits="userSpaceOnUse">
<stop stop-color="#00FFFF"/>
<stop offset="1" stop-color="#00FFFF" stop-opacity="0"/>
</linearGradient>
<linearGradient id="paint4_linear_3374_41801" x1="80.5399" y1="150.918" x2="7.85817" y2="213.882" gradientUnits="userSpaceOnUse">
<stop stop-color="#00FFFF"/>
<stop offset="1" stop-color="#00FFFF" stop-opacity="0"/>
</linearGradient>
<linearGradient id="paint5_linear_3374_41801" x1="116.853" y1="183.617" x2="5.21086" y2="198.412" gradientUnits="userSpaceOnUse">
<stop stop-color="#00FFFF"/>
<stop offset="1" stop-color="#00FFFF" stop-opacity="0"/>
</linearGradient>
<linearGradient id="paint6_linear_3374_41801" x1="81.6636" y1="153.094" x2="13.1648" y2="258.745" gradientUnits="userSpaceOnUse">
<stop stop-color="#00FFFF"/>
<stop offset="1" stop-color="#00FFFF" stop-opacity="0"/>
</linearGradient>
<linearGradient id="paint7_linear_3374_41801" x1="81.0273" y1="81.4429" x2="1.92221" y2="57.8002" gradientUnits="userSpaceOnUse">
<stop stop-color="#00FFFF"/>
<stop offset="1" stop-color="#00FFFF" stop-opacity="0"/>
</linearGradient>
</defs>
</svg>
