<svg width="16" height="16" viewBox="0 0 16 16" fill="none" xmlns="http://www.w3.org/2000/svg">
<g clip-path="url(#clip0_2443_1664)">
<path d="M4.03343 16H11.9588C13.5036 16 14.2722 15.2164 14.2722 13.6642V6.88806C14.2722 5.92537 14.1603 5.50746 13.5633 4.89552L9.45134 0.708955C8.88418 0.126866 8.41403 0 7.57821 0H4.03343C2.49612 0 1.72 0.791045 1.72 2.34328V13.6642C1.72 15.2239 2.48866 16 4.03343 16ZM4.08567 14.7985C3.31702 14.7985 2.92149 14.3881 2.92149 13.6418V2.36567C2.92149 1.62687 3.31702 1.20149 4.09314 1.20149H7.41403V5.53731C7.41403 6.47761 7.88418 6.9403 8.81702 6.9403H13.0707V13.6418C13.0707 14.3881 12.6752 14.7985 11.8991 14.7985H4.08567ZM8.95134 5.81343C8.65284 5.81343 8.5409 5.69403 8.5409 5.39552V1.43284L12.8394 5.81343H8.95134Z" fill="white"/>
<path d="M6.09549 13.2C6.22357 13.2 6.33495 13.1499 6.41848 13.0608L7.99443 11.4737L9.58151 13.0608C9.66504 13.1443 9.77085 13.2 9.89893 13.2C10.144 13.2 10.3444 12.994 10.3444 12.7489C10.3444 12.6209 10.2999 12.515 10.2108 12.4315L8.62926 10.85L10.2163 9.25735C10.311 9.16268 10.35 9.06801 10.35 8.9455C10.35 8.69491 10.1495 8.5 9.9045 8.5C9.78755 8.5 9.69288 8.53898 9.59822 8.63365L7.99443 10.2263L6.40734 8.63922C6.32381 8.55012 6.22357 8.51114 6.09549 8.51114C5.85047 8.51114 5.64999 8.70047 5.64999 8.95107C5.64999 9.07358 5.70011 9.17938 5.78364 9.26291L7.36516 10.85L5.78364 12.4371C5.70011 12.515 5.64999 12.6264 5.64999 12.7489C5.64999 12.994 5.85047 13.2 6.09549 13.2Z" fill="white"/>
</g>
<defs>
<clipPath id="clip0_2443_1664">
<rect width="16" height="16" fill="white"/>
</clipPath>
</defs>
</svg>
