<svg width="16" height="17" viewBox="0 0 16 17" fill="none"
  xmlns="http://www.w3.org/2000/svg">
  <path d="M2.99088 13.8187C5.10025 15.9281 7.74451 16.576 8.99506 16.704C9.49227 16.7794 9.80868 16.5157 9.83128 16.1315C9.86141 15.7774 9.64294 15.4911 9.19847 15.4007C8.06091 15.2124 5.718 14.6624 3.9401 12.8695C1.05477 9.99169 0.482229 5.52433 2.86281 3.13622C4.76878 1.23778 7.93284 1.42612 10.2682 2.68421L11.2551 1.71239C8.25678 -0.110712 4.2791 -0.17098 1.92112 2.187C-0.896399 5.01206 -0.564926 10.2629 2.99088 13.8187ZM14.4418 2.88761L15.0821 2.23973C15.4136 1.90073 15.4437 1.41105 15.1123 1.09464L14.8862 0.876174C14.5924 0.604969 14.1178 0.627569 13.7939 0.943975L13.146 1.59185L14.4418 2.88761ZM7.08156 10.2403L13.8843 3.44509L12.581 2.14933L5.7858 8.94453L5.13039 10.5266C5.04752 10.7375 5.25846 10.9409 5.46186 10.8656L7.08156 10.2403ZM5.8536 11.521C8.25678 14.0221 12.3927 14.9563 14.6527 12.7037C16.4909 10.858 16.3327 7.58097 14.3288 4.74838L13.3645 5.71267C14.841 7.88985 15.1123 10.3458 13.7035 11.7545C11.9708 13.4872 9.14573 12.7037 7.30003 10.9409L5.8536 11.521Z" fill="black"/>
</svg>
