<svg width="17" height="17" viewBox="0 0 17 17" fill="none" xmlns="http://www.w3.org/2000/svg">
<path d="M8.36719 16.3281C12.7266 16.3281 16.3359 12.7109 16.3359 8.35938C16.3359 4 12.7188 0.390625 8.35938 0.390625C4.00781 0.390625 0.398438 4 0.398438 8.35938C0.398438 12.7109 4.01562 16.3281 8.36719 16.3281ZM8.36719 15C4.67969 15 1.73438 12.0469 1.73438 8.35938C1.73438 4.67188 4.67188 1.71875 8.35938 1.71875C12.0469 1.71875 15 4.67188 15.0078 8.35938C15.0156 12.0469 12.0547 15 8.36719 15ZM5.39062 9.01562H7.70312V11.3438C7.70312 11.7344 7.96875 12 8.35156 12C8.74219 12 9.01562 11.7344 9.01562 11.3438V9.01562H11.3438C11.7344 9.01562 12 8.75 12 8.36719C12 7.97656 11.7344 7.70312 11.3438 7.70312H9.01562V5.39062C9.01562 4.98438 8.74219 4.71875 8.35156 4.71875C7.96875 4.71875 7.70312 4.99219 7.70312 5.39062V7.70312H5.39062C4.98438 7.70312 4.71875 7.97656 4.71875 8.36719C4.71875 8.75 4.99219 9.01562 5.39062 9.01562Z" fill="#4376FF"/>
</svg>
