<svg width="14" height="14" viewBox="0 0 14 14" fill="none" xmlns="http://www.w3.org/2000/svg">
<path d="M7 14C10.8294 14 14 10.8225 14 7C14 3.17059 10.8225 0 6.99314 0C3.17059 0 0 3.17059 0 7C0 10.8225 3.17745 14 7 14ZM7 12.8333C3.76078 12.8333 1.17353 10.2392 1.17353 7C1.17353 3.76078 3.75392 1.16667 6.99314 1.16667C10.2324 1.16667 12.8265 3.76078 12.8333 7C12.8402 10.2392 10.2392 12.8333 7 12.8333ZM6.85588 8.42059C7.19902 8.42059 7.41176 8.20784 7.41176 7.93333V7.85098C7.41176 7.46667 7.63137 7.22647 8.11176 6.91078C8.77745 6.47157 9.25098 6.06667 9.25098 5.25C9.25098 4.10392 8.23529 3.49314 7.06863 3.49314C5.88824 3.49314 5.11275 4.04902 4.92745 4.68039C4.89314 4.79706 4.86569 4.90686 4.86569 5.02353C4.86569 5.32549 5.11275 5.49706 5.33922 5.49706C5.73039 5.49706 5.79216 5.28431 6.01176 5.03039C6.23824 4.65294 6.56765 4.42647 7.02745 4.42647C7.65196 4.42647 8.05686 4.77647 8.05686 5.3049C8.05686 5.77157 7.76863 5.99804 7.17157 6.4098C6.67745 6.75294 6.30686 7.11667 6.30686 7.78922V7.87843C6.30686 8.24216 6.50588 8.42059 6.85588 8.42059ZM6.84216 10.4725C7.2402 10.4725 7.58333 10.1569 7.58333 9.75882C7.58333 9.35392 7.24706 9.0451 6.84216 9.0451C6.43725 9.0451 6.10098 9.36078 6.10098 9.75882C6.10098 10.15 6.44412 10.4725 6.84216 10.4725Z" fill="#646871"/>
</svg>
