<svg width="19" height="19" viewBox="0 0 19 19" fill="none" xmlns="http://www.w3.org/2000/svg">
<path d="M13.8468 1.01999C13.6392 0.91322 13.3977 0.893424 13.1756 0.964955C12.9534 1.03649 12.7687 1.19348 12.6621 1.40141C12.5555 1.60934 12.5358 1.85116 12.6072 2.07369C12.6786 2.29621 12.8353 2.4812 13.0429 2.58797C14.0749 3.1176 14.9734 3.87478 15.6709 4.80253C16.5958 6.02355 17.1389 7.4916 17.2317 9.02145C17.3245 10.5513 16.9628 12.0744 16.1923 13.3986C15.4218 14.7228 14.277 15.7887 12.9023 16.4619C11.5276 17.1351 9.98469 17.3855 8.46814 17.1813C6.95158 16.9771 5.52937 16.3276 4.38095 15.3147C3.23252 14.3019 2.40934 12.971 2.01527 11.49C1.62119 10.009 1.67387 8.44434 2.16666 6.99332C2.65945 5.54231 3.57027 4.26999 4.78421 3.3369L4.61236 4.58019C4.58055 4.81154 4.64176 5.04607 4.78253 5.23223C4.9233 5.41839 5.13212 5.54095 5.36307 5.57295C5.40344 5.57881 5.44418 5.58169 5.48497 5.58158C5.69707 5.58111 5.90185 5.50388 6.06159 5.36412C6.22133 5.22435 6.32526 5.03148 6.35423 4.82102L6.9382 0.592756L2.71606 0.00661205C2.48569 -0.0215912 2.25341 0.041123 2.06841 0.181473C1.8834 0.321824 1.7602 0.528789 1.7249 0.758539C1.69309 0.989887 1.7543 1.22442 1.89507 1.41058C2.03584 1.59674 2.24466 1.7193 2.47561 1.7513L3.73008 1.92536C2.23885 3.06729 1.1188 4.62611 0.511289 6.40507C-0.0962195 8.18403 -0.163949 10.1034 0.316649 11.9209C0.797248 13.7383 1.80463 15.3725 3.21165 16.617C4.61866 17.8615 6.36223 18.6607 8.22229 18.9135C10.0823 19.1664 11.9755 18.8617 13.6628 18.0378C15.3501 17.214 16.7559 15.9079 17.7028 14.2845C18.6497 12.6611 19.0952 10.7931 18.983 8.91628C18.8709 7.03949 18.2062 5.23803 17.0728 3.73929C16.2169 2.59991 15.1138 1.6701 13.8468 1.01999Z" fill="#B2B2B2"/>
</svg>
