<svg width="21" height="19" viewBox="0 0 21 19" fill="none" xmlns="http://www.w3.org/2000/svg">
    <path d="M7.7572 1.31952C7.28106 1.44578 7.00836 1.93669 7.15806 2.39997C7.30799 2.86338 7.81941 3.11566 8.28623 2.95392C10.9896 2.12724 13.9373 2.98217 15.7656 5.12148C17.5925 7.26041 17.9338 10.2544 16.6286 12.7187C16.3923 13.138 16.5544 13.6703 16.9911 13.8948C17.4268 14.1189 17.9629 13.9478 18.1771 13.5165C19.8044 10.4441 19.3803 6.69385 17.1012 4.02635C14.8219 1.35695 11.1303 0.289818 7.7572 1.31952Z" fill="#8F9CAB"/>
    <path d="M20.3136 13.4684C20.5089 13.0553 20.3395 12.5635 19.93 12.3529L16.3815 10.5281C15.7102 10.1843 14.9472 10.7957 15.1511 11.5133L15.9439 14.2757C16.0805 14.746 16.5892 15.0075 17.0576 14.8484L19.8123 13.9132C20.0331 13.8377 20.2146 13.6766 20.3136 13.4684Z" fill="#8F9CAB"/>
    <path d="M13.0543 17.7197C13.5322 17.5931 13.804 17.1033 13.6552 16.639C13.504 16.1749 12.9929 15.9243 12.527 16.085C9.82365 16.9117 6.87475 16.0561 5.04647 13.9168C3.21796 11.7774 2.87839 8.78367 4.18329 6.31989C4.43356 5.89758 4.27269 5.35438 3.82963 5.12654C3.388 4.89943 2.84342 5.08015 2.63532 5.52385C1.00665 8.59553 1.43212 12.3465 3.71123 15.014C5.99141 17.6817 9.68231 18.7503 13.0543 17.7197Z" fill="#8F9CAB"/>
    <path d="M0.439479 5.68396C0.243646 6.09823 0.411671 6.58911 0.823153 6.79952L4.3707 8.62384C5.04197 8.96755 5.80615 8.35679 5.60127 7.63816L4.80815 4.87584C4.67284 4.40595 4.16445 4.14451 3.69445 4.30312L0.940758 5.23972C0.719977 5.31472 0.538552 5.47579 0.439479 5.68396Z" fill="#8F9CAB"/>
</svg>
