<svg width="16" height="17" viewBox="0 0 16 17" fill="none" xmlns="http://www.w3.org/2000/svg">
<path fill-rule="evenodd" clip-rule="evenodd" d="M7.30713 16.3074C7.30713 15.9287 7.61413 15.6217 7.99284 15.6217C8.86332 15.6217 9.72527 15.4503 10.5295 15.1172C11.3337 14.784 12.0644 14.2958 12.68 13.6803C13.2955 13.0648 13.7837 12.334 14.1168 11.5298C14.45 10.7256 14.6214 9.86364 14.6214 8.99316C14.6214 8.12269 14.45 7.26073 14.1168 6.45652C13.7837 5.6523 13.2955 4.92158 12.68 4.30606C12.0644 3.69054 11.3337 3.20228 10.5295 2.86916C9.72527 2.53605 8.86332 2.36459 7.99284 2.36459C7.61413 2.36459 7.30713 2.05759 7.30713 1.67888C7.30713 1.30017 7.61413 0.993164 7.99284 0.993164C9.04342 0.993164 10.0837 1.20009 11.0543 1.60213C12.0249 2.00416 12.9068 2.59344 13.6497 3.33631C14.3926 4.07918 14.9818 4.96109 15.3839 5.9317C15.7859 6.9023 15.9928 7.94259 15.9928 8.99316C15.9928 10.0437 15.7859 11.084 15.3839 12.0546C14.9818 13.0252 14.3926 13.9071 13.6497 14.65C12.9068 15.3929 12.0249 15.9822 11.0543 16.3842C10.0837 16.7862 9.04342 16.9932 7.99284 16.9932C7.61413 16.9932 7.30713 16.6862 7.30713 16.3074Z" fill="#4376FF"/>
<path d="M8.89612 8.99046C8.89612 8.56262 8.60431 8.26989 8.16934 8.26989H3.3328L2.13801 8.32055L3.56404 7.03141L4.80838 5.75353C4.94052 5.61842 5.02861 5.44954 5.02861 5.23562C5.02861 4.84156 4.74231 4.54883 4.34038 4.54883C4.15868 4.54883 3.98249 4.62201 3.83383 4.77401L0.227465 8.45566C0.0843115 8.5964 0.00722885 8.79343 0.00722885 8.99046C0.00722885 9.18749 0.0843115 9.39015 0.227465 9.52526L3.83383 13.2125C3.98249 13.3645 4.15868 13.4377 4.34038 13.4377C4.74231 13.4377 5.02861 13.145 5.02861 12.7509C5.02861 12.537 4.94052 12.3625 4.80838 12.233L3.56404 10.9495L2.13801 9.66599L3.3328 9.71103H8.16934C8.60431 9.71103 8.89612 9.4183 8.89612 8.99046Z" fill="#4376FF"/>
</svg>
