<svg width="15" height="16" viewBox="0 0 15 16" fill="none" xmlns="http://www.w3.org/2000/svg">
<path d="M7 1C7.91925 1 8.82951 1.18106 9.67878 1.53284C10.5281 1.88463 11.2997 2.40024 11.9497 3.05025C12.5998 3.70026 13.1154 4.47194 13.4672 5.32122C13.8189 6.1705 14 7.08075 14 8C14 8.91925 13.8189 9.82951 13.4672 10.6788C13.1154 11.5281 12.5998 12.2997 11.9497 12.9497C11.2997 13.5998 10.5281 14.1154 9.67878 14.4672C8.82951 14.8189 7.91925 15 7 15" stroke="#747F86" stroke-width="1.5" stroke-linecap="round"/>
<path d="M7.77832 7.99775C7.77832 7.6234 7.52298 7.36726 7.14239 7.36726H2.91041L1.86498 7.41159L3.11275 6.28359L4.20155 5.16544C4.31717 5.04722 4.39425 4.89945 4.39425 4.71227C4.39425 4.36747 4.14374 4.11133 3.79205 4.11133C3.63306 4.11133 3.4789 4.17536 3.34882 4.30836L0.193249 7.52981C0.0679898 7.65295 0.000542641 7.82535 0.000542641 7.99775C0.000542641 8.17016 0.0679898 8.34748 0.193249 8.4657L3.34882 11.6921C3.4789 11.8251 3.63306 11.8891 3.79205 11.8891C4.14374 11.8891 4.39425 11.633 4.39425 11.2882C4.39425 11.101 4.31717 10.9483 4.20155 10.835L3.11275 9.71192L1.86498 8.58885L2.91041 8.62825H7.14239C7.52298 8.62825 7.77832 8.37211 7.77832 7.99775Z" fill="#747F86"/>
</svg>
