<svg width="12" height="17" viewBox="0 0 12 17" fill="none" xmlns="http://www.w3.org/2000/svg">
<path d="M10.0195 16.2443V10.7298C11.2326 9.60739 12 7.97623 12 6.16549C12.0073 2.75352 9.31059 0 5.99999 0C2.6894 0 0 2.75352 0 6.16549C0 8.01364 0.796589 9.68222 2.0609 10.8046V16.2443C2.0609 16.768 2.36053 17 2.73325 17C3.01827 17 3.2302 16.8504 3.44945 16.6259L5.75882 14.2764C5.86845 14.1642 5.95614 14.1268 6.04384 14.1268C6.12423 14.1268 6.21193 14.1642 6.32155 14.2764L8.63093 16.6259C8.85748 16.8578 9.07672 17 9.35443 17C9.72715 17 10.0195 16.768 10.0195 16.2443ZM6.0073 10.842C3.46406 10.8345 1.47625 8.7544 1.47625 6.16549C1.47625 3.5691 3.46406 1.489 6.0073 1.489C8.54323 1.489 10.531 3.5691 10.5384 6.16549C10.5457 8.7544 8.54323 10.842 6.0073 10.842Z" fill="#646871"/>
</svg>
