<svg width="16" height="16" viewBox="0 0 16 16" fill="none" xmlns="http://www.w3.org/2000/svg">
<path d="M11.852 15.2887V10.0986C13.0146 9.04225 13.75 7.50704 13.75 5.80282C13.757 2.59155 11.1726 0 7.99999 0C4.82734 0 2.25 2.59155 2.25 5.80282C2.25 7.54225 3.0134 9.11268 4.22503 10.169V15.2887C4.22503 15.7817 4.51218 16 4.86936 16C5.14251 16 5.34561 15.8592 5.55572 15.6479L7.76887 13.4366C7.87393 13.331 7.95797 13.2958 8.04201 13.2958C8.11905 13.2958 8.2031 13.331 8.30815 13.4366L10.5213 15.6479C10.7384 15.8662 10.9485 16 11.2147 16C11.5719 16 11.852 15.7817 11.852 15.2887ZM8.007 10.2042C5.56973 10.1972 3.66474 8.23944 3.66474 5.80282C3.66474 3.35915 5.56973 1.40141 8.007 1.40141C10.4373 1.40141 12.3423 3.35915 12.3493 5.80282C12.3563 8.23944 10.4373 10.2042 8.007 10.2042Z" fill="#90949E"/>
</svg>
