<svg width="18" height="14" viewBox="0 0 18 14" fill="none" xmlns="http://www.w3.org/2000/svg">
<path d="M0 7.89258C0 11.707 2.39062 13.8516 6.46875 13.8516H8.15625C9.70312 13.8516 10.6436 13.1133 10.6436 12.2695C10.6436 12.0762 10.5469 11.9795 10.3623 11.9795H9.61523C9.26367 11.9795 9.08789 11.7949 9.08789 11.584C9.08789 11.3555 9.26367 11.1797 9.61523 11.1797H10.1074C11.0127 11.1797 11.6104 10.5908 11.6104 9.80859C11.6104 9.44824 11.4609 9.29004 11.1621 9.29004H10.1426C9.79102 9.29004 9.61523 9.11426 9.61523 8.90332C9.61523 8.6748 9.79102 8.49023 10.1426 8.49023H11.083C12.1025 8.49023 12.5859 7.90137 12.5859 7.13672C12.5859 6.80273 12.4277 6.61816 12.1377 6.61816H10.1426C9.79102 6.61816 9.61523 6.44238 9.61523 6.23145C9.61523 6.00293 9.79102 5.81836 10.1426 5.81836H16.8135C17.4639 5.81836 17.8857 5.39648 17.8857 4.84277C17.8857 4.25391 17.4639 3.84961 16.8135 3.84961H7.04883C6.80273 3.84961 6.67969 3.69141 6.67969 3.54199C6.67969 3.39258 6.76758 3.26953 7.01367 3.16406L10.0635 1.87207C10.5117 1.67871 10.7051 1.38867 10.7051 0.993164C10.7051 0.386719 10.292 0 9.7998 0C9.59766 0 9.43066 0.0439453 9.29004 0.0878906L5.04492 1.51172C1.46777 2.72461 0 5.08887 0 7.89258Z" fill="white"/>
</svg>
