<svg width="15" height="12" viewBox="0 0 15 12" fill="none" xmlns="http://www.w3.org/2000/svg">
    <path d="M14.5078 5.82812C14.5078 5.67969 14.4453 5.54688 14.3281 5.4375L9.10938 0.203125C8.96094 0.0546875 8.82812 0 8.6875 0C8.39062 0 8.17188 0.21875 8.17188 0.507812C8.17188 0.65625 8.21875 0.789062 8.3125 0.890625L10.6484 3.25L12.9531 5.39062L11.1406 5.30469H0.515625C0.21875 5.30469 0 5.52344 0 5.82812C0 6.13281 0.21875 6.35156 0.515625 6.35156H11.1406L12.9609 6.26562L10.6484 8.40625L8.3125 10.7656C8.21875 10.8594 8.17188 11 8.17188 11.1406C8.17188 11.4297 8.39062 11.6484 8.6875 11.6484C8.82812 11.6484 8.95312 11.6016 9.07031 11.4922L14.3281 6.21875C14.4453 6.10938 14.5078 5.97656 14.5078 5.82812Z" fill="white"/>
</svg>
