<svg width="14" height="15" viewBox="0 0 14 15" fill="none" xmlns="http://www.w3.org/2000/svg">
<path d="M7 0.375C6.82031 0.375 6.65625 0.445312 6.46875 0.601562L1.20312 4.875C1.07031 4.99219 0.992188 5.15625 0.992188 5.39062C0.992188 5.79688 1.29688 6.10156 1.70312 6.10156C1.875 6.10156 2.03906 6.03906 2.22656 5.89844L7 2.00781L11.7734 5.89844C11.9531 6.03906 12.125 6.10156 12.2891 6.10156C12.7031 6.10156 13.0078 5.79688 13.0078 5.39062C13.0078 5.15625 12.9297 4.99219 12.7969 4.875L7.53125 0.59375C7.34375 0.445312 7.17188 0.375 7 0.375ZM7 14.2031C7.17188 14.2031 7.34375 14.1328 7.53125 13.9844L12.7969 9.70312C12.9297 9.58594 13.0078 9.42188 13.0078 9.1875C13.0078 8.78125 12.7031 8.46875 12.2891 8.46875C12.125 8.46875 11.9531 8.53906 11.7734 8.67969L7 12.5703L2.22656 8.67969C2.03906 8.53906 1.875 8.46875 1.70312 8.46875C1.29688 8.46875 0.992188 8.78125 0.992188 9.1875C0.992188 9.42188 1.07031 9.58594 1.20312 9.70312L6.46875 13.9766C6.65625 14.1328 6.82031 14.2031 7 14.2031Z" fill="#90949E"/>
</svg>
