<svg width="13" height="16" viewBox="0 0 13 16" fill="none" xmlns="http://www.w3.org/2000/svg">
<path d="M0.065 2.42836C0.027556 2.50295 0.00543317 2.58464 0 2.66836L0 13.4684C0 15.295 3.9 15.775 6.097 15.775C8.294 15.775 12.194 15.295 12.194 13.4684V2.66836C12.2135 2.58059 12.2135 2.48945 12.194 2.40169C11.544 -0.811643 0.663 -0.79831 0.065 2.42836ZM10.907 9.56169C10.907 9.98836 9.282 10.975 6.11 10.975C2.938 10.975 1.3 10.0284 1.3 9.60169V7.89502C2.80231 8.60363 4.44418 8.9459 6.097 8.89502C7.75398 8.94555 9.39999 8.60334 10.907 7.89502V9.56169ZM10.907 6.13502C10.907 6.56169 9.282 7.54836 6.11 7.54836C2.938 7.54836 1.3 6.57502 1.3 6.14836V4.44169C2.80231 5.15029 4.44418 5.49256 6.097 5.44169C7.75398 5.49221 9.39999 5.15001 10.907 4.44169V6.13502ZM6.097 14.4684C3.055 14.4684 1.443 13.735 1.3 13.495V11.3484C2.80231 12.057 4.44418 12.3992 6.097 12.3484C7.7541 12.4003 9.40043 12.0581 10.907 11.3484V13.4417C10.751 13.735 9.1 14.4684 6.097 14.4684ZM6.097 1.33502C9.269 1.33502 10.894 2.26836 10.894 2.66836C10.894 3.06836 9.269 4.10836 6.097 4.10836C2.925 4.10836 1.3 3.12169 1.3 2.66836C1.3 2.21502 2.938 1.33502 6.097 1.33502Z" fill="#8F97AB"/>
</svg>
