<svg
  width="21"
  height="21"
  viewBox="0 0 21 21"
  fill="none"
  xmlns="http://www.w3.org/2000/svg">
  <path
    d="M5.24121 10.5947C8.35254 10.5947 10.9102 13.1523 10.9102 16.2725C10.9102 17.2832 10.6377 18.25 10.1455 19.0762H17.2998C19.1191 19.0762 20.0244 18.1533 20.0244 16.3252V8.34473H13.6611C12.5361 8.34473 12 7.80859 12 6.68359V0.232422H7.96582C6.15527 0.232422 5.24121 1.16406 5.24121 2.99219V10.5947ZM13.6875 7.14062H19.9189C19.8662 6.78027 19.6113 6.42871 19.1895 5.99805L14.3467 1.06738C13.9336 0.645508 13.5732 0.390625 13.2041 0.329102V6.66602C13.2041 6.98242 13.3623 7.14062 13.6875 7.14062ZM4.85449 20.8164H5.61035C5.8916 20.8164 6.09375 20.6582 6.16406 20.377L6.36621 19.5156C6.48926 19.4805 6.62988 19.4189 6.75293 19.3574L7.51758 19.8145C7.74609 19.9639 8.00098 19.9639 8.20312 19.7529L8.72168 19.2256C8.90625 19.0234 8.93262 18.7773 8.77441 18.5225L8.32617 17.7578C8.40527 17.6436 8.44043 17.5293 8.48438 17.4062L9.3457 17.2041C9.62695 17.1338 9.80273 16.9229 9.80273 16.6504V15.9033C9.80273 15.6396 9.60938 15.4463 9.3457 15.376L8.49316 15.165C8.44043 15.0156 8.37891 14.9102 8.33496 14.8047L8.80957 14.0225C8.9502 13.7939 8.93262 13.5127 8.73926 13.3369L8.20312 12.8184C8.00977 12.6162 7.74609 12.5723 7.52637 12.7217L6.75293 13.2051C6.6123 13.126 6.48926 13.0908 6.36621 13.0469L6.16406 12.168C6.09375 11.9043 5.8916 11.7285 5.61035 11.7285H4.85449C4.58203 11.7285 4.3623 11.9131 4.30957 12.168L4.10742 13.0381C3.95801 13.0908 3.83496 13.126 3.70312 13.2051L2.94727 12.7217C2.73633 12.5811 2.46387 12.6162 2.26172 12.8184L1.75195 13.3369C1.55859 13.5215 1.50586 13.7939 1.64648 14.0225L2.12988 14.8047C2.08594 14.9102 2.0332 15.0332 1.98047 15.165L1.11914 15.376C0.855469 15.4463 0.679688 15.6484 0.679688 15.9033V16.6504C0.679688 16.9229 0.855469 17.1338 1.11914 17.2041L1.98926 17.4062C2.04199 17.5293 2.08594 17.6436 2.13867 17.7578L1.69043 18.5312C1.5498 18.7773 1.56738 19.041 1.76074 19.2256L2.26172 19.7529C2.46387 19.9639 2.72754 19.9551 2.95605 19.8145L3.72949 19.3574C3.87012 19.4365 3.99316 19.4805 4.10742 19.5156L4.30957 20.377C4.3623 20.6406 4.58203 20.8164 4.85449 20.8164ZM5.24121 17.7402C4.41504 17.7402 3.77344 17.0898 3.77344 16.2812C3.77344 15.4814 4.41504 14.8135 5.24121 14.8047C6.03223 14.7959 6.7002 15.4814 6.7002 16.2812C6.7002 17.0898 6.03223 17.7402 5.24121 17.7402Z"
    fill="#8F97AB"
  />
</svg>
