<svg width="16" height="16" viewBox="0 0 16 16" fill="none" xmlns="http://www.w3.org/2000/svg">
<path d="M8.00295 13C12.7304 13 16 9.18824 16 8C16 6.80588 12.7245 3 8.00295 3C3.33456 3 0 6.80588 0 8C0 9.18824 3.33456 13 8.00295 13ZM8.00295 11.2765C6.16156 11.2765 4.7038 9.78824 4.6979 8C4.692 6.16471 6.16156 4.72353 8.00295 4.72353C9.82663 4.72353 11.3021 6.16471 11.3021 8C11.3021 9.78824 9.82663 11.2765 8.00295 11.2765ZM8.00295 9.18235C8.65806 9.18235 9.20103 8.64706 9.20103 8C9.20103 7.34706 8.65806 6.81176 8.00295 6.81176C7.34194 6.81176 6.79897 7.34706 6.79897 8C6.79897 8.64706 7.34194 9.18235 8.00295 9.18235Z" fill="#4376FF"/>
</svg>
