<svg width="16" height="13" viewBox="0 0 16 13" fill="none" xmlns="http://www.w3.org/2000/svg">
<path d="M0.384888 10.1117C0.384888 10.5575 0.717616 10.8714 1.19474 10.8714H2.67632C3.79379 10.8714 4.4718 10.5386 5.23143 9.63463L6.65651 7.93959L8.05648 9.60952C8.83494 10.5386 9.60085 10.8777 10.7246 10.8777H11.8421V12.2525C11.8421 12.6292 12.0806 12.8677 12.4636 12.8677C12.6331 12.8677 12.79 12.805 12.9156 12.7045L15.3891 10.6454C15.6967 10.3943 15.6904 9.98619 15.3891 9.73507L12.9156 7.66964C12.79 7.56292 12.6331 7.50014 12.4636 7.50014C12.0806 7.50014 11.8421 7.7387 11.8421 8.11537V9.34584H10.756C10.0466 9.34584 9.60713 9.11356 9.09234 8.5046L7.63586 6.77818L9.09862 5.0392C9.61968 4.41769 10.0215 4.20424 10.7183 4.20424H11.8421V5.45354C11.8421 5.83022 12.0806 6.06878 12.4636 6.06878C12.6331 6.06878 12.79 6.006 12.9156 5.90555L15.3891 3.8464C15.6967 3.59528 15.6904 3.18722 15.3891 2.93611L12.9156 0.870675C12.79 0.763951 12.6331 0.701172 12.4636 0.701172C12.0806 0.701172 11.8421 0.939732 11.8421 1.31641V2.67243H10.7309C9.56946 2.67243 8.83494 2.99888 8.01254 3.99079L6.65651 5.60421L5.23143 3.91546C4.4718 3.01144 3.74984 2.67243 2.63238 2.67243H1.19474C0.717616 2.67243 0.384888 2.99261 0.384888 3.43834C0.384888 3.88407 0.723894 4.20424 1.19474 4.20424H2.57588C3.25389 4.20424 3.7059 4.43025 4.22069 5.04548L5.67088 6.7719L4.22069 8.5046C3.69962 9.11984 3.29156 9.34584 2.61982 9.34584H1.19474C0.723894 9.34584 0.384888 9.66602 0.384888 10.1117Z" fill="#90949E"/>
</svg>
