<svg width="28" height="27" viewBox="0 0 28 27" fill="none" xmlns="http://www.w3.org/2000/svg">
<g filter="url(#filter0_d)">
<path d="M11.8857 5.02246C11.9912 5.02246 12.0439 4.96094 12.0615 4.86426C12.3604 3.45801 12.3428 3.40527 13.8193 3.10645C13.916 3.08887 13.9863 3.02734 13.9863 2.93066C13.9863 2.8252 13.916 2.76367 13.8193 2.74609C12.3428 2.44727 12.3604 2.39453 12.0615 0.99707C12.0439 0.900391 11.9912 0.830078 11.8857 0.830078C11.7803 0.830078 11.7275 0.900391 11.71 0.99707C11.4111 2.39453 11.4287 2.44727 9.95215 2.74609C9.85547 2.76367 9.78516 2.8252 9.78516 2.93066C9.78516 3.02734 9.85547 3.08887 9.95215 3.10645C11.4287 3.40527 11.4111 3.45801 11.71 4.86426C11.7275 4.96094 11.7803 5.02246 11.8857 5.02246ZM19.1455 8.125C19.2686 8.125 19.3389 8.0459 19.3652 7.93164C19.6641 6.26172 19.6729 6.15625 21.4395 5.84863C21.5625 5.83105 21.6416 5.75195 21.6416 5.62891C21.6416 5.50586 21.5625 5.43555 21.4395 5.40918C19.6729 5.11035 19.6641 5.00488 19.3652 3.33496C19.3389 3.2207 19.2686 3.13281 19.1455 3.13281C19.0225 3.13281 18.9521 3.2207 18.9258 3.33496C18.627 5.00488 18.6182 5.11035 16.8516 5.40918C16.7373 5.43555 16.6494 5.50586 16.6494 5.62891C16.6494 5.75195 16.7373 5.83105 16.8516 5.84863C18.6182 6.15625 18.627 6.26172 18.9258 7.93164C18.9521 8.0459 19.0225 8.125 19.1455 8.125ZM7.06934 10.6475C7.19238 10.6475 7.2627 10.5596 7.28906 10.4453C7.58789 8.77539 7.59668 8.66992 9.36328 8.37109C9.47754 8.34473 9.56543 8.27441 9.56543 8.15137C9.56543 8.02832 9.47754 7.94922 9.36328 7.93164C7.59668 7.62402 7.58789 7.51855 7.28906 5.84863C7.2627 5.73438 7.19238 5.65527 7.06934 5.65527C6.94629 5.65527 6.87598 5.73438 6.84961 5.84863C6.55078 7.51855 6.54199 7.62402 4.77539 7.93164C4.66113 7.94922 4.57324 8.02832 4.57324 8.15137C4.57324 8.27441 4.66113 8.34473 4.77539 8.37109C6.54199 8.66992 6.55078 8.77539 6.84961 10.4453C6.87598 10.5596 6.94629 10.6475 7.06934 10.6475ZM22.0811 18.1621C22.4502 18.54 23.083 18.54 23.4346 18.1621C23.7949 17.7754 23.7949 17.1777 23.4346 16.8086L15.0762 8.42383C14.707 8.05469 14.0742 8.05469 13.7227 8.42383C13.3535 8.81055 13.3623 9.41699 13.7227 9.78613L22.0811 18.1621ZM16.9658 12.124L14.3906 9.54004C14.2324 9.38184 14.1797 9.20605 14.3379 9.05664C14.4697 8.91602 14.6543 8.95117 14.8213 9.11816L17.4053 11.7021L16.9658 12.124ZM11.2441 18.3027C11.4023 18.3027 11.5166 18.1885 11.543 18.0215C11.8242 15.6748 11.9385 15.6133 14.3291 15.2266C14.5137 15.1914 14.6279 15.1035 14.6279 14.9277C14.6279 14.7607 14.5137 14.6553 14.3643 14.6289C11.9561 14.1719 11.8242 14.1807 11.543 11.834C11.5166 11.667 11.4023 11.5527 11.2441 11.5527C11.0771 11.5527 10.9629 11.667 10.9453 11.8252C10.6377 14.207 10.5586 14.2861 8.12402 14.6289C7.97461 14.6465 7.86035 14.7607 7.86035 14.9277C7.86035 15.0947 7.97461 15.1914 8.12402 15.2266C10.5586 15.6924 10.6289 15.6924 10.9453 18.0391C10.9629 18.1885 11.0771 18.3027 11.2441 18.3027Z" fill="#8F97AB"/>
</g>
<defs>
<filter id="filter0_d" x="0.573242" y="0.830078" width="27.1316" height="25.6155" filterUnits="userSpaceOnUse" color-interpolation-filters="sRGB">
<feFlood flood-opacity="0" result="BackgroundImageFix"/>
<feColorMatrix in="SourceAlpha" type="matrix" values="0 0 0 0 0 0 0 0 0 0 0 0 0 0 0 0 0 0 127 0"/>
<feOffset dy="4"/>
<feGaussianBlur stdDeviation="2"/>
<feColorMatrix type="matrix" values="0 0 0 0 0 0 0 0 0 0 0 0 0 0 0 0 0 0 0.25 0"/>
<feBlend mode="normal" in2="BackgroundImageFix" result="effect1_dropShadow"/>
<feBlend mode="normal" in="SourceGraphic" in2="effect1_dropShadow" result="shape"/>
</filter>
</defs>
</svg>
