
<svg width="9px" height="5px" viewBox="0 0 9 5" version="1.1" xmlns="http://www.w3.org/2000/svg" xmlns:xlink="http://www.w3.org/1999/xlink">
    <g id="Page-1" stroke="none" stroke-width="1" fill="none" fill-rule="evenodd">
        <path d="M7.80371094,4.80859375 C7.89811198,4.80859375 7.98193359,4.78662109 8.05517578,4.74267578 C8.12841797,4.69873047 8.18701172,4.63932292 8.23095703,4.56445312 C8.27490234,4.48958333 8.296875,4.40820312 8.296875,4.3203125 C8.296875,4.18033854 8.24804688,4.06315104 8.15039062,3.96875 L8.15039062,3.96875 L4.60546875,0.350585938 C4.55664062,0.291992188 4.50048828,0.249674479 4.43701172,0.223632812 C4.37353516,0.197591146 4.30598958,0.184570312 4.234375,0.184570312 C4.09440104,0.184570312 3.97070312,0.239908854 3.86328125,0.350585938 L3.86328125,0.350585938 L0.323242188,3.96875 C0.277669271,4.01757812 0.241861979,4.07047526 0.215820312,4.12744141 C0.189778646,4.18440755 0.176757812,4.24869792 0.176757812,4.3203125 C0.176757812,4.40820312 0.198730469,4.48958333 0.242675781,4.56445312 C0.286621094,4.63932292 0.345214844,4.69873047 0.418457031,4.74267578 C0.491699219,4.78662109 0.575520833,4.80859375 0.669921875,4.80859375 C0.809895833,4.80859375 0.925455729,4.75976562 1.01660156,4.66210938 L1.01660156,4.66210938 L4.236,1.369 L7.45214844,4.66210938 C7.5250651,4.74023438 7.61464844,4.78710938 7.72089844,4.80273438 L7.80371094,4.80859375 Z" id="􀆇" fill="#9F9F9F" fill-rule="nonzero"></path>
    </g>
</svg>