<svg width="14" height="14" viewBox="0 0 14 14" fill="none" xmlns="http://www.w3.org/2000/svg">
<path d="M6.7998 13.9756C10.4365 13.9756 13.4512 10.9678 13.4512 7.33105C13.4512 3.69434 10.4297 0.686523 6.7998 0.686523C3.16309 0.686523 0.155273 3.69434 0.155273 7.33105C0.155273 10.9678 3.16992 13.9756 6.7998 13.9756ZM9.18555 10.4551C9.00098 10.6328 8.68652 10.6328 8.50879 10.4551L6.875 8.78027C6.79297 8.69141 6.74512 8.56836 6.74512 8.45898C6.74512 8.19922 6.92285 8.01465 7.18262 8.01465C7.30566 8.01465 7.41504 8.0625 7.50391 8.15137L8.18066 8.84863L8.40625 9.09473L8.39258 8.77344V4.52148C8.39258 4.26855 8.58398 4.07715 8.84375 4.07715C9.10352 4.07715 9.29492 4.26855 9.29492 4.52148V8.7666L9.28809 9.08789L9.51367 8.84863L10.1904 8.15137C10.2725 8.06934 10.3818 8.01465 10.5049 8.01465C10.7646 8.01465 10.9492 8.19922 10.9492 8.45898C10.9492 8.5752 10.8877 8.69824 10.8057 8.78027L9.18555 10.4551ZM4.4209 4.2207C4.6123 4.0293 4.89941 4.04297 5.07715 4.2207L6.71094 5.88867C6.79297 5.97754 6.84766 6.10059 6.84766 6.2168C6.84766 6.47656 6.66309 6.66113 6.41016 6.66113C6.28711 6.66113 6.17773 6.61328 6.0957 6.53125L5.41211 5.82715L5.18652 5.57422L5.2002 5.90234V10.1543C5.2002 10.4004 5.01562 10.5918 4.74902 10.5918C4.49609 10.5918 4.29785 10.4004 4.29785 10.1543V5.90918L4.31152 5.57422L4.08594 5.82715L3.40234 6.51758C3.32031 6.60645 3.21094 6.66113 3.09473 6.66113C2.83496 6.66113 2.64355 6.46973 2.64355 6.2168C2.64355 6.10742 2.70508 5.98438 2.78027 5.88867L4.4209 4.2207Z" fill="#9F9F9F"/>
</svg>
