
<svg width="9px" height="6px" viewBox="0 0 9 6" version="1.1" xmlns="http://www.w3.org/2000/svg" xmlns:xlink="http://www.w3.org/1999/xlink">
    <g id="Page-1" stroke="none" stroke-width="1" fill="none" fill-rule="evenodd">
        <path d="M4.234375,5.16503906 C4.30598958,5.16503906 4.37353516,5.15201823 4.43701172,5.12597656 C4.50048828,5.0999349 4.55664062,5.05761719 4.60546875,4.99902344 L8.15039062,1.37597656 C8.24804688,1.28157552 8.296875,1.16764323 8.296875,1.03417969 C8.296875,0.943033854 8.27490234,0.860026042 8.23095703,0.78515625 C8.18701172,0.710286458 8.12841797,0.650878906 8.05517578,0.606933594 C7.98193359,0.562988281 7.89811198,0.541015625 7.80371094,0.541015625 C7.6702474,0.541015625 7.5530599,0.58984375 7.45214844,0.6875 L4.236,3.981 L1.01660156,0.6875 C0.918945312,0.58984375 0.803385417,0.541015625 0.669921875,0.541015625 C0.575520833,0.541015625 0.491699219,0.562988281 0.418457031,0.606933594 C0.345214844,0.650878906 0.286621094,0.710286458 0.242675781,0.78515625 C0.198730469,0.860026042 0.176757812,0.943033854 0.176757812,1.03417969 C0.176757812,1.10253906 0.189778646,1.16520182 0.215820312,1.22216797 C0.241861979,1.27913411 0.277669271,1.33040365 0.323242188,1.37597656 L3.86328125,5.00390625 C3.97395833,5.11132812 4.09765625,5.16503906 4.234375,5.16503906 Z" id="􀆈" fill="#9F9F9F" fill-rule="nonzero"></path>
    </g>
</svg>