<svg width="8px" height="9px" viewBox="0 0 8 9" version="1.1" xmlns="http://www.w3.org/2000/svg" xmlns:xlink="http://www.w3.org/1999/xlink">
    <g id="Page-1" stroke="none" stroke-width="1" fill="none" fill-rule="evenodd">
        <path d="M6.80175781,3.96679688 C6.89290365,3.96679688 6.97591146,3.94482422 7.05078125,3.90087891 C7.12565104,3.85693359 7.18505859,3.79833984 7.22900391,3.72509766 C7.27294922,3.65185547 7.29492188,3.56966146 7.29492188,3.47851562 C7.29492188,3.32552083 7.24446615,3.20670573 7.14355469,3.12207031 L4.0234375,0.592773438 C3.95833333,0.540690104 3.89485677,0.500813802 3.83300781,0.473144531 C3.77115885,0.44547526 3.7093099,0.431640625 3.64746094,0.431640625 C3.58561198,0.431640625 3.52376302,0.44547526 3.46191406,0.473144531 C3.4000651,0.500813802 3.33658854,0.540690104 3.27148438,0.592773438 L0.15625,3.12207031 C0.0520833333,3.20670573 0,3.32552083 0,3.47851562 C0,3.56966146 0.0219726562,3.65185547 0.0659179688,3.72509766 C0.109863281,3.79833984 0.169270833,3.85693359 0.244140625,3.90087891 C0.319010417,3.94482422 0.402018229,3.96679688 0.493164062,3.96679688 C0.551757812,3.96679688 0.610351562,3.95458984 0.668945312,3.93017578 C0.727539062,3.90576172 0.787760417,3.87076823 0.849609375,3.82519531 L3.65234375,1.54980469 L6.45019531,3.82519531 C6.50878906,3.87076823 6.56819661,3.90576172 6.62841797,3.93017578 C6.68863932,3.95458984 6.74641927,3.96679688 6.80175781,3.96679688 Z M3.64746094,8.81542969 C3.7093099,8.81542969 3.77115885,8.80159505 3.83300781,8.77392578 C3.89485677,8.74625651 3.95833333,8.70638021 4.0234375,8.65429688 L7.14355469,6.125 C7.24446615,6.04036458 7.29492188,5.92154948 7.29492188,5.76855469 C7.29492188,5.67740885 7.27294922,5.59440104 7.22900391,5.51953125 C7.18505859,5.44466146 7.12565104,5.38606771 7.05078125,5.34375 C6.97591146,5.30143229 6.89290365,5.28027344 6.80175781,5.28027344 C6.74641927,5.28027344 6.68863932,5.29248047 6.62841797,5.31689453 C6.56819661,5.34130859 6.50878906,5.37630208 6.45019531,5.421875 L3.65234375,7.69238281 L0.849609375,5.421875 C0.787760417,5.37630208 0.727539062,5.34130859 0.668945312,5.31689453 C0.610351562,5.29248047 0.551757812,5.28027344 0.493164062,5.28027344 C0.402018229,5.28027344 0.319010417,5.30143229 0.244140625,5.34375 C0.169270833,5.38606771 0.109863281,5.44466146 0.0659179688,5.51953125 C0.0219726562,5.59440104 0,5.67740885 0,5.76855469 C0,5.92154948 0.0520833333,6.04036458 0.15625,6.125 L3.27148438,8.65429688 C3.33658854,8.703125 3.4000651,8.7421875 3.46191406,8.77148438 C3.52376302,8.80078125 3.58561198,8.81542969 3.64746094,8.81542969 Z" id="ô€†" fill="#9F9F9F" fill-rule="nonzero"></path>
    </g>
</svg>