<svg width="23" height="21" viewBox="0 0 23 21" fill="none" xmlns="http://www.w3.org/2000/svg">
<path d="M9.50491 14.4103C9.66539 14.3789 9.81601 14.3299 9.98021 14.2847L10.4669 14.9047C10.5618 15.0292 10.7123 15.0777 10.8802 15.0189C11.0284 14.9573 11.1112 14.8241 11.1028 14.6501L11.0594 13.8719C11.352 13.73 11.6312 13.5518 11.8955 13.3635L12.5503 13.762C12.6897 13.8518 12.8427 13.8478 12.9798 13.7299C13.1009 13.6282 13.127 13.467 13.0643 13.3102L12.7629 12.589C12.9865 12.3566 13.1991 12.1004 13.3821 11.824L14.1249 11.9842C14.2914 12.0166 14.4334 11.9563 14.5225 11.7893C14.6054 11.656 14.5858 11.4908 14.4663 11.3711L13.9376 10.7984C14.0712 10.4991 14.1642 10.1883 14.2473 9.85991L15.0138 9.74884C15.1755 9.72369 15.288 9.61063 15.3129 9.4432C15.3316 9.27697 15.259 9.13514 15.1097 9.06032L14.424 8.70039C14.4454 8.38409 14.4434 8.04636 14.408 7.70215L15.0737 7.33773C15.2231 7.24995 15.2924 7.11284 15.2593 6.94375C15.2274 6.78093 15.1115 6.68008 14.94 6.65513L14.1849 6.5624C14.0878 6.23028 13.9648 5.92924 13.8244 5.6381L14.3226 5.03988C14.4276 4.92178 14.4488 4.76808 14.3688 4.62119C14.2826 4.4755 14.1358 4.41321 13.9765 4.45089L13.2235 4.63085C13.0227 4.35805 12.8193 4.10525 12.5827 3.87848L12.8564 3.14865C12.917 3.00022 12.8728 2.83981 12.752 2.74643C12.6065 2.62535 12.451 2.61678 12.3102 2.71588L11.6803 3.13183C11.409 2.95736 11.1142 2.79399 10.8194 2.66314L10.8278 1.8877C10.8256 1.71258 10.7406 1.57316 10.5901 1.5246C10.4199 1.4734 10.2742 1.51493 10.1814 1.66313L9.7228 2.26662C9.40696 2.19191 9.08368 2.14467 8.7579 2.11742L8.50461 1.38022C8.44804 1.22223 8.31365 1.125 8.15444 1.13016C7.98289 1.13774 7.86059 1.23321 7.81967 1.38428L7.60273 2.14202C7.43363 2.16213 7.27687 2.17981 7.11639 2.21123C6.94975 2.24386 6.80406 2.28539 6.63987 2.33055L6.14701 1.71178C6.05214 1.5873 5.90286 1.545 5.74112 1.60268C5.59172 1.65794 5.50392 1.79868 5.51728 1.96512L5.55332 2.73836C5.2631 2.89272 4.98768 3.05719 4.71716 3.2467L4.0648 2.86074C3.92301 2.75845 3.77242 2.77493 3.63406 2.88656C3.51299 2.98829 3.48686 3.14946 3.55083 3.3125L3.85104 4.02751C3.63354 4.25867 3.416 4.52235 3.23054 4.78624L2.49026 4.63858C2.32246 4.5999 2.18786 4.66527 2.09879 4.83227C2.01593 4.96553 2.03547 5.13077 2.1464 5.2391L2.67634 5.8181C2.54884 6.11616 2.44972 6.42818 2.36661 6.75657L1.60747 6.87269C1.44577 6.89785 1.32715 7.01211 1.30225 7.17954C1.28353 7.34577 1.35494 7.48134 1.50294 7.5499L2.18988 7.91609C2.16973 8.23865 2.16931 8.56386 2.21701 8.90565L1.54023 9.27875C1.38956 9.36027 1.32645 9.49617 1.35955 9.66526C1.39266 9.83434 1.50237 9.93641 1.67388 9.96135L2.44139 10.0517C2.52489 10.3799 2.65037 10.6935 2.78947 10.9784L2.29012 11.5703C2.1863 11.6947 2.17252 11.8535 2.24638 12.0016C2.33258 12.1472 2.48554 12.2083 2.64479 12.1706L3.39044 11.9856C3.59125 12.2584 3.80073 12.51 4.03122 12.738L3.75755 13.4678C3.69811 13.6225 3.74234 13.7829 3.86933 13.8751C4.01481 13.9962 4.1629 13.9997 4.30494 13.9069L4.93242 13.4784C5.20616 13.6654 5.50586 13.8213 5.79447 13.9533L5.78731 14.735C5.78832 14.9039 5.8733 15.0433 6.0238 15.0919C6.19527 15.1493 6.3385 15.0953 6.4337 14.9596L6.88988 14.3436C7.21189 14.4171 7.53146 14.4781 7.856 14.4991L8.11547 15.2351C8.16709 15.4005 8.30026 15.4915 8.46069 15.4926C8.63225 15.485 8.75332 15.3833 8.79424 15.2322L9.01735 14.4732C9.18028 14.4544 9.33826 14.4429 9.50491 14.4103ZM9.7814 7.60665C9.34298 6.87318 8.68437 6.55347 7.98074 6.69123C7.86964 6.71299 7.75482 6.74847 7.55972 6.83219L5.1875 4.11047C5.78911 3.64805 6.50038 3.32021 7.30277 3.16311C9.99384 2.63621 12.5106 4.29575 13.2316 6.93111L9.7814 7.60665ZM3.29884 9.29205C2.95798 7.55112 3.4723 5.85732 4.5623 4.68155L6.95672 7.41843C6.68591 7.83559 6.6064 8.2478 6.6861 8.65486C6.76335 9.04938 6.9826 9.3836 7.39318 9.68035L6.16584 13.0678C4.73019 12.3801 3.63726 11.0205 3.29884 9.29205ZM7.56133 8.47699C7.47795 8.05115 7.76478 7.65036 8.16597 7.57181C8.5795 7.49084 8.99013 7.75507 9.07351 8.18091C9.15566 8.60049 8.87746 9.01259 8.46392 9.09356C8.06273 9.17211 7.64348 8.89657 7.56133 8.47699ZM9.31854 13.4584C8.49764 13.6192 7.69428 13.5749 6.9553 13.3684L8.18015 10.0009C8.38129 10.0136 8.51336 10.0007 8.62446 9.97897C9.33426 9.83999 9.82122 9.28298 9.94079 8.42075L13.3849 7.74642C13.7085 10.4466 12.0096 12.9315 9.31854 13.4584Z" fill="#BDC1C5"/>
<circle cx="16.1846" cy="13.204" r="6.815" fill="black"/>
<circle cx="16.1861" cy="13.2041" r="5.53718" fill="#4376FF"/>
<path d="M14.9692 15.7597H17.3973C17.7263 15.7597 17.887 15.592 17.887 15.2252V13.3023C17.887 12.9722 17.7544 12.8019 17.4815 12.7731V12.1129C17.4815 11.1252 16.8515 10.6484 16.1832 10.6484C15.515 10.6484 14.885 11.1252 14.885 12.1129V12.7862C14.6351 12.8255 14.4795 12.9932 14.4795 13.3023V15.2252C14.4795 15.592 14.6402 15.7597 14.9692 15.7597ZM15.2957 12.0579C15.2957 11.4003 15.7063 11.0519 16.1832 11.0519C16.6602 11.0519 17.0708 11.4003 17.0708 12.0579V12.7705L15.2957 12.7731V12.0579Z" fill="white"/>
</svg>
