<svg width="20" height="20" viewBox="0 0 20 20" fill="none" xmlns="http://www.w3.org/2000/svg">
<path d="M10 20C15.4706 20 20 15.4608 20 10C20 4.52941 15.4608 0 9.9902 0C4.52941 0 0 4.52941 0 10C0 15.4608 4.53922 20 10 20ZM10 18.3333C5.37255 18.3333 1.67647 14.6275 1.67647 10C1.67647 5.37255 5.36275 1.66667 9.9902 1.66667C14.6176 1.66667 18.3235 5.37255 18.3333 10C18.3431 14.6275 14.6275 18.3333 10 18.3333ZM5.39216 6.60784C5.13726 6.85294 5.14706 7.30392 5.39216 7.55882L7.86275 9.97059C7.9902 10.0784 8.16667 10.1471 8.32353 10.1471C8.68627 10.1471 8.95098 9.90196 8.95098 9.52941C8.95098 9.36275 8.88235 9.20588 8.76471 9.07843L7.72549 8.06863L7.31373 7.69608L7.77451 7.71569H14.1373C14.5 7.71569 14.7745 7.44118 14.7745 7.07843C14.7745 6.71569 14.5098 6.44118 14.1373 6.44118H7.78431L7.32353 6.46078L7.72549 6.08824L8.76471 5.07843C8.88235 4.97059 8.95098 4.80392 8.95098 4.62745C8.95098 4.26471 8.68627 4 8.32353 4C8.16667 4 7.98039 4.08824 7.86275 4.20588L5.39216 6.60784ZM14.5784 13.4216C14.8431 13.1569 14.8235 12.7549 14.5784 12.4902L12.1078 10.0784C12 9.97059 11.8137 9.89216 11.6471 9.89216C11.2745 9.89216 11.0196 10.1471 11.0196 10.5098C11.0196 10.6863 11.0882 10.8333 11.2059 10.9608L12.2549 11.9706L12.6667 12.3431L12.1961 12.3235H5.83333C5.48039 12.3235 5.20588 12.5882 5.20588 12.9608C5.20588 13.3235 5.47059 13.598 5.83333 13.598H12.1863L12.6667 13.5784L12.2549 13.951L11.2157 14.9608C11.098 15.0784 11.0196 15.2353 11.0196 15.4118C11.0196 15.7647 11.2941 16.0392 11.6471 16.0392C11.7941 16.0392 11.9804 15.951 12.1078 15.8431L14.5784 13.4216Z" fill="white"/>
</svg>
