<svg width="36" height="26" viewBox="0 0 36 26" fill="none" xmlns="http://www.w3.org/2000/svg">
<path d="M5.60254 26.606H31.3821C34.6516 26.606 36.3542 24.9185 36.3542 21.6942V12.7595C36.3542 11.0871 36.1282 10.3186 35.3297 9.32422L30.3877 3.23716C28.5345 0.962054 27.7058 0.253906 24.9937 0.253906H12.006C9.27888 0.253906 8.46526 0.962054 6.61203 3.23716L1.65499 9.32422C0.871512 10.3186 0.645508 11.0871 0.645508 12.7595V21.6942C0.645508 24.9185 2.34807 26.606 5.60254 26.606ZM18.4999 16.0893C16.4658 16.0893 15.2002 14.3566 15.2002 12.7294V12.6691C15.2002 12.0815 14.8537 11.524 14.0551 11.524H4.38211C3.88491 11.524 3.77944 11.1021 4.03557 10.7857L9.47475 3.96038C10.1528 3.11663 10.9212 2.75502 11.9307 2.75502H25.0691C26.0785 2.75502 26.847 3.11663 27.5099 3.96038L32.9641 10.7857C33.2052 11.1021 33.1148 11.524 32.6176 11.524H22.9295C22.1461 11.524 21.7845 12.0815 21.7845 12.6691V12.7294C21.7845 14.3566 20.5188 16.0893 18.4999 16.0893ZM5.75321 23.5926C4.36705 23.5926 3.6137 22.8694 3.6137 21.423V14.1758H12.6388C13.121 16.8577 15.4563 18.8616 18.4999 18.8616C21.5434 18.8616 23.8788 16.8577 24.3609 14.1758H33.386V21.423C33.386 22.8694 32.6176 23.5926 31.2314 23.5926H5.75321Z" fill="#90949E"/>
</svg>