<svg width="24" height="24" viewBox="0 0 24 24" fill="none" xmlns="http://www.w3.org/2000/svg">
<path d="M11.9999 12.8487C12.3917 12.8487 12.7081 12.5323 12.7081 12.1556V4.91595L12.6478 3.80099L13.1149 4.35093L14.1696 5.47342C14.2901 5.60903 14.4634 5.67683 14.6366 5.67683C14.9832 5.67683 15.2695 5.42822 15.2695 5.07415C15.2695 4.88581 15.1941 4.75021 15.0661 4.62214L12.5423 2.18883C12.354 2.00802 12.1883 1.94775 11.9999 1.94775C11.8191 1.94775 11.6459 2.00802 11.4651 2.18883L8.9338 4.62214C8.80573 4.75021 8.73793 4.88581 8.73793 5.07415C8.73793 5.42822 9.01667 5.67683 9.36321 5.67683C9.53648 5.67683 9.71729 5.60903 9.83782 5.47342L10.885 4.35093L11.3521 3.79346L11.2993 4.91595V12.1556C11.2993 12.5323 11.6157 12.8487 11.9999 12.8487ZM5.55127 19.7042H18.4411C20.0758 19.7042 20.9271 18.8604 20.9271 17.2483V12.8261C20.9271 12.0276 20.8518 11.5906 20.4676 11.1311L18.2753 8.43408C17.2734 7.20612 16.8967 6.91232 15.5181 6.91232H14.1018V8.16288H15.5557C16.0755 8.16288 16.407 8.26835 16.8364 8.79569L19.1643 11.681C19.4279 12.02 19.3225 12.1632 18.9383 12.1632H14.2148C13.823 12.1632 13.6422 12.4419 13.6422 12.7357V12.7658C13.6422 13.5794 13.0094 14.4458 11.9999 14.4458C10.9829 14.4458 10.3501 13.5794 10.3501 12.7658V12.7357C10.3501 12.4419 10.1768 12.1632 9.77755 12.1632H5.06159C4.66985 12.1632 4.58698 11.9974 4.83559 11.681L7.14837 8.81829C7.59284 8.27588 7.91678 8.16288 8.44413 8.16288H9.89809V6.91232H8.48179C7.10317 6.91232 6.73403 7.19859 5.70947 8.44915L3.52476 11.1311C3.15562 11.5831 3.07275 12.0276 3.07275 12.8261V17.2483C3.07275 18.8604 3.92404 19.7042 5.55127 19.7042ZM5.6266 18.1975C4.93352 18.1975 4.55685 17.8359 4.55685 17.1127V13.489H9.06941C9.31048 14.83 10.4782 15.8244 11.9999 15.8244C13.5217 15.8244 14.6894 14.83 14.9305 13.489H19.443V17.1127C19.443 17.8359 19.0588 18.1975 18.3657 18.1975H5.6266Z" fill="#90949E"/>
</svg>
