<svg width="16" height="14" viewBox="0 0 16 14" fill="none" xmlns="http://www.w3.org/2000/svg">
<path d="M3.60373 13.2667C3.86791 13.5445 4.2608 13.5309 4.51143 13.2667L7.92549 9.77815C8.04742 9.65622 8.12193 9.4801 8.12193 9.33107C8.12193 8.97206 7.8713 8.72819 7.51905 8.72819C7.3497 8.72819 7.21423 8.78916 7.09907 8.90432L5.69009 10.3607L4.59949 11.6207L4.66723 10.0559L4.66723 1.00593C4.66723 0.653681 4.4166 0.403046 4.05758 0.403046C3.70533 0.403046 3.4547 0.653681 3.4547 1.00593L3.4547 10.0559L3.51566 11.6207L2.43184 10.3607L1.01609 8.90432C0.900931 8.78916 0.772227 8.72819 0.596105 8.72819C0.243861 8.72819 0 8.97206 0 9.33107C0 9.4801 0.0677392 9.65622 0.18967 9.77815L3.60373 13.2667ZM12.3963 0.59949C12.1321 0.328533 11.7392 0.335307 11.4818 0.59949L8.06774 4.08806C7.95258 4.20999 7.87807 4.38611 7.87807 4.54191C7.87807 4.90093 8.12193 5.13802 8.47417 5.13802C8.6503 5.13802 8.78577 5.08383 8.89416 4.96867L10.3099 3.5055L11.4005 2.24555L11.3328 3.81033V12.8603C11.3328 13.2125 11.5834 13.4699 11.9356 13.4699C12.2947 13.4699 12.5453 13.2125 12.5453 12.8603V3.81033L12.4776 2.24555L13.5682 3.5055L14.9771 4.96867C15.0923 5.08383 15.2278 5.13802 15.4039 5.13802C15.7561 5.13802 16 4.90093 16 4.54191C16 4.38611 15.9255 4.20999 15.8103 4.08806L12.3963 0.59949Z" fill="#646871"/>
</svg>
