<svg width="24" height="24" viewBox="0 0 24 24" fill="none" xmlns="http://www.w3.org/2000/svg">
<circle cx="12" cy="12" r="12" fill="white"/>
<path d="M12.0176 19C12.3504 19 12.5968 18.7535 12.5968 18.4085V17.5458C14.507 17.3609 15.9982 16.2518 15.9982 14.3908C15.9982 12.7148 14.9137 11.7042 12.7694 11.3222L12.5968 11.2852V7.85915C13.4842 8.00704 14.1003 8.53697 14.3468 9.375C14.4701 9.74472 14.7042 9.97887 15.0986 9.97887C15.5176 9.97887 15.8257 9.67078 15.8257 9.25176C15.8257 9.1162 15.7887 9.00528 15.7641 8.86972C15.4437 7.52641 14.1743 6.61444 12.5968 6.4419V5.59155C12.5968 5.24648 12.3504 5 12.0176 5C11.6849 5 11.4384 5.23415 11.4384 5.59155V6.4419C9.56514 6.65141 8.23415 7.80986 8.23415 9.48592C8.23415 11.0511 9.29401 11.9877 11.3521 12.4683L11.4384 12.493V16.1408C10.3292 15.9806 9.67606 15.3768 9.47887 14.5511C9.33098 14.132 9.08451 13.9349 8.71479 13.9349C8.29577 13.9349 8 14.2306 8 14.662C8 14.7975 8.02465 14.9085 8.06162 15.044C8.40669 16.4613 9.78697 17.3609 11.4384 17.5335V18.4085C11.4384 18.7658 11.6849 19 12.0176 19ZM11.4384 10.9894L11.3521 10.9648C10.243 10.632 9.75 10.1514 9.75 9.41197C9.75 8.66021 10.3908 8.03169 11.4384 7.85915V10.9894ZM12.5968 12.8011L12.868 12.8627C14.0634 13.1954 14.4701 13.7007 14.4701 14.4771C14.4701 15.3521 13.8539 16.0053 12.5968 16.1408V12.8011Z" fill="black"/>
</svg>
