<svg width="22" height="19" viewBox="0 0 22 19" fill="none" xmlns="http://www.w3.org/2000/svg">
<path d="M12.5381 18.6191C17.4336 18.6191 21.5029 14.5586 21.5029 9.6543C21.5029 4.75879 17.4248 0.689453 12.5293 0.689453C7.95898 0.689453 4.13574 4.22266 3.63477 8.67871C3.97754 8.6084 4.33789 8.57324 4.70703 8.57324C7.3877 8.57324 9.65527 10.4805 10.2178 12.9238C10.9121 12.748 11.6855 12.6514 12.5293 12.6514C15.1836 12.6514 17.2227 13.6357 18.084 14.6641C16.7656 16.167 14.7178 17.1426 12.5293 17.1426C11.6328 17.1426 10.6572 16.9668 9.82227 16.624C9.70801 16.9492 9.40039 17.4414 9.02246 17.8809C10.1123 18.3643 11.29 18.6191 12.5381 18.6191ZM12.5293 11.1572C10.833 11.1396 9.52344 9.7334 9.51465 7.84375C9.49707 6.06836 10.8418 4.5918 12.5293 4.5918C14.208 4.5918 15.5439 6.06836 15.5439 7.84375C15.5439 9.7334 14.2168 11.1748 12.5293 11.1572ZM4.70703 18.7158C7.12402 18.7158 9.17188 16.6943 9.17188 14.251C9.17188 11.7988 7.15918 9.78613 4.70703 9.78613C2.26367 9.78613 0.242188 11.8076 0.242188 14.251C0.242188 16.7119 2.26367 18.7158 4.70703 18.7158ZM1.91211 14.251C1.91211 13.9258 2.13184 13.7148 2.44824 13.7148H4.1709V11.9922C4.1709 11.6758 4.38184 11.4561 4.70703 11.4561C5.03223 11.4561 5.24316 11.6758 5.24316 11.9922V13.7148H6.96582C7.28223 13.7148 7.50195 13.9258 7.50195 14.251C7.50195 14.5762 7.28223 14.7871 6.96582 14.7871H5.24316V16.5098C5.24316 16.835 5.03223 17.0459 4.70703 17.0459C4.38184 17.0459 4.1709 16.835 4.1709 16.5098V14.7871H2.44824C2.13184 14.7871 1.91211 14.5762 1.91211 14.251Z" fill="#8F97AB"/>
</svg>
