<svg viewBox="0 0 14 14" fill="#747F86" xmlns="http://www.w3.org/2000/svg">
  <path d="M4.81339 4.36485C6.03675 4.36485 7.10004 3.40378 7.10004 2.15239C7.10004 0.916018 6.03675 0 4.81339 0C3.59004 0 2.52675 0.93604 2.52675 2.1624C2.52675 3.40378 3.58432 4.36485 4.81339 4.36485ZM10.7873 4.66018C10.9759 4.66018 11.136 4.58009 11.2503 4.42992L13.8628 0.825918C13.9257 0.730812 14 0.62069 14 0.505562C14 0.285317 13.7713 0.140156 13.5312 0.140156C13.3826 0.140156 13.2454 0.215239 13.1368 0.365406L10.7644 3.69911L9.63822 2.42269C9.50102 2.26251 9.37526 2.21746 9.21519 2.21746C8.96938 2.21746 8.77501 2.39266 8.77501 2.61791C8.77501 2.72303 8.82646 2.83315 8.90649 2.92825L10.3013 4.42992C10.4443 4.59511 10.5986 4.66018 10.7873 4.66018ZM1.21764 9H8.39771C9.30094 9 9.62107 8.77475 9.62107 8.33426C9.62107 7.04283 7.7746 5.26085 4.80768 5.26085C1.84647 5.26085 0 7.04283 0 8.33426C0 8.77475 0.320131 9 1.21764 9Z" />
</svg>
