<svg width="32" height="32" viewBox="0 0 32 32" fill="none" xmlns="http://www.w3.org/2000/svg">
<path d="M16 32C24.8366 32 32 24.8366 32 16C32 7.16344 24.8366 0 16 0C7.16344 0 0 7.16344 0 16C0 24.8366 7.16344 32 16 32Z" fill="#3F4147"/>
<path d="M16.0048 15.7597C18.0392 15.7597 19.8075 14.0512 19.8075 11.8265C19.8075 9.62848 18.0392 8 16.0048 8C13.9703 8 12.202 9.66407 12.202 11.8443C12.202 14.0512 13.9608 15.7597 16.0048 15.7597ZM10.025 24H21.9655C23.4676 24 24 23.5996 24 22.8165C24 20.5206 20.9293 17.3526 15.9952 17.3526C11.0707 17.3526 8 20.5206 8 22.8165C8 23.5996 8.53238 24 10.025 24Z" fill="#90949E"/>
</svg>
