<svg width="24" height="24" viewBox="0 0 24 24" fill="none" xmlns="http://www.w3.org/2000/svg">
<path d="M12 24C18.6274 24 24 18.6274 24 12C24 5.37258 18.6274 0 12 0C5.37258 0 0 5.37258 0 12C0 18.6274 5.37258 24 12 24Z" fill="#3F4147"/>
<path d="M12.0036 11.8198C13.5294 11.8198 14.8556 10.5384 14.8556 8.86986C14.8556 7.22136 13.5294 6 12.0036 6C10.4777 6 9.15152 7.24805 9.15152 8.8832C9.15152 10.5384 10.4706 11.8198 12.0036 11.8198ZM7.51872 18H16.4742C17.6007 18 18 17.6997 18 17.1123C18 15.3904 15.697 13.0145 11.9964 13.0145C8.30303 13.0145 6 15.3904 6 17.1123C6 17.6997 6.39929 18 7.51872 18Z" fill="#90949E"/>
</svg>
