<svg width="16" height="16" viewBox="0 0 16 16" fill="none" xmlns="http://www.w3.org/2000/svg">
<path d="M9.25341 14.5918C12.9376 14.5918 16 11.5819 16 7.96091C16 4.33341 12.931 1.33 9.2468 1.33C5.80074 1.33 2.92352 3.93686 2.55312 7.23281C2.87722 7.17431 3.34684 7.1483 3.6974 7.18731C4.06118 4.48944 6.38942 2.43515 9.2468 2.43515C12.3621 2.43515 14.8756 4.89249 14.8756 7.96091C14.8756 9.39111 14.3332 10.6913 13.427 11.6599C12.7788 10.8993 11.2443 10.1712 9.2468 10.1712C8.61182 10.1712 8.02976 10.2492 7.50723 10.3727C7.58661 10.6848 7.62629 11.0228 7.62629 11.3544C7.62629 12.3685 7.24928 13.3111 6.6143 14.0457C7.42786 14.3968 8.32079 14.5918 9.25341 14.5918ZM9.2468 9.06607C10.5167 9.07907 11.5155 8.01292 11.5155 6.61523C11.5155 5.30205 10.5101 4.2164 9.2468 4.2164C7.97685 4.2164 6.96486 5.30205 6.97809 6.61523C6.9847 8.01292 7.97024 9.05306 9.2468 9.06607ZM3.36007 14.6633C5.179 14.6633 6.72013 13.1681 6.72013 11.3609C6.72013 9.54713 5.20546 8.05843 3.36007 8.05843C1.52129 8.05843 0 9.55363 0 11.3609C0 13.1811 1.52129 14.6633 3.36007 14.6633ZM2.95659 13.3046C2.85076 13.3046 2.71186 13.2591 2.62588 13.1681L1.36255 11.7964C1.30963 11.7509 1.27656 11.6274 1.27656 11.5364C1.27656 11.3024 1.46176 11.1268 1.68665 11.1268C1.83216 11.1268 1.93799 11.1919 2.00413 11.2699L2.94336 12.2645L4.68293 9.88518C4.7623 9.78116 4.88136 9.70315 5.03348 9.70315C5.25176 9.70315 5.45019 9.87868 5.45019 10.1062C5.45019 10.1777 5.41711 10.2687 5.35759 10.3532L3.30715 13.1551C3.24101 13.2461 3.10211 13.3046 2.95659 13.3046Z" fill="#646871"/>
</svg>
