<svg width="24" height="24" viewBox="0 0 24 24" fill="none" xmlns="http://www.w3.org/2000/svg">
<path d="M12 24C18.6274 24 24 18.6274 24 12C24 5.37258 18.6274 0 12 0C5.37258 0 0 5.37258 0 12C0 18.6274 5.37258 24 12 24Z" fill="#3F4147"/>
<path fill-rule="evenodd" clip-rule="evenodd" d="M11.3936 18.3938C11.3936 18.0625 11.6622 17.7938 11.9936 17.7938C12.7552 17.7938 13.5094 17.6438 14.2131 17.3523C14.9168 17.0609 15.5562 16.6336 16.0948 16.0951C16.6334 15.5565 17.0606 14.9171 17.3521 14.2134C17.6435 13.5097 17.7936 12.7555 17.7936 11.9938C17.7936 11.2322 17.6435 10.478 17.3521 9.77427C17.0606 9.07058 16.6334 8.4312 16.0948 7.89262C15.5562 7.35404 14.9168 6.92681 14.2131 6.63533C13.5094 6.34386 12.7552 6.19384 11.9936 6.19384C11.6622 6.19384 11.3936 5.92521 11.3936 5.59383C11.3936 5.26246 11.6622 4.99384 11.9936 4.99384C12.9128 4.99384 13.8231 5.1749 14.6723 5.52668C15.5216 5.87846 16.2933 6.39408 16.9433 7.04409C17.5933 7.6941 18.1089 8.46577 18.4607 9.31505C18.8125 10.1643 18.9936 11.0746 18.9936 11.9938C18.9936 12.9131 18.8125 13.8233 18.4607 14.6726C18.1089 15.5219 17.5933 16.2936 16.9433 16.9436C16.2933 17.5936 15.5216 18.1092 14.6723 18.461C13.8231 18.8128 12.9128 18.9938 11.9936 18.9938C11.6622 18.9938 11.3936 18.7252 11.3936 18.3938Z" fill="#90949E"/>
<path d="M12.7842 11.9915C12.7842 11.6171 12.5288 11.361 12.1482 11.361H7.91627L6.87084 11.4053L8.11861 10.2773L9.20741 9.15915C9.32303 9.04094 9.40011 8.89316 9.40011 8.70598C9.40011 8.36118 9.14959 8.10504 8.7979 8.10504C8.63892 8.10504 8.48476 8.16908 8.35468 8.30207L5.19911 11.5235C5.07385 11.6467 5.0064 11.8191 5.0064 11.9915C5.0064 12.1639 5.07385 12.3412 5.19911 12.4594L8.35468 15.6858C8.48476 15.8188 8.63892 15.8828 8.7979 15.8828C9.14959 15.8828 9.40011 15.6267 9.40011 15.2819C9.40011 15.0947 9.32303 14.942 9.20741 14.8287L8.11861 13.7056L6.87084 12.5826L7.91627 12.622H12.1482C12.5288 12.622 12.7842 12.3658 12.7842 11.9915Z" fill="#90949E"/>
</svg>
