<svg width="22" height="25" viewBox="0 0 22 25" fill="none" xmlns="http://www.w3.org/2000/svg">
<path d="M21.458 23.4654L21.458 8.14056C21.458 7.87725 21.3534 7.62472 21.1672 7.43853C20.981 7.25234 20.7285 7.14774 20.4652 7.14774L15.3537 7.14774C15.2234 7.14774 15.0943 7.17342 14.9738 7.22331C14.8533 7.2732 14.7439 7.34633 14.6517 7.43853C14.5595 7.53072 14.4864 7.64017 14.4365 7.76062C14.3866 7.88108 14.3609 8.01018 14.3609 8.14056C14.3609 8.27094 14.3866 8.40004 14.4365 8.52049C14.4864 8.64095 14.5595 8.7504 14.6517 8.84259C14.7439 8.93478 14.8533 9.00791 14.9738 9.05781C15.0943 9.1077 15.2234 9.13338 15.3537 9.13338L19.4724 9.13338L19.4724 22.4725L2.52746 22.4725L2.52746 9.13338L6.72849 9.13338C6.9918 9.13338 7.24433 9.02878 7.43052 8.84259C7.61671 8.6564 7.72131 8.40387 7.72131 8.14056C7.72131 7.87724 7.61671 7.62472 7.43052 7.43853C7.24433 7.25234 6.9918 7.14774 6.72849 7.14774L1.53464 7.14773C1.27133 7.14773 1.0188 7.25234 0.832607 7.43853C0.646418 7.62472 0.541817 7.87724 0.541817 8.14056L0.541816 23.4654C0.541816 23.7287 0.646417 23.9812 0.832607 24.1674C1.0188 24.3536 1.27133 24.4582 1.53464 24.4582L20.4652 24.4582C20.7285 24.4582 20.981 24.3536 21.1672 24.1674C21.3534 23.9812 21.458 23.7287 21.458 23.4654V23.4654Z" fill="#8F97AB"/>
<path d="M10.9761 11.9236C11.2394 11.9236 11.492 11.819 11.6782 11.6328C11.8644 11.4466 11.969 11.1941 11.969 10.9308L11.969 3.80074L13.5688 5.40037C13.6604 5.4952 13.7699 5.57083 13.8911 5.62287C14.0122 5.6749 14.1425 5.70229 14.2743 5.70343C14.4061 5.70458 14.5369 5.67946 14.6589 5.62954C14.7809 5.57962 14.8917 5.5059 14.9849 5.41268C15.0782 5.31946 15.1519 5.20861 15.2018 5.0866C15.2517 4.96458 15.2768 4.83385 15.2757 4.70202C15.2746 4.57019 15.2472 4.43992 15.1951 4.31879C15.1431 4.19766 15.0675 4.08811 14.9726 3.99652L11.6793 0.70313L11.6779 0.700748L10.9771 1.34024e-05L10.2754 0.700748L10.273 0.70313L6.97963 3.99652C6.79877 4.18377 6.6987 4.43456 6.70097 4.69487C6.70323 4.95519 6.80764 5.2042 6.99172 5.38828C7.1758 5.57236 7.42481 5.67677 7.68512 5.67903C7.94544 5.68129 8.19623 5.58122 8.38348 5.40037L9.98331 3.80074L9.98331 10.9308C9.98331 11.1941 10.0879 11.4466 10.2741 11.6328C10.4603 11.819 10.7128 11.9236 10.9761 11.9236V11.9236Z" fill="#8F97AB"/>
</svg>
