<svg width="12" height="12" viewBox="0 0 12 12" fill="none" xmlns="http://www.w3.org/2000/svg">
<path d="M0.195816 10.8488C-0.0614747 11.1061 -0.0690421 11.545 0.195816 11.8023C0.460675 12.0596 0.899583 12.0596 1.15687 11.8023L6 6.95917L10.8431 11.8023C11.1004 12.0596 11.5469 12.0671 11.8042 11.8023C12.0615 11.5374 12.0615 11.1061 11.8042 10.8488L6.96106 5.99811L11.8042 1.15498C12.0615 0.897691 12.069 0.458783 11.8042 0.201492C11.5393 -0.0633668 11.1004 -0.0633668 10.8431 0.201492L6 5.04462L1.15687 0.201492C0.899583 -0.0633668 0.453107 -0.0709342 0.195816 0.201492C-0.0614747 0.46635 -0.0614747 0.897691 0.195816 1.15498L5.03894 5.99811L0.195816 10.8488Z" fill="#646871"/>
</svg>
