<svg width="10" height="10" viewBox="0 0 10 10" fill="none" xmlns="http://www.w3.org/2000/svg">
<path d="M0.16318 9.04067C-0.0512289 9.25508 -0.0575351 9.62083 0.16318 9.83524C0.383896 10.0497 0.749652 10.0497 0.964062 9.83524L5 5.7993L9.03594 9.83524C9.25035 10.0497 9.62241 10.056 9.83682 9.83524C10.0512 9.61453 10.0512 9.25508 9.83682 9.04067L5.80088 4.99842L9.83682 0.962485C10.0512 0.748076 10.0575 0.382319 9.83682 0.16791C9.6161 -0.0528057 9.25035 -0.0528057 9.03594 0.16791L5 4.20385L0.964062 0.16791C0.749652 -0.0528057 0.377589 -0.0591119 0.16318 0.16791C-0.0512289 0.388625 -0.0512289 0.748076 0.16318 0.962485L4.19912 4.99842L0.16318 9.04067Z" fill="#646871"/>
</svg>
