<svg width="28" height="32" viewBox="0 0 28 32" fill="none" xmlns="http://www.w3.org/2000/svg">
<path d="M15.4689 13.3448C15.7164 13.3561 15.861 13.368 16.0062 13.368C19.3655 13.3694 22.7249 13.368 26.0842 13.3694C26.2881 13.3694 26.494 13.366 26.6958 13.388C27.0878 13.4305 27.3306 13.6524 27.4417 14.0186C27.5406 14.3448 27.4185 14.6193 27.1819 14.8239C26.2662 15.6167 25.3376 16.3948 24.4103 17.1756C22.583 18.7145 20.7564 20.2548 18.9251 21.7891C16.4746 23.8424 14.018 25.8884 11.5689 27.943C10.0996 29.1756 8.6439 30.4235 7.17321 31.6548C7.00684 31.7944 6.80025 31.9186 6.59161 31.9718C6.26366 32.0555 5.96298 31.9512 5.74343 31.6801C5.50002 31.3804 5.54161 31.0462 5.68616 30.7392C5.94116 30.1976 6.23298 29.6733 6.51252 29.1431C7.68526 26.9223 8.85935 24.7016 10.0334 22.4815C10.6457 21.3227 11.2587 20.1644 11.8696 19.0049C11.9194 18.9106 11.9616 18.8122 12.0325 18.6627C11.8744 18.6474 11.7687 18.6281 11.663 18.6281C8.25799 18.6281 4.85365 18.6301 1.44864 18.6295C1.24478 18.6295 1.04091 18.6135 0.837046 18.6002C0.432045 18.573 0.200907 18.3364 0.0856796 17.9803C-0.0227299 17.6454 0.110225 17.3643 0.359772 17.1483C1.05455 16.5463 1.76091 15.9562 2.46523 15.3648C3.40206 14.5787 4.34365 13.7986 5.27979 13.0119C6.57593 11.9221 7.86662 10.8277 9.16208 9.73791C10.5346 8.58302 11.9098 7.43013 13.2851 6.27857C14.8239 4.99012 16.3655 3.70366 17.9051 2.41521C18.7648 1.69557 19.6178 0.96795 20.4837 0.255615C20.8642 -0.0580256 21.3237 -0.0779603 21.6305 0.167902C21.9626 0.433034 22.0451 0.892862 21.8208 1.31681C20.9671 2.92754 20.1053 4.53428 19.253 6.145C18.1621 8.20626 17.076 10.2695 15.9892 12.3321C15.8255 12.6424 15.6673 12.956 15.4682 13.3434L15.4689 13.3448Z" fill="#FCAC18"/>
</svg>
