<svg width="28" height="27" viewBox="0 0 28 27" fill="none" xmlns="http://www.w3.org/2000/svg">
<path d="M0.206787 13.1049H2.11012V16.8098H4.01918V14.9705H5.93129V13.109H7.83806V11.2419H9.75323V5.66148H11.6531V3.80664H15.4682V5.64738H17.3761V11.2341H19.2855V13.0971H21.1935V14.9549H23.1029V16.8064H25.0257V13.1142H26.9084V26.1203H17.3952V16.8202H15.4892V14.9668H11.6573V16.8105H9.75476V26.1333H9.49594C6.48137 26.1333 3.46681 26.1333 0.452243 26.134C0.370552 26.134 0.288479 26.144 0.206787 26.1496C0.206787 21.8015 0.206787 17.4534 0.206787 13.1053L0.206787 13.1049ZM4.02643 21.4736H5.92251V19.6306H4.02643V21.4736V21.4736ZM21.2114 19.628V21.4717H23.1086V19.628H21.2114Z" fill="#5A67E2"/>
<path d="M15.4708 1.90898C14.219 1.91084 12.9673 1.91269 11.7156 1.91381C11.6912 1.91381 11.6668 1.90305 11.6423 1.89711L11.6462 1.90194C11.6515 1.4271 11.6568 0.95226 11.6614 0.477422C11.6626 0.348696 11.6614 0.2196 11.6614 0.0771484H15.4654V1.91381L15.4708 1.90898Z" fill="#5A67E2"/>
<path d="M11.6419 1.89648V3.76096H9.76343V1.92356C9.90849 1.92356 10.0463 1.92505 10.1837 1.92356C10.6712 1.91726 11.1587 1.90984 11.6458 1.90205C11.6458 1.90168 11.6416 1.89686 11.6416 1.89686L11.6419 1.89648Z" fill="#5A67E2"/>
<path d="M15.4656 1.914H17.3655V3.76661H15.4709C15.4709 3.13968 15.4709 2.52461 15.4709 1.90918L15.4656 1.914Z" fill="#5A67E2"/>
</svg>
