<svg width="178" height="178" viewBox="0 0 178 178" fill="none" xmlns="http://www.w3.org/2000/svg">
<circle cx="89" cy="89" r="89" fill="black"/>
<path fill-rule="evenodd" clip-rule="evenodd" d="M100.17 81.5342L129.742 51.9621L126.038 48.2582L96.4498 77.8468L112.463 39.1854L107.623 37.181L91.6152 75.8307V34H86.3771V75.8341L70.3676 37.181L65.5282 39.1854L81.534 77.8295L51.9627 48.2582L48.2588 51.9621L77.8319 81.5352L39.1853 65.5283L37.1809 70.3677L75.8322 86.3766H34V91.6147H75.8322L37.1809 107.624L39.1853 112.463L77.8467 96.4499L48.2588 126.038L51.9627 129.742L81.5341 100.17L65.5282 138.815L70.3676 140.819L86.3771 102.166V144H91.6152V102.169L107.623 140.819L112.463 138.815L96.4497 100.153L126.038 129.742L129.742 126.038L100.155 96.4509L138.814 112.463L140.819 107.624L102.168 91.6147H144V86.3766H102.168L140.819 70.3677L138.814 65.5283L100.17 81.5342Z" fill="white"/>
</svg>
