<svg width="24" height="29" viewBox="0 0 24 29" fill="none" xmlns="http://www.w3.org/2000/svg">
<path d="M12.0217 28.5C12.2435 28.5 12.6039 28.4168 12.9505 28.2228C20.8376 23.801 23.5406 21.9297 23.5406 16.8703V6.26634C23.5406 4.81089 22.9168 4.35347 21.7386 3.85446C20.1029 3.17525 14.8217 1.27624 13.1861 0.707921C12.8118 0.583168 12.4099 0.5 12.0217 0.5C11.6336 0.5 11.2316 0.610891 10.8712 0.707921C9.2356 1.17921 3.94055 3.18911 2.30491 3.85446C1.14055 4.33961 0.50293 4.81089 0.50293 6.26634V16.8703C0.50293 21.9297 3.21976 23.7871 11.093 28.2228C11.4534 28.4168 11.8 28.5 12.0217 28.5ZM12.0217 25.9911C11.8 25.9911 11.5782 25.9079 11.1623 25.6584C4.75837 21.7772 2.70689 20.6406 2.70689 16.3574V6.69604C2.70689 6.22475 2.79006 6.04456 3.17818 5.89208C5.28511 5.0604 9.37422 3.68812 11.4673 2.85644C11.6891 2.75941 11.8693 2.73168 12.0217 2.73168C12.1742 2.73168 12.3544 2.77327 12.5762 2.85644C14.6693 3.68812 18.7307 5.15743 20.8792 5.89208C21.2534 6.0307 21.3366 6.22475 21.3366 6.69604V16.3574C21.3366 20.6406 19.2851 21.7634 12.8811 25.6584C12.4792 25.9079 12.2435 25.9911 12.0217 25.9911ZM10.5108 20.405C10.9683 20.405 11.3564 20.1832 11.6336 19.7673L17.9683 9.78713C18.1346 9.52377 18.3009 9.21882 18.3009 8.9C18.3009 8.2901 17.7465 7.88812 17.1782 7.88812C16.8178 7.88812 16.4712 8.09604 16.2079 8.51188L10.4554 17.7436L7.72471 14.2089C7.39204 13.7654 7.08709 13.6406 6.71283 13.6406C6.10293 13.6406 5.63164 14.1257 5.63164 14.7495C5.63164 15.0406 5.75639 15.3456 5.95045 15.6089L9.33263 19.7673C9.67917 20.2248 10.0534 20.405 10.5108 20.405Z" fill="#90949E"/>
</svg>
