<svg width="16" height="16" viewBox="0 0 16 16" fill="none" xmlns="http://www.w3.org/2000/svg">
<path d="M8.01211 16C8.13884 16 8.34478 15.9525 8.5428 15.8416C13.0497 13.3149 14.5943 12.2455 14.5943 9.35446V3.29505C14.5943 2.46337 14.2379 2.20198 13.5646 1.91683C12.6299 1.52871 9.61211 0.443564 8.67746 0.118812C8.4636 0.0475248 8.23389 0 8.01211 0C7.79033 0 7.56062 0.0633663 7.35468 0.118812C6.42003 0.388119 3.39429 1.53663 2.45963 1.91683C1.79429 2.19406 1.42993 2.46337 1.42993 3.29505V9.35446C1.42993 12.2455 2.98241 13.3069 7.48142 15.8416C7.68736 15.9525 7.88538 16 8.01211 16ZM8.01211 14.5663C7.88538 14.5663 7.75864 14.5188 7.52102 14.3762C3.86161 12.1584 2.68934 11.5089 2.68934 9.06139V3.54059C2.68934 3.27129 2.73686 3.16832 2.95864 3.08119C4.1626 2.60594 6.49924 1.82178 7.69528 1.34653C7.82201 1.29109 7.92498 1.27525 8.01211 1.27525C8.09924 1.27525 8.20221 1.29901 8.32894 1.34653C9.52498 1.82178 11.8458 2.66139 13.0735 3.08119C13.2874 3.1604 13.3349 3.27129 13.3349 3.54059V9.06139C13.3349 11.5089 12.1626 12.1505 8.5032 14.3762C8.2735 14.5188 8.13884 14.5663 8.01211 14.5663ZM7.14874 11.3743C7.41013 11.3743 7.63191 11.2475 7.79033 11.0099L11.4101 5.30693C11.5052 5.15644 11.6002 4.98218 11.6002 4.8C11.6002 4.45149 11.2834 4.22178 10.9586 4.22178C10.7527 4.22178 10.5547 4.34059 10.4042 4.57822L7.11706 9.85347L5.55666 7.83366C5.36657 7.5802 5.19231 7.50891 4.97845 7.50891C4.62993 7.50891 4.36062 7.78614 4.36062 8.14257C4.36062 8.30891 4.43191 8.48317 4.5428 8.63366L6.47548 11.0099C6.6735 11.2713 6.88736 11.3743 7.14874 11.3743Z" fill="white"/>
</svg>
