<svg width="16" height="16" viewBox="0 0 16 16" fill="none" xmlns="http://www.w3.org/2000/svg">
<path d="M8.01217 16C8.1389 16 8.34484 15.9525 8.54286 15.8416C13.0498 13.3149 14.5943 12.2455 14.5943 9.35446V3.29505C14.5943 2.46337 14.2379 2.20198 13.5646 1.91683C12.63 1.52871 9.61217 0.443564 8.67752 0.118812C8.46366 0.0475248 8.23395 0 8.01217 0C7.79039 0 7.56069 0.0633663 7.35475 0.118812C6.42009 0.388119 3.39435 1.53663 2.4597 1.91683C1.79435 2.19406 1.42999 2.46337 1.42999 3.29505V9.35446C1.42999 12.2455 2.98247 13.3069 7.48148 15.8416C7.68742 15.9525 7.88544 16 8.01217 16ZM8.01217 14.5663C7.88544 14.5663 7.75871 14.5188 7.52108 14.3762C3.86168 12.1584 2.6894 11.5089 2.6894 9.06139V3.54059C2.6894 3.27129 2.73692 3.16832 2.95871 3.08119C4.16267 2.60594 6.4993 1.82178 7.69534 1.34653C7.82207 1.29109 7.92504 1.27525 8.01217 1.27525C8.0993 1.27525 8.20227 1.29901 8.329 1.34653C9.52504 1.82178 11.8458 2.66139 13.0736 3.08119C13.2874 3.1604 13.3349 3.27129 13.3349 3.54059V9.06139C13.3349 11.5089 12.1627 12.1505 8.50326 14.3762C8.27356 14.5188 8.1389 14.5663 8.01217 14.5663ZM7.1488 11.3743C7.41019 11.3743 7.63197 11.2475 7.79039 11.0099L11.4102 5.30693C11.5052 5.15644 11.6003 4.98218 11.6003 4.8C11.6003 4.45149 11.2835 4.22178 10.9587 4.22178C10.7528 4.22178 10.5547 4.34059 10.4043 4.57822L7.11712 9.85347L5.55673 7.83366C5.36663 7.5802 5.19237 7.50891 4.97851 7.50891C4.62999 7.50891 4.36069 7.78614 4.36069 8.14257C4.36069 8.30891 4.43197 8.48317 4.54286 8.63366L6.47554 11.0099C6.67356 11.2713 6.88742 11.3743 7.1488 11.3743Z" fill="#646871"/>
</svg>
