<svg width="20" height="17" viewBox="0 0 20 17" fill="none" xmlns="http://www.w3.org/2000/svg">
<path d="M11.5668 16.5773C16.172 16.5773 20 12.8149 20 8.28864C20 3.75427 16.1637 0 11.5585 0C7.25093 0 3.6544 3.25857 3.1914 7.37851C3.59653 7.30538 4.18355 7.27287 4.62174 7.32163C5.07648 3.94929 7.98677 1.38144 11.5585 1.38144C15.4527 1.38144 18.5945 4.45311 18.5945 8.28864C18.5945 10.0764 17.9165 11.7016 16.7838 12.9124C15.9735 11.9616 14.0554 11.0515 11.5585 11.0515C10.7648 11.0515 10.0372 11.149 9.38404 11.3034C9.48326 11.6935 9.53286 12.116 9.53286 12.5305C9.53286 13.7981 9.06159 14.9764 8.26788 15.8947C9.28483 16.3335 10.401 16.5773 11.5668 16.5773ZM11.5585 9.67008C13.1459 9.68633 14.3944 8.35365 14.3944 6.60653C14.3944 4.96506 13.1377 3.608 11.5585 3.608C9.97106 3.608 8.70608 4.96506 8.72261 6.60653C8.73088 8.35365 9.96279 9.65383 11.5585 9.67008ZM4.20008 16.6667C6.47375 16.6667 8.40017 14.7977 8.40017 12.5386C8.40017 10.2714 6.50682 8.41053 4.20008 8.41053C1.90161 8.41053 0 10.2795 0 12.5386C0 14.8139 1.90161 16.6667 4.20008 16.6667ZM3.69574 14.9683C3.56346 14.9683 3.38983 14.9114 3.28235 14.7977L1.70318 13.083C1.63704 13.0262 1.5957 12.8718 1.5957 12.758C1.5957 12.4655 1.8272 12.2461 2.10831 12.2461C2.2902 12.2461 2.42249 12.3273 2.50517 12.4248L3.67921 13.6681L5.85366 10.694C5.95287 10.564 6.10169 10.4664 6.29186 10.4664C6.5647 10.4664 6.81273 10.6858 6.81273 10.9703C6.81273 11.0596 6.77139 11.1734 6.69698 11.2791L4.13394 14.7814C4.05126 14.8952 3.87764 14.9683 3.69574 14.9683Z" fill="#8F97AB"/>
</svg>
