<svg width="12" height="12" viewBox="0 0 12 12" fill="none" xmlns="http://www.w3.org/2000/svg">
<path d="M12 6C12 5.83921 11.9289 5.69129 11.7997 5.5691L7.50889 1.30508C7.37964 1.18288 7.24394 1.125 7.08885 1.125C6.77221 1.125 6.52019 1.35653 6.52019 1.6781C6.52019 1.83245 6.57835 1.98681 6.68174 2.08328L8.12924 3.54964L10.3069 5.52408L8.74313 5.42761L0.568659 5.42761C0.232633 5.42761 0 5.66557 0 6C0 6.33443 0.232633 6.57239 0.568659 6.57239L8.74313 6.57239L10.3005 6.47592L8.12924 8.45036L6.68174 9.91672C6.57835 10.0196 6.52019 10.1675 6.52019 10.3219C6.52019 10.6435 6.77221 10.875 7.08885 10.875C7.24394 10.875 7.37964 10.8235 7.52181 10.6821L11.7997 6.4309C11.9289 6.30871 12 6.16078 12 6Z" fill="#646871"/>
</svg>
