<svg width="20" height="20" viewBox="0 0 20 20" fill="none" xmlns="http://www.w3.org/2000/svg">
<path d="M10 20C15.4706 20 20 15.4608 20 10C20 4.52941 15.4608 0 9.9902 0C4.52941 0 0 4.52941 0 10C0 15.4608 4.53922 20 10 20ZM10 18.3333C5.37255 18.3333 1.67647 14.6275 1.67647 10C1.67647 5.37255 5.36275 1.66667 9.9902 1.66667C14.6176 1.66667 18.3235 5.37255 18.3333 10C18.3431 14.6275 14.6275 18.3333 10 18.3333ZM6.64706 14.1569C6.87255 14.1569 7.06863 14.0686 7.21569 13.9118L9.9902 11.1176L12.7843 13.9118C12.9314 14.0588 13.1176 14.1569 13.3431 14.1569C13.7745 14.1569 14.1275 13.7941 14.1275 13.3627C14.1275 13.1373 14.049 12.951 13.8922 12.8039L11.1078 10.0196L13.902 7.21569C14.0686 7.04902 14.1373 6.88235 14.1373 6.66667C14.1373 6.22549 13.7843 5.88235 13.3529 5.88235C13.1471 5.88235 12.9804 5.95098 12.8137 6.11765L9.9902 8.92157L7.19608 6.12745C7.04902 5.97059 6.87255 5.90196 6.64706 5.90196C6.21569 5.90196 5.86275 6.23529 5.86275 6.67647C5.86275 6.89216 5.95098 7.07843 6.09804 7.22549L8.88235 10.0196L6.09804 12.8137C5.95098 12.951 5.86275 13.1471 5.86275 13.3627C5.86275 13.7941 6.21569 14.1569 6.64706 14.1569Z" fill="#8F97AB"/>
</svg>
