<svg width="20" height="20" viewBox="0 0 20 20" fill="none" xmlns="http://www.w3.org/2000/svg">
<path d="M10 20C15.4706 20 20 15.4608 20 10C20 4.52941 15.4608 0 9.9902 0C4.52941 0 0 4.52941 0 10C0 15.4608 4.53922 20 10 20ZM4.13726 3.64706C5.11765 2.73529 6.31373 2.04902 7.62745 1.66667C6.95098 2.35294 6.37255 3.32353 5.94118 4.51961C5.2451 4.29412 4.63726 4 4.13726 3.64706ZM12.3824 1.67647C13.6863 2.05882 14.8726 2.7451 15.8627 3.65686C15.3627 4.0098 14.7549 4.29412 14.0588 4.51961C13.6275 3.33333 13.049 2.36275 12.3824 1.67647ZM7.20588 4.84314C7.7549 3.34314 8.51961 2.26471 9.36275 1.89216V5.06863C8.58824 5.03922 7.87255 4.96078 7.20588 4.84314ZM10.6471 1.89216C11.4804 2.26471 12.2451 3.34314 12.7941 4.84314C12.1275 4.96078 11.4118 5.03922 10.6471 5.06863V1.89216ZM1.35294 9.35294C1.4902 7.56863 2.18627 5.91177 3.26471 4.57843C3.87255 5.03922 4.65686 5.42157 5.56863 5.71569C5.28431 6.81373 5.10784 8.03922 5.05882 9.35294H1.35294ZM14.9412 9.35294C14.8922 8.03922 14.7157 6.81373 14.4314 5.71569C15.3431 5.42157 16.1275 5.03922 16.7255 4.58824C17.8137 5.91177 18.5098 7.56863 18.6471 9.35294H14.9412ZM10.6471 9.35294V6.35294C11.5294 6.32353 12.3726 6.21569 13.1667 6.04902C13.4216 7.05882 13.5784 8.17647 13.6275 9.35294H10.6471ZM6.37255 9.35294C6.42157 8.17647 6.58824 7.05882 6.83333 6.04902C7.62745 6.21569 8.47059 6.32353 9.36275 6.35294V9.35294H6.37255ZM1.35294 10.6373H5.05882C5.10784 11.9804 5.28431 13.2157 5.56863 14.3235C4.66667 14.6176 3.89216 15 3.29412 15.451C2.19608 14.1078 1.4902 12.4412 1.35294 10.6373ZM6.37255 10.6373H9.36275V13.6961C8.48039 13.7255 7.63726 13.8333 6.85294 13.9902C6.58824 12.9706 6.41177 11.8333 6.37255 10.6373ZM10.6471 13.6961V10.6373H13.6275C13.5882 11.8333 13.4118 12.9706 13.1471 13.9902C12.3726 13.8333 11.5196 13.7255 10.6471 13.6961ZM14.4314 14.3235C14.7157 13.2157 14.8922 11.9804 14.9412 10.6373H18.6471C18.5098 12.4412 17.8039 14.1078 16.7059 15.451C16.1078 15 15.3333 14.6176 14.4314 14.3235ZM10.6471 14.9804C11.402 15.0098 12.1176 15.0784 12.7745 15.2059C12.2255 16.6667 11.4706 17.7451 10.6471 18.1176V14.9804ZM7.22549 15.2059C7.88235 15.0784 8.59804 15.0098 9.36275 14.9804V18.1176C8.52941 17.7451 7.77451 16.6667 7.22549 15.2059ZM14.049 15.5196C14.7353 15.7451 15.3333 16.0294 15.8333 16.3725C14.8529 17.2647 13.6863 17.9412 12.3922 18.3235C13.049 17.6471 13.6176 16.6863 14.049 15.5196ZM4.16667 16.3725C4.66667 16.0294 5.26471 15.7451 5.95098 15.5196C6.38235 16.6863 6.95098 17.6471 7.61765 18.3235C6.32353 17.9412 5.14706 17.2647 4.16667 16.3725Z" fill="#8F97AB"/>
</svg>
