<svg width="16" height="16" viewBox="0 0 16 16" fill="none" xmlns="http://www.w3.org/2000/svg">
<path d="M8 16C12.3765 16 16 12.3686 16 8C16 3.62353 12.3686 0 7.99216 0C3.62353 0 0 3.62353 0 8C0 12.3686 3.63137 16 8 16ZM3.3098 2.91765C4.09412 2.18824 5.05098 1.63922 6.10196 1.33333C5.56078 1.88235 5.09804 2.65882 4.75294 3.61569C4.19608 3.43529 3.7098 3.2 3.3098 2.91765ZM9.90588 1.34118C10.949 1.64706 11.898 2.19608 12.6902 2.92549C12.2902 3.20784 11.8039 3.43529 11.2471 3.61569C10.902 2.66667 10.4392 1.8902 9.90588 1.34118ZM5.76471 3.87451C6.20392 2.67451 6.81569 1.81176 7.4902 1.51373V4.0549C6.87059 4.03137 6.29804 3.96863 5.76471 3.87451ZM8.51765 1.51373C9.18431 1.81176 9.79608 2.67451 10.2353 3.87451C9.70196 3.96863 9.12941 4.03137 8.51765 4.0549V1.51373ZM1.08235 7.48235C1.19216 6.0549 1.74902 4.72941 2.61176 3.66275C3.09804 4.03137 3.72549 4.33725 4.4549 4.57255C4.22745 5.45098 4.08627 6.43137 4.04706 7.48235H1.08235ZM11.9529 7.48235C11.9137 6.43137 11.7725 5.45098 11.5451 4.57255C12.2745 4.33725 12.902 4.03137 13.3804 3.67059C14.251 4.72941 14.8078 6.0549 14.9176 7.48235H11.9529ZM8.51765 7.48235V5.08235C9.22353 5.05882 9.89804 4.97255 10.5333 4.83922C10.7373 5.64706 10.8627 6.54118 10.902 7.48235H8.51765ZM5.09804 7.48235C5.13725 6.54118 5.27059 5.64706 5.46667 4.83922C6.10196 4.97255 6.77647 5.05882 7.4902 5.08235V7.48235H5.09804ZM1.08235 8.5098H4.04706C4.08627 9.58431 4.22745 10.5725 4.4549 11.4588C3.73333 11.6941 3.11373 12 2.63529 12.3608C1.75686 11.2863 1.19216 9.95294 1.08235 8.5098ZM5.09804 8.5098H7.4902V10.9569C6.78431 10.9804 6.1098 11.0667 5.48235 11.1922C5.27059 10.3765 5.12941 9.46667 5.09804 8.5098ZM8.51765 10.9569V8.5098H10.902C10.8706 9.46667 10.7294 10.3765 10.5176 11.1922C9.89804 11.0667 9.21569 10.9804 8.51765 10.9569ZM11.5451 11.4588C11.7725 10.5725 11.9137 9.58431 11.9529 8.5098H14.9176C14.8078 9.95294 14.2431 11.2863 13.3647 12.3608C12.8863 12 12.2667 11.6941 11.5451 11.4588ZM8.51765 11.9843C9.12157 12.0078 9.69412 12.0627 10.2196 12.1647C9.78039 13.3333 9.17647 14.1961 8.51765 14.4941V11.9843ZM5.78039 12.1647C6.30588 12.0627 6.87843 12.0078 7.4902 11.9843V14.4941C6.82353 14.1961 6.21961 13.3333 5.78039 12.1647ZM11.2392 12.4157C11.7882 12.5961 12.2667 12.8235 12.6667 13.098C11.8824 13.8118 10.949 14.3529 9.91373 14.6588C10.4392 14.1176 10.8941 13.349 11.2392 12.4157ZM3.33333 13.098C3.73333 12.8235 4.21176 12.5961 4.76078 12.4157C5.10588 13.349 5.56078 14.1176 6.09412 14.6588C5.05882 14.3529 4.11765 13.8118 3.33333 13.098Z" fill="white"/>
</svg>
