<svg width="20" height="20" viewBox="0 0 20 20" fill="none" xmlns="http://www.w3.org/2000/svg">
<path d="M10 20C15.4706 20 20 15.4608 20 10C20 4.52941 15.4608 0 9.9902 0C4.52941 0 0 4.52941 0 10C0 15.4608 4.53922 20 10 20ZM10 18.3333C5.37255 18.3333 1.67647 14.6275 1.67647 10C1.67647 5.37255 5.36275 1.66667 9.9902 1.66667C14.6176 1.66667 18.3235 5.37255 18.3333 10C18.3431 14.6275 14.6275 18.3333 10 18.3333ZM12.5 9.5C13.5294 9.5 14.402 8.57843 14.402 7.38235C14.402 6.20588 13.5196 5.33333 12.5 5.33333C11.4706 5.33333 10.5882 6.23529 10.5882 7.39216C10.598 8.57843 11.4706 9.5 12.5 9.5ZM7 9.59804C7.89216 9.59804 8.65686 8.80392 8.65686 7.7549C8.65686 6.73529 7.89216 5.98039 7 5.98039C6.11765 5.98039 5.33333 6.7549 5.33333 7.76471C5.34314 8.80392 6.10784 9.59804 7 9.59804ZM4.33333 13.9118H7.97059C7.47059 13.1961 8.07843 11.7451 9.10784 10.9608C8.56863 10.598 7.88235 10.3333 7 10.3333C4.84314 10.3333 3.5 11.9216 3.5 13.2353C3.5 13.6667 3.73529 13.9118 4.33333 13.9118ZM9.5 13.9118H15.4902C16.2451 13.9118 16.5098 13.6961 16.5098 13.2745C16.5098 12.049 14.9706 10.3529 12.5 10.3529C10.0196 10.3529 8.47059 12.049 8.47059 13.2745C8.47059 13.6961 8.7451 13.9118 9.5 13.9118Z" fill="#8F97AB"/>
</svg>
