<svg width="20" height="20" viewBox="0 0 20 20" fill="none" xmlns="http://www.w3.org/2000/svg">
<path d="M10 20C15.4706 20 20 15.4608 20 10C20 4.52941 15.4608 0 9.9902 0C4.52941 0 0 4.52941 0 10C0 15.4608 4.53922 20 10 20ZM9.9902 1.66667C14.6176 1.66667 18.3235 5.37255 18.3333 10C18.3431 12.049 17.6078 13.9216 16.3922 15.3627L4.63726 3.60784C6.07843 2.39216 7.94118 1.66667 9.9902 1.66667ZM10 18.3333C5.37255 18.3333 1.67647 14.6275 1.67647 10C1.67647 7.96078 2.39216 6.09804 3.59804 4.64706L15.3529 16.402C13.902 17.6078 12.0392 18.3333 10 18.3333Z" fill="#8F97AB"/>
</svg>
