<svg width="16" height="16" viewBox="0 0 16 16" fill="none" xmlns="http://www.w3.org/2000/svg">
<path d="M7.24486 16H8.75514C9.33084 16 9.77196 15.6483 9.90654 15.0945L10.228 13.695L10.4673 13.6127L11.686 14.3611C12.172 14.6679 12.7327 14.5931 13.1439 14.1815L14.1907 13.1413C14.6019 12.7297 14.6766 12.1609 14.3701 11.6819L13.6075 10.4696L13.6972 10.2451L15.0953 9.91581C15.6411 9.7811 16 9.33209 16 8.76333V7.28157C16 6.71282 15.6486 6.2638 15.0953 6.12909L13.7122 5.79233L13.615 5.55285L14.3776 4.34051C14.6841 3.86155 14.6093 3.30028 14.1981 2.8812L13.1514 1.83349C12.7477 1.42937 12.1869 1.35454 11.7009 1.65388L10.4822 2.40225L10.228 2.30496L9.90654 0.905519C9.77196 0.351731 9.33084 0 8.75514 0H7.24486C6.66916 0 6.22804 0.351731 6.09346 0.905519L5.76449 2.30496L5.51028 2.40225L4.29907 1.65388C3.81308 1.35454 3.24486 1.42937 2.84112 1.83349L1.80187 2.8812C1.39065 3.30028 1.30841 3.86155 1.62243 4.34051L2.37757 5.55285L2.28785 5.79233L0.904673 6.12909C0.351402 6.2638 0 6.71282 0 7.28157V8.76333C0 9.33209 0.358879 9.7811 0.904673 9.91581L2.3028 10.2451L2.38505 10.4696L1.62991 11.6819C1.31589 12.1609 1.39813 12.7297 1.80935 13.1413L2.8486 14.1815C3.25981 14.5931 3.82804 14.6679 4.31402 14.3611L5.52523 13.6127L5.76449 13.695L6.09346 15.0945C6.22804 15.6483 6.66916 16 7.24486 16ZM7.36449 14.8326C7.23738 14.8326 7.17009 14.7802 7.14766 14.6604L6.69907 12.8045C6.24299 12.6922 5.81682 12.5126 5.49533 12.3106L3.86542 13.3134C3.7757 13.3807 3.6785 13.3658 3.58879 13.276L2.70654 12.3929C2.6243 12.3106 2.61682 12.2208 2.67664 12.116L3.6785 10.4995C3.50654 10.1852 3.31215 9.75865 3.19252 9.30215L1.33832 8.86062C1.21869 8.83817 1.16636 8.77081 1.16636 8.64359V7.39383C1.16636 7.25912 1.21121 7.19925 1.33832 7.1768L3.18505 6.72778C3.30467 6.24135 3.52897 5.79981 3.66355 5.52292L2.66916 3.90645C2.60187 3.7942 2.60935 3.7044 2.69159 3.61459L3.58131 2.74649C3.67103 2.65669 3.75327 2.64172 3.86542 2.70907L5.48037 3.68943C5.80187 3.50982 6.25794 3.32273 6.70654 3.19551L7.14766 1.33957C7.17009 1.21983 7.23738 1.16745 7.36449 1.16745H8.63551C8.76262 1.16745 8.82991 1.21983 8.84486 1.33957L9.30093 3.21048C9.76449 3.33022 10.1682 3.51731 10.5047 3.69691L12.1271 2.70907C12.2467 2.64172 12.3215 2.65669 12.4187 2.74649L13.3009 3.61459C13.3907 3.7044 13.3907 3.7942 13.3234 3.90645L12.329 5.52292C12.471 5.79981 12.6879 6.24135 12.8075 6.72778L14.6617 7.1768C14.7813 7.19925 14.8336 7.25912 14.8336 7.39383V8.64359C14.8336 8.77081 14.7738 8.83817 14.6617 8.86062L12.8 9.30215C12.6804 9.75865 12.4935 10.1852 12.314 10.4995L13.3159 12.116C13.3757 12.2208 13.3757 12.3106 13.286 12.3929L12.4112 13.276C12.314 13.3658 12.2243 13.3807 12.1271 13.3134L10.4972 12.3106C10.1757 12.5126 9.75701 12.6922 9.30093 12.8045L8.84486 14.6604C8.82991 14.7802 8.76262 14.8326 8.63551 14.8326H7.36449ZM8 10.8587C9.56262 10.8587 10.8486 9.57156 10.8486 8C10.8486 6.44341 9.56262 5.15622 8 5.15622C6.43738 5.15622 5.14393 6.44341 5.14393 8C5.14393 9.56408 6.42991 10.8587 8 10.8587ZM8 9.69878C7.0729 9.69878 6.31028 8.93545 6.31028 8C6.31028 7.07951 7.0729 6.31618 8 6.31618C8.91215 6.31618 9.67477 7.07951 9.67477 8C9.67477 8.92797 8.91215 9.69878 8 9.69878Z" fill="white"/>
</svg>
