<svg width="20" height="20" viewBox="0 0 20 20" fill="none" xmlns="http://www.w3.org/2000/svg">
<path d="M9.05608 20H10.9439C11.6636 20 12.215 19.5603 12.3832 18.8681L12.785 17.1188L13.0841 17.0159L14.6075 17.9514C15.215 18.3349 15.9159 18.2413 16.4299 17.7268L17.7383 16.4266C18.2523 15.9121 18.3458 15.2011 17.9626 14.6024L17.0093 13.087L17.1215 12.8064L18.8692 12.3948C19.5514 12.2264 20 11.6651 20 10.9542V9.10196C20 8.39102 19.5607 7.82975 18.8692 7.66137L17.1402 7.24041L17.0187 6.94107L17.972 5.42563C18.3551 4.82694 18.2617 4.12535 17.7477 3.6015L16.4393 2.29186C15.9346 1.78672 15.2336 1.69317 14.6262 2.06735L13.1028 3.00281L12.785 2.8812L12.3832 1.1319C12.215 0.439663 11.6636 0 10.9439 0H9.05608C8.33645 0 7.78505 0.439663 7.61682 1.1319L7.20561 2.8812L6.88785 3.00281L5.37383 2.06735C4.76636 1.69317 4.05608 1.78672 3.5514 2.29186L2.25234 3.6015C1.73832 4.12535 1.63551 4.82694 2.02804 5.42563L2.97196 6.94107L2.85981 7.24041L1.13084 7.66137C0.439252 7.82975 0 8.39102 0 9.10196V10.9542C0 11.6651 0.448598 12.2264 1.13084 12.3948L2.8785 12.8064L2.98131 13.087L2.03738 14.6024C1.64486 15.2011 1.74766 15.9121 2.26168 16.4266L3.56075 17.7268C4.07477 18.2413 4.78505 18.3349 5.39252 17.9514L6.90654 17.0159L7.20561 17.1188L7.61682 18.8681C7.78505 19.5603 8.33645 20 9.05608 20ZM9.20561 18.5407C9.04673 18.5407 8.96262 18.4752 8.93458 18.3255L8.37383 16.0056C7.80374 15.8653 7.27103 15.6408 6.86916 15.3882L4.83178 16.6417C4.71963 16.7259 4.59813 16.7072 4.48598 16.5949L3.38318 15.4911C3.28037 15.3882 3.27103 15.276 3.34579 15.145L4.59813 13.1244C4.38318 12.7315 4.14019 12.1983 3.99065 11.6277L1.6729 11.0758C1.52336 11.0477 1.45794 10.9635 1.45794 10.8045V9.24228C1.45794 9.0739 1.51402 8.99906 1.6729 8.971L3.98131 8.40973C4.13084 7.80168 4.41122 7.24977 4.57944 6.90365L3.33645 4.88307C3.25234 4.74275 3.26168 4.6305 3.36449 4.51824L4.47664 3.43312C4.58879 3.32086 4.69159 3.30215 4.83178 3.38634L6.85047 4.61179C7.25234 4.38728 7.82243 4.15341 8.38318 3.99439L8.93458 1.67446C8.96262 1.52479 9.04673 1.45931 9.20561 1.45931H10.7944C10.9533 1.45931 11.0374 1.52479 11.0561 1.67446L11.6262 4.0131C12.2056 4.16277 12.7103 4.39663 13.1308 4.62114L15.1589 3.38634C15.3084 3.30215 15.4019 3.32086 15.5234 3.43312L16.6262 4.51824C16.7383 4.6305 16.7383 4.74275 16.6542 4.88307L15.4112 6.90365C15.5888 7.24977 15.8598 7.80168 16.0093 8.40973L18.3271 8.971C18.4766 8.99906 18.5421 9.0739 18.5421 9.24228V10.8045C18.5421 10.9635 18.4673 11.0477 18.3271 11.0758L16 11.6277C15.8505 12.1983 15.6168 12.7315 15.3925 13.1244L16.6449 15.145C16.7196 15.276 16.7196 15.3882 16.6075 15.4911L15.514 16.5949C15.3925 16.7072 15.2804 16.7259 15.1589 16.6417L13.1215 15.3882C12.7196 15.6408 12.1963 15.8653 11.6262 16.0056L11.0561 18.3255C11.0374 18.4752 10.9533 18.5407 10.7944 18.5407H9.20561ZM10 13.5734C11.9533 13.5734 13.5607 11.9645 13.5607 10C13.5607 8.05426 11.9533 6.44528 10 6.44528C8.04673 6.44528 6.42991 8.05426 6.42991 10C6.42991 11.9551 8.03738 13.5734 10 13.5734ZM10 12.1235C8.84112 12.1235 7.88785 11.1693 7.88785 10C7.88785 8.84939 8.84112 7.89523 10 7.89523C11.1402 7.89523 12.0935 8.84939 12.0935 10C12.0935 11.16 11.1402 12.1235 10 12.1235Z" fill="#8F97AB"/>
</svg>
