<svg width="14" height="16" viewBox="0 0 14 16" fill="none" xmlns="http://www.w3.org/2000/svg">
<path d="M7.01187 16C7.1386 16 7.34454 15.9525 7.54256 15.8416C12.0495 13.3149 13.594 12.2455 13.594 9.35446V3.29505C13.594 2.46337 13.2376 2.20198 12.5643 1.91683C11.6297 1.52871 8.61187 0.443564 7.67721 0.118812C7.46335 0.0475248 7.23365 0 7.01187 0C6.79008 0 6.56038 0.0633663 6.35444 0.118812C5.41979 0.388119 2.39404 1.53663 1.45939 1.91683C0.794044 2.19406 0.429688 2.46337 0.429688 3.29505V9.35446C0.429688 12.2455 1.98216 13.3069 6.48117 15.8416C6.68711 15.9525 6.88513 16 7.01187 16ZM7.01187 14.5663C6.88513 14.5663 6.7584 14.5188 6.52078 14.3762C2.86137 12.1584 1.68909 11.5089 1.68909 9.06139V3.54059C1.68909 3.27129 1.73662 3.16832 1.9584 3.08119C3.16236 2.60594 5.49899 1.82178 6.69503 1.34653C6.82177 1.29109 6.92474 1.27525 7.01187 1.27525C7.09899 1.27525 7.20196 1.29901 7.3287 1.34653C8.52474 1.82178 10.8455 2.66139 12.0733 3.08119C12.2871 3.1604 12.3346 3.27129 12.3346 3.54059V9.06139C12.3346 11.5089 11.1624 12.1505 7.50295 14.3762C7.27325 14.5188 7.1386 14.5663 7.01187 14.5663ZM6.1485 11.3743C6.40989 11.3743 6.63167 11.2475 6.79008 11.0099L10.4099 5.30693C10.5049 5.15644 10.6 4.98218 10.6 4.8C10.6 4.45149 10.2832 4.22178 9.9584 4.22178C9.75246 4.22178 9.55444 4.34059 9.40394 4.57822L6.11682 9.85347L4.55642 7.83366C4.36632 7.5802 4.19206 7.50891 3.9782 7.50891C3.62969 7.50891 3.36038 7.78614 3.36038 8.14257C3.36038 8.30891 3.43167 8.48317 3.54256 8.63366L5.47523 11.0099C5.67325 11.2713 5.88711 11.3743 6.1485 11.3743Z" fill="white"/>
</svg>
