<svg width="14" height="16" viewBox="0 0 14 16" fill="none" xmlns="http://www.w3.org/2000/svg">
<path d="M0.203249 3.60373C-0.0744814 3.86791 -0.0609335 4.2608 0.203249 4.51143L3.69182 7.92549C3.81375 8.04742 3.98987 8.12193 4.1389 8.12193C4.49792 8.12193 4.74178 7.8713 4.74178 7.51905C4.74178 7.3497 4.68081 7.21423 4.56565 7.09907L3.10926 5.69009L1.84931 4.59949L3.41409 4.66723H12.464C12.8163 4.66723 13.0669 4.4166 13.0669 4.05758C13.0669 3.70533 12.8163 3.4547 12.464 3.4547H3.41409L1.84931 3.51566L3.10926 2.43184L4.56565 1.01609C4.68081 0.900931 4.74178 0.772227 4.74178 0.596105C4.74178 0.243861 4.49792 0 4.1389 0C3.98987 0 3.81375 0.0677392 3.69182 0.18967L0.203249 3.60373ZM12.8705 12.3963C13.1414 12.1321 13.1347 11.7392 12.8705 11.4818L9.38191 8.06774C9.25998 7.95258 9.08386 7.87807 8.92806 7.87807C8.56904 7.87807 8.33195 8.12193 8.33195 8.47417C8.33195 8.6503 8.38615 8.78577 8.5013 8.89416L9.96447 10.3099L11.2244 11.4005L9.65964 11.3328H0.609685C0.257441 11.3328 3.17428e-05 11.5834 3.17428e-05 11.9356C3.17428e-05 12.2947 0.257441 12.5453 0.609685 12.5453H9.65964L11.2244 12.4776L9.96447 13.5682L8.5013 14.9771C8.38615 15.0923 8.33195 15.2278 8.33195 15.4039C8.33195 15.7561 8.56904 16 8.92806 16C9.08386 16 9.25998 15.9255 9.38191 15.8103L12.8705 12.3963Z" fill="#646871"/>
</svg>
