<svg width="16" height="16" viewBox="0 0 16 16" fill="none" xmlns="http://www.w3.org/2000/svg">
<path d="M9.25341 14.6932C12.9376 14.6932 16 11.6308 16 7.9466C16 4.25582 12.931 1.20001 9.2468 1.20001C5.80074 1.20001 2.92352 3.85235 2.55312 7.2058C2.87722 7.14627 3.34684 7.11981 3.6974 7.1595C4.06118 4.41456 6.38942 2.32444 9.2468 2.32444C12.3621 2.32444 14.8756 4.82465 14.8756 7.9466C14.8756 9.40175 14.3332 10.7246 13.427 11.7101C12.7788 10.9363 11.2443 10.1955 9.2468 10.1955C8.61182 10.1955 8.02976 10.2748 7.50723 10.4005C7.58661 10.718 7.62629 11.0619 7.62629 11.3993C7.62629 12.4311 7.24928 13.3902 6.6143 14.1376C7.42786 14.4948 8.32079 14.6932 9.25341 14.6932ZM9.2468 9.07103C10.5167 9.08426 11.5155 7.99952 11.5155 6.57744C11.5155 5.24135 10.5101 4.13676 9.2468 4.13676C7.97685 4.13676 6.96486 5.24135 6.97809 6.57744C6.9847 7.99952 7.97024 9.0578 9.2468 9.07103ZM3.36007 14.7659C5.179 14.7659 6.72013 13.2447 6.72013 11.4059C6.72013 9.56049 5.20546 8.04582 3.36007 8.04582C1.52129 8.04582 0 9.56711 0 11.4059C0 13.2579 1.52129 14.7659 3.36007 14.7659ZM1.25672 11.4059C1.25672 11.1612 1.42208 11.0024 1.66019 11.0024H2.95659V9.70601C2.95659 9.46789 3.11534 9.30253 3.36007 9.30253C3.6048 9.30253 3.76354 9.46789 3.76354 9.70601V11.0024H5.05994C5.29806 11.0024 5.46341 11.1612 5.46341 11.4059C5.46341 11.6506 5.29806 11.8094 5.05994 11.8094H3.76354V13.1058C3.76354 13.3505 3.6048 13.5092 3.36007 13.5092C3.11534 13.5092 2.95659 13.3505 2.95659 13.1058V11.8094H1.66019C1.42208 11.8094 1.25672 11.6506 1.25672 11.4059Z" fill="#90949E"/>
</svg>
