<svg width="16" height="16" viewBox="0 0 16 16" fill="none" xmlns="http://www.w3.org/2000/svg">
<path d="M9.25341 14.6924C12.9376 14.6924 16 11.63 16 7.94581C16 4.25503 12.931 1.19922 9.2468 1.19922C5.80074 1.19922 2.92352 3.85155 2.55312 7.20501C2.87722 7.14548 3.34684 7.11902 3.6974 7.15871C4.06118 4.41377 6.38942 2.32365 9.2468 2.32365C12.3621 2.32365 14.8756 4.82386 14.8756 7.94581C14.8756 9.40095 14.3332 10.7238 13.427 11.7093C12.7788 10.9355 11.2443 10.1947 9.2468 10.1947C8.61182 10.1947 8.02976 10.274 7.50723 10.3997C7.58661 10.7172 7.62629 11.0611 7.62629 11.3985C7.62629 12.4303 7.24928 13.3894 6.6143 14.1368C7.42786 14.494 8.32079 14.6924 9.25341 14.6924ZM9.2468 9.07024C10.5167 9.08347 11.5155 7.99872 11.5155 6.57665C11.5155 5.24056 10.5101 4.13597 9.2468 4.13597C7.97685 4.13597 6.96486 5.24056 6.97809 6.57665C6.9847 7.99872 7.97024 9.05701 9.2468 9.07024ZM3.36007 14.7652C5.179 14.7652 6.72013 13.2439 6.72013 11.4051C6.72013 9.5597 5.20546 8.04502 3.36007 8.04502C1.52129 8.04502 0 9.56631 0 11.4051C0 13.2571 1.52129 14.7652 3.36007 14.7652ZM1.25672 11.4051C1.25672 11.1604 1.42208 11.0016 1.66019 11.0016H2.95659V9.70521C2.95659 9.4671 3.11534 9.30174 3.36007 9.30174C3.6048 9.30174 3.76354 9.4671 3.76354 9.70521V11.0016H5.05994C5.29806 11.0016 5.46341 11.1604 5.46341 11.4051C5.46341 11.6498 5.29806 11.8086 5.05994 11.8086H3.76354V13.105C3.76354 13.3497 3.6048 13.5084 3.36007 13.5084C3.11534 13.5084 2.95659 13.3497 2.95659 13.105V11.8086H1.66019C1.42208 11.8086 1.25672 11.6498 1.25672 11.4051Z" fill="white"/>
</svg>
