<svg width="32" height="32" viewBox="0 0 32 32" fill="none" xmlns="http://www.w3.org/2000/svg">
<circle cx="16" cy="16" r="15.5" stroke="#3F4147"/>
<circle cx="16" cy="16" r="16" fill="#082B1E"/>
<path d="M14.3125 22.8125C14.7266 22.8125 15.0469 22.6406 15.2734 22.3047L22.6172 10.8672C22.7812 10.6094 22.8516 10.3906 22.8516 10.1797C22.8516 9.625 22.4609 9.24219 21.8984 9.24219C21.5156 9.24219 21.2812 9.38281 21.0469 9.75L14.2734 20.4922L10.7969 16.0312C10.5625 15.7266 10.3203 15.6016 9.97656 15.6016C9.41406 15.6016 9.00781 16 9.00781 16.5469C9.00781 16.7891 9.09375 17.0234 9.29688 17.2656L13.3438 22.3125C13.6172 22.6562 13.9062 22.8125 14.3125 22.8125Z" fill="#30E696"/>
</svg>
