<svg width="256" height="256" viewBox="0 0 256 256" fill="none" xmlns="http://www.w3.org/2000/svg">
<circle cx="128" cy="128" r="128" fill="#181818"/>
<path d="M125.162 45H130.136C133.256 45.205 136.381 45.3901 139.481 45.83C150.09 47.324 160.436 50.8515 169.661 56.3096C167.538 57.997 165.262 59.481 163.085 61.0954C148.368 71.6289 133.688 82.2172 118.953 92.725C117.759 91.7356 116.725 90.5745 115.593 89.5195C112.23 86.2991 108.961 82.9841 105.57 79.8019C104.333 80.2484 103.205 80.934 102.051 81.554C94.3526 85.8493 87.8014 92.1091 83.0314 99.5094C76.8214 91.6717 70.8694 83.6307 64.9939 75.544C64.8096 75.2742 64.6453 74.9945 64.4776 74.714C66.6962 72.0624 69.0833 69.5565 71.6239 67.2116C84.342 55.375 100.859 47.6494 118.137 45.6242C120.469 45.3071 122.824 45.249 125.162 45ZM165.489 76.037C170.696 72.1095 175.912 68.1902 181.245 64.4361C192.19 73.5412 200.684 85.5521 205.701 98.867C212.058 115.586 212.704 134.383 207.592 151.515C205.803 157.551 203.325 163.36 200.205 168.829C199.718 168.414 199.375 167.866 198.995 167.364L168.85 127.541C166.899 124.933 164.89 122.369 162.97 119.739C167.369 115.014 171.957 110.454 176.371 105.739C173.295 99.0952 168.89 93.153 163.428 88.2787C161.281 86.324 158.916 84.6416 156.525 83.0065C159.439 80.5929 162.49 78.3461 165.489 76.037V76.037ZM50.8258 97.5896C52.3198 93.8936 53.9856 90.2441 56.0548 86.832C58.9805 90.5155 61.7743 94.307 64.6453 98.037C73.7482 109.96 82.8469 121.885 91.9415 133.81C92.5374 134.595 93.1782 135.347 93.6903 136.192C89.0971 140.986 84.3852 145.667 79.811 150.481C80.9141 153.087 82.4081 155.51 83.9677 157.868C86.3345 161.349 89.1027 164.539 92.2154 167.373C94.4564 169.467 96.9588 171.248 99.4746 172.993C97.2825 174.835 94.9693 176.528 92.7084 178.282C88.6801 181.365 84.6187 184.405 80.524 187.401C78.5868 188.773 76.7292 190.259 74.7314 191.543C61.8449 180.771 52.3596 165.998 47.9531 149.794C46.162 143.372 45.2905 136.728 45 130.075V125.925C45.0963 124.487 45.1859 123.047 45.2864 121.609C45.9193 113.37 47.7866 105.273 50.8258 97.5896V97.5896ZM167.521 163.673C169.576 161.451 171.331 158.983 173.044 156.498C174.897 158.778 176.665 161.129 178.462 163.455C182.914 169.306 187.32 175.19 191.581 181.178C190.365 182.874 188.861 184.344 187.431 185.862C175.506 198.137 159.709 206.612 142.849 209.647C138.865 210.412 134.81 210.735 130.762 211H124.751C122.968 210.774 121.169 210.737 119.386 210.532C107.79 209.313 96.4235 205.655 86.383 199.712C89.8208 197.092 93.3077 194.536 96.7621 191.934C109.948 182.099 123.128 172.257 136.304 162.407C138.54 164.468 140.651 166.662 142.851 168.765C145.424 171.226 147.898 173.805 150.525 176.215C156.973 173.265 162.755 168.912 167.521 163.673" fill="white"/>
</svg>
