<svg width="776" height="776" viewBox="0 0 776 776" fill="none" xmlns="http://www.w3.org/2000/svg">
<path d="M388 776C602.286 776 776 602.286 776 388C776 173.714 602.286 0 388 0C173.714 0 0 173.714 0 388C0 602.286 173.714 776 388 776Z" fill="url(#paint0_linear_2_3335)"/>
<path d="M557.8 542.6L426.6 225.4C419.2 209 408.2 201 393.7 201H382.1C367.6 201 356.6 209 349.2 225.4L292.1 363.6H248.9C236 363.7 225.5 374.1 225.4 387.1V387.4C225.5 400.3 236 410.8 248.9 410.9H272.1L217.6 542.6C216.6 545.5 216 548.5 216 551.6C216 559 218.3 564.8 222.4 569.3C226.5 573.8 232.4 576 239.8 576C244.7 575.9 249.4 574.4 253.3 571.5C257.5 568.6 260.4 564.4 262.7 559.6L322.7 410.8H364.3C377.2 410.7 387.7 400.3 387.8 387.3V386.7C387.7 373.8 377.2 363.3 364.3 363.2H342.1L387.9 249.1L512.7 559.5C515 564.3 517.9 568.5 522.1 571.4C526 574.3 530.8 575.8 535.6 575.9C543 575.9 548.8 573.7 553 569.2C557.2 564.7 559.4 558.9 559.4 551.5C559.5 548.5 559 545.4 557.8 542.6Z" fill="white"/>
<defs>
<linearGradient id="paint0_linear_2_3335" x1="677.287" y1="144.586" x2="99.9432" y2="630.362" gradientUnits="userSpaceOnUse">
<stop stop-color="#B6509E"/>
<stop offset="1" stop-color="#2EBAC6"/>
</linearGradient>
</defs>
</svg>
