<svg width="1060" height="1060" viewBox="0 0 1060 1060" fill="none" xmlns="http://www.w3.org/2000/svg">
<path d="M529.573 1042.06C812.613 1042.06 1042.06 812.612 1042.06 529.572C1042.06 246.532 812.613 17.082 529.573 17.082C246.533 17.082 17.083 246.532 17.083 529.572C17.083 812.612 246.533 1042.06 529.573 1042.06Z" fill="#F2E3EE"/>
<path d="M529.573 1059.15C822.048 1059.15 1059.15 822.048 1059.15 529.573C1059.15 237.098 822.048 0 529.573 0C237.098 0 0 237.098 0 529.573C0 822.048 237.098 1059.15 529.573 1059.15Z" fill="#D9327C"/>
<path fill-rule="evenodd" clip-rule="evenodd" d="M509.074 279.308C504.803 282.724 499.678 288.703 496.261 299.807C492.845 310.911 474.053 365.577 450.137 433.909H609.863C585.947 365.577 567.156 310.911 563.739 299.807C560.323 288.703 555.198 282.724 550.927 279.308C546.656 275.891 540.677 273.329 529.573 273.329C518.469 273.329 513.344 275.891 509.074 279.308ZM273.328 433.909H381.805C408.284 356.181 431.346 291.266 434.763 279.308C441.596 258.808 452.7 240.871 469.783 228.059C486.866 215.247 507.365 209.268 528.719 209.268C550.073 209.268 570.572 214.392 587.655 228.059C604.738 240.871 615.842 258.808 622.675 279.308C626.946 291.266 649.154 355.327 675.633 433.909H785.818C803.755 433.909 818.276 448.43 818.276 466.367C818.276 484.304 803.755 498.824 785.818 498.824H699.549H632.071H427.929H360.451H273.328C255.391 498.824 241.725 484.304 241.725 466.367C241.725 448.43 256.245 433.909 273.328 433.909ZM273.328 562.031C255.391 562.031 241.725 576.552 241.725 594.489C241.725 612.426 256.245 626.947 273.328 626.947H316.036L298.953 676.488L281.87 726.028L275.036 744.819C269.057 761.902 278.453 779.84 294.682 785.819C311.765 791.798 329.702 782.402 335.681 766.173L342.514 747.382L359.597 697.841C366.43 677.342 374.972 653.425 384.368 626.947H676.487C685.028 652.571 693.57 677.342 701.257 697.841L718.34 747.382L725.173 766.173C731.153 783.256 749.09 791.798 766.173 785.819C783.256 779.84 791.797 761.902 785.818 744.819L778.985 726.028L761.902 676.488L744.819 626.947H787.526C805.464 626.947 819.984 612.426 819.984 594.489C819.984 576.552 805.464 562.031 787.526 562.031H722.611H655.133H407.43H339.952H273.328ZM754.215 754.215L784.11 743.965C784.11 743.965 784.11 743.965 754.215 754.215ZM754.215 754.215C724.319 764.465 724.319 764.465 724.319 764.465L754.215 754.215ZM305.786 754.215L335.681 764.465C335.681 764.465 335.681 764.465 305.786 754.215ZM305.786 754.215C275.891 743.965 275.891 743.965 275.891 743.965L305.786 754.215Z" fill="white"/>
</svg>
