<svg width="753" height="753" viewBox="0 0 753 753" fill="none" xmlns="http://www.w3.org/2000/svg">
<circle cx="376.5" cy="376.5" r="376.5" fill="white"/>
<path d="M376.5 753C584.435 753 753 584.435 753 376.5C753 168.565 584.435 0 376.5 0C168.565 0 0 168.565 0 376.5C0 584.435 168.565 753 376.5 753Z" fill="url(#paint0_linear_2_3422)" fill-opacity="0.05"/>
<path d="M670.641 351.558C673.229 297.318 635.344 261.315 592.517 236.607L564.75 400.032C570.483 399.235 576.32 399.685 581.863 401.35C587.406 403.015 592.525 405.856 596.87 409.68C601.849 414.564 604.825 421.131 605.217 428.095C605.608 435.058 603.387 441.918 598.988 447.33C625.814 442.859 667.582 417.092 670.641 351.558Z" fill="url(#paint1_linear_2_3422)"/>
<path fill-rule="evenodd" clip-rule="evenodd" d="M305.906 161.543L272.962 128.246C322.849 122.128 454.506 129.893 581.928 209.782C583.094 216.912 583.094 224.183 581.928 231.313L592.634 236.725C601.194 250.923 606.831 266.687 609.215 283.093C611.599 299.499 610.682 316.216 606.518 332.262C595.458 376.501 576.516 396.032 568.044 400.032C550.984 400.032 521.923 409.915 512.511 453.683C503.098 497.452 484.979 506.982 477.214 506.276L288.964 508.511L164.719 435.329L146.835 283.905L182.132 236.843L245.196 185.31L290.14 166.955L305.906 161.543ZM528.394 223.548C523.079 229.182 516.879 233.912 510.04 237.549C461.683 227.195 444.152 202.252 444.152 202.252C485.273 201.024 525.95 211.031 561.809 231.195C550.89 227.769 539.717 225.212 528.394 223.548V223.548Z" fill="url(#paint2_linear_2_3422)"/>
<path fill-rule="evenodd" clip-rule="evenodd" d="M510.864 453.683C475.049 470.907 435.772 479.721 396.031 479.45C277.316 479.45 181.191 404.855 181.191 312.966C181.191 244.961 233.665 186.603 308.848 160.719C165.778 168.955 50.71 283.905 50.71 425.798C50.71 589.576 196.721 724.88 376.5 724.88C438.978 724.363 500.189 707.205 553.832 675.172C607.475 643.139 651.613 597.389 681.7 542.631C601.106 560.75 505.922 526.277 510.864 453.683Z" fill="url(#paint3_linear_2_3422)"/>
<defs>
<linearGradient id="paint0_linear_2_3422" x1="376.5" y1="263.432" x2="376.5" y2="762.883" gradientUnits="userSpaceOnUse">
<stop stop-color="#01E8F8"/>
<stop offset="1" stop-color="#01E8F8" stop-opacity="0"/>
</linearGradient>
<linearGradient id="paint1_linear_2_3422" x1="610.636" y1="284.376" x2="627.343" y2="484.039" gradientUnits="userSpaceOnUse">
<stop stop-color="#01E8F7"/>
<stop offset="1" stop-color="#00C2FF"/>
</linearGradient>
<linearGradient id="paint2_linear_2_3422" x1="281.787" y1="177.074" x2="475.684" y2="484.862" gradientUnits="userSpaceOnUse">
<stop stop-color="#01E8F7"/>
<stop offset="1" stop-color="#00B3EC"/>
</linearGradient>
<linearGradient id="paint3_linear_2_3422" x1="360.381" y1="320.496" x2="377.677" y2="817.241" gradientUnits="userSpaceOnUse">
<stop stop-color="#01E8F7"/>
<stop offset="1" stop-color="#00C2FF"/>
</linearGradient>
</defs>
</svg>
