<svg width="266" height="266" viewBox="0 0 266 266" fill="none" xmlns="http://www.w3.org/2000/svg">
<path d="M133 266C206.454 266 266 206.454 266 133C266 59.5461 206.454 0 133 0C59.5461 0 0 59.5461 0 133C0 206.454 59.5461 266 133 266Z" fill="#0E0E21"/>
<path d="M207.259 166.804L191.465 139.927C190.911 138.819 189.525 138.542 188.694 139.373L178.442 146.023C177.611 146.577 177.334 147.963 177.888 148.794L187.032 164.033C187.309 164.588 187.032 165.142 186.755 165.419L133.555 199.777C133.278 200.054 132.723 200.054 132.446 199.777L79.8005 165.419C79.2463 165.142 79.2463 164.588 79.5234 164.033L88.6672 148.794C89.2213 147.963 88.9442 146.577 88.113 146.023L77.8609 139.373C76.7526 138.819 75.6442 139.096 75.0901 139.927L59.2963 166.804C58.188 168.744 58.7422 171.238 60.6817 172.346L131.338 218.342C132.723 219.173 134.386 219.173 135.771 218.342L206.428 172.346C207.813 170.96 208.367 168.467 207.259 166.804Z" fill="white"/>
<path d="M85.6193 124.964L95.8714 131.614C96.9797 132.168 98.0881 131.891 98.6422 131.06L131.892 74.5351C132.169 73.9809 133.278 73.9809 133.555 74.5351L166.805 131.06C167.359 132.168 168.744 132.446 169.576 131.614L179.828 124.964C180.659 124.41 180.936 123.025 180.382 122.193L141.313 54.5851C140.482 53.1997 139.373 52.6455 137.711 52.6455H128.29C126.905 52.6455 125.519 53.4768 124.688 54.5851L85.0652 122.193C84.511 123.025 84.7881 124.41 85.6193 124.964Z" fill="#2AE7A8"/>
</svg>
