<svg width="300" height="300" viewBox="0 0 300 300" fill="none" xmlns="http://www.w3.org/2000/svg">
<path d="M150 300C232.842 300 299.999 232.843 299.999 150C299.999 67.1576 232.842 0.000488281 150 0.000488281C67.1571 0.000488281 0 67.1576 0 150C0 232.843 67.1571 300 150 300Z" fill="#5F2652"/>
<path d="M235.29 188.85L156.809 48.0899C154.771 44.3122 150.056 42.9031 146.278 44.9423C144.944 45.6622 143.849 46.7563 143.13 48.0899L64.6802 188.85C62.6407 192.48 63.81 197.19 67.47 199.35L146.04 246.329C148.57 247.769 151.67 247.769 154.2 246.329L232.65 199.44C236.129 197.19 237.42 192.48 235.29 188.85V188.85ZM175.98 132.12L174.06 130.5L173.94 130.38C173.33 129.881 172.688 129.42 172.019 129L171.899 128.88C171.27 128.46 170.61 128.01 169.86 127.59C169.74 127.59 169.74 127.47 169.65 127.47C169.019 127.05 168.27 126.72 167.61 126.39C167.49 126.39 167.49 126.27 167.4 126.27C166.77 125.94 166.019 125.64 165.27 125.31C165.15 125.31 165.15 125.19 165.06 125.19C164.43 124.98 163.77 124.65 163.139 124.44C161.405 123.79 159.619 123.288 157.8 122.94C156.42 125.61 154.47 127.98 152.34 129.99C155.67 130.2 158.88 131.07 161.76 132.24C163.463 132.973 165.108 133.836 166.679 134.82C166.764 134.829 166.84 134.872 166.89 134.94C167.31 135.15 167.64 135.48 168.06 135.81C168.26 135.921 168.443 136.063 168.6 136.23C168.988 136.483 169.351 136.774 169.681 137.1C169.89 137.31 170.1 137.43 170.31 137.64C170.64 137.97 170.94 138.18 171.27 138.51L171.901 139.14L172.771 140.01L173.4 140.64C173.627 140.949 173.878 141.239 174.15 141.51C174.36 141.75 174.571 142.05 174.781 142.26L175.41 143.22C175.62 143.55 175.83 143.76 175.95 144.09L176.58 145.05C176.791 145.38 176.91 145.68 177.121 145.92C177.331 146.25 177.451 146.55 177.661 146.88C177.871 147.21 177.991 147.51 178.201 147.84C178.321 148.17 178.531 148.47 178.621 148.8C178.83 149.22 178.951 149.67 179.16 149.97C180.061 152.162 180.677 154.461 180.991 156.81L181.951 160.56C182.37 162.18 186.24 175.86 195.21 180.48C205.501 185.82 219.09 192.48 224.431 195.03L153.931 237.21V208.32C153.931 203.73 163.021 198.36 167.191 196.56L167.4 196.44C168.27 196.02 169.111 195.57 169.981 195.06L170.311 194.85C172.137 193.768 173.855 192.512 175.441 191.1C175.561 190.98 175.771 190.89 175.861 190.68C176.071 190.56 176.191 190.35 176.401 190.26C176.94 189.84 177.36 189.3 177.901 188.88L178.111 188.67C178.666 188.151 179.167 187.578 179.61 186.96C179.731 186.75 179.94 186.63 180.03 186.42C180.451 186 180.781 185.46 181.201 184.92C181.321 184.8 181.411 184.59 181.531 184.5L182.821 182.58C182.821 182.46 182.941 182.46 182.941 182.37C183.481 181.5 184.02 180.54 184.56 179.7C182.431 177.12 180.81 174.36 179.521 171.78C178.975 173.366 178.292 174.902 177.48 176.37C177.15 177 176.731 177.66 176.401 178.29C176.281 178.41 176.281 178.5 176.191 178.5C175.86 179.02 175.499 179.521 175.111 180C174.991 180.12 174.901 180.33 174.781 180.42C174.448 180.925 174.055 181.389 173.61 181.8C173.49 181.92 173.49 182.01 173.401 182.01C170.82 184.89 167.731 187.35 164.191 189.06L163.561 189.39C161.73 190.14 146.011 197.31 146.011 208.11V237L75.3611 194.94C79.9506 192.15 93.2408 184.23 104.16 180.81C108.451 179.43 117.541 185.19 122.67 189.36L123 189.69C123.662 190.355 124.374 190.967 125.13 191.52L125.34 191.73C126.961 193.02 128.67 194.31 130.591 195.27L131.88 195.9C131.964 195.909 132.041 195.952 132.091 196.02C133.261 196.65 134.43 197.19 135.721 197.73C135.895 197.813 136.076 197.883 136.261 197.94C136.381 197.94 136.471 198.06 136.681 198.06C138.511 198.69 140.31 199.23 142.141 199.68C143.52 197.01 145.561 194.64 147.721 192.63C144.712 192.426 141.75 191.779 138.931 190.71C138.811 190.59 138.601 190.59 138.511 190.5C138.176 190.398 137.853 190.257 137.55 190.08C137.43 189.96 137.22 189.96 137.131 189.87C136.801 189.75 136.501 189.54 136.261 189.45C134.131 188.37 132.181 187.2 130.381 185.7L127.59 183.12C125.013 180.854 122.219 178.844 119.25 177.12C112.291 173.16 106.411 171.87 101.911 173.28C92.6104 176.28 81.9901 181.95 75.5712 185.7L146.1 58.9803V114.54C146.1 116.46 143.221 121.59 133.471 126L132.841 126.33C131.88 126.75 131.01 127.29 130.051 127.83L129.841 127.95C127.995 129.061 126.24 130.314 124.59 131.7C123.552 132.545 122.589 133.479 121.71 134.49L121.59 134.61C120.642 135.531 119.779 136.535 119.01 137.61L118.891 137.73C118.47 138.27 118.14 138.81 117.721 139.35C117.721 139.47 117.6 139.47 117.6 139.56C117.27 140.1 116.971 140.52 116.641 141.06C116.641 141.18 116.521 141.18 116.521 141.27L115.561 142.89C115.441 143.01 115.441 143.1 115.35 143.31C115.02 143.85 114.81 144.39 114.6 144.81C114.591 144.894 114.548 144.97 114.48 145.02C114.27 145.56 114.06 145.98 113.851 146.52C113.767 146.695 113.698 146.875 113.641 147.06L113.011 148.68C112.928 148.855 112.857 149.035 112.8 149.22C112.7 149.624 112.559 150.015 112.38 150.39C112.26 150.6 112.26 150.81 112.17 151.02C112.05 151.56 111.84 152.1 111.751 152.52C111.63 152.73 111.63 153.06 111.541 153.27C111.42 153.6 111.42 154.02 111.331 154.35C111.211 154.68 111.211 154.98 111.121 155.31C111.001 155.73 111.001 156.18 110.91 156.6C110.91 156.93 110.791 157.14 110.791 157.47C110.791 157.89 110.671 158.22 110.671 158.64C110.69 159.034 110.65 159.429 110.551 159.81V161.43C110.537 163.368 110.678 165.304 110.97 167.22C113.761 167.85 116.641 169.05 119.761 170.55C118.891 167.76 118.47 164.88 118.38 161.88V161.34C118.36 160.628 118.401 159.916 118.5 159.21V158.67C118.5 158.04 118.62 157.5 118.71 156.84V156.63C118.83 156 118.92 155.34 119.04 154.59C119.04 154.38 119.16 154.26 119.16 154.05C119.28 153.51 119.49 152.97 119.58 152.43C119.58 152.31 119.7 152.22 119.7 152.1L120.331 150.18C120.45 150.06 120.45 149.85 120.541 149.76C120.751 149.22 120.961 148.68 121.171 148.26C121.291 148.14 121.291 148.05 121.38 147.84C121.71 147.21 121.92 146.67 122.34 146.13C122.421 146.027 122.491 145.917 122.551 145.8C122.881 145.26 123.091 144.84 123.421 144.3C123.501 144.197 123.572 144.087 123.631 143.97C123.991 143.409 124.381 142.868 124.8 142.35C124.799 142.285 124.85 142.232 124.915 142.23H124.92C125.34 141.69 125.67 141.27 126.091 140.73C126.171 140.627 126.241 140.517 126.301 140.4C128.232 138.267 130.43 136.391 132.841 134.82L136.171 133.2C138 132.45 153.63 125.07 153.63 114.24V58.89L224.82 186.69C218.491 183.6 207.271 178.02 198.601 173.52C193.56 170.94 190.26 161.85 189.301 158.52L188.34 154.68C188.34 152.64 187.8 150.6 187.171 148.59C184.909 142.233 181.057 136.563 175.98 132.12" fill="white"/>
</svg>
