<svg width="879" height="879" viewBox="0 0 879 879" fill="none" xmlns="http://www.w3.org/2000/svg">
<path d="M439.5 879C682.229 879 879 682.229 879 439.5C879 196.771 682.229 0 439.5 0C196.771 0 0 196.771 0 439.5C0 682.229 196.771 879 439.5 879Z" fill="#000D2B"/>
<path d="M437.303 161.517L313.199 234.226L437.303 306.964L563.742 234.226L437.303 161.517ZM457.712 549.76V695.207L626.288 599.039V453.564L457.712 549.76V549.76ZM584.151 279.962V425.436L457.685 498.174V352.699L584.151 279.962ZM279.742 425.436L406.208 498.174V352.699L279.742 279.962V425.436ZM279.742 622.497L406.208 695.207V549.76L279.742 477.05V622.47V622.497Z" fill="white"/>
</svg>
