<svg width="238" height="238" viewBox="0 0 238 238" fill="none" xmlns="http://www.w3.org/2000/svg">
<path d="M119 238C184.722 238 238 184.722 238 119C238 53.2781 184.722 0 119 0C53.2781 0 0 53.2781 0 119C0 184.722 53.2781 238 119 238Z" fill="#4520E6"/>
<path fill-rule="evenodd" clip-rule="evenodd" d="M160.722 145.267C160.722 157.534 150.93 167.513 138.893 167.513H97.038L140.536 123.187C151.795 124.061 160.722 133.572 160.722 145.267ZM91.5003 120.417V69.1648H140.261C141.093 69.1648 141.916 69.2106 142.725 69.3011L91.5003 120.417ZM170.585 91.8051C170.585 81.4685 165.52 72.2991 157.749 66.6643L178.72 45.6167L166.175 45.6884L149.514 62.41C146.43 61.3703 143.13 60.8066 139.702 60.8066H82.3425V142.346L151.4 73.0362C157.62 76.9573 161.764 83.9048 161.764 91.8051C161.764 104.015 151.868 113.948 139.702 113.948H137.875L61.0425 191.061H73.5167L88.5801 175.943H139.702C156.731 175.943 170.585 162.038 170.585 144.947C170.585 133.675 164.541 123.819 155.554 118.393C164.55 112.969 170.585 103.082 170.585 91.8051Z" fill="white"/>
</svg>
