<svg width="248" height="248" viewBox="0 0 248 248" fill="none" xmlns="http://www.w3.org/2000/svg">
<circle cx="124" cy="124" r="124" fill="#2D5ED2"/>
<path d="M64.0452 71.4098L64.0481 71.4081L108.453 45.6896L108.455 45.6879L124 36.7312L139.545 45.6879L139.547 45.6896L183.952 71.4081L183.955 71.4098L199.5 80.3669V167.633L183.955 176.59L183.947 176.595L139.955 202.31L139.947 202.315L124.407 211.269L108.86 202.31L108.858 202.309L64.0452 176.59L64.0429 176.589L48.5 167.633V80.3669L64.0452 71.4098ZM78.0926 149.72V150.585L78.8408 151.018L123.248 176.738L124 177.174L124.752 176.738L169.159 151.018L169.907 150.585V149.72V98.2798V97.4152L169.159 96.9818L124.752 71.2616L124 70.8262L123.248 71.2616L78.8408 96.9818L78.0926 97.4152V98.2798V149.72Z" fill="white" stroke="#2D5ED2" stroke-width="3"/>
</svg>
