<svg width="786" height="798" viewBox="0 0 786 798" fill="none" xmlns="http://www.w3.org/2000/svg">
<path d="M438.705 430.062C454.412 422.344 467.64 410.377 476.885 395.519C486.13 380.661 491.022 363.508 491.005 346.009C491.005 294.374 449.252 252.527 397.791 252.527C346.329 252.527 304.556 294.37 304.556 346.005C304.536 363.509 309.431 380.668 318.684 395.528C327.937 410.388 341.177 422.352 356.896 430.058V545.513H438.701V430.062H438.705ZM397.795 698.25C233.278 698.25 99.4516 564.018 99.4516 399C99.4516 233.982 233.298 99.7739 397.795 99.7739C532.044 99.7739 645.837 189.15 683.172 311.707H785.996C746.322 133.334 587.58 0 397.795 0C178.101 0 0 178.636 0 399C0 619.364 178.101 798 397.795 798C587.58 798 746.322 664.666 786 486.289H683.176C645.813 608.874 532.044 698.25 397.795 698.25Z" fill="#3AB03E"/>
</svg>
