<svg width="230" height="230" viewBox="0 0 230 230" fill="none" xmlns="http://www.w3.org/2000/svg">
<path d="M115 230C178.515 230 230 178.515 230 115C230 51.4855 178.515 0 115 0C51.4855 0 0 51.4855 0 115C0 178.515 51.4855 230 115 230Z" fill="#00D395"/>
<path fill-rule="evenodd" clip-rule="evenodd" d="M66.4356 153.559C62.9971 151.455 60.8926 147.717 60.8926 143.692V121.221C60.8926 118.553 63.0661 116.391 65.7341 116.403C66.5851 116.403 67.4246 116.633 68.1606 117.058L118.864 146.625C121.831 148.35 123.66 151.524 123.66 154.962V178.238C123.671 181.435 121.084 184.034 117.887 184.034C116.817 184.034 115.759 183.735 114.851 183.183L66.4356 153.559ZM142.014 110.906C144.981 112.631 146.798 115.816 146.809 119.243V166.485C146.809 167.877 146.062 169.165 144.843 169.843L133.745 176.088C133.607 176.168 133.458 176.226 133.297 176.272V150.04C133.297 146.648 131.514 143.497 128.593 141.749L84.0651 115.115V85.5025C84.0651 82.8345 86.2386 80.6725 88.9066 80.684C89.7576 80.684 90.5971 80.914 91.3331 81.3395L142.014 110.906ZM164.209 76.015C167.187 77.74 169.016 80.9255 169.016 84.364V153.364C169.004 154.778 168.222 156.078 166.98 156.756L156.458 162.437V114.402C156.458 111.009 154.675 107.87 151.777 106.122L106.26 78.821V50.738C106.26 49.887 106.49 49.0475 106.904 48.3115C108.25 46.0115 111.205 45.2295 113.505 46.5635L164.209 76.015Z" fill="white"/>
</svg>
