<svg width="1198" height="1198" viewBox="0 0 1198 1198" fill="none" xmlns="http://www.w3.org/2000/svg">
<path d="M599 1198C929.819 1198 1198 929.819 1198 599C1198 268.181 929.819 0 599 0C268.181 0 0 268.181 0 599C0 929.819 268.181 1198 599 1198Z" fill="url(#paint0_linear_2_3356)"/>
<path fill-rule="evenodd" clip-rule="evenodd" d="M424.393 389.35V838.6H798.768L424.393 389.35Z" fill="url(#paint1_linear_2_3356)"/>
<path fill-rule="evenodd" clip-rule="evenodd" d="M50.0166 838.6H424.392V389.35L50.0166 838.6Z" fill="white"/>
<path fill-rule="evenodd" clip-rule="evenodd" d="M119.8 958.4C153.943 1003.62 194.375 1044.06 239.6 1078.2H958.4C1003.62 1044.06 1044.06 1003.62 1078.2 958.4H119.8Z" fill="#FC9965"/>
<path fill-rule="evenodd" clip-rule="evenodd" d="M239.6 1078.2C339.633 1153.37 464.225 1198 599 1198C733.775 1198 858.367 1153.37 958.4 1078.2H239.6Z" fill="#FF2D55"/>
<path fill-rule="evenodd" clip-rule="evenodd" d="M803.558 628.95V958.4H1078.2L803.558 628.95Z" fill="url(#paint2_linear_2_3356)"/>
<path fill-rule="evenodd" clip-rule="evenodd" d="M803.559 838.6H50.0166C68.5856 881.428 92.2461 921.561 119.8 958.4H803.858V838.6H803.559V838.6Z" fill="#FFBC5B"/>
<path fill-rule="evenodd" clip-rule="evenodd" d="M529.217 958.4H803.559V628.95L529.217 958.4Z" fill="white"/>
<path d="M803.558 539.1C886.262 539.1 953.308 472.054 953.308 389.35C953.308 306.645 886.262 239.6 803.558 239.6C720.853 239.6 653.808 306.645 653.808 389.35C653.808 472.054 720.853 539.1 803.558 539.1Z" fill="#FFC95B"/>
<path d="M424.393 299.5C465.745 299.5 499.268 265.977 499.268 224.625C499.268 183.273 465.745 149.75 424.393 149.75C383.04 149.75 349.518 183.273 349.518 224.625C349.518 265.977 383.04 299.5 424.393 299.5Z" fill="#FFC95B"/>
<defs>
<linearGradient id="paint0_linear_2_3356" x1="1022.55" y1="175.447" x2="175.447" y2="1022.55" gradientUnits="userSpaceOnUse">
<stop stop-color="#FF2D55"/>
<stop offset="1" stop-color="#FFBC5B"/>
</linearGradient>
<linearGradient id="paint1_linear_2_3356" x1="611.453" y1="389.35" x2="611.453" y2="838.6" gradientUnits="userSpaceOnUse">
<stop stop-color="#A524B3"/>
<stop offset="1" stop-color="#FF2D55"/>
</linearGradient>
<linearGradient id="paint2_linear_2_3356" x1="940.785" y1="628.95" x2="940.785" y2="958.4" gradientUnits="userSpaceOnUse">
<stop stop-color="#A524B3"/>
<stop offset="1" stop-color="#FF2D55"/>
</linearGradient>
</defs>
</svg>
