<svg width="909" height="942" viewBox="0 0 909 942" fill="none" xmlns="http://www.w3.org/2000/svg">
<path d="M902.47 382.871C896.053 351.967 884.717 322.293 868.896 294.982C836.308 240.669 765.209 161.668 676.334 99.4548C676.334 99.4548 609.185 56.0042 577.585 41.1916C462.048 -12.1341 332.687 -22.9967 222.088 74.767C36.4389 239.681 -56.3855 469.772 36.4389 698.874C38.4139 703.812 89.7635 844.039 397.861 937.852C533.148 941.802 612.147 933.902 699.047 883.539C812.608 818.363 878.771 699.862 902.47 579.385C909.383 542.848 910.37 419.409 902.47 382.871" fill="#04FFCC"/>
<path d="M543.122 57.9791V278.194L288.349 262.394L183.674 394.721L170.837 644.561L257.736 737.387L388.085 802.563L558.922 821.326L744.571 773.925V314.732L709.021 124.142C709.021 124.142 609.284 46.1289 544.109 27.3662" fill="#7DF8FB"/>
<path d="M841.246 604.073C805.696 602.098 825.446 545.81 809.646 481.622C790.884 410.521 818.533 361.145 855.071 363.12C872.222 365.821 888.476 372.594 902.47 382.871C896.053 351.967 884.717 322.293 868.896 294.982C836.308 240.669 765.209 161.668 676.334 99.4548V694.924C676.348 708.599 671.701 721.871 663.16 732.55C654.619 743.229 642.693 750.678 629.349 753.669C616.006 756.66 602.041 755.014 589.759 749.002C577.476 742.99 567.61 732.972 561.785 720.6C526.543 742.443 486.137 754.543 444.691 755.668C403.244 756.792 362.242 746.899 325.868 726.999C289.494 707.098 259.051 677.903 237.646 642.393C216.242 606.883 204.642 566.329 204.031 524.871C203.419 483.413 213.819 442.536 234.167 406.41C254.516 370.284 284.085 340.204 319.857 319.241C355.628 298.277 396.321 287.179 437.783 287.081C479.245 286.983 519.99 297.888 555.86 318.682V87.6046C555.69 78.7218 557.559 69.9183 561.326 61.8717C565.092 53.8252 570.655 46.7502 577.585 41.1916C462.048 -12.1341 332.687 -22.9967 222.088 74.767C36.4389 239.681 -56.3855 469.772 36.4389 698.874C38.4139 703.812 40.3889 708.75 42.3638 712.7C45.0382 707.133 48.7212 702.111 53.2263 697.887C101.613 648.511 154.938 749.238 268.5 807.501C340.587 844.039 382.062 892.427 397.861 937.852C503.523 950.69 612.147 933.902 699.047 883.539C812.609 818.363 878.771 699.862 902.47 579.385C885.431 594.286 863.855 602.986 841.246 604.073V604.073ZM454.247 135.993C480.91 135.005 505.597 166.606 506.584 181.418C507.572 196.231 483.872 190.306 458.197 199.193C429.56 209.069 408.823 200.181 407.835 185.368C406.848 170.556 426.499 136.98 454.247 135.993Z" fill="#2C398F"/>
<path d="M395.887 608.023C453.161 640.611 522.286 627.773 535.123 554.697C542.036 512.234 538.086 446.071 500.561 425.333C376.137 354.232 271.463 536.922 395.887 608.023Z" fill="#2C398F"/>
</svg>
