<svg width="748" height="748" viewBox="0 0 748 748" fill="none" xmlns="http://www.w3.org/2000/svg">
<circle cx="374" cy="374" r="374" fill="white"/>
<path d="M208.041 326.485C212.982 337.01 225.226 357.846 225.226 357.846L365.923 125.213L228.448 221.016C220.285 226.386 213.626 233.904 208.901 242.496C196.227 268.917 196.012 299.634 208.041 326.485Z" fill="url(#paint0_linear_2_3462)"/>
<path d="M152.193 402.958C155.415 448.067 177.755 489.524 213.627 516.805L365.494 622.703C365.494 622.703 270.55 485.658 190.213 349.472C182.051 335.08 176.681 319.399 174.103 303.074C173.029 295.771 173.029 288.253 174.103 280.734C171.955 284.601 167.874 292.549 167.874 292.549C159.711 309.089 154.126 326.917 151.549 345.176C150.26 364.293 150.26 383.841 152.193 402.958Z" fill="#A0A8D4"/>
<path d="M539.7 421.432C534.759 410.906 522.515 390.07 522.515 390.07L381.818 622.704L519.079 526.901C527.241 521.531 533.9 514.013 538.626 505.42C551.514 478.785 551.729 448.068 539.7 421.432Z" fill="url(#paint1_linear_2_3462)"/>
<path d="M595.549 344.745C592.327 299.636 569.987 258.179 534.115 230.899L382.248 125C382.248 125 477.192 262.045 557.529 398.231C565.691 412.623 571.061 428.304 573.639 444.629C574.713 451.933 574.713 459.451 573.639 466.969C575.787 463.102 579.868 455.155 579.868 455.155C588.031 438.615 593.616 420.786 596.193 402.528C597.482 383.41 597.482 364.078 595.549 344.745Z" fill="#A0A8D4"/>
<path d="M208.901 242.496C213.627 233.904 220.286 226.386 228.449 221.016L365.709 125.213L225.012 357.846C225.012 357.846 212.768 337.01 207.827 326.485C195.798 299.634 196.228 268.917 208.901 242.496ZM152.193 402.955C155.415 448.064 177.755 489.522 213.627 516.802L365.494 622.7C365.494 622.7 270.55 485.655 190.213 349.469C182.051 335.077 176.681 319.396 174.103 303.071C173.029 295.768 173.029 288.25 174.103 280.731C171.955 284.598 167.874 292.546 167.874 292.546C159.711 309.086 154.126 326.914 151.549 345.173C150.26 364.29 150.26 383.838 152.193 402.955ZM539.486 421.428C534.545 410.903 522.301 390.067 522.301 390.067L381.819 622.7L519.079 526.898C527.242 521.527 533.901 514.009 538.627 505.417C551.3 478.996 551.73 448.279 539.486 421.428V421.428ZM595.335 344.958C592.113 299.849 569.773 258.392 533.901 231.112L382.249 125.213C382.249 125.213 477.192 262.258 557.529 398.444C565.692 412.836 571.062 428.517 573.64 444.842C574.714 452.146 574.714 459.664 573.64 467.182C575.788 463.315 579.869 455.368 579.869 455.368C588.032 438.828 593.617 420.999 596.194 402.74C597.698 383.408 597.698 364.076 595.765 344.743L595.335 344.958Z" fill="url(#paint2_linear_2_3462)"/>
<defs>
<linearGradient id="paint0_linear_2_3462" x1="371.912" y1="130.759" x2="191.301" y2="326.553" gradientUnits="userSpaceOnUse">
<stop offset="0.58" stop-color="#A0A8D4"/>
<stop offset="0.73" stop-color="#8791C7"/>
<stop offset="0.91" stop-color="#6470B4"/>
</linearGradient>
<linearGradient id="paint1_linear_2_3462" x1="375.801" y1="617.038" x2="556.438" y2="421.281" gradientUnits="userSpaceOnUse">
<stop offset="0.58" stop-color="#A0A8D4"/>
<stop offset="0.73" stop-color="#8791C7"/>
<stop offset="0.91" stop-color="#6470B4"/>
</linearGradient>
<linearGradient id="paint2_linear_2_3462" x1="373.846" y1="122.642" x2="373.846" y2="624.242" gradientUnits="userSpaceOnUse">
<stop stop-color="#513EFF"/>
<stop offset="0.18" stop-color="#5157FF"/>
<stop offset="0.57" stop-color="#5298FF"/>
<stop offset="1" stop-color="#52E5FF"/>
</linearGradient>
</defs>
</svg>
