<svg width="1129" height="1129" viewBox="0 0 1129 1129" fill="none" xmlns="http://www.w3.org/2000/svg">
<circle cx="564.5" cy="564.5" r="564.5" fill="#00193C"/>
<path fill-rule="evenodd" clip-rule="evenodd" d="M222.447 205.718C420.587 17.1359 734.368 24.5403 923.239 222.378C935.521 235.335 947.34 248.756 958 262.871L564.5 656L171 262.871C181.892 248.756 193.479 235.335 205.761 222.378C211.092 216.824 216.653 211.271 222.447 205.718ZM869.474 259.863C788.364 178.414 680.372 133.756 564.5 133.756C448.628 133.756 340.636 178.414 259.526 259.863L564.5 564.37L869.474 259.863ZM988.452 308L908.57 387.852C972.939 464.927 962.751 579.729 885.648 644.074C818.037 700.549 719.864 700.549 652.253 644.074L564.499 731.796L476.976 644.305C399.873 708.65 285.028 698.466 220.66 621.391C164.164 553.806 164.164 455.669 220.66 388.084L179.677 347.116L140.778 308C93.775 385.306 69 474.185 69 564.685C69 838.265 290.817 1060 564.499 1060C838.181 1060 1060 838.265 1060 564.685C1060.23 474.185 1035.22 385.306 988.452 308ZM439 606.201C416.595 623.528 388.877 633 360.466 633C332.056 633 304.569 623.528 281.933 606.432C225.805 562.999 215.41 482.14 258.835 426L439 606.201ZM870.201 426C887.528 448.405 897 476.123 897 504.534C897 532.944 887.528 560.662 870.201 583.067C826.768 639.195 746.14 649.59 690 606.165L870.201 426Z" fill="white"/>
</svg>
