<svg width="559" height="559" viewBox="0 0 559 559" fill="none" xmlns="http://www.w3.org/2000/svg">
<path d="M279.5 559C433.864 559 559 433.864 559 279.5C559 125.136 433.864 0 279.5 0C125.136 0 0 125.136 0 279.5C0 433.864 125.136 559 279.5 559Z" fill="#6747ED"/>
<path fill-rule="evenodd" clip-rule="evenodd" d="M275.421 315.604C234.078 315.604 200.888 282.413 200.888 241.071C200.888 199.728 234.078 166.537 275.421 166.537C316.764 166.537 349.954 199.728 349.954 241.071C349.954 282.413 316.764 315.604 275.421 315.604ZM275.421 129.271C337.144 129.271 387.221 179.348 387.221 241.071C387.221 302.793 337.144 352.871 275.421 352.871C213.698 352.871 163.621 302.793 163.621 241.071C163.621 179.348 213.698 129.271 275.421 129.271ZM381.981 358.693C389.55 366.263 389.55 377.909 381.981 384.897L307.447 459.43C299.877 467 288.232 467 281.244 459.43C273.674 451.86 273.674 440.214 281.244 433.227L355.777 358.693C362.765 351.124 374.993 351.124 381.981 358.693ZM425.07 147.904C425.07 158.385 416.918 166.537 406.437 166.537C395.956 166.537 387.803 158.385 387.803 147.904C387.803 137.423 395.956 129.271 406.437 129.271C416.336 129.271 425.07 137.423 425.07 147.904Z" fill="white"/>
</svg>
