<svg width="671" height="671" viewBox="0 0 671 671" fill="none" xmlns="http://www.w3.org/2000/svg">
<rect x="128" y="153" width="419" height="359" fill="#4ADBB3"/>
<path d="M335.5 0C150.717 0 0 150.717 0 335.5C0 520.283 150.717 671 335.5 671C520.283 671 671 520.283 671 335.5C671 150.717 520.283 0 335.5 0ZM475.894 260.142H455.248L391.245 334.468L455.248 408.794H475.894V468.668H340.662V408.794H361.308L318.983 361.308H301.434V410.858H325.177V470.732H194.074V410.858H222.978V336.532V261.174H194.074V201.3H227.108V224.011H244.657V201.3H276.658V224.011H294.208V201.3H326.209V260.142H302.466V309.692H320.015L362.34 260.142H341.694V201.3H477.958L475.894 260.142Z" fill="black"/>
</svg>
