<svg width="248" height="248" viewBox="0 0 248 248" fill="none" xmlns="http://www.w3.org/2000/svg">
<circle cx="124" cy="124" r="124" fill="#31CB9E"/>
<path d="M116.83 124.457L171.616 155.838C172.057 156.103 172.559 156.245 173.073 156.251C173.587 156.257 174.093 156.126 174.539 155.872C174.985 155.618 175.356 155.249 175.612 154.804C175.869 154.359 176.003 153.854 175.999 153.34V95.5295C176.006 95.015 175.874 94.5081 175.617 94.0621C175.361 93.616 174.989 93.2471 174.541 92.9939C174.093 92.7408 173.585 92.6127 173.07 92.6231C172.556 92.6336 172.054 92.7821 171.616 93.0532L116.83 124.457Z" fill="white"/>
<path d="M170.455 79.1591L133.003 51.6126C132.614 51.315 132.157 51.118 131.674 51.039C131.19 50.96 130.695 51.0014 130.231 51.1596C129.767 51.3178 129.35 51.5879 129.015 51.9459C128.681 52.3039 128.44 52.7389 128.313 53.2123L114.639 114.573L170.126 83.8926C170.548 83.6754 170.907 83.353 171.169 82.9566C171.43 82.5601 171.585 82.103 171.618 81.6294C171.651 81.1557 171.561 80.6816 171.357 80.2527C171.154 79.8238 170.843 79.4547 170.455 79.181" fill="white"/>
<path d="M132.959 197.279L170.455 169.732C170.843 169.455 171.154 169.083 171.359 168.652C171.563 168.221 171.654 167.745 171.624 167.269C171.593 166.793 171.441 166.333 171.183 165.932C170.925 165.53 170.569 165.202 170.148 164.977L114.639 134.296L128.313 195.657C128.427 196.134 128.657 196.575 128.983 196.941C129.309 197.306 129.721 197.586 130.181 197.753C130.642 197.92 131.137 197.97 131.622 197.899C132.107 197.828 132.566 197.637 132.959 197.344" fill="white"/>
<path d="M102.586 123.34L116.83 56.6978C116.939 56.1457 116.881 55.5737 116.662 55.0551C116.444 54.5364 116.076 54.0947 115.606 53.7864C115.135 53.478 114.583 53.3172 114.02 53.3245C113.458 53.3317 112.91 53.5067 112.447 53.827L75.9597 81.8118C75.0358 82.5206 74.288 83.4333 73.7749 84.4786C73.2617 85.524 72.9969 86.6737 73.0012 87.8383V158.841C72.9799 160.024 73.2364 161.196 73.7502 162.261C74.2641 163.327 75.0208 164.257 75.9597 164.977L112.272 192.852C112.735 193.173 113.282 193.348 113.845 193.355C114.408 193.362 114.96 193.201 115.43 192.893C115.901 192.585 116.269 192.143 116.487 191.624C116.705 191.106 116.764 190.534 116.655 189.982L102.586 123.34Z" fill="white"/>
</svg>
