<svg width="914" height="809" viewBox="0 0 914 809" fill="none" xmlns="http://www.w3.org/2000/svg">
<path d="M693.728 809L68.9861 370.656C47.6812 355.739 30.2875 335.908 18.2787 312.845C6.26999 289.781 0 264.165 0 238.165C0 212.165 6.26999 186.548 18.2787 163.484C30.2875 140.421 47.6812 120.591 68.9861 105.673L220.314 0L845.056 438.401C866.35 453.327 883.733 473.16 895.734 496.222C907.735 519.285 914 544.897 914 570.893C914 596.888 907.735 622.501 895.734 645.563C883.733 668.625 866.35 688.458 845.056 703.384L693.728 809ZM220.257 70.4869L102.303 152.969C88.5917 162.559 77.3962 175.313 69.6664 190.149C61.9366 204.985 57.9005 221.466 57.9005 238.193C57.9005 254.92 61.9366 271.401 69.6664 286.237C77.3962 301.073 88.5917 313.827 102.303 323.417L693.9 738.513L811.853 656.088C825.554 646.49 836.738 633.733 844.46 618.898C852.182 604.063 856.214 587.587 856.214 570.864C856.214 554.141 852.182 537.665 844.46 522.83C836.738 507.995 825.554 495.238 811.853 485.64L220.257 70.4869Z" fill="#4BC0C8"/>
<path d="M219.826 738.493L101.999 655.815C88.2937 646.214 77.1048 633.454 69.38 618.615C61.6552 603.775 57.622 587.294 57.622 570.567C57.622 553.839 61.6552 537.358 69.38 522.519C77.1048 507.679 88.2937 494.919 101.999 485.318L407 272.196L356.691 237L69.0124 438.008C47.6993 452.93 30.299 472.766 18.2857 495.836C6.27237 518.906 0 544.531 0 570.538C0 596.546 6.27237 622.17 18.2857 645.24C30.299 668.31 47.6993 688.146 69.0124 703.068L219.998 809L406.771 678.384L356.462 643.074L219.826 738.493Z" fill="#02819B"/>
<path d="M845.226 105.901L694.205 0L507.286 130.691L557.588 165.991L694.148 70.7146L812.015 153.367C825.719 162.965 836.906 175.722 844.63 190.557C852.354 205.392 856.386 221.868 856.386 238.59C856.386 255.313 852.354 271.789 844.63 286.624C836.906 301.459 825.719 314.215 812.015 323.813L507 536.7L557.302 572L844.997 370.88C866.307 355.963 883.705 336.133 895.717 313.07C907.729 290.007 914 264.39 914 238.39C914 212.391 907.729 186.774 895.717 163.711C883.705 140.648 866.307 120.818 844.997 105.901H845.226Z" fill="#02819B"/>
<path d="M342.465 246.077L104.919 412.285L138.036 459.617L375.582 293.408L342.465 246.077Z" fill="#02819B"/>
<path d="M781.649 345L666 425.812L699.067 473L819 389.167C806.436 374.692 794.043 359.874 781.649 345Z" fill="#02819B"/>
</svg>
