<svg width="512" height="512" viewBox="0 0 512 512" fill="none" xmlns="http://www.w3.org/2000/svg">
<circle cx="256" cy="256" r="256" fill="url(#paint0_linear_2_58)"/>
<path d="M185.116 225.108C154.468 202.026 127.841 182.195 125.946 181.04C119.824 177.308 111.588 179.281 107.875 185.369C106.097 188.285 106.007 191.901 106.004 260.682L106 332.932H128.984L129.5 212.73L219.5 280.599L220.033 332.932H244V303.333C244 278.43 243.749 273.206 242.42 270.405C241.22 267.876 227.443 256.986 185.116 225.108Z" fill="white"/>
<path d="M402 184.417C400.625 182.946 398.285 181.11 396.8 180.337C393.375 178.555 389.247 178.555 385.833 180.336C384.366 181.101 357.709 200.91 326.595 224.356C289.882 252.021 269.493 268.011 268.512 269.909C267.261 272.328 267 278.021 267 302.882V332.932H290L290.015 307.682C290.024 293.795 290.361 281.951 290.765 281.363C291.169 280.775 311.634 265.119 336.242 246.573L380.984 212.851L381.5 332.432L405.038 332.996L404.5 187.092L402 184.417Z" fill="white"/>
<defs>
<linearGradient id="paint0_linear_2_58" x1="256" y1="0" x2="256" y2="512" gradientUnits="userSpaceOnUse">
<stop stop-color="#50A89C"/>
<stop offset="1" stop-color="#6ACEBB"/>
</linearGradient>
</defs>
</svg>
