<svg width="512" height="512" viewBox="0 0 512 512" fill="none" xmlns="http://www.w3.org/2000/svg">
<circle cx="256" cy="256" r="256" fill="#1E65F3"/>
<path d="M339.911 153.115L313.302 165.72C313.191 165.775 313.026 165.885 312.971 165.995C312.861 166.105 312.806 166.215 312.751 166.381C312.696 166.546 312.696 166.656 312.696 166.821C312.696 166.986 312.751 167.096 312.806 167.261L353.243 252.414C368.283 284.119 364.261 308.118 341.398 319.017C322.887 327.769 306.966 321.659 294.515 300.302L246.586 199.407C227.194 158.509 200.75 147.666 169.348 162.583C148.964 172.27 137.12 189.554 137.34 211.516C137.34 211.792 137.285 212.012 137.12 212.232C136.954 212.452 136.734 212.562 136.459 212.617C136.183 212.672 135.963 212.672 135.687 212.562C135.467 212.452 135.247 212.287 135.136 212.012L124.669 189.994C124.614 189.884 124.504 189.719 124.394 189.664C124.284 189.554 124.173 189.499 124.008 189.444C123.898 189.334 123.788 189.334 123.622 189.334C123.457 189.334 123.347 189.389 123.182 189.444L96.6277 202.049C96.3522 202.159 96.1319 202.379 96.0768 202.709C95.9666 202.985 95.9666 203.315 96.1319 203.59L169.569 358.318C169.679 358.593 169.954 358.813 170.23 358.923C170.505 359.033 170.836 359.033 171.111 358.868L197.72 346.263C197.83 346.208 197.996 346.098 198.051 345.988C198.161 345.878 198.216 345.768 198.271 345.603C198.326 345.438 198.326 345.327 198.326 345.162C198.326 344.997 198.271 344.887 198.216 344.722L158.881 261.936C142.849 228.14 145.879 203.7 170.395 192.086C189.236 183.169 203.89 189.169 217.057 212.067C217.057 212.067 217.112 212.122 217.112 212.177L264.546 312.026C282.836 350.557 311.263 363.767 341.233 349.566C364.426 338.557 374.067 322.044 373.461 300.247C373.461 299.972 373.516 299.751 373.682 299.531C373.847 299.311 374.067 299.201 374.343 299.146C374.618 299.091 374.838 299.091 375.114 299.201C375.334 299.311 375.555 299.476 375.665 299.751L386.242 321.989C386.297 322.099 386.408 322.264 386.518 322.319C386.628 322.429 386.738 322.484 386.903 322.539C387.069 322.594 387.179 322.594 387.344 322.594C387.509 322.594 387.62 322.539 387.785 322.484L414.394 309.879C414.504 309.824 414.669 309.714 414.725 309.604C414.835 309.494 414.89 309.384 414.945 309.219C415 309.054 415 308.944 415 308.779C415 308.613 414.945 308.503 414.89 308.338L341.398 153.665C341.288 153.39 341.012 153.17 340.737 153.06C340.462 152.95 340.131 153.005 339.911 153.115Z" fill="white"/>
</svg>
