<svg width="361" height="411" viewBox="0 0 361 411" fill="none" xmlns="http://www.w3.org/2000/svg">
<path d="M360.139 274.3C360.15 228.158 360.15 182.016 360.139 135.875C360.326 131.157 357.957 126.462 354.171 123.681C299.186 83.506 244.201 43.3248 189.216 3.13743C187.553 1.8371 185.631 0.908021 183.579 0.412697C181.527 -0.0826273 179.392 -0.132704 177.319 0.265836C174.757 0.768365 172.448 2.05033 170.39 3.59279C115.797 43.4957 61.2013 83.3966 6.60263 123.295C4.56173 124.714 2.8965 126.608 1.75052 128.813C0.604544 131.018 0.0122155 133.47 0.0246137 135.955C-0.00820457 182.085 -0.00820457 228.213 0.0246137 274.339C-0.0471763 279.336 2.54547 284.185 6.6539 286.999C61.2471 326.881 115.829 366.773 170.401 406.673C175.623 411.14 183.815 411.493 189.206 407.139C244.015 367.118 298.804 327.078 353.572 287.02C357.697 284.24 360.365 279.305 360.135 274.302" fill="#050708"/>
<path d="M161.064 33.2914C162.512 31.6505 163.98 29.0927 166.526 29.4332C175.184 29.4844 183.862 29.2978 192.518 29.5255C194.017 30.4567 195.166 31.8535 196.448 33.0534C196.415 41.9882 196.415 50.925 196.448 59.8639C193.872 59.8947 191.287 60.0095 188.711 59.8331C188.555 59.2014 188.245 57.9604 188.096 57.3307C188.096 50.6584 188.674 43.9778 188.116 37.3157C181.754 37.3253 175.395 37.3253 169.041 37.3157C169.01 39.5597 169 41.8159 168.979 44.0599C166.3 44.0599 163.611 44.0599 160.922 44.0393C160.941 40.4683 160.547 36.8378 161.064 33.2914Z" fill="white"/>
<path d="M139.478 44.1931C142.405 44.0803 145.332 44.0803 148.269 44.1521C148.31 56.5123 148.361 68.8622 148.238 81.2121C145.445 81.2737 142.653 81.2737 139.87 81.2532C138.94 68.9463 139.683 56.5431 139.478 44.1931Z" fill="white"/>
<path d="M213.934 57.4743C221.728 57.3717 229.51 57.4025 237.301 57.4537C237.342 60.3089 237.342 63.1539 237.301 66.007C229.506 66.0891 221.712 66.1198 213.918 65.9865C213.889 63.1518 213.889 60.2987 213.918 57.4743" fill="white"/>
<path d="M166.672 61.6831C169.816 61.6113 172.961 61.6216 176.107 61.6216C179.116 67.4756 182.892 72.9378 185.337 79.0707C182.451 79.206 179.555 79.206 176.669 79.2163C173.24 73.4259 169.929 67.5679 166.672 61.6831Z" fill="white"/>
<path d="M198.776 71.9757C201.496 71.9142 204.216 71.9244 206.948 71.9655C214.353 83.4519 221.55 95.0736 229.01 106.533C229.01 110.02 229.01 113.507 228.949 116.994C228.141 116.849 226.549 116.57 225.753 116.436C219.423 107.001 213.6 97.2294 207.342 87.7531C207.239 98.419 207.373 109.085 207.27 119.751C204.435 119.803 201.595 119.803 198.748 119.751C198.713 103.832 198.662 87.9028 198.776 71.9757Z" fill="white"/>
<path d="M232.579 78.4389C235.475 78.3773 238.382 78.3773 241.278 78.4594C241.298 81.1895 241.298 83.9318 241.278 86.664C238.382 86.7357 235.475 86.7357 232.589 86.6845C232.569 83.9414 232.569 81.1929 232.589 78.4389" fill="white"/>
<path d="M89.3947 81.138C91.6797 81.097 93.9667 81.1073 96.2517 81.1278C102.354 80.7176 108.446 80.8386 114.55 81.1893C114.57 83.8373 114.55 86.4956 114.529 89.1436C105.504 94.5628 96.8321 100.573 87.6779 105.758C84.9786 104.732 82.9192 102.572 80.7163 100.772C86.7056 97.1205 92.5699 93.2726 98.6207 89.7241C95.5584 89.5682 92.4878 89.5887 89.4255 89.558C89.3721 86.7438 89.3619 83.9372 89.3947 81.138Z" fill="white"/>
<path d="M161.593 84.2828C164.397 84.2008 167.209 84.2111 170.003 84.2828C170.075 87.097 170.075 89.8989 170.003 92.713C167.2 92.7951 164.396 92.7985 161.593 92.7233C161.528 89.9091 161.528 87.0956 161.593 84.2828Z" fill="white"/>
<path d="M120.445 92.5161C124.935 99.3218 129.29 106.222 133.839 112.987C138.38 106.14 142.766 99.1885 147.348 92.3726C147.348 96.8851 147.647 101.445 147.256 105.953C143.098 113.079 138.288 119.813 133.808 126.744C129.402 119.928 124.736 113.255 120.558 106.306C120.084 101.732 120.425 97.1086 120.445 92.5161Z" fill="white"/>
<path d="M244.742 93.6648C258.218 93.6033 271.696 93.6067 285.175 93.6751C285.175 96.4051 285.175 99.1475 285.162 101.88C271.694 101.911 258.221 101.915 244.742 101.89C244.73 99.1475 244.722 96.399 244.742 93.6648Z" fill="white"/>
<path d="M173.404 104.339C176.113 104.288 178.833 104.288 181.555 104.318C181.69 116.274 181.555 128.243 181.627 140.213C180.365 141.413 179.114 142.634 177.883 143.854C168.543 143.957 159.204 143.854 149.873 143.905C148.642 142.726 147.381 141.598 146.273 140.326C145.797 136.665 146.148 132.93 146.138 129.25C148.736 129.229 151.342 129.229 153.957 129.25C154.029 131.361 154.018 133.469 153.988 135.58C160.412 136.304 166.885 135.785 173.34 135.941C173.373 125.408 173.27 114.859 173.404 104.339Z" fill="white"/>
<path d="M303.7 139.682C303.616 130.657 303.616 121.627 303.7 112.593C306.525 112.531 309.347 112.521 312.182 112.593C312.273 121.618 312.273 130.651 312.182 139.692C309.355 139.739 306.533 139.729 303.709 139.692" fill="white"/>
<path d="M263.455 119.411C268.788 119.359 274.149 118.531 279.454 119.39C282.928 130.716 285.908 142.217 289.363 153.564C286.633 153.585 283.89 153.585 281.158 153.585C278.551 144.783 276.328 135.877 273.639 127.094C272.139 127.115 270.64 127.135 269.138 127.145C266.905 136.01 264.216 144.74 261.908 153.572C259.155 153.582 256.404 153.578 253.654 153.562C257.041 142.217 260.218 130.794 263.455 119.411Z" fill="white"/>
<path d="M35.4542 123.734C47.7426 123.663 60.0413 123.632 72.3276 123.734C72.3994 126.559 72.3994 129.371 72.3379 132.195C60.031 132.308 47.7406 132.277 35.4419 132.206C35.4029 129.381 35.4029 126.54 35.4542 123.724" fill="white"/>
<path d="M78.1218 123.745C80.9154 123.724 83.707 123.714 86.511 123.745C86.5725 126.579 86.5725 129.422 86.511 132.257C83.707 132.288 80.9154 132.277 78.1218 132.257C78.089 129.422 78.089 126.598 78.1218 123.765" fill="white"/>
<path d="M109.006 124.093C111.746 124.073 114.499 124.083 117.239 124.114C117.321 130.677 117.28 137.259 117.28 143.829C114.497 143.85 111.715 143.86 108.944 143.829C108.916 137.266 108.83 130.667 109.006 124.083" fill="white"/>
<path d="M323.808 129.99C326.962 129.929 330.127 129.939 333.282 129.929C336.406 135.721 340.202 141.21 342.528 147.398C339.657 147.501 336.767 147.511 333.891 147.523C330.49 141.7 327.252 135.781 323.806 129.99" fill="white"/>
<path d="M199.439 137.015C202.173 136.995 204.908 136.995 207.643 137.015C207.705 146.014 207.662 155.012 207.662 164.013C204.911 164.033 202.169 164.043 199.42 164.043C199.42 155.037 199.406 146.018 199.439 137.005" fill="white"/>
<path d="M228.292 147.958C228.259 145.144 228.259 142.324 228.292 139.497C231.053 139.456 233.83 139.456 236.597 139.528C236.597 142.342 236.618 145.155 236.577 147.969C233.82 147.979 231.039 147.969 228.282 147.969" fill="white"/>
<path d="M72.1836 160.431C78.8129 155.591 85.8893 151.382 92.695 146.81C97.1952 146.861 101.683 146.81 106.183 146.871C99.5007 151.65 92.3955 155.777 85.6719 160.493C92.5822 164.837 99.3571 169.389 106.224 173.774C101.601 173.856 96.9778 173.805 92.3545 173.815C85.6822 169.286 78.7513 165.112 72.1836 160.431Z" fill="white"/>
<path d="M303.711 152.582C306.543 152.52 309.378 152.51 312.223 152.582C312.293 155.416 312.284 158.239 312.202 161.074C309.378 161.135 306.545 161.125 303.721 161.074C303.659 158.248 303.659 155.425 303.721 152.602" fill="white"/>
<path d="M12.7293 153.74C26.8822 153.658 41.0597 153.628 55.231 153.761C55.2618 156.44 55.2618 159.129 55.272 161.818C48.9422 165.965 42.6124 170.133 36.1062 173.981C33.3556 172.978 31.2757 170.699 28.9272 169.028C32.4326 166.814 35.9913 164.673 39.388 162.304C30.5024 162.263 21.619 162.355 12.7231 162.253C12.6821 159.418 12.6821 156.581 12.7231 153.74" fill="white"/>
<path d="M133.913 161.953C146.171 162.004 158.426 161.892 170.674 162.004C170.972 164.792 170.934 167.605 170.561 170.383C158.344 170.435 146.14 170.394 133.936 170.404C133.914 167.577 133.906 164.761 133.913 161.953Z" fill="white"/>
<path d="M178.679 162.004C181.627 161.943 184.564 161.943 187.513 162.045C187.523 164.797 187.519 167.541 187.501 170.279C184.564 170.361 181.616 170.361 178.681 170.309C178.652 167.538 178.652 164.771 178.681 162.004" fill="white"/>
<path d="M217.23 173.858C216.846 170.951 219.827 169.462 221.357 167.467C224.957 167.467 228.554 167.446 232.156 167.518C232.238 170.227 232.238 172.937 232.195 175.659C229.923 175.7 227.633 175.7 225.361 175.731V195.032C235.941 195.104 246.522 194.991 257.104 195.093C257.135 197.834 257.135 200.576 257.063 203.298C245.148 203.38 233.221 203.308 221.306 203.339C219.786 201.353 216.869 199.852 217.24 196.968C217.187 189.268 217.187 181.565 217.24 173.858" fill="white"/>
<path d="M257.351 171.292C260.267 171.19 263.205 171.19 266.132 171.292C266.163 174.085 266.163 176.878 266.132 179.671C263.205 179.774 260.288 179.774 257.361 179.671C257.33 176.867 257.33 174.076 257.361 171.272" fill="white"/>
<path d="M285.228 171.292C297.557 171.126 309.876 171.241 322.206 171.23C322.226 174.075 322.226 176.931 322.193 179.773C309.874 179.773 297.557 179.876 285.236 179.722C285.195 176.908 285.195 174.098 285.236 171.292" fill="white"/>
<path d="M114.437 181.129C121.348 181.119 128.246 181.129 135.154 181.119C135.216 183.991 135.216 186.862 135.154 189.734C128.254 189.745 121.358 189.745 114.466 189.734C114.346 186.862 114.34 183.994 114.448 181.129" fill="white"/>
<path d="M159.999 181.129C170.839 181.119 181.68 181.129 192.518 181.109C196.456 180.493 200.4 184.583 199.902 188.472C199.879 196.435 199.875 204.406 199.89 212.387C198.503 213.886 197.108 215.365 195.712 216.854C192.122 216.854 188.545 216.854 184.955 216.813C184.925 214.078 184.922 211.347 184.945 208.621C187.189 208.59 189.437 208.569 191.679 208.539C191.679 202.27 191.679 195.992 191.699 189.723C181.169 188.782 170.558 189.568 159.997 189.289C159.971 186.554 159.971 183.834 159.997 181.129" fill="white"/>
<path d="M83.6025 183.652C88.8986 183.621 94.1844 183.591 99.4804 183.673C102.686 195.122 106.13 206.51 109.162 218.013C106.495 218.013 103.829 218.013 101.177 218.033C98.4569 209.199 96.3565 200.201 93.5526 191.41C92.043 191.502 90.5333 191.615 89.0216 191.73C87.0156 200.584 84.1502 209.209 81.9575 218.023C79.2172 218.023 76.4748 218.023 73.7529 217.992C77.0142 206.545 80.2612 195.081 83.5984 183.652" fill="white"/>
<path d="M314.645 193.996C323.875 193.904 333.117 193.809 342.335 194.027C344.663 195.463 347.289 197.793 346.782 200.853C346.782 207.417 346.741 213.999 346.782 220.569C346.7 223.723 346.844 226.878 346.751 230.032C346.897 232.609 346.193 235.142 346.341 237.728C343.714 237.728 341.086 237.728 338.459 237.698C338.489 225.844 338.459 213.98 338.479 202.127C332.032 201.95 325.592 202.086 319.147 202.034C319.135 204.237 319.135 206.44 319.096 208.653C316.384 208.694 313.673 208.708 310.963 208.694C310.912 205.064 310.924 201.423 310.932 197.793C312.181 196.541 313.412 195.278 314.643 193.996" fill="white"/>
<path d="M51.9819 194.327H60.5557C60.5762 203.335 60.5557 212.334 60.5557 221.334H51.9409C51.9819 212.336 51.9512 203.327 51.9717 194.327" fill="white"/>
<path d="M25.0791 201.858C27.8932 201.817 30.7054 201.899 33.5093 202.086C33.5407 204.754 33.5407 207.425 33.5093 210.102C30.6746 210.132 27.842 210.143 25.0073 210.102C24.9765 207.349 24.9868 204.609 25.0791 201.868" fill="white"/>
<path d="M125.825 251.227C125.751 235.298 125.748 219.367 125.815 203.435C128.609 203.394 131.4 203.394 134.194 203.456C140.757 214.038 147.526 224.505 154.229 235.013C157.126 238.746 155.388 243.753 155.854 248.097C154.882 248.097 153.909 248.117 152.947 248.138C146.917 238.559 140.618 229.146 134.846 219.422C133.802 229.994 134.659 240.657 134.319 251.27C131.478 251.299 128.648 251.299 125.825 251.227Z" fill="white"/>
<path d="M163.066 209.562C165.909 209.501 168.753 209.494 171.599 209.542C171.64 216.503 171.63 223.465 171.599 230.424C168.744 230.476 165.899 230.476 163.046 230.404C162.998 223.455 162.986 216.503 163.046 209.562" fill="white"/>
<path d="M214.634 218.872C217.417 218.852 220.208 218.842 223.002 218.872C223.054 221.707 223.054 224.541 223.002 227.374C220.208 227.385 217.419 227.385 214.634 227.374C214.601 224.551 214.601 221.72 214.634 218.883" fill="white"/>
<path d="M241.764 219.244C250.432 219.131 259.1 219.192 267.779 219.213C268.129 221.746 268.347 224.322 268.099 226.888C267.278 228.554 265.315 227.891 263.847 228.047C256.462 227.83 249.056 228.472 241.723 227.637C241.672 224.829 241.672 222.037 241.764 219.244Z" fill="white"/>
<path d="M276.736 220.444C279.529 220.403 282.352 220.216 285.145 220.649C285.414 230.433 285.258 240.25 285.207 250.046C282.383 250.098 279.563 250.098 276.746 250.046C276.652 240.183 276.652 230.319 276.746 220.454" fill="white"/>
<path d="M199.439 226.24C202.169 226.24 204.911 226.22 207.643 226.24C207.674 229.054 207.682 231.877 207.643 234.711C204.908 234.752 202.174 234.752 199.439 234.711C199.418 231.889 199.418 229.054 199.439 226.23" fill="white"/>
<path d="M67.9317 232.256C77.6746 231.202 87.5119 232.039 97.2958 231.729C99.817 231.697 102.338 231.811 104.846 232.07C104.887 234.915 104.877 237.77 104.846 240.613C92.5392 240.592 80.259 240.674 67.9727 240.572C67.8988 237.801 67.8988 235.034 67.9214 232.256" fill="white"/>
<path d="M12.7398 238.547C14.075 237.245 15.4185 235.93 16.7641 234.627C20.3228 234.607 23.8795 234.597 27.43 234.668C27.4711 237.357 27.4711 240.057 27.4505 242.746C25.2374 242.797 23.0344 242.807 20.8213 242.828C20.8725 249.242 20.7905 255.654 20.8725 262.068C31.3498 262.098 41.829 261.996 52.3063 262.119C52.3576 264.767 52.3576 267.405 52.337 270.053C49.7403 270.063 47.1333 270.073 44.5427 270.073C35.2449 269.981 25.9347 270.229 16.6472 269.96C15.0965 269.08 13.5335 267.632 12.83 265.989C12.5859 256.847 12.8013 247.693 12.75 238.547" fill="white"/>
<path d="M230.107 243.88C231.504 242.567 232.911 241.253 234.349 239.971C243.409 240.042 252.471 239.971 261.531 240.001C262.897 241.304 264.261 242.619 265.633 243.911C265.644 252.879 265.644 261.843 265.633 270.803C262.872 270.824 260.109 270.803 257.359 270.732C257.359 263.192 257.297 255.662 257.39 248.122C251.031 248.112 244.699 248.122 238.357 248.112C238.367 250.407 238.357 252.704 238.306 254.999C235.586 255.04 232.866 255.04 230.154 255.03C230.066 251.314 230.087 247.601 230.097 243.88" fill="white"/>
<path d="M288.278 259.708C298.328 253.161 308.479 246.786 318.614 240.387C321.034 242.001 323.414 243.697 325.773 245.394C318.479 250.043 311.19 254.68 303.907 259.306C314.612 259.419 325.319 259.306 336.034 259.368C336.055 262.213 336.055 265.068 336.034 267.911C320.123 267.963 304.214 267.963 288.308 267.911C288.267 265.169 288.267 262.428 288.288 259.706" fill="white"/>
<path d="M174.532 261.331C184.617 254.618 195.023 248.391 205.106 241.679C207.504 243.334 209.875 245.021 212.316 246.602C205.342 251.504 197.939 255.777 190.832 260.503C201.476 260.689 212.119 260.482 222.762 260.615C222.834 263.542 222.834 266.48 222.762 269.407C206.833 269.499 190.902 269.437 174.971 269.437C174.56 266.752 174.56 264.033 174.542 261.321" fill="white"/>
<path d="M69.8352 254.09C74.2615 260.859 78.7002 267.628 83.0753 274.415C87.7704 267.712 91.9711 260.673 96.6251 253.935C96.7174 258.496 96.6457 263.068 96.6867 267.63C92.0532 274.415 87.8114 281.469 83.0548 288.162C78.6489 281.438 74.3764 274.624 69.7839 268.024C69.7388 263.38 69.6916 258.726 69.8352 254.09Z" fill="white"/>
<path d="M118.351 271.458C118.248 268.561 118.238 265.665 118.402 262.779C121.186 262.748 123.987 262.759 126.771 262.984C126.832 265.807 126.832 268.63 126.771 271.456C123.973 271.478 121.169 271.488 118.361 271.456" fill="white"/>
<path d="M157.786 275.638C160.611 275.607 163.443 275.597 166.268 275.638C166.339 286.156 166.268 296.676 166.309 307.195C164.303 307.277 162.295 307.371 160.289 307.556C159.647 307.431 158.365 307.205 157.723 307.09C157.786 296.613 157.671 286.125 157.786 275.648" fill="white"/>
<path d="M216.215 282.236C221.548 282.134 226.867 282.206 232.195 282.175C235.464 293.624 238.736 305.074 242.012 316.525C239.262 316.525 236.509 316.525 233.769 316.464C231.43 307.714 228.897 299.015 226.518 290.275C225.029 290.182 223.54 290.119 222.05 290.047C219.589 298.879 217.135 307.709 214.687 316.538C211.936 316.538 209.194 316.538 206.454 316.497C209.803 305.098 213.134 293.7 216.215 282.243" fill="white"/>
<path d="M95.4559 301.205C105.603 294.689 115.729 288.131 126.018 281.832C128.387 283.498 130.777 285.114 133.123 286.818C125.759 291.401 118.539 296.221 111.102 300.678C121.881 300.883 132.668 300.647 143.457 300.803C143.508 303.638 143.518 306.47 143.436 309.305C127.456 309.356 111.475 309.43 95.4948 309.274C95.4149 306.583 95.4251 303.894 95.4559 301.205Z" fill="white"/>
<path d="M179.27 283.912C182.241 283.944 185.21 283.765 188.156 283.375C191.643 289.118 195.757 294.814 197.548 301.351C194.764 301.371 191.983 301.371 189.212 301.392C185.938 295.538 182.624 289.711 179.27 283.912Z" fill="white"/>
<path d="M296.739 287.417C299.645 287.325 302.562 287.325 305.477 287.387C305.489 290.168 305.489 292.954 305.477 295.745C302.562 295.817 299.653 295.817 296.747 295.694C296.696 292.931 296.696 290.18 296.747 287.417" fill="white"/>
<path d="M275.319 309.677C278.836 304.02 282.6 298.527 286.139 292.88C286.241 297.068 286.305 301.269 286.2 305.468C286.303 307.041 285.156 308.261 284.422 309.533C280.525 315.295 276.787 321.169 272.962 326.968C268.359 320.1 263.902 313.159 259.351 306.251C259.33 301.659 259.289 297.066 259.402 292.484C263.869 299.177 268.09 306.044 272.662 312.673C273.953 312.128 274.533 310.743 275.329 309.677" fill="white"/>
<path d="M58.8512 301.537C66.3092 301.289 73.7774 301.412 81.2456 301.466C81.2866 304.226 81.463 307.004 81.1102 309.76C73.7035 310.121 66.2681 309.947 58.8615 309.812C58.8307 307.051 58.8307 304.298 58.8512 301.537Z" fill="white"/>
<path d="M149.77 319.567C161.726 319.391 173.674 319.567 185.63 319.475C186.998 320.842 188.365 322.218 189.733 323.602C189.681 332.735 189.702 341.879 189.712 351.031C188.513 352.283 187.327 353.548 186.153 354.828C182.326 354.91 178.499 354.92 174.667 354.808C174.718 352.221 174.388 349.583 175.007 347.05C177.169 346.822 179.342 346.905 181.524 346.884C181.544 340.482 181.524 334.089 181.524 327.698C170.932 327.636 160.33 327.833 149.75 327.595C149.717 324.916 149.717 322.24 149.75 319.567" fill="white"/>
<path d="M92.3319 322.607C95.1242 322.566 97.9206 322.573 100.721 322.627C100.762 325.418 100.766 328.218 100.731 331.027C97.9172 331.068 95.114 331.071 92.3217 331.037C92.2834 328.223 92.2834 325.413 92.3217 322.607" fill="white"/>
<path d="M240.264 327.125C243.429 324.459 246.305 328.904 249.015 330.202C249.015 330.45 249.015 330.957 249.015 331.205C241.94 335.767 234.7 340.08 227.779 344.88L231.793 344.849C233.922 344.849 236.06 344.873 238.207 344.921C238.228 347.715 238.228 350.517 238.187 353.31C229.478 353.435 220.768 353.402 212.059 353.331C211.883 350.693 211.854 348.045 211.832 345.417C221.129 339.059 230.831 333.316 240.254 327.125" fill="white"/>
<path d="M108.044 334.883C119.35 334.842 130.666 334.78 141.97 334.914C141.99 337.695 141.99 340.481 141.97 343.272C130.654 343.438 119.348 343.364 108.034 343.313C107.982 340.501 107.993 337.687 108.034 334.883" fill="white"/>
<path d="M138.175 356.356C141.361 356.326 144.546 356.315 147.734 356.377C150.681 362.241 154.601 367.642 156.867 373.836C154.012 373.992 151.167 373.992 148.314 374.013C144.827 368.19 141.568 362.227 138.175 356.356Z" fill="white"/>
<path d="M194.639 365.273C197.422 365.252 200.204 365.293 202.975 365.478C203.026 368.261 203.006 371.053 202.655 373.826C199.996 373.837 197.345 373.837 194.7 373.826C194.598 370.955 194.598 368.118 194.637 365.273" fill="white"/>
<path d="M175.246 392.953C175.246 386.457 175.1 379.951 175.348 373.455C178.152 373.455 180.964 373.61 183.758 373.865C183.789 380.226 183.789 386.591 183.758 392.959C180.919 393.003 178.082 393.003 175.246 392.959" fill="white"/>
</svg>
