<svg width="300" height="300" viewBox="0 0 300 300" fill="none" xmlns="http://www.w3.org/2000/svg">
<circle cx="150" cy="150" r="150" fill="#5F45BA"/>
<path d="M99.8728 88.7278C97.1238 93.3553 91.1431 94.8805 86.5154 92.1316C81.8878 89.3827 80.3624 83.4024 83.1115 78.775C85.8605 74.1475 91.8412 72.6223 96.4688 75.3712C101.097 78.1201 102.622 84.1004 99.8728 88.7278Z" fill="white"/>
<path d="M66.5999 84.4021C64.6609 87.668 60.4297 88.7451 57.1636 86.8063C53.8975 84.8674 52.8203 80.645 54.7593 77.3704C56.6982 74.0959 60.9295 73.0274 64.1956 74.9662C67.4703 76.9137 68.5475 81.1361 66.5999 84.4021Z" fill="white"/>
<path d="M159.222 225.466C194.934 221.269 223.656 192.074 226 154.917C228.637 113.106 196.873 77.0775 155.06 74.4492C150.156 74.139 145.236 74.3113 140.367 74.949C130.319 75.7677 121.83 79.6023 121.83 79.6023C114.953 82.963 110.515 88.5814 110.515 96.0956C110.515 105.868 118.435 113.795 128.207 113.795C129.845 113.795 135.498 112.003 136.842 111.538C141.978 109.745 147.425 109.004 152.854 109.357C167.297 110.271 179.508 118.578 186.049 130.358C189.841 137.182 191.59 144.947 191.09 152.736C189.668 175.27 170.253 192.393 147.709 190.971C134.395 190.126 122.976 183 116.143 172.668V172.677V172.668C107.973 161.983 109.86 144.895 109.852 144.679C109.516 135.175 101.734 127.574 92.1511 127.574C83.9643 127.574 77.0961 133.132 75.0537 140.672C74.6573 142.155 74.4504 146.498 74.5108 147.075C72.8217 188.162 104.268 223.26 145.512 225.853C150.088 226.138 154.672 226.008 159.222 225.466Z" fill="white"/>
<path d="M89.7209 115.786C86.1532 121.792 78.3973 123.765 72.3995 120.198C66.4016 116.63 64.4195 108.875 67.9872 102.877C71.5549 96.8798 79.3108 94.8979 85.3087 98.4654C91.3066 102.033 93.28 109.788 89.7209 115.786Z" fill="white"/>
</svg>
