<svg width="748" height="748" viewBox="0 0 748 748" fill="none" xmlns="http://www.w3.org/2000/svg">
<circle cx="374" cy="374" r="374" fill="#8247E5"/>
<path d="M495.035 293.313C486.417 288.369 475.337 288.369 465.487 293.313L396.543 334.102L349.759 360.059L282.045 400.849C273.427 405.793 262.347 405.793 252.497 400.849L199.558 368.712C190.94 363.768 184.784 353.879 184.784 342.755V280.952C184.784 271.064 189.709 261.176 199.558 254.995L252.497 224.094C261.116 219.15 272.196 219.15 282.045 224.094L334.985 256.231C343.603 261.176 349.759 271.064 349.759 282.188V322.978L396.543 295.785V253.759C396.543 243.871 391.618 233.983 381.769 227.802L283.276 169.708C274.658 164.764 263.578 164.764 253.729 169.708L152.774 229.038C142.925 233.983 138 243.871 138 253.759V369.948C138 379.836 142.925 389.725 152.774 395.905L252.497 453.999C261.116 458.943 272.196 458.943 282.045 453.999L349.759 414.445L396.543 387.252L464.256 347.699C472.874 342.755 483.955 342.755 493.804 347.699L546.744 378.6C555.362 383.544 561.518 393.433 561.518 404.557V466.359C561.518 476.248 556.593 486.136 546.744 492.316L495.035 523.218C486.417 528.162 475.337 528.162 465.487 523.218L412.548 492.316C403.93 487.372 397.774 477.484 397.774 466.359V426.806L350.99 453.999V494.789C350.99 504.677 355.915 514.565 365.764 520.746L465.487 578.84C474.105 583.784 485.186 583.784 495.035 578.84L594.759 520.746C603.377 515.801 609.533 505.913 609.533 494.789V377.364C609.533 367.476 604.608 357.587 594.759 351.407L495.035 293.313Z" fill="white"/>
</svg>
