<svg width="576" height="576" viewBox="0 0 576 576" fill="none" xmlns="http://www.w3.org/2000/svg">
<path d="M288 576C447.058 576 576 447.058 576 288C576 128.942 447.058 0 288 0C128.942 0 0 128.942 0 288C0 447.058 128.942 576 288 576Z" fill="url(#paint0_linear_2_3322)"/>
<path d="M162 167.4L192.6 151.2L196.2 158.4L307.8 93.6L300.6 88.2L291.6 82.8L288 81L104.4 187.2V190.8L156.6 162L162 167.4ZM162 235.8L250.2 183.6L253.8 190.8L367.2 126L358.2 120.6L349.2 117L345.6 115.2L104.4 253.8V257.4L156.6 228.6L162 235.8ZM162 268.2L279 201.6L282.6 207L396 142.2L387 138.6L378 133.2L374.4 131.4L104.4 286.2V291.6L156.6 261L162 268.2ZM162 300.6L307.8 217.8L311.4 223.2L424.8 160.2L415.8 154.8L406.8 149.4L403.2 147.6L104.4 320.4V324L156.6 295.2L162 300.6ZM162 334.8L336.6 234L340.2 241.2L453.6 176.4L444.6 171L437.4 167.4L432 163.8L104.4 352.8V358.2L156.6 327.6L162 334.8ZM464.4 183.6L460.8 180L104.4 387V390.6L156.6 361.8L162 369L336.6 266.4L340.2 273.6L471.6 199.8V187.2L464.4 183.6ZM127.8 412.2L156.6 394.2L160.2 401.4L336.6 300.6L340.2 307.8L471.6 232.2V208.8L122.4 408.6L127.8 412.2ZM336.6 334.8L340.2 342L471.6 264.6V241.2L151.2 426.6L156.6 428.4L185.4 410.4L190.8 417.6L336.6 334.8ZM185.4 444.6L216 428.4L219.6 435.6L336.6 367.2L340.2 374.4L471.6 298.8V275.4L180 442.8L185.4 444.6ZM214.2 460.8L244.8 444.6L248.4 451.8L336.6 401.4L340.2 408.6L471.6 333V307.8L208.8 459L214.2 460.8ZM237.6 475.2L243 478.8L273.6 460.8L277.2 468L336.6 433.8L340.2 441L471.6 365.4V342L237.6 475.2ZM271.8 495L300.6 477L306 484.2L336.6 468L340.2 475.2L471.6 399.6V374.4L268.2 493.2L271.8 495ZM338.4 109.8L329.4 104.4L320.4 100.8L316.8 97.2L104.4 219.6V225L156.6 194.4L162 201.6L221.4 167.4L225 174.6L338.4 109.8Z" fill="white"/>
<defs>
<linearGradient id="paint0_linear_2_3322" x1="0" y1="288" x2="576" y2="288" gradientUnits="userSpaceOnUse">
<stop stop-color="#001C3A"/>
<stop offset="0.6" stop-color="#001E3D"/>
<stop offset="0.7" stop-color="#001F3F"/>
<stop offset="1" stop-color="#002042"/>
</linearGradient>
</defs>
</svg>
