<svg width="2230" height="2501" viewBox="0 0 2230 2501" fill="none" xmlns="http://www.w3.org/2000/svg">
<path d="M221.107 1700.12C207.586 1700.12 194.369 1704.13 183.127 1711.65C171.884 1719.16 163.122 1729.83 157.948 1742.33C152.774 1754.82 151.42 1768.56 154.058 1781.82C156.696 1795.09 163.206 1807.27 172.767 1816.83C182.328 1826.39 194.509 1832.9 207.77 1835.54C221.031 1838.17 234.776 1836.82 247.268 1831.65C259.76 1826.47 270.436 1817.71 277.948 1806.47C285.46 1795.23 289.469 1782.01 289.469 1768.49C289.469 1756.36 286.157 1745.34 280.644 1734.31C274.533 1723.94 265.832 1715.34 255.394 1709.35C244.957 1703.36 233.141 1700.19 221.107 1700.14V1700.12ZM1186.93 212.787C1186.93 199.267 1182.92 186.049 1175.41 174.807C1167.9 163.565 1157.22 154.803 1144.73 149.629C1132.24 144.454 1118.49 143.101 1105.23 145.738C1091.97 148.376 1079.79 154.887 1070.23 164.448C1060.67 174.008 1054.16 186.189 1051.52 199.45C1048.88 212.712 1050.24 226.457 1055.41 238.949C1060.58 251.44 1069.35 262.117 1080.59 269.629C1091.83 277.14 1105.05 281.15 1118.57 281.15C1136.67 281.048 1154 273.813 1166.8 261.015C1179.59 248.216 1186.83 230.887 1186.93 212.787V212.787ZM2020.52 805.962C2034.04 805.962 2047.26 801.953 2058.5 794.441C2069.74 786.929 2078.5 776.253 2083.68 763.761C2088.85 751.269 2090.21 737.524 2087.57 724.263C2084.93 711.002 2078.42 698.821 2068.86 689.26C2059.3 679.7 2047.12 673.189 2033.86 670.551C2020.59 667.913 2006.85 669.267 1994.36 674.441C1981.87 679.615 1971.19 688.378 1963.68 699.62C1956.17 710.862 1952.16 724.079 1952.16 737.6C1952.2 749.201 1955.24 760.594 1960.98 770.675C1966.85 781.335 1975.47 790.229 1985.94 796.434C1996.41 802.639 2008.35 805.929 2020.52 805.962V805.962ZM253.019 674.75C219.944 656 179.144 667.037 160.407 700.112C141.669 733.187 152.694 773.987 185.769 792.725C218.844 811.462 259.644 800.437 278.382 767.362C297.132 735.387 286.094 693.487 253.019 674.75ZM2048.02 1713.35C2038.09 1706.74 2025.97 1704.52 2013.84 1703.42C2004.79 1703.3 1995.8 1704.98 1987.4 1708.36C1979 1711.74 1971.35 1716.76 1964.91 1723.12C1958.46 1729.48 1953.34 1737.05 1949.85 1745.41C1946.36 1753.76 1944.56 1762.73 1944.56 1771.78C1944.56 1780.84 1946.36 1789.8 1949.85 1798.16C1953.34 1806.51 1958.46 1814.09 1964.91 1820.45C1971.35 1826.81 1979 1831.82 1987.4 1835.2C1995.8 1838.58 2004.79 1840.26 2013.84 1840.14C2038.09 1840.14 2060.09 1826.91 2073.38 1805.96C2092.13 1773.99 2081.09 1732.09 2048.02 1713.35V1713.35ZM1050.21 2283.35C1046.89 2314.22 1065.64 2343.99 1094.31 2355.01C1100.92 2357.21 1108.64 2359.42 1115.26 2359.42C1131.98 2359.4 1148.16 2353.55 1161.04 2342.89C1173.92 2332.22 1182.68 2317.41 1185.82 2300.99C1188.27 2283.23 1183.62 2265.23 1172.86 2250.89C1162.11 2236.55 1146.13 2227.04 1128.4 2224.42C1110.67 2221.81 1092.62 2226.3 1078.18 2236.92C1063.75 2247.54 1054.09 2263.43 1051.31 2281.14C1050.71 2281.73 1050.32 2282.5 1050.21 2283.34" fill="#2683FF"/>
<path d="M2115.28 1587.66C2107.16 1582.96 2098.68 1578.91 2089.92 1575.54V937.162C2099.84 933.85 2109.77 928.338 2119.69 923.938C2222.19 866.6 2259.69 736.5 2202.38 633.937C2145.07 531.375 2014.94 493.938 1912.38 551.25C1903.56 555.662 1895.84 561.175 1888.13 566.688L1325.83 241.437C1326.93 231.512 1328.03 222.688 1328.03 212.775C1328.02 94.8125 1232.14 0 1115.27 0C998.394 0 900.269 97.025 900.269 213.888C900.269 223.813 901.369 232.637 902.469 242.55L344.582 565.6C322.389 548.214 296.967 535.403 269.789 527.909C242.611 520.416 214.216 518.389 186.249 521.945C158.282 525.502 131.298 534.571 106.861 548.629C82.4234 562.686 61.0175 581.452 43.8829 603.84C26.7484 626.228 14.2256 651.793 7.03974 679.054C-0.146106 706.315 -1.8522 734.731 2.02025 762.656C5.8927 790.581 15.2668 817.46 29.5996 841.738C43.9324 866.015 62.9391 887.207 85.5191 904.088C93.2316 909.6 100.957 915.113 109.769 920.625C118.775 926.137 128.394 930.575 138.432 933.85V1571.13C29.2691 1615.23 -23.6684 1738.75 20.4316 1847.86C64.5316 1956.98 188.019 2009.94 297.182 1965.84C307.107 1962.53 315.932 1957.01 324.744 1952.61C333.569 1947.1 342.382 1941.59 351.207 1934.97L903.582 2253.61C884.832 2369.38 964.219 2478.52 1079.99 2497.27C1195.77 2516.02 1304.92 2436.64 1323.66 2320.86C1325.86 2308.74 1325.86 2297.71 1325.86 2285.57C1325.71 2275.25 1324.98 2264.94 1323.66 2254.7L1872.73 1938.27C1881.56 1944.89 1890.37 1951.5 1900.29 1957.02C2002.79 2014.36 2132.93 1977.97 2190.29 1875.44C2245.38 1772.89 2212.31 1647.2 2115.28 1587.66V1587.66ZM2153.87 1854.47C2108.67 1931.65 2008.33 1958.11 1931.16 1912.91C1869.42 1876.52 1838.54 1804.86 1855.08 1735.41L1597.08 1584.36C1557.27 1624.74 1506.41 1652.45 1450.89 1664.01C1395.38 1675.58 1337.68 1670.48 1285.06 1649.36C1246.47 1661.49 1163.81 1669.21 1163.81 1669.21V2123.46C1254.22 2151.03 1303.81 2246.95 1276.31 2337.35C1248.81 2427.75 1152.82 2477.35 1062.41 2449.85C1061.31 2449.85 1060.21 2448.75 1059.09 2448.75C1051.38 2446.55 1044.76 2443.24 1038.14 2439.92C953.244 2398.02 920.169 2294.39 962.069 2210.6C983.019 2168.7 1020.51 2137.84 1064.57 2123.5V1660.42C1032.19 1650.42 1000.51 1638.26 969.744 1624.04C920.483 1633.88 869.659 1632.76 820.879 1620.76C772.1 1608.75 726.56 1586.16 687.494 1554.58L379.882 1732.08C387.398 1763.57 385.407 1796.59 374.159 1826.96C362.911 1857.33 342.911 1883.68 316.689 1902.68C290.466 1921.68 259.199 1932.48 226.839 1933.72C194.479 1934.95 162.48 1926.56 134.888 1909.61C107.295 1892.66 85.3487 1867.9 71.8225 1838.48C58.2963 1809.06 53.7979 1776.28 58.896 1744.31C63.9941 1712.33 78.4599 1682.58 100.464 1658.82C122.469 1635.06 151.024 1618.36 182.519 1610.83C235.444 1597.6 291.669 1613.03 332.519 1650.51L620.282 1484.02C523.257 1347.31 538.694 1159.88 657.782 1040.8L330.282 853.363C265.282 915.1 162.694 911.8 100.957 845.65C86.2671 830.047 74.809 811.692 67.2418 791.642C59.6747 771.593 56.148 750.244 56.8649 728.826C57.5817 707.408 62.5279 686.344 71.4187 666.845C80.3094 647.346 92.9692 629.799 108.669 615.213C174.819 553.475 276.257 556.775 337.994 622.925C375.494 662.612 389.819 717.738 377.682 770.663L740.419 979.037C787.943 953.473 840.833 939.494 894.782 938.238C945.519 896.363 1075.52 853.363 1075.52 853.363V357.225C995.032 332.975 949.832 248.075 974.082 167.588C998.332 87.1 1083.29 43 1163.78 67.25C1244.27 91.5 1289.47 176.4 1265.22 256.887C1258.05 280.882 1245.03 302.716 1227.32 320.424C1209.61 338.131 1187.78 351.156 1163.78 358.325V844.575C1163.78 844.575 1401.93 904.112 1476.91 993.412L1862.79 774.013C1842.94 685.813 1896.97 597.6 1985.18 577.762C2073.39 557.925 2161.59 611.937 2181.43 700.15C2201.27 788.362 2147.26 876.562 2059.04 896.4C2032.79 902.314 2005.48 901.687 1979.53 894.572C1953.57 887.458 1929.76 874.075 1910.19 855.6L1528.72 1071.68C1539.74 1094.83 1549.67 1117.92 1556.28 1142.24C1674.26 1222.72 1716.16 1377.07 1653.31 1506.07L1905.81 1652.71C1931.25 1629 1963.67 1614.15 1998.25 1610.37C2032.82 1606.6 2067.68 1614.1 2097.64 1631.76C2173.72 1676.96 2200.14 1776.2 2153.89 1854.47H2153.87Z" fill="#2683FF"/>
<path d="M1442.73 1228.24C1441.63 1219.41 1440.53 1211.7 1439.42 1202.88C1438.34 1196.91 1436.87 1191.01 1435.01 1185.24C1435.01 1183.04 1433.91 1180.83 1433.91 1178.63C1431.71 1172.01 1429.49 1164.29 1427.29 1157.68V1156.58C1413.27 1119.59 1391.89 1085.83 1364.44 1057.35C1357.83 1050.74 1352.32 1045.23 1344.59 1038.6L1343.49 1037.5C1336.88 1031.99 1330.27 1026.48 1322.54 1022.06L1321.44 1020.96C1314.83 1016.55 1307.11 1011.04 1300.49 1007.74L1299.39 1006.64C1292.27 1002.53 1284.91 998.844 1277.34 995.613L1275.14 994.513C1267.43 991.201 1259.71 987.901 1250.89 984.588L1249.79 983.488C1240.97 981.288 1233.26 977.976 1224.43 976.876H1223.33C1214.61 974.87 1205.77 973.396 1196.87 972.463H1195.77C1148.81 965.792 1100.92 971.492 1056.84 989.001L1051.33 993.413C1044.72 995.613 1033.69 1001.13 1027.08 1004.44C1023.64 1006.71 1019.94 1008.56 1016.06 1009.95C1012.74 1011.05 1007.23 1015.46 1003.93 1017.66C1000.63 1019.86 992.907 1025.38 988.494 1028.69L985.182 1030.89C978.569 1035.3 973.057 1040.81 966.432 1046.33L960.919 1051.84C954.307 1058.45 948.794 1063.96 943.282 1070.59C930.167 1068.39 916.892 1067.28 903.594 1067.28C899.182 1067.28 895.882 1067.28 892.569 1068.38C841.857 1070.58 793.344 1091.53 755.857 1125.71C737.107 1142.25 721.682 1163.21 709.607 1185.25L708.432 1187.5C705.033 1193.9 702.084 1200.54 699.607 1207.35C698.507 1209.55 698.507 1210.66 697.407 1212.86C695.071 1218.57 693.226 1224.48 691.894 1230.5C690.794 1232.7 690.794 1236.01 689.694 1238.21C688.594 1243.73 687.494 1249.24 686.382 1255.85C686.382 1258.05 685.282 1260.26 685.282 1263.56C684.365 1271.98 683.998 1280.46 684.182 1288.93C683.998 1295.93 684.366 1302.93 685.282 1309.88C685.282 1312.08 686.382 1314.29 686.382 1317.59C687.482 1322 687.482 1326.41 688.582 1330.81C689.682 1335.21 689.682 1336.33 690.782 1339.64C692.036 1342.81 692.779 1346.16 692.982 1349.56C692.982 1352.88 695.182 1356.18 696.294 1359.49C697.196 1362.14 698.303 1364.72 699.607 1367.2C701.268 1370.8 702.74 1374.48 704.019 1378.23C705.119 1380.43 706.219 1381.54 706.219 1383.74C721.714 1420.05 747.867 1450.81 781.219 1471.94C797.757 1481.86 814.294 1490.69 831.932 1496.19C838.77 1498.54 845.772 1500.38 852.882 1501.7L855.082 1502.8L874.932 1506.11L879.344 1507.21C887.057 1508.31 894.782 1508.31 903.594 1508.31C933.369 1508.31 962.032 1502.8 988.494 1490.68C995.107 1495.09 1000.62 1499.5 1007.24 1503.9L1009.44 1505C1014.96 1508.31 1021.57 1511.61 1028.19 1514.93H1029.27C1092.29 1547.04 1165.01 1554.51 1233.24 1535.88H1234.34C1244.26 1533.73 1253.89 1530.4 1263.01 1525.95L1292.78 1512.73C1321.13 1534.84 1356.05 1546.87 1392.01 1546.9C1399.72 1546.9 1406.34 1545.8 1414.06 1545.8L1419.57 1544.7C1426.63 1543.65 1433.63 1542.18 1440.52 1540.29C1447.31 1538.2 1453.95 1535.62 1460.37 1532.58L1463.68 1531.48C1470.29 1528.16 1475.81 1524.86 1482.43 1521.55C1509.99 1503.91 1530.94 1477.45 1543.07 1447.68C1547.48 1437.75 1549.68 1427.83 1551.89 1417.91V1414.6C1552.99 1410.19 1552.99 1405.78 1554.09 1401.38C1554.09 1395.86 1555.19 1390.35 1555.19 1384.84C1555.19 1312.08 1509.99 1249.23 1442.69 1228.28" fill="#2683FF"/>
</svg>
