<svg width="870" height="870" viewBox="0 0 870 870" fill="none" xmlns="http://www.w3.org/2000/svg">
<path d="M434.953 869.906C675.171 869.906 869.906 675.171 869.906 434.953C869.906 194.735 675.171 0 434.953 0C194.735 0 0 194.735 0 434.953C0 675.171 194.735 869.906 434.953 869.906Z" fill="url(#paint0_linear_2_3350)"/>
<path d="M291.687 326.815C288.21 322.499 282.935 320.101 277.3 320.101H161.129C160.17 320.101 159.331 319.741 158.611 319.142C158.012 318.542 157.652 317.823 157.652 316.984V238.697C157.652 237.858 158.012 237.138 158.611 236.539C159.331 235.82 160.17 235.46 161.129 235.58H283.894C314.825 235.58 341.56 248.288 364.099 273.584L393.951 310.03L335.806 380.884L291.687 326.815ZM506.286 273.225C528.705 248.168 555.56 235.58 586.851 235.58H709.256C710.095 235.46 710.935 235.82 711.534 236.299C712.133 236.899 712.373 237.738 712.253 238.697V316.984C712.253 317.823 712.014 318.542 711.534 319.142C710.935 319.861 710.095 320.221 709.256 320.101H593.085C587.57 319.981 582.295 322.499 578.698 326.815L493.098 430.997L579.058 535.899C582.535 539.855 587.69 542.253 592.965 542.133H709.136C709.976 542.013 710.935 542.493 711.414 543.092C711.894 543.811 712.253 544.771 712.133 545.61V623.897C712.133 624.736 711.894 625.455 711.414 626.055C710.815 626.774 709.976 627.133 709.136 627.014H586.851C555.56 627.014 528.945 614.305 506.646 589.009L435.432 502.09L364.219 589.009C341.8 614.305 314.945 627.014 283.654 627.014H161.129C160.29 627.133 159.331 626.654 158.851 626.055C158.252 625.335 158.012 624.376 158.132 623.537V545.25C158.132 544.411 158.372 543.692 158.851 543.092C159.451 542.373 160.29 542.013 161.129 542.133H277.3C282.815 542.133 288.09 539.615 291.687 535.419L375.728 432.795L506.286 273.225Z" fill="#00D1FF"/>
<defs>
<linearGradient id="paint0_linear_2_3350" x1="435.013" y1="-0.00251764" x2="435.013" y2="230.182" gradientUnits="userSpaceOnUse">
<stop stop-color="#090220"/>
<stop offset="1" stop-color="#170659"/>
</linearGradient>
</defs>
</svg>
