<svg width="586" height="586" viewBox="0 0 586 586" fill="none" xmlns="http://www.w3.org/2000/svg">
<circle cx="293" cy="293" r="293" fill="white"/>
<path fill-rule="evenodd" clip-rule="evenodd" d="M487.2 292.7C487.2 400.1 400.1 487.2 292.7 487.2C185.3 487.2 98.2 400.1 98.2 292.7C98.2 185.3 185.3 98.2 292.7 98.2C400.2 98.3 487.2 185.3 487.2 292.7ZM541.5 292.7C541.5 430.1 430.1 541.5 292.7 541.5C155.4 541.5 44 430.1 44 292.7C44 155.4 155.4 44 292.7 44C430.1 44 541.5 155.4 541.5 292.7ZM292.7 236C307.2 236 318.8 224.2 318.8 209.9C318.8 195.4 307 183.8 292.7 183.8C278.2 183.8 266.6 195.6 266.6 209.9C266.6 224.4 278.2 236 292.7 236ZM377.7 276.7H207.7C206 276.7 204.6 278.1 204.6 279.8V308.4C204.6 310.1 206 311.5 207.7 311.5H272.2V398.8C272.2 400.5 273.6 401.9 275.3 401.9H310.5C312.2 401.9 313.6 400.5 313.6 398.8V311.5H378.1C379.8 311.5 381.2 310.1 381.2 308.4V279.8C380.8 278 379.5 276.7 377.7 276.7Z" fill="#080503"/>
</svg>
