<svg width="192" height="180" viewBox="0 0 192 180" fill="none" xmlns="http://www.w3.org/2000/svg">
<path d="M84.6485 146.201C89.7485 165.601 108.048 180.401 117.248 179.801C117.548 179.801 152.248 173.101 171.248 140.401C186.048 115.001 180.948 90.401 160.948 89.901C153.648 90.401 75.0485 109.201 84.6485 146.201ZM102.148 0.000961908C89.4485 0.000961908 76.9485 2.70096 65.4485 7.80096C63.4485 8.60096 61.5485 9.60097 59.7485 10.601C58.4485 11.301 57.2485 12.001 55.9485 12.701L56.2485 12.801C52.5485 15.301 49.3485 18.401 46.6485 21.901C20.6485 56.301 107.748 81.301 154.348 81.401C175.748 96.801 181.748 38.001 160.848 21.701C144.448 7.60096 123.648 -0.0990381 102.148 0.000961908Z" fill="#0E3CA5"/>
<path d="M69.4483 20.2009C57.6483 37.5009 18.4483 49.7009 12.0483 47.8009V47.7009L12.8483 46.1009C19.6483 33.5009 29.1483 22.5009 40.8483 14.2009C43.2483 12.5009 45.7483 10.8009 48.3483 9.30089C52.3483 7.10089 56.8483 6.00088 61.3483 5.90088C78.8483 6.20088 69.6483 19.9009 69.5483 20.1009" fill="#5493F7"/>
<path d="M59.5484 149.801C60.4484 155.501 59.5484 177.901 58.3484 179.801C57.3484 179.901 55.2484 180.001 49.1484 176.601C37.2484 169.901 26.9484 160.901 18.7484 149.901C12.7484 141.901 8.14843 133.001 4.94843 123.501C-1.95157 102.801 -1.65157 80.4009 5.94843 59.9009C12.9484 69.1009 21.0484 77.4009 27.9484 86.7009C34.6484 95.5009 43.6484 110.001 45.4484 113.101C56.8484 132.301 58.6484 144.101 59.5484 149.801Z" fill="#5493F7"/>
<path d="M191.748 94.201C191.748 106.101 189.548 117.901 185.148 129.001C174.048 141.001 99.0482 111.501 98.3482 111.201C88.0482 106.701 56.8482 93.001 54.0482 71.401C49.9482 40.401 112.648 18.801 140.248 18.001C143.548 18.001 153.648 18.201 159.448 22.901C180.048 40.901 191.748 66.901 191.748 94.201ZM126.148 170.901C130.648 155.001 169.848 138.801 178.448 137.901C179.548 137.801 179.948 138.501 179.548 139.401C170.648 155.701 157.248 169.101 141.048 178.101C132.848 182.001 123.848 179.101 126.148 170.901Z" fill="#5493F7"/>
</svg>
