<svg width="300" height="300" viewBox="0 0 300 300" fill="none" xmlns="http://www.w3.org/2000/svg">
<circle cx="150" cy="150" r="150" fill="#27A17C"/>
<path fill-rule="evenodd" clip-rule="evenodd" d="M168.515 161.771C167.481 161.848 162.138 162.166 150.22 162.166C140.74 162.166 134.01 161.883 131.648 161.771C95.0139 160.166 67.6695 153.813 67.6695 146.207C67.6695 138.601 95.0139 132.257 131.648 130.626V155.444C134.044 155.616 140.904 156.019 150.383 156.019C161.759 156.019 167.455 155.547 168.481 155.453V130.643C205.038 132.265 232.322 138.618 232.322 146.207C232.322 153.796 205.046 160.149 168.481 161.763L168.515 161.771ZM168.515 128.076V105.867H219.533V72H80.6308V105.867H131.64V128.067C90.1793 129.965 59 138.146 59 147.95C59 157.754 90.1793 165.926 131.64 167.832V239H168.507V167.806C209.872 165.909 241 157.736 241 147.941C241 138.146 209.898 129.973 168.507 128.067L168.515 128.076Z" fill="white"/>
</svg>
