<svg width="512" height="512" viewBox="0 0 512 512" fill="none" xmlns="http://www.w3.org/2000/svg">
<circle cx="256" cy="256" r="256" fill="#FF4A4A"/>
<path d="M314.008 307.8H296.437C293.183 307.8 290.417 305.196 290.417 301.78V255.574L259.667 274.772C257.064 276.399 253.81 276.399 251.207 274.772L220.62 255.574V301.78C220.62 305.034 218.017 307.8 214.601 307.8H197.192C193.938 307.8 191.172 305.196 191.172 301.78V212.622C191.172 208.23 194.752 204.65 199.144 204.65C200.771 204.65 202.236 205.138 203.537 206.115L252.021 239.467C253.973 240.932 256.739 240.932 258.691 239.467L307.175 206.115C310.754 203.674 315.797 204.65 318.238 208.23C319.214 209.531 319.539 211.158 319.702 212.622V301.78C319.865 305.034 317.262 307.8 314.008 307.8Z" fill="white"/>
<path d="M164.978 307.637H55.9721C51.5793 307.637 48 304.058 48 299.665V210.02C48.1627 206.603 50.7658 204 54.1824 204H71.7536C75.0075 204 77.7734 206.603 77.7734 210.02V278.189H143.828V210.02C143.828 206.766 146.431 204 149.848 204H166.931C170.185 204 172.95 206.603 172.95 210.02V299.665C172.95 304.058 169.371 307.637 164.978 307.637Z" fill="white"/>
<path d="M346.222 204H455.228C459.621 204 463.2 207.579 463.2 211.972V301.618C463.2 304.871 460.597 307.637 457.343 307.637H439.772C436.518 307.637 433.752 305.034 433.752 301.618V237.353C433.752 235.238 431.962 233.448 429.847 233.448H371.765C369.65 233.448 367.86 235.238 367.86 237.353V301.618C367.86 304.871 365.257 307.637 361.84 307.637H344.269C341.015 307.637 338.25 305.034 338.25 301.618V211.972C338.25 207.579 341.829 204 346.222 204Z" fill="white"/>
<path d="M391.94 252.321H409.348C412.602 252.321 415.368 254.924 415.368 258.341V276.074C415.368 279.328 412.765 282.094 409.348 282.094H391.94C388.686 282.094 385.92 279.491 385.92 276.074V258.178C385.92 254.924 388.686 252.321 391.94 252.321Z" fill="white"/>
</svg>
