<svg width="512" height="512" viewBox="0 0 512 512" fill="none" xmlns="http://www.w3.org/2000/svg">
<circle cx="256" cy="256" r="256" fill="url(#paint0_linear_2_78)"/>
<path fill-rule="evenodd" clip-rule="evenodd" d="M256 512C397.385 512 512 397.385 512 256C512 114.615 397.385 0 256 0C114.615 0 0 114.615 0 256C0 397.385 114.615 512 256 512ZM256 488C384.13 488 488 384.13 488 256C488 127.87 384.13 24 256 24C127.87 24 24 127.87 24 256C24 384.13 127.87 488 256 488Z" fill="url(#paint1_linear_2_78)" fill-opacity="0.8"/>
<path d="M217.965 157.791C214.402 157.282 214.233 157.112 215.929 156.943C219.152 156.434 226.616 157.112 231.874 158.3C244.088 161.183 255.114 168.647 266.819 181.709L269.872 185.271L274.282 184.593C293.112 181.539 312.45 183.914 328.565 191.378C332.975 193.414 339.93 197.485 340.778 198.503C341.118 198.842 341.627 201.047 341.966 203.252C343.153 211.225 342.644 217.162 340.1 221.742C338.743 224.287 338.743 224.965 339.591 227.17C340.269 228.867 342.305 230.054 344.171 230.054C348.242 230.054 352.483 223.608 354.519 214.618L355.367 211.055L356.893 212.752C365.545 222.421 372.33 235.822 373.348 245.321L373.687 247.866L372.16 245.66C369.616 241.759 367.241 239.214 364.018 237.009C358.25 233.108 352.144 231.92 336.029 231.072C321.44 230.224 313.128 229.036 304.986 226.322C291.076 221.742 283.952 215.805 267.497 193.923C260.203 184.253 255.623 178.995 251.043 174.584C241.035 164.915 231.026 159.826 217.965 157.791Z" fill="#FF007A"/>
<path d="M344.341 179.334C344.68 172.888 345.528 168.647 347.394 164.746C348.073 163.219 348.751 161.862 348.921 161.862C349.091 161.862 348.751 163.049 348.242 164.406C346.885 168.138 346.716 173.397 347.564 179.334C348.751 186.968 349.26 187.985 357.403 196.297C361.134 200.199 365.545 205.118 367.241 207.154L370.125 210.886L367.241 208.172C363.679 204.779 355.537 198.333 353.671 197.485C352.483 196.806 352.314 196.806 351.465 197.654C350.787 198.333 350.617 199.351 350.617 204.27C350.448 211.903 349.43 216.653 346.885 221.573C345.528 224.117 345.359 223.608 346.546 220.724C347.394 218.519 347.564 217.501 347.564 210.207C347.564 195.449 345.868 191.887 335.52 185.95C332.976 184.423 328.565 182.218 326.021 181.03C323.306 179.843 321.271 178.825 321.441 178.825C321.78 178.486 331.788 181.37 335.69 183.066C341.627 185.441 342.645 185.61 343.323 185.441C343.832 184.932 344.171 183.575 344.341 179.334Z" fill="#FF007A"/>
<path d="M224.92 204.609C217.795 194.77 213.215 179.504 214.233 168.138L214.572 164.576L216.269 164.915C219.322 165.424 224.581 167.46 227.125 168.986C233.91 173.058 236.964 178.655 239.847 192.565C240.696 196.636 241.883 201.386 242.392 202.913C243.24 205.457 246.463 211.394 249.177 215.126C251.043 217.84 249.856 219.198 245.615 218.858C239.169 218.18 230.518 212.243 224.92 204.609Z" fill="#FF007A"/>
<path d="M335.69 278.399C302.103 264.829 290.228 253.124 290.228 233.277C290.228 230.393 290.398 228.019 290.398 228.019C290.568 228.019 291.755 229.036 293.282 230.224C300.067 235.652 307.7 238.027 328.904 241.08C341.288 242.946 348.412 244.303 354.858 246.508C375.384 253.294 388.106 267.204 391.16 286.033C392.008 291.461 391.499 301.809 390.142 307.237C388.954 311.478 385.562 319.281 384.713 319.45C384.544 319.45 384.205 318.602 384.205 317.245C383.865 310.121 380.303 303.335 374.366 298.077C367.241 291.97 358.081 287.39 335.69 278.399Z" fill="#FF007A"/>
<path d="M311.941 283.997C311.602 281.453 310.754 278.23 310.245 276.873L309.397 274.328L310.924 276.194C313.129 278.739 314.825 281.792 316.352 286.033C317.539 289.256 317.539 290.274 317.539 295.532C317.539 300.621 317.37 301.809 316.352 304.692C314.655 309.272 312.62 312.496 309.227 316.058C303.12 322.334 295.148 325.727 283.782 327.254C281.747 327.423 275.979 327.932 270.89 328.271C258.168 328.95 249.686 330.307 242.053 333.021C241.035 333.36 240.017 333.7 239.848 333.53C239.508 333.191 244.767 330.137 249.008 328.102C254.945 325.218 261.052 323.691 274.453 321.316C281.068 320.299 287.854 318.942 289.55 318.263C306.344 313.004 314.655 299.943 311.941 283.997Z" fill="#FF007A"/>
<path d="M327.378 311.308C322.967 301.639 321.949 292.479 324.324 283.828C324.663 282.979 325.003 282.131 325.342 282.131C325.681 282.131 326.699 282.64 327.717 283.319C329.752 284.676 333.993 287.051 344.85 292.988C358.59 300.452 366.393 306.219 371.821 312.835C376.571 318.602 379.455 325.218 380.812 333.36C381.66 337.94 381.151 348.966 379.964 353.546C376.232 367.965 367.75 379.5 355.367 386.116C353.501 387.134 351.974 387.812 351.805 387.812C351.635 387.812 352.314 386.116 353.331 384.08C357.402 375.429 357.911 367.117 354.858 357.787C352.992 352.02 349.091 345.065 341.287 333.36C331.958 319.79 329.752 316.227 327.378 311.308Z" fill="#FF007A"/>
<path d="M201.001 363.215C213.554 352.698 228.991 345.234 243.24 342.86C249.346 341.842 259.524 342.181 265.122 343.708C274.113 346.083 282.255 351.172 286.496 357.448C290.567 363.555 292.433 368.813 294.299 380.518C294.978 385.098 295.826 389.848 295.995 390.866C297.352 396.972 300.067 401.722 303.459 404.267C308.718 408.168 317.878 408.338 326.868 404.945C328.395 404.436 329.752 403.927 329.752 404.097C330.091 404.436 325.511 407.49 322.458 409.016C318.217 411.221 314.825 411.9 310.244 411.9C302.102 411.9 295.147 407.659 289.549 399.178C288.362 397.481 285.987 392.562 283.951 387.982C278.014 374.242 274.961 370.17 268.006 365.59C261.899 361.689 254.096 360.841 248.159 363.724C240.356 367.456 238.32 377.465 243.749 383.571C245.954 386.116 250.025 388.151 253.418 388.66C259.694 389.509 265.122 384.589 265.122 378.313C265.122 374.242 263.596 371.867 259.524 370.001C254.096 367.626 248.159 370.34 248.329 375.599C248.329 377.804 249.346 379.161 251.552 380.179C252.909 380.857 252.909 380.857 251.891 380.688C246.972 379.67 245.784 373.563 249.686 369.662C254.435 364.912 264.444 366.947 267.836 373.563C269.193 376.277 269.363 381.705 268.176 385.098C265.292 392.562 257.15 396.463 248.838 394.258C243.24 392.732 240.865 391.205 234.08 384.25C222.205 372.036 217.625 369.662 200.662 367.117L197.439 366.608L201.001 363.215Z" fill="#FF007A"/>
<path fill-rule="evenodd" clip-rule="evenodd" d="M111.775 90.2771C151.299 138.283 212.197 212.921 215.251 216.992C217.795 220.385 216.777 223.608 212.537 225.983C210.162 227.34 205.242 228.697 202.868 228.697C200.153 228.697 196.93 227.34 194.725 225.135C193.199 223.608 186.583 213.939 171.655 190.699C160.29 172.888 150.621 158.13 150.451 157.96C149.773 157.621 149.773 157.621 170.468 194.601C183.53 217.841 187.77 226.153 187.77 227.17C187.77 229.376 187.092 230.563 184.378 233.616C179.798 238.705 177.762 244.473 176.235 256.517C174.539 269.918 169.959 279.417 156.897 295.532C149.264 305.032 148.076 306.728 146.21 310.629C143.836 315.379 143.157 318.093 142.818 324.2C142.478 330.646 143.157 334.717 145.023 340.824C146.719 346.252 148.585 349.815 153.165 356.769C157.067 362.876 159.442 367.456 159.442 369.153C159.442 370.51 159.781 370.51 165.888 369.153C180.476 365.76 192.52 359.992 199.136 352.868C203.207 348.457 204.225 346.083 204.225 339.976C204.225 336.074 204.055 335.226 203.037 332.851C201.341 329.119 198.118 326.066 191.163 321.316C182.003 315.04 178.101 309.951 177.083 303.166C176.235 297.398 177.253 293.497 182.342 282.81C187.601 271.784 188.958 267.204 189.806 256.008C190.315 248.883 191.163 246 193.199 243.794C195.404 241.419 197.27 240.571 202.528 239.893C211.18 238.705 216.777 236.5 221.188 232.259C225.089 228.697 226.786 225.135 226.955 219.876L227.125 215.975L224.92 213.6C216.947 204.44 106.516 82.9829 106.008 82.9829C105.838 82.9829 108.552 86.2059 111.775 90.2771ZM163.852 331.494C165.718 328.271 164.7 324.2 161.647 322.164C158.763 320.299 154.353 321.147 154.353 323.691C154.353 324.37 154.692 325.048 155.71 325.387C157.237 326.236 157.406 327.084 156.219 328.95C155.031 330.816 155.031 332.512 156.558 333.699C158.933 335.565 162.156 334.548 163.852 331.494Z" fill="#FF007A"/>
<path fill-rule="evenodd" clip-rule="evenodd" d="M232.553 242.268C228.482 243.455 224.58 247.865 223.393 252.276C222.714 254.99 223.054 259.909 224.241 261.436C226.107 263.811 227.803 264.489 232.553 264.489C241.883 264.489 249.856 260.418 250.704 255.499C251.552 251.428 247.99 245.83 243.07 243.285C240.526 241.928 235.267 241.419 232.553 242.268ZM243.41 250.749C244.767 248.714 244.258 246.508 241.713 244.982C237.133 242.098 230.178 244.473 230.178 248.883C230.178 251.088 233.741 253.463 237.133 253.463C239.338 253.463 242.392 252.106 243.41 250.749Z" fill="#FF007A"/>
<defs>
<linearGradient id="paint0_linear_2_78" x1="38.5" y1="115.5" x2="435" y2="430.5" gradientUnits="userSpaceOnUse">
<stop stop-color="#FCF7FA"/>
<stop offset="1" stop-color="#FEE5F0"/>
</linearGradient>
<linearGradient id="paint1_linear_2_78" x1="38.5" y1="115.5" x2="435" y2="430.5" gradientUnits="userSpaceOnUse">
<stop stop-color="#FBF3F7"/>
<stop offset="1" stop-color="#FCBEDB"/>
</linearGradient>
</defs>
</svg>
