<svg width="511" height="511" viewBox="0 0 511 511" fill="none" xmlns="http://www.w3.org/2000/svg">
<path d="M429.562 95.3792L414.408 110.533C450.567 150.076 470.62 201.719 470.62 255.302C470.62 308.885 450.567 360.528 414.408 400.07L429.562 415.224C469.775 371.606 492.101 314.452 492.101 255.125C492.101 195.798 469.775 138.644 429.562 95.0256V95.3792Z" fill="#5A5564"/>
<path d="M110.879 96.6926C150.422 60.5333 202.065 40.481 255.648 40.481C309.231 40.481 360.874 60.5333 400.416 96.6926L415.57 81.5388C371.952 41.3259 314.798 19 255.471 19C196.144 19 138.99 41.3259 95.3716 81.5388L110.879 96.6926Z" fill="#5A5564"/>
<path d="M96.6853 400.222C60.5688 360.688 40.543 309.076 40.543 255.529C40.543 201.981 60.5688 150.37 96.6853 110.836L81.5315 95.6823C41.3185 139.301 18.9927 196.455 18.9927 255.782C18.9927 315.108 41.3185 372.262 81.5315 415.881L96.6853 400.222Z" fill="#5A5564"/>
<path d="M400.215 414.214C360.672 450.373 309.029 470.425 255.446 470.425C201.863 470.425 150.22 450.373 110.677 414.214L95.5234 429.368C139.142 469.581 196.296 491.906 255.623 491.906C314.949 491.906 372.104 469.581 415.722 429.368L400.215 414.214Z" fill="#5A5564"/>
<path d="M351.167 204.941C348.137 173.32 320.86 162.712 286.36 159.48V115.938H259.689V158.671C252.668 158.671 245.495 158.671 238.373 158.671V115.938H211.905V159.783H157.806V188.322C157.806 188.322 177.506 187.969 177.202 188.322C180.754 187.931 184.32 188.935 187.146 191.121C189.973 193.307 191.841 196.505 192.356 200.041V320.059C192.28 321.306 191.955 322.525 191.4 323.644C190.845 324.763 190.07 325.76 189.123 326.575C188.194 327.405 187.106 328.039 185.926 328.438C184.745 328.838 183.496 328.994 182.254 328.898C182.607 329.202 162.857 328.898 162.857 328.898L157.806 360.772H211.399V405.324H238.07V361.428H259.386V405.122H286.107V361.075C331.164 358.347 362.583 347.234 366.523 305.057C369.705 271.112 353.744 255.958 328.235 249.846C343.742 242.219 353.339 228.076 351.167 204.941ZM313.788 299.803C313.788 332.939 257.012 329.151 238.929 329.151V270.354C257.012 270.405 313.788 265.202 313.788 299.803ZM301.413 216.963C301.413 247.27 254.032 243.583 238.979 243.583V190.141C254.032 190.141 301.413 185.393 301.413 216.963Z" fill="#F09242"/>
</svg>
