<svg width="570" height="570" viewBox="0 0 570 570" fill="none" xmlns="http://www.w3.org/2000/svg">
<path fill-rule="evenodd" clip-rule="evenodd" d="M570 285C570 247.95 562.59 210.33 548.34 176.13C534.09 141.93 513 110.01 486.78 83.22C459.99 57 428.64 35.91 393.87 21.66C359.1 7.41 322.05 0 285 0C247.95 0 210.33 7.41 176.13 21.66C141.93 35.91 110.01 57 83.22 83.22C57 110.01 35.91 141.36 21.66 176.13C7.41 210.9 0 247.95 0 285C0 322.05 7.41 359.67 21.66 393.87C35.91 428.07 57 459.99 83.22 486.78C109.44 513 141.36 534.09 175.56 548.34C209.76 562.59 247.95 570 285 570C322.05 570 359.67 562.59 393.87 548.34C428.07 534.09 459.99 513 486.78 486.78C513 460.56 534.09 428.64 548.34 394.44C562.59 360.24 570 322.05 570 285Z" fill="url(#paint0_linear_16_3468)"/>
<path fill-rule="evenodd" clip-rule="evenodd" d="M270 156H300V414H270V156Z" fill="white"/>
<path fill-rule="evenodd" clip-rule="evenodd" d="M253.939 278V247.211C230.579 235.807 214.057 211.289 214.057 183.351C214.057 144.009 245.962 112.079 285.274 112.079C329.714 112.079 361.619 144.009 361.619 183.351C361.619 193.044 359.34 202.737 354.783 214.14L342.248 173.088L317.18 181.07L339.4 266.026L426 234.096L415.175 209.009L382.7 219.842C388.397 207.298 389.537 197.605 389.537 182.781C389.537 127.474 345.097 83 284.704 83C229.44 83 185 127.474 185 182.781C185.57 227.254 214.057 264.886 253.939 278Z" fill="white"/>
<path fill-rule="evenodd" clip-rule="evenodd" d="M316.061 292V322.789C339.421 334.193 355.943 358.711 355.943 386.649C355.943 425.991 324.038 457.921 284.726 457.921C240.286 457.921 208.381 425.991 208.381 386.649C208.381 376.956 210.66 367.263 215.217 355.86L227.752 396.912L252.82 388.93L230.6 303.974L144 335.904L154.825 360.991L187.3 350.158C181.603 362.702 180.463 372.395 180.463 387.219C180.463 442.526 224.903 487 285.296 487C340.56 487 385 442.526 385 387.219C384.43 342.746 355.943 305.114 316.061 292Z" fill="white"/>
<defs>
<linearGradient id="paint0_linear_16_3468" x1="0" y1="0" x2="570" y2="570" gradientUnits="userSpaceOnUse">
<stop stop-color="#0077FC"/>
<stop offset="1" stop-color="#095EB5"/>
</linearGradient>
</defs>
</svg>
