<svg width="16" height="17" viewBox="0 0 16 17" fill="none" xmlns="http://www.w3.org/2000/svg">
<path d="M0.444444 15.2105C0.198985 15.2105 0 15.0102 0 14.7632V14.2059C0 14.0061 0.132506 13.8327 0.318727 13.7637C2.0048 13.1387 3.16769 11.5484 3.24045 9.71934L3.41363 5.36558C3.49262 3.36793 5.125 1.78947 7.11111 1.78947V0.894737C7.11111 0.400622 7.50911 0 8 0C8.49089 0 8.88889 0.400622 8.88889 0.894737V1.78947C10.875 1.78947 12.5074 3.36793 12.5864 5.36558L12.7595 9.71934C12.8323 11.5484 13.9952 13.1387 15.6813 13.7637C15.8675 13.8327 16 14.0061 16 14.2059V14.7632C16 15.0102 15.801 15.2105 15.5556 15.2105H0.444444Z" fill="white"/>
<path d="M6.66667 15.6579C6.66667 16.0017 6.79514 16.3152 7.00608 16.5526C7.25043 16.8272 7.60503 17 8 17C8.39497 17 8.74957 16.8272 8.99392 16.5526C9.20486 16.3152 9.33333 16.0017 9.33333 15.6579H8.44444H7.55556H6.66667Z" fill="white"/>
</svg>
