<svg width="4000" height="4000" viewBox="0 0 4000 4000" fill="none" xmlns="http://www.w3.org/2000/svg">
<rect width="4000" height="4000" fill="black"/>
<rect opacity="0.8" x="500" y="500" width="3000" height="3000" rx="1500" fill="url(#paint0_radial_92_1000)"/>
<path d="M399.016 3513.05V3509.07H339V3513.05H399.016Z" fill="white"/>
<path d="M467.42 3509.07H447.441L465.908 3501.41L464.395 3497.66L445.929 3505.32L460.018 3491.21L457.232 3488.42L443.143 3502.53L450.784 3484.03L447.043 3482.51L439.402 3501.01V3481H435.422V3501.01L427.781 3482.51L424.04 3484.03L431.681 3502.53L417.592 3488.42L414.806 3491.21L428.895 3505.32L410.429 3497.66L408.916 3501.41L427.383 3509.07H407.404V3513.05H427.383L408.916 3520.71L410.429 3524.38L428.895 3516.72L414.806 3530.91L417.592 3533.7L431.681 3519.59L424.04 3538.09L427.781 3539.6L435.422 3521.11V3541.12H439.402V3521.11L447.043 3539.6L450.784 3538.09L443.143 3519.59L457.232 3533.7L460.018 3530.91L445.929 3516.8L464.395 3524.38L465.908 3520.71L447.441 3513.05H467.42V3509.07Z" fill="white"/>
<path d="M535.824 3513.05V3509.07H475.808V3513.05H535.824Z" fill="white"/>
<path d="M604.228 3509.07H584.249L602.715 3501.41L601.203 3497.66L582.737 3505.32L596.825 3491.21L594.039 3488.42L579.951 3502.53L587.592 3484.03L583.851 3482.51L576.21 3501.01V3481H572.23V3501.01L564.588 3482.51L560.847 3484.03L568.489 3502.53L554.4 3488.42L551.614 3491.21L565.703 3505.32L547.236 3497.66L545.724 3501.41L564.19 3509.07H544.212V3513.05H564.19L545.724 3520.71L547.236 3524.38L565.703 3516.72L551.614 3530.91L554.4 3533.7L568.489 3519.59L560.847 3538.09L564.588 3539.6L572.23 3521.11V3541.12H576.21V3521.11L583.851 3539.6L587.592 3538.09L579.951 3519.59L594.039 3533.7L596.825 3530.91L582.737 3516.8L601.203 3524.38L602.715 3520.71L584.249 3513.05H604.228V3509.07Z" fill="white"/>
<path d="M741.113 3509.07H721.134L739.601 3501.41L738.089 3497.66L719.622 3505.32L733.711 3491.21L730.925 3488.42L716.836 3502.53L724.477 3484.03L720.736 3482.51L713.095 3501.01V3481H709.115V3501.01L701.474 3482.51L697.733 3484.03L705.374 3502.53L691.285 3488.42L688.499 3491.21L702.588 3505.32L684.122 3497.66L682.609 3501.41L701.076 3509.07H681.097V3513.05H701.076L682.609 3520.71L684.122 3524.38L702.588 3516.72L688.499 3530.91L691.285 3533.7L705.374 3519.59L697.733 3538.09L701.474 3539.6L709.115 3521.11V3541.12H713.095V3521.11L720.736 3539.6L724.477 3538.09L716.836 3519.59L730.925 3533.7L733.711 3530.91L719.622 3516.8L738.089 3524.38L739.601 3520.71L721.134 3513.05H741.113V3509.07Z" fill="white"/>
<path d="M809.517 3513.05V3509.07H749.501V3513.05H809.517Z" fill="white"/>
<path d="M877.921 3509.07H857.942L876.409 3501.41L874.896 3497.66L856.43 3505.32L870.518 3491.21L867.732 3488.42L853.644 3502.53L861.285 3484.03L857.544 3482.51L849.903 3501.01V3481H845.923V3501.01L838.281 3482.51L834.54 3484.03L842.182 3502.53L828.093 3488.42L825.307 3491.21L839.396 3505.32L820.929 3497.66L819.417 3501.41L837.883 3509.07H817.905V3513.05H837.883L819.417 3520.71L820.929 3524.38L839.396 3516.72L825.307 3530.91L828.093 3533.7L842.182 3519.59L834.54 3538.09L838.281 3539.6L845.923 3521.11V3541.12H849.903V3521.11L857.544 3539.6L861.285 3538.09L853.644 3519.59L867.732 3533.7L870.518 3530.91L856.43 3516.8L874.896 3524.38L876.409 3520.71L857.942 3513.05H877.921V3509.07Z" fill="white"/>
<path d="M946.325 3509.07H926.346L944.812 3501.41L943.3 3497.66L924.833 3505.32L938.922 3491.21L936.136 3488.42L922.048 3502.53L929.689 3484.03L925.948 3482.51L918.306 3501.01V3481H914.327V3501.01L906.685 3482.51L902.944 3484.03L910.586 3502.53L896.497 3488.42L893.711 3491.21L907.8 3505.32L889.333 3497.66L887.821 3501.41L906.287 3509.07H886.308V3513.05H906.287L887.821 3520.71L889.333 3524.38L907.8 3516.72L893.711 3530.91L896.497 3533.7L910.586 3519.59L902.944 3538.09L906.685 3539.6L914.327 3521.11V3541.12H918.306V3521.11L925.948 3539.6L929.689 3538.09L922.048 3519.59L936.136 3533.7L938.922 3530.91L924.833 3516.8L943.3 3524.38L944.812 3520.71L926.346 3513.05H946.325V3509.07Z" fill="white"/>
<path d="M1083.21 3509.07H1063.23L1081.7 3501.41L1080.19 3497.66L1061.72 3505.32L1075.81 3491.21L1073.02 3488.42L1058.93 3502.53L1066.57 3484.03L1062.83 3482.51L1055.19 3501.01V3481H1051.21V3501.01L1043.57 3482.51L1039.83 3484.03L1047.47 3502.53L1033.38 3488.42L1030.6 3491.21L1044.69 3505.32L1026.22 3497.66L1024.71 3501.41L1043.17 3509.07H1023.19V3513.05H1043.17L1024.71 3520.71L1026.22 3524.38L1044.69 3516.72L1030.6 3530.91L1033.38 3533.7L1047.47 3519.59L1039.83 3538.09L1043.57 3539.6L1051.21 3521.11V3541.12H1055.19V3521.11L1062.83 3539.6L1066.57 3538.09L1058.93 3519.59L1073.02 3533.7L1075.81 3530.91L1061.72 3516.8L1080.19 3524.38L1081.7 3520.71L1063.23 3513.05H1083.21V3509.07Z" fill="white"/>
<path d="M1151.61 3509.07H1131.64L1150.1 3501.41L1148.59 3497.66L1130.12 3505.32L1144.21 3491.21L1141.43 3488.42L1127.34 3502.53L1134.98 3484.03L1131.24 3482.51L1123.6 3501.01V3481H1119.62V3501.01L1111.97 3482.51L1108.23 3484.03L1115.87 3502.53L1101.79 3488.42L1099 3491.21L1113.09 3505.32L1094.62 3497.66L1093.11 3501.41L1111.58 3509.07H1091.6V3513.05H1111.58L1093.11 3520.71L1094.62 3524.38L1113.09 3516.72L1099 3530.91L1101.79 3533.7L1115.87 3519.59L1108.23 3538.09L1111.97 3539.6L1119.62 3521.11V3541.12H1123.6V3521.11L1131.24 3539.6L1134.98 3538.09L1127.34 3519.59L1141.43 3533.7L1144.21 3530.91L1130.12 3516.8L1148.59 3524.38L1150.1 3520.71L1131.64 3513.05H1151.61V3509.07Z" fill="white"/>
<path d="M1220.02 3513.05V3509.07H1160V3513.05H1220.02Z" fill="white"/>
<path d="M1356.9 3513.05V3509.07H1296.89V3513.05H1356.9Z" fill="white"/>
<path d="M1425.31 3509.07H1405.33L1423.79 3501.41L1422.28 3497.66L1403.82 3505.32L1417.9 3491.21L1415.12 3488.42L1401.03 3502.53L1408.67 3484.03L1404.93 3482.51L1397.29 3501.01V3481H1393.31V3501.01L1385.67 3482.51L1381.93 3484.03L1389.57 3502.53L1375.48 3488.42L1372.69 3491.21L1386.78 3505.32L1368.32 3497.66L1366.8 3501.41L1385.27 3509.07H1365.29V3513.05H1385.27L1366.8 3520.71L1368.32 3524.38L1386.78 3516.72L1372.69 3530.91L1375.48 3533.7L1389.57 3519.59L1381.93 3538.09L1385.67 3539.6L1393.31 3521.11V3541.12H1397.29V3521.11L1404.93 3539.6L1408.67 3538.09L1401.03 3519.59L1415.12 3533.7L1417.9 3530.91L1403.82 3516.8L1422.28 3524.38L1423.79 3520.71L1405.33 3513.05H1425.31V3509.07Z" fill="white"/>
<path d="M1493.71 3509.07H1473.73L1492.2 3501.41L1490.69 3497.66L1472.22 3505.32L1486.31 3491.21L1483.52 3488.42L1469.43 3502.53L1477.08 3484.03L1473.33 3482.51L1465.69 3501.01V3481H1461.71V3501.01L1454.07 3482.51L1450.33 3484.03L1457.97 3502.53L1443.88 3488.42L1441.1 3491.21L1455.19 3505.32L1436.72 3497.66L1435.21 3501.41L1453.67 3509.07H1433.69V3513.05H1453.67L1435.21 3520.71L1436.72 3524.38L1455.19 3516.72L1441.1 3530.91L1443.88 3533.7L1457.97 3519.59L1450.33 3538.09L1454.07 3539.6L1461.71 3521.11V3541.12H1465.69V3521.11L1473.33 3539.6L1477.08 3538.09L1469.43 3519.59L1483.52 3533.7L1486.31 3530.91L1472.22 3516.8L1490.69 3524.38L1492.2 3520.71L1473.73 3513.05H1493.71V3509.07Z" fill="white"/>
<path d="M1562.11 3509.07H1542.14L1560.6 3501.41L1559.09 3497.66L1540.62 3505.32L1554.71 3491.21L1551.93 3488.42L1537.84 3502.53L1545.48 3484.03L1541.74 3482.51L1534.1 3501.01V3481H1530.12V3501.01L1522.48 3482.51L1518.73 3484.03L1526.38 3502.53L1512.29 3488.42L1509.5 3491.21L1523.59 3505.32L1505.12 3497.66L1503.61 3501.41L1522.08 3509.07H1502.1V3513.05H1522.08L1503.61 3520.71L1505.12 3524.38L1523.59 3516.72L1509.5 3530.91L1512.29 3533.7L1526.38 3519.59L1518.73 3538.09L1522.48 3539.6L1530.12 3521.11V3541.12H1534.1V3521.11L1541.74 3539.6L1545.48 3538.09L1537.84 3519.59L1551.93 3533.7L1554.71 3530.91L1540.62 3516.8L1559.09 3524.38L1560.6 3520.71L1542.14 3513.05H1562.11V3509.07Z" fill="white"/>
<path d="M399.016 3628.95H379.037L397.504 3621.29L395.992 3617.54L377.525 3625.2L391.614 3611.09L388.828 3608.3L374.739 3622.41L382.38 3603.91L378.639 3602.4L370.998 3620.89V3600.88H367.018V3620.89L359.377 3602.4L355.636 3603.91L363.277 3622.41L349.188 3608.3L346.403 3611.09L360.491 3625.2L342.025 3617.54L340.512 3621.29L358.979 3628.95H339V3632.93H358.979L340.512 3640.59L342.025 3644.26L360.491 3636.6L346.403 3650.79L349.188 3653.58L363.277 3639.47L355.636 3657.97L359.377 3659.49L367.018 3640.99V3661H370.998V3640.99L378.639 3659.49L382.38 3657.97L374.739 3639.47L388.828 3653.58L391.614 3650.79L377.525 3636.68L395.992 3644.26L397.504 3640.59L379.037 3632.93H399.016V3628.95Z" fill="white"/>
<path d="M467.42 3632.93V3628.95H407.404V3632.93H467.42Z" fill="white"/>
<path d="M604.306 3628.95H584.327L602.793 3621.29L601.281 3617.54L582.814 3625.2L596.903 3611.09L594.117 3608.3L580.028 3622.41L587.67 3603.91L583.929 3602.4L576.287 3620.89V3600.88H572.307V3620.89L564.666 3602.4L560.925 3603.91L568.566 3622.41L554.478 3608.3L551.692 3611.09L565.78 3625.2L547.314 3617.54L545.802 3621.29L564.268 3628.95H544.289V3632.93H564.268L545.802 3640.59L547.314 3644.26L565.78 3636.6L551.692 3650.79L554.478 3653.58L568.566 3639.47L560.925 3657.97L564.666 3659.49L572.307 3640.99V3661H576.287V3640.99L583.929 3659.49L587.67 3657.97L580.028 3639.47L594.117 3653.58L596.903 3650.79L582.814 3636.68L601.281 3644.26L602.793 3640.59L584.327 3632.93H604.306V3628.95Z" fill="white"/>
<path d="M672.709 3632.93V3628.95H612.693V3632.93H672.709Z" fill="white"/>
<path d="M741.113 3628.95H721.134L739.601 3621.29L738.089 3617.54L719.622 3625.2L733.711 3611.09L730.925 3608.3L716.836 3622.41L724.477 3603.91L720.736 3602.4L713.095 3620.89V3600.88H709.115V3620.89L701.474 3602.4L697.733 3603.91L705.374 3622.41L691.285 3608.3L688.499 3611.09L702.588 3625.2L684.122 3617.54L682.609 3621.29L701.076 3628.95H681.097V3632.93H701.076L682.609 3640.59L684.122 3644.26L702.588 3636.6L688.499 3650.79L691.285 3653.58L705.374 3639.47L697.733 3657.97L701.474 3659.49L709.115 3640.99V3661H713.095V3640.99L720.736 3659.49L724.477 3657.97L716.836 3639.47L730.925 3653.58L733.711 3650.79L719.622 3636.68L738.089 3644.26L739.601 3640.59L721.134 3632.93H741.113V3628.95Z" fill="white"/>
<path d="M809.517 3628.95H789.538L808.005 3621.29L806.492 3617.54L788.026 3625.2L802.114 3611.09L799.329 3608.3L785.24 3622.41L792.881 3603.91L789.14 3602.4L781.499 3620.89V3600.88H777.519V3620.89L769.878 3602.4L766.137 3603.91L773.778 3622.41L759.689 3608.3L756.903 3611.09L770.992 3625.2L752.525 3617.54L751.013 3621.29L769.48 3628.95H749.501V3632.93H769.48L751.013 3640.59L752.525 3644.26L770.992 3636.6L756.903 3650.79L759.689 3653.58L773.778 3639.47L766.137 3657.97L769.878 3659.49L777.519 3640.99V3661H781.499V3640.99L789.14 3659.49L792.881 3657.97L785.24 3639.47L799.329 3653.58L802.114 3650.79L788.026 3636.68L806.492 3644.26L808.005 3640.59L789.538 3632.93H809.517V3628.95Z" fill="white"/>
<path d="M946.402 3628.95H926.424L944.89 3621.29L943.378 3617.54L924.911 3625.2L939 3611.09L936.214 3608.3L922.125 3622.41L929.767 3603.91L926.026 3602.4L918.384 3620.89V3600.88H914.404V3620.89L906.763 3602.4L903.022 3603.91L910.663 3622.41L896.575 3608.3L893.789 3611.09L907.877 3625.2L889.411 3617.54L887.898 3621.29L906.365 3628.95H886.386V3632.93H906.365L887.898 3640.59L889.411 3644.26L907.877 3636.6L893.789 3650.79L896.575 3653.58L910.663 3639.47L903.022 3657.97L906.763 3659.49L914.404 3640.99V3661H918.384V3640.99L926.026 3659.49L929.767 3657.97L922.125 3639.47L936.214 3653.58L939 3650.79L924.911 3636.68L943.378 3644.26L944.89 3640.59L926.424 3632.93H946.402V3628.95Z" fill="white"/>
<path d="M1014.81 3632.93V3628.95H954.79V3632.93H1014.81Z" fill="white"/>
<path d="M1083.21 3632.93V3628.95H1023.19V3632.93H1083.21Z" fill="white"/>
<path d="M1151.61 3628.95H1131.64L1150.1 3621.29L1148.59 3617.54L1130.12 3625.2L1144.21 3611.09L1141.43 3608.3L1127.34 3622.41L1134.98 3603.91L1131.24 3602.4L1123.6 3620.89V3600.88H1119.62V3620.89L1111.97 3602.4L1108.23 3603.91L1115.87 3622.41L1101.79 3608.3L1099 3611.09L1113.09 3625.2L1094.62 3617.54L1093.11 3621.29L1111.58 3628.95H1091.6V3632.93H1111.58L1093.11 3640.59L1094.62 3644.26L1113.09 3636.6L1099 3650.79L1101.79 3653.58L1115.87 3639.47L1108.23 3657.97L1111.97 3659.49L1119.62 3640.99V3661H1123.6V3640.99L1131.24 3659.49L1134.98 3657.97L1127.34 3639.47L1141.43 3653.58L1144.21 3650.79L1130.12 3636.68L1148.59 3644.26L1150.1 3640.59L1131.64 3632.93H1151.61V3628.95Z" fill="white"/>
<path d="M1288.5 3628.95H1268.52L1286.99 3621.29L1285.47 3617.54L1267.01 3625.2L1281.1 3611.09L1278.31 3608.3L1264.22 3622.41L1271.86 3603.91L1268.12 3602.4L1260.48 3620.89V3600.88H1256.5V3620.89L1248.86 3602.4L1245.12 3603.91L1252.76 3622.41L1238.67 3608.3L1235.89 3611.09L1249.97 3625.2L1231.51 3617.54L1230 3621.29L1248.46 3628.95H1228.48V3632.93H1248.46L1230 3640.59L1231.51 3644.26L1249.97 3636.6L1235.89 3650.79L1238.67 3653.58L1252.76 3639.47L1245.12 3657.97L1248.86 3659.49L1256.5 3640.99V3661H1260.48V3640.99L1268.12 3659.49L1271.86 3657.97L1264.22 3639.47L1278.31 3653.58L1281.1 3650.79L1267.01 3636.68L1285.47 3644.26L1286.99 3640.59L1268.52 3632.93H1288.5V3628.95Z" fill="white"/>
<path d="M1356.9 3628.95H1336.92L1355.39 3621.29L1353.88 3617.54L1335.41 3625.2L1349.5 3611.09L1346.71 3608.3L1332.63 3622.41L1340.27 3603.91L1336.53 3602.4L1328.88 3620.89V3600.88H1324.91V3620.89L1317.26 3602.4L1313.52 3603.91L1321.16 3622.41L1307.08 3608.3L1304.29 3611.09L1318.38 3625.2L1299.91 3617.54L1298.4 3621.29L1316.87 3628.95H1296.89V3632.93H1316.87L1298.4 3640.59L1299.91 3644.26L1318.38 3636.6L1304.29 3650.79L1307.08 3653.58L1321.16 3639.47L1313.52 3657.97L1317.26 3659.49L1324.91 3640.99V3661H1328.88V3640.99L1336.53 3659.49L1340.27 3657.97L1332.63 3639.47L1346.71 3653.58L1349.5 3650.79L1335.41 3636.68L1353.88 3644.26L1355.39 3640.59L1336.92 3632.93H1356.9V3628.95Z" fill="white"/>
<path d="M1425.31 3628.95H1405.33L1423.79 3621.29L1422.28 3617.54L1403.82 3625.2L1417.9 3611.09L1415.12 3608.3L1401.03 3622.41L1408.67 3603.91L1404.93 3602.4L1397.29 3620.89V3600.88H1393.31V3620.89L1385.67 3602.4L1381.93 3603.91L1389.57 3622.41L1375.48 3608.3L1372.69 3611.09L1386.78 3625.2L1368.32 3617.54L1366.8 3621.29L1385.27 3628.95H1365.29V3632.93H1385.27L1366.8 3640.59L1368.32 3644.26L1386.78 3636.6L1372.69 3650.79L1375.48 3653.58L1389.57 3639.47L1381.93 3657.97L1385.67 3659.49L1393.31 3640.99V3661H1397.29V3640.99L1404.93 3659.49L1408.67 3657.97L1401.03 3639.47L1415.12 3653.58L1417.9 3650.79L1403.82 3636.68L1422.28 3644.26L1423.79 3640.59L1405.33 3632.93H1425.31V3628.95Z" fill="white"/>
<path d="M1493.71 3628.95H1473.73L1492.2 3621.29L1490.69 3617.54L1472.22 3625.2L1486.31 3611.09L1483.52 3608.3L1469.43 3622.41L1477.08 3603.91L1473.33 3602.4L1465.69 3620.89V3600.88H1461.71V3620.89L1454.07 3602.4L1450.33 3603.91L1457.97 3622.41L1443.88 3608.3L1441.1 3611.09L1455.19 3625.2L1436.72 3617.54L1435.21 3621.29L1453.67 3628.95H1433.69V3632.93H1453.67L1435.21 3640.59L1436.72 3644.26L1455.19 3636.6L1441.1 3650.79L1443.88 3653.58L1457.97 3639.47L1450.33 3657.97L1454.07 3659.49L1461.71 3640.99V3661H1465.69V3640.99L1473.33 3659.49L1477.08 3657.97L1469.43 3639.47L1483.52 3653.58L1486.31 3650.79L1472.22 3636.68L1490.69 3644.26L1492.2 3640.59L1473.73 3632.93H1493.71V3628.95Z" fill="white"/>
<path d="M1630.6 3628.95H1610.62L1629.08 3621.29L1627.57 3617.54L1609.1 3625.2L1623.19 3611.09L1620.41 3608.3L1606.32 3622.41L1613.96 3603.91L1610.22 3602.4L1602.58 3620.89V3600.88H1598.6V3620.89L1590.96 3602.4L1587.22 3603.91L1594.86 3622.41L1580.77 3608.3L1577.98 3611.09L1592.07 3625.2L1573.6 3617.54L1572.09 3621.29L1590.56 3628.95H1570.58V3632.93H1590.56L1572.09 3640.59L1573.6 3644.26L1592.07 3636.6L1577.98 3650.79L1580.77 3653.58L1594.86 3639.47L1587.22 3657.97L1590.96 3659.49L1598.6 3640.99V3661H1602.58V3640.99L1610.22 3659.49L1613.96 3657.97L1606.32 3639.47L1620.41 3653.58L1623.19 3650.79L1609.1 3636.68L1627.57 3644.26L1629.08 3640.59L1610.62 3632.93H1630.6V3628.95Z" fill="white"/>
<path d="M1699 3632.93V3628.95H1638.98V3632.93H1699Z" fill="white"/>
<path d="M2838.63 2485.53C2815.18 2462.01 2787.25 2443.44 2756.5 2430.9C2693.45 2405.2 2639.72 2485.6 2687.59 2534.03C2710.95 2557.64 2738.8 2576.33 2769.5 2589L2770.83 2589.55C2833.59 2615.09 2887.29 2534.74 2839.66 2486.56L2838.63 2485.53Z" fill="#CCFF00"/>
<path d="M1063.68 2249.69C1096.89 2249.73 1129.77 2243.12 1160.39 2230.24C1223.15 2203.82 1204.28 2108.98 1136.18 2108.59C1102.97 2108.41 1070.06 2114.89 1039.4 2127.64L1038.06 2128.2C975.608 2154.48 994.469 2249.27 1062.23 2249.68L1063.68 2249.69Z" fill="#191E12"/>
<path d="M1230.5 2588.99C1261.2 2576.32 1289.05 2557.63 1312.4 2534.03C1360.27 2485.6 1306.55 2405.2 1243.48 2430.89C1212.74 2443.43 1184.81 2462.01 1161.36 2485.52L1160.34 2486.55C1112.7 2534.73 1166.41 2615.12 1229.15 2589.55L1230.5 2588.99Z" fill="#191E12"/>
<path d="M2936.32 1750.31C2903.11 1750.27 2870.23 1756.88 2839.61 1769.76C2776.85 1796.18 2795.72 1891.02 2863.81 1891.42C2897.02 1891.59 2929.94 1885.12 2960.6 1872.37L2961.94 1871.81C3024.38 1845.52 3005.53 1750.73 2937.77 1750.32L2936.32 1750.31Z" fill="#191E12"/>
<path d="M2769.5 1411C2738.8 1423.67 2710.95 1442.36 2687.6 1465.97C2639.72 1514.4 2693.44 1594.81 2756.51 1569.11C2787.26 1556.57 2815.18 1537.99 2838.63 1514.48L2839.65 1513.45C2887.29 1465.26 2833.58 1384.88 2770.84 1410.45L2769.5 1411Z" fill="#191E12"/>
<path d="M1750.31 1063.68C1750.27 1096.89 1756.88 1129.77 1769.75 1160.39C1796.18 1223.15 1891.02 1204.28 1891.41 1136.18C1891.59 1102.97 1885.11 1070.06 1872.36 1039.4C1872.18 1038.95 1871.99 1038.51 1871.8 1038.06C1845.52 975.609 1750.73 994.467 1750.32 1062.23C1750.32 1062.71 1750.32 1063.19 1750.32 1063.68H1750.31Z" fill="#191E12"/>
<path d="M1411.01 1230.5C1423.68 1261.2 1442.37 1289.05 1465.98 1312.41C1514.41 1360.28 1594.81 1306.55 1569.11 1243.5C1556.57 1212.75 1537.99 1184.82 1514.48 1161.36L1513.45 1160.34C1465.27 1112.7 1384.89 1166.41 1410.46 1229.16C1410.64 1229.6 1410.82 1230.05 1411.01 1230.5Z" fill="#191E12"/>
<path d="M2249.68 2936.32C2249.73 2903.11 2243.11 2870.23 2230.24 2839.62C2203.82 2776.85 2108.98 2795.72 2108.58 2863.82C2108.41 2897.03 2114.88 2929.94 2127.63 2960.6C2127.81 2961.05 2128 2961.49 2128.19 2961.94C2154.47 3024.39 2249.26 3005.53 2249.68 2937.77C2249.68 2937.29 2249.68 2936.81 2249.68 2936.32H2249.68Z" fill="#191E12"/>
<path d="M2588.99 2769.49C2576.33 2738.8 2557.64 2710.95 2534.03 2687.6C2485.6 2639.72 2405.2 2693.44 2430.89 2756.51C2443.44 2787.26 2462.01 2815.18 2485.52 2838.64L2486.55 2839.65C2534.73 2887.29 2615.12 2833.58 2589.51 2770.84C2589.37 2770.39 2589.18 2769.94 2588.99 2769.49Z" fill="#191E12"/>
<path d="M1039.4 1872.37C1070.06 1885.11 1102.97 1891.59 1136.18 1891.42C1204.28 1891.02 1223.15 1796.18 1160.38 1769.76C1129.77 1756.88 1096.89 1750.27 1063.68 1750.31H1062.23C994.469 1750.7 975.608 1845.52 1038.06 1871.8L1039.4 1872.37Z" fill="#191E12"/>
<path d="M1161.36 1514.48C1184.81 1537.99 1212.74 1556.57 1243.48 1569.11C1306.55 1594.81 1360.27 1514.41 1312.4 1465.98C1289.04 1442.37 1261.19 1423.68 1230.5 1411.01L1229.15 1410.46C1166.41 1384.89 1112.7 1465.27 1160.34 1513.45L1161.36 1514.48Z" fill="#191E12"/>
<path d="M2960.6 2127.64C2929.94 2114.89 2897.02 2108.41 2863.81 2108.59C2795.72 2108.98 2776.85 2203.82 2839.61 2230.24C2870.23 2243.12 2903.11 2249.73 2936.32 2249.69H2937.77C3005.53 2249.31 3024.39 2154.49 2961.94 2128.2L2960.6 2127.64Z" fill="#191E12"/>
<path d="M2127.63 1039.4C2114.88 1070.06 2108.41 1102.97 2108.58 1136.18C2108.98 1204.28 2203.82 1223.14 2230.24 1160.38C2243.11 1129.76 2249.73 1096.89 2249.68 1063.68C2249.68 1063.19 2249.68 1062.71 2249.68 1062.23C2249.3 994.475 2154.48 975.617 2128.2 1038.06C2128 1038.51 2127.81 1038.95 2127.63 1039.4Z" fill="#191E12"/>
<path d="M2485.52 1161.36C2462.01 1184.82 2443.44 1212.74 2430.89 1243.49C2405.2 1306.55 2485.6 1360.28 2534.03 1312.41C2557.63 1289.05 2576.33 1261.2 2588.99 1230.5C2589.18 1230.05 2589.37 1229.61 2589.55 1229.16C2615.12 1166.41 2534.73 1112.7 2486.59 1160.34L2485.56 1161.36H2485.52Z" fill="#191E12"/>
<path d="M1872.36 2960.6C1885.11 2929.94 1891.59 2897.03 1891.41 2863.82C1891.02 2795.72 1796.18 2776.85 1769.75 2839.62C1756.88 2870.23 1750.27 2903.11 1750.31 2936.32C1750.31 2936.81 1750.31 2937.29 1750.31 2937.77C1750.69 3005.53 1845.51 3024.39 1871.79 2961.94C1871.99 2961.49 1872.15 2961.05 1872.36 2960.6Z" fill="#191E12"/>
<path d="M1514.48 2838.64C1537.99 2815.18 1556.57 2787.26 1569.11 2756.51C1594.81 2693.44 1514.41 2639.72 1465.98 2687.6C1442.37 2710.95 1423.68 2738.8 1411.01 2769.49C1410.82 2769.94 1410.64 2770.39 1410.46 2770.84C1384.89 2833.58 1465.27 2887.29 1513.45 2839.65L1514.48 2838.64Z" fill="#191E12"/>
<defs>
<radialGradient id="paint0_radial_92_1000" cx="0" cy="0" r="1" gradientUnits="userSpaceOnUse" gradientTransform="translate(2000 2000) rotate(90) scale(1500)">
<stop stop-color="#191E12"/>
<stop offset="1"/>
</radialGradient>
</defs>
</svg>
