<svg width="4000" height="4000" viewBox="0 0 4000 4000" fill="none" xmlns="http://www.w3.org/2000/svg">
<rect width="4000" height="4000" fill="black"/>
<rect opacity="0.4" x="500" y="500" width="3000" height="3000" rx="1500" fill="url(#paint0_radial_92_1001)"/>
<path d="M399.207 3513.05V3509.07H339V3513.05H399.207Z" fill="white"/>
<path d="M467.828 3509.07H447.786L466.311 3501.41L464.794 3497.66L446.269 3505.32L460.402 3491.21L457.607 3488.42L443.474 3502.53L451.139 3484.03L447.386 3482.51L439.721 3501.01V3481H435.728V3501.01L428.063 3482.51L424.31 3484.03L431.975 3502.53L417.842 3488.42L415.047 3491.21L429.181 3505.32L410.655 3497.66L409.138 3501.41L427.663 3509.07H407.621V3513.05H427.663L409.138 3520.71L410.655 3524.38L429.181 3516.72L415.047 3530.91L417.842 3533.7L431.975 3519.59L424.31 3538.09L428.063 3539.6L435.728 3521.11V3541.12H439.721V3521.11L447.386 3539.6L451.139 3538.09L443.474 3519.59L457.607 3533.7L460.402 3530.91L446.269 3516.8L464.794 3524.38L466.311 3520.71L447.786 3513.05H467.828V3509.07Z" fill="white"/>
<path d="M536.449 3513.05V3509.07H476.242V3513.05H536.449Z" fill="white"/>
<path d="M605.07 3509.07H585.028L603.553 3501.41L602.036 3497.66L583.511 3505.32L597.644 3491.21L594.85 3488.42L580.716 3502.53L588.382 3484.03L584.629 3482.51L576.963 3501.01V3481H572.971V3501.01L565.305 3482.51L561.552 3484.03L569.218 3502.53L555.084 3488.42L552.289 3491.21L566.423 3505.32L547.898 3497.66L546.381 3501.41L564.906 3509.07H544.863V3513.05H564.906L546.381 3520.71L547.898 3524.38L566.423 3516.72L552.289 3530.91L555.084 3533.7L569.218 3519.59L561.552 3538.09L565.305 3539.6L572.971 3521.11V3541.12H576.963V3521.11L584.629 3539.6L588.382 3538.09L580.716 3519.59L594.85 3533.7L597.644 3530.91L583.511 3516.8L602.036 3524.38L603.553 3520.71L585.028 3513.05H605.07V3509.07Z" fill="white"/>
<path d="M742.391 3509.07H722.348L740.873 3501.41L739.356 3497.66L720.831 3505.32L734.964 3491.21L732.17 3488.42L718.036 3502.53L725.702 3484.03L721.949 3482.51L714.283 3501.01V3481H710.291V3501.01L702.625 3482.51L698.872 3484.03L706.538 3502.53L692.404 3488.42L689.61 3491.21L703.743 3505.32L685.218 3497.66L683.701 3501.41L702.226 3509.07H682.184V3513.05H702.226L683.701 3520.71L685.218 3524.38L703.743 3516.72L689.61 3530.91L692.404 3533.7L706.538 3519.59L698.872 3538.09L702.625 3539.6L710.291 3521.11V3541.12H714.283V3521.11L721.949 3539.6L725.702 3538.09L718.036 3519.59L732.17 3533.7L734.964 3530.91L720.831 3516.8L739.356 3524.38L740.873 3520.71L722.348 3513.05H742.391V3509.07Z" fill="white"/>
<path d="M811.012 3513.05V3509.07H750.805V3513.05H811.012Z" fill="white"/>
<path d="M879.633 3509.07H859.59L878.116 3501.41L876.599 3497.66L858.073 3505.32L872.207 3491.21L869.412 3488.42L855.279 3502.53L862.944 3484.03L859.191 3482.51L851.526 3501.01V3481H847.533V3501.01L839.867 3482.51L836.115 3484.03L843.78 3502.53L829.647 3488.42L826.852 3491.21L840.985 3505.32L822.46 3497.66L820.943 3501.41L839.468 3509.07H819.426V3513.05H839.468L820.943 3520.71L822.46 3524.38L840.985 3516.72L826.852 3530.91L829.647 3533.7L843.78 3519.59L836.115 3538.09L839.867 3539.6L847.533 3521.11V3541.12H851.526V3521.11L859.191 3539.6L862.944 3538.09L855.279 3519.59L869.412 3533.7L872.207 3530.91L858.073 3516.8L876.599 3524.38L878.116 3520.71L859.59 3513.05H879.633V3509.07Z" fill="white"/>
<path d="M948.254 3509.07H928.212L946.737 3501.41L945.22 3497.66L926.694 3505.32L940.828 3491.21L938.033 3488.42L923.9 3502.53L931.565 3484.03L927.812 3482.51L920.147 3501.01V3481H916.154V3501.01L908.489 3482.51L904.736 3484.03L912.401 3502.53L898.268 3488.42L895.473 3491.21L909.607 3505.32L891.081 3497.66L889.564 3501.41L908.089 3509.07H888.047V3513.05H908.089L889.564 3520.71L891.081 3524.38L909.607 3516.72L895.473 3530.91L898.268 3533.7L912.401 3519.59L904.736 3538.09L908.489 3539.6L916.154 3521.11V3541.12H920.147V3521.11L927.812 3539.6L931.565 3538.09L923.9 3519.59L938.033 3533.7L940.828 3530.91L926.694 3516.8L945.22 3524.38L946.737 3520.71L928.212 3513.05H948.254V3509.07Z" fill="white"/>
<path d="M1085.57 3509.07H1065.53L1084.06 3501.41L1082.54 3497.66L1064.01 3505.32L1078.15 3491.21L1075.35 3488.42L1061.22 3502.53L1068.89 3484.03L1065.13 3482.51L1057.47 3501.01V3481H1053.47V3501.01L1045.81 3482.51L1042.06 3484.03L1049.72 3502.53L1035.59 3488.42L1032.79 3491.21L1046.93 3505.32L1028.4 3497.66L1026.88 3501.41L1045.41 3509.07H1025.37V3513.05H1045.41L1026.88 3520.71L1028.4 3524.38L1046.93 3516.72L1032.79 3530.91L1035.59 3533.7L1049.72 3519.59L1042.06 3538.09L1045.81 3539.6L1053.47 3521.11V3541.12H1057.47V3521.11L1065.13 3539.6L1068.89 3538.09L1061.22 3519.59L1075.35 3533.7L1078.15 3530.91L1064.01 3516.8L1082.54 3524.38L1084.06 3520.71L1065.53 3513.05H1085.57V3509.07Z" fill="white"/>
<path d="M1154.2 3509.07H1134.15L1152.68 3501.41L1151.16 3497.66L1132.64 3505.32L1146.77 3491.21L1143.97 3488.42L1129.84 3502.53L1137.51 3484.03L1133.75 3482.51L1126.09 3501.01V3481H1122.1V3501.01L1114.43 3482.51L1110.68 3484.03L1118.34 3502.53L1104.21 3488.42L1101.41 3491.21L1115.55 3505.32L1097.02 3497.66L1095.51 3501.41L1114.03 3509.07H1093.99V3513.05H1114.03L1095.51 3520.71L1097.02 3524.38L1115.55 3516.72L1101.41 3530.91L1104.21 3533.7L1118.34 3519.59L1110.68 3538.09L1114.43 3539.6L1122.1 3521.11V3541.12H1126.09V3521.11L1133.75 3539.6L1137.51 3538.09L1129.84 3519.59L1143.97 3533.7L1146.77 3530.91L1132.64 3516.8L1151.16 3524.38L1152.68 3520.71L1134.15 3513.05H1154.2V3509.07Z" fill="white"/>
<path d="M1222.82 3513.05V3509.07H1162.61V3513.05H1222.82Z" fill="white"/>
<path d="M1360.14 3513.05V3509.07H1299.93V3513.05H1360.14Z" fill="white"/>
<path d="M1428.76 3509.07H1408.72L1427.24 3501.41L1425.72 3497.66L1407.2 3505.32L1421.33 3491.21L1418.54 3488.42L1404.4 3502.53L1412.07 3484.03L1408.32 3482.51L1400.65 3501.01V3481H1396.66V3501.01L1388.99 3482.51L1385.24 3484.03L1392.91 3502.53L1378.77 3488.42L1375.98 3491.21L1390.11 3505.32L1371.59 3497.66L1370.07 3501.41L1388.59 3509.07H1368.55V3513.05H1388.59L1370.07 3520.71L1371.59 3524.38L1390.11 3516.72L1375.98 3530.91L1378.77 3533.7L1392.91 3519.59L1385.24 3538.09L1388.99 3539.6L1396.66 3521.11V3541.12H1400.65V3521.11L1408.32 3539.6L1412.07 3538.09L1404.4 3519.59L1418.54 3533.7L1421.33 3530.91L1407.2 3516.8L1425.72 3524.38L1427.24 3520.71L1408.72 3513.05H1428.76V3509.07Z" fill="white"/>
<path d="M1497.38 3509.07H1477.34L1495.86 3501.41L1494.34 3497.66L1475.82 3505.32L1489.95 3491.21L1487.16 3488.42L1473.02 3502.53L1480.69 3484.03L1476.94 3482.51L1469.27 3501.01V3481H1465.28V3501.01L1457.61 3482.51L1453.86 3484.03L1461.53 3502.53L1447.39 3488.42L1444.6 3491.21L1458.73 3505.32L1440.21 3497.66L1438.69 3501.41L1457.21 3509.07H1437.17V3513.05H1457.21L1438.69 3520.71L1440.21 3524.38L1458.73 3516.72L1444.6 3530.91L1447.39 3533.7L1461.53 3519.59L1453.86 3538.09L1457.61 3539.6L1465.28 3521.11V3541.12H1469.27V3521.11L1476.94 3539.6L1480.69 3538.09L1473.02 3519.59L1487.16 3533.7L1489.95 3530.91L1475.82 3516.8L1494.34 3524.38L1495.86 3520.71L1477.34 3513.05H1497.38V3509.07Z" fill="white"/>
<path d="M1566 3509.07H1545.96L1564.48 3501.41L1562.97 3497.66L1544.44 3505.32L1558.57 3491.21L1555.78 3488.42L1541.65 3502.53L1549.31 3484.03L1545.56 3482.51L1537.89 3501.01V3481H1533.9V3501.01L1526.23 3482.51L1522.48 3484.03L1530.15 3502.53L1516.01 3488.42L1513.22 3491.21L1527.35 3505.32L1508.83 3497.66L1507.31 3501.41L1525.84 3509.07H1505.79V3513.05H1525.84L1507.31 3520.71L1508.83 3524.38L1527.35 3516.72L1513.22 3530.91L1516.01 3533.7L1530.15 3519.59L1522.48 3538.09L1526.23 3539.6L1533.9 3521.11V3541.12H1537.89V3521.11L1545.56 3539.6L1549.31 3538.09L1541.65 3519.59L1555.78 3533.7L1558.57 3530.91L1544.44 3516.8L1562.97 3524.38L1564.48 3520.71L1545.96 3513.05H1566V3509.07Z" fill="white"/>
<path d="M399.207 3632.93V3628.95H339V3632.93H399.207Z" fill="white"/>
<path d="M467.828 3628.95H447.786L466.311 3621.29L464.794 3617.54L446.269 3625.2L460.402 3611.09L457.607 3608.3L443.474 3622.41L451.139 3603.91L447.386 3602.4L439.721 3620.89V3600.88H435.728V3620.89L428.063 3602.4L424.31 3603.91L431.975 3622.41L417.842 3608.3L415.047 3611.09L429.181 3625.2L410.655 3617.54L409.138 3621.29L427.663 3628.95H407.621V3632.93H427.663L409.138 3640.59L410.655 3644.26L429.181 3636.6L415.047 3650.79L417.842 3653.58L431.975 3639.47L424.31 3657.97L428.063 3659.49L435.728 3640.99V3661H439.721V3640.99L447.386 3659.49L451.139 3657.97L443.474 3639.47L457.607 3653.58L460.402 3650.79L446.269 3636.68L464.794 3644.26L466.311 3640.59L447.786 3632.93H467.828V3628.95Z" fill="white"/>
<path d="M536.449 3628.95H516.407L534.932 3621.29L533.415 3617.54L514.89 3625.2L529.023 3611.09L526.228 3608.3L512.095 3622.41L519.761 3603.91L516.008 3602.4L508.342 3620.89V3600.88H504.349V3620.89L496.684 3602.4L492.931 3603.91L500.597 3622.41L486.463 3608.3L483.668 3611.09L497.802 3625.2L479.277 3617.54L477.759 3621.29L496.285 3628.95H476.242V3632.93H496.285L477.759 3640.59L479.277 3644.26L497.802 3636.6L483.668 3650.79L486.463 3653.58L500.597 3639.47L492.931 3657.97L496.684 3659.49L504.349 3640.99V3661H508.342V3640.99L516.008 3659.49L519.761 3657.97L512.095 3639.47L526.228 3653.58L529.023 3650.79L514.89 3636.68L533.415 3644.26L534.932 3640.59L516.407 3632.93H536.449V3628.95Z" fill="white"/>
<path d="M605.07 3628.95H585.028L603.553 3621.29L602.036 3617.54L583.511 3625.2L597.644 3611.09L594.85 3608.3L580.716 3622.41L588.382 3603.91L584.629 3602.4L576.963 3620.89V3600.88H572.971V3620.89L565.305 3602.4L561.552 3603.91L569.218 3622.41L555.084 3608.3L552.289 3611.09L566.423 3625.2L547.898 3617.54L546.381 3621.29L564.906 3628.95H544.863V3632.93H564.906L546.381 3640.59L547.898 3644.26L566.423 3636.6L552.289 3650.79L555.084 3653.58L569.218 3639.47L561.552 3657.97L565.305 3659.49L572.971 3640.99V3661H576.963V3640.99L584.629 3659.49L588.382 3657.97L580.716 3639.47L594.85 3653.58L597.644 3650.79L583.511 3636.68L602.036 3644.26L603.553 3640.59L585.028 3632.93H605.07V3628.95Z" fill="white"/>
<path d="M742.391 3628.95H722.348L740.873 3621.29L739.356 3617.54L720.831 3625.2L734.964 3611.09L732.17 3608.3L718.036 3622.41L725.702 3603.91L721.949 3602.4L714.283 3620.89V3600.88H710.291V3620.89L702.625 3602.4L698.872 3603.91L706.538 3622.41L692.404 3608.3L689.61 3611.09L703.743 3625.2L685.218 3617.54L683.701 3621.29L702.226 3628.95H682.184V3632.93H702.226L683.701 3640.59L685.218 3644.26L703.743 3636.6L689.61 3650.79L692.404 3653.58L706.538 3639.47L698.872 3657.97L702.625 3659.49L710.291 3640.99V3661H714.283V3640.99L721.949 3659.49L725.702 3657.97L718.036 3639.47L732.17 3653.58L734.964 3650.79L720.831 3636.68L739.356 3644.26L740.873 3640.59L722.348 3632.93H742.391V3628.95Z" fill="white"/>
<path d="M879.711 3632.93V3628.95H819.504V3632.93H879.711Z" fill="white"/>
<path d="M1017.03 3628.95H996.989L1015.51 3621.29L1014 3617.54L995.471 3625.2L1009.6 3611.09L1006.81 3608.3L992.677 3622.41L1000.34 3603.91L996.589 3602.4L988.924 3620.89V3600.88H984.931V3620.89L977.266 3602.4L973.513 3603.91L981.178 3622.41L967.045 3608.3L964.25 3611.09L978.384 3625.2L959.858 3617.54L958.341 3621.29L976.866 3628.95H956.824V3632.93H976.866L958.341 3640.59L959.858 3644.26L978.384 3636.6L964.25 3650.79L967.045 3653.58L981.178 3639.47L973.513 3657.97L977.266 3659.49L984.931 3640.99V3661H988.924V3640.99L996.589 3659.49L1000.34 3657.97L992.677 3639.47L1006.81 3653.58L1009.6 3650.79L995.471 3636.68L1014 3644.26L1015.51 3640.59L996.989 3632.93H1017.03V3628.95Z" fill="white"/>
<path d="M1085.65 3632.93V3628.95H1025.45V3632.93H1085.65Z" fill="white"/>
<path d="M2249.68 2936.32C2249.73 2903.11 2243.11 2870.23 2230.24 2839.62C2203.82 2776.85 2108.98 2795.72 2108.58 2863.82C2108.41 2897.03 2114.88 2929.94 2127.63 2960.6C2127.81 2961.05 2128 2961.49 2128.19 2961.94C2154.47 3024.39 2249.26 3005.53 2249.68 2937.77C2249.68 2937.29 2249.68 2936.81 2249.68 2936.32H2249.68Z" fill="#CCFF00"/>
<path d="M2588.99 2769.49C2576.33 2738.8 2557.64 2710.95 2534.03 2687.6C2485.6 2639.72 2405.2 2693.44 2430.89 2756.51C2443.44 2787.26 2462.01 2815.18 2485.52 2838.64L2486.55 2839.65C2534.73 2887.29 2615.12 2833.58 2589.51 2770.84C2589.37 2770.39 2589.18 2769.94 2588.99 2769.49Z" fill="#CCFF00"/>
<path d="M2838.63 2485.53C2815.18 2462.01 2787.25 2443.44 2756.5 2430.9C2693.45 2405.2 2639.72 2485.6 2687.59 2534.03C2710.95 2557.64 2738.8 2576.33 2769.5 2589L2770.83 2589.55C2833.59 2615.09 2887.29 2534.74 2839.66 2486.56L2838.63 2485.53Z" fill="#CCFF00"/>
<path d="M1063.68 2249.69C1096.89 2249.73 1129.77 2243.12 1160.39 2230.24C1223.15 2203.82 1204.28 2108.98 1136.18 2108.59C1102.97 2108.41 1070.06 2114.89 1039.4 2127.64L1038.06 2128.2C975.608 2154.48 994.469 2249.27 1062.23 2249.68L1063.68 2249.69Z" fill="#355104"/>
<path d="M1230.5 2588.99C1261.2 2576.32 1289.05 2557.63 1312.4 2534.03C1360.27 2485.6 1306.55 2405.2 1243.48 2430.89C1212.74 2443.43 1184.81 2462.01 1161.36 2485.52L1160.34 2486.55C1112.7 2534.73 1166.41 2615.12 1229.15 2589.55L1230.5 2588.99Z" fill="#355104"/>
<path d="M2936.32 1750.31C2903.11 1750.27 2870.23 1756.88 2839.61 1769.76C2776.85 1796.18 2795.72 1891.02 2863.81 1891.42C2897.02 1891.59 2929.94 1885.12 2960.6 1872.37L2961.94 1871.81C3024.38 1845.52 3005.53 1750.73 2937.77 1750.32L2936.32 1750.31Z" fill="#355104"/>
<path d="M2769.5 1411C2738.8 1423.67 2710.95 1442.36 2687.6 1465.97C2639.72 1514.4 2693.44 1594.81 2756.51 1569.11C2787.26 1556.57 2815.18 1537.99 2838.63 1514.48L2839.65 1513.45C2887.29 1465.26 2833.58 1384.88 2770.84 1410.45L2769.5 1411Z" fill="#355104"/>
<path d="M1750.31 1063.68C1750.27 1096.89 1756.88 1129.77 1769.75 1160.39C1796.18 1223.15 1891.02 1204.28 1891.41 1136.18C1891.59 1102.97 1885.11 1070.06 1872.36 1039.4C1872.18 1038.95 1871.99 1038.51 1871.8 1038.06C1845.52 975.609 1750.73 994.467 1750.32 1062.23C1750.32 1062.71 1750.32 1063.19 1750.32 1063.68H1750.31Z" fill="#355104"/>
<path d="M1411.01 1230.5C1423.68 1261.2 1442.37 1289.05 1465.98 1312.41C1514.41 1360.28 1594.81 1306.55 1569.11 1243.5C1556.57 1212.75 1537.99 1184.82 1514.48 1161.36L1513.45 1160.34C1465.27 1112.7 1384.89 1166.41 1410.46 1229.16C1410.64 1229.6 1410.82 1230.05 1411.01 1230.5Z" fill="#355104"/>
<path d="M1039.4 1872.37C1070.06 1885.11 1102.97 1891.59 1136.18 1891.42C1204.28 1891.02 1223.15 1796.18 1160.38 1769.76C1129.77 1756.88 1096.89 1750.27 1063.68 1750.31H1062.23C994.469 1750.7 975.608 1845.52 1038.06 1871.8L1039.4 1872.37Z" fill="#355104"/>
<path d="M1161.36 1514.48C1184.81 1537.99 1212.74 1556.57 1243.48 1569.11C1306.55 1594.81 1360.27 1514.41 1312.4 1465.98C1289.04 1442.37 1261.19 1423.68 1230.5 1411.01L1229.15 1410.46C1166.41 1384.89 1112.7 1465.27 1160.34 1513.45L1161.36 1514.48Z" fill="#355104"/>
<path d="M2960.6 2127.64C2929.94 2114.89 2897.02 2108.41 2863.81 2108.59C2795.72 2108.98 2776.85 2203.82 2839.61 2230.24C2870.23 2243.12 2903.11 2249.73 2936.32 2249.69H2937.77C3005.53 2249.31 3024.39 2154.49 2961.94 2128.2L2960.6 2127.64Z" fill="#355104"/>
<path d="M2127.63 1039.4C2114.88 1070.06 2108.41 1102.97 2108.58 1136.18C2108.98 1204.28 2203.82 1223.14 2230.24 1160.38C2243.11 1129.76 2249.73 1096.89 2249.68 1063.68C2249.68 1063.19 2249.68 1062.71 2249.68 1062.23C2249.3 994.475 2154.48 975.617 2128.2 1038.06C2128 1038.51 2127.81 1038.95 2127.63 1039.4Z" fill="#355104"/>
<path d="M2485.52 1161.36C2462.01 1184.82 2443.44 1212.74 2430.89 1243.49C2405.2 1306.55 2485.6 1360.28 2534.03 1312.41C2557.63 1289.05 2576.33 1261.2 2588.99 1230.5C2589.18 1230.05 2589.37 1229.61 2589.55 1229.16C2615.12 1166.41 2534.73 1112.7 2486.59 1160.34L2485.56 1161.36H2485.52Z" fill="#355104"/>
<path d="M1872.36 2960.6C1885.11 2929.94 1891.59 2897.03 1891.41 2863.82C1891.02 2795.72 1796.18 2776.85 1769.75 2839.62C1756.88 2870.23 1750.27 2903.11 1750.31 2936.32C1750.31 2936.81 1750.31 2937.29 1750.31 2937.77C1750.69 3005.53 1845.51 3024.39 1871.79 2961.94C1871.99 2961.49 1872.15 2961.05 1872.36 2960.6Z" fill="#355104"/>
<path d="M1514.48 2838.64C1537.99 2815.18 1556.57 2787.26 1569.11 2756.51C1594.81 2693.44 1514.41 2639.72 1465.98 2687.6C1442.37 2710.95 1423.68 2738.8 1411.01 2769.49C1410.82 2769.94 1410.64 2770.39 1410.46 2770.84C1384.89 2833.58 1465.27 2887.29 1513.45 2839.65L1514.48 2838.64Z" fill="#355104"/>
<defs>
<radialGradient id="paint0_radial_92_1001" cx="0" cy="0" r="1" gradientUnits="userSpaceOnUse" gradientTransform="translate(2000 2000) rotate(90) scale(1500)">
<stop stop-color="#355104"/>
<stop offset="1"/>
</radialGradient>
</defs>
</svg>
