<svg width="4000" height="4000" viewBox="0 0 4000 4000" fill="none" xmlns="http://www.w3.org/2000/svg">
<rect width="4000" height="4000" fill="black"/>
<rect opacity="0.2" x="500" y="500" width="3000" height="3000" rx="1500" fill="url(#paint0_radial_92_1003)"/>
<path d="M399.06 3513.05V3509.07H339V3513.05H399.06Z" fill="white"/>
<path d="M467.513 3509.07H447.52L466 3501.41L464.486 3497.66L446.006 3505.32L460.105 3491.21L457.317 3488.42L443.218 3502.53L450.865 3484.03L447.121 3482.51L439.475 3501.01V3481H435.492V3501.01L427.845 3482.51L424.101 3484.03L431.748 3502.53L417.649 3488.42L414.861 3491.21L428.96 3505.32L410.48 3497.66L408.967 3501.41L427.447 3509.07H407.453V3513.05H427.447L408.967 3520.71L410.48 3524.38L428.96 3516.72L414.861 3530.91L417.649 3533.7L431.748 3519.59L424.101 3538.09L427.845 3539.6L435.492 3521.11V3541.12H439.475V3521.11L447.121 3539.6L450.865 3538.09L443.218 3519.59L457.317 3533.7L460.105 3530.91L446.006 3516.8L464.486 3524.38L466 3520.71L447.52 3513.05H467.513V3509.07Z" fill="white"/>
<path d="M535.966 3513.05V3509.07H475.907V3513.05H535.966Z" fill="white"/>
<path d="M604.42 3509.07H584.426L602.906 3501.41L601.393 3497.66L582.913 3505.32L597.012 3491.21L594.224 3488.42L580.125 3502.53L587.772 3484.03L584.028 3482.51L576.381 3501.01V3481H572.399V3501.01L564.752 3482.51L561.008 3484.03L568.655 3502.53L554.556 3488.42L551.768 3491.21L565.867 3505.32L547.387 3497.66L545.874 3501.41L564.353 3509.07H544.36V3513.05H564.353L545.874 3520.71L547.387 3524.38L565.867 3516.72L551.768 3530.91L554.556 3533.7L568.655 3519.59L561.008 3538.09L564.752 3539.6L572.399 3521.11V3541.12H576.381V3521.11L584.028 3539.6L587.772 3538.09L580.125 3519.59L594.224 3533.7L597.012 3530.91L582.913 3516.8L601.393 3524.38L602.906 3520.71L584.426 3513.05H604.42V3509.07Z" fill="white"/>
<path d="M741.404 3509.07H721.411L739.891 3501.41L738.377 3497.66L719.897 3505.32L733.996 3491.21L731.208 3488.42L717.11 3502.53L724.756 3484.03L721.013 3482.51L713.366 3501.01V3481H709.383V3501.01L701.736 3482.51L697.992 3484.03L705.639 3502.53L691.54 3488.42L688.752 3491.21L702.851 3505.32L684.371 3497.66L682.858 3501.41L701.338 3509.07H681.345V3513.05H701.338L682.858 3520.71L684.371 3524.38L702.851 3516.72L688.752 3530.91L691.54 3533.7L705.639 3519.59L697.992 3538.09L701.736 3539.6L709.383 3521.11V3541.12H713.366V3521.11L721.013 3539.6L724.756 3538.09L717.11 3519.59L731.208 3533.7L733.996 3530.91L719.897 3516.8L738.377 3524.38L739.891 3520.71L721.411 3513.05H741.404V3509.07Z" fill="white"/>
<path d="M809.858 3513.05V3509.07H749.798V3513.05H809.858Z" fill="white"/>
<path d="M878.311 3509.07H858.318L876.798 3501.41L875.284 3497.66L856.804 3505.32L870.903 3491.21L868.115 3488.42L854.016 3502.53L861.663 3484.03L857.919 3482.51L850.272 3501.01V3481H846.29V3501.01L838.643 3482.51L834.899 3484.03L842.546 3502.53L828.447 3488.42L825.659 3491.21L839.758 3505.32L821.278 3497.66L819.765 3501.41L838.245 3509.07H818.251V3513.05H838.245L819.765 3520.71L821.278 3524.38L839.758 3516.72L825.659 3530.91L828.447 3533.7L842.546 3519.59L834.899 3538.09L838.643 3539.6L846.29 3521.11V3541.12H850.272V3521.11L857.919 3539.6L861.663 3538.09L854.016 3519.59L868.115 3533.7L870.903 3530.91L856.804 3516.8L875.284 3524.38L876.798 3520.71L858.318 3513.05H878.311V3509.07Z" fill="white"/>
<path d="M946.764 3509.07H926.771L945.251 3501.41L943.737 3497.66L925.257 3505.32L939.356 3491.21L936.568 3488.42L922.47 3502.53L930.116 3484.03L926.373 3482.51L918.726 3501.01V3481H914.743V3501.01L907.096 3482.51L903.352 3484.03L910.999 3502.53L896.9 3488.42L894.112 3491.21L908.211 3505.32L889.732 3497.66L888.218 3501.41L906.698 3509.07H886.705V3513.05H906.698L888.218 3520.71L889.732 3524.38L908.211 3516.72L894.112 3530.91L896.9 3533.7L910.999 3519.59L903.352 3538.09L907.096 3539.6L914.743 3521.11V3541.12H918.726V3521.11L926.373 3539.6L930.116 3538.09L922.47 3519.59L936.568 3533.7L939.356 3530.91L925.257 3516.8L943.737 3524.38L945.251 3520.71L926.771 3513.05H946.764V3509.07Z" fill="white"/>
<path d="M1083.75 3509.07H1063.76L1082.24 3501.41L1080.72 3497.66L1062.24 3505.32L1076.34 3491.21L1073.55 3488.42L1059.45 3502.53L1067.1 3484.03L1063.36 3482.51L1055.71 3501.01V3481H1051.73V3501.01L1044.08 3482.51L1040.34 3484.03L1047.98 3502.53L1033.88 3488.42L1031.1 3491.21L1045.2 3505.32L1026.72 3497.66L1025.2 3501.41L1043.68 3509.07H1023.69V3513.05H1043.68L1025.2 3520.71L1026.72 3524.38L1045.2 3516.72L1031.1 3530.91L1033.88 3533.7L1047.98 3519.59L1040.34 3538.09L1044.08 3539.6L1051.73 3521.11V3541.12H1055.71V3521.11L1063.36 3539.6L1067.1 3538.09L1059.45 3519.59L1073.55 3533.7L1076.34 3530.91L1062.24 3516.8L1080.72 3524.38L1082.24 3520.71L1063.76 3513.05H1083.75V3509.07Z" fill="white"/>
<path d="M1152.2 3509.07H1132.21L1150.69 3501.41L1149.18 3497.66L1130.7 3505.32L1144.79 3491.21L1142.01 3488.42L1127.91 3502.53L1135.55 3484.03L1131.81 3482.51L1124.16 3501.01V3481H1120.18V3501.01L1112.53 3482.51L1108.79 3484.03L1116.44 3502.53L1102.34 3488.42L1099.55 3491.21L1113.65 3505.32L1095.17 3497.66L1093.66 3501.41L1112.14 3509.07H1092.14V3513.05H1112.14L1093.66 3520.71L1095.17 3524.38L1113.65 3516.72L1099.55 3530.91L1102.34 3533.7L1116.44 3519.59L1108.79 3538.09L1112.53 3539.6L1120.18 3521.11V3541.12H1124.16V3521.11L1131.81 3539.6L1135.55 3538.09L1127.91 3519.59L1142.01 3533.7L1144.79 3530.91L1130.7 3516.8L1149.18 3524.38L1150.69 3520.71L1132.21 3513.05H1152.2V3509.07Z" fill="white"/>
<path d="M1220.66 3513.05V3509.07H1160.6V3513.05H1220.66Z" fill="white"/>
<path d="M1357.64 3513.05V3509.07H1297.58V3513.05H1357.64Z" fill="white"/>
<path d="M1426.09 3509.07H1406.1L1424.58 3501.41L1423.07 3497.66L1404.59 3505.32L1418.69 3491.21L1415.9 3488.42L1401.8 3502.53L1409.45 3484.03L1405.7 3482.51L1398.05 3501.01V3481H1394.07V3501.01L1386.43 3482.51L1382.68 3484.03L1390.33 3502.53L1376.23 3488.42L1373.44 3491.21L1387.54 3505.32L1369.06 3497.66L1367.55 3501.41L1386.03 3509.07H1366.03V3513.05H1386.03L1367.55 3520.71L1369.06 3524.38L1387.54 3516.72L1373.44 3530.91L1376.23 3533.7L1390.33 3519.59L1382.68 3538.09L1386.43 3539.6L1394.07 3521.11V3541.12H1398.05V3521.11L1405.7 3539.6L1409.45 3538.09L1401.8 3519.59L1415.9 3533.7L1418.69 3530.91L1404.59 3516.8L1423.07 3524.38L1424.58 3520.71L1406.1 3513.05H1426.09V3509.07Z" fill="white"/>
<path d="M1494.55 3509.07H1474.55L1493.03 3501.41L1491.52 3497.66L1473.04 3505.32L1487.14 3491.21L1484.35 3488.42L1470.25 3502.53L1477.9 3484.03L1474.16 3482.51L1466.51 3501.01V3481H1462.53V3501.01L1454.88 3482.51L1451.13 3484.03L1458.78 3502.53L1444.68 3488.42L1441.89 3491.21L1455.99 3505.32L1437.51 3497.66L1436 3501.41L1454.48 3509.07H1434.49V3513.05H1454.48L1436 3520.71L1437.51 3524.38L1455.99 3516.72L1441.89 3530.91L1444.68 3533.7L1458.78 3519.59L1451.13 3538.09L1454.88 3539.6L1462.53 3521.11V3541.12H1466.51V3521.11L1474.16 3539.6L1477.9 3538.09L1470.25 3519.59L1484.35 3533.7L1487.14 3530.91L1473.04 3516.8L1491.52 3524.38L1493.03 3520.71L1474.55 3513.05H1494.55V3509.07Z" fill="white"/>
<path d="M1563 3509.07H1543.01L1561.49 3501.41L1559.97 3497.66L1541.49 3505.32L1555.59 3491.21L1552.8 3488.42L1538.71 3502.53L1546.35 3484.03L1542.61 3482.51L1534.96 3501.01V3481H1530.98V3501.01L1523.33 3482.51L1519.59 3484.03L1527.23 3502.53L1513.14 3488.42L1510.35 3491.21L1524.45 3505.32L1505.97 3497.66L1504.45 3501.41L1522.93 3509.07H1502.94V3513.05H1522.93L1504.45 3520.71L1505.97 3524.38L1524.45 3516.72L1510.35 3530.91L1513.14 3533.7L1527.23 3519.59L1519.59 3538.09L1523.33 3539.6L1530.98 3521.11V3541.12H1534.96V3521.11L1542.61 3539.6L1546.35 3538.09L1538.71 3519.59L1552.8 3533.7L1555.59 3530.91L1541.49 3516.8L1559.97 3524.38L1561.49 3520.71L1543.01 3513.05H1563V3509.07Z" fill="white"/>
<path d="M399.06 3632.93V3628.95H339V3632.93H399.06Z" fill="white"/>
<path d="M467.513 3628.95H447.52L466 3621.29L464.486 3617.54L446.006 3625.2L460.105 3611.09L457.317 3608.3L443.218 3622.41L450.865 3603.91L447.121 3602.4L439.475 3620.89V3600.88H435.492V3620.89L427.845 3602.4L424.101 3603.91L431.748 3622.41L417.649 3608.3L414.861 3611.09L428.96 3625.2L410.48 3617.54L408.967 3621.29L427.447 3628.95H407.453V3632.93H427.447L408.967 3640.59L410.48 3644.26L428.96 3636.6L414.861 3650.79L417.649 3653.58L431.748 3639.47L424.101 3657.97L427.845 3659.49L435.492 3640.99V3661H439.475V3640.99L447.121 3659.49L450.865 3657.97L443.218 3639.47L457.317 3653.58L460.105 3650.79L446.006 3636.68L464.486 3644.26L466 3640.59L447.52 3632.93H467.513V3628.95Z" fill="white"/>
<path d="M535.966 3628.95H515.973L534.453 3621.29L532.94 3617.54L514.46 3625.2L528.559 3611.09L525.771 3608.3L511.672 3622.41L519.319 3603.91L515.575 3602.4L507.928 3620.89V3600.88H503.945V3620.89L496.298 3602.4L492.555 3603.91L500.201 3622.41L486.103 3608.3L483.315 3611.09L497.413 3625.2L478.934 3617.54L477.42 3621.29L495.9 3628.95H475.907V3632.93H495.9L477.42 3640.59L478.934 3644.26L497.413 3636.6L483.315 3650.79L486.103 3653.58L500.201 3639.47L492.555 3657.97L496.298 3659.49L503.945 3640.99V3661H507.928V3640.99L515.575 3659.49L519.319 3657.97L511.672 3639.47L525.771 3653.58L528.559 3650.79L514.46 3636.68L532.94 3644.26L534.453 3640.59L515.973 3632.93H535.966V3628.95Z" fill="white"/>
<path d="M672.951 3628.95H652.958L671.438 3621.29L669.924 3617.54L651.444 3625.2L665.543 3611.09L662.755 3608.3L648.656 3622.41L656.303 3603.91L652.559 3602.4L644.912 3620.89V3600.88H640.93V3620.89L633.283 3602.4L629.539 3603.91L637.186 3622.41L623.087 3608.3L620.299 3611.09L634.398 3625.2L615.918 3617.54L614.405 3621.29L632.885 3628.95H612.891V3632.93H632.885L614.405 3640.59L615.918 3644.26L634.398 3636.6L620.299 3650.79L623.087 3653.58L637.186 3639.47L629.539 3657.97L633.283 3659.49L640.93 3640.99V3661H644.912V3640.99L652.559 3659.49L656.303 3657.97L648.656 3639.47L662.755 3653.58L665.543 3650.79L651.444 3636.68L669.924 3644.26L671.438 3640.59L652.958 3632.93H672.951V3628.95Z" fill="white"/>
<path d="M809.935 3628.95H789.942L808.422 3621.29L806.909 3617.54L788.429 3625.2L802.527 3611.09L799.74 3608.3L785.641 3622.41L793.288 3603.91L789.544 3602.4L781.897 3620.89V3600.88H777.914V3620.89L770.267 3602.4L766.524 3603.91L774.17 3622.41L760.072 3608.3L757.284 3611.09L771.383 3625.2L752.903 3617.54L751.389 3621.29L769.869 3628.95H749.876V3632.93H769.869L751.389 3640.59L752.903 3644.26L771.383 3636.6L757.284 3650.79L760.072 3653.58L774.17 3639.47L766.524 3657.97L770.267 3659.49L777.914 3640.99V3661H781.897V3640.99L789.544 3659.49L793.288 3657.97L785.641 3639.47L799.74 3653.58L802.527 3650.79L788.429 3636.68L806.909 3644.26L808.422 3640.59L789.942 3632.93H809.935V3628.95Z" fill="white"/>
<path d="M878.389 3632.93V3628.95H818.329V3632.93H878.389Z" fill="white"/>
<path d="M946.842 3628.95H926.849L945.329 3621.29L943.815 3617.54L925.335 3625.2L939.434 3611.09L936.646 3608.3L922.547 3622.41L930.194 3603.91L926.45 3602.4L918.804 3620.89V3600.88H914.821V3620.89L907.174 3602.4L903.43 3603.91L911.077 3622.41L896.978 3608.3L894.19 3611.09L908.289 3625.2L889.809 3617.54L888.296 3621.29L906.776 3628.95H886.782V3632.93H906.776L888.296 3640.59L889.809 3644.26L908.289 3636.6L894.19 3650.79L896.978 3653.58L911.077 3639.47L903.43 3657.97L907.174 3659.49L914.821 3640.99V3661H918.804V3640.99L926.45 3659.49L930.194 3657.97L922.547 3639.47L936.646 3653.58L939.434 3650.79L925.335 3636.68L943.815 3644.26L945.329 3640.59L926.849 3632.93H946.842V3628.95Z" fill="white"/>
<path d="M1015.3 3628.95H995.302L1013.78 3621.29L1012.27 3617.54L993.789 3625.2L1007.89 3611.09L1005.1 3608.3L991.001 3622.41L998.648 3603.91L994.904 3602.4L987.257 3620.89V3600.88H983.274V3620.89L975.627 3602.4L971.884 3603.91L979.53 3622.41L965.432 3608.3L962.644 3611.09L976.742 3625.2L958.263 3617.54L956.749 3621.29L975.229 3628.95H955.236V3632.93H975.229L956.749 3640.59L958.263 3644.26L976.742 3636.6L962.644 3650.79L965.432 3653.58L979.53 3639.47L971.884 3657.97L975.627 3659.49L983.274 3640.99V3661H987.257V3640.99L994.904 3659.49L998.648 3657.97L991.001 3639.47L1005.1 3653.58L1007.89 3650.79L993.789 3636.68L1012.27 3644.26L1013.78 3640.59L995.302 3632.93H1015.3V3628.95Z" fill="white"/>
<path d="M1152.28 3632.93V3628.95H1092.22V3632.93H1152.28Z" fill="white"/>
<path d="M1289.26 3628.95H1269.27L1287.75 3621.29L1286.24 3617.54L1267.76 3625.2L1281.86 3611.09L1279.07 3608.3L1264.97 3622.41L1272.62 3603.91L1268.87 3602.4L1261.23 3620.89V3600.88H1257.24V3620.89L1249.6 3602.4L1245.85 3603.91L1253.5 3622.41L1239.4 3608.3L1236.61 3611.09L1250.71 3625.2L1232.23 3617.54L1230.72 3621.29L1249.2 3628.95H1229.2V3632.93H1249.2L1230.72 3640.59L1232.23 3644.26L1250.71 3636.6L1236.61 3650.79L1239.4 3653.58L1253.5 3639.47L1245.85 3657.97L1249.6 3659.49L1257.24 3640.99V3661H1261.23V3640.99L1268.87 3659.49L1272.62 3657.97L1264.97 3639.47L1279.07 3653.58L1281.86 3650.79L1267.76 3636.68L1286.24 3644.26L1287.75 3640.59L1269.27 3632.93H1289.26V3628.95Z" fill="white"/>
<path d="M1357.72 3632.93V3628.95H1297.66V3632.93H1357.72Z" fill="white"/>
<path d="M1750.31 1063.68C1750.27 1096.89 1756.88 1129.77 1769.76 1160.39C1796.18 1223.15 1891.02 1204.28 1891.41 1136.18C1891.59 1102.97 1885.11 1070.06 1872.36 1039.4L1871.8 1038.06C1845.52 975.608 1750.73 994.469 1750.32 1062.23L1750.31 1063.68Z" fill="#CCFF00"/>
<path d="M1411.01 1230.5C1423.68 1261.2 1442.37 1289.05 1465.97 1312.4C1514.4 1360.27 1594.8 1306.55 1569.11 1243.48C1556.57 1212.74 1537.99 1184.81 1514.48 1161.36L1513.45 1160.34C1465.27 1112.7 1384.88 1166.41 1410.45 1229.15L1411.01 1230.5Z" fill="#CCFF00"/>
<path d="M2249.69 2936.32C2249.73 2903.11 2243.12 2870.23 2230.24 2839.61C2203.82 2776.85 2108.98 2795.72 2108.58 2863.81C2108.41 2897.02 2114.88 2929.94 2127.63 2960.6L2128.19 2961.94C2154.48 3024.38 2249.27 3005.53 2249.68 2937.77L2249.69 2936.32Z" fill="#CCFF00"/>
<path d="M2589 2769.5C2576.33 2738.8 2557.64 2710.95 2534.03 2687.6C2485.6 2639.72 2405.19 2693.44 2430.89 2756.51C2443.43 2787.26 2462.01 2815.18 2485.52 2838.63L2486.55 2839.65C2534.74 2887.29 2615.12 2833.58 2589.55 2770.84L2589 2769.5Z" fill="#CCFF00"/>
<path d="M2936.32 1750.31C2903.11 1750.27 2870.23 1756.88 2839.61 1769.75C2776.85 1796.18 2795.72 1891.02 2863.82 1891.41C2897.03 1891.59 2929.94 1885.11 2960.6 1872.36C2961.05 1872.18 2961.49 1871.99 2961.94 1871.8C3024.39 1845.52 3005.53 1750.73 2937.77 1750.32C2937.29 1750.32 2936.81 1750.32 2936.32 1750.32V1750.31Z" fill="#CCFF00"/>
<path d="M2769.5 1411.01C2738.8 1423.68 2710.95 1442.37 2687.59 1465.98C2639.72 1514.41 2693.45 1594.81 2756.5 1569.11C2787.25 1556.57 2815.18 1537.99 2838.64 1514.48L2839.66 1513.45C2887.3 1465.27 2833.59 1384.89 2770.84 1410.46C2770.4 1410.64 2769.95 1410.82 2769.5 1411.01Z" fill="#CCFF00"/>
<path d="M1063.68 2249.68C1096.89 2249.73 1129.77 2243.11 1160.38 2230.24C1223.15 2203.82 1204.28 2108.98 1136.18 2108.58C1102.97 2108.41 1070.06 2114.88 1039.4 2127.63C1038.95 2127.81 1038.51 2128 1038.06 2128.19C975.609 2154.47 994.47 2249.26 1062.23 2249.68C1062.71 2249.68 1063.19 2249.68 1063.68 2249.68V2249.68Z" fill="#CCFF00"/>
<path d="M1230.51 2588.99C1261.2 2576.33 1289.05 2557.64 1312.4 2534.03C1360.28 2485.6 1306.56 2405.2 1243.49 2430.89C1212.74 2443.44 1184.82 2462.01 1161.36 2485.52L1160.35 2486.55C1112.71 2534.73 1166.42 2615.12 1229.16 2589.51C1229.61 2589.37 1230.06 2589.18 1230.51 2588.99Z" fill="#CCFF00"/>
<path d="M2127.63 1039.4C2114.89 1070.06 2108.41 1102.97 2108.58 1136.18C2108.98 1204.28 2203.82 1223.15 2230.24 1160.38C2243.12 1129.77 2249.73 1096.89 2249.69 1063.68V1062.23C2249.3 994.469 2154.48 975.608 2128.2 1038.06L2127.63 1039.4Z" fill="#CCFF00"/>
<path d="M2485.52 1161.36C2462.01 1184.81 2443.43 1212.74 2430.89 1243.48C2405.19 1306.55 2485.59 1360.27 2534.02 1312.4C2557.63 1289.04 2576.32 1261.19 2588.99 1230.5L2589.54 1229.15C2615.11 1166.41 2534.73 1112.7 2486.55 1160.34L2485.52 1161.36Z" fill="#CCFF00"/>
<path d="M1872.36 2960.6C1885.11 2929.94 1891.59 2897.02 1891.41 2863.81C1891.02 2795.72 1796.18 2776.85 1769.76 2839.61C1756.88 2870.23 1750.27 2903.11 1750.31 2936.32V2937.77C1750.69 3005.53 1845.51 3024.39 1871.8 2961.94L1872.36 2960.6Z" fill="#CCFF00"/>
<path d="M1514.47 2838.63C1537.99 2815.18 1556.56 2787.25 1569.1 2756.5C1594.8 2693.45 1514.4 2639.72 1465.97 2687.59C1442.36 2710.95 1423.67 2738.8 1411 2769.5L1410.45 2770.83C1384.92 2833.59 1465.26 2887.29 1513.44 2839.66L1514.47 2838.63Z" fill="#CCFF00"/>
<path d="M2960.6 2127.63C2929.94 2114.88 2897.03 2108.41 2863.82 2108.58C2795.72 2108.98 2776.86 2203.82 2839.62 2230.24C2870.24 2243.11 2903.11 2249.73 2936.32 2249.68C2936.81 2249.68 2937.29 2249.68 2937.77 2249.68C3005.53 2249.3 3024.38 2154.48 2961.94 2128.2C2961.49 2128 2961.05 2127.81 2960.6 2127.63Z" fill="#CCFF00"/>
<path d="M2838.64 2485.52C2815.18 2462.01 2787.26 2443.44 2756.51 2430.89C2693.45 2405.2 2639.72 2485.6 2687.59 2534.03C2710.95 2557.63 2738.8 2576.33 2769.5 2588.99C2769.95 2589.18 2770.39 2589.37 2770.84 2589.55C2833.59 2615.12 2887.3 2534.73 2839.66 2486.59L2838.64 2485.56V2485.52Z" fill="#CCFF00"/>
<path d="M1039.4 1872.36C1070.06 1885.11 1102.97 1891.59 1136.18 1891.41C1204.28 1891.02 1223.15 1796.18 1160.38 1769.75C1129.77 1756.88 1096.89 1750.27 1063.68 1750.31C1063.19 1750.31 1062.71 1750.31 1062.23 1750.31C994.47 1750.69 975.609 1845.51 1038.06 1871.79C1038.51 1871.99 1038.95 1872.15 1039.4 1872.36Z" fill="#CCFF00"/>
<path d="M1161.36 1514.48C1184.82 1537.99 1212.74 1556.57 1243.49 1569.11C1306.56 1594.81 1360.28 1514.41 1312.4 1465.98C1289.05 1442.37 1261.2 1423.68 1230.51 1411.01C1230.06 1410.82 1229.61 1410.64 1229.16 1410.46C1166.42 1384.89 1112.71 1465.27 1160.35 1513.45L1161.36 1514.48Z" fill="#CCFF00"/>
<defs>
<radialGradient id="paint0_radial_92_1003" cx="0" cy="0" r="1" gradientUnits="userSpaceOnUse" gradientTransform="translate(2000 2000) rotate(90) scale(1500)">
<stop stop-color="#CCFF00"/>
<stop offset="1"/>
</radialGradient>
</defs>
</svg>
