<svg width="4000" height="4000" viewBox="0 0 4000 4000" fill="none" xmlns="http://www.w3.org/2000/svg">
<rect width="4000" height="4000" fill="black"/>
<rect opacity="0.15" x="500" y="500" width="3000" height="3000" rx="1500" fill="url(#paint0_radial_92_1002)"/>
<path d="M399.109 3513.05V3509.07H339V3513.05H399.109Z" fill="white"/>
<path d="M467.618 3509.07H447.608L466.103 3501.41L464.589 3497.66L446.094 3505.32L460.204 3491.21L457.414 3488.42L443.304 3502.53L450.957 3484.03L447.21 3482.51L439.557 3501.01V3481H435.571V3501.01L427.918 3482.51L424.171 3484.03L431.824 3502.53L417.713 3488.42L414.923 3491.21L429.034 3505.32L410.539 3497.66L409.024 3501.41L427.519 3509.07H407.509V3513.05H427.519L409.024 3520.71L410.539 3524.38L429.034 3516.72L414.923 3530.91L417.713 3533.7L431.824 3519.59L424.171 3538.09L427.918 3539.6L435.571 3521.11V3541.12H439.557V3521.11L447.21 3539.6L450.957 3538.09L443.304 3519.59L457.414 3533.7L460.204 3530.91L446.094 3516.8L464.589 3524.38L466.103 3520.71L447.608 3513.05H467.618V3509.07Z" fill="white"/>
<path d="M536.127 3513.05V3509.07H476.019V3513.05H536.127Z" fill="white"/>
<path d="M604.637 3509.07H584.627L603.122 3501.41L601.607 3497.66L583.112 3505.32L597.223 3491.21L594.432 3488.42L580.322 3502.53L587.975 3484.03L584.228 3482.51L576.575 3501.01V3481H572.589V3501.01L564.936 3482.51L561.189 3484.03L568.842 3502.53L554.732 3488.42L551.942 3491.21L566.052 3505.32L547.557 3497.66L546.043 3501.41L564.538 3509.07H544.528V3513.05H564.538L546.043 3520.71L547.557 3524.38L566.052 3516.72L551.942 3530.91L554.732 3533.7L568.842 3519.59L561.189 3538.09L564.936 3539.6L572.589 3521.11V3541.12H576.575V3521.11L584.228 3539.6L587.975 3538.09L580.322 3519.59L594.432 3533.7L597.223 3530.91L583.112 3516.8L601.607 3524.38L603.122 3520.71L584.627 3513.05H604.637V3509.07Z" fill="white"/>
<path d="M741.733 3509.07H721.723L740.218 3501.41L738.704 3497.66L720.209 3505.32L734.319 3491.21L731.529 3488.42L717.418 3502.53L725.072 3484.03L721.325 3482.51L713.672 3501.01V3481H709.686V3501.01L702.033 3482.51L698.286 3484.03L705.939 3502.53L691.828 3488.42L689.038 3491.21L703.149 3505.32L684.654 3497.66L683.139 3501.41L701.634 3509.07H681.624V3513.05H701.634L683.139 3520.71L684.654 3524.38L703.149 3516.72L689.038 3530.91L691.828 3533.7L705.939 3519.59L698.286 3538.09L702.033 3539.6L709.686 3521.11V3541.12H713.672V3521.11L721.325 3539.6L725.072 3538.09L717.418 3519.59L731.529 3533.7L734.319 3530.91L720.209 3516.8L738.704 3524.38L740.218 3520.71L721.723 3513.05H741.733V3509.07Z" fill="white"/>
<path d="M810.242 3513.05V3509.07H750.134V3513.05H810.242Z" fill="white"/>
<path d="M878.752 3509.07H858.742L877.237 3501.41L875.722 3497.66L857.227 3505.32L871.338 3491.21L868.547 3488.42L854.437 3502.53L862.09 3484.03L858.343 3482.51L850.69 3501.01V3481H846.704V3501.01L839.051 3482.51L835.304 3484.03L842.957 3502.53L828.847 3488.42L826.057 3491.21L840.167 3505.32L821.672 3497.66L820.157 3501.41L838.652 3509.07H818.643V3513.05H838.652L820.157 3520.71L821.672 3524.38L840.167 3516.72L826.057 3530.91L828.847 3533.7L842.957 3519.59L835.304 3538.09L839.051 3539.6L846.704 3521.11V3541.12H850.69V3521.11L858.343 3539.6L862.09 3538.09L854.437 3519.59L868.547 3533.7L871.338 3530.91L857.227 3516.8L875.722 3524.38L877.237 3520.71L858.742 3513.05H878.752V3509.07Z" fill="white"/>
<path d="M947.261 3509.07H927.251L945.746 3501.41L944.231 3497.66L925.736 3505.32L939.847 3491.21L937.057 3488.42L922.946 3502.53L930.599 3484.03L926.853 3482.51L919.199 3501.01V3481H915.213V3501.01L907.56 3482.51L903.814 3484.03L911.467 3502.53L897.356 3488.42L894.566 3491.21L908.676 3505.32L890.181 3497.66L888.667 3501.41L907.162 3509.07H887.152V3513.05H907.162L888.667 3520.71L890.181 3524.38L908.676 3516.72L894.566 3530.91L897.356 3533.7L911.467 3519.59L903.814 3538.09L907.56 3539.6L915.213 3521.11V3541.12H919.199V3521.11L926.853 3539.6L930.599 3538.09L922.946 3519.59L937.057 3533.7L939.847 3530.91L925.736 3516.8L944.231 3524.38L945.746 3520.71L927.251 3513.05H947.261V3509.07Z" fill="white"/>
<path d="M1084.36 3509.07H1064.35L1082.84 3501.41L1081.33 3497.66L1062.83 3505.32L1076.94 3491.21L1074.15 3488.42L1060.04 3502.53L1067.7 3484.03L1063.95 3482.51L1056.3 3501.01V3481H1052.31V3501.01L1044.66 3482.51L1040.91 3484.03L1048.56 3502.53L1034.45 3488.42L1031.66 3491.21L1045.77 3505.32L1027.28 3497.66L1025.76 3501.41L1044.26 3509.07H1024.25V3513.05H1044.26L1025.76 3520.71L1027.28 3524.38L1045.77 3516.72L1031.66 3530.91L1034.45 3533.7L1048.56 3519.59L1040.91 3538.09L1044.66 3539.6L1052.31 3521.11V3541.12H1056.3V3521.11L1063.95 3539.6L1067.7 3538.09L1060.04 3519.59L1074.15 3533.7L1076.94 3530.91L1062.83 3516.8L1081.33 3524.38L1082.84 3520.71L1064.35 3513.05H1084.36V3509.07Z" fill="white"/>
<path d="M1152.87 3509.07H1132.86L1151.35 3501.41L1149.84 3497.66L1131.34 3505.32L1145.45 3491.21L1142.66 3488.42L1128.55 3502.53L1136.21 3484.03L1132.46 3482.51L1124.81 3501.01V3481H1120.82V3501.01L1113.17 3482.51L1109.42 3484.03L1117.07 3502.53L1102.96 3488.42L1100.17 3491.21L1114.28 3505.32L1095.79 3497.66L1094.27 3501.41L1112.77 3509.07H1092.76V3513.05H1112.77L1094.27 3520.71L1095.79 3524.38L1114.28 3516.72L1100.17 3530.91L1102.96 3533.7L1117.07 3519.59L1109.42 3538.09L1113.17 3539.6L1120.82 3521.11V3541.12H1124.81V3521.11L1132.46 3539.6L1136.21 3538.09L1128.55 3519.59L1142.66 3533.7L1145.45 3530.91L1131.34 3516.8L1149.84 3524.38L1151.35 3520.71L1132.86 3513.05H1152.87V3509.07Z" fill="white"/>
<path d="M1221.38 3513.05V3509.07H1161.27V3513.05H1221.38Z" fill="white"/>
<path d="M1358.47 3513.05V3509.07H1298.36V3513.05H1358.47Z" fill="white"/>
<path d="M1426.98 3509.07H1406.97L1425.47 3501.41L1423.95 3497.66L1405.46 3505.32L1419.57 3491.21L1416.78 3488.42L1402.67 3502.53L1410.32 3484.03L1406.57 3482.51L1398.92 3501.01V3481H1394.93V3501.01L1387.28 3482.51L1383.53 3484.03L1391.19 3502.53L1377.08 3488.42L1374.29 3491.21L1388.4 3505.32L1369.9 3497.66L1368.39 3501.41L1386.88 3509.07H1366.87V3513.05H1386.88L1368.39 3520.71L1369.9 3524.38L1388.4 3516.72L1374.29 3530.91L1377.08 3533.7L1391.19 3519.59L1383.53 3538.09L1387.28 3539.6L1394.93 3521.11V3541.12H1398.92V3521.11L1406.57 3539.6L1410.32 3538.09L1402.67 3519.59L1416.78 3533.7L1419.57 3530.91L1405.46 3516.8L1423.95 3524.38L1425.47 3520.71L1406.97 3513.05H1426.98V3509.07Z" fill="white"/>
<path d="M1495.49 3509.07H1475.48L1493.98 3501.41L1492.46 3497.66L1473.97 3505.32L1488.08 3491.21L1485.29 3488.42L1471.18 3502.53L1478.83 3484.03L1475.08 3482.51L1467.43 3501.01V3481H1463.44V3501.01L1455.79 3482.51L1452.04 3484.03L1459.7 3502.53L1445.59 3488.42L1442.8 3491.21L1456.91 3505.32L1438.41 3497.66L1436.9 3501.41L1455.39 3509.07H1435.38V3513.05H1455.39L1436.9 3520.71L1438.41 3524.38L1456.91 3516.72L1442.8 3530.91L1445.59 3533.7L1459.7 3519.59L1452.04 3538.09L1455.79 3539.6L1463.44 3521.11V3541.12H1467.43V3521.11L1475.08 3539.6L1478.83 3538.09L1471.18 3519.59L1485.29 3533.7L1488.08 3530.91L1473.97 3516.8L1492.46 3524.38L1493.98 3520.71L1475.48 3513.05H1495.49V3509.07Z" fill="white"/>
<path d="M1564 3509.07H1543.99L1562.49 3501.41L1560.97 3497.66L1542.48 3505.32L1556.59 3491.21L1553.8 3488.42L1539.69 3502.53L1547.34 3484.03L1543.59 3482.51L1535.94 3501.01V3481H1531.95V3501.01L1524.3 3482.51L1520.55 3484.03L1528.21 3502.53L1514.1 3488.42L1511.31 3491.21L1525.42 3505.32L1506.92 3497.66L1505.41 3501.41L1523.9 3509.07H1503.89V3513.05H1523.9L1505.41 3520.71L1506.92 3524.38L1525.42 3516.72L1511.31 3530.91L1514.1 3533.7L1528.21 3519.59L1520.55 3538.09L1524.3 3539.6L1531.95 3521.11V3541.12H1535.94V3521.11L1543.59 3539.6L1547.34 3538.09L1539.69 3519.59L1553.8 3533.7L1556.59 3530.91L1542.48 3516.8L1560.97 3524.38L1562.49 3520.71L1543.99 3513.05H1564V3509.07Z" fill="white"/>
<path d="M399.109 3632.93V3628.95H339V3632.93H399.109Z" fill="white"/>
<path d="M467.618 3632.93V3628.95H407.509V3632.93H467.618Z" fill="white"/>
<path d="M536.127 3628.95H516.118L534.613 3621.29L533.098 3617.54L514.603 3625.2L528.713 3611.09L525.923 3608.3L511.813 3622.41L519.466 3603.91L515.719 3602.4L508.066 3620.89V3600.88H504.08V3620.89L496.427 3602.4L492.68 3603.91L500.333 3622.41L486.223 3608.3L483.433 3611.09L497.543 3625.2L479.048 3617.54L477.533 3621.29L496.028 3628.95H476.019V3632.93H496.028L477.533 3640.59L479.048 3644.26L497.543 3636.6L483.433 3650.79L486.223 3653.58L500.333 3639.47L492.68 3657.97L496.427 3659.49L504.08 3640.99V3661H508.066V3640.99L515.719 3659.49L519.466 3657.97L511.813 3639.47L525.923 3653.58L528.713 3650.79L514.603 3636.68L533.098 3644.26L534.613 3640.59L516.118 3632.93H536.127V3628.95Z" fill="white"/>
<path d="M673.224 3628.95H653.214L671.709 3621.29L670.194 3617.54L651.699 3625.2L665.81 3611.09L663.02 3608.3L648.909 3622.41L656.562 3603.91L652.815 3602.4L645.162 3620.89V3600.88H641.176V3620.89L633.523 3602.4L629.776 3603.91L637.43 3622.41L623.319 3608.3L620.529 3611.09L634.639 3625.2L616.144 3617.54L614.63 3621.29L633.125 3628.95H613.115V3632.93H633.125L614.63 3640.59L616.144 3644.26L634.639 3636.6L620.529 3650.79L623.319 3653.58L637.43 3639.47L629.776 3657.97L633.523 3659.49L641.176 3640.99V3661H645.162V3640.99L652.815 3659.49L656.562 3657.97L648.909 3639.47L663.02 3653.58L665.81 3650.79L651.699 3636.68L670.194 3644.26L671.709 3640.59L653.214 3632.93H673.224V3628.95Z" fill="white"/>
<path d="M741.733 3632.93V3628.95H681.624V3632.93H741.733Z" fill="white"/>
<path d="M878.829 3632.93V3628.95H818.721V3632.93H878.829Z" fill="white"/>
<path d="M947.339 3632.93V3628.95H887.23V3632.93H947.339Z" fill="white"/>
<path d="M1084.44 3632.93V3628.95H1024.33V3632.93H1084.44Z" fill="white"/>
<path d="M1152.94 3632.93V3628.95H1092.84V3632.93H1152.94Z" fill="white"/>
<path d="M1290.04 3628.95H1270.03L1288.53 3621.29L1287.01 3617.54L1268.52 3625.2L1282.63 3611.09L1279.84 3608.3L1265.73 3622.41L1273.38 3603.91L1269.63 3602.4L1261.98 3620.89V3600.88H1257.99V3620.89L1250.34 3602.4L1246.59 3603.91L1254.25 3622.41L1240.14 3608.3L1237.35 3611.09L1251.46 3625.2L1232.96 3617.54L1231.45 3621.29L1249.94 3628.95H1229.93V3632.93H1249.94L1231.45 3640.59L1232.96 3644.26L1251.46 3636.6L1237.35 3650.79L1240.14 3653.58L1254.25 3639.47L1246.59 3657.97L1250.34 3659.49L1257.99 3640.99V3661H1261.98V3640.99L1269.63 3659.49L1273.38 3657.97L1265.73 3639.47L1279.84 3653.58L1282.63 3650.79L1268.52 3636.68L1287.01 3644.26L1288.53 3640.59L1270.03 3632.93H1290.04V3628.95Z" fill="white"/>
<path d="M1358.55 3632.93V3628.95H1298.44V3632.93H1358.55Z" fill="white"/>
<path d="M1063.68 2249.69C1096.89 2249.73 1129.77 2243.12 1160.39 2230.24C1223.15 2203.82 1204.28 2108.98 1136.18 2108.59C1102.97 2108.41 1070.06 2114.89 1039.4 2127.64L1038.06 2128.2C975.608 2154.48 994.469 2249.27 1062.23 2249.68L1063.68 2249.69Z" fill="#CCFF00"/>
<path d="M1230.5 2588.99C1261.2 2576.32 1289.05 2557.63 1312.4 2534.03C1360.27 2485.6 1306.55 2405.2 1243.48 2430.89C1212.74 2443.43 1184.81 2462.01 1161.36 2485.52L1160.34 2486.55C1112.7 2534.73 1166.41 2615.12 1229.15 2589.55L1230.5 2588.99Z" fill="#CCFF00"/>
<path d="M2249.68 2936.32C2249.73 2903.11 2243.11 2870.23 2230.24 2839.62C2203.82 2776.85 2108.98 2795.72 2108.58 2863.82C2108.41 2897.03 2114.88 2929.94 2127.63 2960.6C2127.81 2961.05 2128 2961.49 2128.19 2961.94C2154.47 3024.39 2249.26 3005.53 2249.68 2937.77C2249.68 2937.29 2249.68 2936.81 2249.68 2936.32H2249.68Z" fill="#CCFF00"/>
<path d="M2588.99 2769.49C2576.33 2738.8 2557.64 2710.95 2534.03 2687.6C2485.6 2639.72 2405.2 2693.44 2430.89 2756.51C2443.44 2787.26 2462.01 2815.18 2485.52 2838.64L2486.55 2839.65C2534.73 2887.29 2615.12 2833.58 2589.51 2770.84C2589.37 2770.39 2589.18 2769.94 2588.99 2769.49Z" fill="#CCFF00"/>
<path d="M1039.4 1872.37C1070.06 1885.11 1102.97 1891.59 1136.18 1891.42C1204.28 1891.02 1223.15 1796.18 1160.38 1769.76C1129.77 1756.88 1096.89 1750.27 1063.68 1750.31H1062.23C994.469 1750.7 975.608 1845.52 1038.06 1871.8L1039.4 1872.37Z" fill="#CCFF00"/>
<path d="M2838.63 2485.53C2815.18 2462.01 2787.25 2443.44 2756.5 2430.9C2693.45 2405.2 2639.72 2485.6 2687.59 2534.03C2710.95 2557.64 2738.8 2576.33 2769.5 2589L2770.83 2589.55C2833.59 2615.09 2887.29 2534.74 2839.66 2486.56L2838.63 2485.53Z" fill="#CCFF00"/>
<g opacity="0.5">
<path d="M2936.32 1750.31C2903.11 1750.27 2870.23 1756.88 2839.61 1769.76C2776.85 1796.18 2795.72 1891.02 2863.81 1891.42C2897.02 1891.59 2929.94 1885.12 2960.6 1872.37L2961.94 1871.81C3024.38 1845.52 3005.53 1750.73 2937.77 1750.32L2936.32 1750.31Z" fill="#00F252"/>
<path d="M2769.5 1411C2738.8 1423.67 2710.95 1442.36 2687.6 1465.97C2639.72 1514.4 2693.44 1594.81 2756.51 1569.11C2787.26 1556.57 2815.18 1537.99 2838.63 1514.48L2839.65 1513.45C2887.29 1465.26 2833.58 1384.88 2770.84 1410.45L2769.5 1411Z" fill="#00F252"/>
<path d="M1750.31 1063.68C1750.27 1096.89 1756.88 1129.77 1769.75 1160.39C1796.18 1223.15 1891.02 1204.28 1891.41 1136.18C1891.59 1102.97 1885.11 1070.06 1872.36 1039.4C1872.18 1038.95 1871.99 1038.51 1871.8 1038.06C1845.52 975.609 1750.73 994.467 1750.32 1062.23C1750.32 1062.71 1750.32 1063.19 1750.32 1063.68H1750.31Z" fill="#00F252"/>
<path d="M1411.01 1230.5C1423.68 1261.2 1442.37 1289.05 1465.98 1312.41C1514.41 1360.28 1594.81 1306.55 1569.11 1243.5C1556.57 1212.75 1537.99 1184.82 1514.48 1161.36L1513.45 1160.34C1465.27 1112.7 1384.89 1166.41 1410.46 1229.16C1410.64 1229.6 1410.82 1230.05 1411.01 1230.5Z" fill="#00F252"/>
<path d="M1161.36 1514.48C1184.81 1537.99 1212.74 1556.57 1243.48 1569.11C1306.55 1594.81 1360.27 1514.41 1312.4 1465.98C1289.04 1442.37 1261.19 1423.68 1230.5 1411.01L1229.15 1410.46C1166.41 1384.89 1112.7 1465.27 1160.34 1513.45L1161.36 1514.48Z" fill="#00F252"/>
<path d="M2960.6 2127.64C2929.94 2114.89 2897.02 2108.41 2863.81 2108.59C2795.72 2108.98 2776.85 2203.82 2839.61 2230.24C2870.23 2243.12 2903.11 2249.73 2936.32 2249.69H2937.77C3005.53 2249.31 3024.39 2154.49 2961.94 2128.2L2960.6 2127.64Z" fill="#00F252"/>
<path d="M2127.63 1039.4C2114.88 1070.06 2108.41 1102.97 2108.58 1136.18C2108.98 1204.28 2203.82 1223.14 2230.24 1160.38C2243.11 1129.76 2249.73 1096.89 2249.68 1063.68C2249.68 1063.19 2249.68 1062.71 2249.68 1062.23C2249.3 994.475 2154.48 975.617 2128.2 1038.06C2128 1038.51 2127.81 1038.95 2127.63 1039.4Z" fill="#00F252"/>
<path d="M2485.52 1161.36C2462.01 1184.82 2443.44 1212.74 2430.89 1243.49C2405.2 1306.55 2485.6 1360.28 2534.03 1312.41C2557.63 1289.05 2576.33 1261.2 2588.99 1230.5C2589.18 1230.05 2589.37 1229.61 2589.55 1229.16C2615.12 1166.41 2534.73 1112.7 2486.59 1160.34L2485.56 1161.36H2485.52Z" fill="#00F252"/>
</g>
<path d="M1872.36 2960.6C1885.11 2929.94 1891.59 2897.03 1891.41 2863.82C1891.02 2795.72 1796.18 2776.85 1769.75 2839.62C1756.88 2870.23 1750.27 2903.11 1750.31 2936.32C1750.31 2936.81 1750.31 2937.29 1750.31 2937.77C1750.69 3005.53 1845.51 3024.39 1871.79 2961.94C1871.99 2961.49 1872.15 2961.05 1872.36 2960.6Z" fill="#CCFF00"/>
<path d="M1514.48 2838.64C1537.99 2815.18 1556.57 2787.26 1569.11 2756.51C1594.81 2693.44 1514.41 2639.72 1465.98 2687.6C1442.37 2710.95 1423.68 2738.8 1411.01 2769.49C1410.82 2769.94 1410.64 2770.39 1410.46 2770.84C1384.89 2833.58 1465.27 2887.29 1513.45 2839.65L1514.48 2838.64Z" fill="#CCFF00"/>
<defs>
<radialGradient id="paint0_radial_92_1002" cx="0" cy="0" r="1" gradientUnits="userSpaceOnUse" gradientTransform="translate(2000 2000) rotate(90) scale(1500)">
<stop stop-color="#00F252"/>
<stop offset="1"/>
</radialGradient>
</defs>
</svg>
