<svg width="16" height="17" viewBox="0 0 16 17" fill="none" xmlns="http://www.w3.org/2000/svg">
<path d="M2.99021 13.8189C5.09958 15.9283 7.74383 16.5762 8.99439 16.7042C9.4916 16.7796 9.80801 16.5159 9.83061 16.1317C9.86074 15.7776 9.64227 15.4913 9.1978 15.4009C8.06024 15.2126 5.71733 14.6627 3.93943 12.8697C1.0541 9.9919 0.481557 5.52455 2.86214 3.13643C4.76811 1.23799 7.93217 1.42633 10.2675 2.68442L11.2544 1.7126C8.25611 -0.110499 4.27843 -0.170766 1.92045 2.18721C-0.89707 5.01227 -0.565597 10.2631 2.99021 13.8189ZM14.4411 2.88783L15.0814 2.23995C15.4129 1.90094 15.4431 1.41126 15.1116 1.09486L14.8856 0.876388C14.5918 0.605182 14.1172 0.627783 13.7932 0.944189L13.1453 1.59207L14.4411 2.88783ZM7.08089 10.2405L13.8836 3.4453L12.5803 2.14955L5.78513 8.94475L5.12972 10.5268C5.04685 10.7377 5.25778 10.9411 5.46119 10.8658L7.08089 10.2405ZM5.85293 11.5212C8.25611 14.0223 12.392 14.9565 14.652 12.704C16.4902 10.8583 16.332 7.58119 14.3281 4.7486L13.3638 5.71288C14.8404 7.89006 15.1116 10.346 13.7028 11.7547C11.9701 13.4874 9.14506 12.704 7.29936 10.9411L5.85293 11.5212Z" fill="#90949E"/>
</svg>
