<svg width="20" height="20" viewBox="0 0 20 20" fill="none" xmlns="http://www.w3.org/2000/svg">
<path d="M12.2534 9.16387L13.7221 6.67159L17.6811 12.8378L17.683 14.0212L17.6701 5.87813C17.6607 5.67908 17.555 5.497 17.3864 5.3896L10.2587 1.28969C10.0921 1.20771 9.88058 1.20866 9.71415 1.29229C9.69166 1.30349 9.67048 1.31577 9.65038 1.32916L9.6255 1.34477L2.70708 5.35393L2.68026 5.36612C2.64574 5.38198 2.61081 5.40217 2.5781 5.42561C2.44689 5.51966 2.35981 5.65877 2.33163 5.81482C2.32739 5.83846 2.32426 5.86252 2.32281 5.88687L2.33369 12.5226L6.02124 6.80708C6.48555 6.04922 7.49705 5.80509 8.43608 5.81836L9.53817 5.84744L3.04442 16.2616L3.80991 16.7022L10.3814 5.85803L13.286 5.84748L6.73148 16.9653L9.46294 18.5364L9.78929 18.7241C9.92733 18.7802 10.0901 18.7831 10.2293 18.7328L17.457 14.5442L16.0752 15.3449L12.2534 9.16387ZM12.8137 17.235L10.0549 12.9051L11.739 10.0474L15.3622 15.7581L12.8137 17.235Z" fill="#2D374B"/>
<path d="M10.0549 12.9051L12.8137 17.235L15.3622 15.7581L11.739 10.0473L10.0549 12.9051Z" fill="#28A0F0"/>
<path d="M17.683 14.0212L17.6811 12.8378L13.7221 6.67155L12.2534 9.16384L16.0752 15.3448L17.457 14.5441C17.5925 14.434 17.6745 14.2724 17.6832 14.0981L17.683 14.0212Z" fill="#28A0F0"/>
<path d="M1.09305 15.1371L3.0444 16.2616L9.5381 5.84749L8.43602 5.81841C7.49698 5.80515 6.48545 6.04927 6.02118 6.80713L2.33363 12.5227L1.09305 14.4288V15.1371Z" fill="white"/>
<path d="M13.286 5.84749L10.3814 5.85803L3.80991 16.7022L6.10684 18.0247L6.73148 16.9653L13.286 5.84749Z" fill="white"/>
<path d="M18.907 5.83253C18.8827 5.22508 18.5538 4.66899 18.0386 4.34524L10.8175 0.192596C10.3079 -0.0640064 9.6713 -0.0643359 9.16077 0.192431C9.10042 0.222874 2.1385 4.2605 2.1385 4.2605C2.04215 4.30672 1.94933 4.36176 1.86204 4.42425C1.40214 4.75385 1.12181 5.26606 1.09302 5.82878V14.4288L2.3336 12.5227L2.32276 5.88691C2.32421 5.86265 2.32725 5.83875 2.33158 5.81519C2.35963 5.65906 2.4468 5.51978 2.57805 5.42565C2.6108 5.40221 9.69165 1.30354 9.71414 1.29229C9.88057 1.20871 10.0921 1.20772 10.2587 1.2897L17.3863 5.38952C17.555 5.49692 17.6607 5.679 17.67 5.87805V14.0981C17.6614 14.2724 17.5925 14.434 17.457 14.5441L16.0752 15.3448L15.3622 15.758L12.8137 17.235L10.2292 18.7327C10.09 18.783 9.92728 18.7801 9.78924 18.724L6.73143 16.9653L6.10679 18.0247L8.85473 19.6068C8.94561 19.6585 9.02656 19.7043 9.093 19.7416C9.19587 19.7993 9.26598 19.8379 9.29074 19.8499C9.48604 19.9448 9.76707 20 10.0203 20C10.2525 20 10.4789 19.9574 10.6931 19.8734L18.1998 15.5261C18.6307 15.1923 18.8841 14.6888 18.907 14.1435V5.83253Z" fill="#96BEDC"/>
</svg>
