<svg width="16" height="16" viewBox="0 0 16 16" fill="none" xmlns="http://www.w3.org/2000/svg">
<path fill-rule="evenodd" clip-rule="evenodd" d="M0.685714 7.30005C1.06442 7.30005 1.37143 7.60705 1.37143 7.98576C1.37143 8.85624 1.54288 9.71819 1.876 10.5224C2.20912 11.3266 2.69737 12.0574 3.31289 12.6729C3.92841 13.2884 4.65914 13.7766 5.46336 14.1098C6.26757 14.4429 7.12952 14.6143 8 14.6143C8.87048 14.6143 9.73243 14.4429 10.5366 14.1098C11.3409 13.7766 12.0716 13.2884 12.6871 12.6729C13.3026 12.0574 13.7909 11.3266 14.124 10.5224C14.4571 9.71819 14.6286 8.85624 14.6286 7.98576C14.6286 7.60705 14.9356 7.30005 15.3143 7.30005C15.693 7.30005 16 7.60705 16 7.98576C16 9.03634 15.7931 10.0766 15.391 11.0472C14.989 12.0178 14.3997 12.8997 13.6569 13.6426C12.914 14.3855 12.0321 14.9748 11.0615 15.3768C10.0909 15.7788 9.05057 15.9858 8 15.9858C6.94943 15.9858 5.90914 15.7788 4.93853 15.3768C3.96793 14.9748 3.08601 14.3855 2.34315 13.6426C1.60028 12.8997 1.011 12.0178 0.608963 11.0472C0.206926 10.0766 0 9.03634 0 7.98576C0 7.60705 0.307005 7.30005 0.685714 7.30005Z" fill="#F14D4D"/>
<rect x="4" y="3" width="8" height="1.5" rx="0.75" fill="#F14D4D"/>
</svg>
