<svg width="14" height="14" viewBox="0 0 14 14" fill="none" xmlns="http://www.w3.org/2000/svg">
<path d="M7 14C10.8294 14 14 10.8225 14 7C14 3.17059 10.8225 0 6.99314 0C3.17059 0 0 3.17059 0 7C0 10.8225 3.17745 14 7 14ZM7 12.8333C3.76078 12.8333 1.17353 10.2392 1.17353 7C1.17353 3.76078 3.75392 1.16667 6.99314 1.16667C10.2324 1.16667 12.8265 3.76078 12.8333 7C12.8402 10.2392 10.2392 12.8333 7 12.8333ZM6.93824 4.55686C7.43922 4.55686 7.83039 4.15882 7.83039 3.66471C7.83039 3.16373 7.43922 2.76569 6.93824 2.76569C6.44412 2.76569 6.04608 3.16373 6.04608 3.66471C6.04608 4.15882 6.44412 4.55686 6.93824 4.55686ZM5.79902 10.7745H8.59216C8.87353 10.7745 9.09314 10.5755 9.09314 10.2941C9.09314 10.0265 8.87353 9.81373 8.59216 9.81373H7.74118V6.32059C7.74118 5.95 7.55588 5.70294 7.20588 5.70294H5.91569C5.63431 5.70294 5.41471 5.91569 5.41471 6.18333C5.41471 6.46471 5.63431 6.66373 5.91569 6.66373H6.65V9.81373H5.79902C5.51765 9.81373 5.29804 10.0265 5.29804 10.2941C5.29804 10.5755 5.51765 10.7745 5.79902 10.7745Z" fill="#646871"/>
</svg>
