<svg width="16" height="17" viewBox="0 0 16 17" fill="none" xmlns="http://www.w3.org/2000/svg">
<path d="M4.08084 16.5H11.9192C12.9813 16.5 13.5 15.9751 13.5 14.827V8.80753C13.5 7.77422 13.0719 7.24116 12.1909 7.15095V5.08432C12.1909 1.99257 10.1572 0.5 8 0.5C5.84281 0.5 3.80913 1.99257 3.80913 5.08432V7.19195C3.00225 7.31497 2.5 7.83983 2.5 8.80753V14.827C2.5 15.9751 3.01871 16.5 4.08084 16.5ZM5.13473 4.9121C5.13473 2.85366 6.46033 1.76294 8 1.76294C9.53967 1.76294 10.8653 2.85366 10.8653 4.9121V7.14275L5.13473 7.15095V4.9121Z" fill="#646871"/>
</svg>
