<svg width="16" height="16" viewBox="0 0 16 16" fill="none" xmlns="http://www.w3.org/2000/svg">
<path d="M9.25341 14.7131C12.9376 14.7131 16 11.6507 16 7.96656C16 4.27578 12.931 1.21997 9.2468 1.21997C5.80074 1.21997 2.92352 3.87231 2.55312 7.22576C2.87722 7.16623 3.34684 7.13977 3.6974 7.17946C4.06118 4.43452 6.38942 2.3444 9.2468 2.3444C12.3621 2.3444 14.8756 4.84461 14.8756 7.96656C14.8756 9.42171 14.3332 10.7446 13.427 11.7301C12.7788 10.9562 11.2443 10.2154 9.2468 10.2154C8.61182 10.2154 8.02976 10.2948 7.50723 10.4205C7.58661 10.738 7.62629 11.0819 7.62629 11.4192C7.62629 12.4511 7.24928 13.4101 6.6143 14.1575C7.42786 14.5147 8.32079 14.7131 9.25341 14.7131ZM9.2468 9.09099C10.5167 9.10422 11.5155 8.01947 11.5155 6.5974C11.5155 5.26131 10.5101 4.15672 9.2468 4.15672C7.97685 4.15672 6.96486 5.26131 6.97809 6.5974C6.9847 8.01286 7.97685 9.07776 9.2468 9.09099ZM3.36007 14.7859C5.179 14.7859 6.72013 13.2646 6.72013 11.4258C6.72013 9.58045 5.20546 8.06577 3.36007 8.06577C1.52129 8.06577 0 9.58706 0 11.4258C0 13.2778 1.52129 14.7859 3.36007 14.7859ZM3.36007 11.9947C3.12857 11.9947 2.96321 11.8359 2.95659 11.611L2.90368 9.71935C2.89706 9.44816 3.08227 9.26296 3.36007 9.26296C3.63787 9.26296 3.82307 9.44816 3.81645 9.71935L3.76354 11.611C3.75692 11.8359 3.59157 11.9947 3.36007 11.9947ZM3.36007 13.5689C3.05581 13.5689 2.79785 13.3241 2.79785 13.0133C2.79785 12.709 3.05581 12.4511 3.36007 12.4511C3.67094 12.4511 3.92228 12.709 3.91567 13.0133C3.91567 13.3241 3.66432 13.5689 3.36007 13.5689Z" fill="#F14D4D"/>
</svg>
