<svg width="32" height="32" viewBox="0 0 32 32" fill="none" xmlns="http://www.w3.org/2000/svg">
<path d="M16 32C24.8366 32 32 24.8366 32 16C32 7.16344 24.8366 0 16 0C7.16344 0 0 7.16344 0 16C0 24.8366 7.16344 32 16 32Z" fill="#4376FF"/>
<path fill-rule="evenodd" clip-rule="evenodd" d="M8.68571 15.2998C9.06442 15.2998 9.37143 15.6068 9.37143 15.9855C9.37143 16.856 9.54288 17.7179 9.876 18.5222C10.2091 19.3264 10.6974 20.0571 11.3129 20.6726C11.9284 21.2881 12.6591 21.7764 13.4634 22.1095C14.2676 22.4426 15.1295 22.6141 16 22.6141C16.8705 22.6141 17.7324 22.4426 18.5366 22.1095C19.3409 21.7764 20.0716 21.2881 20.6871 20.6726C21.3026 20.0571 21.7909 19.3264 22.124 18.5222C22.4571 17.7179 22.6286 16.856 22.6286 15.9855C22.6286 15.6068 22.9356 15.2998 23.3143 15.2998C23.693 15.2998 24 15.6068 24 15.9855C24 17.0361 23.7931 18.0764 23.391 19.047C22.989 20.0176 22.3997 20.8995 21.6569 21.6424C20.914 22.3852 20.0321 22.9745 19.0615 23.3766C18.0909 23.7786 17.0506 23.9855 16 23.9855C14.9494 23.9855 13.9091 23.7786 12.9385 23.3766C11.9679 22.9745 11.086 22.3852 10.3431 21.6424C9.60028 20.8995 9.011 20.0176 8.60896 19.047C8.20693 18.0764 8 17.0361 8 15.9855C8 15.6068 8.307 15.2998 8.68571 15.2998Z" fill="black"/>
<path d="M15.997 8C15.5692 8 15.2765 8.29181 15.2765 8.72678V13.5633L15.3271 14.7581L14.038 13.3321L12.7601 12.0877C12.625 11.9556 12.4561 11.8675 12.2422 11.8675C11.8482 11.8675 11.5554 12.1538 11.5554 12.5557C11.5554 12.7374 11.6286 12.9136 11.7806 13.0623L15.4623 16.6687C15.603 16.8118 15.8 16.8889 15.997 16.8889C16.1941 16.8889 16.3967 16.8118 16.5318 16.6687L20.2191 13.0623C20.3711 12.9136 20.4443 12.7374 20.4443 12.5557C20.4443 12.1538 20.1516 11.8675 19.7575 11.8675C19.5436 11.8675 19.3691 11.9556 19.2396 12.0877L17.9561 13.3321L16.6726 14.7581L16.7176 13.5633V8.72678C16.7176 8.29181 16.4249 8 15.997 8Z" fill="black"/>
</svg>
