<svg width="26" height="17" viewBox="0 0 26 17" fill="none" xmlns="http://www.w3.org/2000/svg">
<path d="M0.115234 13.2949C0.115234 15.4395 1.52148 16.7842 3.55176 16.7842C4.71191 16.7842 5.75781 16.2832 6.54883 15.3779L8.11328 13.5586C8.33301 13.2949 8.56152 13.1807 8.83398 13.1807H17.1572C17.4297 13.1807 17.6582 13.2949 17.8779 13.5586L19.4424 15.3779C20.2334 16.2832 21.2793 16.7842 22.4395 16.7842C24.4697 16.7842 25.876 15.4395 25.876 13.2949C25.876 12.3721 25.6738 11.3262 25.3311 10.166C24.7861 8.34668 23.8457 5.89453 22.9492 4.00488C22.1846 2.40527 21.7715 1.62305 19.8379 1.18359C18.1416 0.796875 15.8213 0.541992 13 0.541992C10.1787 0.541992 7.84961 0.796875 6.15332 1.18359C4.22852 1.62305 3.80664 2.40527 3.04199 4.00488C2.14551 5.89453 1.20508 8.34668 0.660156 10.166C0.317383 11.3262 0.115234 12.3721 0.115234 13.2949ZM1.76758 13.2773C1.76758 12.7412 1.89062 12.0996 2.16309 11.168C2.75195 9.1377 3.77148 6.51855 4.65039 4.58496C5.07227 3.66211 5.31836 3.14355 6.35547 2.89746C7.97266 2.51953 10.2314 2.26465 13 2.26465C15.7598 2.26465 18.0273 2.51953 19.6445 2.89746C20.6816 3.14355 20.9102 3.66211 21.3408 4.58496C22.2373 6.51855 23.2217 9.1377 23.8369 11.168C24.1094 12.0996 24.2236 12.7412 24.2236 13.2773C24.2236 14.4111 23.4326 15.1055 22.3955 15.1055C21.7627 15.1055 21.1387 14.7715 20.6377 14.1914L18.8711 12.1875C18.4404 11.6865 18.0889 11.4492 17.333 11.4492H8.66699C7.90234 11.4492 7.55078 11.6865 7.12012 12.1875L5.3623 14.1914C4.86133 14.7715 4.22852 15.1055 3.60449 15.1055C2.55859 15.1055 1.76758 14.4111 1.76758 13.2773ZM5.81934 6.94922C5.81934 7.44141 6.12695 7.74902 6.61914 7.74902H8.0957V9.18164C8.0957 9.67383 8.39453 9.99023 8.87793 9.99023C9.35254 9.99023 9.65137 9.67383 9.65137 9.18164V7.74902H11.04C11.5762 7.74902 11.9014 7.44141 11.9014 6.94922C11.9014 6.47461 11.5762 6.16699 11.04 6.16699H9.65137V4.74316C9.65137 4.25098 9.35254 3.93457 8.87793 3.93457C8.39453 3.93457 8.0957 4.25098 8.0957 4.74316V6.16699H6.61914C6.12695 6.16699 5.81934 6.47461 5.81934 6.94922ZM18.4844 6.87012C19.2227 6.87012 19.7852 6.30762 19.7852 5.56934C19.7852 4.83105 19.2227 4.25977 18.4844 4.25977C17.7637 4.25977 17.1836 4.83105 17.1836 5.56934C17.1836 6.30762 17.7637 6.87012 18.4844 6.87012ZM15.874 9.50684C16.6123 9.50684 17.1748 8.94434 17.1748 8.21484C17.1748 7.47656 16.6123 6.90527 15.874 6.90527C15.1445 6.90527 14.5732 7.47656 14.5732 8.21484C14.5732 8.94434 15.1445 9.50684 15.874 9.50684Z" fill="#CCFF00"/>
</svg>
