<svg width="32" height="32" viewBox="0 0 32 32" fill="none" xmlns="http://www.w3.org/2000/svg">
<path d="M16 32C24.8366 32 32 24.8366 32 16C32 7.16344 24.8366 0 16 0C7.16344 0 0 7.16344 0 16C0 24.8366 7.16344 32 16 32Z" fill="#3F4147"/>
<path d="M16 24C16.2144 24 16.4116 23.9052 16.5745 23.7329L22.2599 18.0118C22.4228 17.8395 22.5 17.6586 22.5 17.4518C22.5 17.0296 22.1913 16.6936 21.7625 16.6936C21.5567 16.6936 21.3509 16.7711 21.2223 16.909L19.2672 18.839L16.6346 21.7426L16.7632 19.6575V8.75821C16.7632 8.31018 16.4459 8 16 8C15.5541 8 15.2368 8.31018 15.2368 8.75821V19.6575L15.3654 21.734L12.7328 18.839L10.7777 16.909C10.6405 16.7711 10.4433 16.6936 10.2375 16.6936C9.80871 16.6936 9.5 17.0296 9.5 17.4518C9.5 17.6586 9.5686 17.8395 9.75726 18.0291L15.4255 23.7329C15.5884 23.9052 15.7856 24 16 24Z" fill="#90949E"/>
</svg>
