<svg width="32" height="32" viewBox="0 0 32 32" fill="none" xmlns="http://www.w3.org/2000/svg">
<path d="M16 32C24.8366 32 32 24.8366 32 16C32 7.16344 24.8366 0 16 0C7.16344 0 0 7.16344 0 16C0 24.8366 7.16344 32 16 32Z" fill="#3F4147"/>
<path d="M16 8C15.7856 8 15.5884 8.09478 15.4255 8.2671L9.7401 13.9882C9.57718 14.1605 9.5 14.3414 9.5 14.5482C9.5 14.9704 9.80871 15.3064 10.2375 15.3064C10.4433 15.3064 10.6491 15.2289 10.7777 15.091L12.7328 13.161L15.3654 10.2574L15.2368 12.3425V23.2418C15.2368 23.6898 15.5541 24 16 24C16.4459 24 16.7632 23.6898 16.7632 23.2418V12.3425L16.6346 10.266L19.2672 13.161L21.2223 15.091C21.3595 15.2289 21.5567 15.3064 21.7625 15.3064C22.1913 15.3064 22.5 14.9704 22.5 14.5482C22.5 14.3414 22.4314 14.1605 22.2427 13.9709L16.5745 8.2671C16.4116 8.09478 16.2144 8 16 8Z" fill="#90949E"/>
</svg>
