<svg width="10" height="12" viewBox="0 0 10 12" fill="none" xmlns="http://www.w3.org/2000/svg">
<path d="M2.06063 12H7.93937C8.73597 12 9.125 11.6064 9.125 10.7453V6.23065C9.125 5.45567 8.80389 5.05587 8.14315 4.98821V3.43824C8.14315 1.11943 6.61789 0 5 0C3.38211 0 1.85685 1.11943 1.85685 3.43824V5.01897C1.25168 5.11123 0.875 5.50487 0.875 6.23065V10.7453C0.875 11.6064 1.26403 12 2.06063 12ZM2.85105 3.30907C2.85105 1.76525 3.84525 0.947207 5 0.947207C6.15476 0.947207 7.14895 1.76525 7.14895 3.30907V4.98206L2.85105 4.98821V3.30907Z" fill="#3F4147"/>
</svg>
