<svg width="18" height="18" viewBox="0 0 18 18" fill="none" xmlns="http://www.w3.org/2000/svg">
<path d="M9.41212 14.9363L14.9492 9.39359C15.3899 8.94723 15.4351 8.68733 15.4351 8.04321V5.90182C15.4351 5.27466 15.2882 5.05995 14.8306 4.60229L13.5367 3.30842C13.0734 2.85076 12.8587 2.70386 12.2372 2.70386H10.0901C9.45167 2.70386 9.19177 2.74906 8.75106 3.19542L3.20265 8.73253C2.35513 9.58004 2.34383 10.4784 3.2083 11.3316L6.81307 14.9363C7.67189 15.7895 8.5646 15.7839 9.41212 14.9363ZM8.68326 14.0719C8.31035 14.4448 7.92049 14.4504 7.53628 14.0662L4.07276 10.6084C3.68856 10.2242 3.69986 9.82865 4.06711 9.46139L9.55337 3.98643C9.66637 3.87343 9.77373 3.80563 9.95453 3.80563H12.2259C12.3954 3.80563 12.514 3.86778 12.627 3.98078L14.1582 5.51196C14.2656 5.62497 14.3277 5.73797 14.3277 5.91312V8.18447C14.3277 8.37092 14.2712 8.47827 14.1582 8.59127L8.68326 14.0719ZM11.5309 7.41605C11.9942 7.41605 12.3445 7.06009 12.3445 6.60243C12.3445 6.15043 11.9942 5.78882 11.5309 5.78882C11.0733 5.78882 10.7229 6.15043 10.7229 6.60243C10.7229 7.06009 11.0733 7.41605 11.5309 7.41605Z" fill="black"/>
</svg>
