<svg width="18" height="18" viewBox="0 0 18 18" fill="none" xmlns="http://www.w3.org/2000/svg">
<path d="M8.77965 14.8856C10.8758 14.8856 12.3392 13.7668 13.1246 11.5633L14.136 8.7326C14.2094 8.52354 14.2433 8.32579 14.2433 8.13934C14.2433 7.49522 13.763 7.02061 13.1246 7.02061C12.7178 7.02061 12.3505 7.25227 12.1584 7.69298L11.8533 8.43314C11.842 8.45574 11.8307 8.46704 11.8081 8.46704C11.7799 8.46704 11.7686 8.45009 11.7686 8.42184V4.08255C11.7686 3.36499 11.2996 2.90168 10.6046 2.90168C10.3899 2.90168 10.1922 2.96948 10.0396 3.09944C9.92662 2.52877 9.52546 2.17847 8.9435 2.17847C8.37849 2.17847 7.96603 2.53442 7.84738 3.08813C7.70612 2.96383 7.52532 2.90168 7.33322 2.90168C6.68345 2.90168 6.2371 3.35369 6.2371 4.02605V4.55151C6.09584 4.41591 5.89244 4.34246 5.67773 4.34246C5.02797 4.34246 4.57031 4.82837 4.57031 5.51768V10.4672C4.57031 13.2018 6.25405 14.8856 8.77965 14.8856ZM8.7514 13.9194C6.72866 13.9194 5.49128 12.6312 5.49128 10.3655V5.62504C5.49128 5.41033 5.62688 5.26343 5.83029 5.26343C6.03934 5.26343 6.18624 5.41033 6.18624 5.62504V8.53484C6.18624 8.7778 6.384 8.9473 6.61 8.9473C6.84166 8.9473 7.03941 8.7778 7.03941 8.53484V4.16731C7.03941 3.9526 7.17501 3.8057 7.38407 3.8057C7.58747 3.8057 7.74003 3.9526 7.74003 4.16731V8.23539C7.74003 8.47834 7.93213 8.6535 8.15813 8.6535C8.38979 8.6535 8.58754 8.47834 8.58754 8.23539V3.44974C8.58754 3.24069 8.73444 3.08248 8.93785 3.08248C9.14125 3.08248 9.28816 3.24069 9.28816 3.44974V8.16759C9.28816 8.39924 9.47461 8.58004 9.70626 8.58004C9.94357 8.58004 10.1357 8.39924 10.1357 8.16759V4.16731C10.1357 3.9526 10.2769 3.8057 10.486 3.8057C10.6894 3.8057 10.8363 3.9526 10.8363 4.16731V9.80047C10.8363 10.1282 11.0453 10.3146 11.3165 10.309C11.5426 10.309 11.746 10.2073 11.8816 9.90782L12.6952 8.08283C12.7912 7.86248 12.9833 7.79468 13.1585 7.85683C13.3506 7.93028 13.4127 8.11673 13.3223 8.35969L12.2714 11.2582C11.5708 13.1792 10.3899 13.9194 8.7514 13.9194Z" fill="black"/>
</svg>
