<svg width="18" height="18" viewBox="0 0 18 18" fill="none" xmlns="http://www.w3.org/2000/svg">
<path fill-rule="evenodd" clip-rule="evenodd" d="M9 18C13.9703 18 18 13.9703 18 9C18 4.02971 13.9713 0 9 0C4.02971 0 0 4.02971 0 9C0 13.9703 4.02971 18 9 18ZM14.8753 9.98265V10.5624C14.8753 10.5957 14.8549 10.6253 14.8254 10.6382C14.6441 10.7159 14.0237 11.0007 13.7657 11.3595C13.6222 11.5592 13.486 11.7777 13.3492 11.9972C12.8585 12.7848 12.3592 13.5861 11.4799 13.5861H6.78908C5.12654 13.5861 3.7793 12.2342 3.7793 10.5661V10.5125C3.7793 10.4681 3.81535 10.432 3.85974 10.432H6.47471C6.52647 10.432 6.56438 10.4801 6.55978 10.531C6.54127 10.7011 6.57272 10.8749 6.65316 11.0331C6.8085 11.3484 7.13029 11.5453 7.47795 11.5453H8.7725V10.5347H7.49275C7.4271 10.5347 7.38828 10.4588 7.42619 10.4052C7.43387 10.3934 7.44213 10.3813 7.45081 10.3687L7.4509 10.3685C7.45783 10.3584 7.46503 10.3479 7.47241 10.3368C7.59355 10.1648 7.76646 9.89758 7.93845 9.59336C8.05588 9.38809 8.16961 9.16894 8.26115 8.94887C8.27814 8.91238 8.29198 8.8751 8.30558 8.83849L8.30923 8.82865C8.31576 8.81028 8.32235 8.79223 8.32885 8.77442C8.34723 8.72406 8.36493 8.67558 8.37859 8.62709C8.39368 8.58181 8.4063 8.5347 8.41847 8.48926L8.42666 8.45879C8.47013 8.272 8.48862 8.07413 8.48862 7.86886C8.48862 7.78841 8.48493 7.70426 8.47753 7.62382C8.47382 7.53598 8.46274 7.44812 8.45163 7.36028C8.44423 7.28261 8.43037 7.20586 8.41558 7.12542C8.39709 7.00799 8.37119 6.89149 8.34159 6.77404L8.33142 6.72967C8.32482 6.70572 8.31854 6.6821 8.3123 6.65862C8.29757 6.6032 8.28304 6.54853 8.26486 6.49204C8.1918 6.23959 8.10767 5.99363 8.01889 5.7634C7.98653 5.67185 7.94954 5.58401 7.91255 5.49617C7.86968 5.39224 7.82623 5.29575 7.7849 5.20398L7.75166 5.12999C7.72578 5.07821 7.70358 5.03105 7.68139 4.98297C7.65642 4.92841 7.63054 4.87385 7.60464 4.82209C7.59738 4.80646 7.58968 4.79127 7.58212 4.77634L7.58212 4.77633C7.57043 4.75325 7.55906 4.7308 7.55008 4.70834L7.39197 4.41615C7.36977 4.37639 7.40676 4.32923 7.45022 4.34125L8.43962 4.6094H8.4424C8.44347 4.6094 8.44424 4.60972 8.44487 4.60999C8.44532 4.61017 8.44571 4.61033 8.44608 4.61033L8.57646 4.64639L8.71979 4.68709L8.7725 4.70186V4.11379C8.7725 3.82991 8.99996 3.59967 9.28107 3.59967C9.42161 3.59967 9.54922 3.657 9.64076 3.75038C9.73229 3.84379 9.78962 3.97139 9.78962 4.11379V4.98668L9.89505 5.01625C9.90336 5.01904 9.91168 5.02273 9.91908 5.02828L9.95418 5.05489L9.95421 5.05492C9.97523 5.07093 10.0003 5.09 10.0291 5.11151C10.0441 5.12348 10.0595 5.13652 10.0758 5.15025L10.0758 5.15029C10.0997 5.17046 10.1253 5.19214 10.1539 5.21414C10.2492 5.29088 10.3629 5.38982 10.4878 5.50357C10.521 5.53222 10.5534 5.56181 10.583 5.59141C10.7439 5.7412 10.9242 5.91688 11.0962 6.11107C11.1443 6.16562 11.1914 6.2211 11.2395 6.27935C11.2565 6.3003 11.2739 6.32113 11.2912 6.34189L11.2912 6.34191C11.3228 6.37978 11.3542 6.41741 11.3828 6.45505L11.4154 6.49829C11.464 6.5625 11.514 6.62867 11.5585 6.69731C11.5698 6.71461 11.5817 6.73208 11.5937 6.74958L11.5937 6.74959L11.5938 6.74965C11.6093 6.77235 11.6249 6.79508 11.639 6.81751C11.7092 6.92384 11.7712 7.03389 11.8304 7.14392C11.8553 7.19477 11.8812 7.25025 11.9034 7.30481C11.9691 7.45183 12.0208 7.60163 12.0541 7.75142C12.0643 7.78379 12.0717 7.81892 12.0754 7.85037V7.85777C12.0865 7.90214 12.0902 7.9493 12.0939 7.99738C12.1087 8.15088 12.1013 8.30437 12.068 8.45879C12.0541 8.52445 12.0356 8.58639 12.0135 8.65205L12.006 8.67317C11.9862 8.72951 11.9659 8.78748 11.9404 8.84253C11.8849 8.97105 11.8193 9.09959 11.7416 9.21979C11.7166 9.26418 11.687 9.31134 11.6574 9.35573C11.6417 9.37872 11.6257 9.40106 11.61 9.42295L11.6099 9.423C11.5935 9.44598 11.5774 9.46848 11.5622 9.49073C11.5215 9.5462 11.4781 9.60445 11.4337 9.65624C11.3939 9.7108 11.3532 9.76535 11.3089 9.81343C11.2469 9.88648 11.1877 9.95583 11.1258 10.0224C11.0888 10.0659 11.049 10.1103 11.0083 10.15C10.9743 10.1881 10.9395 10.2227 10.9069 10.2551L10.8909 10.2711C10.829 10.3331 10.7772 10.3812 10.7337 10.4209L10.632 10.5143C10.6172 10.5273 10.5978 10.5347 10.5774 10.5347H9.78962V11.5453H10.7809C11.0028 11.5453 11.2136 11.4667 11.3838 11.3225L11.3883 11.3185L11.3883 11.3185C11.4544 11.2609 11.7036 11.0435 11.9968 10.7196C12.007 10.7085 12.0199 10.7002 12.0347 10.6965L14.7727 9.90498C14.8235 9.89018 14.8753 9.92901 14.8753 9.98265ZM4.44255 9.30167L4.48137 9.24063L6.82263 5.57803C6.85685 5.52441 6.93729 5.52995 6.96318 5.5882C7.35432 6.46478 7.69182 7.55497 7.53371 8.23368C7.46621 8.51293 7.28127 8.89111 7.07321 9.24063C7.04641 9.2915 7.01682 9.34143 6.98537 9.38951C6.97058 9.4117 6.94561 9.42465 6.91879 9.42465H4.51097C4.44624 9.42465 4.40833 9.35437 4.44255 9.30167Z" fill="#90949E"/>
</svg>
