<svg width="18" height="18" viewBox="0 0 18 18" fill="none" xmlns="http://www.w3.org/2000/svg">
<path d="M6.90423 11.9927H13.481C13.7465 11.9927 13.9895 11.7837 13.9895 11.4842C13.9895 11.1904 13.7465 10.9813 13.481 10.9813H7.03418C6.76297 10.9813 6.59347 10.7949 6.55392 10.5067L6.46917 9.91912H13.5262C14.3906 9.91912 14.8483 9.39366 14.9726 8.53484L15.3963 5.70414C15.4076 5.63069 15.4189 5.53463 15.4189 5.47248C15.4189 5.13913 15.1873 4.91312 14.7974 4.91312H5.7403L5.65555 4.30291C5.5821 3.81135 5.38435 3.56274 4.75718 3.56274H2.8192C2.53669 3.56274 2.28809 3.81135 2.28809 4.0995C2.28809 4.39331 2.53669 4.64192 2.8192 4.64192H4.58768L5.46345 10.6197C5.58775 11.4729 6.03976 11.9927 6.90423 11.9927ZM14.2437 5.92449L13.8878 8.43314C13.8426 8.7213 13.69 8.9021 13.4132 8.9021L6.32227 8.90775L5.88721 5.92449H14.2437ZM7.36754 14.8291C7.9156 14.8291 8.35631 14.3884 8.35631 13.8403C8.35631 13.2922 7.9156 12.8515 7.36754 12.8515C6.81948 12.8515 6.37877 13.2922 6.37877 13.8403C6.37877 14.3884 6.81948 14.8291 7.36754 14.8291ZM12.5882 14.8291C13.1363 14.8291 13.5714 14.3884 13.5714 13.8403C13.5714 13.2922 13.1363 12.8515 12.5882 12.8515C12.0402 12.8515 11.5938 13.2922 11.5938 13.8403C11.5938 14.3884 12.0402 14.8291 12.5882 14.8291Z" fill="black"/>
</svg>
