<svg width="17" height="16" viewBox="0 0 17 16" fill="none" xmlns="http://www.w3.org/2000/svg">
<path d="M8.24291 16H9.75319C10.3289 16 10.77 15.6483 10.9046 15.0945L11.2261 13.695L11.4653 13.6127L12.684 14.3611C13.17 14.6679 13.7308 14.5931 14.142 14.1815L15.1887 13.1413C15.5999 12.7297 15.6747 12.1609 15.3681 11.6819L14.6055 10.4696L14.6952 10.2451L16.0934 9.91581C16.6392 9.7811 16.998 9.33209 16.998 8.76333V7.28157C16.998 6.71282 16.6466 6.2638 16.0934 6.12909L14.7102 5.79233L14.613 5.55285L15.3756 4.34051C15.6822 3.86155 15.6074 3.30028 15.1962 2.8812L14.1494 1.83349C13.7457 1.42937 13.185 1.35454 12.699 1.65388L11.4803 2.40225L11.2261 2.30496L10.9046 0.905519C10.77 0.351731 10.3289 0 9.75319 0H8.24291C7.66721 0 7.22608 0.351731 7.09151 0.905519L6.76253 2.30496L6.50833 2.40225L5.29711 1.65388C4.81113 1.35454 4.24291 1.42937 3.83917 1.83349L2.79992 2.8812C2.3887 3.30028 2.30646 3.86155 2.62048 4.34051L3.37562 5.55285L3.2859 5.79233L1.90272 6.12909C1.34945 6.2638 0.998047 6.71282 0.998047 7.28157V8.76333C0.998047 9.33209 1.35693 9.7811 1.90272 9.91581L3.30085 10.2451L3.38309 10.4696L2.62795 11.6819C2.31393 12.1609 2.39618 12.7297 2.80739 13.1413L3.84665 14.1815C4.25786 14.5931 4.82608 14.6679 5.31207 14.3611L6.52328 13.6127L6.76253 13.695L7.09151 15.0945C7.22608 15.6483 7.66721 16 8.24291 16ZM8.36253 14.8326C8.23543 14.8326 8.16814 14.7802 8.14571 14.6604L7.69711 12.8045C7.24104 12.6922 6.81487 12.5126 6.49337 12.3106L4.86347 13.3134C4.77375 13.3807 4.67655 13.3658 4.58683 13.276L3.70459 12.3929C3.62235 12.3106 3.61487 12.2208 3.67468 12.116L4.67655 10.4995C4.50459 10.1852 4.3102 9.75865 4.19057 9.30215L2.33636 8.86062C2.21674 8.83817 2.1644 8.77081 2.1644 8.64359V7.39383C2.1644 7.25912 2.20926 7.19925 2.33636 7.1768L4.18309 6.72778C4.30272 6.24135 4.52702 5.79981 4.6616 5.52292L3.66721 3.90645C3.59992 3.7942 3.60739 3.7044 3.68964 3.61459L4.57936 2.74649C4.66908 2.65669 4.75132 2.64172 4.86347 2.70907L6.47842 3.68943C6.79992 3.50982 7.25599 3.32273 7.70459 3.19551L8.14571 1.33957C8.16814 1.21983 8.23543 1.16745 8.36253 1.16745H9.63356C9.76066 1.16745 9.82795 1.21983 9.84291 1.33957L10.299 3.21048C10.7625 3.33022 11.1663 3.51731 11.5027 3.69691L13.1252 2.70907C13.2448 2.64172 13.3195 2.65669 13.4167 2.74649L14.299 3.61459C14.3887 3.7044 14.3887 3.7942 14.3214 3.90645L13.327 5.52292C13.4691 5.79981 13.6859 6.24135 13.8055 6.72778L15.6597 7.1768C15.7794 7.19925 15.8317 7.25912 15.8317 7.39383V8.64359C15.8317 8.77081 15.7719 8.83817 15.6597 8.86062L13.798 9.30215C13.6784 9.75865 13.4915 10.1852 13.3121 10.4995L14.3139 12.116C14.3737 12.2208 14.3737 12.3106 14.284 12.3929L13.4093 13.276C13.3121 13.3658 13.2223 13.3807 13.1252 13.3134L11.4952 12.3106C11.1737 12.5126 10.7551 12.6922 10.299 12.8045L9.84291 14.6604C9.82795 14.7802 9.76066 14.8326 9.63356 14.8326H8.36253ZM8.99805 10.8587C10.5607 10.8587 11.8466 9.57156 11.8466 8C11.8466 6.44341 10.5607 5.15622 8.99805 5.15622C7.43543 5.15622 6.14197 6.44341 6.14197 8C6.14197 9.56408 7.42795 10.8587 8.99805 10.8587ZM8.99805 9.69878C8.07094 9.69878 7.30833 8.93545 7.30833 8C7.30833 7.07951 8.07094 6.31618 8.99805 6.31618C9.9102 6.31618 10.6728 7.07951 10.6728 8C10.6728 8.92797 9.9102 9.69878 8.99805 9.69878Z" fill="#90949E"/>
</svg>
