<svg width="18" height="18" viewBox="0 0 18 18" fill="none" xmlns="http://www.w3.org/2000/svg">
<path d="M3.67236 5.04314C3.40681 5.2974 3.41246 5.69291 3.67236 5.94151L6.58782 8.78917C6.70082 8.90217 6.87598 8.97562 7.02853 8.97562C7.38449 8.97562 7.62744 8.72702 7.62744 8.37671C7.62744 8.20721 7.57094 8.0716 7.45229 7.9586L6.24316 6.79468L5.38435 6.04886L6.58217 6.09406H13.916C14.2663 6.09406 14.5206 5.83981 14.5206 5.4895C14.5206 5.1392 14.2663 4.89059 13.916 4.89059H6.58217L5.38435 4.93014L6.24316 4.18998L7.45229 3.02605C7.57094 2.91305 7.62744 2.7718 7.62744 2.60229C7.62744 2.25764 7.38449 2.00903 7.02853 2.00903C6.87598 2.00903 6.70082 2.08248 6.58782 2.19549L3.67236 5.04314ZM14.3228 12.5239C14.5884 12.2696 14.5827 11.8741 14.3228 11.6255L11.413 8.77787C11.2944 8.66487 11.1192 8.59141 10.9667 8.59141C10.6164 8.59141 10.3734 8.84002 10.3734 9.19033C10.3734 9.35418 10.4299 9.49543 10.5429 9.60843L11.752 10.7724L12.6108 11.5125L11.413 11.473H4.07917C3.73451 11.473 3.47461 11.7272 3.47461 12.0775C3.47461 12.4222 3.73451 12.6764 4.07917 12.6764H11.413L12.6108 12.6369L11.752 13.3771L10.5429 14.541C10.4299 14.654 10.3734 14.7952 10.3734 14.9591C10.3734 15.3094 10.6164 15.558 10.9667 15.558C11.1192 15.558 11.2944 15.4846 11.413 15.3715L14.3228 12.5239Z" fill="black"/>
</svg>
