<svg width="24" height="24" viewBox="0 0 24 24" fill="none" xmlns="http://www.w3.org/2000/svg">
<path d="M9.99613 7.70313C10.1016 7.70313 10.1619 7.62779 10.1845 7.52985C10.4331 6.2793 10.418 6.24916 11.7213 5.99302C11.8343 5.97042 11.9021 5.91016 11.9021 5.80469C11.9021 5.69922 11.8343 5.63895 11.7288 5.61635C10.4105 5.34515 10.418 5.31501 10.1845 4.07199C10.1694 3.97405 10.1016 3.90625 9.99613 3.90625C9.89066 3.90625 9.83039 3.97405 9.81533 4.07199C9.55919 5.33008 9.58179 5.37528 8.27096 5.61635C8.16549 5.63142 8.09769 5.69922 8.09769 5.80469C8.09769 5.90262 8.16549 5.97042 8.27096 5.99302C9.58179 6.2567 9.57425 6.28683 9.81533 7.52985C9.83039 7.62779 9.89066 7.70313 9.99613 7.70313ZM16.4523 10.385C16.5729 10.385 16.6482 10.2946 16.6708 10.1816C16.942 8.72015 16.9269 8.64481 18.4638 8.38114C18.5918 8.35854 18.6747 8.2832 18.6747 8.16267C18.6747 8.04213 18.5918 7.9668 18.4713 7.9442C16.9269 7.66546 16.9043 7.59766 16.6708 6.14369C16.6482 6.02316 16.5729 5.94029 16.4523 5.94029C16.3318 5.94029 16.2489 6.02316 16.2339 6.14369C15.9702 7.61272 15.9777 7.70313 14.4258 7.9442C14.3128 7.95926 14.2224 8.04213 14.2224 8.16267C14.2299 8.2832 14.3053 8.35854 14.4258 8.38114C15.9777 8.65234 15.9928 8.72768 16.2339 10.1816C16.2489 10.2946 16.3318 10.385 16.4523 10.385ZM5.84518 12.6451C5.96572 12.6451 6.04858 12.5622 6.06365 12.4417C6.30472 10.9802 6.32732 10.9049 7.86415 10.6412C7.98469 10.6186 8.06756 10.5432 8.06756 10.4227C8.06756 10.3022 7.98469 10.2268 7.87169 10.2042C6.31979 9.9255 6.31979 9.8577 6.06365 8.40374C6.04105 8.2832 5.96572 8.20033 5.84518 8.20033C5.72464 8.20033 5.64931 8.2832 5.62671 8.40374C5.38564 9.87277 5.37057 9.9481 3.82621 10.2042C3.70567 10.2268 3.6228 10.3022 3.6228 10.4227C3.6228 10.5432 3.70567 10.6186 3.81867 10.6412C5.37057 10.9124 5.37057 10.9953 5.62671 12.4492C5.64931 12.5622 5.72464 12.6451 5.84518 12.6451ZM18.7425 19.1088C19.1116 19.4855 19.7445 19.478 20.1061 19.1088C20.4752 18.7246 20.4677 18.1219 20.1061 17.7453L12.9493 10.5508C12.5801 10.1816 11.9473 10.1816 11.5857 10.5508C11.2166 10.935 11.2241 11.5452 11.5857 11.9143L18.7425 19.1088ZM9.47632 19.2972C9.63452 19.2972 9.74752 19.1917 9.77012 19.0184C10.0112 16.9844 10.1091 16.9241 12.1808 16.6002C12.3692 16.57 12.4822 16.4721 12.4822 16.3064C12.4822 16.1482 12.3692 16.0427 12.2185 16.0126C10.1167 15.6057 10.0112 15.6208 9.77012 13.5943C9.74752 13.421 9.63452 13.3156 9.47632 13.3156C9.31812 13.3156 9.20511 13.421 9.18251 13.5868C8.92637 15.6509 8.85104 15.7263 6.74166 16.0126C6.59099 16.0276 6.47046 16.1482 6.47046 16.3064C6.47046 16.4646 6.58346 16.57 6.73413 16.6002C8.85857 17.007 8.91884 17.007 9.18251 19.0335C9.20511 19.1917 9.31812 19.2972 9.47632 19.2972ZM19.1041 18.4986L14.8477 14.2422L15.2771 13.8128L19.5335 18.0767C19.6917 18.2274 19.7369 18.4082 19.5863 18.5664C19.4431 18.702 19.2623 18.6643 19.1041 18.4986Z" fill="#90949E"/>
</svg>
