<svg width="12" height="13" viewBox="0 0 12 13" fill="none" xmlns="http://www.w3.org/2000/svg">
<path d="M4.73438 11.6084C5.04492 11.6084 5.28516 11.4795 5.45508 11.2276L10.9629 2.65113C11.0859 2.45781 11.1387 2.29378 11.1387 2.1356C11.1387 1.71967 10.8457 1.43262 10.4238 1.43262C10.1367 1.43262 9.96094 1.53807 9.78516 1.8134L4.70508 9.86847L2.09766 6.52342C1.92188 6.29495 1.74023 6.20122 1.48242 6.20122C1.06055 6.20122 0.755859 6.49999 0.755859 6.91006C0.755859 7.09167 0.820312 7.26741 0.972656 7.44902L4.00781 11.2334C4.21289 11.4912 4.42969 11.6084 4.73438 11.6084Z" fill="#90949E"/>
</svg>
