<svg width="16" height="16" viewBox="0 0 16 16" fill="none" xmlns="http://www.w3.org/2000/svg">
<path fill-rule="evenodd" clip-rule="evenodd" d="M15.4095 7.4302C15.4697 7.58819 15.5005 7.75766 15.5 7.92873V14.6975C15.4997 15.0428 15.3735 15.374 15.1493 15.6181C14.925 15.8623 14.6209 15.9996 14.3037 16H8.69605C8.37897 15.9995 8.07499 15.8623 7.85078 15.6181C7.62656 15.3741 7.50041 15.0432 7.5 14.698V13.3777C7.5 13.2157 7.55915 13.0602 7.66443 12.9456C7.76972 12.831 7.91252 12.7666 8.06142 12.7666C8.21032 12.7666 8.35312 12.831 8.4584 12.9456C8.56369 13.0602 8.62284 13.2157 8.62284 13.3777V14.698L14.3044 14.7781L14.3718 8.48689H12.0887C11.9398 8.48689 11.797 8.4225 11.6917 8.30787C11.5865 8.19325 11.5273 8.03779 11.5273 7.87568V5.22242H11.1928C11.0439 5.22242 10.9011 5.15803 10.7958 5.0434C10.6905 4.92877 10.6314 4.77332 10.6314 4.61121C10.6314 4.44911 10.6905 4.29365 10.7958 4.17902C10.9011 4.0644 11.0439 4.00001 11.1928 4.00001H11.8572C12.0244 3.99945 12.19 4.03491 12.3445 4.10436C12.499 4.17381 12.6393 4.27585 12.7575 4.40463L15.1491 7.00837C15.2607 7.12881 15.3492 7.27219 15.4095 7.4302Z" fill="#4376FF"/>
<path fill-rule="evenodd" clip-rule="evenodd" d="M0.5 1.20651V10.7934C0.5 11.1134 0.626091 11.4203 0.850536 11.6466C1.07498 11.8729 1.37939 12 1.6968 12H8.30316C8.62058 12 8.92498 11.8729 9.14943 11.6466C9.37388 11.4203 9.5 11.1134 9.5 10.7934V3.90354C9.5 3.74508 9.46902 3.58816 9.40884 3.44176C9.34867 3.29536 9.26047 3.16234 9.14931 3.0503L6.47373 0.353266C6.24927 0.127045 5.94487 -2.7651e-05 5.62747 4.51291e-09H1.6968C1.37939 4.51291e-09 1.07498 0.127114 0.850536 0.353379C0.626091 0.579644 0.5 0.886525 0.5 1.20651ZM5.02919 3.90367V1.20651H1.6968V10.7934H8.30316V4.50693H5.62759C5.46889 4.50693 5.31668 4.44337 5.20445 4.33023C5.09223 4.21711 5.02919 4.06366 5.02919 3.90367Z" fill="#4376FF"/>
</svg>
