<svg width="32" height="32" viewBox="0 0 32 32" fill="none" xmlns="http://www.w3.org/2000/svg">
<g filter="url(#filter0_b_5276_55818)">
<circle cx="16" cy="16" r="16" fill="white"/>
</g>
<path d="M10.293 15.2916H14.2796C15.0123 15.2916 15.4361 14.8707 15.4361 14.1553V10.2695C15.4361 9.90481 15.156 9.61723 14.7753 9.61723C14.3946 9.61723 14.1216 9.8978 14.1216 10.2695V10.8587L14.2724 13.3066L12.3761 11.3637L10.1709 9.18938C10.0487 9.06313 9.88353 9 9.71113 9C9.30169 9 9 9.26653 9 9.65932C9 9.84168 9.07183 10.017 9.20113 10.1433L11.4135 12.3036L13.4033 14.1483L10.8964 14.008H10.293C9.91226 14.008 9.61775 14.2675 9.61775 14.6463C9.61775 15.018 9.90508 15.2916 10.293 15.2916ZM17.1816 22.4108C17.5623 22.4108 17.8353 22.1373 17.8353 21.7585V21.0922L17.6845 18.6513L19.5808 20.5942L21.8363 22.8106C21.9584 22.9369 22.1165 23 22.296 23C22.6983 23 23 22.7335 23 22.3407C23 22.1583 22.9354 21.983 22.8061 21.8567L20.5434 19.6473L18.5464 17.8026L21.0605 17.9429H21.7429C22.1237 17.9429 22.4182 17.6834 22.4182 17.3116C22.4182 16.9329 22.1308 16.6663 21.7429 16.6663H17.6773C16.9446 16.6663 16.5208 17.0802 16.5208 17.7956V21.7585C16.5208 22.1303 16.7937 22.4108 17.1816 22.4108Z" fill="black"/>
<defs>
<filter id="filter0_b_5276_55818" x="-25" y="-25" width="82" height="82" filterUnits="userSpaceOnUse" color-interpolation-filters="sRGB">
<feFlood flood-opacity="0" result="BackgroundImageFix"/>
<feGaussianBlur in="BackgroundImage" stdDeviation="12.5"/>
<feComposite in2="SourceAlpha" operator="in" result="effect1_backgroundBlur_5276_55818"/>
<feBlend mode="normal" in="SourceGraphic" in2="effect1_backgroundBlur_5276_55818" result="shape"/>
</filter>
</defs>
</svg>
