<svg width="16" height="16" viewBox="0 0 16 16" fill="none" xmlns="http://www.w3.org/2000/svg">
<path d="M2.29297 7.29158H6.27963C7.01231 7.29158 7.43612 6.87074 7.43612 6.15531V2.26954C7.43612 1.90481 7.15598 1.61723 6.77527 1.61723C6.39456 1.61723 6.1216 1.8978 6.1216 2.26954V2.85872L6.27245 5.30661L4.37609 3.36373L2.17086 1.18938C2.04874 1.06313 1.88353 1 1.71113 1C1.30169 1 1 1.26653 1 1.65932C1 1.84168 1.07183 2.01703 1.20113 2.14329L3.41355 4.30361L5.40328 6.1483L2.89636 6.00802H2.29297C1.91226 6.00802 1.61775 6.26754 1.61775 6.64629C1.61775 7.01804 1.90508 7.29158 2.29297 7.29158ZM9.18163 14.4108C9.56234 14.4108 9.8353 14.1373 9.8353 13.7585V13.0922L9.68445 10.6513L11.5808 12.5942L13.8363 14.8106C13.9584 14.9369 14.1165 15 14.296 15C14.6983 15 15 14.7335 15 14.3407C15 14.1583 14.9354 13.983 14.8061 13.8567L12.5434 11.6473L10.5464 9.80261L13.0605 9.94289H13.7429C14.1237 9.94289 14.4182 9.68337 14.4182 9.31162C14.4182 8.93287 14.1308 8.66633 13.7429 8.66633H9.67727C8.94459 8.66633 8.52078 9.08016 8.52078 9.79559V13.7585C8.52078 14.1303 8.79374 14.4108 9.18163 14.4108Z" fill="black"/>
</svg>
