<svg width="16" height="16" viewBox="0 0 16 16" fill="none" xmlns="http://www.w3.org/2000/svg">
<path d="M11.6399 9.69515V2.12338C11.6399 1.64228 11.2846 1.25 10.7887 1.25C10.4334 1.25 10.2114 1.41283 9.8191 1.76071L6.58463 4.6325L7.37659 5.43187L10.2632 2.81172C10.3002 2.77472 10.3446 2.75251 10.389 2.75251C10.4408 2.75251 10.4852 2.78952 10.4852 2.85613V8.54051L11.6399 9.69515ZM14.0454 15.0835C14.2674 15.3055 14.6375 15.3055 14.8521 15.0835C15.0742 14.854 15.0742 14.4987 14.8521 14.2767L2.18072 1.60527C1.95867 1.38323 1.58859 1.38323 1.36655 1.60527C1.1445 1.81992 1.1445 2.1974 1.36655 2.41204L14.0454 15.0835ZM4.18653 10.7832H6.30337C6.36998 10.7832 6.4292 10.8054 6.48101 10.8498L9.8191 13.84C10.1818 14.1583 10.4482 14.3063 10.8035 14.3063C11.0922 14.3063 11.329 14.1731 11.4992 13.9214L10.6407 13.0702L7.06573 9.86539C6.9177 9.73216 6.82888 9.70255 6.63644 9.70255H4.23834C3.95708 9.70255 3.83126 9.57673 3.83126 9.30287V6.25344L2.94307 5.36525C2.77284 5.6021 2.67662 5.93517 2.67662 6.37186V9.20665C2.67662 10.2799 3.17992 10.7832 4.18653 10.7832Z" fill="#000000"/>
</svg>
