<svg width="16" height="16" viewBox="0 0 16 16" fill="none" xmlns="http://www.w3.org/2000/svg">
<path d="M16 8C16 12.418 12.418 16 8 16C3.58197 16 0 12.418 0 8C0 3.58197 3.58197 0 8 0C12.419 0 16 3.58197 16 8Z" fill="black"/>
<path d="M3.94698 8.26882L3.98149 8.21457L6.06261 4.95892C6.09303 4.91125 6.16453 4.91618 6.18754 4.96796C6.53522 5.74714 6.83522 6.7162 6.69467 7.31949C6.63467 7.56772 6.47029 7.90388 6.28535 8.21457C6.26152 8.25978 6.23522 8.30417 6.20727 8.3469C6.19411 8.36663 6.17192 8.37813 6.14808 8.37813H4.00779C3.95026 8.37813 3.91656 8.31567 3.94698 8.26882Z" fill="black"/>
<path d="M13.2225 8.87286V9.3882C13.2225 9.41778 13.2044 9.44409 13.1781 9.45559C13.017 9.52463 12.4655 9.77778 12.2362 10.0967C11.651 10.9112 11.2038 12.0759 10.2044 12.0759H6.03474C4.55693 12.0759 3.35938 10.8742 3.35938 9.39148V9.34382C3.35938 9.30436 3.39142 9.27231 3.43088 9.27231H5.7553C5.80131 9.27231 5.83501 9.31505 5.83091 9.36025C5.81446 9.51148 5.84242 9.66601 5.91392 9.80655C6.052 10.0868 6.33803 10.2619 6.64707 10.2619H7.79778V9.36354H6.66022C6.60187 9.36354 6.56736 9.29614 6.60106 9.24847C6.61338 9.22956 6.62736 9.20985 6.64214 9.18766C6.74982 9.03478 6.90352 8.79724 7.0564 8.52682C7.16078 8.34436 7.26187 8.14956 7.34325 7.95394C7.3597 7.9186 7.37283 7.88242 7.38598 7.84708C7.40818 7.78462 7.4312 7.72626 7.44763 7.66791C7.46408 7.61858 7.47722 7.56681 7.49037 7.51831C7.52901 7.35228 7.54544 7.17639 7.54544 6.99393C7.54544 6.92242 7.54216 6.84762 7.53558 6.77612C7.53229 6.69804 7.52243 6.61994 7.51256 6.54186C7.50598 6.47282 7.49366 6.4046 7.48051 6.3331C7.46408 6.22871 7.44106 6.12516 7.41475 6.02076L7.40571 5.98132C7.38598 5.9098 7.36955 5.84159 7.34654 5.77009C7.2816 5.54569 7.20682 5.32706 7.1279 5.12241C7.09914 5.04103 7.06626 4.96295 7.03338 4.88487C6.9849 4.76734 6.93557 4.66049 6.89037 4.55938C6.86736 4.51335 6.84763 4.47143 6.8279 4.4287C6.80571 4.3802 6.7827 4.3317 6.75968 4.28569C6.74325 4.25034 6.72434 4.21746 6.71118 4.18458L6.57064 3.92486C6.55091 3.88951 6.58379 3.84759 6.62242 3.85828L7.50189 4.09663H7.50435C7.50598 4.09663 7.50682 4.09746 7.50763 4.09746L7.62352 4.12951L7.75093 4.16569L7.79778 4.17882V3.65609C7.79778 3.40375 7.99997 3.1991 8.24984 3.1991C8.37477 3.1991 8.48819 3.25006 8.56957 3.33306C8.65093 3.41609 8.70189 3.52951 8.70189 3.65609V4.43199L8.7956 4.45828C8.80299 4.46076 8.81038 4.46404 8.81696 4.46897C8.83998 4.48623 8.87285 4.5117 8.91477 4.54295C8.94765 4.56924 8.98299 4.6013 9.02573 4.63418C9.11038 4.70239 9.21149 4.79034 9.32245 4.89145C9.35203 4.91692 9.3808 4.94322 9.4071 4.96953C9.55013 5.10268 9.7104 5.25884 9.86328 5.43145C9.90602 5.47994 9.94794 5.52926 9.99067 5.58103C10.0334 5.63364 10.0786 5.68542 10.1181 5.73721C10.1699 5.80625 10.2257 5.87775 10.2742 5.95255C10.2972 5.9879 10.3236 6.02406 10.3457 6.0594C10.4082 6.15391 10.4633 6.25174 10.5159 6.34954C10.5381 6.39474 10.5611 6.44406 10.5808 6.49255C10.6392 6.62324 10.6852 6.75639 10.7148 6.88954C10.7238 6.91831 10.7304 6.94954 10.7337 6.9775V6.98407C10.7436 7.02351 10.7468 7.06543 10.7501 7.10817C10.7633 7.24462 10.7567 7.38105 10.7271 7.51831C10.7148 7.57668 10.6984 7.63174 10.6786 7.6901C10.6589 7.74599 10.6392 7.80434 10.6137 7.85942C10.5644 7.97366 10.506 8.08791 10.437 8.19476C10.4148 8.23422 10.3885 8.27614 10.3622 8.31559C10.3334 8.3575 10.3038 8.39695 10.2775 8.43559C10.2414 8.4849 10.2027 8.53668 10.1633 8.58271C10.1279 8.63121 10.0918 8.6797 10.0523 8.72244C9.99725 8.78737 9.94464 8.84902 9.88957 8.9082C9.8567 8.94682 9.82136 8.98628 9.78518 9.02162C9.74986 9.06106 9.71368 9.09641 9.6808 9.12929C9.62574 9.18436 9.57971 9.2271 9.54107 9.26244L9.45067 9.34546C9.43752 9.35697 9.42026 9.36354 9.40218 9.36354H8.70189V10.2619H9.58299C9.78026 10.2619 9.96766 10.192 10.1189 10.0638C10.1707 10.0186 10.3967 9.823 10.6638 9.52793C10.6729 9.51806 10.6844 9.51066 10.6975 9.50738L13.1312 8.80382C13.1765 8.79066 13.2225 8.82518 13.2225 8.87286Z" fill="white"/>
</svg>
