<svg width="16" height="16" viewBox="0 0 16 16" fill="black" xmlns="http://www.w3.org/2000/svg">
<path fill-rule="evenodd" clip-rule="evenodd" d="M8 16C12.418 16 16 12.418 16 8C16 3.58197 12.419 0 8 0C3.58197 0 0 3.58197 0 8C0 12.418 3.58197 16 8 16ZM13.2225 8.87347V9.38881C13.2225 9.41839 13.2044 9.4447 13.1781 9.4562C13.017 9.52524 12.4655 9.77839 12.2362 10.0973C12.1086 10.2749 11.9876 10.4691 11.866 10.6642C11.4298 11.3643 10.986 12.0765 10.2044 12.0765H6.03474C4.55693 12.0765 3.35938 10.8749 3.35938 9.39209V9.34443C3.35938 9.30497 3.39142 9.27292 3.43088 9.27292H5.75529C5.80131 9.27292 5.83501 9.31566 5.83091 9.36086C5.81446 9.51209 5.84242 9.66662 5.91392 9.80716C6.052 10.0875 6.33803 10.2625 6.64707 10.2625H7.79778V9.36415H6.66022C6.60187 9.36415 6.56736 9.29675 6.60106 9.24908C6.60787 9.23862 6.61519 9.22792 6.62288 9.21669L6.62295 9.21658L6.64214 9.18827C6.74982 9.03539 6.90352 8.79785 7.0564 8.52744C7.16078 8.34497 7.26187 8.15017 7.34325 7.95455C7.35834 7.92212 7.37065 7.88899 7.38273 7.85644L7.38598 7.84769L7.40342 7.79947L7.40343 7.79946C7.41977 7.75471 7.4355 7.71162 7.44763 7.66852C7.46105 7.62827 7.47227 7.58639 7.48309 7.54599L7.48309 7.54598L7.49037 7.51892C7.52901 7.35289 7.54544 7.177 7.54544 6.99454C7.54544 6.92303 7.54216 6.84823 7.53558 6.77673C7.53229 6.69865 7.52243 6.62055 7.51256 6.54247C7.50598 6.47343 7.49366 6.40521 7.48051 6.33371C7.46408 6.22932 7.44106 6.12577 7.41475 6.02137L7.40571 5.98193C7.39985 5.96066 7.39427 5.93969 7.38873 5.91884L7.38871 5.91878C7.37562 5.86952 7.3627 5.82092 7.34654 5.7707C7.2816 5.5463 7.20681 5.32767 7.1279 5.12302C7.09914 5.04165 7.06626 4.96357 7.03338 4.88549L7.03338 4.88548C6.99528 4.79312 6.95665 4.70735 6.91992 4.62579L6.91991 4.62575L6.89037 4.55999C6.86736 4.51396 6.84763 4.47204 6.8279 4.42931C6.80571 4.38081 6.7827 4.33231 6.75968 4.2863C6.75322 4.27241 6.74638 4.2589 6.73966 4.24563C6.72927 4.22512 6.71917 4.20516 6.71118 4.18519L6.57064 3.92547C6.55091 3.89012 6.58379 3.8482 6.62242 3.85889L7.50189 4.09724H7.50435C7.50531 4.09724 7.50599 4.09753 7.50655 4.09776L7.50763 4.09807L7.62352 4.13012L7.75093 4.1663L7.79778 4.17943V3.6567C7.79778 3.40436 7.99997 3.19971 8.24984 3.19971C8.37477 3.19971 8.48819 3.25067 8.56957 3.33367C8.65093 3.4167 8.70189 3.53012 8.70189 3.6567V4.4326L8.7956 4.45889C8.80299 4.46137 8.81038 4.46465 8.81696 4.46958L8.84815 4.49323L8.84819 4.49327C8.86688 4.5075 8.88913 4.52445 8.91477 4.54356C8.92808 4.5542 8.94179 4.56579 8.95624 4.578L8.95627 4.57803C8.9775 4.59597 9.00031 4.61524 9.02573 4.63479C9.11038 4.703 9.21149 4.79095 9.32245 4.89206C9.35203 4.91753 9.3808 4.94383 9.4071 4.97014C9.55013 5.10329 9.7104 5.25945 9.86328 5.43206C9.90602 5.48056 9.94794 5.52987 9.99067 5.58164C10.0058 5.60027 10.0212 5.61879 10.0366 5.63725L10.0366 5.63726C10.0647 5.67093 10.0926 5.70437 10.1181 5.73782L10.1471 5.77626C10.1902 5.83334 10.2347 5.89215 10.2742 5.95316C10.2842 5.96851 10.2948 5.98402 10.3055 5.99954L10.3055 5.99963C10.3194 6.01982 10.3332 6.04005 10.3457 6.06001C10.4082 6.15452 10.4633 6.25235 10.5159 6.35015C10.5381 6.39535 10.5611 6.44467 10.5808 6.49316C10.6392 6.62385 10.6852 6.757 10.7148 6.89015C10.7238 6.91892 10.7304 6.95015 10.7337 6.97811V6.98468C10.7436 7.02412 10.7468 7.06604 10.7501 7.10878C10.7633 7.24523 10.7567 7.38166 10.7271 7.51892C10.7148 7.57729 10.6984 7.63235 10.6786 7.69071L10.672 7.7095C10.6544 7.75958 10.6363 7.8111 10.6137 7.86003C10.5644 7.97427 10.506 8.08852 10.437 8.19537C10.4148 8.23483 10.3885 8.27675 10.3622 8.3162C10.3482 8.33658 10.334 8.35638 10.3201 8.37579L10.3199 8.376C10.3053 8.39643 10.291 8.41642 10.2775 8.4362C10.2414 8.48551 10.2027 8.53729 10.1633 8.58332C10.1279 8.63182 10.0918 8.68032 10.0523 8.72305C9.99725 8.78798 9.94464 8.84963 9.88957 8.90881C9.8567 8.94743 9.82136 8.98689 9.78518 9.02223C9.7549 9.05604 9.72399 9.08684 9.69507 9.11566L9.69503 9.1157L9.6808 9.1299C9.62574 9.18497 9.57971 9.22771 9.54107 9.26305L9.45067 9.34607C9.43752 9.35758 9.42026 9.36415 9.40218 9.36415H8.70189V10.2625H9.58299C9.78026 10.2625 9.96766 10.1926 10.1189 10.0644L10.123 10.0609L10.123 10.0609C10.1817 10.0097 10.4032 9.81645 10.6638 9.52854C10.6729 9.51867 10.6844 9.51127 10.6975 9.50799L13.1312 8.80443C13.1765 8.79127 13.2225 8.82579 13.2225 8.87347ZM3.94893 8.26815L3.98344 8.21389L6.06456 4.95825C6.09498 4.91058 6.16648 4.91551 6.18949 4.96729C6.53717 5.74647 6.83717 6.71553 6.69663 7.31882C6.63663 7.56705 6.47224 7.90321 6.2873 8.21389C6.26348 8.25911 6.23717 8.3035 6.20922 8.34623C6.19607 8.36596 6.17388 8.37746 6.15004 8.37746H4.00975C3.95221 8.37746 3.91851 8.315 3.94893 8.26815Z" fill="black"/>
</svg>
