<svg width="32" height="32" viewBox="0 0 32 32" fill="none" xmlns="http://www.w3.org/2000/svg">
<g filter="url(#filter0_b_5276_55903)">
<circle cx="16" cy="16" r="16" fill="white"/>
</g>
<path fill-rule="evenodd" clip-rule="evenodd" d="M16 24C20.418 24 24 20.418 24 16C24 11.582 20.419 8 16 8C11.582 8 8 11.582 8 16C8 20.418 11.582 24 16 24ZM21.2225 16.8735V17.3888C21.2225 17.4184 21.2044 17.4447 21.1781 17.4562C21.017 17.5252 20.4655 17.7784 20.2362 18.0973C20.1086 18.2749 19.9876 18.4691 19.866 18.6642C19.4298 19.3643 18.986 20.0765 18.2044 20.0765H14.0347C12.5569 20.0765 11.3594 18.8749 11.3594 17.3921V17.3444C11.3594 17.305 11.3914 17.2729 11.4309 17.2729H13.7553C13.8013 17.2729 13.835 17.3157 13.8309 17.3609C13.8145 17.5121 13.8424 17.6666 13.9139 17.8072C14.052 18.0875 14.338 18.2625 14.6471 18.2625H15.7978V17.3642H14.6602C14.6019 17.3642 14.5674 17.2967 14.6011 17.2491C14.6079 17.2386 14.6152 17.2279 14.6229 17.2167L14.6229 17.2166L14.6421 17.1883C14.7498 17.0354 14.9035 16.7979 15.0564 16.5274C15.1608 16.345 15.2619 16.1502 15.3432 15.9546C15.3583 15.9221 15.3706 15.889 15.3827 15.8564L15.386 15.8477L15.4034 15.7995L15.4034 15.7995C15.4198 15.7547 15.4355 15.7116 15.4476 15.6685C15.4611 15.6283 15.4723 15.5864 15.4831 15.546L15.4831 15.546L15.4904 15.5189C15.529 15.3529 15.5454 15.177 15.5454 14.9945C15.5454 14.923 15.5422 14.8482 15.5356 14.7767C15.5323 14.6987 15.5224 14.6206 15.5126 14.5425C15.506 14.4734 15.4937 14.4052 15.4805 14.3337C15.4641 14.2293 15.4411 14.1258 15.4148 14.0214L15.4057 13.9819C15.3998 13.9607 15.3943 13.9397 15.3887 13.9188L15.3887 13.9188C15.3756 13.8695 15.3627 13.8209 15.3465 13.7707C15.2816 13.5463 15.2068 13.3277 15.1279 13.123C15.0991 13.0416 15.0663 12.9636 15.0334 12.8855L15.0334 12.8855C14.9953 12.7931 14.9567 12.7074 14.9199 12.6258L14.9199 12.6257L14.8904 12.56C14.8674 12.514 14.8476 12.472 14.8279 12.4293C14.8057 12.3808 14.7827 12.3323 14.7597 12.2863C14.7532 12.2724 14.7464 12.2589 14.7397 12.2456C14.7293 12.2251 14.7192 12.2052 14.7112 12.1852L14.5706 11.9255C14.5509 11.8901 14.5838 11.8482 14.6224 11.8589L15.5019 12.0972H15.5044C15.5053 12.0972 15.506 12.0975 15.5066 12.0978L15.5076 12.0981L15.6235 12.1301L15.7509 12.1663L15.7978 12.1794V11.6567C15.7978 11.4044 16 11.1997 16.2498 11.1997C16.3748 11.1997 16.4882 11.2507 16.5696 11.3337C16.6509 11.4167 16.7019 11.5301 16.7019 11.6567V12.4326L16.7956 12.4589C16.803 12.4614 16.8104 12.4647 16.817 12.4696L16.8481 12.4932L16.8482 12.4933C16.8669 12.5075 16.8891 12.5245 16.9148 12.5436C16.9281 12.5542 16.9418 12.5658 16.9562 12.578L16.9563 12.578C16.9775 12.596 17.0003 12.6152 17.0257 12.6348C17.1104 12.703 17.2115 12.791 17.3224 12.8921C17.352 12.9175 17.3808 12.9438 17.4071 12.9701C17.5501 13.1033 17.7104 13.2595 17.8633 13.4321C17.906 13.4806 17.9479 13.5299 17.9907 13.5816C18.0058 13.6003 18.0212 13.6188 18.0366 13.6373L18.0366 13.6373C18.0647 13.6709 18.0926 13.7044 18.1181 13.7378L18.1471 13.7763C18.1902 13.8333 18.2347 13.8922 18.2742 13.9532C18.2842 13.9685 18.2948 13.984 18.3055 13.9995L18.3055 13.9996C18.3194 14.0198 18.3332 14.04 18.3457 14.06C18.4082 14.1545 18.4633 14.2523 18.5159 14.3502C18.5381 14.3954 18.5611 14.4447 18.5808 14.4932C18.6392 14.6239 18.6852 14.757 18.7148 14.8902C18.7238 14.9189 18.7304 14.9502 18.7337 14.9781V14.9847C18.7436 15.0241 18.7468 15.066 18.7501 15.1088C18.7633 15.2452 18.7567 15.3817 18.7271 15.5189C18.7148 15.5773 18.6984 15.6323 18.6786 15.6907L18.672 15.7095C18.6544 15.7596 18.6363 15.8111 18.6137 15.86C18.5644 15.9743 18.506 16.0885 18.437 16.1954C18.4148 16.2348 18.3885 16.2767 18.3622 16.3162C18.3482 16.3366 18.334 16.3564 18.3201 16.3758L18.3199 16.376C18.3053 16.3964 18.291 16.4164 18.2775 16.4362C18.2414 16.4855 18.2027 16.5373 18.1633 16.5833C18.1279 16.6318 18.0918 16.6803 18.0523 16.7231C17.9972 16.788 17.9446 16.8496 17.8896 16.9088C17.8567 16.9474 17.8214 16.9869 17.7852 17.0222C17.7549 17.056 17.724 17.0868 17.6951 17.1157L17.695 17.1157L17.6808 17.1299C17.6257 17.185 17.5797 17.2277 17.5411 17.2631L17.4507 17.3461C17.4375 17.3576 17.4203 17.3642 17.4022 17.3642H16.7019V18.2625H17.583C17.7803 18.2625 17.9677 18.1926 18.1189 18.0644L18.123 18.0609L18.123 18.0609C18.1817 18.0097 18.4032 17.8165 18.6638 17.5285C18.6729 17.5187 18.6844 17.5113 18.6975 17.508L21.1312 16.8044C21.1765 16.7913 21.2225 16.8258 21.2225 16.8735ZM11.9489 16.2682L11.9834 16.2139L14.0646 12.9582C14.095 12.9106 14.1665 12.9155 14.1895 12.9673C14.5372 13.7465 14.8372 14.7155 14.6966 15.3188C14.6366 15.567 14.4722 15.9032 14.2873 16.2139C14.2635 16.2591 14.2372 16.3035 14.2092 16.3462C14.1961 16.366 14.1739 16.3775 14.15 16.3775H12.0097C11.9522 16.3775 11.9185 16.315 11.9489 16.2682Z" fill="black"/>
<defs>
<filter id="filter0_b_5276_55903" x="-25" y="-25" width="82" height="82" filterUnits="userSpaceOnUse" color-interpolation-filters="sRGB">
<feFlood flood-opacity="0" result="BackgroundImageFix"/>
<feGaussianBlur in="BackgroundImage" stdDeviation="12.5"/>
<feComposite in2="SourceAlpha" operator="in" result="effect1_backgroundBlur_5276_55903"/>
<feBlend mode="normal" in="SourceGraphic" in2="effect1_backgroundBlur_5276_55903" result="shape"/>
</filter>
</defs>
</svg>
