<svg width="16" height="14" viewBox="0 0 16 14" fill="none" xmlns="http://www.w3.org/2000/svg">
<path d="M1.4552 9.93299H3.51254C3.57706 9.93299 3.63441 9.95449 3.68459 9.9975L6.91756 12.8936C7.26165 13.2018 7.52688 13.3452 7.87097 13.3452C8.32975 13.3452 8.681 13.0083 8.681 12.5423V1.54589C8.681 1.07994 8.32975 0.700012 7.85663 0.700012C7.51254 0.700012 7.29032 0.857718 6.91756 1.19464L3.68459 4.06202C3.63441 4.10503 3.57706 4.12654 3.51254 4.12654H1.4552C0.480287 4.12654 0 4.62116 0 5.66059V8.40611C0 9.44553 0.487455 9.93299 1.4552 9.93299ZM13.7563 11.9402C14.0215 12.1194 14.3513 12.0549 14.5448 11.7824C15.4624 10.5208 16 8.78603 16 7.01542C16 5.24481 15.4695 3.49571 14.5448 2.2484C14.3513 1.976 14.0215 1.91148 13.7563 2.09069C13.491 2.2699 13.448 2.60682 13.6559 2.90073C14.4373 4.00467 14.8889 5.48854 14.8889 7.01542C14.8889 8.54231 14.4229 10.0118 13.6559 11.1301C13.4552 11.424 13.491 11.7609 13.7563 11.9402ZM1.50538 8.88639C1.24014 8.88639 1.11828 8.76453 1.11828 8.4993V5.5674C1.11828 5.29499 1.24014 5.17313 1.50538 5.17313H3.79928C3.98566 5.17313 4.12903 5.13729 4.29391 4.98675L7.34767 2.21256C7.38351 2.17671 7.41935 2.15521 7.46953 2.15521C7.51971 2.15521 7.56272 2.19105 7.56272 2.25557V11.7824C7.56272 11.847 7.51971 11.89 7.46953 11.89C7.43369 11.89 7.39068 11.8685 7.34767 11.8326L4.29391 9.07277C4.12903 8.9294 3.98566 8.88639 3.79928 8.88639H1.50538ZM11.1039 10.0692C11.3405 10.2341 11.6774 10.1839 11.871 9.90431C12.4229 9.1803 12.7527 8.1122 12.7527 7.01542C12.7527 5.91865 12.4229 4.85772 11.871 4.12654C11.6774 3.84697 11.3405 3.78962 11.1039 3.96166C10.81 4.16238 10.767 4.5208 10.9892 4.81471C11.405 5.38818 11.6416 6.18388 11.6416 7.01542C11.6416 7.84697 11.3978 8.6355 10.9892 9.21614C10.7742 9.51722 10.81 9.8613 11.1039 10.0692Z" fill="#000000"/>
</svg>
