<svg width="53" height="12" viewBox="0 0 53 12" fill="none" xmlns="http://www.w3.org/2000/svg">
<path fill-rule="evenodd" clip-rule="evenodd" d="M36.0169 2.35616V0.810303L37.5782 0.810303V2.35616L36.0169 2.35616ZM49.4692 6.45538L52.2398 4.65887L49.4692 2.86236V3.92133H49.1961C48.1325 3.92133 47.3523 4.51612 46.7616 5.21399C46.2442 5.82525 45.7943 6.61039 45.3767 7.33925C45.3273 7.42536 45.2784 7.51069 45.2299 7.59486C44.7492 8.42903 44.2934 9.17607 43.7578 9.7199C43.2414 10.2441 42.6951 10.5347 42.0178 10.5347H40.5189V12H42.0178C43.1959 12 44.0966 11.464 44.8017 10.7481C45.4874 10.052 46.0274 9.14565 46.4995 8.32648L46.6419 8.07868C47.0749 7.32463 47.4549 6.66285 47.88 6.16063C48.3389 5.61849 48.7479 5.3866 49.1961 5.3866H49.4692V6.45538ZM44.5278 6.90334C44.7179 6.57237 44.9164 6.22662 45.1331 5.88676C44.3071 4.78545 43.2678 3.92737 41.7491 3.92737H40.5186V5.36981L41.7491 5.36993C42.854 5.36993 43.6249 6.18338 44.3231 7.24926L44.4812 6.98459L44.5278 6.90334ZM51.662 10.5409V11.9923H49.4645C48.166 11.9923 47.2884 11.1396 46.5477 10.0525C46.855 9.6013 47.1339 9.1306 47.3933 8.67931C48.0185 9.71321 48.658 10.5392 49.4645 10.5392L51.662 10.5409ZM8.59645 7.0008C8.59645 5.27625 9.99447 3.87823 11.719 3.87823H14.5793C16.3038 3.87823 17.7019 5.27625 17.7019 7.0008V8.57339H10.1577V8.80071C10.1577 9.66299 10.8567 10.362 11.719 10.362H17.0355V11.9233H11.719C9.99447 11.9233 8.59645 10.5253 8.59645 8.80071V7.0008ZM10.1577 7.01211H16.1406V7.0008C16.1406 6.13852 15.4416 5.43951 14.5793 5.43951H11.719C10.8567 5.43951 10.1577 6.13852 10.1577 7.0008V7.01211ZM20.2292 7.69464V3.92133H21.7905V4.61545C22.4223 4.15195 23.202 3.87822 24.0456 3.87822H24.4291C25.4773 3.87822 26.4048 4.39462 26.9711 5.18687C27.6707 4.38493 28.7002 3.87822 29.848 3.87822H30.2315C31.9561 3.87822 33.3541 5.27624 33.3541 7.00079V12H31.7928V7.00079C31.7928 6.13851 31.0938 5.4395 30.2315 5.4395H29.848C28.6025 5.4395 27.5929 6.44916 27.5929 7.69464V12H27.5517H26.0316H25.9904V7.00079C25.9904 6.13851 25.2914 5.4395 24.4291 5.4395H24.0456C22.8001 5.4395 21.7905 6.44916 21.7905 7.69464V12H20.2292V7.69464ZM36.0169 3.92133V12H37.5782V3.92133H36.0169ZM1.56129 9.34273C1.56129 7.18704 3.30881 5.43951 5.4645 5.43951H6.97088V3.87823H5.4645C3.80584 3.87823 2.31979 4.61722 1.31762 5.78391L1.31762 4.17494L0.0165467 4.17494L0.0165469 8.91431C0.00558379 9.05567 0 9.19855 0 9.34273V12H1.56129V9.34273Z" fill="#90949E"/>
</svg>
