<svg width="71" height="16" viewBox="0 0 71 16" fill="none" xmlns="http://www.w3.org/2000/svg">
<path fill-rule="evenodd" clip-rule="evenodd" d="M48.892 2.78535V0.68689H51.0114V2.78535H48.892ZM67.1533 8.3499L70.9143 5.91119L67.1533 3.47248V4.91001H66.7822C65.3385 4.91001 64.2793 5.71742 63.4775 6.66475C62.7752 7.49452 62.1644 8.56032 61.5975 9.54974C61.5305 9.66663 61.4641 9.78246 61.3983 9.89671C60.7457 11.0291 60.127 12.0432 59.3999 12.7814C58.699 13.493 57.9573 13.8875 57.0379 13.8875H55.0032V15.8766H57.0379C58.6371 15.8766 59.8598 15.1489 60.817 14.1772C61.7478 13.2322 62.4809 12.0019 63.1217 10.8899L63.2159 10.7261L63.3061 10.5692L63.314 10.5555L63.3151 10.5535C63.9028 9.5299 64.4187 8.63154 64.9957 7.9498C65.6186 7.21385 66.1739 6.89907 66.7822 6.89907H67.1533V8.3499ZM60.4455 8.95775L60.4455 8.95766C60.7035 8.50849 60.9729 8.03926 61.2669 7.57804C60.1457 6.08304 58.7349 4.91822 56.6733 4.91822H55.0029V6.87629L56.6733 6.87646C58.1732 6.87646 59.2197 7.98069 60.1674 9.42759L60.382 9.06831L60.4455 8.95775ZM70.1298 13.8959V15.8661H67.1468C65.384 15.8661 64.1928 14.7086 63.1873 13.2329C63.6044 12.6204 63.983 11.9814 64.3351 11.3688C65.1838 12.7723 66.0519 13.8936 67.1468 13.8936L70.1298 13.8959ZM11.6694 9.0903C11.6694 6.74928 13.5672 4.8515 15.9082 4.8515H19.791C22.132 4.8515 24.0298 6.74928 24.0298 9.0903V11.2251H13.7888V11.5336C13.7888 12.7041 14.7377 13.653 15.9082 13.653H23.1252V15.7724H15.9082C13.5672 15.7724 11.6694 13.8747 11.6694 11.5336V9.0903ZM13.7888 9.10566H21.9104V9.0903C21.9104 7.91979 20.9615 6.9709 19.791 6.9709H15.9082C14.7377 6.9709 13.7888 7.91979 13.7888 9.0903V9.10566ZM27.4606 10.0322V4.91002L29.58 4.91002V5.85226C30.4376 5.22308 31.496 4.85149 32.6413 4.85149H33.1619C34.5847 4.85149 35.8437 5.55248 36.6125 6.62795C37.5622 5.53934 38.9597 4.85149 40.5178 4.85149H41.0384C43.3795 4.85149 45.2772 6.74926 45.2772 9.09029V15.8766H43.1578V9.09029C43.1578 7.91977 42.209 6.97089 41.0384 6.97089H40.5178C38.8271 6.97089 37.4566 8.34147 37.4566 10.0322V15.8766H37.4007H35.3372H35.2813V9.09029C35.2813 7.91977 34.3324 6.97089 33.1619 6.97089H32.6413C30.9506 6.97089 29.58 8.34147 29.58 10.0322V15.8766H27.4606V10.0322ZM48.892 4.91002V15.8766H51.0114V4.91002L48.892 4.91002ZM2.1194 12.2694C2.1194 9.34312 4.49162 6.9709 7.4179 6.9709H9.46278V4.8515H7.4179C5.1663 4.8515 3.14901 5.85468 1.78859 7.43846L1.78859 5.25429H0.0224214L0.0224217 11.6884C0.00756616 11.8801 0 12.0739 0 12.2694V15.8766L0.0224219 15.8766H1.78859L2.1194 15.8766V12.2694Z" fill="url(#paint0_linear_1_890)"/>
<defs>
<linearGradient id="paint0_linear_1_890" x1="0" y1="11.1375" x2="69.6589" y2="11.0242" gradientUnits="userSpaceOnUse">
<stop stop-color="#4176FF"/>
<stop offset="1" stop-color="#85FFD3"/>
</linearGradient>
</defs>
</svg>
