<svg width="16" height="16" viewBox="0 0 16 16" fill="none" xmlns="http://www.w3.org/2000/svg">
<path d="M1.66 13.576C1.66 15.1723 2.48033 16 4.06185 16H11.9325C13.514 16 14.3344 15.1723 14.3344 13.576V2.42402C14.3344 0.835104 13.514 0 11.9325 0H4.06185C2.48033 0 1.66 0.835104 1.66 2.42402V13.576ZM3.1085 13.4873V2.5127C3.1085 1.8254 3.46324 1.4485 4.1801 1.4485H11.8069C12.5237 1.4485 12.8859 1.8254 12.8859 2.5127V13.4873C12.8859 14.1746 12.5237 14.5515 11.8069 14.5515H4.1801C3.46324 14.5515 3.1085 14.1746 3.1085 13.4873ZM5.29603 4.48591H10.7057C10.9718 4.48591 11.1787 4.27898 11.1787 4.01293C11.1787 3.75427 10.9718 3.55473 10.7057 3.55473H5.29603C5.02259 3.55473 4.81566 3.75427 4.81566 4.01293C4.81566 4.27898 5.02259 4.48591 5.29603 4.48591ZM5.29603 7.0134H10.7057C10.9718 7.0134 11.1787 6.80647 11.1787 6.54042C11.1787 6.28176 10.9718 6.08222 10.7057 6.08222H5.29603C5.02259 6.08222 4.81566 6.28176 4.81566 6.54042C4.81566 6.80647 5.02259 7.0134 5.29603 7.0134ZM5.29603 9.54088H7.9122C8.17825 9.54088 8.37779 9.34134 8.37779 9.08268C8.37779 8.81663 8.17825 8.60231 7.9122 8.60231H5.29603C5.02259 8.60231 4.81566 8.81663 4.81566 9.08268C4.81566 9.34134 5.02259 9.54088 5.29603 9.54088Z" fill="#90949E"/>
</svg>
